ISO-10303-21;
HEADER;
/* Generated by software containing ST-Developer
 * from STEP Tools, Inc. (www.steptools.com) 
 */
/* OPTION: using custom renumber hook */

FILE_DESCRIPTION(
/* description */ ('STEP AP242 Edition 2',
'CAx-IF Rec.Pracs.---Representation and Presentation of Product Manufa
cturing Information (PMI)---4.0---2014-10-13',
'CAx-IF Rec.Pracs.---3D Tessellated Geometry---0.4---2014-09-14','2;1',
'CAx-IF Rec.Pracs.---User Defined Attributes---1.5---2016-08-15'),
/* implementation_level */ '2;1');

FILE_NAME(
/* name */ 'toolhead v4 - Open CASCADE STEP translator 6.8 1.1.1',
/* time_stamp */ '2026-08-19T20:10:41Z',
/* author */ (''),
/* organization */ (''),
/* preprocessor_version */ 'ST-DEVELOPER v20',
/* originating_system */ 'ONSHAPE BY PTC INC, 1.219',
/* authorisation */ '  ');

FILE_SCHEMA (('AP242_MANAGED_MODEL_BASED_3D_ENGINEERING_MIM_LF { 1 0 10303 442 3 1 4 }'));
ENDSEC;

DATA;
#10=SHAPE_REPRESENTATION_RELATIONSHIP('','',#1379,#11);
#11=ADVANCED_BREP_SHAPE_REPRESENTATION('',(#1377),#2315);
#12=CYLINDRICAL_SURFACE('',#1501,0.00154999944);
#13=CYLINDRICAL_SURFACE('',#1502,0.0003999992);
#14=CYLINDRICAL_SURFACE('',#1503,0.0004500118);
#15=CYLINDRICAL_SURFACE('',#1504,0.0004500118);
#16=CYLINDRICAL_SURFACE('',#1505,0.0003999992);
#17=CYLINDRICAL_SURFACE('',#1506,0.0003999992);
#18=CYLINDRICAL_SURFACE('',#1507,0.0003999992);
#19=CYLINDRICAL_SURFACE('',#1508,0.0004500118);
#20=CYLINDRICAL_SURFACE('',#1509,0.0003999992);
#21=CYLINDRICAL_SURFACE('',#1510,0.0003999992);
#22=CYLINDRICAL_SURFACE('',#1511,0.00100000054);
#23=CYLINDRICAL_SURFACE('',#1512,0.00100000054);
#24=CYLINDRICAL_SURFACE('',#1513,0.0003999992);
#25=CYLINDRICAL_SURFACE('',#1514,0.0003999992);
#26=CYLINDRICAL_SURFACE('',#1515,0.0004500118);
#27=CYLINDRICAL_SURFACE('',#1516,0.0004500118);
#28=CYLINDRICAL_SURFACE('',#1517,0.0004500118);
#29=CYLINDRICAL_SURFACE('',#1518,0.0004500118);
#30=CYLINDRICAL_SURFACE('',#1519,0.0004500118);
#31=CYLINDRICAL_SURFACE('',#1520,0.0006999986);
#32=CYLINDRICAL_SURFACE('',#1521,0.0006999986);
#33=CYLINDRICAL_SURFACE('',#1522,0.00154999944);
#34=CYLINDRICAL_SURFACE('',#1523,0.0004500118);
#35=CYLINDRICAL_SURFACE('',#1524,0.0004500118);
#36=CYLINDRICAL_SURFACE('',#1525,0.0003999992);
#37=CYLINDRICAL_SURFACE('',#1526,0.0003999992);
#38=CYLINDRICAL_SURFACE('',#1527,0.0003999992);
#39=CYLINDRICAL_SURFACE('',#1528,0.0003999992);
#40=CYLINDRICAL_SURFACE('',#1529,0.0004500118);
#41=CYLINDRICAL_SURFACE('',#1530,0.0003999992);
#42=CYLINDRICAL_SURFACE('',#1531,0.0003499993);
#43=CYLINDRICAL_SURFACE('',#1532,0.0003499993);
#44=CYLINDRICAL_SURFACE('',#1533,0.00154999944);
#45=CYLINDRICAL_SURFACE('',#1534,0.0004500118);
#46=CYLINDRICAL_SURFACE('',#1535,0.0004500118);
#47=CYLINDRICAL_SURFACE('',#1536,0.0003999992);
#48=CYLINDRICAL_SURFACE('',#1537,0.0004500118);
#49=CYLINDRICAL_SURFACE('',#1538,0.0003999992);
#50=CYLINDRICAL_SURFACE('',#1539,0.000499999);
#51=CYLINDRICAL_SURFACE('',#1540,0.000499999);
#52=CYLINDRICAL_SURFACE('',#1541,0.000499999);
#53=CYLINDRICAL_SURFACE('',#1542,0.000499999);
#54=CYLINDRICAL_SURFACE('',#1543,0.0004500118);
#55=CYLINDRICAL_SURFACE('',#1544,0.0004500118);
#56=CYLINDRICAL_SURFACE('',#1545,0.0003999992);
#57=CYLINDRICAL_SURFACE('',#1546,0.0004500118);
#58=CYLINDRICAL_SURFACE('',#1547,0.0004500118);
#59=CYLINDRICAL_SURFACE('',#1548,0.0004500118);
#60=CYLINDRICAL_SURFACE('',#1549,0.0004500118);
#61=CYLINDRICAL_SURFACE('',#1550,0.0003999992);
#62=CYLINDRICAL_SURFACE('',#1551,0.0003999992);
#63=CYLINDRICAL_SURFACE('',#1552,0.0003999992);
#64=CYLINDRICAL_SURFACE('',#1553,0.0004500118);
#65=CYLINDRICAL_SURFACE('',#1554,0.0004500118);
#66=CYLINDRICAL_SURFACE('',#1555,0.0004500118);
#67=CYLINDRICAL_SURFACE('',#1556,0.0004500118);
#68=CYLINDRICAL_SURFACE('',#1557,0.0004500118);
#69=CYLINDRICAL_SURFACE('',#1558,0.0004500118);
#70=CYLINDRICAL_SURFACE('',#1559,0.00154999944);
#71=LINE('',#2088,#95);
#72=LINE('',#2091,#96);
#73=LINE('',#2093,#97);
#74=LINE('',#2095,#98);
#75=LINE('',#2097,#99);
#76=LINE('',#2099,#100);
#77=LINE('',#2101,#101);
#78=LINE('',#2103,#102);
#79=LINE('',#2223,#103);
#80=LINE('',#2226,#104);
#81=LINE('',#2228,#105);
#82=LINE('',#2230,#106);
#83=LINE('',#2232,#107);
#84=LINE('',#2234,#108);
#85=LINE('',#2236,#109);
#86=LINE('',#2238,#110);
#87=LINE('',#2299,#111);
#88=LINE('',#2300,#112);
#89=LINE('',#2302,#113);
#90=LINE('',#2304,#114);
#91=LINE('',#2306,#115);
#92=LINE('',#2308,#116);
#93=LINE('',#2310,#117);
#94=LINE('',#2312,#118);
#95=VECTOR('',#1690,1.);
#96=VECTOR('',#1691,1.);
#97=VECTOR('',#1692,1.);
#98=VECTOR('',#1693,1.);
#99=VECTOR('',#1694,1.);
#100=VECTOR('',#1695,1.);
#101=VECTOR('',#1696,1.);
#102=VECTOR('',#1697,1.);
#103=VECTOR('',#1818,1.);
#104=VECTOR('',#1819,1.);
#105=VECTOR('',#1820,1.);
#106=VECTOR('',#1821,1.);
#107=VECTOR('',#1822,1.);
#108=VECTOR('',#1823,1.);
#109=VECTOR('',#1824,1.);
#110=VECTOR('',#1825,1.);
#111=VECTOR('',#1946,1.);
#112=VECTOR('',#1947,1.);
#113=VECTOR('',#1950,1.);
#114=VECTOR('',#1953,1.);
#115=VECTOR('',#1956,1.);
#116=VECTOR('',#1959,1.);
#117=VECTOR('',#1962,1.);
#118=VECTOR('',#1965,1.);
#119=ORIENTED_EDGE('',*,*,#403,.F.);
#120=ORIENTED_EDGE('',*,*,#404,.F.);
#121=ORIENTED_EDGE('',*,*,#405,.F.);
#122=ORIENTED_EDGE('',*,*,#406,.F.);
#123=ORIENTED_EDGE('',*,*,#407,.F.);
#124=ORIENTED_EDGE('',*,*,#408,.F.);
#125=ORIENTED_EDGE('',*,*,#409,.F.);
#126=ORIENTED_EDGE('',*,*,#410,.F.);
#127=ORIENTED_EDGE('',*,*,#411,.F.);
#128=ORIENTED_EDGE('',*,*,#412,.F.);
#129=ORIENTED_EDGE('',*,*,#413,.F.);
#130=ORIENTED_EDGE('',*,*,#414,.F.);
#131=ORIENTED_EDGE('',*,*,#415,.F.);
#132=ORIENTED_EDGE('',*,*,#416,.F.);
#133=ORIENTED_EDGE('',*,*,#417,.F.);
#134=ORIENTED_EDGE('',*,*,#418,.F.);
#135=ORIENTED_EDGE('',*,*,#419,.F.);
#136=ORIENTED_EDGE('',*,*,#420,.F.);
#137=ORIENTED_EDGE('',*,*,#421,.F.);
#138=ORIENTED_EDGE('',*,*,#422,.F.);
#139=ORIENTED_EDGE('',*,*,#423,.F.);
#140=ORIENTED_EDGE('',*,*,#424,.F.);
#141=ORIENTED_EDGE('',*,*,#425,.F.);
#142=ORIENTED_EDGE('',*,*,#426,.F.);
#143=ORIENTED_EDGE('',*,*,#427,.F.);
#144=ORIENTED_EDGE('',*,*,#428,.F.);
#145=ORIENTED_EDGE('',*,*,#429,.F.);
#146=ORIENTED_EDGE('',*,*,#430,.F.);
#147=ORIENTED_EDGE('',*,*,#431,.F.);
#148=ORIENTED_EDGE('',*,*,#432,.F.);
#149=ORIENTED_EDGE('',*,*,#433,.F.);
#150=ORIENTED_EDGE('',*,*,#434,.F.);
#151=ORIENTED_EDGE('',*,*,#435,.F.);
#152=ORIENTED_EDGE('',*,*,#436,.F.);
#153=ORIENTED_EDGE('',*,*,#437,.F.);
#154=ORIENTED_EDGE('',*,*,#438,.F.);
#155=ORIENTED_EDGE('',*,*,#439,.F.);
#156=ORIENTED_EDGE('',*,*,#440,.F.);
#157=ORIENTED_EDGE('',*,*,#441,.F.);
#158=ORIENTED_EDGE('',*,*,#442,.F.);
#159=ORIENTED_EDGE('',*,*,#443,.F.);
#160=ORIENTED_EDGE('',*,*,#444,.F.);
#161=ORIENTED_EDGE('',*,*,#445,.F.);
#162=ORIENTED_EDGE('',*,*,#446,.F.);
#163=ORIENTED_EDGE('',*,*,#447,.F.);
#164=ORIENTED_EDGE('',*,*,#448,.F.);
#165=ORIENTED_EDGE('',*,*,#449,.F.);
#166=ORIENTED_EDGE('',*,*,#450,.F.);
#167=ORIENTED_EDGE('',*,*,#451,.F.);
#168=ORIENTED_EDGE('',*,*,#452,.F.);
#169=ORIENTED_EDGE('',*,*,#453,.F.);
#170=ORIENTED_EDGE('',*,*,#454,.F.);
#171=ORIENTED_EDGE('',*,*,#455,.F.);
#172=ORIENTED_EDGE('',*,*,#456,.F.);
#173=ORIENTED_EDGE('',*,*,#457,.F.);
#174=ORIENTED_EDGE('',*,*,#458,.F.);
#175=ORIENTED_EDGE('',*,*,#459,.F.);
#176=ORIENTED_EDGE('',*,*,#460,.F.);
#177=ORIENTED_EDGE('',*,*,#461,.F.);
#178=ORIENTED_EDGE('',*,*,#462,.F.);
#179=ORIENTED_EDGE('',*,*,#463,.F.);
#180=ORIENTED_EDGE('',*,*,#464,.F.);
#181=ORIENTED_EDGE('',*,*,#465,.F.);
#182=ORIENTED_EDGE('',*,*,#466,.F.);
#183=ORIENTED_EDGE('',*,*,#467,.F.);
#184=ORIENTED_EDGE('',*,*,#468,.F.);
#185=ORIENTED_EDGE('',*,*,#469,.F.);
#186=ORIENTED_EDGE('',*,*,#470,.T.);
#187=ORIENTED_EDGE('',*,*,#471,.T.);
#188=ORIENTED_EDGE('',*,*,#472,.T.);
#189=ORIENTED_EDGE('',*,*,#473,.T.);
#190=ORIENTED_EDGE('',*,*,#474,.T.);
#191=ORIENTED_EDGE('',*,*,#475,.T.);
#192=ORIENTED_EDGE('',*,*,#476,.T.);
#193=ORIENTED_EDGE('',*,*,#477,.T.);
#194=ORIENTED_EDGE('',*,*,#478,.T.);
#195=ORIENTED_EDGE('',*,*,#479,.T.);
#196=ORIENTED_EDGE('',*,*,#480,.T.);
#197=ORIENTED_EDGE('',*,*,#481,.T.);
#198=ORIENTED_EDGE('',*,*,#482,.T.);
#199=ORIENTED_EDGE('',*,*,#483,.T.);
#200=ORIENTED_EDGE('',*,*,#484,.T.);
#201=ORIENTED_EDGE('',*,*,#485,.T.);
#202=ORIENTED_EDGE('',*,*,#486,.T.);
#203=ORIENTED_EDGE('',*,*,#487,.T.);
#204=ORIENTED_EDGE('',*,*,#488,.T.);
#205=ORIENTED_EDGE('',*,*,#489,.T.);
#206=ORIENTED_EDGE('',*,*,#490,.T.);
#207=ORIENTED_EDGE('',*,*,#491,.T.);
#208=ORIENTED_EDGE('',*,*,#492,.T.);
#209=ORIENTED_EDGE('',*,*,#493,.T.);
#210=ORIENTED_EDGE('',*,*,#494,.T.);
#211=ORIENTED_EDGE('',*,*,#495,.T.);
#212=ORIENTED_EDGE('',*,*,#496,.T.);
#213=ORIENTED_EDGE('',*,*,#497,.T.);
#214=ORIENTED_EDGE('',*,*,#498,.T.);
#215=ORIENTED_EDGE('',*,*,#499,.T.);
#216=ORIENTED_EDGE('',*,*,#500,.T.);
#217=ORIENTED_EDGE('',*,*,#501,.T.);
#218=ORIENTED_EDGE('',*,*,#502,.T.);
#219=ORIENTED_EDGE('',*,*,#503,.T.);
#220=ORIENTED_EDGE('',*,*,#504,.T.);
#221=ORIENTED_EDGE('',*,*,#505,.T.);
#222=ORIENTED_EDGE('',*,*,#506,.T.);
#223=ORIENTED_EDGE('',*,*,#507,.T.);
#224=ORIENTED_EDGE('',*,*,#508,.T.);
#225=ORIENTED_EDGE('',*,*,#509,.T.);
#226=ORIENTED_EDGE('',*,*,#510,.T.);
#227=ORIENTED_EDGE('',*,*,#511,.T.);
#228=ORIENTED_EDGE('',*,*,#512,.T.);
#229=ORIENTED_EDGE('',*,*,#513,.T.);
#230=ORIENTED_EDGE('',*,*,#514,.T.);
#231=ORIENTED_EDGE('',*,*,#515,.T.);
#232=ORIENTED_EDGE('',*,*,#516,.T.);
#233=ORIENTED_EDGE('',*,*,#517,.T.);
#234=ORIENTED_EDGE('',*,*,#518,.T.);
#235=ORIENTED_EDGE('',*,*,#519,.T.);
#236=ORIENTED_EDGE('',*,*,#520,.T.);
#237=ORIENTED_EDGE('',*,*,#521,.T.);
#238=ORIENTED_EDGE('',*,*,#522,.T.);
#239=ORIENTED_EDGE('',*,*,#523,.T.);
#240=ORIENTED_EDGE('',*,*,#524,.T.);
#241=ORIENTED_EDGE('',*,*,#525,.T.);
#242=ORIENTED_EDGE('',*,*,#526,.T.);
#243=ORIENTED_EDGE('',*,*,#527,.T.);
#244=ORIENTED_EDGE('',*,*,#528,.T.);
#245=ORIENTED_EDGE('',*,*,#529,.T.);
#246=ORIENTED_EDGE('',*,*,#530,.T.);
#247=ORIENTED_EDGE('',*,*,#531,.T.);
#248=ORIENTED_EDGE('',*,*,#532,.T.);
#249=ORIENTED_EDGE('',*,*,#533,.T.);
#250=ORIENTED_EDGE('',*,*,#534,.T.);
#251=ORIENTED_EDGE('',*,*,#535,.T.);
#252=ORIENTED_EDGE('',*,*,#536,.T.);
#253=ORIENTED_EDGE('',*,*,#403,.T.);
#254=ORIENTED_EDGE('',*,*,#470,.F.);
#255=ORIENTED_EDGE('',*,*,#404,.T.);
#256=ORIENTED_EDGE('',*,*,#471,.F.);
#257=ORIENTED_EDGE('',*,*,#405,.T.);
#258=ORIENTED_EDGE('',*,*,#472,.F.);
#259=ORIENTED_EDGE('',*,*,#406,.T.);
#260=ORIENTED_EDGE('',*,*,#473,.F.);
#261=ORIENTED_EDGE('',*,*,#407,.T.);
#262=ORIENTED_EDGE('',*,*,#474,.F.);
#263=ORIENTED_EDGE('',*,*,#408,.T.);
#264=ORIENTED_EDGE('',*,*,#475,.F.);
#265=ORIENTED_EDGE('',*,*,#409,.T.);
#266=ORIENTED_EDGE('',*,*,#476,.F.);
#267=ORIENTED_EDGE('',*,*,#410,.T.);
#268=ORIENTED_EDGE('',*,*,#477,.F.);
#269=ORIENTED_EDGE('',*,*,#411,.T.);
#270=ORIENTED_EDGE('',*,*,#478,.F.);
#271=ORIENTED_EDGE('',*,*,#412,.T.);
#272=ORIENTED_EDGE('',*,*,#479,.F.);
#273=ORIENTED_EDGE('',*,*,#413,.T.);
#274=ORIENTED_EDGE('',*,*,#480,.F.);
#275=ORIENTED_EDGE('',*,*,#414,.T.);
#276=ORIENTED_EDGE('',*,*,#481,.F.);
#277=ORIENTED_EDGE('',*,*,#415,.T.);
#278=ORIENTED_EDGE('',*,*,#482,.F.);
#279=ORIENTED_EDGE('',*,*,#416,.T.);
#280=ORIENTED_EDGE('',*,*,#483,.F.);
#281=ORIENTED_EDGE('',*,*,#417,.T.);
#282=ORIENTED_EDGE('',*,*,#484,.F.);
#283=ORIENTED_EDGE('',*,*,#418,.T.);
#284=ORIENTED_EDGE('',*,*,#485,.F.);
#285=ORIENTED_EDGE('',*,*,#419,.T.);
#286=ORIENTED_EDGE('',*,*,#486,.F.);
#287=ORIENTED_EDGE('',*,*,#420,.T.);
#288=ORIENTED_EDGE('',*,*,#487,.F.);
#289=ORIENTED_EDGE('',*,*,#421,.T.);
#290=ORIENTED_EDGE('',*,*,#488,.F.);
#291=ORIENTED_EDGE('',*,*,#422,.T.);
#292=ORIENTED_EDGE('',*,*,#489,.F.);
#293=ORIENTED_EDGE('',*,*,#423,.T.);
#294=ORIENTED_EDGE('',*,*,#490,.F.);
#295=ORIENTED_EDGE('',*,*,#424,.T.);
#296=ORIENTED_EDGE('',*,*,#491,.F.);
#297=ORIENTED_EDGE('',*,*,#425,.T.);
#298=ORIENTED_EDGE('',*,*,#492,.F.);
#299=ORIENTED_EDGE('',*,*,#426,.T.);
#300=ORIENTED_EDGE('',*,*,#493,.F.);
#301=ORIENTED_EDGE('',*,*,#427,.T.);
#302=ORIENTED_EDGE('',*,*,#494,.F.);
#303=ORIENTED_EDGE('',*,*,#428,.T.);
#304=ORIENTED_EDGE('',*,*,#495,.F.);
#305=ORIENTED_EDGE('',*,*,#429,.T.);
#306=ORIENTED_EDGE('',*,*,#496,.F.);
#307=ORIENTED_EDGE('',*,*,#430,.T.);
#308=ORIENTED_EDGE('',*,*,#497,.F.);
#309=ORIENTED_EDGE('',*,*,#431,.T.);
#310=ORIENTED_EDGE('',*,*,#498,.F.);
#311=ORIENTED_EDGE('',*,*,#432,.T.);
#312=ORIENTED_EDGE('',*,*,#499,.F.);
#313=ORIENTED_EDGE('',*,*,#433,.T.);
#314=ORIENTED_EDGE('',*,*,#500,.F.);
#315=ORIENTED_EDGE('',*,*,#434,.T.);
#316=ORIENTED_EDGE('',*,*,#501,.F.);
#317=ORIENTED_EDGE('',*,*,#435,.T.);
#318=ORIENTED_EDGE('',*,*,#502,.F.);
#319=ORIENTED_EDGE('',*,*,#436,.T.);
#320=ORIENTED_EDGE('',*,*,#503,.F.);
#321=ORIENTED_EDGE('',*,*,#437,.T.);
#322=ORIENTED_EDGE('',*,*,#504,.F.);
#323=ORIENTED_EDGE('',*,*,#438,.T.);
#324=ORIENTED_EDGE('',*,*,#505,.F.);
#325=ORIENTED_EDGE('',*,*,#439,.T.);
#326=ORIENTED_EDGE('',*,*,#506,.F.);
#327=ORIENTED_EDGE('',*,*,#440,.T.);
#328=ORIENTED_EDGE('',*,*,#507,.F.);
#329=ORIENTED_EDGE('',*,*,#441,.T.);
#330=ORIENTED_EDGE('',*,*,#508,.F.);
#331=ORIENTED_EDGE('',*,*,#442,.T.);
#332=ORIENTED_EDGE('',*,*,#509,.F.);
#333=ORIENTED_EDGE('',*,*,#443,.T.);
#334=ORIENTED_EDGE('',*,*,#510,.F.);
#335=ORIENTED_EDGE('',*,*,#444,.T.);
#336=ORIENTED_EDGE('',*,*,#511,.F.);
#337=ORIENTED_EDGE('',*,*,#445,.T.);
#338=ORIENTED_EDGE('',*,*,#512,.F.);
#339=ORIENTED_EDGE('',*,*,#446,.T.);
#340=ORIENTED_EDGE('',*,*,#513,.F.);
#341=ORIENTED_EDGE('',*,*,#447,.T.);
#342=ORIENTED_EDGE('',*,*,#514,.F.);
#343=ORIENTED_EDGE('',*,*,#448,.T.);
#344=ORIENTED_EDGE('',*,*,#515,.F.);
#345=ORIENTED_EDGE('',*,*,#449,.T.);
#346=ORIENTED_EDGE('',*,*,#516,.F.);
#347=ORIENTED_EDGE('',*,*,#450,.T.);
#348=ORIENTED_EDGE('',*,*,#517,.F.);
#349=ORIENTED_EDGE('',*,*,#451,.T.);
#350=ORIENTED_EDGE('',*,*,#518,.F.);
#351=ORIENTED_EDGE('',*,*,#452,.T.);
#352=ORIENTED_EDGE('',*,*,#519,.F.);
#353=ORIENTED_EDGE('',*,*,#453,.T.);
#354=ORIENTED_EDGE('',*,*,#520,.F.);
#355=ORIENTED_EDGE('',*,*,#454,.T.);
#356=ORIENTED_EDGE('',*,*,#521,.F.);
#357=ORIENTED_EDGE('',*,*,#455,.T.);
#358=ORIENTED_EDGE('',*,*,#522,.F.);
#359=ORIENTED_EDGE('',*,*,#456,.T.);
#360=ORIENTED_EDGE('',*,*,#523,.F.);
#361=ORIENTED_EDGE('',*,*,#457,.T.);
#362=ORIENTED_EDGE('',*,*,#524,.F.);
#363=ORIENTED_EDGE('',*,*,#458,.T.);
#364=ORIENTED_EDGE('',*,*,#525,.F.);
#365=ORIENTED_EDGE('',*,*,#459,.T.);
#366=ORIENTED_EDGE('',*,*,#526,.F.);
#367=ORIENTED_EDGE('',*,*,#460,.T.);
#368=ORIENTED_EDGE('',*,*,#527,.F.);
#369=ORIENTED_EDGE('',*,*,#461,.T.);
#370=ORIENTED_EDGE('',*,*,#528,.F.);
#371=ORIENTED_EDGE('',*,*,#537,.T.);
#372=ORIENTED_EDGE('',*,*,#462,.T.);
#373=ORIENTED_EDGE('',*,*,#538,.F.);
#374=ORIENTED_EDGE('',*,*,#536,.F.);
#375=ORIENTED_EDGE('',*,*,#539,.T.);
#376=ORIENTED_EDGE('',*,*,#463,.T.);
#377=ORIENTED_EDGE('',*,*,#537,.F.);
#378=ORIENTED_EDGE('',*,*,#535,.F.);
#379=ORIENTED_EDGE('',*,*,#540,.T.);
#380=ORIENTED_EDGE('',*,*,#464,.T.);
#381=ORIENTED_EDGE('',*,*,#539,.F.);
#382=ORIENTED_EDGE('',*,*,#534,.F.);
#383=ORIENTED_EDGE('',*,*,#541,.T.);
#384=ORIENTED_EDGE('',*,*,#465,.T.);
#385=ORIENTED_EDGE('',*,*,#540,.F.);
#386=ORIENTED_EDGE('',*,*,#533,.F.);
#387=ORIENTED_EDGE('',*,*,#542,.T.);
#388=ORIENTED_EDGE('',*,*,#466,.T.);
#389=ORIENTED_EDGE('',*,*,#541,.F.);
#390=ORIENTED_EDGE('',*,*,#532,.F.);
#391=ORIENTED_EDGE('',*,*,#543,.T.);
#392=ORIENTED_EDGE('',*,*,#467,.T.);
#393=ORIENTED_EDGE('',*,*,#542,.F.);
#394=ORIENTED_EDGE('',*,*,#531,.F.);
#395=ORIENTED_EDGE('',*,*,#544,.T.);
#396=ORIENTED_EDGE('',*,*,#468,.T.);
#397=ORIENTED_EDGE('',*,*,#543,.F.);
#398=ORIENTED_EDGE('',*,*,#530,.F.);
#399=ORIENTED_EDGE('',*,*,#538,.T.);
#400=ORIENTED_EDGE('',*,*,#469,.T.);
#401=ORIENTED_EDGE('',*,*,#544,.F.);
#402=ORIENTED_EDGE('',*,*,#529,.F.);
#403=EDGE_CURVE('',#545,#545,#679,.T.);
#404=EDGE_CURVE('',#546,#546,#680,.T.);
#405=EDGE_CURVE('',#547,#547,#681,.T.);
#406=EDGE_CURVE('',#548,#548,#682,.T.);
#407=EDGE_CURVE('',#549,#549,#683,.T.);
#408=EDGE_CURVE('',#550,#550,#684,.T.);
#409=EDGE_CURVE('',#551,#551,#685,.T.);
#410=EDGE_CURVE('',#552,#552,#686,.T.);
#411=EDGE_CURVE('',#553,#553,#687,.T.);
#412=EDGE_CURVE('',#554,#554,#688,.T.);
#413=EDGE_CURVE('',#555,#555,#689,.T.);
#414=EDGE_CURVE('',#556,#556,#690,.T.);
#415=EDGE_CURVE('',#557,#557,#691,.T.);
#416=EDGE_CURVE('',#558,#558,#692,.T.);
#417=EDGE_CURVE('',#559,#559,#693,.T.);
#418=EDGE_CURVE('',#560,#560,#694,.T.);
#419=EDGE_CURVE('',#561,#561,#695,.T.);
#420=EDGE_CURVE('',#562,#562,#696,.T.);
#421=EDGE_CURVE('',#563,#563,#697,.T.);
#422=EDGE_CURVE('',#564,#564,#698,.T.);
#423=EDGE_CURVE('',#565,#565,#699,.T.);
#424=EDGE_CURVE('',#566,#566,#700,.T.);
#425=EDGE_CURVE('',#567,#567,#701,.T.);
#426=EDGE_CURVE('',#568,#568,#702,.T.);
#427=EDGE_CURVE('',#569,#569,#703,.T.);
#428=EDGE_CURVE('',#570,#570,#704,.T.);
#429=EDGE_CURVE('',#571,#571,#705,.T.);
#430=EDGE_CURVE('',#572,#572,#706,.T.);
#431=EDGE_CURVE('',#573,#573,#707,.T.);
#432=EDGE_CURVE('',#574,#574,#708,.T.);
#433=EDGE_CURVE('',#575,#575,#709,.T.);
#434=EDGE_CURVE('',#576,#576,#710,.T.);
#435=EDGE_CURVE('',#577,#577,#711,.T.);
#436=EDGE_CURVE('',#578,#578,#712,.T.);
#437=EDGE_CURVE('',#579,#579,#713,.T.);
#438=EDGE_CURVE('',#580,#580,#714,.T.);
#439=EDGE_CURVE('',#581,#581,#715,.T.);
#440=EDGE_CURVE('',#582,#582,#716,.T.);
#441=EDGE_CURVE('',#583,#583,#717,.T.);
#442=EDGE_CURVE('',#584,#584,#718,.T.);
#443=EDGE_CURVE('',#585,#585,#719,.T.);
#444=EDGE_CURVE('',#586,#586,#720,.T.);
#445=EDGE_CURVE('',#587,#587,#721,.T.);
#446=EDGE_CURVE('',#588,#588,#722,.T.);
#447=EDGE_CURVE('',#589,#589,#723,.T.);
#448=EDGE_CURVE('',#590,#590,#724,.T.);
#449=EDGE_CURVE('',#591,#591,#725,.T.);
#450=EDGE_CURVE('',#592,#592,#726,.T.);
#451=EDGE_CURVE('',#593,#593,#727,.T.);
#452=EDGE_CURVE('',#594,#594,#728,.T.);
#453=EDGE_CURVE('',#595,#595,#729,.T.);
#454=EDGE_CURVE('',#596,#596,#730,.T.);
#455=EDGE_CURVE('',#597,#597,#731,.T.);
#456=EDGE_CURVE('',#598,#598,#732,.T.);
#457=EDGE_CURVE('',#599,#599,#733,.T.);
#458=EDGE_CURVE('',#600,#600,#734,.T.);
#459=EDGE_CURVE('',#601,#601,#735,.T.);
#460=EDGE_CURVE('',#602,#602,#736,.T.);
#461=EDGE_CURVE('',#603,#603,#737,.T.);
#462=EDGE_CURVE('',#604,#605,#71,.T.);
#463=EDGE_CURVE('',#606,#604,#72,.T.);
#464=EDGE_CURVE('',#607,#606,#73,.T.);
#465=EDGE_CURVE('',#608,#607,#74,.T.);
#466=EDGE_CURVE('',#609,#608,#75,.T.);
#467=EDGE_CURVE('',#610,#609,#76,.T.);
#468=EDGE_CURVE('',#611,#610,#77,.T.);
#469=EDGE_CURVE('',#605,#611,#78,.T.);
#470=EDGE_CURVE('',#612,#612,#738,.T.);
#471=EDGE_CURVE('',#613,#613,#739,.T.);
#472=EDGE_CURVE('',#614,#614,#740,.T.);
#473=EDGE_CURVE('',#615,#615,#741,.T.);
#474=EDGE_CURVE('',#616,#616,#742,.T.);
#475=EDGE_CURVE('',#617,#617,#743,.T.);
#476=EDGE_CURVE('',#618,#618,#744,.T.);
#477=EDGE_CURVE('',#619,#619,#745,.T.);
#478=EDGE_CURVE('',#620,#620,#746,.T.);
#479=EDGE_CURVE('',#621,#621,#747,.T.);
#480=EDGE_CURVE('',#622,#622,#748,.T.);
#481=EDGE_CURVE('',#623,#623,#749,.T.);
#482=EDGE_CURVE('',#624,#624,#750,.T.);
#483=EDGE_CURVE('',#625,#625,#751,.T.);
#484=EDGE_CURVE('',#626,#626,#752,.T.);
#485=EDGE_CURVE('',#627,#627,#753,.T.);
#486=EDGE_CURVE('',#628,#628,#754,.T.);
#487=EDGE_CURVE('',#629,#629,#755,.T.);
#488=EDGE_CURVE('',#630,#630,#756,.T.);
#489=EDGE_CURVE('',#631,#631,#757,.T.);
#490=EDGE_CURVE('',#632,#632,#758,.T.);
#491=EDGE_CURVE('',#633,#633,#759,.T.);
#492=EDGE_CURVE('',#634,#634,#760,.T.);
#493=EDGE_CURVE('',#635,#635,#761,.T.);
#494=EDGE_CURVE('',#636,#636,#762,.T.);
#495=EDGE_CURVE('',#637,#637,#763,.T.);
#496=EDGE_CURVE('',#638,#638,#764,.T.);
#497=EDGE_CURVE('',#639,#639,#765,.T.);
#498=EDGE_CURVE('',#640,#640,#766,.T.);
#499=EDGE_CURVE('',#641,#641,#767,.T.);
#500=EDGE_CURVE('',#642,#642,#768,.T.);
#501=EDGE_CURVE('',#643,#643,#769,.T.);
#502=EDGE_CURVE('',#644,#644,#770,.T.);
#503=EDGE_CURVE('',#645,#645,#771,.T.);
#504=EDGE_CURVE('',#646,#646,#772,.T.);
#505=EDGE_CURVE('',#647,#647,#773,.T.);
#506=EDGE_CURVE('',#648,#648,#774,.T.);
#507=EDGE_CURVE('',#649,#649,#775,.T.);
#508=EDGE_CURVE('',#650,#650,#776,.T.);
#509=EDGE_CURVE('',#651,#651,#777,.T.);
#510=EDGE_CURVE('',#652,#652,#778,.T.);
#511=EDGE_CURVE('',#653,#653,#779,.T.);
#512=EDGE_CURVE('',#654,#654,#780,.T.);
#513=EDGE_CURVE('',#655,#655,#781,.T.);
#514=EDGE_CURVE('',#656,#656,#782,.T.);
#515=EDGE_CURVE('',#657,#657,#783,.T.);
#516=EDGE_CURVE('',#658,#658,#784,.T.);
#517=EDGE_CURVE('',#659,#659,#785,.T.);
#518=EDGE_CURVE('',#660,#660,#786,.T.);
#519=EDGE_CURVE('',#661,#661,#787,.T.);
#520=EDGE_CURVE('',#662,#662,#788,.T.);
#521=EDGE_CURVE('',#663,#663,#789,.T.);
#522=EDGE_CURVE('',#664,#664,#790,.T.);
#523=EDGE_CURVE('',#665,#665,#791,.T.);
#524=EDGE_CURVE('',#666,#666,#792,.T.);
#525=EDGE_CURVE('',#667,#667,#793,.T.);
#526=EDGE_CURVE('',#668,#668,#794,.T.);
#527=EDGE_CURVE('',#669,#669,#795,.T.);
#528=EDGE_CURVE('',#670,#670,#796,.T.);
#529=EDGE_CURVE('',#671,#672,#79,.T.);
#530=EDGE_CURVE('',#672,#673,#80,.T.);
#531=EDGE_CURVE('',#673,#674,#81,.T.);
#532=EDGE_CURVE('',#674,#675,#82,.T.);
#533=EDGE_CURVE('',#675,#676,#83,.T.);
#534=EDGE_CURVE('',#676,#677,#84,.T.);
#535=EDGE_CURVE('',#677,#678,#85,.T.);
#536=EDGE_CURVE('',#678,#671,#86,.T.);
#537=EDGE_CURVE('',#678,#604,#87,.T.);
#538=EDGE_CURVE('',#671,#605,#88,.T.);
#539=EDGE_CURVE('',#677,#606,#89,.T.);
#540=EDGE_CURVE('',#676,#607,#90,.T.);
#541=EDGE_CURVE('',#675,#608,#91,.T.);
#542=EDGE_CURVE('',#674,#609,#92,.T.);
#543=EDGE_CURVE('',#673,#610,#93,.T.);
#544=EDGE_CURVE('',#672,#611,#94,.T.);
#545=VERTEX_POINT('',#1971);
#546=VERTEX_POINT('',#1973);
#547=VERTEX_POINT('',#1975);
#548=VERTEX_POINT('',#1977);
#549=VERTEX_POINT('',#1979);
#550=VERTEX_POINT('',#1981);
#551=VERTEX_POINT('',#1983);
#552=VERTEX_POINT('',#1985);
#553=VERTEX_POINT('',#1987);
#554=VERTEX_POINT('',#1989);
#555=VERTEX_POINT('',#1991);
#556=VERTEX_POINT('',#1993);
#557=VERTEX_POINT('',#1995);
#558=VERTEX_POINT('',#1997);
#559=VERTEX_POINT('',#1999);
#560=VERTEX_POINT('',#2001);
#561=VERTEX_POINT('',#2003);
#562=VERTEX_POINT('',#2005);
#563=VERTEX_POINT('',#2007);
#564=VERTEX_POINT('',#2009);
#565=VERTEX_POINT('',#2011);
#566=VERTEX_POINT('',#2013);
#567=VERTEX_POINT('',#2015);
#568=VERTEX_POINT('',#2017);
#569=VERTEX_POINT('',#2019);
#570=VERTEX_POINT('',#2021);
#571=VERTEX_POINT('',#2023);
#572=VERTEX_POINT('',#2025);
#573=VERTEX_POINT('',#2027);
#574=VERTEX_POINT('',#2029);
#575=VERTEX_POINT('',#2031);
#576=VERTEX_POINT('',#2033);
#577=VERTEX_POINT('',#2035);
#578=VERTEX_POINT('',#2037);
#579=VERTEX_POINT('',#2039);
#580=VERTEX_POINT('',#2041);
#581=VERTEX_POINT('',#2043);
#582=VERTEX_POINT('',#2045);
#583=VERTEX_POINT('',#2047);
#584=VERTEX_POINT('',#2049);
#585=VERTEX_POINT('',#2051);
#586=VERTEX_POINT('',#2053);
#587=VERTEX_POINT('',#2055);
#588=VERTEX_POINT('',#2057);
#589=VERTEX_POINT('',#2059);
#590=VERTEX_POINT('',#2061);
#591=VERTEX_POINT('',#2063);
#592=VERTEX_POINT('',#2065);
#593=VERTEX_POINT('',#2067);
#594=VERTEX_POINT('',#2069);
#595=VERTEX_POINT('',#2071);
#596=VERTEX_POINT('',#2073);
#597=VERTEX_POINT('',#2075);
#598=VERTEX_POINT('',#2077);
#599=VERTEX_POINT('',#2079);
#600=VERTEX_POINT('',#2081);
#601=VERTEX_POINT('',#2083);
#602=VERTEX_POINT('',#2085);
#603=VERTEX_POINT('',#2087);
#604=VERTEX_POINT('',#2089);
#605=VERTEX_POINT('',#2090);
#606=VERTEX_POINT('',#2092);
#607=VERTEX_POINT('',#2094);
#608=VERTEX_POINT('',#2096);
#609=VERTEX_POINT('',#2098);
#610=VERTEX_POINT('',#2100);
#611=VERTEX_POINT('',#2102);
#612=VERTEX_POINT('',#2106);
#613=VERTEX_POINT('',#2108);
#614=VERTEX_POINT('',#2110);
#615=VERTEX_POINT('',#2112);
#616=VERTEX_POINT('',#2114);
#617=VERTEX_POINT('',#2116);
#618=VERTEX_POINT('',#2118);
#619=VERTEX_POINT('',#2120);
#620=VERTEX_POINT('',#2122);
#621=VERTEX_POINT('',#2124);
#622=VERTEX_POINT('',#2126);
#623=VERTEX_POINT('',#2128);
#624=VERTEX_POINT('',#2130);
#625=VERTEX_POINT('',#2132);
#626=VERTEX_POINT('',#2134);
#627=VERTEX_POINT('',#2136);
#628=VERTEX_POINT('',#2138);
#629=VERTEX_POINT('',#2140);
#630=VERTEX_POINT('',#2142);
#631=VERTEX_POINT('',#2144);
#632=VERTEX_POINT('',#2146);
#633=VERTEX_POINT('',#2148);
#634=VERTEX_POINT('',#2150);
#635=VERTEX_POINT('',#2152);
#636=VERTEX_POINT('',#2154);
#637=VERTEX_POINT('',#2156);
#638=VERTEX_POINT('',#2158);
#639=VERTEX_POINT('',#2160);
#640=VERTEX_POINT('',#2162);
#641=VERTEX_POINT('',#2164);
#642=VERTEX_POINT('',#2166);
#643=VERTEX_POINT('',#2168);
#644=VERTEX_POINT('',#2170);
#645=VERTEX_POINT('',#2172);
#646=VERTEX_POINT('',#2174);
#647=VERTEX_POINT('',#2176);
#648=VERTEX_POINT('',#2178);
#649=VERTEX_POINT('',#2180);
#650=VERTEX_POINT('',#2182);
#651=VERTEX_POINT('',#2184);
#652=VERTEX_POINT('',#2186);
#653=VERTEX_POINT('',#2188);
#654=VERTEX_POINT('',#2190);
#655=VERTEX_POINT('',#2192);
#656=VERTEX_POINT('',#2194);
#657=VERTEX_POINT('',#2196);
#658=VERTEX_POINT('',#2198);
#659=VERTEX_POINT('',#2200);
#660=VERTEX_POINT('',#2202);
#661=VERTEX_POINT('',#2204);
#662=VERTEX_POINT('',#2206);
#663=VERTEX_POINT('',#2208);
#664=VERTEX_POINT('',#2210);
#665=VERTEX_POINT('',#2212);
#666=VERTEX_POINT('',#2214);
#667=VERTEX_POINT('',#2216);
#668=VERTEX_POINT('',#2218);
#669=VERTEX_POINT('',#2220);
#670=VERTEX_POINT('',#2222);
#671=VERTEX_POINT('',#2224);
#672=VERTEX_POINT('',#2225);
#673=VERTEX_POINT('',#2227);
#674=VERTEX_POINT('',#2229);
#675=VERTEX_POINT('',#2231);
#676=VERTEX_POINT('',#2233);
#677=VERTEX_POINT('',#2235);
#678=VERTEX_POINT('',#2237);
#679=CIRCLE('',#1382,0.00154999944);
#680=CIRCLE('',#1383,0.0003999992);
#681=CIRCLE('',#1384,0.0004500118);
#682=CIRCLE('',#1385,0.0004500118);
#683=CIRCLE('',#1386,0.0003999992);
#684=CIRCLE('',#1387,0.0003999992);
#685=CIRCLE('',#1388,0.0003999992);
#686=CIRCLE('',#1389,0.0004500118);
#687=CIRCLE('',#1390,0.0003999992);
#688=CIRCLE('',#1391,0.0003999992);
#689=CIRCLE('',#1392,0.00100000054);
#690=CIRCLE('',#1393,0.00100000054);
#691=CIRCLE('',#1394,0.0003999992);
#692=CIRCLE('',#1395,0.0003999992);
#693=CIRCLE('',#1396,0.0004500118);
#694=CIRCLE('',#1397,0.0004500118);
#695=CIRCLE('',#1398,0.0004500118);
#696=CIRCLE('',#1399,0.0004500118);
#697=CIRCLE('',#1400,0.0004500118);
#698=CIRCLE('',#1401,0.0006999986);
#699=CIRCLE('',#1402,0.0006999986);
#700=CIRCLE('',#1403,0.00154999944);
#701=CIRCLE('',#1404,0.0004500118);
#702=CIRCLE('',#1405,0.0004500118);
#703=CIRCLE('',#1406,0.0003999992);
#704=CIRCLE('',#1407,0.0003999992);
#705=CIRCLE('',#1408,0.0003999992);
#706=CIRCLE('',#1409,0.0003999992);
#707=CIRCLE('',#1410,0.0004500118);
#708=CIRCLE('',#1411,0.0003999992);
#709=CIRCLE('',#1412,0.0003499993);
#710=CIRCLE('',#1413,0.0003499993);
#711=CIRCLE('',#1414,0.00154999944);
#712=CIRCLE('',#1415,0.0004500118);
#713=CIRCLE('',#1416,0.0004500118);
#714=CIRCLE('',#1417,0.0003999992);
#715=CIRCLE('',#1418,0.0004500118);
#716=CIRCLE('',#1419,0.0003999992);
#717=CIRCLE('',#1420,0.000499999);
#718=CIRCLE('',#1421,0.000499999);
#719=CIRCLE('',#1422,0.000499999);
#720=CIRCLE('',#1423,0.000499999);
#721=CIRCLE('',#1424,0.0004500118);
#722=CIRCLE('',#1425,0.0004500118);
#723=CIRCLE('',#1426,0.0003999992);
#724=CIRCLE('',#1427,0.0004500118);
#725=CIRCLE('',#1428,0.0004500118);
#726=CIRCLE('',#1429,0.0004500118);
#727=CIRCLE('',#1430,0.0004500118);
#728=CIRCLE('',#1431,0.0003999992);
#729=CIRCLE('',#1432,0.0003999992);
#730=CIRCLE('',#1433,0.0003999992);
#731=CIRCLE('',#1434,0.0004500118);
#732=CIRCLE('',#1435,0.0004500118);
#733=CIRCLE('',#1436,0.0004500118);
#734=CIRCLE('',#1437,0.0004500118);
#735=CIRCLE('',#1438,0.0004500118);
#736=CIRCLE('',#1439,0.0004500118);
#737=CIRCLE('',#1440,0.00154999944);
#738=CIRCLE('',#1442,0.00154999944);
#739=CIRCLE('',#1443,0.0003999992);
#740=CIRCLE('',#1444,0.0004500118);
#741=CIRCLE('',#1445,0.0004500118);
#742=CIRCLE('',#1446,0.0003999992);
#743=CIRCLE('',#1447,0.0003999992);
#744=CIRCLE('',#1448,0.0003999992);
#745=CIRCLE('',#1449,0.0004500118);
#746=CIRCLE('',#1450,0.0003999992);
#747=CIRCLE('',#1451,0.0003999992);
#748=CIRCLE('',#1452,0.00100000054);
#749=CIRCLE('',#1453,0.00100000054);
#750=CIRCLE('',#1454,0.0003999992);
#751=CIRCLE('',#1455,0.0003999992);
#752=CIRCLE('',#1456,0.0004500118);
#753=CIRCLE('',#1457,0.0004500118);
#754=CIRCLE('',#1458,0.0004500118);
#755=CIRCLE('',#1459,0.0004500118);
#756=CIRCLE('',#1460,0.0004500118);
#757=CIRCLE('',#1461,0.0006999986);
#758=CIRCLE('',#1462,0.0006999986);
#759=CIRCLE('',#1463,0.00154999944);
#760=CIRCLE('',#1464,0.0004500118);
#761=CIRCLE('',#1465,0.0004500118);
#762=CIRCLE('',#1466,0.0003999992);
#763=CIRCLE('',#1467,0.0003999992);
#764=CIRCLE('',#1468,0.0003999992);
#765=CIRCLE('',#1469,0.0003999992);
#766=CIRCLE('',#1470,0.0004500118);
#767=CIRCLE('',#1471,0.0003999992);
#768=CIRCLE('',#1472,0.0003499993);
#769=CIRCLE('',#1473,0.0003499993);
#770=CIRCLE('',#1474,0.00154999944);
#771=CIRCLE('',#1475,0.0004500118);
#772=CIRCLE('',#1476,0.0004500118);
#773=CIRCLE('',#1477,0.0003999992);
#774=CIRCLE('',#1478,0.0004500118);
#775=CIRCLE('',#1479,0.0003999992);
#776=CIRCLE('',#1480,0.000499999);
#777=CIRCLE('',#1481,0.000499999);
#778=CIRCLE('',#1482,0.000499999);
#779=CIRCLE('',#1483,0.000499999);
#780=CIRCLE('',#1484,0.0004500118);
#781=CIRCLE('',#1485,0.0004500118);
#782=CIRCLE('',#1486,0.0003999992);
#783=CIRCLE('',#1487,0.0004500118);
#784=CIRCLE('',#1488,0.0004500118);
#785=CIRCLE('',#1489,0.0004500118);
#786=CIRCLE('',#1490,0.0004500118);
#787=CIRCLE('',#1491,0.0003999992);
#788=CIRCLE('',#1492,0.0003999992);
#789=CIRCLE('',#1493,0.0003999992);
#790=CIRCLE('',#1494,0.0004500118);
#791=CIRCLE('',#1495,0.0004500118);
#792=CIRCLE('',#1496,0.0004500118);
#793=CIRCLE('',#1497,0.0004500118);
#794=CIRCLE('',#1498,0.0004500118);
#795=CIRCLE('',#1499,0.0004500118);
#796=CIRCLE('',#1500,0.00154999944);
#797=EDGE_LOOP('',(#119));
#798=EDGE_LOOP('',(#120));
#799=EDGE_LOOP('',(#121));
#800=EDGE_LOOP('',(#122));
#801=EDGE_LOOP('',(#123));
#802=EDGE_LOOP('',(#124));
#803=EDGE_LOOP('',(#125));
#804=EDGE_LOOP('',(#126));
#805=EDGE_LOOP('',(#127));
#806=EDGE_LOOP('',(#128));
#807=EDGE_LOOP('',(#129));
#808=EDGE_LOOP('',(#130));
#809=EDGE_LOOP('',(#131));
#810=EDGE_LOOP('',(#132));
#811=EDGE_LOOP('',(#133));
#812=EDGE_LOOP('',(#134));
#813=EDGE_LOOP('',(#135));
#814=EDGE_LOOP('',(#136));
#815=EDGE_LOOP('',(#137));
#816=EDGE_LOOP('',(#138));
#817=EDGE_LOOP('',(#139));
#818=EDGE_LOOP('',(#140));
#819=EDGE_LOOP('',(#141));
#820=EDGE_LOOP('',(#142));
#821=EDGE_LOOP('',(#143));
#822=EDGE_LOOP('',(#144));
#823=EDGE_LOOP('',(#145));
#824=EDGE_LOOP('',(#146));
#825=EDGE_LOOP('',(#147));
#826=EDGE_LOOP('',(#148));
#827=EDGE_LOOP('',(#149));
#828=EDGE_LOOP('',(#150));
#829=EDGE_LOOP('',(#151));
#830=EDGE_LOOP('',(#152));
#831=EDGE_LOOP('',(#153));
#832=EDGE_LOOP('',(#154));
#833=EDGE_LOOP('',(#155));
#834=EDGE_LOOP('',(#156));
#835=EDGE_LOOP('',(#157));
#836=EDGE_LOOP('',(#158));
#837=EDGE_LOOP('',(#159));
#838=EDGE_LOOP('',(#160));
#839=EDGE_LOOP('',(#161));
#840=EDGE_LOOP('',(#162));
#841=EDGE_LOOP('',(#163));
#842=EDGE_LOOP('',(#164));
#843=EDGE_LOOP('',(#165));
#844=EDGE_LOOP('',(#166));
#845=EDGE_LOOP('',(#167));
#846=EDGE_LOOP('',(#168));
#847=EDGE_LOOP('',(#169));
#848=EDGE_LOOP('',(#170));
#849=EDGE_LOOP('',(#171));
#850=EDGE_LOOP('',(#172));
#851=EDGE_LOOP('',(#173));
#852=EDGE_LOOP('',(#174));
#853=EDGE_LOOP('',(#175));
#854=EDGE_LOOP('',(#176));
#855=EDGE_LOOP('',(#177));
#856=EDGE_LOOP('',(#178,#179,#180,#181,#182,#183,#184,#185));
#857=EDGE_LOOP('',(#186));
#858=EDGE_LOOP('',(#187));
#859=EDGE_LOOP('',(#188));
#860=EDGE_LOOP('',(#189));
#861=EDGE_LOOP('',(#190));
#862=EDGE_LOOP('',(#191));
#863=EDGE_LOOP('',(#192));
#864=EDGE_LOOP('',(#193));
#865=EDGE_LOOP('',(#194));
#866=EDGE_LOOP('',(#195));
#867=EDGE_LOOP('',(#196));
#868=EDGE_LOOP('',(#197));
#869=EDGE_LOOP('',(#198));
#870=EDGE_LOOP('',(#199));
#871=EDGE_LOOP('',(#200));
#872=EDGE_LOOP('',(#201));
#873=EDGE_LOOP('',(#202));
#874=EDGE_LOOP('',(#203));
#875=EDGE_LOOP('',(#204));
#876=EDGE_LOOP('',(#205));
#877=EDGE_LOOP('',(#206));
#878=EDGE_LOOP('',(#207));
#879=EDGE_LOOP('',(#208));
#880=EDGE_LOOP('',(#209));
#881=EDGE_LOOP('',(#210));
#882=EDGE_LOOP('',(#211));
#883=EDGE_LOOP('',(#212));
#884=EDGE_LOOP('',(#213));
#885=EDGE_LOOP('',(#214));
#886=EDGE_LOOP('',(#215));
#887=EDGE_LOOP('',(#216));
#888=EDGE_LOOP('',(#217));
#889=EDGE_LOOP('',(#218));
#890=EDGE_LOOP('',(#219));
#891=EDGE_LOOP('',(#220));
#892=EDGE_LOOP('',(#221));
#893=EDGE_LOOP('',(#222));
#894=EDGE_LOOP('',(#223));
#895=EDGE_LOOP('',(#224));
#896=EDGE_LOOP('',(#225));
#897=EDGE_LOOP('',(#226));
#898=EDGE_LOOP('',(#227));
#899=EDGE_LOOP('',(#228));
#900=EDGE_LOOP('',(#229));
#901=EDGE_LOOP('',(#230));
#902=EDGE_LOOP('',(#231));
#903=EDGE_LOOP('',(#232));
#904=EDGE_LOOP('',(#233));
#905=EDGE_LOOP('',(#234));
#906=EDGE_LOOP('',(#235));
#907=EDGE_LOOP('',(#236));
#908=EDGE_LOOP('',(#237));
#909=EDGE_LOOP('',(#238));
#910=EDGE_LOOP('',(#239));
#911=EDGE_LOOP('',(#240));
#912=EDGE_LOOP('',(#241));
#913=EDGE_LOOP('',(#242));
#914=EDGE_LOOP('',(#243));
#915=EDGE_LOOP('',(#244));
#916=EDGE_LOOP('',(#245,#246,#247,#248,#249,#250,#251,#252));
#917=EDGE_LOOP('',(#253));
#918=EDGE_LOOP('',(#254));
#919=EDGE_LOOP('',(#255));
#920=EDGE_LOOP('',(#256));
#921=EDGE_LOOP('',(#257));
#922=EDGE_LOOP('',(#258));
#923=EDGE_LOOP('',(#259));
#924=EDGE_LOOP('',(#260));
#925=EDGE_LOOP('',(#261));
#926=EDGE_LOOP('',(#262));
#927=EDGE_LOOP('',(#263));
#928=EDGE_LOOP('',(#264));
#929=EDGE_LOOP('',(#265));
#930=EDGE_LOOP('',(#266));
#931=EDGE_LOOP('',(#267));
#932=EDGE_LOOP('',(#268));
#933=EDGE_LOOP('',(#269));
#934=EDGE_LOOP('',(#270));
#935=EDGE_LOOP('',(#271));
#936=EDGE_LOOP('',(#272));
#937=EDGE_LOOP('',(#273));
#938=EDGE_LOOP('',(#274));
#939=EDGE_LOOP('',(#275));
#940=EDGE_LOOP('',(#276));
#941=EDGE_LOOP('',(#277));
#942=EDGE_LOOP('',(#278));
#943=EDGE_LOOP('',(#279));
#944=EDGE_LOOP('',(#280));
#945=EDGE_LOOP('',(#281));
#946=EDGE_LOOP('',(#282));
#947=EDGE_LOOP('',(#283));
#948=EDGE_LOOP('',(#284));
#949=EDGE_LOOP('',(#285));
#950=EDGE_LOOP('',(#286));
#951=EDGE_LOOP('',(#287));
#952=EDGE_LOOP('',(#288));
#953=EDGE_LOOP('',(#289));
#954=EDGE_LOOP('',(#290));
#955=EDGE_LOOP('',(#291));
#956=EDGE_LOOP('',(#292));
#957=EDGE_LOOP('',(#293));
#958=EDGE_LOOP('',(#294));
#959=EDGE_LOOP('',(#295));
#960=EDGE_LOOP('',(#296));
#961=EDGE_LOOP('',(#297));
#962=EDGE_LOOP('',(#298));
#963=EDGE_LOOP('',(#299));
#964=EDGE_LOOP('',(#300));
#965=EDGE_LOOP('',(#301));
#966=EDGE_LOOP('',(#302));
#967=EDGE_LOOP('',(#303));
#968=EDGE_LOOP('',(#304));
#969=EDGE_LOOP('',(#305));
#970=EDGE_LOOP('',(#306));
#971=EDGE_LOOP('',(#307));
#972=EDGE_LOOP('',(#308));
#973=EDGE_LOOP('',(#309));
#974=EDGE_LOOP('',(#310));
#975=EDGE_LOOP('',(#311));
#976=EDGE_LOOP('',(#312));
#977=EDGE_LOOP('',(#313));
#978=EDGE_LOOP('',(#314));
#979=EDGE_LOOP('',(#315));
#980=EDGE_LOOP('',(#316));
#981=EDGE_LOOP('',(#317));
#982=EDGE_LOOP('',(#318));
#983=EDGE_LOOP('',(#319));
#984=EDGE_LOOP('',(#320));
#985=EDGE_LOOP('',(#321));
#986=EDGE_LOOP('',(#322));
#987=EDGE_LOOP('',(#323));
#988=EDGE_LOOP('',(#324));
#989=EDGE_LOOP('',(#325));
#990=EDGE_LOOP('',(#326));
#991=EDGE_LOOP('',(#327));
#992=EDGE_LOOP('',(#328));
#993=EDGE_LOOP('',(#329));
#994=EDGE_LOOP('',(#330));
#995=EDGE_LOOP('',(#331));
#996=EDGE_LOOP('',(#332));
#997=EDGE_LOOP('',(#333));
#998=EDGE_LOOP('',(#334));
#999=EDGE_LOOP('',(#335));
#1000=EDGE_LOOP('',(#336));
#1001=EDGE_LOOP('',(#337));
#1002=EDGE_LOOP('',(#338));
#1003=EDGE_LOOP('',(#339));
#1004=EDGE_LOOP('',(#340));
#1005=EDGE_LOOP('',(#341));
#1006=EDGE_LOOP('',(#342));
#1007=EDGE_LOOP('',(#343));
#1008=EDGE_LOOP('',(#344));
#1009=EDGE_LOOP('',(#345));
#1010=EDGE_LOOP('',(#346));
#1011=EDGE_LOOP('',(#347));
#1012=EDGE_LOOP('',(#348));
#1013=EDGE_LOOP('',(#349));
#1014=EDGE_LOOP('',(#350));
#1015=EDGE_LOOP('',(#351));
#1016=EDGE_LOOP('',(#352));
#1017=EDGE_LOOP('',(#353));
#1018=EDGE_LOOP('',(#354));
#1019=EDGE_LOOP('',(#355));
#1020=EDGE_LOOP('',(#356));
#1021=EDGE_LOOP('',(#357));
#1022=EDGE_LOOP('',(#358));
#1023=EDGE_LOOP('',(#359));
#1024=EDGE_LOOP('',(#360));
#1025=EDGE_LOOP('',(#361));
#1026=EDGE_LOOP('',(#362));
#1027=EDGE_LOOP('',(#363));
#1028=EDGE_LOOP('',(#364));
#1029=EDGE_LOOP('',(#365));
#1030=EDGE_LOOP('',(#366));
#1031=EDGE_LOOP('',(#367));
#1032=EDGE_LOOP('',(#368));
#1033=EDGE_LOOP('',(#369));
#1034=EDGE_LOOP('',(#370));
#1035=EDGE_LOOP('',(#371,#372,#373,#374));
#1036=EDGE_LOOP('',(#375,#376,#377,#378));
#1037=EDGE_LOOP('',(#379,#380,#381,#382));
#1038=EDGE_LOOP('',(#383,#384,#385,#386));
#1039=EDGE_LOOP('',(#387,#388,#389,#390));
#1040=EDGE_LOOP('',(#391,#392,#393,#394));
#1041=EDGE_LOOP('',(#395,#396,#397,#398));
#1042=EDGE_LOOP('',(#399,#400,#401,#402));
#1043=FACE_BOUND('',#797,.T.);
#1044=FACE_BOUND('',#798,.T.);
#1045=FACE_BOUND('',#799,.T.);
#1046=FACE_BOUND('',#800,.T.);
#1047=FACE_BOUND('',#801,.T.);
#1048=FACE_BOUND('',#802,.T.);
#1049=FACE_BOUND('',#803,.T.);
#1050=FACE_BOUND('',#804,.T.);
#1051=FACE_BOUND('',#805,.T.);
#1052=FACE_BOUND('',#806,.T.);
#1053=FACE_BOUND('',#807,.T.);
#1054=FACE_BOUND('',#808,.T.);
#1055=FACE_BOUND('',#809,.T.);
#1056=FACE_BOUND('',#810,.T.);
#1057=FACE_BOUND('',#811,.T.);
#1058=FACE_BOUND('',#812,.T.);
#1059=FACE_BOUND('',#813,.T.);
#1060=FACE_BOUND('',#814,.T.);
#1061=FACE_BOUND('',#815,.T.);
#1062=FACE_BOUND('',#816,.T.);
#1063=FACE_BOUND('',#817,.T.);
#1064=FACE_BOUND('',#818,.T.);
#1065=FACE_BOUND('',#819,.T.);
#1066=FACE_BOUND('',#820,.T.);
#1067=FACE_BOUND('',#821,.T.);
#1068=FACE_BOUND('',#822,.T.);
#1069=FACE_BOUND('',#823,.T.);
#1070=FACE_BOUND('',#824,.T.);
#1071=FACE_BOUND('',#825,.T.);
#1072=FACE_BOUND('',#826,.T.);
#1073=FACE_BOUND('',#827,.T.);
#1074=FACE_BOUND('',#828,.T.);
#1075=FACE_BOUND('',#829,.T.);
#1076=FACE_BOUND('',#830,.T.);
#1077=FACE_BOUND('',#831,.T.);
#1078=FACE_BOUND('',#832,.T.);
#1079=FACE_BOUND('',#833,.T.);
#1080=FACE_BOUND('',#834,.T.);
#1081=FACE_BOUND('',#835,.T.);
#1082=FACE_BOUND('',#836,.T.);
#1083=FACE_BOUND('',#837,.T.);
#1084=FACE_BOUND('',#838,.T.);
#1085=FACE_BOUND('',#839,.T.);
#1086=FACE_BOUND('',#840,.T.);
#1087=FACE_BOUND('',#841,.T.);
#1088=FACE_BOUND('',#842,.T.);
#1089=FACE_BOUND('',#843,.T.);
#1090=FACE_BOUND('',#844,.T.);
#1091=FACE_BOUND('',#845,.T.);
#1092=FACE_BOUND('',#846,.T.);
#1093=FACE_BOUND('',#847,.T.);
#1094=FACE_BOUND('',#848,.T.);
#1095=FACE_BOUND('',#849,.T.);
#1096=FACE_BOUND('',#850,.T.);
#1097=FACE_BOUND('',#851,.T.);
#1098=FACE_BOUND('',#852,.T.);
#1099=FACE_BOUND('',#853,.T.);
#1100=FACE_BOUND('',#854,.T.);
#1101=FACE_BOUND('',#855,.T.);
#1102=FACE_BOUND('',#856,.T.);
#1103=FACE_BOUND('',#857,.T.);
#1104=FACE_BOUND('',#858,.T.);
#1105=FACE_BOUND('',#859,.T.);
#1106=FACE_BOUND('',#860,.T.);
#1107=FACE_BOUND('',#861,.T.);
#1108=FACE_BOUND('',#862,.T.);
#1109=FACE_BOUND('',#863,.T.);
#1110=FACE_BOUND('',#864,.T.);
#1111=FACE_BOUND('',#865,.T.);
#1112=FACE_BOUND('',#866,.T.);
#1113=FACE_BOUND('',#867,.T.);
#1114=FACE_BOUND('',#868,.T.);
#1115=FACE_BOUND('',#869,.T.);
#1116=FACE_BOUND('',#870,.T.);
#1117=FACE_BOUND('',#871,.T.);
#1118=FACE_BOUND('',#872,.T.);
#1119=FACE_BOUND('',#873,.T.);
#1120=FACE_BOUND('',#874,.T.);
#1121=FACE_BOUND('',#875,.T.);
#1122=FACE_BOUND('',#876,.T.);
#1123=FACE_BOUND('',#877,.T.);
#1124=FACE_BOUND('',#878,.T.);
#1125=FACE_BOUND('',#879,.T.);
#1126=FACE_BOUND('',#880,.T.);
#1127=FACE_BOUND('',#881,.T.);
#1128=FACE_BOUND('',#882,.T.);
#1129=FACE_BOUND('',#883,.T.);
#1130=FACE_BOUND('',#884,.T.);
#1131=FACE_BOUND('',#885,.T.);
#1132=FACE_BOUND('',#886,.T.);
#1133=FACE_BOUND('',#887,.T.);
#1134=FACE_BOUND('',#888,.T.);
#1135=FACE_BOUND('',#889,.T.);
#1136=FACE_BOUND('',#890,.T.);
#1137=FACE_BOUND('',#891,.T.);
#1138=FACE_BOUND('',#892,.T.);
#1139=FACE_BOUND('',#893,.T.);
#1140=FACE_BOUND('',#894,.T.);
#1141=FACE_BOUND('',#895,.T.);
#1142=FACE_BOUND('',#896,.T.);
#1143=FACE_BOUND('',#897,.T.);
#1144=FACE_BOUND('',#898,.T.);
#1145=FACE_BOUND('',#899,.T.);
#1146=FACE_BOUND('',#900,.T.);
#1147=FACE_BOUND('',#901,.T.);
#1148=FACE_BOUND('',#902,.T.);
#1149=FACE_BOUND('',#903,.T.);
#1150=FACE_BOUND('',#904,.T.);
#1151=FACE_BOUND('',#905,.T.);
#1152=FACE_BOUND('',#906,.T.);
#1153=FACE_BOUND('',#907,.T.);
#1154=FACE_BOUND('',#908,.T.);
#1155=FACE_BOUND('',#909,.T.);
#1156=FACE_BOUND('',#910,.T.);
#1157=FACE_BOUND('',#911,.T.);
#1158=FACE_BOUND('',#912,.T.);
#1159=FACE_BOUND('',#913,.T.);
#1160=FACE_BOUND('',#914,.T.);
#1161=FACE_BOUND('',#915,.T.);
#1162=FACE_BOUND('',#916,.T.);
#1163=FACE_BOUND('',#917,.T.);
#1164=FACE_BOUND('',#918,.T.);
#1165=FACE_BOUND('',#919,.T.);
#1166=FACE_BOUND('',#920,.T.);
#1167=FACE_BOUND('',#921,.T.);
#1168=FACE_BOUND('',#922,.T.);
#1169=FACE_BOUND('',#923,.T.);
#1170=FACE_BOUND('',#924,.T.);
#1171=FACE_BOUND('',#925,.T.);
#1172=FACE_BOUND('',#926,.T.);
#1173=FACE_BOUND('',#927,.T.);
#1174=FACE_BOUND('',#928,.T.);
#1175=FACE_BOUND('',#929,.T.);
#1176=FACE_BOUND('',#930,.T.);
#1177=FACE_BOUND('',#931,.T.);
#1178=FACE_BOUND('',#932,.T.);
#1179=FACE_BOUND('',#933,.T.);
#1180=FACE_BOUND('',#934,.T.);
#1181=FACE_BOUND('',#935,.T.);
#1182=FACE_BOUND('',#936,.T.);
#1183=FACE_BOUND('',#937,.T.);
#1184=FACE_BOUND('',#938,.T.);
#1185=FACE_BOUND('',#939,.T.);
#1186=FACE_BOUND('',#940,.T.);
#1187=FACE_BOUND('',#941,.T.);
#1188=FACE_BOUND('',#942,.T.);
#1189=FACE_BOUND('',#943,.T.);
#1190=FACE_BOUND('',#944,.T.);
#1191=FACE_BOUND('',#945,.T.);
#1192=FACE_BOUND('',#946,.T.);
#1193=FACE_BOUND('',#947,.T.);
#1194=FACE_BOUND('',#948,.T.);
#1195=FACE_BOUND('',#949,.T.);
#1196=FACE_BOUND('',#950,.T.);
#1197=FACE_BOUND('',#951,.T.);
#1198=FACE_BOUND('',#952,.T.);
#1199=FACE_BOUND('',#953,.T.);
#1200=FACE_BOUND('',#954,.T.);
#1201=FACE_BOUND('',#955,.T.);
#1202=FACE_BOUND('',#956,.T.);
#1203=FACE_BOUND('',#957,.T.);
#1204=FACE_BOUND('',#958,.T.);
#1205=FACE_BOUND('',#959,.T.);
#1206=FACE_BOUND('',#960,.T.);
#1207=FACE_BOUND('',#961,.T.);
#1208=FACE_BOUND('',#962,.T.);
#1209=FACE_BOUND('',#963,.T.);
#1210=FACE_BOUND('',#964,.T.);
#1211=FACE_BOUND('',#965,.T.);
#1212=FACE_BOUND('',#966,.T.);
#1213=FACE_BOUND('',#967,.T.);
#1214=FACE_BOUND('',#968,.T.);
#1215=FACE_BOUND('',#969,.T.);
#1216=FACE_BOUND('',#970,.T.);
#1217=FACE_BOUND('',#971,.T.);
#1218=FACE_BOUND('',#972,.T.);
#1219=FACE_BOUND('',#973,.T.);
#1220=FACE_BOUND('',#974,.T.);
#1221=FACE_BOUND('',#975,.T.);
#1222=FACE_BOUND('',#976,.T.);
#1223=FACE_BOUND('',#977,.T.);
#1224=FACE_BOUND('',#978,.T.);
#1225=FACE_BOUND('',#979,.T.);
#1226=FACE_BOUND('',#980,.T.);
#1227=FACE_BOUND('',#981,.T.);
#1228=FACE_BOUND('',#982,.T.);
#1229=FACE_BOUND('',#983,.T.);
#1230=FACE_BOUND('',#984,.T.);
#1231=FACE_BOUND('',#985,.T.);
#1232=FACE_BOUND('',#986,.T.);
#1233=FACE_BOUND('',#987,.T.);
#1234=FACE_BOUND('',#988,.T.);
#1235=FACE_BOUND('',#989,.T.);
#1236=FACE_BOUND('',#990,.T.);
#1237=FACE_BOUND('',#991,.T.);
#1238=FACE_BOUND('',#992,.T.);
#1239=FACE_BOUND('',#993,.T.);
#1240=FACE_BOUND('',#994,.T.);
#1241=FACE_BOUND('',#995,.T.);
#1242=FACE_BOUND('',#996,.T.);
#1243=FACE_BOUND('',#997,.T.);
#1244=FACE_BOUND('',#998,.T.);
#1245=FACE_BOUND('',#999,.T.);
#1246=FACE_BOUND('',#1000,.T.);
#1247=FACE_BOUND('',#1001,.T.);
#1248=FACE_BOUND('',#1002,.T.);
#1249=FACE_BOUND('',#1003,.T.);
#1250=FACE_BOUND('',#1004,.T.);
#1251=FACE_BOUND('',#1005,.T.);
#1252=FACE_BOUND('',#1006,.T.);
#1253=FACE_BOUND('',#1007,.T.);
#1254=FACE_BOUND('',#1008,.T.);
#1255=FACE_BOUND('',#1009,.T.);
#1256=FACE_BOUND('',#1010,.T.);
#1257=FACE_BOUND('',#1011,.T.);
#1258=FACE_BOUND('',#1012,.T.);
#1259=FACE_BOUND('',#1013,.T.);
#1260=FACE_BOUND('',#1014,.T.);
#1261=FACE_BOUND('',#1015,.T.);
#1262=FACE_BOUND('',#1016,.T.);
#1263=FACE_BOUND('',#1017,.T.);
#1264=FACE_BOUND('',#1018,.T.);
#1265=FACE_BOUND('',#1019,.T.);
#1266=FACE_BOUND('',#1020,.T.);
#1267=FACE_BOUND('',#1021,.T.);
#1268=FACE_BOUND('',#1022,.T.);
#1269=FACE_BOUND('',#1023,.T.);
#1270=FACE_BOUND('',#1024,.T.);
#1271=FACE_BOUND('',#1025,.T.);
#1272=FACE_BOUND('',#1026,.T.);
#1273=FACE_BOUND('',#1027,.T.);
#1274=FACE_BOUND('',#1028,.T.);
#1275=FACE_BOUND('',#1029,.T.);
#1276=FACE_BOUND('',#1030,.T.);
#1277=FACE_BOUND('',#1031,.T.);
#1278=FACE_BOUND('',#1032,.T.);
#1279=FACE_BOUND('',#1033,.T.);
#1280=FACE_BOUND('',#1034,.T.);
#1281=FACE_BOUND('',#1035,.T.);
#1282=FACE_BOUND('',#1036,.T.);
#1283=FACE_BOUND('',#1037,.T.);
#1284=FACE_BOUND('',#1038,.T.);
#1285=FACE_BOUND('',#1039,.T.);
#1286=FACE_BOUND('',#1040,.T.);
#1287=FACE_BOUND('',#1041,.T.);
#1288=FACE_BOUND('',#1042,.T.);
#1289=PLANE('',#1381);
#1290=PLANE('',#1441);
#1291=PLANE('',#1560);
#1292=PLANE('',#1561);
#1293=PLANE('',#1562);
#1294=PLANE('',#1563);
#1295=PLANE('',#1564);
#1296=PLANE('',#1565);
#1297=PLANE('',#1566);
#1298=PLANE('',#1567);
#1299=ADVANCED_FACE('',(#1043,#1044,#1045,#1046,#1047,#1048,#1049,#1050,
#1051,#1052,#1053,#1054,#1055,#1056,#1057,#1058,#1059,#1060,#1061,#1062,
#1063,#1064,#1065,#1066,#1067,#1068,#1069,#1070,#1071,#1072,#1073,#1074,
#1075,#1076,#1077,#1078,#1079,#1080,#1081,#1082,#1083,#1084,#1085,#1086,
#1087,#1088,#1089,#1090,#1091,#1092,#1093,#1094,#1095,#1096,#1097,#1098,
#1099,#1100,#1101,#1102),#1289,.T.);
#1300=ADVANCED_FACE('',(#1103,#1104,#1105,#1106,#1107,#1108,#1109,#1110,
#1111,#1112,#1113,#1114,#1115,#1116,#1117,#1118,#1119,#1120,#1121,#1122,
#1123,#1124,#1125,#1126,#1127,#1128,#1129,#1130,#1131,#1132,#1133,#1134,
#1135,#1136,#1137,#1138,#1139,#1140,#1141,#1142,#1143,#1144,#1145,#1146,
#1147,#1148,#1149,#1150,#1151,#1152,#1153,#1154,#1155,#1156,#1157,#1158,
#1159,#1160,#1161,#1162),#1290,.F.);
#1301=ADVANCED_FACE('',(#1163,#1164),#12,.F.);
#1302=ADVANCED_FACE('',(#1165,#1166),#13,.F.);
#1303=ADVANCED_FACE('',(#1167,#1168),#14,.F.);
#1304=ADVANCED_FACE('',(#1169,#1170),#15,.F.);
#1305=ADVANCED_FACE('',(#1171,#1172),#16,.F.);
#1306=ADVANCED_FACE('',(#1173,#1174),#17,.F.);
#1307=ADVANCED_FACE('',(#1175,#1176),#18,.F.);
#1308=ADVANCED_FACE('',(#1177,#1178),#19,.F.);
#1309=ADVANCED_FACE('',(#1179,#1180),#20,.F.);
#1310=ADVANCED_FACE('',(#1181,#1182),#21,.F.);
#1311=ADVANCED_FACE('',(#1183,#1184),#22,.F.);
#1312=ADVANCED_FACE('',(#1185,#1186),#23,.F.);
#1313=ADVANCED_FACE('',(#1187,#1188),#24,.F.);
#1314=ADVANCED_FACE('',(#1189,#1190),#25,.F.);
#1315=ADVANCED_FACE('',(#1191,#1192),#26,.F.);
#1316=ADVANCED_FACE('',(#1193,#1194),#27,.F.);
#1317=ADVANCED_FACE('',(#1195,#1196),#28,.F.);
#1318=ADVANCED_FACE('',(#1197,#1198),#29,.F.);
#1319=ADVANCED_FACE('',(#1199,#1200),#30,.F.);
#1320=ADVANCED_FACE('',(#1201,#1202),#31,.F.);
#1321=ADVANCED_FACE('',(#1203,#1204),#32,.F.);
#1322=ADVANCED_FACE('',(#1205,#1206),#33,.F.);
#1323=ADVANCED_FACE('',(#1207,#1208),#34,.F.);
#1324=ADVANCED_FACE('',(#1209,#1210),#35,.F.);
#1325=ADVANCED_FACE('',(#1211,#1212),#36,.F.);
#1326=ADVANCED_FACE('',(#1213,#1214),#37,.F.);
#1327=ADVANCED_FACE('',(#1215,#1216),#38,.F.);
#1328=ADVANCED_FACE('',(#1217,#1218),#39,.F.);
#1329=ADVANCED_FACE('',(#1219,#1220),#40,.F.);
#1330=ADVANCED_FACE('',(#1221,#1222),#41,.F.);
#1331=ADVANCED_FACE('',(#1223,#1224),#42,.F.);
#1332=ADVANCED_FACE('',(#1225,#1226),#43,.F.);
#1333=ADVANCED_FACE('',(#1227,#1228),#44,.F.);
#1334=ADVANCED_FACE('',(#1229,#1230),#45,.F.);
#1335=ADVANCED_FACE('',(#1231,#1232),#46,.F.);
#1336=ADVANCED_FACE('',(#1233,#1234),#47,.F.);
#1337=ADVANCED_FACE('',(#1235,#1236),#48,.F.);
#1338=ADVANCED_FACE('',(#1237,#1238),#49,.F.);
#1339=ADVANCED_FACE('',(#1239,#1240),#50,.F.);
#1340=ADVANCED_FACE('',(#1241,#1242),#51,.F.);
#1341=ADVANCED_FACE('',(#1243,#1244),#52,.F.);
#1342=ADVANCED_FACE('',(#1245,#1246),#53,.F.);
#1343=ADVANCED_FACE('',(#1247,#1248),#54,.F.);
#1344=ADVANCED_FACE('',(#1249,#1250),#55,.F.);
#1345=ADVANCED_FACE('',(#1251,#1252),#56,.F.);
#1346=ADVANCED_FACE('',(#1253,#1254),#57,.F.);
#1347=ADVANCED_FACE('',(#1255,#1256),#58,.F.);
#1348=ADVANCED_FACE('',(#1257,#1258),#59,.F.);
#1349=ADVANCED_FACE('',(#1259,#1260),#60,.F.);
#1350=ADVANCED_FACE('',(#1261,#1262),#61,.F.);
#1351=ADVANCED_FACE('',(#1263,#1264),#62,.F.);
#1352=ADVANCED_FACE('',(#1265,#1266),#63,.F.);
#1353=ADVANCED_FACE('',(#1267,#1268),#64,.F.);
#1354=ADVANCED_FACE('',(#1269,#1270),#65,.F.);
#1355=ADVANCED_FACE('',(#1271,#1272),#66,.F.);
#1356=ADVANCED_FACE('',(#1273,#1274),#67,.F.);
#1357=ADVANCED_FACE('',(#1275,#1276),#68,.F.);
#1358=ADVANCED_FACE('',(#1277,#1278),#69,.F.);
#1359=ADVANCED_FACE('',(#1279,#1280),#70,.F.);
#1360=ADVANCED_FACE('',(#1281),#1291,.T.);
#1361=ADVANCED_FACE('',(#1282),#1292,.T.);
#1362=ADVANCED_FACE('',(#1283),#1293,.T.);
#1363=ADVANCED_FACE('',(#1284),#1294,.T.);
#1364=ADVANCED_FACE('',(#1285),#1295,.T.);
#1365=ADVANCED_FACE('',(#1286),#1296,.T.);
#1366=ADVANCED_FACE('',(#1287),#1297,.T.);
#1367=ADVANCED_FACE('',(#1288),#1298,.T.);
#1368=CLOSED_SHELL('',(#1299,#1300,#1301,#1302,#1303,#1304,#1305,#1306,
#1307,#1308,#1309,#1310,#1311,#1312,#1313,#1314,#1315,#1316,#1317,#1318,
#1319,#1320,#1321,#1322,#1323,#1324,#1325,#1326,#1327,#1328,#1329,#1330,
#1331,#1332,#1333,#1334,#1335,#1336,#1337,#1338,#1339,#1340,#1341,#1342,
#1343,#1344,#1345,#1346,#1347,#1348,#1349,#1350,#1351,#1352,#1353,#1354,
#1355,#1356,#1357,#1358,#1359,#1360,#1361,#1362,#1363,#1364,#1365,#1366,
#1367));
#1369=STYLED_ITEM('',(#1370),#1377);
#1370=PRESENTATION_STYLE_ASSIGNMENT((#1371));
#1371=SURFACE_STYLE_USAGE(.BOTH.,#1372);
#1372=SURFACE_SIDE_STYLE('',(#1373));
#1373=SURFACE_STYLE_FILL_AREA(#1374);
#1374=FILL_AREA_STYLE('',(#1375));
#1375=FILL_AREA_STYLE_COLOUR('',#1376);
#1376=COLOUR_RGB('',0.,0.501960784313726,0.);
#1377=MANIFOLD_SOLID_BREP('Open CASCADE STEP translator 6.8 1.1.1',#1368);
#1378=SHAPE_DEFINITION_REPRESENTATION(#2320,#1379);
#1379=SHAPE_REPRESENTATION('Open CASCADE STEP translator 6.8 1.1.1',(#1380),
#2315);
#1380=AXIS2_PLACEMENT_3D('',#1968,#1568,#1569);
#1381=AXIS2_PLACEMENT_3D('',#1969,#1570,#1571);
#1382=AXIS2_PLACEMENT_3D('',#1970,#1572,#1573);
#1383=AXIS2_PLACEMENT_3D('',#1972,#1574,#1575);
#1384=AXIS2_PLACEMENT_3D('',#1974,#1576,#1577);
#1385=AXIS2_PLACEMENT_3D('',#1976,#1578,#1579);
#1386=AXIS2_PLACEMENT_3D('',#1978,#1580,#1581);
#1387=AXIS2_PLACEMENT_3D('',#1980,#1582,#1583);
#1388=AXIS2_PLACEMENT_3D('',#1982,#1584,#1585);
#1389=AXIS2_PLACEMENT_3D('',#1984,#1586,#1587);
#1390=AXIS2_PLACEMENT_3D('',#1986,#1588,#1589);
#1391=AXIS2_PLACEMENT_3D('',#1988,#1590,#1591);
#1392=AXIS2_PLACEMENT_3D('',#1990,#1592,#1593);
#1393=AXIS2_PLACEMENT_3D('',#1992,#1594,#1595);
#1394=AXIS2_PLACEMENT_3D('',#1994,#1596,#1597);
#1395=AXIS2_PLACEMENT_3D('',#1996,#1598,#1599);
#1396=AXIS2_PLACEMENT_3D('',#1998,#1600,#1601);
#1397=AXIS2_PLACEMENT_3D('',#2000,#1602,#1603);
#1398=AXIS2_PLACEMENT_3D('',#2002,#1604,#1605);
#1399=AXIS2_PLACEMENT_3D('',#2004,#1606,#1607);
#1400=AXIS2_PLACEMENT_3D('',#2006,#1608,#1609);
#1401=AXIS2_PLACEMENT_3D('',#2008,#1610,#1611);
#1402=AXIS2_PLACEMENT_3D('',#2010,#1612,#1613);
#1403=AXIS2_PLACEMENT_3D('',#2012,#1614,#1615);
#1404=AXIS2_PLACEMENT_3D('',#2014,#1616,#1617);
#1405=AXIS2_PLACEMENT_3D('',#2016,#1618,#1619);
#1406=AXIS2_PLACEMENT_3D('',#2018,#1620,#1621);
#1407=AXIS2_PLACEMENT_3D('',#2020,#1622,#1623);
#1408=AXIS2_PLACEMENT_3D('',#2022,#1624,#1625);
#1409=AXIS2_PLACEMENT_3D('',#2024,#1626,#1627);
#1410=AXIS2_PLACEMENT_3D('',#2026,#1628,#1629);
#1411=AXIS2_PLACEMENT_3D('',#2028,#1630,#1631);
#1412=AXIS2_PLACEMENT_3D('',#2030,#1632,#1633);
#1413=AXIS2_PLACEMENT_3D('',#2032,#1634,#1635);
#1414=AXIS2_PLACEMENT_3D('',#2034,#1636,#1637);
#1415=AXIS2_PLACEMENT_3D('',#2036,#1638,#1639);
#1416=AXIS2_PLACEMENT_3D('',#2038,#1640,#1641);
#1417=AXIS2_PLACEMENT_3D('',#2040,#1642,#1643);
#1418=AXIS2_PLACEMENT_3D('',#2042,#1644,#1645);
#1419=AXIS2_PLACEMENT_3D('',#2044,#1646,#1647);
#1420=AXIS2_PLACEMENT_3D('',#2046,#1648,#1649);
#1421=AXIS2_PLACEMENT_3D('',#2048,#1650,#1651);
#1422=AXIS2_PLACEMENT_3D('',#2050,#1652,#1653);
#1423=AXIS2_PLACEMENT_3D('',#2052,#1654,#1655);
#1424=AXIS2_PLACEMENT_3D('',#2054,#1656,#1657);
#1425=AXIS2_PLACEMENT_3D('',#2056,#1658,#1659);
#1426=AXIS2_PLACEMENT_3D('',#2058,#1660,#1661);
#1427=AXIS2_PLACEMENT_3D('',#2060,#1662,#1663);
#1428=AXIS2_PLACEMENT_3D('',#2062,#1664,#1665);
#1429=AXIS2_PLACEMENT_3D('',#2064,#1666,#1667);
#1430=AXIS2_PLACEMENT_3D('',#2066,#1668,#1669);
#1431=AXIS2_PLACEMENT_3D('',#2068,#1670,#1671);
#1432=AXIS2_PLACEMENT_3D('',#2070,#1672,#1673);
#1433=AXIS2_PLACEMENT_3D('',#2072,#1674,#1675);
#1434=AXIS2_PLACEMENT_3D('',#2074,#1676,#1677);
#1435=AXIS2_PLACEMENT_3D('',#2076,#1678,#1679);
#1436=AXIS2_PLACEMENT_3D('',#2078,#1680,#1681);
#1437=AXIS2_PLACEMENT_3D('',#2080,#1682,#1683);
#1438=AXIS2_PLACEMENT_3D('',#2082,#1684,#1685);
#1439=AXIS2_PLACEMENT_3D('',#2084,#1686,#1687);
#1440=AXIS2_PLACEMENT_3D('',#2086,#1688,#1689);
#1441=AXIS2_PLACEMENT_3D('',#2104,#1698,#1699);
#1442=AXIS2_PLACEMENT_3D('',#2105,#1700,#1701);
#1443=AXIS2_PLACEMENT_3D('',#2107,#1702,#1703);
#1444=AXIS2_PLACEMENT_3D('',#2109,#1704,#1705);
#1445=AXIS2_PLACEMENT_3D('',#2111,#1706,#1707);
#1446=AXIS2_PLACEMENT_3D('',#2113,#1708,#1709);
#1447=AXIS2_PLACEMENT_3D('',#2115,#1710,#1711);
#1448=AXIS2_PLACEMENT_3D('',#2117,#1712,#1713);
#1449=AXIS2_PLACEMENT_3D('',#2119,#1714,#1715);
#1450=AXIS2_PLACEMENT_3D('',#2121,#1716,#1717);
#1451=AXIS2_PLACEMENT_3D('',#2123,#1718,#1719);
#1452=AXIS2_PLACEMENT_3D('',#2125,#1720,#1721);
#1453=AXIS2_PLACEMENT_3D('',#2127,#1722,#1723);
#1454=AXIS2_PLACEMENT_3D('',#2129,#1724,#1725);
#1455=AXIS2_PLACEMENT_3D('',#2131,#1726,#1727);
#1456=AXIS2_PLACEMENT_3D('',#2133,#1728,#1729);
#1457=AXIS2_PLACEMENT_3D('',#2135,#1730,#1731);
#1458=AXIS2_PLACEMENT_3D('',#2137,#1732,#1733);
#1459=AXIS2_PLACEMENT_3D('',#2139,#1734,#1735);
#1460=AXIS2_PLACEMENT_3D('',#2141,#1736,#1737);
#1461=AXIS2_PLACEMENT_3D('',#2143,#1738,#1739);
#1462=AXIS2_PLACEMENT_3D('',#2145,#1740,#1741);
#1463=AXIS2_PLACEMENT_3D('',#2147,#1742,#1743);
#1464=AXIS2_PLACEMENT_3D('',#2149,#1744,#1745);
#1465=AXIS2_PLACEMENT_3D('',#2151,#1746,#1747);
#1466=AXIS2_PLACEMENT_3D('',#2153,#1748,#1749);
#1467=AXIS2_PLACEMENT_3D('',#2155,#1750,#1751);
#1468=AXIS2_PLACEMENT_3D('',#2157,#1752,#1753);
#1469=AXIS2_PLACEMENT_3D('',#2159,#1754,#1755);
#1470=AXIS2_PLACEMENT_3D('',#2161,#1756,#1757);
#1471=AXIS2_PLACEMENT_3D('',#2163,#1758,#1759);
#1472=AXIS2_PLACEMENT_3D('',#2165,#1760,#1761);
#1473=AXIS2_PLACEMENT_3D('',#2167,#1762,#1763);
#1474=AXIS2_PLACEMENT_3D('',#2169,#1764,#1765);
#1475=AXIS2_PLACEMENT_3D('',#2171,#1766,#1767);
#1476=AXIS2_PLACEMENT_3D('',#2173,#1768,#1769);
#1477=AXIS2_PLACEMENT_3D('',#2175,#1770,#1771);
#1478=AXIS2_PLACEMENT_3D('',#2177,#1772,#1773);
#1479=AXIS2_PLACEMENT_3D('',#2179,#1774,#1775);
#1480=AXIS2_PLACEMENT_3D('',#2181,#1776,#1777);
#1481=AXIS2_PLACEMENT_3D('',#2183,#1778,#1779);
#1482=AXIS2_PLACEMENT_3D('',#2185,#1780,#1781);
#1483=AXIS2_PLACEMENT_3D('',#2187,#1782,#1783);
#1484=AXIS2_PLACEMENT_3D('',#2189,#1784,#1785);
#1485=AXIS2_PLACEMENT_3D('',#2191,#1786,#1787);
#1486=AXIS2_PLACEMENT_3D('',#2193,#1788,#1789);
#1487=AXIS2_PLACEMENT_3D('',#2195,#1790,#1791);
#1488=AXIS2_PLACEMENT_3D('',#2197,#1792,#1793);
#1489=AXIS2_PLACEMENT_3D('',#2199,#1794,#1795);
#1490=AXIS2_PLACEMENT_3D('',#2201,#1796,#1797);
#1491=AXIS2_PLACEMENT_3D('',#2203,#1798,#1799);
#1492=AXIS2_PLACEMENT_3D('',#2205,#1800,#1801);
#1493=AXIS2_PLACEMENT_3D('',#2207,#1802,#1803);
#1494=AXIS2_PLACEMENT_3D('',#2209,#1804,#1805);
#1495=AXIS2_PLACEMENT_3D('',#2211,#1806,#1807);
#1496=AXIS2_PLACEMENT_3D('',#2213,#1808,#1809);
#1497=AXIS2_PLACEMENT_3D('',#2215,#1810,#1811);
#1498=AXIS2_PLACEMENT_3D('',#2217,#1812,#1813);
#1499=AXIS2_PLACEMENT_3D('',#2219,#1814,#1815);
#1500=AXIS2_PLACEMENT_3D('',#2221,#1816,#1817);
#1501=AXIS2_PLACEMENT_3D('',#2239,#1826,#1827);
#1502=AXIS2_PLACEMENT_3D('',#2240,#1828,#1829);
#1503=AXIS2_PLACEMENT_3D('',#2241,#1830,#1831);
#1504=AXIS2_PLACEMENT_3D('',#2242,#1832,#1833);
#1505=AXIS2_PLACEMENT_3D('',#2243,#1834,#1835);
#1506=AXIS2_PLACEMENT_3D('',#2244,#1836,#1837);
#1507=AXIS2_PLACEMENT_3D('',#2245,#1838,#1839);
#1508=AXIS2_PLACEMENT_3D('',#2246,#1840,#1841);
#1509=AXIS2_PLACEMENT_3D('',#2247,#1842,#1843);
#1510=AXIS2_PLACEMENT_3D('',#2248,#1844,#1845);
#1511=AXIS2_PLACEMENT_3D('',#2249,#1846,#1847);
#1512=AXIS2_PLACEMENT_3D('',#2250,#1848,#1849);
#1513=AXIS2_PLACEMENT_3D('',#2251,#1850,#1851);
#1514=AXIS2_PLACEMENT_3D('',#2252,#1852,#1853);
#1515=AXIS2_PLACEMENT_3D('',#2253,#1854,#1855);
#1516=AXIS2_PLACEMENT_3D('',#2254,#1856,#1857);
#1517=AXIS2_PLACEMENT_3D('',#2255,#1858,#1859);
#1518=AXIS2_PLACEMENT_3D('',#2256,#1860,#1861);
#1519=AXIS2_PLACEMENT_3D('',#2257,#1862,#1863);
#1520=AXIS2_PLACEMENT_3D('',#2258,#1864,#1865);
#1521=AXIS2_PLACEMENT_3D('',#2259,#1866,#1867);
#1522=AXIS2_PLACEMENT_3D('',#2260,#1868,#1869);
#1523=AXIS2_PLACEMENT_3D('',#2261,#1870,#1871);
#1524=AXIS2_PLACEMENT_3D('',#2262,#1872,#1873);
#1525=AXIS2_PLACEMENT_3D('',#2263,#1874,#1875);
#1526=AXIS2_PLACEMENT_3D('',#2264,#1876,#1877);
#1527=AXIS2_PLACEMENT_3D('',#2265,#1878,#1879);
#1528=AXIS2_PLACEMENT_3D('',#2266,#1880,#1881);
#1529=AXIS2_PLACEMENT_3D('',#2267,#1882,#1883);
#1530=AXIS2_PLACEMENT_3D('',#2268,#1884,#1885);
#1531=AXIS2_PLACEMENT_3D('',#2269,#1886,#1887);
#1532=AXIS2_PLACEMENT_3D('',#2270,#1888,#1889);
#1533=AXIS2_PLACEMENT_3D('',#2271,#1890,#1891);
#1534=AXIS2_PLACEMENT_3D('',#2272,#1892,#1893);
#1535=AXIS2_PLACEMENT_3D('',#2273,#1894,#1895);
#1536=AXIS2_PLACEMENT_3D('',#2274,#1896,#1897);
#1537=AXIS2_PLACEMENT_3D('',#2275,#1898,#1899);
#1538=AXIS2_PLACEMENT_3D('',#2276,#1900,#1901);
#1539=AXIS2_PLACEMENT_3D('',#2277,#1902,#1903);
#1540=AXIS2_PLACEMENT_3D('',#2278,#1904,#1905);
#1541=AXIS2_PLACEMENT_3D('',#2279,#1906,#1907);
#1542=AXIS2_PLACEMENT_3D('',#2280,#1908,#1909);
#1543=AXIS2_PLACEMENT_3D('',#2281,#1910,#1911);
#1544=AXIS2_PLACEMENT_3D('',#2282,#1912,#1913);
#1545=AXIS2_PLACEMENT_3D('',#2283,#1914,#1915);
#1546=AXIS2_PLACEMENT_3D('',#2284,#1916,#1917);
#1547=AXIS2_PLACEMENT_3D('',#2285,#1918,#1919);
#1548=AXIS2_PLACEMENT_3D('',#2286,#1920,#1921);
#1549=AXIS2_PLACEMENT_3D('',#2287,#1922,#1923);
#1550=AXIS2_PLACEMENT_3D('',#2288,#1924,#1925);
#1551=AXIS2_PLACEMENT_3D('',#2289,#1926,#1927);
#1552=AXIS2_PLACEMENT_3D('',#2290,#1928,#1929);
#1553=AXIS2_PLACEMENT_3D('',#2291,#1930,#1931);
#1554=AXIS2_PLACEMENT_3D('',#2292,#1932,#1933);
#1555=AXIS2_PLACEMENT_3D('',#2293,#1934,#1935);
#1556=AXIS2_PLACEMENT_3D('',#2294,#1936,#1937);
#1557=AXIS2_PLACEMENT_3D('',#2295,#1938,#1939);
#1558=AXIS2_PLACEMENT_3D('',#2296,#1940,#1941);
#1559=AXIS2_PLACEMENT_3D('',#2297,#1942,#1943);
#1560=AXIS2_PLACEMENT_3D('',#2298,#1944,#1945);
#1561=AXIS2_PLACEMENT_3D('',#2301,#1948,#1949);
#1562=AXIS2_PLACEMENT_3D('',#2303,#1951,#1952);
#1563=AXIS2_PLACEMENT_3D('',#2305,#1954,#1955);
#1564=AXIS2_PLACEMENT_3D('',#2307,#1957,#1958);
#1565=AXIS2_PLACEMENT_3D('',#2309,#1960,#1961);
#1566=AXIS2_PLACEMENT_3D('',#2311,#1963,#1964);
#1567=AXIS2_PLACEMENT_3D('',#2313,#1966,#1967);
#1568=DIRECTION('',(0.,0.,1.));
#1569=DIRECTION('',(1.,0.,0.));
#1570=DIRECTION('',(0.,-1.,0.));
#1571=DIRECTION('',(1.,0.,0.));
#1572=DIRECTION('',(0.,-1.,0.));
#1573=DIRECTION('',(1.,0.,0.));
#1574=DIRECTION('',(0.,-1.,0.));
#1575=DIRECTION('',(1.,0.,0.));
#1576=DIRECTION('',(0.,-1.,0.));
#1577=DIRECTION('',(1.,0.,0.));
#1578=DIRECTION('',(0.,-1.,0.));
#1579=DIRECTION('',(1.,0.,0.));
#1580=DIRECTION('',(0.,-1.,0.));
#1581=DIRECTION('',(1.,0.,0.));
#1582=DIRECTION('',(0.,-1.,0.));
#1583=DIRECTION('',(1.,0.,0.));
#1584=DIRECTION('',(0.,-1.,0.));
#1585=DIRECTION('',(1.,0.,0.));
#1586=DIRECTION('',(0.,-1.,0.));
#1587=DIRECTION('',(1.,0.,0.));
#1588=DIRECTION('',(0.,-1.,0.));
#1589=DIRECTION('',(1.,0.,0.));
#1590=DIRECTION('',(0.,-1.,0.));
#1591=DIRECTION('',(1.,0.,0.));
#1592=DIRECTION('',(0.,-1.,0.));
#1593=DIRECTION('',(1.,0.,0.));
#1594=DIRECTION('',(0.,-1.,0.));
#1595=DIRECTION('',(1.,0.,0.));
#1596=DIRECTION('',(0.,-1.,0.));
#1597=DIRECTION('',(1.,0.,0.));
#1598=DIRECTION('',(0.,-1.,0.));
#1599=DIRECTION('',(1.,0.,0.));
#1600=DIRECTION('',(0.,-1.,0.));
#1601=DIRECTION('',(1.,0.,0.));
#1602=DIRECTION('',(0.,-1.,0.));
#1603=DIRECTION('',(1.,0.,0.));
#1604=DIRECTION('',(0.,-1.,0.));
#1605=DIRECTION('',(1.,0.,0.));
#1606=DIRECTION('',(0.,-1.,0.));
#1607=DIRECTION('',(1.,0.,0.));
#1608=DIRECTION('',(0.,-1.,0.));
#1609=DIRECTION('',(1.,0.,0.));
#1610=DIRECTION('',(0.,-1.,0.));
#1611=DIRECTION('',(1.,0.,0.));
#1612=DIRECTION('',(0.,-1.,0.));
#1613=DIRECTION('',(1.,0.,0.));
#1614=DIRECTION('',(0.,-1.,0.));
#1615=DIRECTION('',(1.,0.,0.));
#1616=DIRECTION('',(0.,-1.,0.));
#1617=DIRECTION('',(1.,0.,0.));
#1618=DIRECTION('',(0.,-1.,0.));
#1619=DIRECTION('',(1.,0.,0.));
#1620=DIRECTION('',(0.,-1.,0.));
#1621=DIRECTION('',(1.,0.,0.));
#1622=DIRECTION('',(0.,-1.,0.));
#1623=DIRECTION('',(1.,0.,0.));
#1624=DIRECTION('',(0.,-1.,0.));
#1625=DIRECTION('',(1.,0.,0.));
#1626=DIRECTION('',(0.,-1.,0.));
#1627=DIRECTION('',(1.,0.,0.));
#1628=DIRECTION('',(0.,-1.,0.));
#1629=DIRECTION('',(1.,0.,0.));
#1630=DIRECTION('',(0.,-1.,0.));
#1631=DIRECTION('',(1.,0.,0.));
#1632=DIRECTION('',(0.,-1.,0.));
#1633=DIRECTION('',(1.,0.,0.));
#1634=DIRECTION('',(0.,-1.,0.));
#1635=DIRECTION('',(1.,0.,0.));
#1636=DIRECTION('',(0.,-1.,0.));
#1637=DIRECTION('',(1.,0.,0.));
#1638=DIRECTION('',(0.,-1.,0.));
#1639=DIRECTION('',(1.,0.,0.));
#1640=DIRECTION('',(0.,-1.,0.));
#1641=DIRECTION('',(1.,0.,0.));
#1642=DIRECTION('',(0.,-1.,0.));
#1643=DIRECTION('',(1.,0.,0.));
#1644=DIRECTION('',(0.,-1.,0.));
#1645=DIRECTION('',(1.,0.,0.));
#1646=DIRECTION('',(0.,-1.,0.));
#1647=DIRECTION('',(1.,0.,0.));
#1648=DIRECTION('',(0.,-1.,0.));
#1649=DIRECTION('',(1.,0.,0.));
#1650=DIRECTION('',(0.,-1.,0.));
#1651=DIRECTION('',(1.,0.,0.));
#1652=DIRECTION('',(0.,-1.,0.));
#1653=DIRECTION('',(1.,0.,0.));
#1654=DIRECTION('',(0.,-1.,0.));
#1655=DIRECTION('',(1.,0.,0.));
#1656=DIRECTION('',(0.,-1.,0.));
#1657=DIRECTION('',(1.,0.,0.));
#1658=DIRECTION('',(0.,-1.,0.));
#1659=DIRECTION('',(1.,0.,0.));
#1660=DIRECTION('',(0.,-1.,0.));
#1661=DIRECTION('',(1.,0.,0.));
#1662=DIRECTION('',(0.,-1.,0.));
#1663=DIRECTION('',(1.,0.,0.));
#1664=DIRECTION('',(0.,-1.,0.));
#1665=DIRECTION('',(1.,0.,0.));
#1666=DIRECTION('',(0.,-1.,0.));
#1667=DIRECTION('',(1.,0.,0.));
#1668=DIRECTION('',(0.,-1.,0.));
#1669=DIRECTION('',(1.,0.,0.));
#1670=DIRECTION('',(0.,-1.,0.));
#1671=DIRECTION('',(1.,0.,0.));
#1672=DIRECTION('',(0.,-1.,0.));
#1673=DIRECTION('',(1.,0.,0.));
#1674=DIRECTION('',(0.,-1.,0.));
#1675=DIRECTION('',(1.,0.,0.));
#1676=DIRECTION('',(0.,-1.,0.));
#1677=DIRECTION('',(1.,0.,0.));
#1678=DIRECTION('',(0.,-1.,0.));
#1679=DIRECTION('',(1.,0.,0.));
#1680=DIRECTION('',(0.,-1.,0.));
#1681=DIRECTION('',(1.,0.,0.));
#1682=DIRECTION('',(0.,-1.,0.));
#1683=DIRECTION('',(1.,0.,0.));
#1684=DIRECTION('',(0.,-1.,0.));
#1685=DIRECTION('',(1.,0.,0.));
#1686=DIRECTION('',(0.,-1.,0.));
#1687=DIRECTION('',(1.,0.,0.));
#1688=DIRECTION('',(0.,-1.,0.));
#1689=DIRECTION('',(1.,0.,0.));
#1690=DIRECTION('',(-1.,0.,0.));
#1691=DIRECTION('',(-0.707106841667045,0.,-0.707106720706045));
#1692=DIRECTION('',(0.,0.,-1.));
#1693=DIRECTION('',(0.707106796992047,0.,-0.707106765381047));
#1694=DIRECTION('',(1.,0.,0.));
#1695=DIRECTION('',(0.707106841667045,0.,0.707106720706045));
#1696=DIRECTION('',(0.,0.,1.));
#1697=DIRECTION('',(-0.707106796992047,0.,0.707106765381047));
#1698=DIRECTION('',(0.,-1.,0.));
#1699=DIRECTION('',(1.,0.,0.));
#1700=DIRECTION('',(0.,-1.,0.));
#1701=DIRECTION('',(1.,0.,0.));
#1702=DIRECTION('',(0.,-1.,0.));
#1703=DIRECTION('',(1.,0.,0.));
#1704=DIRECTION('',(0.,-1.,0.));
#1705=DIRECTION('',(1.,0.,0.));
#1706=DIRECTION('',(0.,-1.,0.));
#1707=DIRECTION('',(1.,0.,0.));
#1708=DIRECTION('',(0.,-1.,0.));
#1709=DIRECTION('',(1.,0.,0.));
#1710=DIRECTION('',(0.,-1.,0.));
#1711=DIRECTION('',(1.,0.,0.));
#1712=DIRECTION('',(0.,-1.,0.));
#1713=DIRECTION('',(1.,0.,0.));
#1714=DIRECTION('',(0.,-1.,0.));
#1715=DIRECTION('',(1.,0.,0.));
#1716=DIRECTION('',(0.,-1.,0.));
#1717=DIRECTION('',(1.,0.,0.));
#1718=DIRECTION('',(0.,-1.,0.));
#1719=DIRECTION('',(1.,0.,0.));
#1720=DIRECTION('',(0.,-1.,0.));
#1721=DIRECTION('',(1.,0.,0.));
#1722=DIRECTION('',(0.,-1.,0.));
#1723=DIRECTION('',(1.,0.,0.));
#1724=DIRECTION('',(0.,-1.,0.));
#1725=DIRECTION('',(1.,0.,0.));
#1726=DIRECTION('',(0.,-1.,0.));
#1727=DIRECTION('',(1.,0.,0.));
#1728=DIRECTION('',(0.,-1.,0.));
#1729=DIRECTION('',(1.,0.,0.));
#1730=DIRECTION('',(0.,-1.,0.));
#1731=DIRECTION('',(1.,0.,0.));
#1732=DIRECTION('',(0.,-1.,0.));
#1733=DIRECTION('',(1.,0.,0.));
#1734=DIRECTION('',(0.,-1.,0.));
#1735=DIRECTION('',(1.,0.,0.));
#1736=DIRECTION('',(0.,-1.,0.));
#1737=DIRECTION('',(1.,0.,0.));
#1738=DIRECTION('',(0.,-1.,0.));
#1739=DIRECTION('',(1.,0.,0.));
#1740=DIRECTION('',(0.,-1.,0.));
#1741=DIRECTION('',(1.,0.,0.));
#1742=DIRECTION('',(0.,-1.,0.));
#1743=DIRECTION('',(1.,0.,0.));
#1744=DIRECTION('',(0.,-1.,0.));
#1745=DIRECTION('',(1.,0.,0.));
#1746=DIRECTION('',(0.,-1.,0.));
#1747=DIRECTION('',(1.,0.,0.));
#1748=DIRECTION('',(0.,-1.,0.));
#1749=DIRECTION('',(1.,0.,0.));
#1750=DIRECTION('',(0.,-1.,0.));
#1751=DIRECTION('',(1.,0.,0.));
#1752=DIRECTION('',(0.,-1.,0.));
#1753=DIRECTION('',(1.,0.,0.));
#1754=DIRECTION('',(0.,-1.,0.));
#1755=DIRECTION('',(1.,0.,0.));
#1756=DIRECTION('',(0.,-1.,0.));
#1757=DIRECTION('',(1.,0.,0.));
#1758=DIRECTION('',(0.,-1.,0.));
#1759=DIRECTION('',(1.,0.,0.));
#1760=DIRECTION('',(0.,-1.,0.));
#1761=DIRECTION('',(1.,0.,0.));
#1762=DIRECTION('',(0.,-1.,0.));
#1763=DIRECTION('',(1.,0.,0.));
#1764=DIRECTION('',(0.,-1.,0.));
#1765=DIRECTION('',(1.,0.,0.));
#1766=DIRECTION('',(0.,-1.,0.));
#1767=DIRECTION('',(1.,0.,0.));
#1768=DIRECTION('',(0.,-1.,0.));
#1769=DIRECTION('',(1.,0.,0.));
#1770=DIRECTION('',(0.,-1.,0.));
#1771=DIRECTION('',(1.,0.,0.));
#1772=DIRECTION('',(0.,-1.,0.));
#1773=DIRECTION('',(1.,0.,0.));
#1774=DIRECTION('',(0.,-1.,0.));
#1775=DIRECTION('',(1.,0.,0.));
#1776=DIRECTION('',(0.,-1.,0.));
#1777=DIRECTION('',(1.,0.,0.));
#1778=DIRECTION('',(0.,-1.,0.));
#1779=DIRECTION('',(1.,0.,0.));
#1780=DIRECTION('',(0.,-1.,0.));
#1781=DIRECTION('',(1.,0.,0.));
#1782=DIRECTION('',(0.,-1.,0.));
#1783=DIRECTION('',(1.,0.,0.));
#1784=DIRECTION('',(0.,-1.,0.));
#1785=DIRECTION('',(1.,0.,0.));
#1786=DIRECTION('',(0.,-1.,0.));
#1787=DIRECTION('',(1.,0.,0.));
#1788=DIRECTION('',(0.,-1.,0.));
#1789=DIRECTION('',(1.,0.,0.));
#1790=DIRECTION('',(0.,-1.,0.));
#1791=DIRECTION('',(1.,0.,0.));
#1792=DIRECTION('',(0.,-1.,0.));
#1793=DIRECTION('',(1.,0.,0.));
#1794=DIRECTION('',(0.,-1.,0.));
#1795=DIRECTION('',(1.,0.,0.));
#1796=DIRECTION('',(0.,-1.,0.));
#1797=DIRECTION('',(1.,0.,0.));
#1798=DIRECTION('',(0.,-1.,0.));
#1799=DIRECTION('',(1.,0.,0.));
#1800=DIRECTION('',(0.,-1.,0.));
#1801=DIRECTION('',(1.,0.,0.));
#1802=DIRECTION('',(0.,-1.,0.));
#1803=DIRECTION('',(1.,0.,0.));
#1804=DIRECTION('',(0.,-1.,0.));
#1805=DIRECTION('',(1.,0.,0.));
#1806=DIRECTION('',(0.,-1.,0.));
#1807=DIRECTION('',(1.,0.,0.));
#1808=DIRECTION('',(0.,-1.,0.));
#1809=DIRECTION('',(1.,0.,0.));
#1810=DIRECTION('',(0.,-1.,0.));
#1811=DIRECTION('',(1.,0.,0.));
#1812=DIRECTION('',(0.,-1.,0.));
#1813=DIRECTION('',(1.,0.,0.));
#1814=DIRECTION('',(0.,-1.,0.));
#1815=DIRECTION('',(1.,0.,0.));
#1816=DIRECTION('',(0.,-1.,0.));
#1817=DIRECTION('',(1.,0.,0.));
#1818=DIRECTION('',(-0.707106796992047,0.,0.707106765381047));
#1819=DIRECTION('',(0.,0.,1.));
#1820=DIRECTION('',(0.707106841667045,0.,0.707106720706045));
#1821=DIRECTION('',(1.,0.,0.));
#1822=DIRECTION('',(0.707106796992047,0.,-0.707106765381047));
#1823=DIRECTION('',(0.,0.,-1.));
#1824=DIRECTION('',(-0.707106841667045,0.,-0.707106720706045));
#1825=DIRECTION('',(-1.,0.,0.));
#1826=DIRECTION('',(0.,1.,0.));
#1827=DIRECTION('',(1.,0.,0.));
#1828=DIRECTION('',(0.,1.,0.));
#1829=DIRECTION('',(1.,0.,0.));
#1830=DIRECTION('',(0.,1.,0.));
#1831=DIRECTION('',(1.,0.,0.));
#1832=DIRECTION('',(0.,1.,0.));
#1833=DIRECTION('',(1.,0.,0.));
#1834=DIRECTION('',(0.,1.,0.));
#1835=DIRECTION('',(1.,0.,0.));
#1836=DIRECTION('',(0.,1.,0.));
#1837=DIRECTION('',(1.,0.,0.));
#1838=DIRECTION('',(0.,1.,0.));
#1839=DIRECTION('',(1.,0.,0.));
#1840=DIRECTION('',(0.,1.,0.));
#1841=DIRECTION('',(1.,0.,0.));
#1842=DIRECTION('',(0.,1.,0.));
#1843=DIRECTION('',(1.,0.,0.));
#1844=DIRECTION('',(0.,1.,0.));
#1845=DIRECTION('',(1.,0.,0.));
#1846=DIRECTION('',(0.,1.,0.));
#1847=DIRECTION('',(1.,0.,0.));
#1848=DIRECTION('',(0.,1.,0.));
#1849=DIRECTION('',(1.,0.,0.));
#1850=DIRECTION('',(0.,1.,0.));
#1851=DIRECTION('',(1.,0.,0.));
#1852=DIRECTION('',(0.,1.,0.));
#1853=DIRECTION('',(1.,0.,0.));
#1854=DIRECTION('',(0.,1.,0.));
#1855=DIRECTION('',(1.,0.,0.));
#1856=DIRECTION('',(0.,1.,0.));
#1857=DIRECTION('',(1.,0.,0.));
#1858=DIRECTION('',(0.,1.,0.));
#1859=DIRECTION('',(1.,0.,0.));
#1860=DIRECTION('',(0.,1.,0.));
#1861=DIRECTION('',(1.,0.,0.));
#1862=DIRECTION('',(0.,1.,0.));
#1863=DIRECTION('',(1.,0.,0.));
#1864=DIRECTION('',(0.,1.,0.));
#1865=DIRECTION('',(1.,0.,0.));
#1866=DIRECTION('',(0.,1.,0.));
#1867=DIRECTION('',(1.,0.,0.));
#1868=DIRECTION('',(0.,1.,0.));
#1869=DIRECTION('',(1.,0.,0.));
#1870=DIRECTION('',(0.,1.,0.));
#1871=DIRECTION('',(1.,0.,0.));
#1872=DIRECTION('',(0.,1.,0.));
#1873=DIRECTION('',(1.,0.,0.));
#1874=DIRECTION('',(0.,1.,0.));
#1875=DIRECTION('',(1.,0.,0.));
#1876=DIRECTION('',(0.,1.,0.));
#1877=DIRECTION('',(1.,0.,0.));
#1878=DIRECTION('',(0.,1.,0.));
#1879=DIRECTION('',(1.,0.,0.));
#1880=DIRECTION('',(0.,1.,0.));
#1881=DIRECTION('',(1.,0.,0.));
#1882=DIRECTION('',(0.,1.,0.));
#1883=DIRECTION('',(1.,0.,0.));
#1884=DIRECTION('',(0.,1.,0.));
#1885=DIRECTION('',(1.,0.,0.));
#1886=DIRECTION('',(0.,1.,0.));
#1887=DIRECTION('',(1.,0.,0.));
#1888=DIRECTION('',(0.,1.,0.));
#1889=DIRECTION('',(1.,0.,0.));
#1890=DIRECTION('',(0.,1.,0.));
#1891=DIRECTION('',(1.,0.,0.));
#1892=DIRECTION('',(0.,1.,0.));
#1893=DIRECTION('',(1.,0.,0.));
#1894=DIRECTION('',(0.,1.,0.));
#1895=DIRECTION('',(1.,0.,0.));
#1896=DIRECTION('',(0.,1.,0.));
#1897=DIRECTION('',(1.,0.,0.));
#1898=DIRECTION('',(0.,1.,0.));
#1899=DIRECTION('',(1.,0.,0.));
#1900=DIRECTION('',(0.,1.,0.));
#1901=DIRECTION('',(1.,0.,0.));
#1902=DIRECTION('',(0.,1.,0.));
#1903=DIRECTION('',(1.,0.,0.));
#1904=DIRECTION('',(0.,1.,0.));
#1905=DIRECTION('',(1.,0.,0.));
#1906=DIRECTION('',(0.,1.,0.));
#1907=DIRECTION('',(1.,0.,0.));
#1908=DIRECTION('',(0.,1.,0.));
#1909=DIRECTION('',(1.,0.,0.));
#1910=DIRECTION('',(0.,1.,0.));
#1911=DIRECTION('',(1.,0.,0.));
#1912=DIRECTION('',(0.,1.,0.));
#1913=DIRECTION('',(1.,0.,0.));
#1914=DIRECTION('',(0.,1.,0.));
#1915=DIRECTION('',(1.,0.,0.));
#1916=DIRECTION('',(0.,1.,0.));
#1917=DIRECTION('',(1.,0.,0.));
#1918=DIRECTION('',(0.,1.,0.));
#1919=DIRECTION('',(1.,0.,0.));
#1920=DIRECTION('',(0.,1.,0.));
#1921=DIRECTION('',(1.,0.,0.));
#1922=DIRECTION('',(0.,1.,0.));
#1923=DIRECTION('',(1.,0.,0.));
#1924=DIRECTION('',(0.,1.,0.));
#1925=DIRECTION('',(1.,0.,0.));
#1926=DIRECTION('',(0.,1.,0.));
#1927=DIRECTION('',(1.,0.,0.));
#1928=DIRECTION('',(0.,1.,0.));
#1929=DIRECTION('',(1.,0.,0.));
#1930=DIRECTION('',(0.,1.,0.));
#1931=DIRECTION('',(1.,0.,0.));
#1932=DIRECTION('',(0.,1.,0.));
#1933=DIRECTION('',(1.,0.,0.));
#1934=DIRECTION('',(0.,1.,0.));
#1935=DIRECTION('',(1.,0.,0.));
#1936=DIRECTION('',(0.,1.,0.));
#1937=DIRECTION('',(1.,0.,0.));
#1938=DIRECTION('',(0.,1.,0.));
#1939=DIRECTION('',(1.,0.,0.));
#1940=DIRECTION('',(0.,1.,0.));
#1941=DIRECTION('',(1.,0.,0.));
#1942=DIRECTION('',(0.,1.,0.));
#1943=DIRECTION('',(1.,0.,0.));
#1944=DIRECTION('',(0.,0.,-1.));
#1945=DIRECTION('',(-1.,0.,0.));
#1946=DIRECTION('',(0.,-1.,0.));
#1947=DIRECTION('',(0.,-1.,0.));
#1948=DIRECTION('',(0.707106720706045,0.,-0.707106841667045));
#1949=DIRECTION('',(-0.707106841667045,0.,-0.707106720706045));
#1950=DIRECTION('',(0.,-1.,0.));
#1951=DIRECTION('',(1.,0.,0.));
#1952=DIRECTION('',(0.,0.,-1.));
#1953=DIRECTION('',(0.,-1.,0.));
#1954=DIRECTION('',(0.707106765381047,0.,0.707106796992047));
#1955=DIRECTION('',(0.707106796992047,0.,-0.707106765381047));
#1956=DIRECTION('',(0.,-1.,0.));
#1957=DIRECTION('',(0.,0.,1.));
#1958=DIRECTION('',(1.,0.,0.));
#1959=DIRECTION('',(0.,-1.,0.));
#1960=DIRECTION('',(-0.707106720706045,0.,0.707106841667045));
#1961=DIRECTION('',(0.707106841667045,0.,0.707106720706045));
#1962=DIRECTION('',(0.,-1.,0.));
#1963=DIRECTION('',(-1.,0.,0.));
#1964=DIRECTION('',(0.,0.,1.));
#1965=DIRECTION('',(0.,-1.,0.));
#1966=DIRECTION('',(-0.707106765381047,0.,-0.707106796992047));
#1967=DIRECTION('',(-0.707106796992047,0.,0.707106765381047));
#1968=CARTESIAN_POINT('',(0.,0.,0.));
#1969=CARTESIAN_POINT('',(-0.0209873301735021,0.00965,0.01216299868535));
#1970=CARTESIAN_POINT('',(0.0105166687946039,0.00965,0.04759999642));
#1971=CARTESIAN_POINT('',(0.0120666682346039,0.00965,0.04759999642));
#1972=CARTESIAN_POINT('',(0.0119166710746039,0.00965,0.04149999592));
#1973=CARTESIAN_POINT('',(0.0123166702746039,0.00965,0.04149999592));
#1974=CARTESIAN_POINT('',(0.00836667055460392,0.00965,0.05572499668));
#1975=CARTESIAN_POINT('',(0.00881668235460392,0.00965,0.05572499668));
#1976=CARTESIAN_POINT('',(0.00836667055460392,0.00965,0.05372500068));
#1977=CARTESIAN_POINT('',(0.00881668235460392,0.00965,0.05372500068));
#1978=CARTESIAN_POINT('',(0.0119166710746039,0.00965,0.03949999738));
#1979=CARTESIAN_POINT('',(0.0123166702746039,0.00965,0.03949999738));
#1980=CARTESIAN_POINT('',(0.0119166710746039,0.00965,0.03749999884));
#1981=CARTESIAN_POINT('',(0.0123166702746039,0.00965,0.03749999884));
#1982=CARTESIAN_POINT('',(0.0119166710746039,0.00965,0.0355000003));
#1983=CARTESIAN_POINT('',(0.0123166702746039,0.00965,0.0355000003));
#1984=CARTESIAN_POINT('',(0.0119166690430753,0.00965,0.03110000148));
#1985=CARTESIAN_POINT('',(0.0123666808430753,0.00965,0.03110000148));
#1986=CARTESIAN_POINT('',(0.00681666857460392,0.00965,0.04149999592));
#1987=CARTESIAN_POINT('',(0.00721666777460392,0.00965,0.04149999592));
#1988=CARTESIAN_POINT('',(0.00681666857460392,0.00965,0.03949999738));
#1989=CARTESIAN_POINT('',(0.00721666777460392,0.00965,0.03949999738));
#1990=CARTESIAN_POINT('',(-0.00268333020539608,0.00965,0.04630000156));
#1991=CARTESIAN_POINT('',(-0.00168332966539608,0.00965,0.04630000156));
#1992=CARTESIAN_POINT('',(0.00231666995460391,0.00965,0.04630000156));
#1993=CARTESIAN_POINT('',(0.00331667049460391,0.00965,0.04630000156));
#1994=CARTESIAN_POINT('',(0.00681666857460392,0.00965,0.03749999884));
#1995=CARTESIAN_POINT('',(0.00721666777460392,0.00965,0.03749999884));
#1996=CARTESIAN_POINT('',(0.00681666857460392,0.00965,0.0355000003));
#1997=CARTESIAN_POINT('',(0.00721666777460392,0.00965,0.0355000003));
#1998=CARTESIAN_POINT('',(0.00594166905460391,0.00965,0.0322499941));
#1999=CARTESIAN_POINT('',(0.00639168085460391,0.00965,0.0322499941));
#2000=CARTESIAN_POINT('',(0.0119166690430753,0.00965,0.02910000294));
#2001=CARTESIAN_POINT('',(0.0123666808430753,0.00965,0.02910000294));
#2002=CARTESIAN_POINT('',(0.00886666701460392,0.00965,0.02800000006));
#2003=CARTESIAN_POINT('',(0.00931667881460392,0.00965,0.02800000006));
#2004=CARTESIAN_POINT('',(0.00594166905460391,0.00965,0.0302499981));
#2005=CARTESIAN_POINT('',(0.00639168085460391,0.00965,0.0302499981));
#2006=CARTESIAN_POINT('',(0.00686667101460391,0.00965,0.02800000006));
#2007=CARTESIAN_POINT('',(0.00731668281460391,0.00965,0.02800000006));
#2008=CARTESIAN_POINT('',(0.0112166699346039,0.00965,0.02500012036));
#2009=CARTESIAN_POINT('',(0.0119166685346039,0.00965,0.02500012036));
#2010=CARTESIAN_POINT('',(0.0112166724746039,0.00965,0.02150000036));
#2011=CARTESIAN_POINT('',(0.0119166710746039,0.00965,0.02150000036));
#2012=CARTESIAN_POINT('',(0.0105166687946039,0.00965,0.0166));
#2013=CARTESIAN_POINT('',(0.0120666682346039,0.00965,0.0166));
#2014=CARTESIAN_POINT('',(0.00531666954307526,0.00965,0.01530000006));
#2015=CARTESIAN_POINT('',(0.00576668134307526,0.00965,0.01530000006));
#2016=CARTESIAN_POINT('',(0.00486667501460391,0.00965,0.02800000006));
#2017=CARTESIAN_POINT('',(0.00531668681460391,0.00965,0.02800000006));
#2018=CARTESIAN_POINT('',(1.66694746039121E-5,0.00965,0.02040000002));
#2019=CARTESIAN_POINT('',(0.000416668674603912,0.00965,0.02040000002));
#2020=CARTESIAN_POINT('',(-0.00398333014539609,0.00965,0.02040000002));
#2021=CARTESIAN_POINT('',(-0.00358333094539609,0.00965,0.02040000002));
#2022=CARTESIAN_POINT('',(-0.00198333160539608,0.00965,0.02040000002));
#2023=CARTESIAN_POINT('',(-0.00158333240539608,0.00965,0.02040000002));
#2024=CARTESIAN_POINT('',(-0.000983328525396086,0.00965,0.01530000006));
#2025=CARTESIAN_POINT('',(-0.000583329325396086,0.00965,0.01530000006));
#2026=CARTESIAN_POINT('',(0.00331667100307526,0.00965,0.01530000006));
#2027=CARTESIAN_POINT('',(0.00376668280307526,0.00965,0.01530000006));
#2028=CARTESIAN_POINT('',(-0.00298332960539609,0.00965,0.01530000006));
#2029=CARTESIAN_POINT('',(-0.00258333040539609,0.00965,0.01530000006));
#2030=CARTESIAN_POINT('',(-0.00653333012539609,0.00965,0.04953000272));
#2031=CARTESIAN_POINT('',(-0.00618333082539609,0.00965,0.04953000272));
#2032=CARTESIAN_POINT('',(-0.00653333012539609,0.00965,0.04753000164));
#2033=CARTESIAN_POINT('',(-0.00618333082539609,0.00965,0.04753000164));
#2034=CARTESIAN_POINT('',(-0.0204833301653961,0.00965,0.04759999642));
#2035=CARTESIAN_POINT('',(-0.0189333307253961,0.00965,0.04759999642));
#2036=CARTESIAN_POINT('',(-0.0148833337453961,0.00965,0.03000000114));
#2037=CARTESIAN_POINT('',(-0.0144333219453961,0.00965,0.03000000114));
#2038=CARTESIAN_POINT('',(-0.0168833297453961,0.00965,0.03000000114));
#2039=CARTESIAN_POINT('',(-0.0164333179453961,0.00965,0.03000000114));
#2040=CARTESIAN_POINT('',(-0.0188833308253961,0.00965,0.0229999999));
#2041=CARTESIAN_POINT('',(-0.0184833316253961,0.00965,0.0229999999));
#2042=CARTESIAN_POINT('',(-0.0188833257453961,0.00965,0.03000000114));
#2043=CARTESIAN_POINT('',(-0.0184333139453961,0.00965,0.03000000114));
#2044=CARTESIAN_POINT('',(-0.0208833319053961,0.00965,0.0229999999));
#2045=CARTESIAN_POINT('',(-0.0204833327053961,0.00965,0.0229999999));
#2046=CARTESIAN_POINT('',(-0.0216833303053961,0.00965,0.03640000104));
#2047=CARTESIAN_POINT('',(-0.0211833313053961,0.00965,0.03640000104));
#2048=CARTESIAN_POINT('',(-0.0216833303053961,0.00965,0.03386000104));
#2049=CARTESIAN_POINT('',(-0.0211833313053961,0.00965,0.03386000104));
#2050=CARTESIAN_POINT('',(-0.0216833303053961,0.00965,0.04148000104));
#2051=CARTESIAN_POINT('',(-0.0211833313053961,0.00965,0.04148000104));
#2052=CARTESIAN_POINT('',(-0.0216833303053961,0.00965,0.03894000104));
#2053=CARTESIAN_POINT('',(-0.0211833313053961,0.00965,0.03894000104));
#2054=CARTESIAN_POINT('',(-0.0219267329169247,0.00965,0.02899999552));
#2055=CARTESIAN_POINT('',(-0.0214767211169247,0.00965,0.02899999552));
#2056=CARTESIAN_POINT('',(-0.0219267329169247,0.00965,0.02699999698));
#2057=CARTESIAN_POINT('',(-0.0214767211169247,0.00965,0.02699999698));
#2058=CARTESIAN_POINT('',(-0.0228833304453961,0.00965,0.0229999999));
#2059=CARTESIAN_POINT('',(-0.0224833312453961,0.00965,0.0229999999));
#2060=CARTESIAN_POINT('',(-0.00728333116539609,0.00965,0.02229999114));
#2061=CARTESIAN_POINT('',(-0.00683331936539609,0.00965,0.02229999114));
#2062=CARTESIAN_POINT('',(-0.00728333116539609,0.00965,0.02029999514));
#2063=CARTESIAN_POINT('',(-0.00683331936539609,0.00965,0.02029999514));
#2064=CARTESIAN_POINT('',(-0.0104833344169247,0.00965,0.02040000002));
#2065=CARTESIAN_POINT('',(-0.0100333226169247,0.00965,0.02040000002));
#2066=CARTESIAN_POINT('',(-0.00728333116539609,0.00965,0.01829999914));
#2067=CARTESIAN_POINT('',(-0.00683331936539609,0.00965,0.01829999914));
#2068=CARTESIAN_POINT('',(-0.00698332668539609,0.00965,0.01530000006));
#2069=CARTESIAN_POINT('',(-0.00658332748539609,0.00965,0.01530000006));
#2070=CARTESIAN_POINT('',(-0.00498332814539609,0.00965,0.01530000006));
#2071=CARTESIAN_POINT('',(-0.00458332894539609,0.00965,0.01530000006));
#2072=CARTESIAN_POINT('',(-0.00898332522539609,0.00965,0.01530000006));
#2073=CARTESIAN_POINT('',(-0.00858332602539609,0.00965,0.01530000006));
#2074=CARTESIAN_POINT('',(-0.0156833296053961,0.00965,0.02229999622));
#2075=CARTESIAN_POINT('',(-0.0152333178053961,0.00965,0.02229999622));
#2076=CARTESIAN_POINT('',(-0.0124833329569247,0.00965,0.02040000002));
#2077=CARTESIAN_POINT('',(-0.0120333211569247,0.00965,0.02040000002));
#2078=CARTESIAN_POINT('',(-0.0156833296053961,0.00965,0.02030000022));
#2079=CARTESIAN_POINT('',(-0.0152333178053961,0.00965,0.02030000022));
#2080=CARTESIAN_POINT('',(-0.0156833296053961,0.00965,0.01830000422));
#2081=CARTESIAN_POINT('',(-0.0152333178053961,0.00965,0.01830000422));
#2082=CARTESIAN_POINT('',(-0.0151833275569248,0.00965,0.01530000006));
#2083=CARTESIAN_POINT('',(-0.0147333157569248,0.00965,0.01530000006));
#2084=CARTESIAN_POINT('',(-0.0131833290169247,0.00965,0.01530000006));
#2085=CARTESIAN_POINT('',(-0.0127333172169247,0.00965,0.01530000006));
#2086=CARTESIAN_POINT('',(-0.0204833301653961,0.00965,0.0166));
#2087=CARTESIAN_POINT('',(-0.0189333307253961,0.00965,0.0166));
#2088=CARTESIAN_POINT('',(0.0110126701245209,0.00965,0.01216299868535));
#2089=CARTESIAN_POINT('',(0.0110126701245212,0.00965,0.01216299868535));
#2090=CARTESIAN_POINT('',(-0.0209873301735021,0.00965,0.01216299868535));
#2091=CARTESIAN_POINT('',(0.0150126688650739,0.00965,0.016162998037448));
#2092=CARTESIAN_POINT('',(0.0150126682171719,0.00965,0.01616299868535));
#2093=CARTESIAN_POINT('',(0.0150126682171719,0.00965,0.053162999162179));
#2094=CARTESIAN_POINT('',(0.0150126682171719,0.00965,0.05316299916218));
#2095=CARTESIAN_POINT('',(0.0110126697221886,0.00965,0.0571629982830097));
#2096=CARTESIAN_POINT('',(0.0110126701245209,0.00965,0.057162998685342));
#2097=CARTESIAN_POINT('',(-0.0209803301742171,0.00965,0.057162998685342));
#2098=CARTESIAN_POINT('',(-0.0209803301742171,0.00965,0.057162998685342));
#2099=CARTESIAN_POINT('',(-0.0249873303523161,0.00965,0.053155999192697));
#2100=CARTESIAN_POINT('',(-0.0249873303523161,0.00965,0.053155999192697));
#2101=CARTESIAN_POINT('',(-0.0249873303523161,0.00965,0.01616299868535));
#2102=CARTESIAN_POINT('',(-0.0249873303523161,0.00965,0.01616299868535));
#2103=CARTESIAN_POINT('',(-0.0209873301735021,0.00965,0.01216299868535));
#2104=CARTESIAN_POINT('',(-0.0209873301735021,0.0102082412,0.01216299868535));
#2105=CARTESIAN_POINT('',(0.0105166687946039,0.0102082412,0.04759999642));
#2106=CARTESIAN_POINT('',(0.0120666682346039,0.0102082412,0.04759999642));
#2107=CARTESIAN_POINT('',(0.0119166710746039,0.0102082412,0.04149999592));
#2108=CARTESIAN_POINT('',(0.0123166702746039,0.0102082412,0.04149999592));
#2109=CARTESIAN_POINT('',(0.00836667055460392,0.0102082412,0.05572499668));
#2110=CARTESIAN_POINT('',(0.00881668235460392,0.0102082412,0.05572499668));
#2111=CARTESIAN_POINT('',(0.00836667055460392,0.0102082412,0.05372500068));
#2112=CARTESIAN_POINT('',(0.00881668235460392,0.0102082412,0.05372500068));
#2113=CARTESIAN_POINT('',(0.0119166710746039,0.0102082412,0.03949999738));
#2114=CARTESIAN_POINT('',(0.0123166702746039,0.0102082412,0.03949999738));
#2115=CARTESIAN_POINT('',(0.0119166710746039,0.0102082412,0.03749999884));
#2116=CARTESIAN_POINT('',(0.0123166702746039,0.0102082412,0.03749999884));
#2117=CARTESIAN_POINT('',(0.0119166710746039,0.0102082412,0.0355000003));
#2118=CARTESIAN_POINT('',(0.0123166702746039,0.0102082412,0.0355000003));
#2119=CARTESIAN_POINT('',(0.0119166690430753,0.0102082412,0.03110000148));
#2120=CARTESIAN_POINT('',(0.0123666808430753,0.0102082412,0.03110000148));
#2121=CARTESIAN_POINT('',(0.00681666857460392,0.0102082412,0.04149999592));
#2122=CARTESIAN_POINT('',(0.00721666777460392,0.0102082412,0.04149999592));
#2123=CARTESIAN_POINT('',(0.00681666857460392,0.0102082412,0.03949999738));
#2124=CARTESIAN_POINT('',(0.00721666777460392,0.0102082412,0.03949999738));
#2125=CARTESIAN_POINT('',(-0.00268333020539608,0.0102082412,0.04630000156));
#2126=CARTESIAN_POINT('',(-0.00168332966539608,0.0102082412,0.04630000156));
#2127=CARTESIAN_POINT('',(0.00231666995460391,0.0102082412,0.04630000156));
#2128=CARTESIAN_POINT('',(0.00331667049460391,0.0102082412,0.04630000156));
#2129=CARTESIAN_POINT('',(0.00681666857460392,0.0102082412,0.03749999884));
#2130=CARTESIAN_POINT('',(0.00721666777460392,0.0102082412,0.03749999884));
#2131=CARTESIAN_POINT('',(0.00681666857460392,0.0102082412,0.0355000003));
#2132=CARTESIAN_POINT('',(0.00721666777460392,0.0102082412,0.0355000003));
#2133=CARTESIAN_POINT('',(0.00594166905460391,0.0102082412,0.0322499941));
#2134=CARTESIAN_POINT('',(0.00639168085460391,0.0102082412,0.0322499941));
#2135=CARTESIAN_POINT('',(0.0119166690430753,0.0102082412,0.02910000294));
#2136=CARTESIAN_POINT('',(0.0123666808430753,0.0102082412,0.02910000294));
#2137=CARTESIAN_POINT('',(0.00886666701460392,0.0102082412,0.02800000006));
#2138=CARTESIAN_POINT('',(0.00931667881460392,0.0102082412,0.02800000006));
#2139=CARTESIAN_POINT('',(0.00594166905460391,0.0102082412,0.0302499981));
#2140=CARTESIAN_POINT('',(0.00639168085460391,0.0102082412,0.0302499981));
#2141=CARTESIAN_POINT('',(0.00686667101460391,0.0102082412,0.02800000006));
#2142=CARTESIAN_POINT('',(0.00731668281460391,0.0102082412,0.02800000006));
#2143=CARTESIAN_POINT('',(0.0112166699346039,0.0102082412,0.02500012036));
#2144=CARTESIAN_POINT('',(0.0119166685346039,0.0102082412,0.02500012036));
#2145=CARTESIAN_POINT('',(0.0112166724746039,0.0102082412,0.02150000036));
#2146=CARTESIAN_POINT('',(0.0119166710746039,0.0102082412,0.02150000036));
#2147=CARTESIAN_POINT('',(0.0105166687946039,0.0102082412,0.0166));
#2148=CARTESIAN_POINT('',(0.0120666682346039,0.0102082412,0.0166));
#2149=CARTESIAN_POINT('',(0.00531666954307526,0.0102082412,0.01530000006));
#2150=CARTESIAN_POINT('',(0.00576668134307526,0.0102082412,0.01530000006));
#2151=CARTESIAN_POINT('',(0.00486667501460391,0.0102082412,0.02800000006));
#2152=CARTESIAN_POINT('',(0.00531668681460391,0.0102082412,0.02800000006));
#2153=CARTESIAN_POINT('',(1.66694746039121E-5,0.0102082412,0.02040000002));
#2154=CARTESIAN_POINT('',(0.000416668674603912,0.0102082412,0.02040000002));
#2155=CARTESIAN_POINT('',(-0.00398333014539609,0.0102082412,0.02040000002));
#2156=CARTESIAN_POINT('',(-0.00358333094539609,0.0102082412,0.02040000002));
#2157=CARTESIAN_POINT('',(-0.00198333160539608,0.0102082412,0.02040000002));
#2158=CARTESIAN_POINT('',(-0.00158333240539608,0.0102082412,0.02040000002));
#2159=CARTESIAN_POINT('',(-0.000983328525396086,0.0102082412,0.01530000006));
#2160=CARTESIAN_POINT('',(-0.000583329325396086,0.0102082412,0.01530000006));
#2161=CARTESIAN_POINT('',(0.00331667100307526,0.0102082412,0.01530000006));
#2162=CARTESIAN_POINT('',(0.00376668280307526,0.0102082412,0.01530000006));
#2163=CARTESIAN_POINT('',(-0.00298332960539609,0.0102082412,0.01530000006));
#2164=CARTESIAN_POINT('',(-0.00258333040539609,0.0102082412,0.01530000006));
#2165=CARTESIAN_POINT('',(-0.00653333012539609,0.0102082412,0.04953000272));
#2166=CARTESIAN_POINT('',(-0.00618333082539609,0.0102082412,0.04953000272));
#2167=CARTESIAN_POINT('',(-0.00653333012539609,0.0102082412,0.04753000164));
#2168=CARTESIAN_POINT('',(-0.00618333082539609,0.0102082412,0.04753000164));
#2169=CARTESIAN_POINT('',(-0.0204833301653961,0.0102082412,0.04759999642));
#2170=CARTESIAN_POINT('',(-0.0189333307253961,0.0102082412,0.04759999642));
#2171=CARTESIAN_POINT('',(-0.0148833337453961,0.0102082412,0.03000000114));
#2172=CARTESIAN_POINT('',(-0.0144333219453961,0.0102082412,0.03000000114));
#2173=CARTESIAN_POINT('',(-0.0168833297453961,0.0102082412,0.03000000114));
#2174=CARTESIAN_POINT('',(-0.0164333179453961,0.0102082412,0.03000000114));
#2175=CARTESIAN_POINT('',(-0.0188833308253961,0.0102082412,0.0229999999));
#2176=CARTESIAN_POINT('',(-0.0184833316253961,0.0102082412,0.0229999999));
#2177=CARTESIAN_POINT('',(-0.0188833257453961,0.0102082412,0.03000000114));
#2178=CARTESIAN_POINT('',(-0.0184333139453961,0.0102082412,0.03000000114));
#2179=CARTESIAN_POINT('',(-0.0208833319053961,0.0102082412,0.0229999999));
#2180=CARTESIAN_POINT('',(-0.0204833327053961,0.0102082412,0.0229999999));
#2181=CARTESIAN_POINT('',(-0.0216833303053961,0.0102082412,0.03640000104));
#2182=CARTESIAN_POINT('',(-0.0211833313053961,0.0102082412,0.03640000104));
#2183=CARTESIAN_POINT('',(-0.0216833303053961,0.0102082412,0.03386000104));
#2184=CARTESIAN_POINT('',(-0.0211833313053961,0.0102082412,0.03386000104));
#2185=CARTESIAN_POINT('',(-0.0216833303053961,0.0102082412,0.04148000104));
#2186=CARTESIAN_POINT('',(-0.0211833313053961,0.0102082412,0.04148000104));
#2187=CARTESIAN_POINT('',(-0.0216833303053961,0.0102082412,0.03894000104));
#2188=CARTESIAN_POINT('',(-0.0211833313053961,0.0102082412,0.03894000104));
#2189=CARTESIAN_POINT('',(-0.0219267329169247,0.0102082412,0.02899999552));
#2190=CARTESIAN_POINT('',(-0.0214767211169247,0.0102082412,0.02899999552));
#2191=CARTESIAN_POINT('',(-0.0219267329169247,0.0102082412,0.02699999698));
#2192=CARTESIAN_POINT('',(-0.0214767211169247,0.0102082412,0.02699999698));
#2193=CARTESIAN_POINT('',(-0.0228833304453961,0.0102082412,0.0229999999));
#2194=CARTESIAN_POINT('',(-0.0224833312453961,0.0102082412,0.0229999999));
#2195=CARTESIAN_POINT('',(-0.00728333116539609,0.0102082412,0.02229999114));
#2196=CARTESIAN_POINT('',(-0.00683331936539609,0.0102082412,0.02229999114));
#2197=CARTESIAN_POINT('',(-0.00728333116539609,0.0102082412,0.02029999514));
#2198=CARTESIAN_POINT('',(-0.00683331936539609,0.0102082412,0.02029999514));
#2199=CARTESIAN_POINT('',(-0.0104833344169247,0.0102082412,0.02040000002));
#2200=CARTESIAN_POINT('',(-0.0100333226169247,0.0102082412,0.02040000002));
#2201=CARTESIAN_POINT('',(-0.00728333116539609,0.0102082412,0.01829999914));
#2202=CARTESIAN_POINT('',(-0.00683331936539609,0.0102082412,0.01829999914));
#2203=CARTESIAN_POINT('',(-0.00698332668539609,0.0102082412,0.01530000006));
#2204=CARTESIAN_POINT('',(-0.00658332748539609,0.0102082412,0.01530000006));
#2205=CARTESIAN_POINT('',(-0.00498332814539609,0.0102082412,0.01530000006));
#2206=CARTESIAN_POINT('',(-0.00458332894539609,0.0102082412,0.01530000006));
#2207=CARTESIAN_POINT('',(-0.00898332522539609,0.0102082412,0.01530000006));
#2208=CARTESIAN_POINT('',(-0.00858332602539609,0.0102082412,0.01530000006));
#2209=CARTESIAN_POINT('',(-0.0156833296053961,0.0102082412,0.02229999622));
#2210=CARTESIAN_POINT('',(-0.0152333178053961,0.0102082412,0.02229999622));
#2211=CARTESIAN_POINT('',(-0.0124833329569247,0.0102082412,0.02040000002));
#2212=CARTESIAN_POINT('',(-0.0120333211569247,0.0102082412,0.02040000002));
#2213=CARTESIAN_POINT('',(-0.0156833296053961,0.0102082412,0.02030000022));
#2214=CARTESIAN_POINT('',(-0.0152333178053961,0.0102082412,0.02030000022));
#2215=CARTESIAN_POINT('',(-0.0156833296053961,0.0102082412,0.01830000422));
#2216=CARTESIAN_POINT('',(-0.0152333178053961,0.0102082412,0.01830000422));
#2217=CARTESIAN_POINT('',(-0.0151833275569248,0.0102082412,0.01530000006));
#2218=CARTESIAN_POINT('',(-0.0147333157569248,0.0102082412,0.01530000006));
#2219=CARTESIAN_POINT('',(-0.0131833290169247,0.0102082412,0.01530000006));
#2220=CARTESIAN_POINT('',(-0.0127333172169247,0.0102082412,0.01530000006));
#2221=CARTESIAN_POINT('',(-0.0204833301653961,0.0102082412,0.0166));
#2222=CARTESIAN_POINT('',(-0.0189333307253961,0.0102082412,0.0166));
#2223=CARTESIAN_POINT('',(-0.0209873301735021,0.0102082412,0.01216299868535));
#2224=CARTESIAN_POINT('',(-0.0209873301735021,0.0102082412,0.01216299868535));
#2225=CARTESIAN_POINT('',(-0.0249873303523161,0.0102082412,0.01616299868535));
#2226=CARTESIAN_POINT('',(-0.0249873303523161,0.0102082412,0.01616299868535));
#2227=CARTESIAN_POINT('',(-0.0249873303523161,0.0102082412,0.053155999192697));
#2228=CARTESIAN_POINT('',(-0.0249873303523161,0.0102082412,0.053155999192697));
#2229=CARTESIAN_POINT('',(-0.0209803301742171,0.0102082412,0.057162998685342));
#2230=CARTESIAN_POINT('',(-0.0209803301742171,0.0102082412,0.057162998685342));
#2231=CARTESIAN_POINT('',(0.0110126701245209,0.0102082412,0.057162998685342));
#2232=CARTESIAN_POINT('',(0.0175126688578978,0.0102082412,0.050662999437881));
#2233=CARTESIAN_POINT('',(0.0150126682171719,0.0102082412,0.05316299916218));
#2234=CARTESIAN_POINT('',(0.0150126682171719,0.0102082412,0.053162999162179));
#2235=CARTESIAN_POINT('',(0.0150126682171719,0.0102082412,0.01616299868535));
#2236=CARTESIAN_POINT('',(-0.00498733340942734,0.0102082412,-0.00383700081575941));
#2237=CARTESIAN_POINT('',(0.0110126701245212,0.0102082412,0.01216299868535));
#2238=CARTESIAN_POINT('',(0.0110126701245209,0.0102082412,0.01216299868535));
#2239=CARTESIAN_POINT('',(0.0105166687946039,0.0102082412,0.04759999642));
#2240=CARTESIAN_POINT('',(0.0119166710746039,0.0102082412,0.04149999592));
#2241=CARTESIAN_POINT('',(0.00836667055460392,0.0102082412,0.05572499668));
#2242=CARTESIAN_POINT('',(0.00836667055460392,0.0102082412,0.05372500068));
#2243=CARTESIAN_POINT('',(0.0119166710746039,0.0102082412,0.03949999738));
#2244=CARTESIAN_POINT('',(0.0119166710746039,0.0102082412,0.03749999884));
#2245=CARTESIAN_POINT('',(0.0119166710746039,0.0102082412,0.0355000003));
#2246=CARTESIAN_POINT('',(0.0119166690430753,0.00992912060000003,0.03110000148));
#2247=CARTESIAN_POINT('',(0.00681666857460392,0.0102082412,0.04149999592));
#2248=CARTESIAN_POINT('',(0.00681666857460392,0.0102082412,0.03949999738));
#2249=CARTESIAN_POINT('',(-0.00268333020539608,0.0102082412,0.04630000156));
#2250=CARTESIAN_POINT('',(0.00231666995460391,0.0102082412,0.04630000156));
#2251=CARTESIAN_POINT('',(0.00681666857460392,0.0102082412,0.03749999884));
#2252=CARTESIAN_POINT('',(0.00681666857460392,0.0102082412,0.0355000003));
#2253=CARTESIAN_POINT('',(0.00594166905460391,0.0102082412,0.0322499941));
#2254=CARTESIAN_POINT('',(0.0119166690430753,0.00992912060000003,0.02910000294));
#2255=CARTESIAN_POINT('',(0.00886666701460392,0.0102082412,0.02800000006));
#2256=CARTESIAN_POINT('',(0.00594166905460391,0.0102082412,0.0302499981));
#2257=CARTESIAN_POINT('',(0.00686667101460391,0.0102082412,0.02800000006));
#2258=CARTESIAN_POINT('',(0.0112166699346039,0.0102082412,0.02500012036));
#2259=CARTESIAN_POINT('',(0.0112166724746039,0.0102082412,0.02150000036));
#2260=CARTESIAN_POINT('',(0.0105166687946039,0.0102082412,0.0166));
#2261=CARTESIAN_POINT('',(0.00531666954307526,0.00992912060000003,0.01530000006));
#2262=CARTESIAN_POINT('',(0.00486667501460391,0.0102082412,0.02800000006));
#2263=CARTESIAN_POINT('',(1.66694746039121E-5,0.0102082412,0.02040000002));
#2264=CARTESIAN_POINT('',(-0.00398333014539609,0.0102082412,0.02040000002));
#2265=CARTESIAN_POINT('',(-0.00198333160539608,0.0102082412,0.02040000002));
#2266=CARTESIAN_POINT('',(-0.000983328525396086,0.0102082412,0.01530000006));
#2267=CARTESIAN_POINT('',(0.00331667100307526,0.00992912060000003,0.01530000006));
#2268=CARTESIAN_POINT('',(-0.00298332960539609,0.0102082412,0.01530000006));
#2269=CARTESIAN_POINT('',(-0.00653333012539609,0.0102082412,0.04953000272));
#2270=CARTESIAN_POINT('',(-0.00653333012539609,0.0102082412,0.04753000164));
#2271=CARTESIAN_POINT('',(-0.0204833301653961,0.0102082412,0.04759999642));
#2272=CARTESIAN_POINT('',(-0.0148833337453961,0.0102082412,0.03000000114));
#2273=CARTESIAN_POINT('',(-0.0168833297453961,0.0102082412,0.03000000114));
#2274=CARTESIAN_POINT('',(-0.0188833308253961,0.0102082412,0.0229999999));
#2275=CARTESIAN_POINT('',(-0.0188833257453961,0.0102082412,0.03000000114));
#2276=CARTESIAN_POINT('',(-0.0208833319053961,0.0102082412,0.0229999999));
#2277=CARTESIAN_POINT('',(-0.0216833303053961,0.0102082412,0.03640000104));
#2278=CARTESIAN_POINT('',(-0.0216833303053961,0.0102082412,0.03386000104));
#2279=CARTESIAN_POINT('',(-0.0216833303053961,0.0102082412,0.04148000104));
#2280=CARTESIAN_POINT('',(-0.0216833303053961,0.0102082412,0.03894000104));
#2281=CARTESIAN_POINT('',(-0.0219267329169247,0.00992912060000003,0.02899999552));
#2282=CARTESIAN_POINT('',(-0.0219267329169247,0.00992912060000003,0.02699999698));
#2283=CARTESIAN_POINT('',(-0.0228833304453961,0.0102082412,0.0229999999));
#2284=CARTESIAN_POINT('',(-0.00728333116539609,0.0102082412,0.02229999114));
#2285=CARTESIAN_POINT('',(-0.00728333116539609,0.0102082412,0.02029999514));
#2286=CARTESIAN_POINT('',(-0.0104833344169247,0.00992912060000003,0.02040000002));
#2287=CARTESIAN_POINT('',(-0.00728333116539609,0.0102082412,0.01829999914));
#2288=CARTESIAN_POINT('',(-0.00698332668539609,0.0102082412,0.01530000006));
#2289=CARTESIAN_POINT('',(-0.00498332814539609,0.0102082412,0.01530000006));
#2290=CARTESIAN_POINT('',(-0.00898332522539609,0.0102082412,0.01530000006));
#2291=CARTESIAN_POINT('',(-0.0156833296053961,0.0102082412,0.02229999622));
#2292=CARTESIAN_POINT('',(-0.0124833329569247,0.00992912060000003,0.02040000002));
#2293=CARTESIAN_POINT('',(-0.0156833296053961,0.0102082412,0.02030000022));
#2294=CARTESIAN_POINT('',(-0.0156833296053961,0.0102082412,0.01830000422));
#2295=CARTESIAN_POINT('',(-0.0151833275569248,0.00992912060000003,0.01530000006));
#2296=CARTESIAN_POINT('',(-0.0131833290169247,0.00992912060000003,0.01530000006));
#2297=CARTESIAN_POINT('',(-0.0204833301653961,0.0102082412,0.0166));
#2298=CARTESIAN_POINT('',(0.0110126701245209,0.0102082412,0.01216299868535));
#2299=CARTESIAN_POINT('',(0.0110126688287172,0.0102082412,0.01216299868535));
#2300=CARTESIAN_POINT('',(-0.0209873301735021,0.0102082412,0.01216299868535));
#2301=CARTESIAN_POINT('',(0.0150126688650739,0.0102082412,0.016162998037448));
#2302=CARTESIAN_POINT('',(0.0150126682171719,0.0102082412,0.0161629973895461));
#2303=CARTESIAN_POINT('',(0.0150126682171719,0.0102082412,0.053162999162179));
#2304=CARTESIAN_POINT('',(0.0150126682171719,0.0102082412,0.0531629999668451));
#2305=CARTESIAN_POINT('',(0.0110126697221886,0.0102082412,0.0571629982830097));
#2306=CARTESIAN_POINT('',(0.0110126693198563,0.0102082412,0.057162998685342));
#2307=CARTESIAN_POINT('',(-0.0209803301742171,0.0102082412,0.057162998685342));
#2308=CARTESIAN_POINT('',(-0.0209803301742171,0.0102082412,0.057162998685342));
#2309=CARTESIAN_POINT('',(-0.0249873303523161,0.0102082412,0.053155999192697));
#2310=CARTESIAN_POINT('',(-0.0249873303523161,0.0102082412,0.053155999192697));
#2311=CARTESIAN_POINT('',(-0.0249873303523161,0.0102082412,0.01616299868535));
#2312=CARTESIAN_POINT('',(-0.0249873303523161,0.0102082412,0.01616299868535));
#2313=CARTESIAN_POINT('',(-0.0209873301735021,0.0102082412,0.01216299868535));
#2314=MECHANICAL_DESIGN_GEOMETRIC_PRESENTATION_REPRESENTATION('',(#1369),
#2315);
#2315=(
GEOMETRIC_REPRESENTATION_CONTEXT(3)
GLOBAL_UNCERTAINTY_ASSIGNED_CONTEXT((#2316))
GLOBAL_UNIT_ASSIGNED_CONTEXT((#2319,#2318,#2317))
REPRESENTATION_CONTEXT('Open CASCADE STEP translator 6.8 1.1.1',
'TOP_LEVEL_ASSEMBLY_PART')
);
#2316=UNCERTAINTY_MEASURE_WITH_UNIT(LENGTH_MEASURE(1.E-6),#2319,
'DISTANCE_ACCURACY_VALUE','Maximum Tolerance applied to model');
#2317=(
NAMED_UNIT(*)
SI_UNIT($,.STERADIAN.)
SOLID_ANGLE_UNIT()
);
#2318=(
NAMED_UNIT(*)
PLANE_ANGLE_UNIT()
SI_UNIT($,.RADIAN.)
);
#2319=(
LENGTH_UNIT()
NAMED_UNIT(*)
SI_UNIT($,.METRE.)
);
#2320=PRODUCT_DEFINITION_SHAPE('','',#2321);
#2321=PRODUCT_DEFINITION('','',#2323,#2322);
#2322=PRODUCT_DEFINITION_CONTEXT('',#2329,'design');
#2323=PRODUCT_DEFINITION_FORMATION_WITH_SPECIFIED_SOURCE('','',#2325,
 .NOT_KNOWN.);
#2324=PRODUCT_RELATED_PRODUCT_CATEGORY('','',(#2325));
#2325=PRODUCT('Open CASCADE STEP translator 6.8 1.1.1',
'Open CASCADE STEP translator 6.8 1.1.1',
'Open CASCADE STEP translator 6.8 1.1.1',(#2327));
#2326=PRODUCT_CATEGORY('','');
#2327=PRODUCT_CONTEXT('',#2329,'mechanical');
#2328=APPLICATION_PROTOCOL_DEFINITION('international standard',
'ap242_managed_model_based_3d_engineering',2020,#2329);
#2329=APPLICATION_CONTEXT('managed model based 3d engineering');
ENDSEC;
END-ISO-10303-21;
