ISO-10303-21;
HEADER;
/* Generated by software containing ST-Developer
 * from STEP Tools, Inc. (www.steptools.com) 
 */
/* OPTION: using custom renumber hook */

FILE_DESCRIPTION(
/* description */ ('STEP AP242 Edition 2',
'CAx-IF Rec.Pracs.---Representation and Presentation of Product Manufa
cturing Information (PMI)---4.0---2014-10-13',
'CAx-IF Rec.Pracs.---3D Tessellated Geometry---0.4---2014-09-14','2;1',
'CAx-IF Rec.Pracs.---User Defined Attributes---1.5---2016-08-15'),
/* implementation_level */ '2;1');

FILE_NAME(
/* name */ 'toolhead v4 - BTT Eddy Coil',
/* time_stamp */ '2026-08-19T20:10:37Z',
/* author */ (''),
/* organization */ (''),
/* preprocessor_version */ 'ST-DEVELOPER v20',
/* originating_system */ 'ONSHAPE BY PTC INC, 1.219',
/* authorisation */ '  ');

FILE_SCHEMA (('AP242_MANAGED_MODEL_BASED_3D_ENGINEERING_MIM_LF { 1 0 10303 442 3 1 4 }'));
ENDSEC;

DATA;
#10=SHAPE_REPRESENTATION_RELATIONSHIP('','',#619,#11);
#11=ADVANCED_BREP_SHAPE_REPRESENTATION('',(#617),#987);
#12=ELLIPSE('',#641,0.0047729707730092,0.003375);
#13=ELLIPSE('',#643,0.00477297077300919,0.003375);
#14=CIRCLE('',#625,0.001575);
#15=CIRCLE('',#626,0.001575);
#16=CIRCLE('',#629,0.001575);
#17=CIRCLE('',#630,0.001575);
#18=CIRCLE('',#632,0.003375);
#19=CIRCLE('',#633,0.003375);
#20=CYLINDRICAL_SURFACE('',#624,0.001575);
#21=CYLINDRICAL_SURFACE('',#628,0.001575);
#22=CYLINDRICAL_SURFACE('',#644,0.003375);
#23=CYLINDRICAL_SURFACE('',#645,0.003375);
#24=ORIENTED_EDGE('',*,*,#188,.T.);
#25=ORIENTED_EDGE('',*,*,#189,.F.);
#26=ORIENTED_EDGE('',*,*,#190,.T.);
#27=ORIENTED_EDGE('',*,*,#191,.F.);
#28=ORIENTED_EDGE('',*,*,#192,.F.);
#29=ORIENTED_EDGE('',*,*,#193,.T.);
#30=ORIENTED_EDGE('',*,*,#194,.T.);
#31=ORIENTED_EDGE('',*,*,#195,.T.);
#32=ORIENTED_EDGE('',*,*,#196,.F.);
#33=ORIENTED_EDGE('',*,*,#197,.T.);
#34=ORIENTED_EDGE('',*,*,#198,.T.);
#35=ORIENTED_EDGE('',*,*,#199,.T.);
#36=ORIENTED_EDGE('',*,*,#200,.T.);
#37=ORIENTED_EDGE('',*,*,#201,.T.);
#38=ORIENTED_EDGE('',*,*,#202,.T.);
#39=ORIENTED_EDGE('',*,*,#203,.T.);
#40=ORIENTED_EDGE('',*,*,#204,.T.);
#41=ORIENTED_EDGE('',*,*,#205,.T.);
#42=ORIENTED_EDGE('',*,*,#206,.T.);
#43=ORIENTED_EDGE('',*,*,#207,.T.);
#44=ORIENTED_EDGE('',*,*,#208,.T.);
#45=ORIENTED_EDGE('',*,*,#209,.T.);
#46=ORIENTED_EDGE('',*,*,#210,.T.);
#47=ORIENTED_EDGE('',*,*,#211,.T.);
#48=ORIENTED_EDGE('',*,*,#212,.F.);
#49=ORIENTED_EDGE('',*,*,#213,.T.);
#50=ORIENTED_EDGE('',*,*,#214,.T.);
#51=ORIENTED_EDGE('',*,*,#215,.F.);
#52=ORIENTED_EDGE('',*,*,#216,.T.);
#53=ORIENTED_EDGE('',*,*,#217,.T.);
#54=ORIENTED_EDGE('',*,*,#218,.T.);
#55=ORIENTED_EDGE('',*,*,#219,.F.);
#56=ORIENTED_EDGE('',*,*,#220,.T.);
#57=ORIENTED_EDGE('',*,*,#221,.T.);
#58=ORIENTED_EDGE('',*,*,#222,.T.);
#59=ORIENTED_EDGE('',*,*,#223,.T.);
#60=ORIENTED_EDGE('',*,*,#224,.T.);
#61=ORIENTED_EDGE('',*,*,#225,.T.);
#62=ORIENTED_EDGE('',*,*,#226,.T.);
#63=ORIENTED_EDGE('',*,*,#227,.F.);
#64=ORIENTED_EDGE('',*,*,#211,.F.);
#65=ORIENTED_EDGE('',*,*,#218,.F.);
#66=ORIENTED_EDGE('',*,*,#228,.T.);
#67=ORIENTED_EDGE('',*,*,#229,.T.);
#68=ORIENTED_EDGE('',*,*,#196,.T.);
#69=ORIENTED_EDGE('',*,*,#230,.T.);
#70=ORIENTED_EDGE('',*,*,#215,.T.);
#71=ORIENTED_EDGE('',*,*,#231,.T.);
#72=ORIENTED_EDGE('',*,*,#200,.F.);
#73=ORIENTED_EDGE('',*,*,#232,.T.);
#74=ORIENTED_EDGE('',*,*,#192,.T.);
#75=ORIENTED_EDGE('',*,*,#233,.F.);
#76=ORIENTED_EDGE('',*,*,#219,.T.);
#77=ORIENTED_EDGE('',*,*,#212,.T.);
#78=ORIENTED_EDGE('',*,*,#234,.T.);
#79=ORIENTED_EDGE('',*,*,#235,.T.);
#80=ORIENTED_EDGE('',*,*,#236,.T.);
#81=ORIENTED_EDGE('',*,*,#237,.T.);
#82=ORIENTED_EDGE('',*,*,#195,.F.);
#83=ORIENTED_EDGE('',*,*,#238,.T.);
#84=ORIENTED_EDGE('',*,*,#216,.F.);
#85=ORIENTED_EDGE('',*,*,#230,.F.);
#86=ORIENTED_EDGE('',*,*,#204,.F.);
#87=ORIENTED_EDGE('',*,*,#239,.T.);
#88=ORIENTED_EDGE('',*,*,#193,.F.);
#89=ORIENTED_EDGE('',*,*,#232,.F.);
#90=ORIENTED_EDGE('',*,*,#223,.F.);
#91=ORIENTED_EDGE('',*,*,#240,.T.);
#92=ORIENTED_EDGE('',*,*,#217,.F.);
#93=ORIENTED_EDGE('',*,*,#238,.F.);
#94=ORIENTED_EDGE('',*,*,#194,.F.);
#95=ORIENTED_EDGE('',*,*,#239,.F.);
#96=ORIENTED_EDGE('',*,*,#203,.F.);
#97=ORIENTED_EDGE('',*,*,#241,.T.);
#98=ORIENTED_EDGE('',*,*,#237,.F.);
#99=ORIENTED_EDGE('',*,*,#242,.T.);
#100=ORIENTED_EDGE('',*,*,#227,.T.);
#101=ORIENTED_EDGE('',*,*,#243,.T.);
#102=ORIENTED_EDGE('',*,*,#236,.F.);
#103=ORIENTED_EDGE('',*,*,#244,.T.);
#104=ORIENTED_EDGE('',*,*,#213,.F.);
#105=ORIENTED_EDGE('',*,*,#240,.F.);
#106=ORIENTED_EDGE('',*,*,#222,.F.);
#107=ORIENTED_EDGE('',*,*,#245,.F.);
#108=ORIENTED_EDGE('',*,*,#220,.F.);
#109=ORIENTED_EDGE('',*,*,#242,.F.);
#110=ORIENTED_EDGE('',*,*,#202,.F.);
#111=ORIENTED_EDGE('',*,*,#246,.T.);
#112=ORIENTED_EDGE('',*,*,#234,.F.);
#113=ORIENTED_EDGE('',*,*,#243,.F.);
#114=ORIENTED_EDGE('',*,*,#226,.F.);
#115=ORIENTED_EDGE('',*,*,#247,.F.);
#116=ORIENTED_EDGE('',*,*,#224,.F.);
#117=ORIENTED_EDGE('',*,*,#241,.F.);
#118=ORIENTED_EDGE('',*,*,#225,.F.);
#119=ORIENTED_EDGE('',*,*,#247,.T.);
#120=ORIENTED_EDGE('',*,*,#221,.F.);
#121=ORIENTED_EDGE('',*,*,#245,.T.);
#122=ORIENTED_EDGE('',*,*,#248,.F.);
#123=ORIENTED_EDGE('',*,*,#209,.F.);
#124=ORIENTED_EDGE('',*,*,#249,.F.);
#125=ORIENTED_EDGE('',*,*,#246,.F.);
#126=ORIENTED_EDGE('',*,*,#249,.T.);
#127=ORIENTED_EDGE('',*,*,#208,.F.);
#128=ORIENTED_EDGE('',*,*,#250,.F.);
#129=ORIENTED_EDGE('',*,*,#235,.F.);
#130=ORIENTED_EDGE('',*,*,#248,.T.);
#131=ORIENTED_EDGE('',*,*,#201,.F.);
#132=ORIENTED_EDGE('',*,*,#251,.F.);
#133=ORIENTED_EDGE('',*,*,#210,.F.);
#134=ORIENTED_EDGE('',*,*,#250,.T.);
#135=ORIENTED_EDGE('',*,*,#207,.F.);
#136=ORIENTED_EDGE('',*,*,#252,.F.);
#137=ORIENTED_EDGE('',*,*,#244,.F.);
#138=ORIENTED_EDGE('',*,*,#251,.T.);
#139=ORIENTED_EDGE('',*,*,#231,.F.);
#140=ORIENTED_EDGE('',*,*,#253,.F.);
#141=ORIENTED_EDGE('',*,*,#205,.F.);
#142=ORIENTED_EDGE('',*,*,#252,.T.);
#143=ORIENTED_EDGE('',*,*,#206,.F.);
#144=ORIENTED_EDGE('',*,*,#253,.T.);
#145=ORIENTED_EDGE('',*,*,#214,.F.);
#146=ORIENTED_EDGE('',*,*,#197,.F.);
#147=ORIENTED_EDGE('',*,*,#229,.F.);
#148=ORIENTED_EDGE('',*,*,#254,.T.);
#149=ORIENTED_EDGE('',*,*,#255,.T.);
#150=ORIENTED_EDGE('',*,*,#191,.T.);
#151=ORIENTED_EDGE('',*,*,#256,.F.);
#152=ORIENTED_EDGE('',*,*,#257,.F.);
#153=ORIENTED_EDGE('',*,*,#233,.T.);
#154=ORIENTED_EDGE('',*,*,#190,.F.);
#155=ORIENTED_EDGE('',*,*,#258,.F.);
#156=ORIENTED_EDGE('',*,*,#259,.T.);
#157=ORIENTED_EDGE('',*,*,#256,.T.);
#158=ORIENTED_EDGE('',*,*,#189,.T.);
#159=ORIENTED_EDGE('',*,*,#260,.T.);
#160=ORIENTED_EDGE('',*,*,#261,.F.);
#161=ORIENTED_EDGE('',*,*,#262,.F.);
#162=ORIENTED_EDGE('',*,*,#258,.T.);
#163=ORIENTED_EDGE('',*,*,#261,.T.);
#164=ORIENTED_EDGE('',*,*,#263,.T.);
#165=ORIENTED_EDGE('',*,*,#264,.F.);
#166=ORIENTED_EDGE('',*,*,#265,.T.);
#167=ORIENTED_EDGE('',*,*,#199,.F.);
#168=ORIENTED_EDGE('',*,*,#266,.F.);
#169=ORIENTED_EDGE('',*,*,#267,.T.);
#170=ORIENTED_EDGE('',*,*,#264,.T.);
#171=ORIENTED_EDGE('',*,*,#268,.T.);
#172=ORIENTED_EDGE('',*,*,#198,.F.);
#173=ORIENTED_EDGE('',*,*,#255,.F.);
#174=ORIENTED_EDGE('',*,*,#269,.T.);
#175=ORIENTED_EDGE('',*,*,#266,.T.);
#176=ORIENTED_EDGE('',*,*,#254,.F.);
#177=ORIENTED_EDGE('',*,*,#228,.F.);
#178=ORIENTED_EDGE('',*,*,#257,.T.);
#179=ORIENTED_EDGE('',*,*,#259,.F.);
#180=ORIENTED_EDGE('',*,*,#262,.T.);
#181=ORIENTED_EDGE('',*,*,#265,.F.);
#182=ORIENTED_EDGE('',*,*,#267,.F.);
#183=ORIENTED_EDGE('',*,*,#269,.F.);
#184=ORIENTED_EDGE('',*,*,#268,.F.);
#185=ORIENTED_EDGE('',*,*,#263,.F.);
#186=ORIENTED_EDGE('',*,*,#260,.F.);
#187=ORIENTED_EDGE('',*,*,#188,.F.);
#188=EDGE_CURVE('',#270,#271,#324,.T.);
#189=EDGE_CURVE('',#272,#271,#325,.T.);
#190=EDGE_CURVE('',#272,#273,#326,.T.);
#191=EDGE_CURVE('',#274,#273,#327,.T.);
#192=EDGE_CURVE('',#275,#274,#328,.T.);
#193=EDGE_CURVE('',#275,#276,#329,.T.);
#194=EDGE_CURVE('',#276,#277,#330,.T.);
#195=EDGE_CURVE('',#277,#278,#331,.T.);
#196=EDGE_CURVE('',#279,#278,#332,.T.);
#197=EDGE_CURVE('',#279,#280,#333,.T.);
#198=EDGE_CURVE('',#280,#281,#334,.T.);
#199=EDGE_CURVE('',#281,#270,#335,.T.);
#200=EDGE_CURVE('',#282,#283,#336,.T.);
#201=EDGE_CURVE('',#283,#284,#337,.T.);
#202=EDGE_CURVE('',#284,#285,#338,.T.);
#203=EDGE_CURVE('',#285,#286,#339,.F.);
#204=EDGE_CURVE('',#286,#282,#340,.T.);
#205=EDGE_CURVE('',#287,#288,#341,.T.);
#206=EDGE_CURVE('',#288,#289,#342,.T.);
#207=EDGE_CURVE('',#289,#290,#343,.T.);
#208=EDGE_CURVE('',#290,#291,#344,.T.);
#209=EDGE_CURVE('',#291,#292,#345,.T.);
#210=EDGE_CURVE('',#292,#287,#346,.T.);
#211=EDGE_CURVE('',#293,#293,#14,.T.);
#212=EDGE_CURVE('',#294,#294,#15,.T.);
#213=EDGE_CURVE('',#295,#296,#347,.T.);
#214=EDGE_CURVE('',#296,#297,#348,.T.);
#215=EDGE_CURVE('',#298,#297,#349,.T.);
#216=EDGE_CURVE('',#298,#299,#350,.T.);
#217=EDGE_CURVE('',#299,#295,#351,.F.);
#218=EDGE_CURVE('',#300,#300,#16,.T.);
#219=EDGE_CURVE('',#301,#301,#17,.T.);
#220=EDGE_CURVE('',#302,#303,#352,.F.);
#221=EDGE_CURVE('',#303,#304,#18,.T.);
#222=EDGE_CURVE('',#304,#305,#353,.F.);
#223=EDGE_CURVE('',#305,#306,#354,.T.);
#224=EDGE_CURVE('',#306,#307,#355,.T.);
#225=EDGE_CURVE('',#307,#308,#19,.T.);
#226=EDGE_CURVE('',#308,#309,#356,.T.);
#227=EDGE_CURVE('',#302,#309,#357,.T.);
#228=EDGE_CURVE('',#310,#311,#358,.T.);
#229=EDGE_CURVE('',#311,#279,#359,.T.);
#230=EDGE_CURVE('',#278,#298,#360,.F.);
#231=EDGE_CURVE('',#297,#283,#361,.T.);
#232=EDGE_CURVE('',#282,#275,#362,.T.);
#233=EDGE_CURVE('',#310,#274,#363,.T.);
#234=EDGE_CURVE('',#312,#313,#364,.T.);
#235=EDGE_CURVE('',#313,#314,#365,.T.);
#236=EDGE_CURVE('',#314,#315,#366,.T.);
#237=EDGE_CURVE('',#315,#312,#367,.T.);
#238=EDGE_CURVE('',#277,#299,#368,.T.);
#239=EDGE_CURVE('',#286,#276,#369,.F.);
#240=EDGE_CURVE('',#305,#295,#370,.T.);
#241=EDGE_CURVE('',#285,#306,#371,.F.);
#242=EDGE_CURVE('',#315,#302,#372,.T.);
#243=EDGE_CURVE('',#309,#312,#373,.F.);
#244=EDGE_CURVE('',#314,#296,#374,.F.);
#245=EDGE_CURVE('',#303,#304,#12,.F.);
#246=EDGE_CURVE('',#284,#313,#375,.T.);
#247=EDGE_CURVE('',#307,#308,#13,.T.);
#248=EDGE_CURVE('',#292,#284,#376,.T.);
#249=EDGE_CURVE('',#313,#291,#377,.T.);
#250=EDGE_CURVE('',#314,#290,#378,.F.);
#251=EDGE_CURVE('',#287,#283,#379,.F.);
#252=EDGE_CURVE('',#296,#289,#380,.T.);
#253=EDGE_CURVE('',#288,#297,#381,.T.);
#254=EDGE_CURVE('',#311,#316,#382,.T.);
#255=EDGE_CURVE('',#316,#280,#383,.T.);
#256=EDGE_CURVE('',#317,#273,#384,.T.);
#257=EDGE_CURVE('',#310,#317,#385,.T.);
#258=EDGE_CURVE('',#318,#272,#386,.T.);
#259=EDGE_CURVE('',#318,#317,#387,.T.);
#260=EDGE_CURVE('',#271,#319,#388,.F.);
#261=EDGE_CURVE('',#320,#319,#389,.T.);
#262=EDGE_CURVE('',#318,#320,#390,.T.);
#263=EDGE_CURVE('',#319,#321,#391,.T.);
#264=EDGE_CURVE('',#322,#321,#392,.T.);
#265=EDGE_CURVE('',#322,#320,#393,.T.);
#266=EDGE_CURVE('',#323,#281,#394,.T.);
#267=EDGE_CURVE('',#323,#322,#395,.T.);
#268=EDGE_CURVE('',#321,#270,#396,.F.);
#269=EDGE_CURVE('',#316,#323,#397,.T.);
#270=VERTEX_POINT('',#820);
#271=VERTEX_POINT('',#821);
#272=VERTEX_POINT('',#823);
#273=VERTEX_POINT('',#825);
#274=VERTEX_POINT('',#827);
#275=VERTEX_POINT('',#829);
#276=VERTEX_POINT('',#831);
#277=VERTEX_POINT('',#833);
#278=VERTEX_POINT('',#835);
#279=VERTEX_POINT('',#837);
#280=VERTEX_POINT('',#839);
#281=VERTEX_POINT('',#841);
#282=VERTEX_POINT('',#845);
#283=VERTEX_POINT('',#846);
#284=VERTEX_POINT('',#848);
#285=VERTEX_POINT('',#850);
#286=VERTEX_POINT('',#852);
#287=VERTEX_POINT('',#856);
#288=VERTEX_POINT('',#857);
#289=VERTEX_POINT('',#859);
#290=VERTEX_POINT('',#861);
#291=VERTEX_POINT('',#863);
#292=VERTEX_POINT('',#865);
#293=VERTEX_POINT('',#869);
#294=VERTEX_POINT('',#871);
#295=VERTEX_POINT('',#874);
#296=VERTEX_POINT('',#875);
#297=VERTEX_POINT('',#877);
#298=VERTEX_POINT('',#879);
#299=VERTEX_POINT('',#881);
#300=VERTEX_POINT('',#885);
#301=VERTEX_POINT('',#887);
#302=VERTEX_POINT('',#890);
#303=VERTEX_POINT('',#891);
#304=VERTEX_POINT('',#893);
#305=VERTEX_POINT('',#895);
#306=VERTEX_POINT('',#897);
#307=VERTEX_POINT('',#899);
#308=VERTEX_POINT('',#901);
#309=VERTEX_POINT('',#903);
#310=VERTEX_POINT('',#907);
#311=VERTEX_POINT('',#908);
#312=VERTEX_POINT('',#916);
#313=VERTEX_POINT('',#917);
#314=VERTEX_POINT('',#919);
#315=VERTEX_POINT('',#921);
#316=VERTEX_POINT('',#955);
#317=VERTEX_POINT('',#959);
#318=VERTEX_POINT('',#963);
#319=VERTEX_POINT('',#967);
#320=VERTEX_POINT('',#969);
#321=VERTEX_POINT('',#973);
#322=VERTEX_POINT('',#975);
#323=VERTEX_POINT('',#979);
#324=LINE('',#819,#398);
#325=LINE('',#822,#399);
#326=LINE('',#824,#400);
#327=LINE('',#826,#401);
#328=LINE('',#828,#402);
#329=LINE('',#830,#403);
#330=LINE('',#832,#404);
#331=LINE('',#834,#405);
#332=LINE('',#836,#406);
#333=LINE('',#838,#407);
#334=LINE('',#840,#408);
#335=LINE('',#842,#409);
#336=LINE('',#844,#410);
#337=LINE('',#847,#411);
#338=LINE('',#849,#412);
#339=LINE('',#851,#413);
#340=LINE('',#853,#414);
#341=LINE('',#855,#415);
#342=LINE('',#858,#416);
#343=LINE('',#860,#417);
#344=LINE('',#862,#418);
#345=LINE('',#864,#419);
#346=LINE('',#866,#420);
#347=LINE('',#873,#421);
#348=LINE('',#876,#422);
#349=LINE('',#878,#423);
#350=LINE('',#880,#424);
#351=LINE('',#882,#425);
#352=LINE('',#889,#426);
#353=LINE('',#894,#427);
#354=LINE('',#896,#428);
#355=LINE('',#898,#429);
#356=LINE('',#902,#430);
#357=LINE('',#904,#431);
#358=LINE('',#906,#432);
#359=LINE('',#909,#433);
#360=LINE('',#910,#434);
#361=LINE('',#911,#435);
#362=LINE('',#912,#436);
#363=LINE('',#913,#437);
#364=LINE('',#915,#438);
#365=LINE('',#918,#439);
#366=LINE('',#920,#440);
#367=LINE('',#922,#441);
#368=LINE('',#924,#442);
#369=LINE('',#926,#443);
#370=LINE('',#928,#444);
#371=LINE('',#929,#445);
#372=LINE('',#931,#446);
#373=LINE('',#932,#447);
#374=LINE('',#934,#448);
#375=LINE('',#937,#449);
#376=LINE('',#942,#450);
#377=LINE('',#943,#451);
#378=LINE('',#945,#452);
#379=LINE('',#947,#453);
#380=LINE('',#949,#454);
#381=LINE('',#951,#455);
#382=LINE('',#954,#456);
#383=LINE('',#956,#457);
#384=LINE('',#958,#458);
#385=LINE('',#960,#459);
#386=LINE('',#962,#460);
#387=LINE('',#964,#461);
#388=LINE('',#966,#462);
#389=LINE('',#968,#463);
#390=LINE('',#970,#464);
#391=LINE('',#972,#465);
#392=LINE('',#974,#466);
#393=LINE('',#976,#467);
#394=LINE('',#978,#468);
#395=LINE('',#980,#469);
#396=LINE('',#981,#470);
#397=LINE('',#983,#471);
#398=VECTOR('',#665,1.);
#399=VECTOR('',#666,1.);
#400=VECTOR('',#667,1.);
#401=VECTOR('',#668,1.);
#402=VECTOR('',#669,1.);
#403=VECTOR('',#670,1.);
#404=VECTOR('',#671,1.);
#405=VECTOR('',#672,1.);
#406=VECTOR('',#673,1.);
#407=VECTOR('',#674,1.);
#408=VECTOR('',#675,1.);
#409=VECTOR('',#676,1.);
#410=VECTOR('',#679,1.);
#411=VECTOR('',#680,1.);
#412=VECTOR('',#681,1.);
#413=VECTOR('',#682,1.);
#414=VECTOR('',#683,1.);
#415=VECTOR('',#686,1.);
#416=VECTOR('',#687,1.);
#417=VECTOR('',#688,1.);
#418=VECTOR('',#689,1.);
#419=VECTOR('',#690,1.);
#420=VECTOR('',#691,1.);
#421=VECTOR('',#700,1.);
#422=VECTOR('',#701,1.);
#423=VECTOR('',#702,1.);
#424=VECTOR('',#703,1.);
#425=VECTOR('',#704,1.);
#426=VECTOR('',#713,1.);
#427=VECTOR('',#716,1.);
#428=VECTOR('',#717,1.);
#429=VECTOR('',#718,1.);
#430=VECTOR('',#721,1.);
#431=VECTOR('',#722,1.);
#432=VECTOR('',#725,1.);
#433=VECTOR('',#726,1.);
#434=VECTOR('',#727,1.);
#435=VECTOR('',#728,1.);
#436=VECTOR('',#729,1.);
#437=VECTOR('',#730,1.);
#438=VECTOR('',#733,1.);
#439=VECTOR('',#734,1.);
#440=VECTOR('',#735,1.);
#441=VECTOR('',#736,1.);
#442=VECTOR('',#739,1.);
#443=VECTOR('',#742,1.);
#444=VECTOR('',#745,1.);
#445=VECTOR('',#746,1.);
#446=VECTOR('',#749,1.);
#447=VECTOR('',#750,1.);
#448=VECTOR('',#753,1.);
#449=VECTOR('',#758,1.);
#450=VECTOR('',#767,1.);
#451=VECTOR('',#768,1.);
#452=VECTOR('',#771,1.);
#453=VECTOR('',#774,1.);
#454=VECTOR('',#777,1.);
#455=VECTOR('',#780,1.);
#456=VECTOR('',#785,1.);
#457=VECTOR('',#786,1.);
#458=VECTOR('',#789,1.);
#459=VECTOR('',#790,1.);
#460=VECTOR('',#793,1.);
#461=VECTOR('',#794,1.);
#462=VECTOR('',#797,1.);
#463=VECTOR('',#798,1.);
#464=VECTOR('',#799,1.);
#465=VECTOR('',#802,1.);
#466=VECTOR('',#803,1.);
#467=VECTOR('',#804,1.);
#468=VECTOR('',#807,1.);
#469=VECTOR('',#808,1.);
#470=VECTOR('',#809,1.);
#471=VECTOR('',#812,1.);
#472=EDGE_LOOP('',(#24,#25,#26,#27,#28,#29,#30,#31,#32,#33,#34,#35));
#473=EDGE_LOOP('',(#36,#37,#38,#39,#40));
#474=EDGE_LOOP('',(#41,#42,#43,#44,#45,#46));
#475=EDGE_LOOP('',(#47));
#476=EDGE_LOOP('',(#48));
#477=EDGE_LOOP('',(#49,#50,#51,#52,#53));
#478=EDGE_LOOP('',(#54));
#479=EDGE_LOOP('',(#55));
#480=EDGE_LOOP('',(#56,#57,#58,#59,#60,#61,#62,#63));
#481=EDGE_LOOP('',(#64));
#482=EDGE_LOOP('',(#65));
#483=EDGE_LOOP('',(#66,#67,#68,#69,#70,#71,#72,#73,#74,#75));
#484=EDGE_LOOP('',(#76));
#485=EDGE_LOOP('',(#77));
#486=EDGE_LOOP('',(#78,#79,#80,#81));
#487=EDGE_LOOP('',(#82,#83,#84,#85));
#488=EDGE_LOOP('',(#86,#87,#88,#89));
#489=EDGE_LOOP('',(#90,#91,#92,#93,#94,#95,#96,#97));
#490=EDGE_LOOP('',(#98,#99,#100,#101));
#491=EDGE_LOOP('',(#102,#103,#104,#105,#106,#107,#108,#109));
#492=EDGE_LOOP('',(#110,#111,#112,#113,#114,#115,#116,#117));
#493=EDGE_LOOP('',(#118,#119));
#494=EDGE_LOOP('',(#120,#121));
#495=EDGE_LOOP('',(#122,#123,#124,#125));
#496=EDGE_LOOP('',(#126,#127,#128,#129));
#497=EDGE_LOOP('',(#130,#131,#132,#133));
#498=EDGE_LOOP('',(#134,#135,#136,#137));
#499=EDGE_LOOP('',(#138,#139,#140,#141));
#500=EDGE_LOOP('',(#142,#143,#144,#145));
#501=EDGE_LOOP('',(#146,#147,#148,#149));
#502=EDGE_LOOP('',(#150,#151,#152,#153));
#503=EDGE_LOOP('',(#154,#155,#156,#157));
#504=EDGE_LOOP('',(#158,#159,#160,#161,#162));
#505=EDGE_LOOP('',(#163,#164,#165,#166));
#506=EDGE_LOOP('',(#167,#168,#169,#170,#171));
#507=EDGE_LOOP('',(#172,#173,#174,#175));
#508=EDGE_LOOP('',(#176,#177,#178,#179,#180,#181,#182,#183));
#509=EDGE_LOOP('',(#184,#185,#186,#187));
#510=FACE_BOUND('',#472,.T.);
#511=FACE_BOUND('',#473,.T.);
#512=FACE_BOUND('',#474,.T.);
#513=FACE_BOUND('',#475,.T.);
#514=FACE_BOUND('',#476,.T.);
#515=FACE_BOUND('',#477,.T.);
#516=FACE_BOUND('',#478,.T.);
#517=FACE_BOUND('',#479,.T.);
#518=FACE_BOUND('',#480,.T.);
#519=FACE_BOUND('',#481,.T.);
#520=FACE_BOUND('',#482,.T.);
#521=FACE_BOUND('',#483,.T.);
#522=FACE_BOUND('',#484,.T.);
#523=FACE_BOUND('',#485,.T.);
#524=FACE_BOUND('',#486,.T.);
#525=FACE_BOUND('',#487,.T.);
#526=FACE_BOUND('',#488,.T.);
#527=FACE_BOUND('',#489,.T.);
#528=FACE_BOUND('',#490,.T.);
#529=FACE_BOUND('',#491,.T.);
#530=FACE_BOUND('',#492,.T.);
#531=FACE_BOUND('',#493,.T.);
#532=FACE_BOUND('',#494,.T.);
#533=FACE_BOUND('',#495,.T.);
#534=FACE_BOUND('',#496,.T.);
#535=FACE_BOUND('',#497,.T.);
#536=FACE_BOUND('',#498,.T.);
#537=FACE_BOUND('',#499,.T.);
#538=FACE_BOUND('',#500,.T.);
#539=FACE_BOUND('',#501,.T.);
#540=FACE_BOUND('',#502,.T.);
#541=FACE_BOUND('',#503,.T.);
#542=FACE_BOUND('',#504,.T.);
#543=FACE_BOUND('',#505,.T.);
#544=FACE_BOUND('',#506,.T.);
#545=FACE_BOUND('',#507,.T.);
#546=FACE_BOUND('',#508,.T.);
#547=FACE_BOUND('',#509,.T.);
#548=PLANE('',#621);
#549=PLANE('',#622);
#550=PLANE('',#623);
#551=PLANE('',#627);
#552=PLANE('',#631);
#553=PLANE('',#634);
#554=PLANE('',#635);
#555=PLANE('',#636);
#556=PLANE('',#637);
#557=PLANE('',#638);
#558=PLANE('',#639);
#559=PLANE('',#640);
#560=PLANE('',#642);
#561=PLANE('',#646);
#562=PLANE('',#647);
#563=PLANE('',#648);
#564=PLANE('',#649);
#565=PLANE('',#650);
#566=PLANE('',#651);
#567=PLANE('',#652);
#568=PLANE('',#653);
#569=PLANE('',#654);
#570=PLANE('',#655);
#571=PLANE('',#656);
#572=PLANE('',#657);
#573=PLANE('',#658);
#574=PLANE('',#659);
#575=PLANE('',#660);
#576=ADVANCED_FACE('',(#510),#548,.T.);
#577=ADVANCED_FACE('',(#511),#549,.F.);
#578=ADVANCED_FACE('',(#512),#550,.F.);
#579=ADVANCED_FACE('',(#513,#514),#20,.F.);
#580=ADVANCED_FACE('',(#515),#551,.T.);
#581=ADVANCED_FACE('',(#516,#517),#21,.F.);
#582=ADVANCED_FACE('',(#518,#519,#520),#552,.T.);
#583=ADVANCED_FACE('',(#521,#522,#523),#553,.F.);
#584=ADVANCED_FACE('',(#524),#554,.T.);
#585=ADVANCED_FACE('',(#525),#555,.F.);
#586=ADVANCED_FACE('',(#526),#556,.T.);
#587=ADVANCED_FACE('',(#527),#557,.F.);
#588=ADVANCED_FACE('',(#528),#558,.F.);
#589=ADVANCED_FACE('',(#529),#559,.F.);
#590=ADVANCED_FACE('',(#530),#560,.T.);
#591=ADVANCED_FACE('',(#531),#22,.T.);
#592=ADVANCED_FACE('',(#532),#23,.T.);
#593=ADVANCED_FACE('',(#533),#561,.T.);
#594=ADVANCED_FACE('',(#534),#562,.T.);
#595=ADVANCED_FACE('',(#535),#563,.F.);
#596=ADVANCED_FACE('',(#536),#564,.F.);
#597=ADVANCED_FACE('',(#537),#565,.F.);
#598=ADVANCED_FACE('',(#538),#566,.T.);
#599=ADVANCED_FACE('',(#539),#567,.T.);
#600=ADVANCED_FACE('',(#540),#568,.F.);
#601=ADVANCED_FACE('',(#541),#569,.T.);
#602=ADVANCED_FACE('',(#542),#570,.F.);
#603=ADVANCED_FACE('',(#543),#571,.T.);
#604=ADVANCED_FACE('',(#544),#572,.T.);
#605=ADVANCED_FACE('',(#545),#573,.T.);
#606=ADVANCED_FACE('',(#546),#574,.T.);
#607=ADVANCED_FACE('',(#547),#575,.F.);
#608=CLOSED_SHELL('',(#576,#577,#578,#579,#580,#581,#582,#583,#584,#585,
#586,#587,#588,#589,#590,#591,#592,#593,#594,#595,#596,#597,#598,#599,#600,
#601,#602,#603,#604,#605,#606,#607));
#609=STYLED_ITEM('',(#610),#617);
#610=PRESENTATION_STYLE_ASSIGNMENT((#611));
#611=SURFACE_STYLE_USAGE(.BOTH.,#612);
#612=SURFACE_SIDE_STYLE('',(#613));
#613=SURFACE_STYLE_FILL_AREA(#614);
#614=FILL_AREA_STYLE('',(#615));
#615=FILL_AREA_STYLE_COLOUR('',#616);
#616=COLOUR_RGB('',0.145098039215686,0.172549019607843,0.184313725490196);
#617=MANIFOLD_SOLID_BREP('BTT Eddy Coil',#608);
#618=SHAPE_DEFINITION_REPRESENTATION(#992,#619);
#619=SHAPE_REPRESENTATION('BTT Eddy Coil',(#620),#987);
#620=AXIS2_PLACEMENT_3D('',#817,#661,#662);
#621=AXIS2_PLACEMENT_3D('',#818,#663,#664);
#622=AXIS2_PLACEMENT_3D('',#843,#677,#678);
#623=AXIS2_PLACEMENT_3D('',#854,#684,#685);
#624=AXIS2_PLACEMENT_3D('',#867,#692,#693);
#625=AXIS2_PLACEMENT_3D('',#868,#694,#695);
#626=AXIS2_PLACEMENT_3D('',#870,#696,#697);
#627=AXIS2_PLACEMENT_3D('',#872,#698,#699);
#628=AXIS2_PLACEMENT_3D('',#883,#705,#706);
#629=AXIS2_PLACEMENT_3D('',#884,#707,#708);
#630=AXIS2_PLACEMENT_3D('',#886,#709,#710);
#631=AXIS2_PLACEMENT_3D('',#888,#711,#712);
#632=AXIS2_PLACEMENT_3D('',#892,#714,#715);
#633=AXIS2_PLACEMENT_3D('',#900,#719,#720);
#634=AXIS2_PLACEMENT_3D('',#905,#723,#724);
#635=AXIS2_PLACEMENT_3D('',#914,#731,#732);
#636=AXIS2_PLACEMENT_3D('',#923,#737,#738);
#637=AXIS2_PLACEMENT_3D('',#925,#740,#741);
#638=AXIS2_PLACEMENT_3D('',#927,#743,#744);
#639=AXIS2_PLACEMENT_3D('',#930,#747,#748);
#640=AXIS2_PLACEMENT_3D('',#933,#751,#752);
#641=AXIS2_PLACEMENT_3D('',#935,#754,#755);
#642=AXIS2_PLACEMENT_3D('',#936,#756,#757);
#643=AXIS2_PLACEMENT_3D('',#938,#759,#760);
#644=AXIS2_PLACEMENT_3D('',#939,#761,#762);
#645=AXIS2_PLACEMENT_3D('',#940,#763,#764);
#646=AXIS2_PLACEMENT_3D('',#941,#765,#766);
#647=AXIS2_PLACEMENT_3D('',#944,#769,#770);
#648=AXIS2_PLACEMENT_3D('',#946,#772,#773);
#649=AXIS2_PLACEMENT_3D('',#948,#775,#776);
#650=AXIS2_PLACEMENT_3D('',#950,#778,#779);
#651=AXIS2_PLACEMENT_3D('',#952,#781,#782);
#652=AXIS2_PLACEMENT_3D('',#953,#783,#784);
#653=AXIS2_PLACEMENT_3D('',#957,#787,#788);
#654=AXIS2_PLACEMENT_3D('',#961,#791,#792);
#655=AXIS2_PLACEMENT_3D('',#965,#795,#796);
#656=AXIS2_PLACEMENT_3D('',#971,#800,#801);
#657=AXIS2_PLACEMENT_3D('',#977,#805,#806);
#658=AXIS2_PLACEMENT_3D('',#982,#810,#811);
#659=AXIS2_PLACEMENT_3D('',#984,#813,#814);
#660=AXIS2_PLACEMENT_3D('',#985,#815,#816);
#661=DIRECTION('',(0.,0.,1.));
#662=DIRECTION('',(1.,0.,0.));
#663=DIRECTION('',(3.5784616135393E-16,-4.49571657806571E-17,1.));
#664=DIRECTION('',(1.33118019469587E-17,-1.,-4.49571657806571E-17));
#665=DIRECTION('',(-1.,-1.33118019469587E-17,3.5784616135393E-16));
#666=DIRECTION('',(1.33118019469587E-17,-1.,-4.49571657806571E-17));
#667=DIRECTION('',(-1.,-1.33118019469587E-17,3.5784616135393E-16));
#668=DIRECTION('',(1.33118019469587E-17,-1.,-4.49571657806571E-17));
#669=DIRECTION('',(1.,1.33118019469587E-17,-3.5784616135393E-16));
#670=DIRECTION('',(1.33118019469587E-17,-1.,-4.49571657806571E-17));
#671=DIRECTION('',(1.,1.33118019469587E-17,-3.5784616135393E-16));
#672=DIRECTION('',(-1.33118019469587E-17,1.,4.49571657806571E-17));
#673=DIRECTION('',(1.,1.33118019469587E-17,-3.5784616135393E-16));
#674=DIRECTION('',(1.33118019469587E-17,-1.,-4.49571657806571E-17));
#675=DIRECTION('',(-1.,-1.33118019469587E-17,3.5784616135393E-16));
#676=DIRECTION('',(1.33118019469587E-17,-1.,-4.49571657806571E-17));
#677=DIRECTION('',(1.,1.33118019469587E-17,-3.5784616135393E-16));
#678=DIRECTION('',(-1.33118019469587E-17,1.,4.49571657806571E-17));
#679=DIRECTION('',(-3.5784616135393E-16,4.49571657806571E-17,-1.));
#680=DIRECTION('',(1.33118019469587E-17,-1.,-4.49571657806571E-17));
#681=DIRECTION('',(3.5784616135393E-16,-4.49571657806571E-17,1.));
#682=DIRECTION('',(-2.43622581888433E-16,-0.707106781186548,-0.707106781186548));
#683=DIRECTION('',(-1.33118019469587E-17,1.,4.49571657806571E-17));
#684=DIRECTION('',(3.5784616135393E-16,-4.49571657806571E-17,1.));
#685=DIRECTION('',(1.33118019469587E-17,-1.,-4.49571657806571E-17));
#686=DIRECTION('',(1.,1.33118019469587E-17,-3.5784616135393E-16));
#687=DIRECTION('',(1.33118019469587E-17,-1.,-4.49571657806571E-17));
#688=DIRECTION('',(-0.707106781186548,-0.707106781186548,2.2124593052851E-16));
#689=DIRECTION('',(-1.,-1.33118019469587E-17,3.5784616135393E-16));
#690=DIRECTION('',(-0.707106781186548,0.707106781186547,2.8482496410137E-16));
#691=DIRECTION('',(-1.33118019469587E-17,1.,4.49571657806571E-17));
#692=DIRECTION('',(-1.33118019469587E-17,1.,4.49571657806571E-17));
#693=DIRECTION('',(-1.,-1.33118019469587E-17,3.5784616135393E-16));
#694=DIRECTION('',(1.33118019469587E-17,-1.,-4.49571657806571E-17));
#695=DIRECTION('',(1.,1.33118019469587E-17,-3.5784616135393E-16));
#696=DIRECTION('',(1.33118019469587E-17,-1.,-4.49571657806571E-17));
#697=DIRECTION('',(1.,1.33118019469587E-17,-3.5784616135393E-16));
#698=DIRECTION('',(1.,1.33118019469587E-17,-2.96729917132651E-16));
#699=DIRECTION('',(2.96729917132651E-16,-4.49571657806571E-17,1.));
#700=DIRECTION('',(-2.96729917132651E-16,4.49571657806571E-17,-1.));
#701=DIRECTION('',(-1.33118019469587E-17,1.,4.49571657806571E-17));
#702=DIRECTION('',(-2.96729917132651E-16,4.49571657806571E-17,-1.));
#703=DIRECTION('',(1.33118019469587E-17,-1.,-4.49571657806571E-17));
#704=DIRECTION('',(2.00406871158913E-16,0.707106781186548,0.707106781186548));
#705=DIRECTION('',(-1.33118019469587E-17,1.,4.49571657806571E-17));
#706=DIRECTION('',(-1.,-1.33118019469587E-17,3.5784616135393E-16));
#707=DIRECTION('',(1.33118019469587E-17,-1.,-4.49571657806571E-17));
#708=DIRECTION('',(1.,1.33118019469587E-17,-3.5784616135393E-16));
#709=DIRECTION('',(1.33118019469587E-17,-1.,-4.49571657806571E-17));
#710=DIRECTION('',(1.,1.33118019469587E-17,-3.5784616135393E-16));
#711=DIRECTION('',(1.33118019469587E-17,-1.,-4.49571657806571E-17));
#712=DIRECTION('',(1.,1.33118019469587E-17,-3.5784616135393E-16));
#713=DIRECTION('',(-2.96729917132651E-16,4.49571657806571E-17,-1.));
#714=DIRECTION('',(1.33118019469587E-17,-1.,-4.49571657806571E-17));
#715=DIRECTION('',(0.999988354087909,1.35286167802477E-17,-0.00482614634612036));
#716=DIRECTION('',(-2.96729917132651E-16,4.49571657806571E-17,-1.));
#717=DIRECTION('',(-1.,-1.33118019469587E-17,3.5784616135393E-16));
#718=DIRECTION('',(-3.5784616135393E-16,4.49571657806571E-17,-1.));
#719=DIRECTION('',(1.33118019469587E-17,-1.,-4.49571657806571E-17));
#720=DIRECTION('',(0.999988354087909,1.35286167802477E-17,-0.00482614634612032));
#721=DIRECTION('',(-3.5784616135393E-16,4.49571657806571E-17,-1.));
#722=DIRECTION('',(-1.,-1.33118019469587E-17,3.5784616135393E-16));
#723=DIRECTION('',(1.33118019469587E-17,-1.,-4.49571657806571E-17));
#724=DIRECTION('',(1.,1.33118019469587E-17,-3.5784616135393E-16));
#725=DIRECTION('',(1.,1.33118019469587E-17,-3.5784616135393E-16));
#726=DIRECTION('',(3.5784616135393E-16,-4.49571657806571E-17,1.));
#727=DIRECTION('',(-0.707106781186547,-4.12023822129372E-17,0.707106781186548));
#728=DIRECTION('',(-1.,-1.33118019469587E-17,3.5784616135393E-16));
#729=DIRECTION('',(0.707106781186548,-2.23766513599236E-17,0.707106781186547));
#730=DIRECTION('',(3.5784616135393E-16,-4.49571657806571E-17,1.));
#731=DIRECTION('',(1.33118019469587E-17,-1.,-4.49571657806571E-17));
#732=DIRECTION('',(1.,1.33118019469587E-17,-3.5784616135393E-16));
#733=DIRECTION('',(-3.5784616135393E-16,4.49571657806571E-17,-1.));
#734=DIRECTION('',(1.,1.33118019469587E-17,-3.5784616135393E-16));
#735=DIRECTION('',(2.96729917132651E-16,-4.49571657806571E-17,1.));
#736=DIRECTION('',(-1.,-1.33118019469587E-17,3.5784616135393E-16));
#737=DIRECTION('',(-0.707106781186548,2.23766513599236E-17,-0.707106781186547));
#738=DIRECTION('',(-1.33118019469587E-17,1.,4.49571657806571E-17));
#739=DIRECTION('',(0.577350269189625,-0.577350269189626,-0.577350269189626));
#740=DIRECTION('',(-0.707106781186547,-4.12023822129372E-17,0.707106781186548));
#741=DIRECTION('',(1.33118019469587E-17,-1.,-4.49571657806571E-17));
#742=DIRECTION('',(-0.577350269189626,-0.577350269189626,-0.577350269189626));
#743=DIRECTION('',(-2.62448312741447E-16,0.707106781186548,-0.707106781186548));
#744=DIRECTION('',(1.,1.33118019469587E-17,-3.5784616135393E-16));
#745=DIRECTION('',(0.577350269189626,0.577350269189626,0.577350269189626));
#746=DIRECTION('',(-0.577350269189626,0.577350269189626,0.577350269189626));
#747=DIRECTION('',(-2.62448312741447E-16,0.707106781186548,-0.707106781186547));
#748=DIRECTION('',(1.,1.33118019469587E-17,-3.5784616135393E-16));
#749=DIRECTION('',(0.577350269189626,0.577350269189626,0.577350269189626));
#750=DIRECTION('',(-0.577350269189626,0.577350269189626,0.577350269189626));
#751=DIRECTION('',(-0.707106781186548,0.707106781186548,2.4160925337185E-16));
#752=DIRECTION('',(-2.96729917132651E-16,4.49571657806571E-17,-1.));
#753=DIRECTION('',(-0.707106781186548,-0.707106781186548,2.2124593052851E-16));
#754=DIRECTION('',(-0.707106781186548,0.707106781186548,2.4160925337185E-16));
#755=DIRECTION('',(-0.707106781186548,-0.707106781186548,1.78030219798989E-16));
#756=DIRECTION('',(-0.707106781186547,-0.707106781186548,2.2124593052851E-16));
#757=DIRECTION('',(3.5784616135393E-16,-4.49571657806571E-17,1.));
#758=DIRECTION('',(0.707106781186548,-0.707106781186547,-2.8482496410137E-16));
#759=DIRECTION('',(-0.707106781186547,-0.707106781186548,2.2124593052851E-16));
#760=DIRECTION('',(0.707106781186548,-0.707106781186547,-2.8482496410137E-16));
#761=DIRECTION('',(1.33118019469587E-17,-1.,-4.49571657806571E-17));
#762=DIRECTION('',(1.,1.33118019469587E-17,-3.5784616135393E-16));
#763=DIRECTION('',(1.33118019469587E-17,-1.,-4.49571657806571E-17));
#764=DIRECTION('',(1.,1.33118019469587E-17,-3.5784616135393E-16));
#765=DIRECTION('',(-0.5,-0.5,-0.707106781186548));
#766=DIRECTION('',(0.707106781186548,-0.707106781186547,-2.8482496410137E-16));
#767=DIRECTION('',(-0.678598344545846,-0.281084637714823,0.678598344545847));
#768=DIRECTION('',(0.281084637714822,0.678598344545847,-0.678598344545847));
#769=DIRECTION('',(-2.43622581888433E-16,-0.707106781186547,-0.707106781186548));
#770=DIRECTION('',(-1.,-1.33118019469587E-17,3.5784616135393E-16));
#771=DIRECTION('',(0.281084637714823,-0.678598344545847,0.678598344545846));
#772=DIRECTION('',(0.707106781186549,-2.23766513599236E-17,0.707106781186547));
#773=DIRECTION('',(-1.33118019469587E-17,1.,4.49571657806571E-17));
#774=DIRECTION('',(0.577350269189625,-0.577350269189626,-0.577350269189627));
#775=DIRECTION('',(-0.5,0.5,0.707106781186549));
#776=DIRECTION('',(-0.707106781186548,-0.707106781186548,2.2124593052851E-16));
#777=DIRECTION('',(-0.678598344545847,0.281084637714822,-0.678598344545846));
#778=DIRECTION('',(2.62448312741447E-16,-0.707106781186548,0.707106781186548));
#779=DIRECTION('',(1.,1.33118019469587E-17,-3.5784616135393E-16));
#780=DIRECTION('',(0.577350269189626,0.577350269189626,0.577350269189626));
#781=DIRECTION('',(0.707106781186547,4.12023822129372E-17,-0.707106781186548));
#782=DIRECTION('',(1.33118019469587E-17,-1.,-4.49571657806571E-17));
#783=DIRECTION('',(-1.,-1.33118019469587E-17,3.5784616135393E-16));
#784=DIRECTION('',(1.33118019469587E-17,-1.,-4.49571657806571E-17));
#785=DIRECTION('',(1.33118019469587E-17,-1.,-4.49571657806571E-17));
#786=DIRECTION('',(3.5784616135393E-16,-4.49571657806571E-17,1.));
#787=DIRECTION('',(-1.,-1.33118019469587E-17,3.5784616135393E-16));
#788=DIRECTION('',(1.33118019469587E-17,-1.,-4.49571657806571E-17));
#789=DIRECTION('',(3.5784616135393E-16,-4.49571657806571E-17,1.));
#790=DIRECTION('',(1.33118019469587E-17,-1.,-4.49571657806571E-17));
#791=DIRECTION('',(-1.33118019469587E-17,1.,4.49571657806571E-17));
#792=DIRECTION('',(-1.,-1.33118019469587E-17,3.5784616135393E-16));
#793=DIRECTION('',(3.5784616135393E-16,-4.49571657806571E-17,1.));
#794=DIRECTION('',(-1.,-1.33118019469587E-17,3.5784616135393E-16));
#795=DIRECTION('',(-1.,-1.33118019469587E-17,3.5784616135393E-16));
#796=DIRECTION('',(1.33118019469587E-17,-1.,-4.49571657806571E-17));
#797=DIRECTION('',(2.62448312741447E-16,-0.707106781186547,0.707106781186548));
#798=DIRECTION('',(3.5784616135393E-16,-4.49571657806571E-17,1.));
#799=DIRECTION('',(1.33118019469587E-17,-1.,-4.49571657806571E-17));
#800=DIRECTION('',(-1.33118019469587E-17,1.,4.49571657806571E-17));
#801=DIRECTION('',(-1.,-1.33118019469587E-17,3.5784616135393E-16));
#802=DIRECTION('',(1.,1.33118019469587E-17,-3.5784616135393E-16));
#803=DIRECTION('',(3.5784616135393E-16,-4.49571657806571E-17,1.));
#804=DIRECTION('',(-1.,-1.33118019469587E-17,3.5784616135393E-16));
#805=DIRECTION('',(-1.,-1.33118019469587E-17,3.5784616135393E-16));
#806=DIRECTION('',(1.33118019469587E-17,-1.,-4.49571657806571E-17));
#807=DIRECTION('',(3.5784616135393E-16,-4.49571657806571E-17,1.));
#808=DIRECTION('',(1.33118019469587E-17,-1.,-4.49571657806571E-17));
#809=DIRECTION('',(-2.62448312741447E-16,0.707106781186547,-0.707106781186548));
#810=DIRECTION('',(-1.33118019469587E-17,1.,4.49571657806571E-17));
#811=DIRECTION('',(-1.,-1.33118019469587E-17,3.5784616135393E-16));
#812=DIRECTION('',(-1.,-1.33118019469587E-17,3.5784616135393E-16));
#813=DIRECTION('',(3.5784616135393E-16,-4.49571657806571E-17,1.));
#814=DIRECTION('',(-1.,-1.33118019469587E-17,3.5784616135393E-16));
#815=DIRECTION('',(-2.43622581888433E-16,-0.707106781186548,-0.707106781186547));
#816=DIRECTION('',(-1.,-1.33118019469587E-17,3.5784616135393E-16));
#817=CARTESIAN_POINT('',(0.,0.,0.));
#818=CARTESIAN_POINT('',(0.0292,-0.0504759401317911,-0.0261044711773674));
#819=CARTESIAN_POINT('',(0.0292,-0.0421759401317912,-0.0261044711773674));
#820=CARTESIAN_POINT('',(0.03095,-0.0421759401317912,-0.0261044711773674));
#821=CARTESIAN_POINT('',(0.02745,-0.0421759401317912,-0.0261044711773674));
#822=CARTESIAN_POINT('',(0.02745,-0.0404259401317912,-0.0261044711773674));
#823=CARTESIAN_POINT('',(0.02745,-0.0396759401317912,-0.0261044711773674));
#824=CARTESIAN_POINT('',(0.025825,-0.0396759401317912,-0.0261044711773674));
#825=CARTESIAN_POINT('',(0.0242,-0.0396759401317912,-0.0261044711773674));
#826=CARTESIAN_POINT('',(0.0242,-0.0374259401317912,-0.0261044711773674));
#827=CARTESIAN_POINT('',(0.0242,-0.0351759401317911,-0.0261044711773674));
#828=CARTESIAN_POINT('',(0.0292,-0.0351759401317912,-0.0261044711773674));
#829=CARTESIAN_POINT('',(0.02215,-0.0351759401317911,-0.0261044711773674));
#830=CARTESIAN_POINT('',(0.02215,-0.0504759401317911,-0.0261044711773674));
#831=CARTESIAN_POINT('',(0.02215,-0.0454759401317911,-0.0261044711773674));
#832=CARTESIAN_POINT('',(0.0292,-0.0454759401317911,-0.0261044711773674));
#833=CARTESIAN_POINT('',(0.03625,-0.0454759401317911,-0.0261044711773674));
#834=CARTESIAN_POINT('',(0.03625,-0.0504759401317911,-0.0261044711773674));
#835=CARTESIAN_POINT('',(0.03625,-0.0351759401317911,-0.0261044711773674));
#836=CARTESIAN_POINT('',(0.0292,-0.0351759401317912,-0.0261044711773674));
#837=CARTESIAN_POINT('',(0.0342,-0.0351759401317911,-0.0261044711773674));
#838=CARTESIAN_POINT('',(0.0342,-0.0374259401317912,-0.0261044711773674));
#839=CARTESIAN_POINT('',(0.0342,-0.0396759401317912,-0.0261044711773674));
#840=CARTESIAN_POINT('',(0.032575,-0.0396759401317912,-0.0261044711773674));
#841=CARTESIAN_POINT('',(0.03095,-0.0396759401317912,-0.0261044711773674));
#842=CARTESIAN_POINT('',(0.03095,-0.0404259401317912,-0.0261044711773674));
#843=CARTESIAN_POINT('',(0.02015,-0.0504759401317911,-0.0394094711773674));
#844=CARTESIAN_POINT('',(0.02015,-0.0351759401317911,-0.0394094711773674));
#845=CARTESIAN_POINT('',(0.02015,-0.0351759401317911,-0.0281044711773674));
#846=CARTESIAN_POINT('',(0.02015,-0.0351759401317911,-0.0588944711773674));
#847=CARTESIAN_POINT('',(0.02015,-0.0504759401317911,-0.0588944711773674));
#848=CARTESIAN_POINT('',(0.02015,-0.0494759401317911,-0.0588944711773674));
#849=CARTESIAN_POINT('',(0.02015,-0.0494759401317911,-0.0557144711773674));
#850=CARTESIAN_POINT('',(0.02015,-0.0494759401317911,-0.0301044711773674));
#851=CARTESIAN_POINT('',(0.02015,-0.0454759401317911,-0.0261044711773674));
#852=CARTESIAN_POINT('',(0.02015,-0.0474759401317911,-0.0281044711773674));
#853=CARTESIAN_POINT('',(0.02015,-0.0351759401317911,-0.0281044711773674));
#854=CARTESIAN_POINT('',(0.0292,-0.0504759401317911,-0.0598944711773674));
#855=CARTESIAN_POINT('',(0.0292,-0.0361759401317912,-0.0598944711773674));
#856=CARTESIAN_POINT('',(0.02115,-0.0361759401317912,-0.0598944711773674));
#857=CARTESIAN_POINT('',(0.03725,-0.0361759401317912,-0.0598944711773674));
#858=CARTESIAN_POINT('',(0.03725,-0.0494759401317911,-0.0598944711773674));
#859=CARTESIAN_POINT('',(0.03725,-0.049061726569418,-0.0598944711773674));
#860=CARTESIAN_POINT('',(0.0335428932188134,-0.0527688333506046,-0.0598944711773674));
#861=CARTESIAN_POINT('',(0.0338357864376269,-0.0524759401317911,-0.0598944711773674));
#862=CARTESIAN_POINT('',(0.02415,-0.0524759401317911,-0.0598944711773674));
#863=CARTESIAN_POINT('',(0.024564213562373,-0.0524759401317911,-0.0598944711773674));
#864=CARTESIAN_POINT('',(0.0208571067811864,-0.0487688333506046,-0.0598944711773674));
#865=CARTESIAN_POINT('',(0.02115,-0.049061726569418,-0.0598944711773674));
#866=CARTESIAN_POINT('',(0.02115,-0.0504759401317911,-0.0598944711773674));
#867=CARTESIAN_POINT('',(0.0239643970434557,-0.0504759401317911,-0.0370044711773674));
#868=CARTESIAN_POINT('',(0.0239643970434557,-0.0504759401317911,-0.0370044711773674));
#869=CARTESIAN_POINT('',(0.0255393970434557,-0.0504759401317911,-0.0370044711773674));
#870=CARTESIAN_POINT('',(0.0239643970434557,-0.0351759401317911,-0.0370044711773674));
#871=CARTESIAN_POINT('',(0.0255393970434557,-0.0351759401317911,-0.0370044711773674));
#872=CARTESIAN_POINT('',(0.03825,-0.0504759401317911,-0.0394094711773674));
#873=CARTESIAN_POINT('',(0.03825,-0.0494759401317911,-0.0394094711773674));
#874=CARTESIAN_POINT('',(0.03825,-0.0494759401317911,-0.0301044711773674));
#875=CARTESIAN_POINT('',(0.03825,-0.0494759401317911,-0.0588944711773674));
#876=CARTESIAN_POINT('',(0.03825,-0.0351759401317911,-0.0588944711773674));
#877=CARTESIAN_POINT('',(0.03825,-0.0351759401317911,-0.0588944711773674));
#878=CARTESIAN_POINT('',(0.03825,-0.0351759401317912,-0.0394094711773674));
#879=CARTESIAN_POINT('',(0.03825,-0.0351759401317912,-0.0281044711773674));
#880=CARTESIAN_POINT('',(0.03825,-0.0504759401317911,-0.0281044711773674));
#881=CARTESIAN_POINT('',(0.03825,-0.0474759401317911,-0.0281044711773674));
#882=CARTESIAN_POINT('',(0.03825,-0.0546284401317911,-0.0352569711773674));
#883=CARTESIAN_POINT('',(0.0344643970434557,-0.0504759401317911,-0.0370044711773674));
#884=CARTESIAN_POINT('',(0.0344643970434557,-0.0504759401317911,-0.0370044711773674));
#885=CARTESIAN_POINT('',(0.0360393970434557,-0.0504759401317911,-0.0370044711773674));
#886=CARTESIAN_POINT('',(0.0344643970434557,-0.0351759401317912,-0.0370044711773674));
#887=CARTESIAN_POINT('',(0.0360393970434557,-0.0351759401317912,-0.0370044711773674));
#888=CARTESIAN_POINT('',(0.0386603012855736,-0.0504759401317911,-0.0481741298692874));
#889=CARTESIAN_POINT('',(0.03725,-0.0504759401317911,-0.0481741298692874));
#890=CARTESIAN_POINT('',(0.03725,-0.0504759401317911,-0.0527144711773674));
#891=CARTESIAN_POINT('',(0.03725,-0.0504759401317911,-0.0389100002819712));
#892=CARTESIAN_POINT('',(0.0344643970434557,-0.0504759401317911,-0.0370044711773674));
#893=CARTESIAN_POINT('',(0.03725,-0.0504759401317911,-0.0350989420727636));
#894=CARTESIAN_POINT('',(0.03725,-0.0504759401317911,-0.0481741298692874));
#895=CARTESIAN_POINT('',(0.03725,-0.0504759401317911,-0.0311044711773674));
#896=CARTESIAN_POINT('',(0.0386603012855736,-0.0504759401317911,-0.0311044711773674));
#897=CARTESIAN_POINT('',(0.02115,-0.0504759401317911,-0.0311044711773674));
#898=CARTESIAN_POINT('',(0.02115,-0.0504759401317911,-0.0481741298692874));
#899=CARTESIAN_POINT('',(0.02115,-0.0504759401317911,-0.0351417327948275));
#900=CARTESIAN_POINT('',(0.0239643970434557,-0.0504759401317911,-0.0370044711773674));
#901=CARTESIAN_POINT('',(0.02115,-0.0504759401317911,-0.0388672095599073));
#902=CARTESIAN_POINT('',(0.02115,-0.0504759401317911,-0.0481741298692874));
#903=CARTESIAN_POINT('',(0.02115,-0.0504759401317911,-0.0527144711773674));
#904=CARTESIAN_POINT('',(0.0386603012855736,-0.0504759401317911,-0.0527144711773674));
#905=CARTESIAN_POINT('',(0.0386603012855736,-0.0351759401317912,-0.0481741298692874));
#906=CARTESIAN_POINT('',(0.0292,-0.0351759401317911,-0.0318544711773674));
#907=CARTESIAN_POINT('',(0.0242,-0.0351759401317911,-0.0318544711773674));
#908=CARTESIAN_POINT('',(0.0342,-0.0351759401317912,-0.0318544711773674));
#909=CARTESIAN_POINT('',(0.0342,-0.0351759401317912,-0.0318544711773674));
#910=CARTESIAN_POINT('',(0.03625,-0.0351759401317911,-0.0261044711773674));
#911=CARTESIAN_POINT('',(0.0386603012855735,-0.0351759401317911,-0.0588944711773674));
#912=CARTESIAN_POINT('',(0.02015,-0.0351759401317911,-0.0281044711773674));
#913=CARTESIAN_POINT('',(0.0242,-0.0351759401317911,-0.0318544711773674));
#914=CARTESIAN_POINT('',(0.0386603012855736,-0.0534759401317911,-0.0481741298692874));
#915=CARTESIAN_POINT('',(0.02415,-0.0534759401317911,-0.0598944711773674));
#916=CARTESIAN_POINT('',(0.02415,-0.0534759401317911,-0.0557144711773674));
#917=CARTESIAN_POINT('',(0.02415,-0.0534759401317911,-0.0588944711773674));
#918=CARTESIAN_POINT('',(0.03425,-0.0534759401317911,-0.0588944711773674));
#919=CARTESIAN_POINT('',(0.03425,-0.0534759401317911,-0.0588944711773674));
#920=CARTESIAN_POINT('',(0.03425,-0.0534759401317911,-0.0481741298692874));
#921=CARTESIAN_POINT('',(0.03425,-0.0534759401317911,-0.0557144711773674));
#922=CARTESIAN_POINT('',(0.0386603012855735,-0.0534759401317911,-0.0557144711773674));
#923=CARTESIAN_POINT('',(0.03625,-0.0504759401317911,-0.0261044711773674));
#924=CARTESIAN_POINT('',(0.0379166666666666,-0.0471426067984578,-0.0277711378440341));
#925=CARTESIAN_POINT('',(0.02015,-0.0504759401317911,-0.0281044711773674));
#926=CARTESIAN_POINT('',(0.01915,-0.0484759401317911,-0.0291044711773674));
#927=CARTESIAN_POINT('',(0.0292,-0.0454759401317911,-0.0261044711773674));
#928=CARTESIAN_POINT('',(0.0379,-0.0498259401317911,-0.0304544711773674));
#929=CARTESIAN_POINT('',(0.0205,-0.0498259401317911,-0.0304544711773674));
#930=CARTESIAN_POINT('',(0.0292,-0.0504759401317911,-0.0527144711773674));
#931=CARTESIAN_POINT('',(0.0345666666666666,-0.0531592734651245,-0.0553978045107007));
#932=CARTESIAN_POINT('',(0.0238333333333332,-0.0531592734651245,-0.0553978045107007));
#933=CARTESIAN_POINT('',(0.03825,-0.0494759401317911,-0.0394094711773674));
#934=CARTESIAN_POINT('',(0.03825,-0.0494759401317911,-0.0588944711773674));
#935=CARTESIAN_POINT('',(0.0344643970434557,-0.0532615430883353,-0.0370044711773674));
#936=CARTESIAN_POINT('',(0.02415,-0.0534759401317911,-0.0481741298692874));
#937=CARTESIAN_POINT('',(0.02415,-0.0534759401317911,-0.0588944711773674));
#938=CARTESIAN_POINT('',(0.0239643970434557,-0.0532903371752469,-0.0370044711773674));
#939=CARTESIAN_POINT('',(0.0239643970434557,-0.0484759401317911,-0.0370044711773674));
#940=CARTESIAN_POINT('',(0.0344643970434557,-0.0484759401317911,-0.0370044711773674));
#941=CARTESIAN_POINT('',(0.0258821067811865,-0.0537938333506046,-0.0598944711773674));
#942=CARTESIAN_POINT('',(0.0224264959469745,-0.0485329846358669,-0.061170967124342));
#943=CARTESIAN_POINT('',(0.0252964382064884,-0.050708193465264,-0.0616622178438945));
#944=CARTESIAN_POINT('',(0.0386603012855735,-0.0534759401317911,-0.0588944711773674));
#945=CARTESIAN_POINT('',(0.0339830412315169,-0.052831444652325,-0.0595389666568335));
#946=CARTESIAN_POINT('',(0.02115,-0.0504759401317911,-0.0598944711773674));
#947=CARTESIAN_POINT('',(0.0259166666666666,-0.0409426067984578,-0.0646611378440341));
#948=CARTESIAN_POINT('',(0.0325178932188134,-0.0537938333506046,-0.0598944711773674));
#949=CARTESIAN_POINT('',(0.0359735040530254,-0.0485329846358669,-0.0611709671243419));
#950=CARTESIAN_POINT('',(0.0292,-0.0361759401317912,-0.0598944711773674));
#951=CARTESIAN_POINT('',(0.0345666666666666,-0.0388592734651244,-0.0625778045107007));
#952=CARTESIAN_POINT('',(0.03825,-0.0504759401317911,-0.0588944711773674));
#953=CARTESIAN_POINT('',(0.0342,-0.0374259401317912,-0.0318544711773674));
#954=CARTESIAN_POINT('',(0.0342,-0.0374259401317912,-0.0318544711773674));
#955=CARTESIAN_POINT('',(0.0342,-0.0396759401317912,-0.0318544711773674));
#956=CARTESIAN_POINT('',(0.0342,-0.0396759401317912,-0.0318544711773674));
#957=CARTESIAN_POINT('',(0.0242,-0.0374259401317912,-0.0318544711773674));
#958=CARTESIAN_POINT('',(0.0242,-0.0396759401317912,-0.0318544711773674));
#959=CARTESIAN_POINT('',(0.0242,-0.0396759401317912,-0.0318544711773674));
#960=CARTESIAN_POINT('',(0.0242,-0.0374259401317912,-0.0318544711773674));
#961=CARTESIAN_POINT('',(0.025825,-0.0396759401317912,-0.0318544711773674));
#962=CARTESIAN_POINT('',(0.02745,-0.0396759401317912,-0.0318544711773674));
#963=CARTESIAN_POINT('',(0.02745,-0.0396759401317912,-0.0318544711773674));
#964=CARTESIAN_POINT('',(0.025825,-0.0396759401317912,-0.0318544711773674));
#965=CARTESIAN_POINT('',(0.02745,-0.0404259401317912,-0.0318544711773674));
#966=CARTESIAN_POINT('',(0.02745,-0.0384259401317912,-0.0298544711773674));
#967=CARTESIAN_POINT('',(0.02745,-0.0411759401317912,-0.0271044711773674));
#968=CARTESIAN_POINT('',(0.02745,-0.0411759401317912,-0.0318544711773674));
#969=CARTESIAN_POINT('',(0.02745,-0.0411759401317912,-0.0318544711773674));
#970=CARTESIAN_POINT('',(0.02745,-0.0404259401317912,-0.0318544711773674));
#971=CARTESIAN_POINT('',(0.0292,-0.0411759401317912,-0.0318544711773674));
#972=CARTESIAN_POINT('',(0.0292,-0.0411759401317912,-0.0271044711773674));
#973=CARTESIAN_POINT('',(0.03095,-0.0411759401317912,-0.0271044711773674));
#974=CARTESIAN_POINT('',(0.03095,-0.0411759401317912,-0.0318544711773674));
#975=CARTESIAN_POINT('',(0.03095,-0.0411759401317912,-0.0318544711773674));
#976=CARTESIAN_POINT('',(0.0292,-0.0411759401317912,-0.0318544711773674));
#977=CARTESIAN_POINT('',(0.03095,-0.0404259401317912,-0.0318544711773674));
#978=CARTESIAN_POINT('',(0.03095,-0.0396759401317912,-0.0318544711773674));
#979=CARTESIAN_POINT('',(0.03095,-0.0396759401317912,-0.0318544711773674));
#980=CARTESIAN_POINT('',(0.03095,-0.0404259401317912,-0.0318544711773674));
#981=CARTESIAN_POINT('',(0.03095,-0.0421759401317912,-0.0261044711773674));
#982=CARTESIAN_POINT('',(0.032575,-0.0396759401317912,-0.0318544711773674));
#983=CARTESIAN_POINT('',(0.032575,-0.0396759401317912,-0.0318544711773674));
#984=CARTESIAN_POINT('',(0.0498402638245199,-0.00609570621739008,-0.0318544711773674));
#985=CARTESIAN_POINT('',(0.0292,-0.0421759401317912,-0.0261044711773674));
#986=MECHANICAL_DESIGN_GEOMETRIC_PRESENTATION_REPRESENTATION('',(#609),
#987);
#987=(
GEOMETRIC_REPRESENTATION_CONTEXT(3)
GLOBAL_UNCERTAINTY_ASSIGNED_CONTEXT((#988))
GLOBAL_UNIT_ASSIGNED_CONTEXT((#991,#990,#989))
REPRESENTATION_CONTEXT('BTT Eddy Coil','TOP_LEVEL_ASSEMBLY_PART')
);
#988=UNCERTAINTY_MEASURE_WITH_UNIT(LENGTH_MEASURE(1.E-8),#991,
'DISTANCE_ACCURACY_VALUE','Maximum Tolerance applied to model');
#989=(
NAMED_UNIT(*)
SI_UNIT($,.STERADIAN.)
SOLID_ANGLE_UNIT()
);
#990=(
NAMED_UNIT(*)
PLANE_ANGLE_UNIT()
SI_UNIT($,.RADIAN.)
);
#991=(
LENGTH_UNIT()
NAMED_UNIT(*)
SI_UNIT($,.METRE.)
);
#992=PRODUCT_DEFINITION_SHAPE('','',#993);
#993=PRODUCT_DEFINITION('','',#995,#994);
#994=PRODUCT_DEFINITION_CONTEXT('',#1001,'design');
#995=PRODUCT_DEFINITION_FORMATION_WITH_SPECIFIED_SOURCE('','',#997,
 .NOT_KNOWN.);
#996=PRODUCT_RELATED_PRODUCT_CATEGORY('','',(#997));
#997=PRODUCT('BTT Eddy Coil','BTT Eddy Coil','BTT Eddy Coil',(#999));
#998=PRODUCT_CATEGORY('','');
#999=PRODUCT_CONTEXT('',#1001,'mechanical');
#1000=APPLICATION_PROTOCOL_DEFINITION('international standard',
'ap242_managed_model_based_3d_engineering',2020,#1001);
#1001=APPLICATION_CONTEXT('managed model based 3d engineering');
ENDSEC;
END-ISO-10303-21;
