ISO-10303-21;
HEADER;
/* Generated by software containing ST-Developer
 * from STEP Tools, Inc. (www.steptools.com) 
 */
/* OPTION: using custom renumber hook */

FILE_DESCRIPTION(
/* description */ ('STEP AP242 Edition 2',
'CAx-IF Rec.Pracs.---Representation and Presentation of Product Manufa
cturing Information (PMI)---4.0---2014-10-13',
'CAx-IF Rec.Pracs.---3D Tessellated Geometry---0.4---2014-09-14','2;1',
'CAx-IF Rec.Pracs.---User Defined Attributes---1.5---2016-08-15'),
/* implementation_level */ '2;1');

FILE_NAME(
/* name */ 'toolhead v4 - Nema 17 Slim',
/* time_stamp */ '2026-08-19T20:10:41Z',
/* author */ (''),
/* organization */ (''),
/* preprocessor_version */ 'ST-DEVELOPER v20',
/* originating_system */ 'ONSHAPE BY PTC INC, 1.219',
/* authorisation */ '  ');

FILE_SCHEMA (('AP242_MANAGED_MODEL_BASED_3D_ENGINEERING_MIM_LF { 1 0 10303 442 3 1 4 }'));
ENDSEC;

DATA;
#10=SHAPE_REPRESENTATION_RELATIONSHIP('','',#507,#11);
#11=ADVANCED_BREP_SHAPE_REPRESENTATION('',(#505),#869);
#12=CYLINDRICAL_SURFACE('',#524,0.011);
#13=CYLINDRICAL_SURFACE('',#528,0.0025);
#14=CYLINDRICAL_SURFACE('',#531,0.00165);
#15=CYLINDRICAL_SURFACE('',#534,0.00165);
#16=CYLINDRICAL_SURFACE('',#537,0.00165);
#17=CYLINDRICAL_SURFACE('',#540,0.00165);
#18=CYLINDRICAL_SURFACE('',#547,0.003);
#19=CYLINDRICAL_SURFACE('',#551,0.003);
#20=CYLINDRICAL_SURFACE('',#555,0.003);
#21=CYLINDRICAL_SURFACE('',#559,0.003);
#22=CYLINDRICAL_SURFACE('',#563,0.00165);
#23=CYLINDRICAL_SURFACE('',#566,0.00165);
#24=CYLINDRICAL_SURFACE('',#569,0.00165);
#25=CYLINDRICAL_SURFACE('',#572,0.00165);
#26=CIRCLE('',#514,0.00165);
#27=CIRCLE('',#515,0.00165);
#28=CIRCLE('',#516,0.00165);
#29=CIRCLE('',#517,0.00165);
#30=CIRCLE('',#518,0.011);
#31=CIRCLE('',#520,0.003);
#32=CIRCLE('',#521,0.003);
#33=CIRCLE('',#522,0.003);
#34=CIRCLE('',#523,0.003);
#35=CIRCLE('',#525,0.011);
#36=CIRCLE('',#527,0.0025);
#37=CIRCLE('',#529,0.0025);
#38=CIRCLE('',#532,0.00165);
#39=CIRCLE('',#535,0.00165);
#40=CIRCLE('',#538,0.00165);
#41=CIRCLE('',#541,0.00165);
#42=CIRCLE('',#548,0.003);
#43=CIRCLE('',#550,0.00165);
#44=CIRCLE('',#552,0.003);
#45=CIRCLE('',#554,0.00165);
#46=CIRCLE('',#556,0.003);
#47=CIRCLE('',#558,0.00165);
#48=CIRCLE('',#560,0.003);
#49=CIRCLE('',#562,0.00165);
#50=CIRCLE('',#564,0.00165);
#51=CIRCLE('',#567,0.00165);
#52=CIRCLE('',#570,0.00165);
#53=CIRCLE('',#573,0.00165);
#54=ORIENTED_EDGE('',*,*,#158,.T.);
#55=ORIENTED_EDGE('',*,*,#159,.T.);
#56=ORIENTED_EDGE('',*,*,#160,.F.);
#57=ORIENTED_EDGE('',*,*,#161,.T.);
#58=ORIENTED_EDGE('',*,*,#162,.F.);
#59=ORIENTED_EDGE('',*,*,#163,.T.);
#60=ORIENTED_EDGE('',*,*,#164,.T.);
#61=ORIENTED_EDGE('',*,*,#165,.T.);
#62=ORIENTED_EDGE('',*,*,#166,.T.);
#63=ORIENTED_EDGE('',*,*,#167,.T.);
#64=ORIENTED_EDGE('',*,*,#168,.F.);
#65=ORIENTED_EDGE('',*,*,#169,.T.);
#66=ORIENTED_EDGE('',*,*,#170,.F.);
#67=ORIENTED_EDGE('',*,*,#171,.T.);
#68=ORIENTED_EDGE('',*,*,#172,.T.);
#69=ORIENTED_EDGE('',*,*,#173,.T.);
#70=ORIENTED_EDGE('',*,*,#174,.F.);
#71=ORIENTED_EDGE('',*,*,#175,.F.);
#72=ORIENTED_EDGE('',*,*,#176,.F.);
#73=ORIENTED_EDGE('',*,*,#177,.F.);
#74=ORIENTED_EDGE('',*,*,#178,.F.);
#75=ORIENTED_EDGE('',*,*,#172,.F.);
#76=ORIENTED_EDGE('',*,*,#179,.T.);
#77=ORIENTED_EDGE('',*,*,#158,.F.);
#78=ORIENTED_EDGE('',*,*,#180,.T.);
#79=ORIENTED_EDGE('',*,*,#162,.T.);
#80=ORIENTED_EDGE('',*,*,#181,.T.);
#81=ORIENTED_EDGE('',*,*,#168,.T.);
#82=ORIENTED_EDGE('',*,*,#182,.T.);
#83=ORIENTED_EDGE('',*,*,#183,.F.);
#84=ORIENTED_EDGE('',*,*,#184,.F.);
#85=ORIENTED_EDGE('',*,*,#185,.F.);
#86=ORIENTED_EDGE('',*,*,#186,.F.);
#87=ORIENTED_EDGE('',*,*,#160,.T.);
#88=ORIENTED_EDGE('',*,*,#187,.T.);
#89=ORIENTED_EDGE('',*,*,#170,.T.);
#90=ORIENTED_EDGE('',*,*,#188,.T.);
#91=ORIENTED_EDGE('',*,*,#166,.F.);
#92=ORIENTED_EDGE('',*,*,#189,.T.);
#93=ORIENTED_EDGE('',*,*,#164,.F.);
#94=ORIENTED_EDGE('',*,*,#190,.T.);
#95=ORIENTED_EDGE('',*,*,#191,.F.);
#96=ORIENTED_EDGE('',*,*,#178,.T.);
#97=ORIENTED_EDGE('',*,*,#192,.F.);
#98=ORIENTED_EDGE('',*,*,#191,.T.);
#99=ORIENTED_EDGE('',*,*,#193,.F.);
#100=ORIENTED_EDGE('',*,*,#192,.T.);
#101=ORIENTED_EDGE('',*,*,#193,.T.);
#102=ORIENTED_EDGE('',*,*,#194,.F.);
#103=ORIENTED_EDGE('',*,*,#177,.T.);
#104=ORIENTED_EDGE('',*,*,#194,.T.);
#105=ORIENTED_EDGE('',*,*,#195,.F.);
#106=ORIENTED_EDGE('',*,*,#176,.T.);
#107=ORIENTED_EDGE('',*,*,#195,.T.);
#108=ORIENTED_EDGE('',*,*,#196,.F.);
#109=ORIENTED_EDGE('',*,*,#175,.T.);
#110=ORIENTED_EDGE('',*,*,#196,.T.);
#111=ORIENTED_EDGE('',*,*,#197,.F.);
#112=ORIENTED_EDGE('',*,*,#174,.T.);
#113=ORIENTED_EDGE('',*,*,#197,.T.);
#114=ORIENTED_EDGE('',*,*,#179,.F.);
#115=ORIENTED_EDGE('',*,*,#171,.F.);
#116=ORIENTED_EDGE('',*,*,#187,.F.);
#117=ORIENTED_EDGE('',*,*,#159,.F.);
#118=ORIENTED_EDGE('',*,*,#182,.F.);
#119=ORIENTED_EDGE('',*,*,#167,.F.);
#120=ORIENTED_EDGE('',*,*,#188,.F.);
#121=ORIENTED_EDGE('',*,*,#173,.F.);
#122=ORIENTED_EDGE('',*,*,#180,.F.);
#123=ORIENTED_EDGE('',*,*,#161,.F.);
#124=ORIENTED_EDGE('',*,*,#190,.F.);
#125=ORIENTED_EDGE('',*,*,#163,.F.);
#126=ORIENTED_EDGE('',*,*,#181,.F.);
#127=ORIENTED_EDGE('',*,*,#165,.F.);
#128=ORIENTED_EDGE('',*,*,#189,.F.);
#129=ORIENTED_EDGE('',*,*,#169,.F.);
#130=ORIENTED_EDGE('',*,*,#198,.F.);
#131=ORIENTED_EDGE('',*,*,#186,.T.);
#132=ORIENTED_EDGE('',*,*,#199,.F.);
#133=ORIENTED_EDGE('',*,*,#198,.T.);
#134=ORIENTED_EDGE('',*,*,#200,.F.);
#135=ORIENTED_EDGE('',*,*,#185,.T.);
#136=ORIENTED_EDGE('',*,*,#201,.F.);
#137=ORIENTED_EDGE('',*,*,#200,.T.);
#138=ORIENTED_EDGE('',*,*,#202,.F.);
#139=ORIENTED_EDGE('',*,*,#184,.T.);
#140=ORIENTED_EDGE('',*,*,#203,.F.);
#141=ORIENTED_EDGE('',*,*,#202,.T.);
#142=ORIENTED_EDGE('',*,*,#204,.F.);
#143=ORIENTED_EDGE('',*,*,#183,.T.);
#144=ORIENTED_EDGE('',*,*,#205,.F.);
#145=ORIENTED_EDGE('',*,*,#204,.T.);
#146=ORIENTED_EDGE('',*,*,#205,.T.);
#147=ORIENTED_EDGE('',*,*,#206,.F.);
#148=ORIENTED_EDGE('',*,*,#206,.T.);
#149=ORIENTED_EDGE('',*,*,#203,.T.);
#150=ORIENTED_EDGE('',*,*,#207,.F.);
#151=ORIENTED_EDGE('',*,*,#207,.T.);
#152=ORIENTED_EDGE('',*,*,#201,.T.);
#153=ORIENTED_EDGE('',*,*,#208,.F.);
#154=ORIENTED_EDGE('',*,*,#208,.T.);
#155=ORIENTED_EDGE('',*,*,#199,.T.);
#156=ORIENTED_EDGE('',*,*,#209,.F.);
#157=ORIENTED_EDGE('',*,*,#209,.T.);
#158=EDGE_CURVE('',#210,#211,#254,.T.);
#159=EDGE_CURVE('',#211,#212,#255,.T.);
#160=EDGE_CURVE('',#213,#212,#256,.T.);
#161=EDGE_CURVE('',#213,#210,#257,.T.);
#162=EDGE_CURVE('',#214,#215,#258,.T.);
#163=EDGE_CURVE('',#214,#216,#259,.T.);
#164=EDGE_CURVE('',#216,#217,#260,.T.);
#165=EDGE_CURVE('',#217,#215,#261,.T.);
#166=EDGE_CURVE('',#218,#219,#262,.T.);
#167=EDGE_CURVE('',#219,#220,#263,.T.);
#168=EDGE_CURVE('',#221,#220,#264,.T.);
#169=EDGE_CURVE('',#221,#218,#265,.T.);
#170=EDGE_CURVE('',#222,#223,#266,.T.);
#171=EDGE_CURVE('',#222,#224,#267,.T.);
#172=EDGE_CURVE('',#224,#225,#268,.T.);
#173=EDGE_CURVE('',#225,#223,#269,.T.);
#174=EDGE_CURVE('',#226,#226,#26,.T.);
#175=EDGE_CURVE('',#227,#227,#27,.T.);
#176=EDGE_CURVE('',#228,#228,#28,.T.);
#177=EDGE_CURVE('',#229,#229,#29,.T.);
#178=EDGE_CURVE('',#230,#230,#30,.T.);
#179=EDGE_CURVE('',#224,#211,#270,.F.);
#180=EDGE_CURVE('',#210,#214,#271,.T.);
#181=EDGE_CURVE('',#215,#221,#272,.F.);
#182=EDGE_CURVE('',#220,#225,#273,.T.);
#183=EDGE_CURVE('',#231,#231,#31,.T.);
#184=EDGE_CURVE('',#232,#232,#32,.T.);
#185=EDGE_CURVE('',#233,#233,#33,.T.);
#186=EDGE_CURVE('',#234,#234,#34,.T.);
#187=EDGE_CURVE('',#212,#222,#274,.F.);
#188=EDGE_CURVE('',#223,#219,#275,.T.);
#189=EDGE_CURVE('',#218,#217,#276,.F.);
#190=EDGE_CURVE('',#216,#213,#277,.T.);
#191=EDGE_CURVE('',#235,#235,#35,.T.);
#192=EDGE_CURVE('',#236,#236,#36,.T.);
#193=EDGE_CURVE('',#237,#237,#37,.T.);
#194=EDGE_CURVE('',#238,#238,#38,.T.);
#195=EDGE_CURVE('',#239,#239,#39,.T.);
#196=EDGE_CURVE('',#240,#240,#40,.T.);
#197=EDGE_CURVE('',#241,#241,#41,.T.);
#198=EDGE_CURVE('',#242,#242,#42,.T.);
#199=EDGE_CURVE('',#243,#243,#43,.T.);
#200=EDGE_CURVE('',#244,#244,#44,.T.);
#201=EDGE_CURVE('',#245,#245,#45,.T.);
#202=EDGE_CURVE('',#246,#246,#46,.T.);
#203=EDGE_CURVE('',#247,#247,#47,.T.);
#204=EDGE_CURVE('',#248,#248,#48,.T.);
#205=EDGE_CURVE('',#249,#249,#49,.T.);
#206=EDGE_CURVE('',#250,#250,#50,.T.);
#207=EDGE_CURVE('',#251,#251,#51,.T.);
#208=EDGE_CURVE('',#252,#252,#52,.T.);
#209=EDGE_CURVE('',#253,#253,#53,.T.);
#210=VERTEX_POINT('',#736);
#211=VERTEX_POINT('',#737);
#212=VERTEX_POINT('',#739);
#213=VERTEX_POINT('',#741);
#214=VERTEX_POINT('',#745);
#215=VERTEX_POINT('',#746);
#216=VERTEX_POINT('',#748);
#217=VERTEX_POINT('',#750);
#218=VERTEX_POINT('',#754);
#219=VERTEX_POINT('',#755);
#220=VERTEX_POINT('',#757);
#221=VERTEX_POINT('',#759);
#222=VERTEX_POINT('',#763);
#223=VERTEX_POINT('',#764);
#224=VERTEX_POINT('',#766);
#225=VERTEX_POINT('',#768);
#226=VERTEX_POINT('',#772);
#227=VERTEX_POINT('',#774);
#228=VERTEX_POINT('',#776);
#229=VERTEX_POINT('',#778);
#230=VERTEX_POINT('',#780);
#231=VERTEX_POINT('',#787);
#232=VERTEX_POINT('',#789);
#233=VERTEX_POINT('',#791);
#234=VERTEX_POINT('',#793);
#235=VERTEX_POINT('',#800);
#236=VERTEX_POINT('',#803);
#237=VERTEX_POINT('',#806);
#238=VERTEX_POINT('',#810);
#239=VERTEX_POINT('',#814);
#240=VERTEX_POINT('',#818);
#241=VERTEX_POINT('',#822);
#242=VERTEX_POINT('',#830);
#243=VERTEX_POINT('',#833);
#244=VERTEX_POINT('',#836);
#245=VERTEX_POINT('',#839);
#246=VERTEX_POINT('',#842);
#247=VERTEX_POINT('',#845);
#248=VERTEX_POINT('',#848);
#249=VERTEX_POINT('',#851);
#250=VERTEX_POINT('',#854);
#251=VERTEX_POINT('',#858);
#252=VERTEX_POINT('',#862);
#253=VERTEX_POINT('',#866);
#254=LINE('',#735,#278);
#255=LINE('',#738,#279);
#256=LINE('',#740,#280);
#257=LINE('',#742,#281);
#258=LINE('',#744,#282);
#259=LINE('',#747,#283);
#260=LINE('',#749,#284);
#261=LINE('',#751,#285);
#262=LINE('',#753,#286);
#263=LINE('',#756,#287);
#264=LINE('',#758,#288);
#265=LINE('',#760,#289);
#266=LINE('',#762,#290);
#267=LINE('',#765,#291);
#268=LINE('',#767,#292);
#269=LINE('',#769,#293);
#270=LINE('',#781,#294);
#271=LINE('',#782,#295);
#272=LINE('',#783,#296);
#273=LINE('',#784,#297);
#274=LINE('',#794,#298);
#275=LINE('',#795,#299);
#276=LINE('',#796,#300);
#277=LINE('',#797,#301);
#278=VECTOR('',#579,1.);
#279=VECTOR('',#580,1.);
#280=VECTOR('',#581,1.);
#281=VECTOR('',#582,1.);
#282=VECTOR('',#585,1.);
#283=VECTOR('',#586,1.);
#284=VECTOR('',#587,1.);
#285=VECTOR('',#588,1.);
#286=VECTOR('',#591,1.);
#287=VECTOR('',#592,1.);
#288=VECTOR('',#593,1.);
#289=VECTOR('',#594,1.);
#290=VECTOR('',#597,1.);
#291=VECTOR('',#598,1.);
#292=VECTOR('',#599,1.);
#293=VECTOR('',#600,1.);
#294=VECTOR('',#613,1.);
#295=VECTOR('',#614,1.);
#296=VECTOR('',#615,1.);
#297=VECTOR('',#616,1.);
#298=VECTOR('',#627,1.);
#299=VECTOR('',#628,1.);
#300=VECTOR('',#629,1.);
#301=VECTOR('',#630,1.);
#302=EDGE_LOOP('',(#54,#55,#56,#57));
#303=EDGE_LOOP('',(#58,#59,#60,#61));
#304=EDGE_LOOP('',(#62,#63,#64,#65));
#305=EDGE_LOOP('',(#66,#67,#68,#69));
#306=EDGE_LOOP('',(#70));
#307=EDGE_LOOP('',(#71));
#308=EDGE_LOOP('',(#72));
#309=EDGE_LOOP('',(#73));
#310=EDGE_LOOP('',(#74));
#311=EDGE_LOOP('',(#75,#76,#77,#78,#79,#80,#81,#82));
#312=EDGE_LOOP('',(#83));
#313=EDGE_LOOP('',(#84));
#314=EDGE_LOOP('',(#85));
#315=EDGE_LOOP('',(#86));
#316=EDGE_LOOP('',(#87,#88,#89,#90,#91,#92,#93,#94));
#317=EDGE_LOOP('',(#95));
#318=EDGE_LOOP('',(#96));
#319=EDGE_LOOP('',(#97));
#320=EDGE_LOOP('',(#98));
#321=EDGE_LOOP('',(#99));
#322=EDGE_LOOP('',(#100));
#323=EDGE_LOOP('',(#101));
#324=EDGE_LOOP('',(#102));
#325=EDGE_LOOP('',(#103));
#326=EDGE_LOOP('',(#104));
#327=EDGE_LOOP('',(#105));
#328=EDGE_LOOP('',(#106));
#329=EDGE_LOOP('',(#107));
#330=EDGE_LOOP('',(#108));
#331=EDGE_LOOP('',(#109));
#332=EDGE_LOOP('',(#110));
#333=EDGE_LOOP('',(#111));
#334=EDGE_LOOP('',(#112));
#335=EDGE_LOOP('',(#113));
#336=EDGE_LOOP('',(#114,#115,#116,#117));
#337=EDGE_LOOP('',(#118,#119,#120,#121));
#338=EDGE_LOOP('',(#122,#123,#124,#125));
#339=EDGE_LOOP('',(#126,#127,#128,#129));
#340=EDGE_LOOP('',(#130));
#341=EDGE_LOOP('',(#131));
#342=EDGE_LOOP('',(#132));
#343=EDGE_LOOP('',(#133));
#344=EDGE_LOOP('',(#134));
#345=EDGE_LOOP('',(#135));
#346=EDGE_LOOP('',(#136));
#347=EDGE_LOOP('',(#137));
#348=EDGE_LOOP('',(#138));
#349=EDGE_LOOP('',(#139));
#350=EDGE_LOOP('',(#140));
#351=EDGE_LOOP('',(#141));
#352=EDGE_LOOP('',(#142));
#353=EDGE_LOOP('',(#143));
#354=EDGE_LOOP('',(#144));
#355=EDGE_LOOP('',(#145));
#356=EDGE_LOOP('',(#146));
#357=EDGE_LOOP('',(#147));
#358=EDGE_LOOP('',(#148));
#359=EDGE_LOOP('',(#149));
#360=EDGE_LOOP('',(#150));
#361=EDGE_LOOP('',(#151));
#362=EDGE_LOOP('',(#152));
#363=EDGE_LOOP('',(#153));
#364=EDGE_LOOP('',(#154));
#365=EDGE_LOOP('',(#155));
#366=EDGE_LOOP('',(#156));
#367=EDGE_LOOP('',(#157));
#368=FACE_BOUND('',#302,.T.);
#369=FACE_BOUND('',#303,.T.);
#370=FACE_BOUND('',#304,.T.);
#371=FACE_BOUND('',#305,.T.);
#372=FACE_BOUND('',#306,.T.);
#373=FACE_BOUND('',#307,.T.);
#374=FACE_BOUND('',#308,.T.);
#375=FACE_BOUND('',#309,.T.);
#376=FACE_BOUND('',#310,.T.);
#377=FACE_BOUND('',#311,.T.);
#378=FACE_BOUND('',#312,.T.);
#379=FACE_BOUND('',#313,.T.);
#380=FACE_BOUND('',#314,.T.);
#381=FACE_BOUND('',#315,.T.);
#382=FACE_BOUND('',#316,.T.);
#383=FACE_BOUND('',#317,.T.);
#384=FACE_BOUND('',#318,.T.);
#385=FACE_BOUND('',#319,.T.);
#386=FACE_BOUND('',#320,.T.);
#387=FACE_BOUND('',#321,.T.);
#388=FACE_BOUND('',#322,.T.);
#389=FACE_BOUND('',#323,.T.);
#390=FACE_BOUND('',#324,.T.);
#391=FACE_BOUND('',#325,.T.);
#392=FACE_BOUND('',#326,.T.);
#393=FACE_BOUND('',#327,.T.);
#394=FACE_BOUND('',#328,.T.);
#395=FACE_BOUND('',#329,.T.);
#396=FACE_BOUND('',#330,.T.);
#397=FACE_BOUND('',#331,.T.);
#398=FACE_BOUND('',#332,.T.);
#399=FACE_BOUND('',#333,.T.);
#400=FACE_BOUND('',#334,.T.);
#401=FACE_BOUND('',#335,.T.);
#402=FACE_BOUND('',#336,.T.);
#403=FACE_BOUND('',#337,.T.);
#404=FACE_BOUND('',#338,.T.);
#405=FACE_BOUND('',#339,.T.);
#406=FACE_BOUND('',#340,.T.);
#407=FACE_BOUND('',#341,.T.);
#408=FACE_BOUND('',#342,.T.);
#409=FACE_BOUND('',#343,.T.);
#410=FACE_BOUND('',#344,.T.);
#411=FACE_BOUND('',#345,.T.);
#412=FACE_BOUND('',#346,.T.);
#413=FACE_BOUND('',#347,.T.);
#414=FACE_BOUND('',#348,.T.);
#415=FACE_BOUND('',#349,.T.);
#416=FACE_BOUND('',#350,.T.);
#417=FACE_BOUND('',#351,.T.);
#418=FACE_BOUND('',#352,.T.);
#419=FACE_BOUND('',#353,.T.);
#420=FACE_BOUND('',#354,.T.);
#421=FACE_BOUND('',#355,.T.);
#422=FACE_BOUND('',#356,.T.);
#423=FACE_BOUND('',#357,.T.);
#424=FACE_BOUND('',#358,.T.);
#425=FACE_BOUND('',#359,.T.);
#426=FACE_BOUND('',#360,.T.);
#427=FACE_BOUND('',#361,.T.);
#428=FACE_BOUND('',#362,.T.);
#429=FACE_BOUND('',#363,.T.);
#430=FACE_BOUND('',#364,.T.);
#431=FACE_BOUND('',#365,.T.);
#432=FACE_BOUND('',#366,.T.);
#433=FACE_BOUND('',#367,.T.);
#434=PLANE('',#509);
#435=PLANE('',#510);
#436=PLANE('',#511);
#437=PLANE('',#512);
#438=PLANE('',#513);
#439=PLANE('',#519);
#440=PLANE('',#526);
#441=PLANE('',#530);
#442=PLANE('',#533);
#443=PLANE('',#536);
#444=PLANE('',#539);
#445=PLANE('',#542);
#446=PLANE('',#543);
#447=PLANE('',#544);
#448=PLANE('',#545);
#449=PLANE('',#546);
#450=PLANE('',#549);
#451=PLANE('',#553);
#452=PLANE('',#557);
#453=PLANE('',#561);
#454=PLANE('',#565);
#455=PLANE('',#568);
#456=PLANE('',#571);
#457=PLANE('',#574);
#458=ADVANCED_FACE('',(#368),#434,.T.);
#459=ADVANCED_FACE('',(#369),#435,.F.);
#460=ADVANCED_FACE('',(#370),#436,.F.);
#461=ADVANCED_FACE('',(#371),#437,.T.);
#462=ADVANCED_FACE('',(#372,#373,#374,#375,#376,#377),#438,.T.);
#463=ADVANCED_FACE('',(#378,#379,#380,#381,#382),#439,.F.);
#464=ADVANCED_FACE('',(#383,#384),#12,.T.);
#465=ADVANCED_FACE('',(#385,#386),#440,.T.);
#466=ADVANCED_FACE('',(#387,#388),#13,.T.);
#467=ADVANCED_FACE('',(#389),#441,.T.);
#468=ADVANCED_FACE('',(#390,#391),#14,.F.);
#469=ADVANCED_FACE('',(#392),#442,.T.);
#470=ADVANCED_FACE('',(#393,#394),#15,.F.);
#471=ADVANCED_FACE('',(#395),#443,.T.);
#472=ADVANCED_FACE('',(#396,#397),#16,.F.);
#473=ADVANCED_FACE('',(#398),#444,.T.);
#474=ADVANCED_FACE('',(#399,#400),#17,.F.);
#475=ADVANCED_FACE('',(#401),#445,.T.);
#476=ADVANCED_FACE('',(#402),#446,.F.);
#477=ADVANCED_FACE('',(#403),#447,.T.);
#478=ADVANCED_FACE('',(#404),#448,.T.);
#479=ADVANCED_FACE('',(#405),#449,.F.);
#480=ADVANCED_FACE('',(#406,#407),#18,.F.);
#481=ADVANCED_FACE('',(#408,#409),#450,.T.);
#482=ADVANCED_FACE('',(#410,#411),#19,.F.);
#483=ADVANCED_FACE('',(#412,#413),#451,.T.);
#484=ADVANCED_FACE('',(#414,#415),#20,.F.);
#485=ADVANCED_FACE('',(#416,#417),#452,.T.);
#486=ADVANCED_FACE('',(#418,#419),#21,.F.);
#487=ADVANCED_FACE('',(#420,#421),#453,.T.);
#488=ADVANCED_FACE('',(#422,#423),#22,.F.);
#489=ADVANCED_FACE('',(#424),#454,.F.);
#490=ADVANCED_FACE('',(#425,#426),#23,.F.);
#491=ADVANCED_FACE('',(#427),#455,.F.);
#492=ADVANCED_FACE('',(#428,#429),#24,.F.);
#493=ADVANCED_FACE('',(#430),#456,.F.);
#494=ADVANCED_FACE('',(#431,#432),#25,.F.);
#495=ADVANCED_FACE('',(#433),#457,.F.);
#496=CLOSED_SHELL('',(#458,#459,#460,#461,#462,#463,#464,#465,#466,#467,
#468,#469,#470,#471,#472,#473,#474,#475,#476,#477,#478,#479,#480,#481,#482,
#483,#484,#485,#486,#487,#488,#489,#490,#491,#492,#493,#494,#495));
#497=STYLED_ITEM('',(#498),#505);
#498=PRESENTATION_STYLE_ASSIGNMENT((#499));
#499=SURFACE_STYLE_USAGE(.BOTH.,#500);
#500=SURFACE_SIDE_STYLE('',(#501));
#501=SURFACE_STYLE_FILL_AREA(#502);
#502=FILL_AREA_STYLE('',(#503));
#503=FILL_AREA_STYLE_COLOUR('',#504);
#504=COLOUR_RGB('',0.498039215686275,0.498039215686275,0.498039215686275);
#505=MANIFOLD_SOLID_BREP('Nema 17 Slim',#496);
#506=SHAPE_DEFINITION_REPRESENTATION(#874,#507);
#507=SHAPE_REPRESENTATION('Nema 17 Slim',(#508),#869);
#508=AXIS2_PLACEMENT_3D('',#733,#575,#576);
#509=AXIS2_PLACEMENT_3D('',#734,#577,#578);
#510=AXIS2_PLACEMENT_3D('',#743,#583,#584);
#511=AXIS2_PLACEMENT_3D('',#752,#589,#590);
#512=AXIS2_PLACEMENT_3D('',#761,#595,#596);
#513=AXIS2_PLACEMENT_3D('',#770,#601,#602);
#514=AXIS2_PLACEMENT_3D('',#771,#603,#604);
#515=AXIS2_PLACEMENT_3D('',#773,#605,#606);
#516=AXIS2_PLACEMENT_3D('',#775,#607,#608);
#517=AXIS2_PLACEMENT_3D('',#777,#609,#610);
#518=AXIS2_PLACEMENT_3D('',#779,#611,#612);
#519=AXIS2_PLACEMENT_3D('',#785,#617,#618);
#520=AXIS2_PLACEMENT_3D('',#786,#619,#620);
#521=AXIS2_PLACEMENT_3D('',#788,#621,#622);
#522=AXIS2_PLACEMENT_3D('',#790,#623,#624);
#523=AXIS2_PLACEMENT_3D('',#792,#625,#626);
#524=AXIS2_PLACEMENT_3D('',#798,#631,#632);
#525=AXIS2_PLACEMENT_3D('',#799,#633,#634);
#526=AXIS2_PLACEMENT_3D('',#801,#635,#636);
#527=AXIS2_PLACEMENT_3D('',#802,#637,#638);
#528=AXIS2_PLACEMENT_3D('',#804,#639,#640);
#529=AXIS2_PLACEMENT_3D('',#805,#641,#642);
#530=AXIS2_PLACEMENT_3D('',#807,#643,#644);
#531=AXIS2_PLACEMENT_3D('',#808,#645,#646);
#532=AXIS2_PLACEMENT_3D('',#809,#647,#648);
#533=AXIS2_PLACEMENT_3D('',#811,#649,#650);
#534=AXIS2_PLACEMENT_3D('',#812,#651,#652);
#535=AXIS2_PLACEMENT_3D('',#813,#653,#654);
#536=AXIS2_PLACEMENT_3D('',#815,#655,#656);
#537=AXIS2_PLACEMENT_3D('',#816,#657,#658);
#538=AXIS2_PLACEMENT_3D('',#817,#659,#660);
#539=AXIS2_PLACEMENT_3D('',#819,#661,#662);
#540=AXIS2_PLACEMENT_3D('',#820,#663,#664);
#541=AXIS2_PLACEMENT_3D('',#821,#665,#666);
#542=AXIS2_PLACEMENT_3D('',#823,#667,#668);
#543=AXIS2_PLACEMENT_3D('',#824,#669,#670);
#544=AXIS2_PLACEMENT_3D('',#825,#671,#672);
#545=AXIS2_PLACEMENT_3D('',#826,#673,#674);
#546=AXIS2_PLACEMENT_3D('',#827,#675,#676);
#547=AXIS2_PLACEMENT_3D('',#828,#677,#678);
#548=AXIS2_PLACEMENT_3D('',#829,#679,#680);
#549=AXIS2_PLACEMENT_3D('',#831,#681,#682);
#550=AXIS2_PLACEMENT_3D('',#832,#683,#684);
#551=AXIS2_PLACEMENT_3D('',#834,#685,#686);
#552=AXIS2_PLACEMENT_3D('',#835,#687,#688);
#553=AXIS2_PLACEMENT_3D('',#837,#689,#690);
#554=AXIS2_PLACEMENT_3D('',#838,#691,#692);
#555=AXIS2_PLACEMENT_3D('',#840,#693,#694);
#556=AXIS2_PLACEMENT_3D('',#841,#695,#696);
#557=AXIS2_PLACEMENT_3D('',#843,#697,#698);
#558=AXIS2_PLACEMENT_3D('',#844,#699,#700);
#559=AXIS2_PLACEMENT_3D('',#846,#701,#702);
#560=AXIS2_PLACEMENT_3D('',#847,#703,#704);
#561=AXIS2_PLACEMENT_3D('',#849,#705,#706);
#562=AXIS2_PLACEMENT_3D('',#850,#707,#708);
#563=AXIS2_PLACEMENT_3D('',#852,#709,#710);
#564=AXIS2_PLACEMENT_3D('',#853,#711,#712);
#565=AXIS2_PLACEMENT_3D('',#855,#713,#714);
#566=AXIS2_PLACEMENT_3D('',#856,#715,#716);
#567=AXIS2_PLACEMENT_3D('',#857,#717,#718);
#568=AXIS2_PLACEMENT_3D('',#859,#719,#720);
#569=AXIS2_PLACEMENT_3D('',#860,#721,#722);
#570=AXIS2_PLACEMENT_3D('',#861,#723,#724);
#571=AXIS2_PLACEMENT_3D('',#863,#725,#726);
#572=AXIS2_PLACEMENT_3D('',#864,#727,#728);
#573=AXIS2_PLACEMENT_3D('',#865,#729,#730);
#574=AXIS2_PLACEMENT_3D('',#867,#731,#732);
#575=DIRECTION('',(0.,0.,1.));
#576=DIRECTION('',(1.,0.,0.));
#577=DIRECTION('',(1.,0.,0.));
#578=DIRECTION('',(0.,0.,-1.));
#579=DIRECTION('',(0.,0.,-1.));
#580=DIRECTION('',(0.,1.,0.));
#581=DIRECTION('',(0.,0.,-1.));
#582=DIRECTION('',(0.,-1.,0.));
#583=DIRECTION('',(0.,0.,-1.));
#584=DIRECTION('',(-1.,0.,0.));
#585=DIRECTION('',(-1.,0.,0.));
#586=DIRECTION('',(0.,1.,0.));
#587=DIRECTION('',(-1.,0.,0.));
#588=DIRECTION('',(0.,-1.,0.));
#589=DIRECTION('',(1.,0.,0.));
#590=DIRECTION('',(0.,0.,-1.));
#591=DIRECTION('',(0.,0.,-1.));
#592=DIRECTION('',(0.,-1.,0.));
#593=DIRECTION('',(0.,0.,-1.));
#594=DIRECTION('',(0.,1.,0.));
#595=DIRECTION('',(0.,0.,-1.));
#596=DIRECTION('',(-1.,0.,0.));
#597=DIRECTION('',(-1.,0.,0.));
#598=DIRECTION('',(0.,-1.,0.));
#599=DIRECTION('',(-1.,0.,0.));
#600=DIRECTION('',(0.,1.,0.));
#601=DIRECTION('',(0.,-1.,0.));
#602=DIRECTION('',(1.,0.,0.));
#603=DIRECTION('',(0.,-1.,0.));
#604=DIRECTION('',(0.,0.,-1.));
#605=DIRECTION('',(0.,-1.,0.));
#606=DIRECTION('',(0.,0.,-1.));
#607=DIRECTION('',(0.,-1.,0.));
#608=DIRECTION('',(0.,0.,-1.));
#609=DIRECTION('',(0.,-1.,0.));
#610=DIRECTION('',(0.,0.,-1.));
#611=DIRECTION('',(0.,-1.,0.));
#612=DIRECTION('',(0.,0.,-1.));
#613=DIRECTION('',(-0.707106781186548,0.,-0.707106781186548));
#614=DIRECTION('',(-0.707106781186548,0.,0.707106781186548));
#615=DIRECTION('',(0.707106781186548,0.,0.707106781186548));
#616=DIRECTION('',(0.707106781186548,0.,-0.707106781186548));
#617=DIRECTION('',(0.,-1.,0.));
#618=DIRECTION('',(1.,0.,0.));
#619=DIRECTION('',(0.,1.,0.));
#620=DIRECTION('',(0.,0.,1.));
#621=DIRECTION('',(0.,1.,0.));
#622=DIRECTION('',(0.,0.,1.));
#623=DIRECTION('',(0.,1.,0.));
#624=DIRECTION('',(0.,0.,1.));
#625=DIRECTION('',(0.,1.,0.));
#626=DIRECTION('',(0.,0.,1.));
#627=DIRECTION('',(0.707106781186548,0.,0.707106781186548));
#628=DIRECTION('',(-0.707106781186548,0.,0.707106781186548));
#629=DIRECTION('',(-0.707106781186548,0.,-0.707106781186548));
#630=DIRECTION('',(0.707106781186548,0.,-0.707106781186548));
#631=DIRECTION('',(0.,1.,0.));
#632=DIRECTION('',(0.,0.,1.));
#633=DIRECTION('',(0.,-1.,0.));
#634=DIRECTION('',(0.,0.,-1.));
#635=DIRECTION('',(0.,-1.,0.));
#636=DIRECTION('',(1.,0.,0.));
#637=DIRECTION('',(0.,-1.,0.));
#638=DIRECTION('',(0.,0.,-1.));
#639=DIRECTION('',(0.,1.,0.));
#640=DIRECTION('',(0.,0.,1.));
#641=DIRECTION('',(0.,-1.,0.));
#642=DIRECTION('',(0.,0.,-1.));
#643=DIRECTION('',(0.,-1.,0.));
#644=DIRECTION('',(1.,0.,0.));
#645=DIRECTION('',(0.,-1.,0.));
#646=DIRECTION('',(0.,0.,-1.));
#647=DIRECTION('',(0.,-1.,0.));
#648=DIRECTION('',(0.,0.,-1.));
#649=DIRECTION('',(0.,-1.,0.));
#650=DIRECTION('',(1.,0.,0.));
#651=DIRECTION('',(0.,-1.,0.));
#652=DIRECTION('',(0.,0.,-1.));
#653=DIRECTION('',(0.,-1.,0.));
#654=DIRECTION('',(0.,0.,-1.));
#655=DIRECTION('',(0.,-1.,0.));
#656=DIRECTION('',(1.,0.,0.));
#657=DIRECTION('',(0.,-1.,0.));
#658=DIRECTION('',(0.,0.,-1.));
#659=DIRECTION('',(0.,-1.,0.));
#660=DIRECTION('',(0.,0.,-1.));
#661=DIRECTION('',(0.,-1.,0.));
#662=DIRECTION('',(1.,0.,0.));
#663=DIRECTION('',(0.,-1.,0.));
#664=DIRECTION('',(0.,0.,-1.));
#665=DIRECTION('',(0.,-1.,0.));
#666=DIRECTION('',(0.,0.,-1.));
#667=DIRECTION('',(0.,-1.,0.));
#668=DIRECTION('',(1.,0.,0.));
#669=DIRECTION('',(-0.707106781186548,0.,0.707106781186548));
#670=DIRECTION('',(0.,1.,0.));
#671=DIRECTION('',(-0.707106781186548,0.,-0.707106781186548));
#672=DIRECTION('',(0.,-1.,0.));
#673=DIRECTION('',(0.707106781186548,0.,0.707106781186548));
#674=DIRECTION('',(0.,-1.,0.));
#675=DIRECTION('',(0.707106781186548,0.,-0.707106781186548));
#676=DIRECTION('',(0.,1.,0.));
#677=DIRECTION('',(0.,1.,0.));
#678=DIRECTION('',(0.,0.,1.));
#679=DIRECTION('',(0.,1.,0.));
#680=DIRECTION('',(0.,0.,1.));
#681=DIRECTION('',(0.,1.,0.));
#682=DIRECTION('',(-1.,0.,0.));
#683=DIRECTION('',(0.,1.,0.));
#684=DIRECTION('',(0.,0.,1.));
#685=DIRECTION('',(0.,1.,0.));
#686=DIRECTION('',(0.,0.,1.));
#687=DIRECTION('',(0.,1.,0.));
#688=DIRECTION('',(0.,0.,1.));
#689=DIRECTION('',(0.,1.,0.));
#690=DIRECTION('',(-1.,0.,0.));
#691=DIRECTION('',(0.,1.,0.));
#692=DIRECTION('',(0.,0.,1.));
#693=DIRECTION('',(0.,1.,0.));
#694=DIRECTION('',(0.,0.,1.));
#695=DIRECTION('',(0.,1.,0.));
#696=DIRECTION('',(0.,0.,1.));
#697=DIRECTION('',(0.,1.,0.));
#698=DIRECTION('',(-1.,0.,0.));
#699=DIRECTION('',(0.,1.,0.));
#700=DIRECTION('',(0.,0.,1.));
#701=DIRECTION('',(0.,1.,0.));
#702=DIRECTION('',(0.,0.,1.));
#703=DIRECTION('',(0.,1.,0.));
#704=DIRECTION('',(0.,0.,1.));
#705=DIRECTION('',(0.,1.,0.));
#706=DIRECTION('',(-1.,0.,0.));
#707=DIRECTION('',(0.,1.,0.));
#708=DIRECTION('',(0.,0.,1.));
#709=DIRECTION('',(0.,1.,0.));
#710=DIRECTION('',(0.,0.,1.));
#711=DIRECTION('',(0.,1.,0.));
#712=DIRECTION('',(0.,0.,1.));
#713=DIRECTION('',(0.,-1.,0.));
#714=DIRECTION('',(1.,0.,0.));
#715=DIRECTION('',(0.,1.,0.));
#716=DIRECTION('',(0.,0.,1.));
#717=DIRECTION('',(0.,1.,0.));
#718=DIRECTION('',(0.,0.,1.));
#719=DIRECTION('',(0.,-1.,0.));
#720=DIRECTION('',(1.,0.,0.));
#721=DIRECTION('',(0.,1.,0.));
#722=DIRECTION('',(0.,0.,1.));
#723=DIRECTION('',(0.,1.,0.));
#724=DIRECTION('',(0.,0.,1.));
#725=DIRECTION('',(0.,-1.,0.));
#726=DIRECTION('',(1.,0.,0.));
#727=DIRECTION('',(0.,1.,0.));
#728=DIRECTION('',(0.,0.,1.));
#729=DIRECTION('',(0.,1.,0.));
#730=DIRECTION('',(0.,0.,1.));
#731=DIRECTION('',(0.,-1.,0.));
#732=DIRECTION('',(1.,0.,0.));
#733=CARTESIAN_POINT('',(0.,0.,0.));
#734=CARTESIAN_POINT('',(0.0161666687946039,-0.01835,0.0321));
#735=CARTESIAN_POINT('',(0.0161666687946039,-0.01835,0.0321));
#736=CARTESIAN_POINT('',(0.0161666687946039,-0.01835,0.05025));
#737=CARTESIAN_POINT('',(0.0161666687946039,-0.01835,0.01395));
#738=CARTESIAN_POINT('',(0.0161666687946039,-0.01835,0.01395));
#739=CARTESIAN_POINT('',(0.0161666687946039,0.00665,0.01395));
#740=CARTESIAN_POINT('',(0.0161666687946039,0.00665,0.0321));
#741=CARTESIAN_POINT('',(0.0161666687946039,0.00665,0.05025));
#742=CARTESIAN_POINT('',(0.0161666687946039,-0.01835,0.05025));
#743=CARTESIAN_POINT('',(-0.00498333120539609,-0.01835,0.05325));
#744=CARTESIAN_POINT('',(-0.00498333120539609,-0.01835,0.05325));
#745=CARTESIAN_POINT('',(0.0131666687946039,-0.01835,0.05325));
#746=CARTESIAN_POINT('',(-0.0231333312053961,-0.01835,0.05325));
#747=CARTESIAN_POINT('',(0.0131666687946039,0.00665,0.05325));
#748=CARTESIAN_POINT('',(0.0131666687946039,0.00665,0.05325));
#749=CARTESIAN_POINT('',(-0.00498333120539609,0.00665,0.05325));
#750=CARTESIAN_POINT('',(-0.0231333312053961,0.00665,0.05325));
#751=CARTESIAN_POINT('',(-0.0231333312053961,-0.01835,0.05325));
#752=CARTESIAN_POINT('',(-0.0261333312053961,-0.01835,0.0321));
#753=CARTESIAN_POINT('',(-0.0261333312053961,0.00665,0.0321));
#754=CARTESIAN_POINT('',(-0.0261333312053961,0.00665,0.05025));
#755=CARTESIAN_POINT('',(-0.0261333312053961,0.00665,0.01395));
#756=CARTESIAN_POINT('',(-0.0261333312053961,-0.01835,0.01395));
#757=CARTESIAN_POINT('',(-0.0261333312053961,-0.01835,0.01395));
#758=CARTESIAN_POINT('',(-0.0261333312053961,-0.01835,0.0321));
#759=CARTESIAN_POINT('',(-0.0261333312053961,-0.01835,0.05025));
#760=CARTESIAN_POINT('',(-0.0261333312053961,-0.01835,0.05025));
#761=CARTESIAN_POINT('',(-0.00498333120539609,-0.01835,0.01095));
#762=CARTESIAN_POINT('',(-0.00498333120539609,0.00665,0.01095));
#763=CARTESIAN_POINT('',(0.0131666687946039,0.00665,0.01095));
#764=CARTESIAN_POINT('',(-0.0231333312053961,0.00665,0.01095));
#765=CARTESIAN_POINT('',(0.0131666687946039,-0.01835,0.01095));
#766=CARTESIAN_POINT('',(0.0131666687946039,-0.01835,0.01095));
#767=CARTESIAN_POINT('',(-0.00498333120539609,-0.01835,0.01095));
#768=CARTESIAN_POINT('',(-0.0231333312053961,-0.01835,0.01095));
#769=CARTESIAN_POINT('',(-0.0231333312053961,0.00665,0.01095));
#770=CARTESIAN_POINT('',(-0.00498333120539609,-0.01835,0.0321));
#771=CARTESIAN_POINT('',(0.0105166687946039,-0.01835,0.0476));
#772=CARTESIAN_POINT('',(0.0105166687946039,-0.01835,0.04595));
#773=CARTESIAN_POINT('',(0.0105166687946039,-0.01835,0.0166));
#774=CARTESIAN_POINT('',(0.0105166687946039,-0.01835,0.01495));
#775=CARTESIAN_POINT('',(-0.0204833312053961,-0.01835,0.0166));
#776=CARTESIAN_POINT('',(-0.0204833312053961,-0.01835,0.01495));
#777=CARTESIAN_POINT('',(-0.0204833312053961,-0.01835,0.0476));
#778=CARTESIAN_POINT('',(-0.0204833312053961,-0.01835,0.04595));
#779=CARTESIAN_POINT('',(-0.00498333120539609,-0.01835,0.0321));
#780=CARTESIAN_POINT('',(-0.00498333120539609,-0.01835,0.0211));
#781=CARTESIAN_POINT('',(0.0146666687946039,-0.01835,0.01245));
#782=CARTESIAN_POINT('',(0.0146666687946039,-0.01835,0.05175));
#783=CARTESIAN_POINT('',(-0.0246333312053961,-0.01835,0.05175));
#784=CARTESIAN_POINT('',(-0.0246333312053961,-0.01835,0.01245));
#785=CARTESIAN_POINT('',(-0.00498333120539609,0.00665,0.0321));
#786=CARTESIAN_POINT('',(-0.0204833312053961,0.00665,0.0476));
#787=CARTESIAN_POINT('',(-0.0204833312053961,0.00665,0.0506));
#788=CARTESIAN_POINT('',(0.0105166687946039,0.00665,0.0166));
#789=CARTESIAN_POINT('',(0.0105166687946039,0.00665,0.0196));
#790=CARTESIAN_POINT('',(-0.0204833312053961,0.00665,0.0166));
#791=CARTESIAN_POINT('',(-0.0204833312053961,0.00665,0.0196));
#792=CARTESIAN_POINT('',(0.0105166687946039,0.00665,0.0476));
#793=CARTESIAN_POINT('',(0.0105166687946039,0.00665,0.0506));
#794=CARTESIAN_POINT('',(0.0161666687946039,0.00665,0.01395));
#795=CARTESIAN_POINT('',(-0.0231333312053961,0.00665,0.01095));
#796=CARTESIAN_POINT('',(-0.0261333312053961,0.00665,0.05025));
#797=CARTESIAN_POINT('',(0.0131666687946039,0.00665,0.05325));
#798=CARTESIAN_POINT('',(-0.00498333120539609,-0.02035,0.0321));
#799=CARTESIAN_POINT('',(-0.00498333120539609,-0.02035,0.0321));
#800=CARTESIAN_POINT('',(-0.00498333120539609,-0.02035,0.0211));
#801=CARTESIAN_POINT('',(-0.00498333120539609,-0.02035,0.0321));
#802=CARTESIAN_POINT('',(-0.00498333120539609,-0.02035,0.0321));
#803=CARTESIAN_POINT('',(-0.00498333120539609,-0.02035,0.0296));
#804=CARTESIAN_POINT('',(-0.00498333120539609,-0.04235,0.0321));
#805=CARTESIAN_POINT('',(-0.00498333120539609,-0.04235,0.0321));
#806=CARTESIAN_POINT('',(-0.00498333120539609,-0.04235,0.0296));
#807=CARTESIAN_POINT('',(-0.00498333120539609,-0.04235,0.0321));
#808=CARTESIAN_POINT('',(-0.0204833312053961,-0.01385,0.0476));
#809=CARTESIAN_POINT('',(-0.0204833312053961,-0.01385,0.0476));
#810=CARTESIAN_POINT('',(-0.0204833312053961,-0.01385,0.04595));
#811=CARTESIAN_POINT('',(-0.00498333120539609,-0.01385,0.0321));
#812=CARTESIAN_POINT('',(-0.0204833312053961,-0.01385,0.0166));
#813=CARTESIAN_POINT('',(-0.0204833312053961,-0.01385,0.0166));
#814=CARTESIAN_POINT('',(-0.0204833312053961,-0.01385,0.01495));
#815=CARTESIAN_POINT('',(-0.00498333120539609,-0.01385,0.0321));
#816=CARTESIAN_POINT('',(0.0105166687946039,-0.01385,0.0166));
#817=CARTESIAN_POINT('',(0.0105166687946039,-0.01385,0.0166));
#818=CARTESIAN_POINT('',(0.0105166687946039,-0.01385,0.01495));
#819=CARTESIAN_POINT('',(-0.00498333120539609,-0.01385,0.0321));
#820=CARTESIAN_POINT('',(0.0105166687946039,-0.01385,0.0476));
#821=CARTESIAN_POINT('',(0.0105166687946039,-0.01385,0.0476));
#822=CARTESIAN_POINT('',(0.0105166687946039,-0.01385,0.04595));
#823=CARTESIAN_POINT('',(-0.00498333120539609,-0.01385,0.0321));
#824=CARTESIAN_POINT('',(0.0161666687946039,-0.01835,0.01395));
#825=CARTESIAN_POINT('',(-0.0231333312053961,-0.01835,0.01095));
#826=CARTESIAN_POINT('',(0.0131666687946039,-0.01835,0.05325));
#827=CARTESIAN_POINT('',(-0.0261333312053961,-0.01835,0.05025));
#828=CARTESIAN_POINT('',(0.0105166687946039,0.00465,0.0476));
#829=CARTESIAN_POINT('',(0.0105166687946039,0.00465,0.0476));
#830=CARTESIAN_POINT('',(0.0105166687946039,0.00465,0.0506));
#831=CARTESIAN_POINT('',(-0.00498333120539609,0.00465,0.0526));
#832=CARTESIAN_POINT('',(0.0105166687946039,0.00465,0.0476));
#833=CARTESIAN_POINT('',(0.0105166687946039,0.00465,0.04925));
#834=CARTESIAN_POINT('',(-0.0204833312053961,0.00465,0.0166));
#835=CARTESIAN_POINT('',(-0.0204833312053961,0.00465,0.0166));
#836=CARTESIAN_POINT('',(-0.0204833312053961,0.00465,0.0196));
#837=CARTESIAN_POINT('',(-0.00498333120539609,0.00465,0.0526));
#838=CARTESIAN_POINT('',(-0.0204833312053961,0.00465,0.0166));
#839=CARTESIAN_POINT('',(-0.0204833312053961,0.00465,0.01825));
#840=CARTESIAN_POINT('',(0.0105166687946039,0.00465,0.0166));
#841=CARTESIAN_POINT('',(0.0105166687946039,0.00465,0.0166));
#842=CARTESIAN_POINT('',(0.0105166687946039,0.00465,0.0196));
#843=CARTESIAN_POINT('',(-0.00498333120539609,0.00465,0.0526));
#844=CARTESIAN_POINT('',(0.0105166687946039,0.00465,0.0166));
#845=CARTESIAN_POINT('',(0.0105166687946039,0.00465,0.01825));
#846=CARTESIAN_POINT('',(-0.0204833312053961,0.00465,0.0476));
#847=CARTESIAN_POINT('',(-0.0204833312053961,0.00465,0.0476));
#848=CARTESIAN_POINT('',(-0.0204833312053961,0.00465,0.0506));
#849=CARTESIAN_POINT('',(-0.00498333120539609,0.00465,0.0526));
#850=CARTESIAN_POINT('',(-0.0204833312053961,0.00465,0.0476));
#851=CARTESIAN_POINT('',(-0.0204833312053961,0.00465,0.04925));
#852=CARTESIAN_POINT('',(-0.0204833312053961,-0.01335,0.0476));
#853=CARTESIAN_POINT('',(-0.0204833312053961,-0.01335,0.0476));
#854=CARTESIAN_POINT('',(-0.0204833312053961,-0.01335,0.04925));
#855=CARTESIAN_POINT('',(-0.00498333120539609,-0.01335,0.0321));
#856=CARTESIAN_POINT('',(0.0105166687946039,-0.01335,0.0166));
#857=CARTESIAN_POINT('',(0.0105166687946039,-0.01335,0.0166));
#858=CARTESIAN_POINT('',(0.0105166687946039,-0.01335,0.01825));
#859=CARTESIAN_POINT('',(-0.00498333120539609,-0.01335,0.0321));
#860=CARTESIAN_POINT('',(-0.0204833312053961,-0.01335,0.0166));
#861=CARTESIAN_POINT('',(-0.0204833312053961,-0.01335,0.0166));
#862=CARTESIAN_POINT('',(-0.0204833312053961,-0.01335,0.01825));
#863=CARTESIAN_POINT('',(-0.00498333120539609,-0.01335,0.0321));
#864=CARTESIAN_POINT('',(0.0105166687946039,-0.01335,0.0476));
#865=CARTESIAN_POINT('',(0.0105166687946039,-0.01335,0.0476));
#866=CARTESIAN_POINT('',(0.0105166687946039,-0.01335,0.04925));
#867=CARTESIAN_POINT('',(-0.00498333120539609,-0.01335,0.0321));
#868=MECHANICAL_DESIGN_GEOMETRIC_PRESENTATION_REPRESENTATION('',(#497),
#869);
#869=(
GEOMETRIC_REPRESENTATION_CONTEXT(3)
GLOBAL_UNCERTAINTY_ASSIGNED_CONTEXT((#870))
GLOBAL_UNIT_ASSIGNED_CONTEXT((#873,#872,#871))
REPRESENTATION_CONTEXT('Nema 17 Slim','TOP_LEVEL_ASSEMBLY_PART')
);
#870=UNCERTAINTY_MEASURE_WITH_UNIT(LENGTH_MEASURE(1.E-8),#873,
'DISTANCE_ACCURACY_VALUE','Maximum Tolerance applied to model');
#871=(
NAMED_UNIT(*)
SI_UNIT($,.STERADIAN.)
SOLID_ANGLE_UNIT()
);
#872=(
NAMED_UNIT(*)
PLANE_ANGLE_UNIT()
SI_UNIT($,.RADIAN.)
);
#873=(
LENGTH_UNIT()
NAMED_UNIT(*)
SI_UNIT($,.METRE.)
);
#874=PRODUCT_DEFINITION_SHAPE('','',#875);
#875=PRODUCT_DEFINITION('','',#877,#876);
#876=PRODUCT_DEFINITION_CONTEXT('',#883,'design');
#877=PRODUCT_DEFINITION_FORMATION_WITH_SPECIFIED_SOURCE('','',#879,
 .NOT_KNOWN.);
#878=PRODUCT_RELATED_PRODUCT_CATEGORY('','',(#879));
#879=PRODUCT('Nema 17 Slim','Nema 17 Slim','Nema 17 Slim',(#881));
#880=PRODUCT_CATEGORY('','');
#881=PRODUCT_CONTEXT('',#883,'mechanical');
#882=APPLICATION_PROTOCOL_DEFINITION('international standard',
'ap242_managed_model_based_3d_engineering',2020,#883);
#883=APPLICATION_CONTEXT('managed model based 3d engineering');
ENDSEC;
END-ISO-10303-21;
