ISO-10303-21;
HEADER;
/* Generated by software containing ST-Developer
 * from STEP Tools, Inc. (www.steptools.com) 
 */
/* OPTION: using custom renumber hook */

FILE_DESCRIPTION(
/* description */ ('STEP AP242 Edition 2',
'CAx-IF Rec.Pracs.---Representation and Presentation of Product Manufa
cturing Information (PMI)---4.0---2014-10-13',
'CAx-IF Rec.Pracs.---3D Tessellated Geometry---0.4---2014-09-14','2;1',
'CAx-IF Rec.Pracs.---User Defined Attributes---1.5---2016-08-15'),
/* implementation_level */ '2;1');

FILE_NAME(
/* name */ 'toolhead v4 - MGN12C Carriage v1 (2)',
/* time_stamp */ '2026-08-19T20:10:40Z',
/* author */ (''),
/* organization */ (''),
/* preprocessor_version */ 'ST-DEVELOPER v20',
/* originating_system */ 'ONSHAPE BY PTC INC, 1.219',
/* authorisation */ '  ');

FILE_SCHEMA (('AP242_MANAGED_MODEL_BASED_3D_ENGINEERING_MIM_LF { 1 0 10303 442 3 1 4 }'));
ENDSEC;

DATA;
#10=SHAPE_REPRESENTATION_RELATIONSHIP('','',#717,#11);
#11=ADVANCED_BREP_SHAPE_REPRESENTATION('',(#715),#1195);
#12=CYLINDRICAL_SURFACE('',#753,0.0001600000142);
#13=CYLINDRICAL_SURFACE('',#754,0.0011399998957);
#14=CYLINDRICAL_SURFACE('',#755,0.00016);
#15=CYLINDRICAL_SURFACE('',#757,0.000499999694000001);
#16=CYLINDRICAL_SURFACE('',#759,0.0001600002241);
#17=CYLINDRICAL_SURFACE('',#760,0.0011399998957);
#18=CYLINDRICAL_SURFACE('',#761,0.00016);
#19=CYLINDRICAL_SURFACE('',#767,0.0001600000142);
#20=CYLINDRICAL_SURFACE('',#768,0.0011399996828);
#21=CYLINDRICAL_SURFACE('',#769,0.00016);
#22=CYLINDRICAL_SURFACE('',#771,0.000499999694);
#23=CYLINDRICAL_SURFACE('',#773,0.000160000224100001);
#24=CYLINDRICAL_SURFACE('',#774,0.0011399996828);
#25=CYLINDRICAL_SURFACE('',#775,0.00016);
#26=CIRCLE('',#720,0.00016);
#27=CIRCLE('',#721,0.0011399996828);
#28=CIRCLE('',#722,0.000160000224100001);
#29=CIRCLE('',#723,0.000499999694);
#30=CIRCLE('',#724,0.00016);
#31=CIRCLE('',#725,0.0011399996828);
#32=CIRCLE('',#726,0.0001600000142);
#33=CIRCLE('',#727,0.00016);
#34=CIRCLE('',#728,0.0011399998957);
#35=CIRCLE('',#729,0.0001600002241);
#36=CIRCLE('',#730,0.000499999694000001);
#37=CIRCLE('',#731,0.00016);
#38=CIRCLE('',#732,0.0011399998957);
#39=CIRCLE('',#733,0.0001600000142);
#40=CIRCLE('',#735,0.0001600000142);
#41=CIRCLE('',#736,0.0011399998957);
#42=CIRCLE('',#737,0.00016);
#43=CIRCLE('',#738,0.000499999694000001);
#44=CIRCLE('',#739,0.0001600002241);
#45=CIRCLE('',#740,0.0011399998957);
#46=CIRCLE('',#741,0.00016);
#47=CIRCLE('',#742,0.0001600000142);
#48=CIRCLE('',#743,0.0011399996828);
#49=CIRCLE('',#744,0.00016);
#50=CIRCLE('',#745,0.000499999694);
#51=CIRCLE('',#746,0.000160000224100001);
#52=CIRCLE('',#747,0.0011399996828);
#53=CIRCLE('',#748,0.00016);
#54=ORIENTED_EDGE('',*,*,#258,.T.);
#55=ORIENTED_EDGE('',*,*,#259,.T.);
#56=ORIENTED_EDGE('',*,*,#260,.T.);
#57=ORIENTED_EDGE('',*,*,#261,.T.);
#58=ORIENTED_EDGE('',*,*,#262,.T.);
#59=ORIENTED_EDGE('',*,*,#263,.T.);
#60=ORIENTED_EDGE('',*,*,#264,.T.);
#61=ORIENTED_EDGE('',*,*,#265,.T.);
#62=ORIENTED_EDGE('',*,*,#266,.T.);
#63=ORIENTED_EDGE('',*,*,#267,.T.);
#64=ORIENTED_EDGE('',*,*,#268,.T.);
#65=ORIENTED_EDGE('',*,*,#269,.T.);
#66=ORIENTED_EDGE('',*,*,#270,.T.);
#67=ORIENTED_EDGE('',*,*,#271,.T.);
#68=ORIENTED_EDGE('',*,*,#272,.T.);
#69=ORIENTED_EDGE('',*,*,#273,.T.);
#70=ORIENTED_EDGE('',*,*,#274,.T.);
#71=ORIENTED_EDGE('',*,*,#275,.T.);
#72=ORIENTED_EDGE('',*,*,#276,.T.);
#73=ORIENTED_EDGE('',*,*,#277,.T.);
#74=ORIENTED_EDGE('',*,*,#278,.T.);
#75=ORIENTED_EDGE('',*,*,#279,.T.);
#76=ORIENTED_EDGE('',*,*,#280,.T.);
#77=ORIENTED_EDGE('',*,*,#281,.T.);
#78=ORIENTED_EDGE('',*,*,#282,.T.);
#79=ORIENTED_EDGE('',*,*,#283,.T.);
#80=ORIENTED_EDGE('',*,*,#284,.T.);
#81=ORIENTED_EDGE('',*,*,#285,.T.);
#82=ORIENTED_EDGE('',*,*,#286,.T.);
#83=ORIENTED_EDGE('',*,*,#287,.T.);
#84=ORIENTED_EDGE('',*,*,#288,.T.);
#85=ORIENTED_EDGE('',*,*,#289,.T.);
#86=ORIENTED_EDGE('',*,*,#290,.T.);
#87=ORIENTED_EDGE('',*,*,#291,.T.);
#88=ORIENTED_EDGE('',*,*,#292,.T.);
#89=ORIENTED_EDGE('',*,*,#293,.T.);
#90=ORIENTED_EDGE('',*,*,#294,.T.);
#91=ORIENTED_EDGE('',*,*,#295,.T.);
#92=ORIENTED_EDGE('',*,*,#296,.T.);
#93=ORIENTED_EDGE('',*,*,#297,.T.);
#94=ORIENTED_EDGE('',*,*,#298,.T.);
#95=ORIENTED_EDGE('',*,*,#299,.T.);
#96=ORIENTED_EDGE('',*,*,#300,.T.);
#97=ORIENTED_EDGE('',*,*,#301,.T.);
#98=ORIENTED_EDGE('',*,*,#302,.T.);
#99=ORIENTED_EDGE('',*,*,#303,.T.);
#100=ORIENTED_EDGE('',*,*,#304,.T.);
#101=ORIENTED_EDGE('',*,*,#305,.T.);
#102=ORIENTED_EDGE('',*,*,#306,.T.);
#103=ORIENTED_EDGE('',*,*,#307,.T.);
#104=ORIENTED_EDGE('',*,*,#308,.T.);
#105=ORIENTED_EDGE('',*,*,#309,.T.);
#106=ORIENTED_EDGE('',*,*,#310,.T.);
#107=ORIENTED_EDGE('',*,*,#311,.T.);
#108=ORIENTED_EDGE('',*,*,#312,.T.);
#109=ORIENTED_EDGE('',*,*,#313,.T.);
#110=ORIENTED_EDGE('',*,*,#314,.T.);
#111=ORIENTED_EDGE('',*,*,#315,.T.);
#112=ORIENTED_EDGE('',*,*,#316,.T.);
#113=ORIENTED_EDGE('',*,*,#317,.T.);
#114=ORIENTED_EDGE('',*,*,#318,.T.);
#115=ORIENTED_EDGE('',*,*,#319,.T.);
#116=ORIENTED_EDGE('',*,*,#320,.T.);
#117=ORIENTED_EDGE('',*,*,#321,.T.);
#118=ORIENTED_EDGE('',*,*,#322,.T.);
#119=ORIENTED_EDGE('',*,*,#323,.T.);
#120=ORIENTED_EDGE('',*,*,#324,.T.);
#121=ORIENTED_EDGE('',*,*,#325,.T.);
#122=ORIENTED_EDGE('',*,*,#258,.F.);
#123=ORIENTED_EDGE('',*,*,#326,.T.);
#124=ORIENTED_EDGE('',*,*,#292,.F.);
#125=ORIENTED_EDGE('',*,*,#327,.F.);
#126=ORIENTED_EDGE('',*,*,#291,.F.);
#127=ORIENTED_EDGE('',*,*,#328,.T.);
#128=ORIENTED_EDGE('',*,*,#293,.F.);
#129=ORIENTED_EDGE('',*,*,#326,.F.);
#130=ORIENTED_EDGE('',*,*,#290,.F.);
#131=ORIENTED_EDGE('',*,*,#329,.T.);
#132=ORIENTED_EDGE('',*,*,#294,.F.);
#133=ORIENTED_EDGE('',*,*,#328,.F.);
#134=ORIENTED_EDGE('',*,*,#289,.F.);
#135=ORIENTED_EDGE('',*,*,#330,.T.);
#136=ORIENTED_EDGE('',*,*,#295,.F.);
#137=ORIENTED_EDGE('',*,*,#329,.F.);
#138=ORIENTED_EDGE('',*,*,#288,.F.);
#139=ORIENTED_EDGE('',*,*,#331,.T.);
#140=ORIENTED_EDGE('',*,*,#296,.F.);
#141=ORIENTED_EDGE('',*,*,#330,.F.);
#142=ORIENTED_EDGE('',*,*,#287,.F.);
#143=ORIENTED_EDGE('',*,*,#332,.T.);
#144=ORIENTED_EDGE('',*,*,#297,.F.);
#145=ORIENTED_EDGE('',*,*,#331,.F.);
#146=ORIENTED_EDGE('',*,*,#286,.F.);
#147=ORIENTED_EDGE('',*,*,#333,.T.);
#148=ORIENTED_EDGE('',*,*,#298,.F.);
#149=ORIENTED_EDGE('',*,*,#332,.F.);
#150=ORIENTED_EDGE('',*,*,#285,.F.);
#151=ORIENTED_EDGE('',*,*,#334,.T.);
#152=ORIENTED_EDGE('',*,*,#299,.F.);
#153=ORIENTED_EDGE('',*,*,#333,.F.);
#154=ORIENTED_EDGE('',*,*,#284,.F.);
#155=ORIENTED_EDGE('',*,*,#335,.T.);
#156=ORIENTED_EDGE('',*,*,#300,.F.);
#157=ORIENTED_EDGE('',*,*,#334,.F.);
#158=ORIENTED_EDGE('',*,*,#283,.F.);
#159=ORIENTED_EDGE('',*,*,#336,.T.);
#160=ORIENTED_EDGE('',*,*,#301,.F.);
#161=ORIENTED_EDGE('',*,*,#335,.F.);
#162=ORIENTED_EDGE('',*,*,#282,.F.);
#163=ORIENTED_EDGE('',*,*,#337,.T.);
#164=ORIENTED_EDGE('',*,*,#302,.F.);
#165=ORIENTED_EDGE('',*,*,#336,.F.);
#166=ORIENTED_EDGE('',*,*,#281,.F.);
#167=ORIENTED_EDGE('',*,*,#338,.T.);
#168=ORIENTED_EDGE('',*,*,#303,.F.);
#169=ORIENTED_EDGE('',*,*,#337,.F.);
#170=ORIENTED_EDGE('',*,*,#280,.F.);
#171=ORIENTED_EDGE('',*,*,#339,.T.);
#172=ORIENTED_EDGE('',*,*,#304,.F.);
#173=ORIENTED_EDGE('',*,*,#338,.F.);
#174=ORIENTED_EDGE('',*,*,#279,.F.);
#175=ORIENTED_EDGE('',*,*,#340,.T.);
#176=ORIENTED_EDGE('',*,*,#305,.F.);
#177=ORIENTED_EDGE('',*,*,#339,.F.);
#178=ORIENTED_EDGE('',*,*,#278,.F.);
#179=ORIENTED_EDGE('',*,*,#341,.T.);
#180=ORIENTED_EDGE('',*,*,#306,.F.);
#181=ORIENTED_EDGE('',*,*,#340,.F.);
#182=ORIENTED_EDGE('',*,*,#277,.F.);
#183=ORIENTED_EDGE('',*,*,#342,.T.);
#184=ORIENTED_EDGE('',*,*,#307,.F.);
#185=ORIENTED_EDGE('',*,*,#341,.F.);
#186=ORIENTED_EDGE('',*,*,#276,.F.);
#187=ORIENTED_EDGE('',*,*,#343,.T.);
#188=ORIENTED_EDGE('',*,*,#308,.F.);
#189=ORIENTED_EDGE('',*,*,#342,.F.);
#190=ORIENTED_EDGE('',*,*,#275,.F.);
#191=ORIENTED_EDGE('',*,*,#344,.T.);
#192=ORIENTED_EDGE('',*,*,#309,.F.);
#193=ORIENTED_EDGE('',*,*,#343,.F.);
#194=ORIENTED_EDGE('',*,*,#274,.F.);
#195=ORIENTED_EDGE('',*,*,#345,.T.);
#196=ORIENTED_EDGE('',*,*,#310,.F.);
#197=ORIENTED_EDGE('',*,*,#344,.F.);
#198=ORIENTED_EDGE('',*,*,#273,.F.);
#199=ORIENTED_EDGE('',*,*,#346,.T.);
#200=ORIENTED_EDGE('',*,*,#311,.F.);
#201=ORIENTED_EDGE('',*,*,#345,.F.);
#202=ORIENTED_EDGE('',*,*,#272,.F.);
#203=ORIENTED_EDGE('',*,*,#347,.T.);
#204=ORIENTED_EDGE('',*,*,#312,.F.);
#205=ORIENTED_EDGE('',*,*,#346,.F.);
#206=ORIENTED_EDGE('',*,*,#271,.F.);
#207=ORIENTED_EDGE('',*,*,#348,.T.);
#208=ORIENTED_EDGE('',*,*,#313,.F.);
#209=ORIENTED_EDGE('',*,*,#347,.F.);
#210=ORIENTED_EDGE('',*,*,#270,.F.);
#211=ORIENTED_EDGE('',*,*,#349,.T.);
#212=ORIENTED_EDGE('',*,*,#314,.F.);
#213=ORIENTED_EDGE('',*,*,#348,.F.);
#214=ORIENTED_EDGE('',*,*,#269,.F.);
#215=ORIENTED_EDGE('',*,*,#350,.T.);
#216=ORIENTED_EDGE('',*,*,#315,.F.);
#217=ORIENTED_EDGE('',*,*,#349,.F.);
#218=ORIENTED_EDGE('',*,*,#268,.F.);
#219=ORIENTED_EDGE('',*,*,#351,.T.);
#220=ORIENTED_EDGE('',*,*,#316,.F.);
#221=ORIENTED_EDGE('',*,*,#350,.F.);
#222=ORIENTED_EDGE('',*,*,#267,.F.);
#223=ORIENTED_EDGE('',*,*,#352,.T.);
#224=ORIENTED_EDGE('',*,*,#317,.F.);
#225=ORIENTED_EDGE('',*,*,#351,.F.);
#226=ORIENTED_EDGE('',*,*,#266,.F.);
#227=ORIENTED_EDGE('',*,*,#353,.T.);
#228=ORIENTED_EDGE('',*,*,#318,.F.);
#229=ORIENTED_EDGE('',*,*,#352,.F.);
#230=ORIENTED_EDGE('',*,*,#265,.F.);
#231=ORIENTED_EDGE('',*,*,#354,.T.);
#232=ORIENTED_EDGE('',*,*,#319,.F.);
#233=ORIENTED_EDGE('',*,*,#353,.F.);
#234=ORIENTED_EDGE('',*,*,#264,.F.);
#235=ORIENTED_EDGE('',*,*,#355,.T.);
#236=ORIENTED_EDGE('',*,*,#320,.F.);
#237=ORIENTED_EDGE('',*,*,#354,.F.);
#238=ORIENTED_EDGE('',*,*,#263,.F.);
#239=ORIENTED_EDGE('',*,*,#356,.T.);
#240=ORIENTED_EDGE('',*,*,#321,.F.);
#241=ORIENTED_EDGE('',*,*,#355,.F.);
#242=ORIENTED_EDGE('',*,*,#262,.F.);
#243=ORIENTED_EDGE('',*,*,#357,.T.);
#244=ORIENTED_EDGE('',*,*,#322,.F.);
#245=ORIENTED_EDGE('',*,*,#356,.F.);
#246=ORIENTED_EDGE('',*,*,#261,.F.);
#247=ORIENTED_EDGE('',*,*,#358,.T.);
#248=ORIENTED_EDGE('',*,*,#323,.F.);
#249=ORIENTED_EDGE('',*,*,#357,.F.);
#250=ORIENTED_EDGE('',*,*,#260,.F.);
#251=ORIENTED_EDGE('',*,*,#359,.T.);
#252=ORIENTED_EDGE('',*,*,#324,.F.);
#253=ORIENTED_EDGE('',*,*,#358,.F.);
#254=ORIENTED_EDGE('',*,*,#259,.F.);
#255=ORIENTED_EDGE('',*,*,#327,.T.);
#256=ORIENTED_EDGE('',*,*,#325,.F.);
#257=ORIENTED_EDGE('',*,*,#359,.F.);
#258=EDGE_CURVE('',#360,#361,#428,.T.);
#259=EDGE_CURVE('',#361,#362,#429,.T.);
#260=EDGE_CURVE('',#362,#363,#430,.T.);
#261=EDGE_CURVE('',#363,#364,#431,.T.);
#262=EDGE_CURVE('',#364,#365,#432,.T.);
#263=EDGE_CURVE('',#365,#366,#433,.T.);
#264=EDGE_CURVE('',#366,#367,#434,.T.);
#265=EDGE_CURVE('',#367,#368,#435,.T.);
#266=EDGE_CURVE('',#368,#369,#26,.T.);
#267=EDGE_CURVE('',#369,#370,#27,.T.);
#268=EDGE_CURVE('',#370,#371,#28,.T.);
#269=EDGE_CURVE('',#371,#372,#436,.T.);
#270=EDGE_CURVE('',#372,#373,#29,.T.);
#271=EDGE_CURVE('',#373,#374,#437,.T.);
#272=EDGE_CURVE('',#374,#375,#30,.T.);
#273=EDGE_CURVE('',#375,#376,#31,.T.);
#274=EDGE_CURVE('',#376,#377,#32,.T.);
#275=EDGE_CURVE('',#377,#378,#438,.T.);
#276=EDGE_CURVE('',#378,#379,#439,.T.);
#277=EDGE_CURVE('',#379,#380,#440,.T.);
#278=EDGE_CURVE('',#380,#381,#441,.T.);
#279=EDGE_CURVE('',#381,#382,#442,.T.);
#280=EDGE_CURVE('',#382,#383,#33,.T.);
#281=EDGE_CURVE('',#383,#384,#34,.T.);
#282=EDGE_CURVE('',#384,#385,#35,.T.);
#283=EDGE_CURVE('',#385,#386,#443,.T.);
#284=EDGE_CURVE('',#386,#387,#36,.T.);
#285=EDGE_CURVE('',#387,#388,#444,.T.);
#286=EDGE_CURVE('',#388,#389,#37,.T.);
#287=EDGE_CURVE('',#389,#390,#38,.T.);
#288=EDGE_CURVE('',#390,#391,#39,.T.);
#289=EDGE_CURVE('',#391,#392,#445,.T.);
#290=EDGE_CURVE('',#392,#393,#446,.T.);
#291=EDGE_CURVE('',#393,#360,#447,.T.);
#292=EDGE_CURVE('',#394,#395,#448,.T.);
#293=EDGE_CURVE('',#395,#396,#449,.T.);
#294=EDGE_CURVE('',#396,#397,#450,.T.);
#295=EDGE_CURVE('',#397,#398,#451,.T.);
#296=EDGE_CURVE('',#398,#399,#40,.T.);
#297=EDGE_CURVE('',#399,#400,#41,.T.);
#298=EDGE_CURVE('',#400,#401,#42,.T.);
#299=EDGE_CURVE('',#401,#402,#452,.T.);
#300=EDGE_CURVE('',#402,#403,#43,.T.);
#301=EDGE_CURVE('',#403,#404,#453,.T.);
#302=EDGE_CURVE('',#404,#405,#44,.T.);
#303=EDGE_CURVE('',#405,#406,#45,.T.);
#304=EDGE_CURVE('',#406,#407,#46,.T.);
#305=EDGE_CURVE('',#407,#408,#454,.T.);
#306=EDGE_CURVE('',#408,#409,#455,.T.);
#307=EDGE_CURVE('',#409,#410,#456,.T.);
#308=EDGE_CURVE('',#410,#411,#457,.T.);
#309=EDGE_CURVE('',#411,#412,#458,.T.);
#310=EDGE_CURVE('',#412,#413,#47,.T.);
#311=EDGE_CURVE('',#413,#414,#48,.T.);
#312=EDGE_CURVE('',#414,#415,#49,.T.);
#313=EDGE_CURVE('',#415,#416,#459,.T.);
#314=EDGE_CURVE('',#416,#417,#50,.T.);
#315=EDGE_CURVE('',#417,#418,#460,.T.);
#316=EDGE_CURVE('',#418,#419,#51,.T.);
#317=EDGE_CURVE('',#419,#420,#52,.T.);
#318=EDGE_CURVE('',#420,#421,#53,.T.);
#319=EDGE_CURVE('',#421,#422,#461,.T.);
#320=EDGE_CURVE('',#422,#423,#462,.T.);
#321=EDGE_CURVE('',#423,#424,#463,.T.);
#322=EDGE_CURVE('',#424,#425,#464,.T.);
#323=EDGE_CURVE('',#425,#426,#465,.T.);
#324=EDGE_CURVE('',#426,#427,#466,.T.);
#325=EDGE_CURVE('',#427,#394,#467,.T.);
#326=EDGE_CURVE('',#360,#395,#468,.T.);
#327=EDGE_CURVE('',#361,#394,#469,.T.);
#328=EDGE_CURVE('',#393,#396,#470,.T.);
#329=EDGE_CURVE('',#392,#397,#471,.T.);
#330=EDGE_CURVE('',#391,#398,#472,.T.);
#331=EDGE_CURVE('',#390,#399,#473,.T.);
#332=EDGE_CURVE('',#389,#400,#474,.T.);
#333=EDGE_CURVE('',#388,#401,#475,.T.);
#334=EDGE_CURVE('',#387,#402,#476,.T.);
#335=EDGE_CURVE('',#386,#403,#477,.T.);
#336=EDGE_CURVE('',#385,#404,#478,.T.);
#337=EDGE_CURVE('',#384,#405,#479,.T.);
#338=EDGE_CURVE('',#383,#406,#480,.T.);
#339=EDGE_CURVE('',#382,#407,#481,.T.);
#340=EDGE_CURVE('',#381,#408,#482,.T.);
#341=EDGE_CURVE('',#380,#409,#483,.T.);
#342=EDGE_CURVE('',#379,#410,#484,.T.);
#343=EDGE_CURVE('',#378,#411,#485,.T.);
#344=EDGE_CURVE('',#377,#412,#486,.T.);
#345=EDGE_CURVE('',#376,#413,#487,.T.);
#346=EDGE_CURVE('',#375,#414,#488,.T.);
#347=EDGE_CURVE('',#374,#415,#489,.T.);
#348=EDGE_CURVE('',#373,#416,#490,.T.);
#349=EDGE_CURVE('',#372,#417,#491,.T.);
#350=EDGE_CURVE('',#371,#418,#492,.T.);
#351=EDGE_CURVE('',#370,#419,#493,.T.);
#352=EDGE_CURVE('',#369,#420,#494,.T.);
#353=EDGE_CURVE('',#368,#421,#495,.T.);
#354=EDGE_CURVE('',#367,#422,#496,.T.);
#355=EDGE_CURVE('',#366,#423,#497,.T.);
#356=EDGE_CURVE('',#365,#424,#498,.T.);
#357=EDGE_CURVE('',#364,#425,#499,.T.);
#358=EDGE_CURVE('',#363,#426,#500,.T.);
#359=EDGE_CURVE('',#362,#427,#501,.T.);
#360=VERTEX_POINT('',#990);
#361=VERTEX_POINT('',#991);
#362=VERTEX_POINT('',#993);
#363=VERTEX_POINT('',#995);
#364=VERTEX_POINT('',#997);
#365=VERTEX_POINT('',#999);
#366=VERTEX_POINT('',#1001);
#367=VERTEX_POINT('',#1003);
#368=VERTEX_POINT('',#1005);
#369=VERTEX_POINT('',#1007);
#370=VERTEX_POINT('',#1009);
#371=VERTEX_POINT('',#1011);
#372=VERTEX_POINT('',#1013);
#373=VERTEX_POINT('',#1015);
#374=VERTEX_POINT('',#1017);
#375=VERTEX_POINT('',#1019);
#376=VERTEX_POINT('',#1021);
#377=VERTEX_POINT('',#1023);
#378=VERTEX_POINT('',#1025);
#379=VERTEX_POINT('',#1027);
#380=VERTEX_POINT('',#1029);
#381=VERTEX_POINT('',#1031);
#382=VERTEX_POINT('',#1033);
#383=VERTEX_POINT('',#1035);
#384=VERTEX_POINT('',#1037);
#385=VERTEX_POINT('',#1039);
#386=VERTEX_POINT('',#1041);
#387=VERTEX_POINT('',#1043);
#388=VERTEX_POINT('',#1045);
#389=VERTEX_POINT('',#1047);
#390=VERTEX_POINT('',#1049);
#391=VERTEX_POINT('',#1051);
#392=VERTEX_POINT('',#1053);
#393=VERTEX_POINT('',#1055);
#394=VERTEX_POINT('',#1059);
#395=VERTEX_POINT('',#1060);
#396=VERTEX_POINT('',#1062);
#397=VERTEX_POINT('',#1064);
#398=VERTEX_POINT('',#1066);
#399=VERTEX_POINT('',#1068);
#400=VERTEX_POINT('',#1070);
#401=VERTEX_POINT('',#1072);
#402=VERTEX_POINT('',#1074);
#403=VERTEX_POINT('',#1076);
#404=VERTEX_POINT('',#1078);
#405=VERTEX_POINT('',#1080);
#406=VERTEX_POINT('',#1082);
#407=VERTEX_POINT('',#1084);
#408=VERTEX_POINT('',#1086);
#409=VERTEX_POINT('',#1088);
#410=VERTEX_POINT('',#1090);
#411=VERTEX_POINT('',#1092);
#412=VERTEX_POINT('',#1094);
#413=VERTEX_POINT('',#1096);
#414=VERTEX_POINT('',#1098);
#415=VERTEX_POINT('',#1100);
#416=VERTEX_POINT('',#1102);
#417=VERTEX_POINT('',#1104);
#418=VERTEX_POINT('',#1106);
#419=VERTEX_POINT('',#1108);
#420=VERTEX_POINT('',#1110);
#421=VERTEX_POINT('',#1112);
#422=VERTEX_POINT('',#1114);
#423=VERTEX_POINT('',#1116);
#424=VERTEX_POINT('',#1118);
#425=VERTEX_POINT('',#1120);
#426=VERTEX_POINT('',#1122);
#427=VERTEX_POINT('',#1124);
#428=LINE('',#989,#502);
#429=LINE('',#992,#503);
#430=LINE('',#994,#504);
#431=LINE('',#996,#505);
#432=LINE('',#998,#506);
#433=LINE('',#1000,#507);
#434=LINE('',#1002,#508);
#435=LINE('',#1004,#509);
#436=LINE('',#1012,#510);
#437=LINE('',#1016,#511);
#438=LINE('',#1024,#512);
#439=LINE('',#1026,#513);
#440=LINE('',#1028,#514);
#441=LINE('',#1030,#515);
#442=LINE('',#1032,#516);
#443=LINE('',#1040,#517);
#444=LINE('',#1044,#518);
#445=LINE('',#1052,#519);
#446=LINE('',#1054,#520);
#447=LINE('',#1056,#521);
#448=LINE('',#1058,#522);
#449=LINE('',#1061,#523);
#450=LINE('',#1063,#524);
#451=LINE('',#1065,#525);
#452=LINE('',#1073,#526);
#453=LINE('',#1077,#527);
#454=LINE('',#1085,#528);
#455=LINE('',#1087,#529);
#456=LINE('',#1089,#530);
#457=LINE('',#1091,#531);
#458=LINE('',#1093,#532);
#459=LINE('',#1101,#533);
#460=LINE('',#1105,#534);
#461=LINE('',#1113,#535);
#462=LINE('',#1115,#536);
#463=LINE('',#1117,#537);
#464=LINE('',#1119,#538);
#465=LINE('',#1121,#539);
#466=LINE('',#1123,#540);
#467=LINE('',#1125,#541);
#468=LINE('',#1127,#542);
#469=LINE('',#1128,#543);
#470=LINE('',#1130,#544);
#471=LINE('',#1132,#545);
#472=LINE('',#1134,#546);
#473=LINE('',#1136,#547);
#474=LINE('',#1138,#548);
#475=LINE('',#1140,#549);
#476=LINE('',#1142,#550);
#477=LINE('',#1144,#551);
#478=LINE('',#1146,#552);
#479=LINE('',#1148,#553);
#480=LINE('',#1150,#554);
#481=LINE('',#1152,#555);
#482=LINE('',#1154,#556);
#483=LINE('',#1156,#557);
#484=LINE('',#1158,#558);
#485=LINE('',#1160,#559);
#486=LINE('',#1162,#560);
#487=LINE('',#1164,#561);
#488=LINE('',#1166,#562);
#489=LINE('',#1168,#563);
#490=LINE('',#1170,#564);
#491=LINE('',#1172,#565);
#492=LINE('',#1174,#566);
#493=LINE('',#1176,#567);
#494=LINE('',#1178,#568);
#495=LINE('',#1180,#569);
#496=LINE('',#1182,#570);
#497=LINE('',#1184,#571);
#498=LINE('',#1186,#572);
#499=LINE('',#1188,#573);
#500=LINE('',#1190,#574);
#501=LINE('',#1192,#575);
#502=VECTOR('',#787,1.);
#503=VECTOR('',#788,1.);
#504=VECTOR('',#789,1.);
#505=VECTOR('',#790,1.);
#506=VECTOR('',#791,1.);
#507=VECTOR('',#792,1.);
#508=VECTOR('',#793,1.);
#509=VECTOR('',#794,1.);
#510=VECTOR('',#801,1.);
#511=VECTOR('',#804,1.);
#512=VECTOR('',#811,1.);
#513=VECTOR('',#812,1.);
#514=VECTOR('',#813,1.);
#515=VECTOR('',#814,1.);
#516=VECTOR('',#815,1.);
#517=VECTOR('',#822,1.);
#518=VECTOR('',#825,1.);
#519=VECTOR('',#832,1.);
#520=VECTOR('',#833,1.);
#521=VECTOR('',#834,1.);
#522=VECTOR('',#837,1.);
#523=VECTOR('',#838,1.);
#524=VECTOR('',#839,1.);
#525=VECTOR('',#840,1.);
#526=VECTOR('',#847,1.);
#527=VECTOR('',#850,1.);
#528=VECTOR('',#857,1.);
#529=VECTOR('',#858,1.);
#530=VECTOR('',#859,1.);
#531=VECTOR('',#860,1.);
#532=VECTOR('',#861,1.);
#533=VECTOR('',#868,1.);
#534=VECTOR('',#871,1.);
#535=VECTOR('',#878,1.);
#536=VECTOR('',#879,1.);
#537=VECTOR('',#880,1.);
#538=VECTOR('',#881,1.);
#539=VECTOR('',#882,1.);
#540=VECTOR('',#883,1.);
#541=VECTOR('',#884,1.);
#542=VECTOR('',#887,1.);
#543=VECTOR('',#888,1.);
#544=VECTOR('',#891,1.);
#545=VECTOR('',#894,1.);
#546=VECTOR('',#897,1.);
#547=VECTOR('',#900,1.);
#548=VECTOR('',#903,1.);
#549=VECTOR('',#906,1.);
#550=VECTOR('',#909,1.);
#551=VECTOR('',#912,1.);
#552=VECTOR('',#915,1.);
#553=VECTOR('',#918,1.);
#554=VECTOR('',#921,1.);
#555=VECTOR('',#924,1.);
#556=VECTOR('',#927,1.);
#557=VECTOR('',#930,1.);
#558=VECTOR('',#933,1.);
#559=VECTOR('',#936,1.);
#560=VECTOR('',#939,1.);
#561=VECTOR('',#942,1.);
#562=VECTOR('',#945,1.);
#563=VECTOR('',#948,1.);
#564=VECTOR('',#951,1.);
#565=VECTOR('',#954,1.);
#566=VECTOR('',#957,1.);
#567=VECTOR('',#960,1.);
#568=VECTOR('',#963,1.);
#569=VECTOR('',#966,1.);
#570=VECTOR('',#969,1.);
#571=VECTOR('',#972,1.);
#572=VECTOR('',#975,1.);
#573=VECTOR('',#978,1.);
#574=VECTOR('',#981,1.);
#575=VECTOR('',#984,1.);
#576=EDGE_LOOP('',(#54,#55,#56,#57,#58,#59,#60,#61,#62,#63,#64,#65,#66,
#67,#68,#69,#70,#71,#72,#73,#74,#75,#76,#77,#78,#79,#80,#81,#82,#83,#84,
#85,#86,#87));
#577=EDGE_LOOP('',(#88,#89,#90,#91,#92,#93,#94,#95,#96,#97,#98,#99,#100,
#101,#102,#103,#104,#105,#106,#107,#108,#109,#110,#111,#112,#113,#114,#115,
#116,#117,#118,#119,#120,#121));
#578=EDGE_LOOP('',(#122,#123,#124,#125));
#579=EDGE_LOOP('',(#126,#127,#128,#129));
#580=EDGE_LOOP('',(#130,#131,#132,#133));
#581=EDGE_LOOP('',(#134,#135,#136,#137));
#582=EDGE_LOOP('',(#138,#139,#140,#141));
#583=EDGE_LOOP('',(#142,#143,#144,#145));
#584=EDGE_LOOP('',(#146,#147,#148,#149));
#585=EDGE_LOOP('',(#150,#151,#152,#153));
#586=EDGE_LOOP('',(#154,#155,#156,#157));
#587=EDGE_LOOP('',(#158,#159,#160,#161));
#588=EDGE_LOOP('',(#162,#163,#164,#165));
#589=EDGE_LOOP('',(#166,#167,#168,#169));
#590=EDGE_LOOP('',(#170,#171,#172,#173));
#591=EDGE_LOOP('',(#174,#175,#176,#177));
#592=EDGE_LOOP('',(#178,#179,#180,#181));
#593=EDGE_LOOP('',(#182,#183,#184,#185));
#594=EDGE_LOOP('',(#186,#187,#188,#189));
#595=EDGE_LOOP('',(#190,#191,#192,#193));
#596=EDGE_LOOP('',(#194,#195,#196,#197));
#597=EDGE_LOOP('',(#198,#199,#200,#201));
#598=EDGE_LOOP('',(#202,#203,#204,#205));
#599=EDGE_LOOP('',(#206,#207,#208,#209));
#600=EDGE_LOOP('',(#210,#211,#212,#213));
#601=EDGE_LOOP('',(#214,#215,#216,#217));
#602=EDGE_LOOP('',(#218,#219,#220,#221));
#603=EDGE_LOOP('',(#222,#223,#224,#225));
#604=EDGE_LOOP('',(#226,#227,#228,#229));
#605=EDGE_LOOP('',(#230,#231,#232,#233));
#606=EDGE_LOOP('',(#234,#235,#236,#237));
#607=EDGE_LOOP('',(#238,#239,#240,#241));
#608=EDGE_LOOP('',(#242,#243,#244,#245));
#609=EDGE_LOOP('',(#246,#247,#248,#249));
#610=EDGE_LOOP('',(#250,#251,#252,#253));
#611=EDGE_LOOP('',(#254,#255,#256,#257));
#612=FACE_BOUND('',#576,.T.);
#613=FACE_BOUND('',#577,.T.);
#614=FACE_BOUND('',#578,.T.);
#615=FACE_BOUND('',#579,.T.);
#616=FACE_BOUND('',#580,.T.);
#617=FACE_BOUND('',#581,.T.);
#618=FACE_BOUND('',#582,.T.);
#619=FACE_BOUND('',#583,.T.);
#620=FACE_BOUND('',#584,.T.);
#621=FACE_BOUND('',#585,.T.);
#622=FACE_BOUND('',#586,.T.);
#623=FACE_BOUND('',#587,.T.);
#624=FACE_BOUND('',#588,.T.);
#625=FACE_BOUND('',#589,.T.);
#626=FACE_BOUND('',#590,.T.);
#627=FACE_BOUND('',#591,.T.);
#628=FACE_BOUND('',#592,.T.);
#629=FACE_BOUND('',#593,.T.);
#630=FACE_BOUND('',#594,.T.);
#631=FACE_BOUND('',#595,.T.);
#632=FACE_BOUND('',#596,.T.);
#633=FACE_BOUND('',#597,.T.);
#634=FACE_BOUND('',#598,.T.);
#635=FACE_BOUND('',#599,.T.);
#636=FACE_BOUND('',#600,.T.);
#637=FACE_BOUND('',#601,.T.);
#638=FACE_BOUND('',#602,.T.);
#639=FACE_BOUND('',#603,.T.);
#640=FACE_BOUND('',#604,.T.);
#641=FACE_BOUND('',#605,.T.);
#642=FACE_BOUND('',#606,.T.);
#643=FACE_BOUND('',#607,.T.);
#644=FACE_BOUND('',#608,.T.);
#645=FACE_BOUND('',#609,.T.);
#646=FACE_BOUND('',#610,.T.);
#647=FACE_BOUND('',#611,.T.);
#648=PLANE('',#719);
#649=PLANE('',#734);
#650=PLANE('',#749);
#651=PLANE('',#750);
#652=PLANE('',#751);
#653=PLANE('',#752);
#654=PLANE('',#756);
#655=PLANE('',#758);
#656=PLANE('',#762);
#657=PLANE('',#763);
#658=PLANE('',#764);
#659=PLANE('',#765);
#660=PLANE('',#766);
#661=PLANE('',#770);
#662=PLANE('',#772);
#663=PLANE('',#776);
#664=PLANE('',#777);
#665=PLANE('',#778);
#666=PLANE('',#779);
#667=PLANE('',#780);
#668=PLANE('',#781);
#669=PLANE('',#782);
#670=ADVANCED_FACE('',(#612),#648,.F.);
#671=ADVANCED_FACE('',(#613),#649,.T.);
#672=ADVANCED_FACE('',(#614),#650,.T.);
#673=ADVANCED_FACE('',(#615),#651,.T.);
#674=ADVANCED_FACE('',(#616),#652,.T.);
#675=ADVANCED_FACE('',(#617),#653,.T.);
#676=ADVANCED_FACE('',(#618),#12,.F.);
#677=ADVANCED_FACE('',(#619),#13,.T.);
#678=ADVANCED_FACE('',(#620),#14,.F.);
#679=ADVANCED_FACE('',(#621),#654,.T.);
#680=ADVANCED_FACE('',(#622),#15,.T.);
#681=ADVANCED_FACE('',(#623),#655,.T.);
#682=ADVANCED_FACE('',(#624),#16,.F.);
#683=ADVANCED_FACE('',(#625),#17,.T.);
#684=ADVANCED_FACE('',(#626),#18,.F.);
#685=ADVANCED_FACE('',(#627),#656,.T.);
#686=ADVANCED_FACE('',(#628),#657,.T.);
#687=ADVANCED_FACE('',(#629),#658,.T.);
#688=ADVANCED_FACE('',(#630),#659,.T.);
#689=ADVANCED_FACE('',(#631),#660,.T.);
#690=ADVANCED_FACE('',(#632),#19,.F.);
#691=ADVANCED_FACE('',(#633),#20,.T.);
#692=ADVANCED_FACE('',(#634),#21,.F.);
#693=ADVANCED_FACE('',(#635),#661,.T.);
#694=ADVANCED_FACE('',(#636),#22,.T.);
#695=ADVANCED_FACE('',(#637),#662,.T.);
#696=ADVANCED_FACE('',(#638),#23,.F.);
#697=ADVANCED_FACE('',(#639),#24,.T.);
#698=ADVANCED_FACE('',(#640),#25,.F.);
#699=ADVANCED_FACE('',(#641),#663,.T.);
#700=ADVANCED_FACE('',(#642),#664,.T.);
#701=ADVANCED_FACE('',(#643),#665,.T.);
#702=ADVANCED_FACE('',(#644),#666,.T.);
#703=ADVANCED_FACE('',(#645),#667,.T.);
#704=ADVANCED_FACE('',(#646),#668,.T.);
#705=ADVANCED_FACE('',(#647),#669,.T.);
#706=CLOSED_SHELL('',(#670,#671,#672,#673,#674,#675,#676,#677,#678,#679,
#680,#681,#682,#683,#684,#685,#686,#687,#688,#689,#690,#691,#692,#693,#694,
#695,#696,#697,#698,#699,#700,#701,#702,#703,#704,#705));
#707=STYLED_ITEM('',(#708),#715);
#708=PRESENTATION_STYLE_ASSIGNMENT((#709));
#709=SURFACE_STYLE_USAGE(.BOTH.,#710);
#710=SURFACE_SIDE_STYLE('',(#711));
#711=SURFACE_STYLE_FILL_AREA(#712);
#712=FILL_AREA_STYLE('',(#713));
#713=FILL_AREA_STYLE_COLOUR('',#714);
#714=COLOUR_RGB('',0.,0.501960784313726,0.);
#715=MANIFOLD_SOLID_BREP('MGN12C Carriage v1',#706);
#716=SHAPE_DEFINITION_REPRESENTATION(#1200,#717);
#717=SHAPE_REPRESENTATION('MGN12C Carriage v1',(#718),#1195);
#718=AXIS2_PLACEMENT_3D('',#987,#783,#784);
#719=AXIS2_PLACEMENT_3D('',#988,#785,#786);
#720=AXIS2_PLACEMENT_3D('',#1006,#795,#796);
#721=AXIS2_PLACEMENT_3D('',#1008,#797,#798);
#722=AXIS2_PLACEMENT_3D('',#1010,#799,#800);
#723=AXIS2_PLACEMENT_3D('',#1014,#802,#803);
#724=AXIS2_PLACEMENT_3D('',#1018,#805,#806);
#725=AXIS2_PLACEMENT_3D('',#1020,#807,#808);
#726=AXIS2_PLACEMENT_3D('',#1022,#809,#810);
#727=AXIS2_PLACEMENT_3D('',#1034,#816,#817);
#728=AXIS2_PLACEMENT_3D('',#1036,#818,#819);
#729=AXIS2_PLACEMENT_3D('',#1038,#820,#821);
#730=AXIS2_PLACEMENT_3D('',#1042,#823,#824);
#731=AXIS2_PLACEMENT_3D('',#1046,#826,#827);
#732=AXIS2_PLACEMENT_3D('',#1048,#828,#829);
#733=AXIS2_PLACEMENT_3D('',#1050,#830,#831);
#734=AXIS2_PLACEMENT_3D('',#1057,#835,#836);
#735=AXIS2_PLACEMENT_3D('',#1067,#841,#842);
#736=AXIS2_PLACEMENT_3D('',#1069,#843,#844);
#737=AXIS2_PLACEMENT_3D('',#1071,#845,#846);
#738=AXIS2_PLACEMENT_3D('',#1075,#848,#849);
#739=AXIS2_PLACEMENT_3D('',#1079,#851,#852);
#740=AXIS2_PLACEMENT_3D('',#1081,#853,#854);
#741=AXIS2_PLACEMENT_3D('',#1083,#855,#856);
#742=AXIS2_PLACEMENT_3D('',#1095,#862,#863);
#743=AXIS2_PLACEMENT_3D('',#1097,#864,#865);
#744=AXIS2_PLACEMENT_3D('',#1099,#866,#867);
#745=AXIS2_PLACEMENT_3D('',#1103,#869,#870);
#746=AXIS2_PLACEMENT_3D('',#1107,#872,#873);
#747=AXIS2_PLACEMENT_3D('',#1109,#874,#875);
#748=AXIS2_PLACEMENT_3D('',#1111,#876,#877);
#749=AXIS2_PLACEMENT_3D('',#1126,#885,#886);
#750=AXIS2_PLACEMENT_3D('',#1129,#889,#890);
#751=AXIS2_PLACEMENT_3D('',#1131,#892,#893);
#752=AXIS2_PLACEMENT_3D('',#1133,#895,#896);
#753=AXIS2_PLACEMENT_3D('',#1135,#898,#899);
#754=AXIS2_PLACEMENT_3D('',#1137,#901,#902);
#755=AXIS2_PLACEMENT_3D('',#1139,#904,#905);
#756=AXIS2_PLACEMENT_3D('',#1141,#907,#908);
#757=AXIS2_PLACEMENT_3D('',#1143,#910,#911);
#758=AXIS2_PLACEMENT_3D('',#1145,#913,#914);
#759=AXIS2_PLACEMENT_3D('',#1147,#916,#917);
#760=AXIS2_PLACEMENT_3D('',#1149,#919,#920);
#761=AXIS2_PLACEMENT_3D('',#1151,#922,#923);
#762=AXIS2_PLACEMENT_3D('',#1153,#925,#926);
#763=AXIS2_PLACEMENT_3D('',#1155,#928,#929);
#764=AXIS2_PLACEMENT_3D('',#1157,#931,#932);
#765=AXIS2_PLACEMENT_3D('',#1159,#934,#935);
#766=AXIS2_PLACEMENT_3D('',#1161,#937,#938);
#767=AXIS2_PLACEMENT_3D('',#1163,#940,#941);
#768=AXIS2_PLACEMENT_3D('',#1165,#943,#944);
#769=AXIS2_PLACEMENT_3D('',#1167,#946,#947);
#770=AXIS2_PLACEMENT_3D('',#1169,#949,#950);
#771=AXIS2_PLACEMENT_3D('',#1171,#952,#953);
#772=AXIS2_PLACEMENT_3D('',#1173,#955,#956);
#773=AXIS2_PLACEMENT_3D('',#1175,#958,#959);
#774=AXIS2_PLACEMENT_3D('',#1177,#961,#962);
#775=AXIS2_PLACEMENT_3D('',#1179,#964,#965);
#776=AXIS2_PLACEMENT_3D('',#1181,#967,#968);
#777=AXIS2_PLACEMENT_3D('',#1183,#970,#971);
#778=AXIS2_PLACEMENT_3D('',#1185,#973,#974);
#779=AXIS2_PLACEMENT_3D('',#1187,#976,#977);
#780=AXIS2_PLACEMENT_3D('',#1189,#979,#980);
#781=AXIS2_PLACEMENT_3D('',#1191,#982,#983);
#782=AXIS2_PLACEMENT_3D('',#1193,#985,#986);
#783=DIRECTION('',(0.,0.,1.));
#784=DIRECTION('',(1.,0.,0.));
#785=DIRECTION('',(-1.,-1.22464679914735E-16,0.));
#786=DIRECTION('',(0.,0.,1.));
#787=DIRECTION('',(3.09007062147022E-32,-2.52323414687536E-16,1.));
#788=DIRECTION('',(8.65956056235494E-17,-0.707106781186548,0.707106781186548));
#789=DIRECTION('',(1.22464679914735E-16,-1.,-1.72127600717079E-16));
#790=DIRECTION('',(8.65956056235494E-17,-0.707106781186548,-0.707106781186548));
#791=DIRECTION('',(-3.09007062147022E-32,2.52323414687536E-16,-1.));
#792=DIRECTION('',(-8.65956056235494E-17,0.707106781186548,-0.707106781186547));
#793=DIRECTION('',(-1.22464679914735E-16,1.,1.60901887626834E-16));
#794=DIRECTION('',(0.,0.,1.));
#795=DIRECTION('',(-1.,-1.22464679914735E-16,0.));
#796=DIRECTION('',(1.22464679914666E-16,-0.999999999999432,-1.06592842538666E-6));
#797=DIRECTION('',(1.,1.22464679914735E-16,0.));
#798=DIRECTION('',(0.,0.,1.));
#799=DIRECTION('',(-1.,-1.22464679914735E-16,0.));
#800=DIRECTION('',(1.06843958323036E-16,-0.872447128408163,0.488708510394848));
#801=DIRECTION('',(-1.22464679914735E-16,1.,0.));
#802=DIRECTION('',(1.,1.22464679914735E-16,0.));
#803=DIRECTION('',(3.80001086369761E-17,-0.310294434798942,0.950640501836948));
#804=DIRECTION('',(1.22464679914735E-16,-1.,0.));
#805=DIRECTION('',(-1.,-1.22464679914735E-16,0.));
#806=DIRECTION('',(1.38783649260014E-22,-1.1332544971876E-6,-0.999999999999358));
#807=DIRECTION('',(1.,1.22464679914735E-16,0.));
#808=DIRECTION('',(-5.98463255075785E-17,0.488682333136753,0.872461791300926));
#809=DIRECTION('',(-1.,-1.22464679914735E-16,0.));
#810=DIRECTION('',(5.98462848957374E-17,-0.488682001515904,-0.872461977047946));
#811=DIRECTION('',(0.,0.,1.));
#812=DIRECTION('',(-7.93230821159154E-17,0.647722120134093,0.761876666586525));
#813=DIRECTION('',(-1.22464679914735E-16,1.,2.01858731750028E-16));
#814=DIRECTION('',(-7.93230821159154E-17,0.647722120134093,-0.761876666586525));
#815=DIRECTION('',(0.,0.,-1.));
#816=DIRECTION('',(-1.,-1.22464679914735E-16,0.));
#817=DIRECTION('',(-1.2246467991462E-16,0.999999999999059,-1.37155477253348E-6));
#818=DIRECTION('',(1.,1.22464679914735E-16,0.));
#819=DIRECTION('',(1.06844002254859E-16,-0.872447487138721,0.488707869985057));
#820=DIRECTION('',(-1.,-1.22464679914735E-16,0.));
#821=DIRECTION('',(-1.06843986662558E-16,0.872447359817928,-0.488708097279682));
#822=DIRECTION('',(1.22464679914735E-16,-1.,0.));
#823=DIRECTION('',(1.,1.22464679914735E-16,0.));
#824=DIRECTION('',(-3.80001149109055E-17,0.310294486029463,-0.950640485115015));
#825=DIRECTION('',(-1.22464679914735E-16,1.,0.));
#826=DIRECTION('',(-1.,-1.22464679914735E-16,0.));
#827=DIRECTION('',(-1.38783650109783E-22,1.13325450412649E-6,0.999999999999358));
#828=DIRECTION('',(1.,1.22464679914735E-16,0.));
#829=DIRECTION('',(0.,0.,1.));
#830=DIRECTION('',(-1.,-1.22464679914735E-16,0.));
#831=DIRECTION('',(-5.98462565573277E-17,0.488681770115228,0.87246210665968));
#832=DIRECTION('',(0.,0.,-1.));
#833=DIRECTION('',(-1.22464679914735E-16,1.,1.5636944008805E-16));
#834=DIRECTION('',(-8.65956056235494E-17,0.707106781186548,0.707106781186547));
#835=DIRECTION('',(-1.,-1.22464679914735E-16,0.));
#836=DIRECTION('',(0.,0.,1.));
#837=DIRECTION('',(-3.09007062147022E-32,2.52323414687536E-16,-1.));
#838=DIRECTION('',(8.65956056235494E-17,-0.707106781186548,-0.707106781186547));
#839=DIRECTION('',(1.22464679914735E-16,-1.,-1.5636944008805E-16));
#840=DIRECTION('',(0.,0.,1.));
#841=DIRECTION('',(1.,1.22464679914735E-16,0.));
#842=DIRECTION('',(-5.98462565573277E-17,0.488681770115228,0.87246210665968));
#843=DIRECTION('',(-1.,-1.22464679914735E-16,0.));
#844=DIRECTION('',(0.,0.,1.));
#845=DIRECTION('',(1.,1.22464679914735E-16,0.));
#846=DIRECTION('',(-1.38783650109783E-22,1.13325450412649E-6,0.999999999999358));
#847=DIRECTION('',(1.22464679914735E-16,-1.,0.));
#848=DIRECTION('',(-1.,-1.22464679914735E-16,0.));
#849=DIRECTION('',(-3.80001149109055E-17,0.310294486029463,-0.950640485115015));
#850=DIRECTION('',(-1.22464679914735E-16,1.,0.));
#851=DIRECTION('',(1.,1.22464679914735E-16,0.));
#852=DIRECTION('',(-1.06843986662558E-16,0.872447359817928,-0.488708097279682));
#853=DIRECTION('',(-1.,-1.22464679914735E-16,0.));
#854=DIRECTION('',(1.06844002254859E-16,-0.872447487138721,0.488707869985057));
#855=DIRECTION('',(1.,1.22464679914735E-16,0.));
#856=DIRECTION('',(-1.2246467991462E-16,0.999999999999059,-1.37155477253348E-6));
#857=DIRECTION('',(0.,0.,1.));
#858=DIRECTION('',(7.93230821159154E-17,-0.647722120134093,0.761876666586525));
#859=DIRECTION('',(1.22464679914735E-16,-1.,-2.01858731750028E-16));
#860=DIRECTION('',(7.93230821159154E-17,-0.647722120134093,-0.761876666586525));
#861=DIRECTION('',(0.,0.,-1.));
#862=DIRECTION('',(1.,1.22464679914735E-16,0.));
#863=DIRECTION('',(5.98462848957374E-17,-0.488682001515904,-0.872461977047946));
#864=DIRECTION('',(-1.,-1.22464679914735E-16,0.));
#865=DIRECTION('',(-5.98463255075785E-17,0.488682333136753,0.872461791300926));
#866=DIRECTION('',(1.,1.22464679914735E-16,0.));
#867=DIRECTION('',(1.38783649260014E-22,-1.1332544971876E-6,-0.999999999999358));
#868=DIRECTION('',(-1.22464679914735E-16,1.,0.));
#869=DIRECTION('',(-1.,-1.22464679914735E-16,0.));
#870=DIRECTION('',(3.80001086369761E-17,-0.310294434798942,0.950640501836948));
#871=DIRECTION('',(1.22464679914735E-16,-1.,0.));
#872=DIRECTION('',(1.,1.22464679914735E-16,0.));
#873=DIRECTION('',(1.06843958323036E-16,-0.872447128408163,0.488708510394848));
#874=DIRECTION('',(-1.,-1.22464679914735E-16,0.));
#875=DIRECTION('',(0.,0.,1.));
#876=DIRECTION('',(1.,1.22464679914735E-16,0.));
#877=DIRECTION('',(1.22464679914666E-16,-0.999999999999432,-1.06592842538666E-6));
#878=DIRECTION('',(0.,0.,-1.));
#879=DIRECTION('',(1.22464679914735E-16,-1.,-1.60901887626834E-16));
#880=DIRECTION('',(8.65956056235494E-17,-0.707106781186548,0.707106781186547));
#881=DIRECTION('',(3.09007062147022E-32,-2.52323414687536E-16,1.));
#882=DIRECTION('',(-8.65956056235494E-17,0.707106781186548,0.707106781186548));
#883=DIRECTION('',(-1.22464679914735E-16,1.,1.72127600717079E-16));
#884=DIRECTION('',(-8.65956056235494E-17,0.707106781186548,-0.707106781186548));
#885=DIRECTION('',(-1.22464679914735E-16,1.,0.));
#886=DIRECTION('',(0.,0.,-1.));
#887=DIRECTION('',(-1.,-1.22464679914735E-16,0.));
#888=DIRECTION('',(-1.,-1.22464679914735E-16,0.));
#889=DIRECTION('',(-8.65956056235494E-17,0.707106781186548,-0.707106781186548));
#890=DIRECTION('',(8.65956056235494E-17,-0.707106781186548,-0.707106781186548));
#891=DIRECTION('',(-1.,-1.22464679914735E-16,0.));
#892=DIRECTION('',(0.,0.,-1.));
#893=DIRECTION('',(1.22464679914735E-16,-1.,0.));
#894=DIRECTION('',(-1.,-1.22464679914735E-16,0.));
#895=DIRECTION('',(1.22464679914735E-16,-1.,0.));
#896=DIRECTION('',(0.,0.,1.));
#897=DIRECTION('',(-1.,-1.22464679914735E-16,0.));
#898=DIRECTION('',(-1.,-1.22464679914735E-16,0.));
#899=DIRECTION('',(-5.98462565573277E-17,0.488681770115228,0.87246210665968));
#900=DIRECTION('',(-1.,-1.22464679914735E-16,0.));
#901=DIRECTION('',(-1.,-1.22464679914735E-16,0.));
#902=DIRECTION('',(1.06844002254859E-16,-0.872447487138721,0.488707869985057));
#903=DIRECTION('',(-1.,-1.22464679914735E-16,0.));
#904=DIRECTION('',(-1.,-1.22464679914735E-16,0.));
#905=DIRECTION('',(-1.38783650109783E-22,1.13325450412649E-6,0.999999999999358));
#906=DIRECTION('',(-1.,-1.22464679914735E-16,0.));
#907=DIRECTION('',(0.,0.,-1.));
#908=DIRECTION('',(1.22464679914735E-16,-1.,0.));
#909=DIRECTION('',(-1.,-1.22464679914735E-16,0.));
#910=DIRECTION('',(-1.,-1.22464679914735E-16,0.));
#911=DIRECTION('',(1.22464679914729E-16,-0.999999999999952,3.10293790262465E-7));
#912=DIRECTION('',(-1.,-1.22464679914735E-16,0.));
#913=DIRECTION('',(0.,0.,1.));
#914=DIRECTION('',(-1.22464679914735E-16,1.,0.));
#915=DIRECTION('',(-1.,-1.22464679914735E-16,0.));
#916=DIRECTION('',(-1.,-1.22464679914735E-16,0.));
#917=DIRECTION('',(-1.06843986662558E-16,0.872447359817928,-0.488708097279682));
#918=DIRECTION('',(-1.,-1.22464679914735E-16,0.));
#919=DIRECTION('',(-1.,-1.22464679914735E-16,0.));
#920=DIRECTION('',(1.06844002254859E-16,-0.872447487138721,0.488707869985057));
#921=DIRECTION('',(-1.,-1.22464679914735E-16,0.));
#922=DIRECTION('',(-1.,-1.22464679914735E-16,0.));
#923=DIRECTION('',(-1.2246467991462E-16,0.999999999999059,-1.37155477253348E-6));
#924=DIRECTION('',(-1.,-1.22464679914735E-16,0.));
#925=DIRECTION('',(1.22464679914735E-16,-1.,0.));
#926=DIRECTION('',(0.,0.,1.));
#927=DIRECTION('',(-1.,-1.22464679914735E-16,0.));
#928=DIRECTION('',(9.33029821080243E-17,-0.761876666586525,-0.647722120134093));
#929=DIRECTION('',(7.93230821159154E-17,-0.647722120134093,0.761876666586525));
#930=DIRECTION('',(-1.,-1.22464679914735E-16,0.));
#931=DIRECTION('',(0.,0.,-1.));
#932=DIRECTION('',(1.22464679914735E-16,-1.,0.));
#933=DIRECTION('',(-1.,-1.22464679914735E-16,0.));
#934=DIRECTION('',(-9.33029821080243E-17,0.761876666586525,-0.647722120134093));
#935=DIRECTION('',(7.93230821159154E-17,-0.647722120134093,-0.761876666586525));
#936=DIRECTION('',(-1.,-1.22464679914735E-16,0.));
#937=DIRECTION('',(-1.22464679914735E-16,1.,0.));
#938=DIRECTION('',(0.,0.,-1.));
#939=DIRECTION('',(-1.,-1.22464679914735E-16,0.));
#940=DIRECTION('',(-1.,-1.22464679914735E-16,0.));
#941=DIRECTION('',(5.98462848957374E-17,-0.488682001515904,-0.872461977047946));
#942=DIRECTION('',(-1.,-1.22464679914735E-16,0.));
#943=DIRECTION('',(-1.,-1.22464679914735E-16,0.));
#944=DIRECTION('',(-5.98463255075785E-17,0.488682333136753,0.872461791300926));
#945=DIRECTION('',(-1.,-1.22464679914735E-16,0.));
#946=DIRECTION('',(-1.,-1.22464679914735E-16,0.));
#947=DIRECTION('',(1.38783649260014E-22,-1.1332544971876E-6,-0.999999999999358));
#948=DIRECTION('',(-1.,-1.22464679914735E-16,0.));
#949=DIRECTION('',(0.,0.,1.));
#950=DIRECTION('',(-1.22464679914735E-16,1.,0.));
#951=DIRECTION('',(-1.,-1.22464679914735E-16,0.));
#952=DIRECTION('',(-1.,-1.22464679914735E-16,0.));
#953=DIRECTION('',(-1.22464679914729E-16,0.999999999999952,3.10293790088992E-7));
#954=DIRECTION('',(-1.,-1.22464679914735E-16,0.));
#955=DIRECTION('',(0.,0.,-1.));
#956=DIRECTION('',(1.22464679914735E-16,-1.,0.));
#957=DIRECTION('',(-1.,-1.22464679914735E-16,0.));
#958=DIRECTION('',(-1.,-1.22464679914735E-16,0.));
#959=DIRECTION('',(1.06843958323036E-16,-0.872447128408163,0.488708510394848));
#960=DIRECTION('',(-1.,-1.22464679914735E-16,0.));
#961=DIRECTION('',(-1.,-1.22464679914735E-16,0.));
#962=DIRECTION('',(-5.98463255075785E-17,0.488682333136753,0.872461791300926));
#963=DIRECTION('',(-1.,-1.22464679914735E-16,0.));
#964=DIRECTION('',(-1.,-1.22464679914735E-16,0.));
#965=DIRECTION('',(1.22464679914666E-16,-0.999999999999432,-1.06592842538666E-6));
#966=DIRECTION('',(-1.,-1.22464679914735E-16,0.));
#967=DIRECTION('',(-1.22464679914735E-16,1.,0.));
#968=DIRECTION('',(0.,0.,-1.));
#969=DIRECTION('',(-1.,-1.22464679914735E-16,0.));
#970=DIRECTION('',(0.,0.,-1.));
#971=DIRECTION('',(1.22464679914735E-16,-1.,0.));
#972=DIRECTION('',(-1.,-1.22464679914735E-16,0.));
#973=DIRECTION('',(8.65956056235494E-17,-0.707106781186548,-0.707106781186548));
#974=DIRECTION('',(8.65956056235494E-17,-0.707106781186548,0.707106781186548));
#975=DIRECTION('',(-1.,-1.22464679914735E-16,0.));
#976=DIRECTION('',(1.22464679914735E-16,-1.,0.));
#977=DIRECTION('',(0.,0.,1.));
#978=DIRECTION('',(-1.,-1.22464679914735E-16,0.));
#979=DIRECTION('',(8.65956056235494E-17,-0.707106781186548,0.707106781186548));
#980=DIRECTION('',(-8.65956056235494E-17,0.707106781186548,0.707106781186548));
#981=DIRECTION('',(-1.,-1.22464679914735E-16,0.));
#982=DIRECTION('',(0.,0.,1.));
#983=DIRECTION('',(-1.22464679914735E-16,1.,0.));
#984=DIRECTION('',(-1.,-1.22464679914735E-16,0.));
#985=DIRECTION('',(-8.65956056235494E-17,0.707106781186548,0.707106781186548));
#986=DIRECTION('',(-8.65956056235494E-17,0.707106781186548,-0.707106781186548));
#987=CARTESIAN_POINT('',(0.,0.,0.));
#988=CARTESIAN_POINT('',(-0.01085,-2.43896480170004E-18,-0.0052));
#989=CARTESIAN_POINT('',(-0.01085,0.0133,-0.003));
#990=CARTESIAN_POINT('',(-0.01085,0.0133,-0.0096));
#991=CARTESIAN_POINT('',(-0.01085,0.0133,-0.0008));
#992=CARTESIAN_POINT('',(-0.01085,0.010875,0.001625));
#993=CARTESIAN_POINT('',(-0.01085,0.0129,-0.0004));
#994=CARTESIAN_POINT('',(-0.01085,-0.00645,-0.0004));
#995=CARTESIAN_POINT('',(-0.01085,-0.0129,-0.0004));
#996=CARTESIAN_POINT('',(-0.01085,-0.011075,0.001425));
#997=CARTESIAN_POINT('',(-0.01085,-0.0133,-0.0008));
#998=CARTESIAN_POINT('',(-0.01085,-0.0133,-0.0074));
#999=CARTESIAN_POINT('',(-0.01085,-0.0133,-0.0096));
#1000=CARTESIAN_POINT('',(-0.01085,-0.010875,-0.012025));
#1001=CARTESIAN_POINT('',(-0.01085,-0.0129,-0.01));
#1002=CARTESIAN_POINT('',(-0.01085,-0.003,-0.01));
#1003=CARTESIAN_POINT('',(-0.01085,-0.006,-0.01));
#1004=CARTESIAN_POINT('',(-0.01085,-0.006,-0.00693913));
#1005=CARTESIAN_POINT('',(-0.01085,-0.006,-0.00867826));
#1006=CARTESIAN_POINT('',(-0.01085,-0.00584,-0.00867826));
#1007=CARTESIAN_POINT('',(-0.01085,-0.00591818915350081,-0.00853866578148769));
#1008=CARTESIAN_POINT('',(-0.01085,-0.006475287,-0.007544059));
#1009=CARTESIAN_POINT('',(-0.01085,-0.00548069670636237,-0.0081011863937459));
#1010=CARTESIAN_POINT('',(-0.01085,-0.005341105,-0.00817938));
#1011=CARTESIAN_POINT('',(-0.01085,-0.005341105,-0.00801938));
#1012=CARTESIAN_POINT('',(-0.01085,-0.00245969,-0.00801938));
#1013=CARTESIAN_POINT('',(-0.01085,-0.00491938,-0.00801938));
#1014=CARTESIAN_POINT('',(-0.01085,-0.004764233,-0.007544059));
#1015=CARTESIAN_POINT('',(-0.01085,-0.00491938,-0.007068739));
#1016=CARTESIAN_POINT('',(-0.01085,-0.0026705525,-0.007068739));
#1017=CARTESIAN_POINT('',(-0.01085,-0.005341105,-0.007068739));
#1018=CARTESIAN_POINT('',(-0.01085,-0.005341105,-0.006908739));
#1019=CARTESIAN_POINT('',(-0.01085,-0.00548069657757087,-0.00698693229556475));
#1020=CARTESIAN_POINT('',(-0.01085,-0.006475287,-0.007544059));
#1021=CARTESIAN_POINT('',(-0.01085,-0.00591818929520237,-0.00654945283460511));
#1022=CARTESIAN_POINT('',(-0.01085,-0.00584,-0.006409859));
#1023=CARTESIAN_POINT('',(-0.01085,-0.00600000000473333,-0.006409859));
#1024=CARTESIAN_POINT('',(-0.01085,-0.006,-0.00539406));
#1025=CARTESIAN_POINT('',(-0.01085,-0.006,-0.00558812));
#1026=CARTESIAN_POINT('',(-0.01085,-0.00439560258847095,-0.00370096358866307));
#1027=CARTESIAN_POINT('',(-0.01085,-0.0055,-0.005));
#1028=CARTESIAN_POINT('',(-0.01085,0.00275,-0.005));
#1029=CARTESIAN_POINT('',(-0.01085,0.0055,-0.005));
#1030=CARTESIAN_POINT('',(-0.01085,0.00464560258847095,-0.00399502358866307));
#1031=CARTESIAN_POINT('',(-0.01085,0.006,-0.00558812));
#1032=CARTESIAN_POINT('',(-0.01085,0.006,-0.0058049295));
#1033=CARTESIAN_POINT('',(-0.01085,0.006,-0.006409859));
#1034=CARTESIAN_POINT('',(-0.01085,0.00584,-0.006409859));
#1035=CARTESIAN_POINT('',(-0.01085,0.00591818912024254,-0.00654945291632767));
#1036=CARTESIAN_POINT('',(-0.01085,0.006475287,-0.007544059));
#1037=CARTESIAN_POINT('',(-0.01085,0.00548069677308632,-0.00698693240508423));
#1038=CARTESIAN_POINT('',(-0.01085,0.005341105,-0.006908739));
#1039=CARTESIAN_POINT('',(-0.01085,0.005341105,-0.0070687390747));
#1040=CARTESIAN_POINT('',(-0.01085,0.00245969,-0.007068739));
#1041=CARTESIAN_POINT('',(-0.01085,0.00491937999998087,-0.007068739));
#1042=CARTESIAN_POINT('',(-0.01085,0.004764233,-0.007544059));
#1043=CARTESIAN_POINT('',(-0.01085,0.00491937795750849,-0.00801938));
#1044=CARTESIAN_POINT('',(-0.01085,0.0026705525,-0.00801938));
#1045=CARTESIAN_POINT('',(-0.01085,0.005341105,-0.00801938));
#1046=CARTESIAN_POINT('',(-0.01085,0.005341105,-0.00817938));
#1047=CARTESIAN_POINT('',(-0.01085,0.00548069680302654,-0.00810118632008784));
#1048=CARTESIAN_POINT('',(-0.01085,0.006475287,-0.007544059));
#1049=CARTESIAN_POINT('',(-0.01085,0.00591818921566628,-0.0085386657054296));
#1050=CARTESIAN_POINT('',(-0.01085,0.00584,-0.00867826));
#1051=CARTESIAN_POINT('',(-0.01085,0.006,-0.00867826));
#1052=CARTESIAN_POINT('',(-0.01085,0.006,-0.0076));
#1053=CARTESIAN_POINT('',(-0.01085,0.006,-0.01));
#1054=CARTESIAN_POINT('',(-0.01085,0.00645,-0.01));
#1055=CARTESIAN_POINT('',(-0.01085,0.0129,-0.01));
#1056=CARTESIAN_POINT('',(-0.01085,0.011075,-0.011825));
#1057=CARTESIAN_POINT('',(-0.01585,-3.05128820127371E-18,-0.0052));
#1058=CARTESIAN_POINT('',(-0.01585,0.0133,-0.003));
#1059=CARTESIAN_POINT('',(-0.01585,0.0133,-0.0008));
#1060=CARTESIAN_POINT('',(-0.01585,0.0133,-0.0096));
#1061=CARTESIAN_POINT('',(-0.01585,0.011075,-0.011825));
#1062=CARTESIAN_POINT('',(-0.01585,0.0129,-0.01));
#1063=CARTESIAN_POINT('',(-0.01585,0.00645,-0.01));
#1064=CARTESIAN_POINT('',(-0.01585,0.006,-0.01));
#1065=CARTESIAN_POINT('',(-0.01585,0.006,-0.0076));
#1066=CARTESIAN_POINT('',(-0.01585,0.006,-0.00867826));
#1067=CARTESIAN_POINT('',(-0.01585,0.00584,-0.00867826));
#1068=CARTESIAN_POINT('',(-0.01585,0.00591818921566628,-0.0085386657054296));
#1069=CARTESIAN_POINT('',(-0.01585,0.006475287,-0.007544059));
#1070=CARTESIAN_POINT('',(-0.01585,0.00548069680302654,-0.00810118632008784));
#1071=CARTESIAN_POINT('',(-0.01585,0.005341105,-0.00817938));
#1072=CARTESIAN_POINT('',(-0.01585,0.005341105,-0.00801938));
#1073=CARTESIAN_POINT('',(-0.01585,0.0026705525,-0.00801938));
#1074=CARTESIAN_POINT('',(-0.01585,0.00491937795750849,-0.00801938));
#1075=CARTESIAN_POINT('',(-0.01585,0.004764233,-0.007544059));
#1076=CARTESIAN_POINT('',(-0.01585,0.00491937999998087,-0.007068739));
#1077=CARTESIAN_POINT('',(-0.01585,0.00245969,-0.007068739));
#1078=CARTESIAN_POINT('',(-0.01585,0.005341105,-0.0070687390747));
#1079=CARTESIAN_POINT('',(-0.01585,0.005341105,-0.006908739));
#1080=CARTESIAN_POINT('',(-0.01585,0.00548069677308632,-0.00698693240508423));
#1081=CARTESIAN_POINT('',(-0.01585,0.006475287,-0.007544059));
#1082=CARTESIAN_POINT('',(-0.01585,0.00591818912024254,-0.00654945291632767));
#1083=CARTESIAN_POINT('',(-0.01585,0.00584,-0.006409859));
#1084=CARTESIAN_POINT('',(-0.01585,0.006,-0.006409859));
#1085=CARTESIAN_POINT('',(-0.01585,0.006,-0.0058049295));
#1086=CARTESIAN_POINT('',(-0.01585,0.006,-0.00558812));
#1087=CARTESIAN_POINT('',(-0.01585,0.00464560258847095,-0.00399502358866307));
#1088=CARTESIAN_POINT('',(-0.01585,0.0055,-0.005));
#1089=CARTESIAN_POINT('',(-0.01585,0.00275,-0.005));
#1090=CARTESIAN_POINT('',(-0.01585,-0.0055,-0.005));
#1091=CARTESIAN_POINT('',(-0.01585,-0.00439560258847095,-0.00370096358866307));
#1092=CARTESIAN_POINT('',(-0.01585,-0.006,-0.00558812));
#1093=CARTESIAN_POINT('',(-0.01585,-0.006,-0.00539406));
#1094=CARTESIAN_POINT('',(-0.01585,-0.00600000000473333,-0.006409859));
#1095=CARTESIAN_POINT('',(-0.01585,-0.00584,-0.006409859));
#1096=CARTESIAN_POINT('',(-0.01585,-0.00591818929520237,-0.00654945283460511));
#1097=CARTESIAN_POINT('',(-0.01585,-0.006475287,-0.007544059));
#1098=CARTESIAN_POINT('',(-0.01585,-0.00548069657757087,-0.00698693229556475));
#1099=CARTESIAN_POINT('',(-0.01585,-0.005341105,-0.006908739));
#1100=CARTESIAN_POINT('',(-0.01585,-0.005341105,-0.007068739));
#1101=CARTESIAN_POINT('',(-0.01585,-0.0026705525,-0.007068739));
#1102=CARTESIAN_POINT('',(-0.01585,-0.00491938,-0.007068739));
#1103=CARTESIAN_POINT('',(-0.01585,-0.004764233,-0.007544059));
#1104=CARTESIAN_POINT('',(-0.01585,-0.00491938,-0.00801938));
#1105=CARTESIAN_POINT('',(-0.01585,-0.00245969,-0.00801938));
#1106=CARTESIAN_POINT('',(-0.01585,-0.005341105,-0.00801938));
#1107=CARTESIAN_POINT('',(-0.01585,-0.005341105,-0.00817938));
#1108=CARTESIAN_POINT('',(-0.01585,-0.00548069670636237,-0.0081011863937459));
#1109=CARTESIAN_POINT('',(-0.01585,-0.006475287,-0.007544059));
#1110=CARTESIAN_POINT('',(-0.01585,-0.00591818915350081,-0.00853866578148769));
#1111=CARTESIAN_POINT('',(-0.01585,-0.00584,-0.00867826));
#1112=CARTESIAN_POINT('',(-0.01585,-0.006,-0.00867826));
#1113=CARTESIAN_POINT('',(-0.01585,-0.006,-0.00693913));
#1114=CARTESIAN_POINT('',(-0.01585,-0.006,-0.01));
#1115=CARTESIAN_POINT('',(-0.01585,-0.003,-0.01));
#1116=CARTESIAN_POINT('',(-0.01585,-0.0129,-0.01));
#1117=CARTESIAN_POINT('',(-0.01585,-0.010875,-0.012025));
#1118=CARTESIAN_POINT('',(-0.01585,-0.0133,-0.0096));
#1119=CARTESIAN_POINT('',(-0.01585,-0.0133,-0.0074));
#1120=CARTESIAN_POINT('',(-0.01585,-0.0133,-0.0008));
#1121=CARTESIAN_POINT('',(-0.01585,-0.011075,0.001425));
#1122=CARTESIAN_POINT('',(-0.01585,-0.0129,-0.0004));
#1123=CARTESIAN_POINT('',(-0.01585,-0.00645,-0.0004));
#1124=CARTESIAN_POINT('',(-0.01585,0.0129,-0.0004));
#1125=CARTESIAN_POINT('',(-0.01585,0.010875,0.001625));
#1126=CARTESIAN_POINT('',(-0.01085,0.0133,-0.0008));
#1127=CARTESIAN_POINT('',(-0.01085,0.0133,-0.0096));
#1128=CARTESIAN_POINT('',(-0.01085,0.0133,-0.0008));
#1129=CARTESIAN_POINT('',(-0.01085,0.0133,-0.0096));
#1130=CARTESIAN_POINT('',(-0.01085,0.0129,-0.01));
#1131=CARTESIAN_POINT('',(-0.01085,-0.006,-0.01));
#1132=CARTESIAN_POINT('',(-0.01085,0.006,-0.01));
#1133=CARTESIAN_POINT('',(-0.01085,0.006,-0.01));
#1134=CARTESIAN_POINT('',(-0.01085,0.006,-0.00867826));
#1135=CARTESIAN_POINT('',(-0.01085,0.00584,-0.00867826));
#1136=CARTESIAN_POINT('',(4.91027739131193E-15,0.00591818946426339,-0.00853866550403675));
#1137=CARTESIAN_POINT('',(-0.01085,0.006475287,-0.007544059));
#1138=CARTESIAN_POINT('',(4.91033096873975E-15,0.00548069656542697,-0.00810118668275583));
#1139=CARTESIAN_POINT('',(-0.01085,0.005341105,-0.00817938));
#1140=CARTESIAN_POINT('',(-0.01085,0.005341105,-0.00801938));
#1141=CARTESIAN_POINT('',(-0.01085,-0.00491938,-0.00801938));
#1142=CARTESIAN_POINT('',(-0.01085,0.00491937693626273,-0.00801938));
#1143=CARTESIAN_POINT('',(-0.01085,0.004764233,-0.007544059));
#1144=CARTESIAN_POINT('',(-0.01085,0.00491938,-0.007068739));
#1145=CARTESIAN_POINT('',(-0.01085,-0.005341105,-0.007068739));
#1146=CARTESIAN_POINT('',(-0.01085,0.005341105,-0.00706873911205));
#1147=CARTESIAN_POINT('',(-0.01085,0.005341105,-0.006908739));
#1148=CARTESIAN_POINT('',(-0.01085,0.00548069677308632,-0.00698693240508423));
#1149=CARTESIAN_POINT('',(-0.01085,0.006475287,-0.007544059));
#1150=CARTESIAN_POINT('',(-0.01085,0.00591818912024254,-0.00654945291632767));
#1151=CARTESIAN_POINT('',(-0.01085,0.00584,-0.006409859));
#1152=CARTESIAN_POINT('',(-0.01085,0.006,-0.006409859));
#1153=CARTESIAN_POINT('',(-0.01085,0.006,-0.01));
#1154=CARTESIAN_POINT('',(-0.01085,0.006,-0.00558812));
#1155=CARTESIAN_POINT('',(-0.01085,0.006,-0.00558812));
#1156=CARTESIAN_POINT('',(-0.01085,0.0055,-0.005));
#1157=CARTESIAN_POINT('',(-0.01085,0.0055,-0.005));
#1158=CARTESIAN_POINT('',(-0.01085,-0.0055,-0.005));
#1159=CARTESIAN_POINT('',(-0.01085,-0.0055,-0.005));
#1160=CARTESIAN_POINT('',(-0.01085,-0.006,-0.00558812));
#1161=CARTESIAN_POINT('',(-0.01085,-0.006,-0.00867826));
#1162=CARTESIAN_POINT('',(-0.01085,-0.0060000000071,-0.006409859));
#1163=CARTESIAN_POINT('',(-0.01085,-0.00584,-0.006409859));
#1164=CARTESIAN_POINT('',(-0.01085,-0.00591818929520237,-0.00654945283460511));
#1165=CARTESIAN_POINT('',(-0.01085,-0.006475287,-0.007544059));
#1166=CARTESIAN_POINT('',(-0.01085,-0.00548069657757087,-0.00698693229556475));
#1167=CARTESIAN_POINT('',(-0.01085,-0.005341105,-0.006908739));
#1168=CARTESIAN_POINT('',(-0.01085,-0.005341105,-0.007068739));
#1169=CARTESIAN_POINT('',(-0.01085,-0.005341105,-0.007068739));
#1170=CARTESIAN_POINT('',(-0.01085,-0.00491938,-0.007068739));
#1171=CARTESIAN_POINT('',(-0.01085,-0.004764233,-0.007544059));
#1172=CARTESIAN_POINT('',(-0.01085,-0.00491938,-0.00801938));
#1173=CARTESIAN_POINT('',(-0.01085,-0.00491938,-0.00801938));
#1174=CARTESIAN_POINT('',(-0.01085,-0.005341105,-0.00801938));
#1175=CARTESIAN_POINT('',(-0.01085,-0.005341105,-0.00817938));
#1176=CARTESIAN_POINT('',(4.91167335233984E-15,-0.00548069737307311,-0.00810118623034647));
#1177=CARTESIAN_POINT('',(-0.01085,-0.006475287,-0.007544059));
#1178=CARTESIAN_POINT('',(4.91172692962843E-15,-0.0059181891349763,-0.00853866609192498));
#1179=CARTESIAN_POINT('',(-0.01085,-0.00584,-0.00867826));
#1180=CARTESIAN_POINT('',(-0.01085,-0.006,-0.00867826));
#1181=CARTESIAN_POINT('',(-0.01085,-0.006,-0.00867826));
#1182=CARTESIAN_POINT('',(-0.01085,-0.006,-0.01));
#1183=CARTESIAN_POINT('',(-0.01085,-0.006,-0.01));
#1184=CARTESIAN_POINT('',(-0.01085,-0.0129,-0.01));
#1185=CARTESIAN_POINT('',(-0.01085,-0.0129,-0.01));
#1186=CARTESIAN_POINT('',(-0.01085,-0.0133,-0.0096));
#1187=CARTESIAN_POINT('',(-0.01085,-0.0133,-0.0096));
#1188=CARTESIAN_POINT('',(-0.01085,-0.0133,-0.0008));
#1189=CARTESIAN_POINT('',(-0.01085,-0.0133,-0.0008));
#1190=CARTESIAN_POINT('',(-0.01085,-0.0129,-0.0004));
#1191=CARTESIAN_POINT('',(-0.01085,-0.0129,-0.0004));
#1192=CARTESIAN_POINT('',(-0.01085,0.0129,-0.0004));
#1193=CARTESIAN_POINT('',(-0.01085,0.0129,-0.0004));
#1194=MECHANICAL_DESIGN_GEOMETRIC_PRESENTATION_REPRESENTATION('',(#707),
#1195);
#1195=(
GEOMETRIC_REPRESENTATION_CONTEXT(3)
GLOBAL_UNCERTAINTY_ASSIGNED_CONTEXT((#1196))
GLOBAL_UNIT_ASSIGNED_CONTEXT((#1199,#1198,#1197))
REPRESENTATION_CONTEXT('MGN12C Carriage v1','TOP_LEVEL_ASSEMBLY_PART')
);
#1196=UNCERTAINTY_MEASURE_WITH_UNIT(LENGTH_MEASURE(1.E-6),#1199,
'DISTANCE_ACCURACY_VALUE','Maximum Tolerance applied to model');
#1197=(
NAMED_UNIT(*)
SI_UNIT($,.STERADIAN.)
SOLID_ANGLE_UNIT()
);
#1198=(
NAMED_UNIT(*)
PLANE_ANGLE_UNIT()
SI_UNIT($,.RADIAN.)
);
#1199=(
LENGTH_UNIT()
NAMED_UNIT(*)
SI_UNIT($,.METRE.)
);
#1200=PRODUCT_DEFINITION_SHAPE('','',#1201);
#1201=PRODUCT_DEFINITION('','',#1203,#1202);
#1202=PRODUCT_DEFINITION_CONTEXT('',#1209,'design');
#1203=PRODUCT_DEFINITION_FORMATION_WITH_SPECIFIED_SOURCE('','',#1205,
 .NOT_KNOWN.);
#1204=PRODUCT_RELATED_PRODUCT_CATEGORY('','',(#1205));
#1205=PRODUCT('MGN12C Carriage v1','MGN12C Carriage v1',
'MGN12C Carriage v1',(#1207));
#1206=PRODUCT_CATEGORY('','');
#1207=PRODUCT_CONTEXT('',#1209,'mechanical');
#1208=APPLICATION_PROTOCOL_DEFINITION('international standard',
'ap242_managed_model_based_3d_engineering',2020,#1209);
#1209=APPLICATION_CONTEXT('managed model based 3d engineering');
ENDSEC;
END-ISO-10303-21;
