ISO-10303-21;
HEADER;
/* Generated by software containing ST-Developer
 * from STEP Tools, Inc. (www.steptools.com) 
 */
/* OPTION: using custom renumber hook */

FILE_DESCRIPTION(
/* description */ ('STEP AP242 Edition 2',
'CAx-IF Rec.Pracs.---Representation and Presentation of Product Manufa
cturing Information (PMI)---4.0---2014-10-13',
'CAx-IF Rec.Pracs.---3D Tessellated Geometry---0.4---2014-09-14','2;1',
'CAx-IF Rec.Pracs.---User Defined Attributes---1.5---2016-08-15'),
/* implementation_level */ '2;1');

FILE_NAME(
/* name */ 'toolhead v4 - hotend bloc',
/* time_stamp */ '2026-08-19T20:10:39Z',
/* author */ (''),
/* organization */ (''),
/* preprocessor_version */ 'ST-DEVELOPER v20',
/* originating_system */ 'ONSHAPE BY PTC INC, 1.219',
/* authorisation */ '  ');

FILE_SCHEMA (('AP242_MANAGED_MODEL_BASED_3D_ENGINEERING_MIM_LF { 1 0 10303 442 3 1 4 }'));
ENDSEC;

DATA;
#10=SHAPE_REPRESENTATION_RELATIONSHIP('','',#1243,#11);
#11=ADVANCED_BREP_SHAPE_REPRESENTATION('',(#1241),#2069);
#12=CONICAL_SURFACE('',#1340,0.00165,0.785398163397448);
#13=CONICAL_SURFACE('',#1341,0.00165,0.785398163397448);
#14=CONICAL_SURFACE('',#1342,0.00165,0.785398163397448);
#15=CONICAL_SURFACE('',#1343,0.00165,0.785398163397448);
#16=CONICAL_SURFACE('',#1344,0.00265,0.785398163397448);
#17=CONICAL_SURFACE('',#1345,0.00265,0.785398163397448);
#18=CONICAL_SURFACE('',#1346,0.00265,0.785398163397448);
#19=CONICAL_SURFACE('',#1347,0.00265,0.785398163397448);
#20=ELLIPSE('',#1297,0.00332340187157678,0.00235);
#21=ELLIPSE('',#1301,0.00332340187157678,0.00235);
#22=LINE('',#1750,#120);
#23=LINE('',#1753,#121);
#24=LINE('',#1755,#122);
#25=LINE('',#1757,#123);
#26=LINE('',#1759,#124);
#27=LINE('',#1761,#125);
#28=LINE('',#1763,#126);
#29=LINE('',#1765,#127);
#30=LINE('',#1767,#128);
#31=LINE('',#1770,#129);
#32=LINE('',#1772,#130);
#33=LINE('',#1774,#131);
#34=LINE('',#1776,#132);
#35=LINE('',#1778,#133);
#36=LINE('',#1780,#134);
#37=LINE('',#1782,#135);
#38=LINE('',#1784,#136);
#39=LINE('',#1786,#137);
#40=LINE('',#1788,#138);
#41=LINE('',#1790,#139);
#42=LINE('',#1804,#140);
#43=LINE('',#1807,#141);
#44=LINE('',#1809,#142);
#45=LINE('',#1811,#143);
#46=LINE('',#1816,#144);
#47=LINE('',#1820,#145);
#48=LINE('',#1822,#146);
#49=LINE('',#1824,#147);
#50=LINE('',#1826,#148);
#51=LINE('',#1828,#149);
#52=LINE('',#1830,#150);
#53=LINE('',#1833,#151);
#54=LINE('',#1834,#152);
#55=LINE('',#1840,#153);
#56=LINE('',#1843,#154);
#57=LINE('',#1844,#155);
#58=LINE('',#1850,#156);
#59=LINE('',#1853,#157);
#60=LINE('',#1855,#158);
#61=LINE('',#1857,#159);
#62=LINE('',#1861,#160);
#63=LINE('',#1864,#161);
#64=LINE('',#1866,#162);
#65=LINE('',#1868,#163);
#66=LINE('',#1885,#164);
#67=LINE('',#1886,#165);
#68=LINE('',#1893,#166);
#69=LINE('',#1896,#167);
#70=LINE('',#1898,#168);
#71=LINE('',#1900,#169);
#72=LINE('',#1902,#170);
#73=LINE('',#1904,#171);
#74=LINE('',#1906,#172);
#75=LINE('',#1908,#173);
#76=LINE('',#1937,#174);
#77=LINE('',#1939,#175);
#78=LINE('',#1941,#176);
#79=LINE('',#1943,#177);
#80=LINE('',#1945,#178);
#81=LINE('',#1947,#179);
#82=LINE('',#1949,#180);
#83=LINE('',#1951,#181);
#84=LINE('',#1953,#182);
#85=LINE('',#1954,#183);
#86=LINE('',#1955,#184);
#87=LINE('',#1957,#185);
#88=LINE('',#1958,#186);
#89=LINE('',#1960,#187);
#90=LINE('',#1962,#188);
#91=LINE('',#1964,#189);
#92=LINE('',#1966,#190);
#93=LINE('',#1968,#191);
#94=LINE('',#1970,#192);
#95=LINE('',#1971,#193);
#96=LINE('',#1973,#194);
#97=LINE('',#1975,#195);
#98=LINE('',#1977,#196);
#99=LINE('',#1979,#197);
#100=LINE('',#1981,#198);
#101=LINE('',#1983,#199);
#102=LINE('',#1985,#200);
#103=LINE('',#1986,#201);
#104=LINE('',#1988,#202);
#105=LINE('',#1990,#203);
#106=LINE('',#1992,#204);
#107=LINE('',#1994,#205);
#108=LINE('',#1996,#206);
#109=LINE('',#1998,#207);
#110=LINE('',#2000,#208);
#111=LINE('',#2002,#209);
#112=LINE('',#2004,#210);
#113=LINE('',#2006,#211);
#114=LINE('',#2008,#212);
#115=LINE('',#2010,#213);
#116=LINE('',#2012,#214);
#117=LINE('',#2014,#215);
#118=LINE('',#2016,#216);
#119=LINE('',#2018,#217);
#120=VECTOR('',#1392,1.);
#121=VECTOR('',#1393,1.);
#122=VECTOR('',#1394,1.);
#123=VECTOR('',#1395,1.);
#124=VECTOR('',#1396,1.);
#125=VECTOR('',#1397,1.);
#126=VECTOR('',#1398,1.);
#127=VECTOR('',#1399,1.);
#128=VECTOR('',#1402,1.);
#129=VECTOR('',#1403,1.);
#130=VECTOR('',#1404,1.);
#131=VECTOR('',#1405,1.);
#132=VECTOR('',#1406,1.);
#133=VECTOR('',#1407,1.);
#134=VECTOR('',#1408,1.);
#135=VECTOR('',#1409,1.);
#136=VECTOR('',#1410,1.);
#137=VECTOR('',#1411,1.);
#138=VECTOR('',#1412,1.);
#139=VECTOR('',#1413,1.);
#140=VECTOR('',#1428,1.);
#141=VECTOR('',#1429,1.);
#142=VECTOR('',#1430,1.);
#143=VECTOR('',#1431,1.);
#144=VECTOR('',#1436,1.);
#145=VECTOR('',#1439,1.);
#146=VECTOR('',#1440,1.);
#147=VECTOR('',#1441,1.);
#148=VECTOR('',#1442,1.);
#149=VECTOR('',#1443,1.);
#150=VECTOR('',#1446,1.);
#151=VECTOR('',#1447,1.);
#152=VECTOR('',#1448,1.);
#153=VECTOR('',#1455,1.);
#154=VECTOR('',#1456,1.);
#155=VECTOR('',#1457,1.);
#156=VECTOR('',#1464,1.);
#157=VECTOR('',#1465,1.);
#158=VECTOR('',#1466,1.);
#159=VECTOR('',#1467,1.);
#160=VECTOR('',#1472,1.);
#161=VECTOR('',#1473,1.);
#162=VECTOR('',#1474,1.);
#163=VECTOR('',#1475,1.);
#164=VECTOR('',#1496,1.);
#165=VECTOR('',#1497,1.);
#166=VECTOR('',#1506,1.);
#167=VECTOR('',#1507,1.);
#168=VECTOR('',#1508,1.);
#169=VECTOR('',#1509,1.);
#170=VECTOR('',#1510,1.);
#171=VECTOR('',#1511,1.);
#172=VECTOR('',#1512,1.);
#173=VECTOR('',#1513,1.);
#174=VECTOR('',#1552,1.);
#175=VECTOR('',#1553,1.);
#176=VECTOR('',#1554,1.);
#177=VECTOR('',#1557,1.);
#178=VECTOR('',#1558,1.);
#179=VECTOR('',#1561,1.);
#180=VECTOR('',#1562,1.);
#181=VECTOR('',#1565,1.);
#182=VECTOR('',#1568,1.);
#183=VECTOR('',#1569,1.);
#184=VECTOR('',#1570,1.);
#185=VECTOR('',#1573,1.);
#186=VECTOR('',#1574,1.);
#187=VECTOR('',#1577,1.);
#188=VECTOR('',#1580,1.);
#189=VECTOR('',#1583,1.);
#190=VECTOR('',#1586,1.);
#191=VECTOR('',#1589,1.);
#192=VECTOR('',#1592,1.);
#193=VECTOR('',#1593,1.);
#194=VECTOR('',#1596,1.);
#195=VECTOR('',#1599,1.);
#196=VECTOR('',#1602,1.);
#197=VECTOR('',#1605,1.);
#198=VECTOR('',#1608,1.);
#199=VECTOR('',#1611,1.);
#200=VECTOR('',#1614,1.);
#201=VECTOR('',#1615,1.);
#202=VECTOR('',#1618,1.);
#203=VECTOR('',#1621,1.);
#204=VECTOR('',#1624,1.);
#205=VECTOR('',#1627,1.);
#206=VECTOR('',#1630,1.);
#207=VECTOR('',#1633,1.);
#208=VECTOR('',#1636,1.);
#209=VECTOR('',#1639,1.);
#210=VECTOR('',#1642,1.);
#211=VECTOR('',#1645,1.);
#212=VECTOR('',#1648,1.);
#213=VECTOR('',#1651,1.);
#214=VECTOR('',#1654,1.);
#215=VECTOR('',#1657,1.);
#216=VECTOR('',#1660,1.);
#217=VECTOR('',#1663,1.);
#218=PLANE('',#1251);
#219=PLANE('',#1252);
#220=PLANE('',#1257);
#221=PLANE('',#1260);
#222=PLANE('',#1263);
#223=PLANE('',#1264);
#224=PLANE('',#1267);
#225=PLANE('',#1271);
#226=PLANE('',#1281);
#227=PLANE('',#1285);
#228=PLANE('',#1294);
#229=PLANE('',#1298);
#230=PLANE('',#1304);
#231=PLANE('',#1305);
#232=PLANE('',#1306);
#233=PLANE('',#1307);
#234=PLANE('',#1308);
#235=PLANE('',#1309);
#236=PLANE('',#1310);
#237=PLANE('',#1311);
#238=PLANE('',#1312);
#239=PLANE('',#1313);
#240=PLANE('',#1314);
#241=PLANE('',#1315);
#242=PLANE('',#1316);
#243=PLANE('',#1317);
#244=PLANE('',#1318);
#245=PLANE('',#1319);
#246=PLANE('',#1320);
#247=PLANE('',#1321);
#248=PLANE('',#1322);
#249=PLANE('',#1323);
#250=PLANE('',#1324);
#251=PLANE('',#1325);
#252=PLANE('',#1326);
#253=PLANE('',#1327);
#254=PLANE('',#1328);
#255=PLANE('',#1329);
#256=PLANE('',#1330);
#257=PLANE('',#1331);
#258=PLANE('',#1332);
#259=PLANE('',#1333);
#260=PLANE('',#1334);
#261=PLANE('',#1335);
#262=PLANE('',#1336);
#263=PLANE('',#1337);
#264=PLANE('',#1338);
#265=PLANE('',#1339);
#266=PLANE('',#1348);
#267=PLANE('',#1352);
#268=PLANE('',#1356);
#269=PLANE('',#1359);
#270=PLANE('',#1362);
#271=PLANE('',#1366);
#272=PLANE('',#1370);
#273=PLANE('',#1373);
#274=ORIENTED_EDGE('',*,*,#566,.T.);
#275=ORIENTED_EDGE('',*,*,#567,.F.);
#276=ORIENTED_EDGE('',*,*,#568,.T.);
#277=ORIENTED_EDGE('',*,*,#569,.F.);
#278=ORIENTED_EDGE('',*,*,#570,.T.);
#279=ORIENTED_EDGE('',*,*,#571,.T.);
#280=ORIENTED_EDGE('',*,*,#572,.T.);
#281=ORIENTED_EDGE('',*,*,#573,.F.);
#282=ORIENTED_EDGE('',*,*,#574,.F.);
#283=ORIENTED_EDGE('',*,*,#575,.T.);
#284=ORIENTED_EDGE('',*,*,#576,.T.);
#285=ORIENTED_EDGE('',*,*,#577,.T.);
#286=ORIENTED_EDGE('',*,*,#578,.T.);
#287=ORIENTED_EDGE('',*,*,#579,.T.);
#288=ORIENTED_EDGE('',*,*,#580,.T.);
#289=ORIENTED_EDGE('',*,*,#581,.T.);
#290=ORIENTED_EDGE('',*,*,#582,.T.);
#291=ORIENTED_EDGE('',*,*,#583,.T.);
#292=ORIENTED_EDGE('',*,*,#584,.T.);
#293=ORIENTED_EDGE('',*,*,#585,.T.);
#294=ORIENTED_EDGE('',*,*,#586,.T.);
#295=ORIENTED_EDGE('',*,*,#587,.T.);
#296=ORIENTED_EDGE('',*,*,#588,.T.);
#297=ORIENTED_EDGE('',*,*,#589,.T.);
#298=ORIENTED_EDGE('',*,*,#590,.T.);
#299=ORIENTED_EDGE('',*,*,#591,.T.);
#300=ORIENTED_EDGE('',*,*,#592,.T.);
#301=ORIENTED_EDGE('',*,*,#593,.T.);
#302=ORIENTED_EDGE('',*,*,#594,.T.);
#303=ORIENTED_EDGE('',*,*,#595,.T.);
#304=ORIENTED_EDGE('',*,*,#596,.T.);
#305=ORIENTED_EDGE('',*,*,#597,.T.);
#306=ORIENTED_EDGE('',*,*,#598,.T.);
#307=ORIENTED_EDGE('',*,*,#599,.T.);
#308=ORIENTED_EDGE('',*,*,#600,.T.);
#309=ORIENTED_EDGE('',*,*,#601,.T.);
#310=ORIENTED_EDGE('',*,*,#602,.T.);
#311=ORIENTED_EDGE('',*,*,#603,.T.);
#312=ORIENTED_EDGE('',*,*,#604,.T.);
#313=ORIENTED_EDGE('',*,*,#605,.F.);
#314=ORIENTED_EDGE('',*,*,#606,.T.);
#315=ORIENTED_EDGE('',*,*,#607,.T.);
#316=ORIENTED_EDGE('',*,*,#608,.F.);
#317=ORIENTED_EDGE('',*,*,#609,.T.);
#318=ORIENTED_EDGE('',*,*,#605,.T.);
#319=ORIENTED_EDGE('',*,*,#610,.T.);
#320=ORIENTED_EDGE('',*,*,#611,.T.);
#321=ORIENTED_EDGE('',*,*,#612,.T.);
#322=ORIENTED_EDGE('',*,*,#613,.T.);
#323=ORIENTED_EDGE('',*,*,#614,.T.);
#324=ORIENTED_EDGE('',*,*,#608,.T.);
#325=ORIENTED_EDGE('',*,*,#615,.T.);
#326=ORIENTED_EDGE('',*,*,#616,.T.);
#327=ORIENTED_EDGE('',*,*,#617,.T.);
#328=ORIENTED_EDGE('',*,*,#618,.T.);
#329=ORIENTED_EDGE('',*,*,#619,.T.);
#330=ORIENTED_EDGE('',*,*,#620,.T.);
#331=ORIENTED_EDGE('',*,*,#621,.T.);
#332=ORIENTED_EDGE('',*,*,#622,.T.);
#333=ORIENTED_EDGE('',*,*,#623,.F.);
#334=ORIENTED_EDGE('',*,*,#624,.T.);
#335=ORIENTED_EDGE('',*,*,#625,.T.);
#336=ORIENTED_EDGE('',*,*,#626,.T.);
#337=ORIENTED_EDGE('',*,*,#627,.T.);
#338=ORIENTED_EDGE('',*,*,#628,.T.);
#339=ORIENTED_EDGE('',*,*,#629,.T.);
#340=ORIENTED_EDGE('',*,*,#630,.T.);
#341=ORIENTED_EDGE('',*,*,#631,.T.);
#342=ORIENTED_EDGE('',*,*,#632,.T.);
#343=ORIENTED_EDGE('',*,*,#598,.F.);
#344=ORIENTED_EDGE('',*,*,#633,.T.);
#345=ORIENTED_EDGE('',*,*,#623,.T.);
#346=ORIENTED_EDGE('',*,*,#634,.T.);
#347=ORIENTED_EDGE('',*,*,#635,.T.);
#348=ORIENTED_EDGE('',*,*,#636,.T.);
#349=ORIENTED_EDGE('',*,*,#637,.T.);
#350=ORIENTED_EDGE('',*,*,#638,.T.);
#351=ORIENTED_EDGE('',*,*,#639,.T.);
#352=ORIENTED_EDGE('',*,*,#640,.T.);
#353=ORIENTED_EDGE('',*,*,#641,.T.);
#354=ORIENTED_EDGE('',*,*,#642,.T.);
#355=ORIENTED_EDGE('',*,*,#643,.T.);
#356=ORIENTED_EDGE('',*,*,#644,.T.);
#357=ORIENTED_EDGE('',*,*,#645,.T.);
#358=ORIENTED_EDGE('',*,*,#646,.T.);
#359=ORIENTED_EDGE('',*,*,#647,.T.);
#360=ORIENTED_EDGE('',*,*,#648,.T.);
#361=ORIENTED_EDGE('',*,*,#649,.T.);
#362=ORIENTED_EDGE('',*,*,#595,.F.);
#363=ORIENTED_EDGE('',*,*,#650,.T.);
#364=ORIENTED_EDGE('',*,*,#594,.F.);
#365=ORIENTED_EDGE('',*,*,#568,.F.);
#366=ORIENTED_EDGE('',*,*,#651,.F.);
#367=ORIENTED_EDGE('',*,*,#651,.T.);
#368=ORIENTED_EDGE('',*,*,#600,.F.);
#369=ORIENTED_EDGE('',*,*,#652,.T.);
#370=ORIENTED_EDGE('',*,*,#566,.F.);
#371=ORIENTED_EDGE('',*,*,#653,.F.);
#372=ORIENTED_EDGE('',*,*,#653,.T.);
#373=ORIENTED_EDGE('',*,*,#602,.F.);
#374=ORIENTED_EDGE('',*,*,#654,.T.);
#375=ORIENTED_EDGE('',*,*,#622,.F.);
#376=ORIENTED_EDGE('',*,*,#655,.T.);
#377=ORIENTED_EDGE('',*,*,#569,.T.);
#378=ORIENTED_EDGE('',*,*,#567,.T.);
#379=ORIENTED_EDGE('',*,*,#572,.F.);
#380=ORIENTED_EDGE('',*,*,#656,.T.);
#381=ORIENTED_EDGE('',*,*,#657,.T.);
#382=ORIENTED_EDGE('',*,*,#658,.T.);
#383=ORIENTED_EDGE('',*,*,#659,.T.);
#384=ORIENTED_EDGE('',*,*,#660,.T.);
#385=ORIENTED_EDGE('',*,*,#573,.T.);
#386=ORIENTED_EDGE('',*,*,#658,.F.);
#387=ORIENTED_EDGE('',*,*,#655,.F.);
#388=ORIENTED_EDGE('',*,*,#657,.F.);
#389=ORIENTED_EDGE('',*,*,#661,.T.);
#390=ORIENTED_EDGE('',*,*,#662,.T.);
#391=ORIENTED_EDGE('',*,*,#659,.F.);
#392=ORIENTED_EDGE('',*,*,#650,.F.);
#393=ORIENTED_EDGE('',*,*,#649,.F.);
#394=ORIENTED_EDGE('',*,*,#662,.F.);
#395=ORIENTED_EDGE('',*,*,#663,.T.);
#396=ORIENTED_EDGE('',*,*,#574,.T.);
#397=ORIENTED_EDGE('',*,*,#660,.F.);
#398=ORIENTED_EDGE('',*,*,#664,.F.);
#399=ORIENTED_EDGE('',*,*,#665,.F.);
#400=ORIENTED_EDGE('',*,*,#666,.F.);
#401=ORIENTED_EDGE('',*,*,#667,.F.);
#402=ORIENTED_EDGE('',*,*,#624,.F.);
#403=ORIENTED_EDGE('',*,*,#668,.F.);
#404=ORIENTED_EDGE('',*,*,#584,.F.);
#405=ORIENTED_EDGE('',*,*,#665,.T.);
#406=ORIENTED_EDGE('',*,*,#625,.F.);
#407=ORIENTED_EDGE('',*,*,#669,.F.);
#408=ORIENTED_EDGE('',*,*,#618,.F.);
#409=ORIENTED_EDGE('',*,*,#666,.T.);
#410=ORIENTED_EDGE('',*,*,#621,.F.);
#411=ORIENTED_EDGE('',*,*,#670,.F.);
#412=ORIENTED_EDGE('',*,*,#642,.F.);
#413=ORIENTED_EDGE('',*,*,#664,.T.);
#414=ORIENTED_EDGE('',*,*,#641,.F.);
#415=ORIENTED_EDGE('',*,*,#671,.F.);
#416=ORIENTED_EDGE('',*,*,#626,.F.);
#417=ORIENTED_EDGE('',*,*,#668,.T.);
#418=ORIENTED_EDGE('',*,*,#633,.F.);
#419=ORIENTED_EDGE('',*,*,#672,.F.);
#420=ORIENTED_EDGE('',*,*,#585,.F.);
#421=ORIENTED_EDGE('',*,*,#669,.T.);
#422=ORIENTED_EDGE('',*,*,#667,.T.);
#423=ORIENTED_EDGE('',*,*,#673,.F.);
#424=ORIENTED_EDGE('',*,*,#674,.F.);
#425=ORIENTED_EDGE('',*,*,#670,.T.);
#426=ORIENTED_EDGE('',*,*,#675,.F.);
#427=ORIENTED_EDGE('',*,*,#671,.T.);
#428=ORIENTED_EDGE('',*,*,#640,.F.);
#429=ORIENTED_EDGE('',*,*,#676,.F.);
#430=ORIENTED_EDGE('',*,*,#634,.F.);
#431=ORIENTED_EDGE('',*,*,#672,.T.);
#432=ORIENTED_EDGE('',*,*,#597,.F.);
#433=ORIENTED_EDGE('',*,*,#677,.F.);
#434=ORIENTED_EDGE('',*,*,#586,.F.);
#435=ORIENTED_EDGE('',*,*,#673,.T.);
#436=ORIENTED_EDGE('',*,*,#583,.F.);
#437=ORIENTED_EDGE('',*,*,#678,.F.);
#438=ORIENTED_EDGE('',*,*,#619,.F.);
#439=ORIENTED_EDGE('',*,*,#675,.T.);
#440=ORIENTED_EDGE('',*,*,#620,.F.);
#441=ORIENTED_EDGE('',*,*,#679,.F.);
#442=ORIENTED_EDGE('',*,*,#613,.F.);
#443=ORIENTED_EDGE('',*,*,#674,.T.);
#444=ORIENTED_EDGE('',*,*,#615,.F.);
#445=ORIENTED_EDGE('',*,*,#680,.F.);
#446=ORIENTED_EDGE('',*,*,#643,.F.);
#447=ORIENTED_EDGE('',*,*,#676,.T.);
#448=ORIENTED_EDGE('',*,*,#639,.F.);
#449=ORIENTED_EDGE('',*,*,#681,.F.);
#450=ORIENTED_EDGE('',*,*,#599,.F.);
#451=ORIENTED_EDGE('',*,*,#682,.F.);
#452=ORIENTED_EDGE('',*,*,#596,.F.);
#453=ORIENTED_EDGE('',*,*,#683,.F.);
#454=ORIENTED_EDGE('',*,*,#576,.F.);
#455=ORIENTED_EDGE('',*,*,#677,.T.);
#456=ORIENTED_EDGE('',*,*,#682,.T.);
#457=ORIENTED_EDGE('',*,*,#684,.F.);
#458=ORIENTED_EDGE('',*,*,#679,.T.);
#459=ORIENTED_EDGE('',*,*,#678,.T.);
#460=ORIENTED_EDGE('',*,*,#685,.F.);
#461=ORIENTED_EDGE('',*,*,#680,.T.);
#462=ORIENTED_EDGE('',*,*,#610,.F.);
#463=ORIENTED_EDGE('',*,*,#686,.F.);
#464=ORIENTED_EDGE('',*,*,#644,.F.);
#465=ORIENTED_EDGE('',*,*,#683,.T.);
#466=ORIENTED_EDGE('',*,*,#681,.T.);
#467=ORIENTED_EDGE('',*,*,#687,.F.);
#468=ORIENTED_EDGE('',*,*,#684,.T.);
#469=ORIENTED_EDGE('',*,*,#575,.F.);
#470=ORIENTED_EDGE('',*,*,#688,.F.);
#471=ORIENTED_EDGE('',*,*,#587,.F.);
#472=ORIENTED_EDGE('',*,*,#685,.T.);
#473=ORIENTED_EDGE('',*,*,#582,.F.);
#474=ORIENTED_EDGE('',*,*,#689,.F.);
#475=ORIENTED_EDGE('',*,*,#614,.F.);
#476=ORIENTED_EDGE('',*,*,#686,.T.);
#477=ORIENTED_EDGE('',*,*,#604,.F.);
#478=ORIENTED_EDGE('',*,*,#690,.F.);
#479=ORIENTED_EDGE('',*,*,#637,.F.);
#480=ORIENTED_EDGE('',*,*,#687,.T.);
#481=ORIENTED_EDGE('',*,*,#638,.F.);
#482=ORIENTED_EDGE('',*,*,#691,.F.);
#483=ORIENTED_EDGE('',*,*,#577,.F.);
#484=ORIENTED_EDGE('',*,*,#688,.T.);
#485=ORIENTED_EDGE('',*,*,#663,.F.);
#486=ORIENTED_EDGE('',*,*,#692,.F.);
#487=ORIENTED_EDGE('',*,*,#588,.F.);
#488=ORIENTED_EDGE('',*,*,#689,.T.);
#489=ORIENTED_EDGE('',*,*,#581,.F.);
#490=ORIENTED_EDGE('',*,*,#693,.F.);
#491=ORIENTED_EDGE('',*,*,#609,.F.);
#492=ORIENTED_EDGE('',*,*,#691,.T.);
#493=ORIENTED_EDGE('',*,*,#690,.T.);
#494=ORIENTED_EDGE('',*,*,#694,.F.);
#495=ORIENTED_EDGE('',*,*,#692,.T.);
#496=ORIENTED_EDGE('',*,*,#661,.F.);
#497=ORIENTED_EDGE('',*,*,#695,.F.);
#498=ORIENTED_EDGE('',*,*,#589,.F.);
#499=ORIENTED_EDGE('',*,*,#693,.T.);
#500=ORIENTED_EDGE('',*,*,#580,.F.);
#501=ORIENTED_EDGE('',*,*,#696,.F.);
#502=ORIENTED_EDGE('',*,*,#606,.F.);
#503=ORIENTED_EDGE('',*,*,#652,.F.);
#504=ORIENTED_EDGE('',*,*,#607,.F.);
#505=ORIENTED_EDGE('',*,*,#697,.F.);
#506=ORIENTED_EDGE('',*,*,#570,.F.);
#507=ORIENTED_EDGE('',*,*,#694,.T.);
#508=ORIENTED_EDGE('',*,*,#603,.F.);
#509=ORIENTED_EDGE('',*,*,#654,.F.);
#510=ORIENTED_EDGE('',*,*,#601,.F.);
#511=ORIENTED_EDGE('',*,*,#695,.T.);
#512=ORIENTED_EDGE('',*,*,#656,.F.);
#513=ORIENTED_EDGE('',*,*,#698,.F.);
#514=ORIENTED_EDGE('',*,*,#578,.F.);
#515=ORIENTED_EDGE('',*,*,#697,.T.);
#516=ORIENTED_EDGE('',*,*,#696,.T.);
#517=ORIENTED_EDGE('',*,*,#699,.F.);
#518=ORIENTED_EDGE('',*,*,#698,.T.);
#519=ORIENTED_EDGE('',*,*,#571,.F.);
#520=ORIENTED_EDGE('',*,*,#699,.T.);
#521=ORIENTED_EDGE('',*,*,#579,.F.);
#522=ORIENTED_EDGE('',*,*,#590,.F.);
#523=ORIENTED_EDGE('',*,*,#631,.F.);
#524=ORIENTED_EDGE('',*,*,#591,.F.);
#525=ORIENTED_EDGE('',*,*,#635,.F.);
#526=ORIENTED_EDGE('',*,*,#592,.F.);
#527=ORIENTED_EDGE('',*,*,#627,.F.);
#528=ORIENTED_EDGE('',*,*,#593,.F.);
#529=ORIENTED_EDGE('',*,*,#629,.F.);
#530=ORIENTED_EDGE('',*,*,#632,.F.);
#531=ORIENTED_EDGE('',*,*,#645,.F.);
#532=ORIENTED_EDGE('',*,*,#636,.F.);
#533=ORIENTED_EDGE('',*,*,#646,.F.);
#534=ORIENTED_EDGE('',*,*,#628,.F.);
#535=ORIENTED_EDGE('',*,*,#647,.F.);
#536=ORIENTED_EDGE('',*,*,#630,.F.);
#537=ORIENTED_EDGE('',*,*,#648,.F.);
#538=ORIENTED_EDGE('',*,*,#700,.T.);
#539=ORIENTED_EDGE('',*,*,#701,.F.);
#540=ORIENTED_EDGE('',*,*,#701,.T.);
#541=ORIENTED_EDGE('',*,*,#612,.F.);
#542=ORIENTED_EDGE('',*,*,#702,.T.);
#543=ORIENTED_EDGE('',*,*,#703,.F.);
#544=ORIENTED_EDGE('',*,*,#703,.T.);
#545=ORIENTED_EDGE('',*,*,#611,.F.);
#546=ORIENTED_EDGE('',*,*,#704,.F.);
#547=ORIENTED_EDGE('',*,*,#702,.F.);
#548=ORIENTED_EDGE('',*,*,#704,.T.);
#549=ORIENTED_EDGE('',*,*,#705,.F.);
#550=ORIENTED_EDGE('',*,*,#700,.F.);
#551=ORIENTED_EDGE('',*,*,#705,.T.);
#552=ORIENTED_EDGE('',*,*,#706,.T.);
#553=ORIENTED_EDGE('',*,*,#707,.F.);
#554=ORIENTED_EDGE('',*,*,#707,.T.);
#555=ORIENTED_EDGE('',*,*,#617,.F.);
#556=ORIENTED_EDGE('',*,*,#708,.T.);
#557=ORIENTED_EDGE('',*,*,#709,.F.);
#558=ORIENTED_EDGE('',*,*,#709,.T.);
#559=ORIENTED_EDGE('',*,*,#616,.F.);
#560=ORIENTED_EDGE('',*,*,#710,.F.);
#561=ORIENTED_EDGE('',*,*,#708,.F.);
#562=ORIENTED_EDGE('',*,*,#710,.T.);
#563=ORIENTED_EDGE('',*,*,#711,.F.);
#564=ORIENTED_EDGE('',*,*,#706,.F.);
#565=ORIENTED_EDGE('',*,*,#711,.T.);
#566=EDGE_CURVE('',#712,#712,#812,.T.);
#567=EDGE_CURVE('',#713,#713,#813,.F.);
#568=EDGE_CURVE('',#714,#714,#814,.T.);
#569=EDGE_CURVE('',#715,#715,#815,.F.);
#570=EDGE_CURVE('',#716,#717,#22,.T.);
#571=EDGE_CURVE('',#717,#718,#23,.T.);
#572=EDGE_CURVE('',#718,#719,#24,.T.);
#573=EDGE_CURVE('',#720,#719,#25,.T.);
#574=EDGE_CURVE('',#721,#720,#26,.T.);
#575=EDGE_CURVE('',#721,#722,#27,.T.);
#576=EDGE_CURVE('',#722,#723,#28,.T.);
#577=EDGE_CURVE('',#723,#716,#29,.T.);
#578=EDGE_CURVE('',#724,#725,#30,.T.);
#579=EDGE_CURVE('',#725,#726,#31,.T.);
#580=EDGE_CURVE('',#726,#727,#32,.T.);
#581=EDGE_CURVE('',#727,#728,#33,.T.);
#582=EDGE_CURVE('',#728,#729,#34,.T.);
#583=EDGE_CURVE('',#729,#730,#35,.T.);
#584=EDGE_CURVE('',#730,#731,#36,.T.);
#585=EDGE_CURVE('',#731,#732,#37,.T.);
#586=EDGE_CURVE('',#732,#733,#38,.T.);
#587=EDGE_CURVE('',#733,#734,#39,.T.);
#588=EDGE_CURVE('',#734,#735,#40,.T.);
#589=EDGE_CURVE('',#735,#724,#41,.T.);
#590=EDGE_CURVE('',#736,#736,#816,.F.);
#591=EDGE_CURVE('',#737,#737,#817,.F.);
#592=EDGE_CURVE('',#738,#738,#818,.F.);
#593=EDGE_CURVE('',#739,#739,#819,.F.);
#594=EDGE_CURVE('',#740,#740,#820,.F.);
#595=EDGE_CURVE('',#741,#741,#821,.F.);
#596=EDGE_CURVE('',#742,#743,#42,.T.);
#597=EDGE_CURVE('',#743,#744,#43,.T.);
#598=EDGE_CURVE('',#744,#745,#44,.T.);
#599=EDGE_CURVE('',#745,#742,#45,.T.);
#600=EDGE_CURVE('',#746,#747,#822,.T.);
#601=EDGE_CURVE('',#747,#748,#46,.T.);
#602=EDGE_CURVE('',#748,#749,#823,.T.);
#603=EDGE_CURVE('',#749,#750,#47,.T.);
#604=EDGE_CURVE('',#750,#751,#48,.T.);
#605=EDGE_CURVE('',#752,#751,#49,.T.);
#606=EDGE_CURVE('',#752,#753,#50,.T.);
#607=EDGE_CURVE('',#753,#746,#51,.T.);
#608=EDGE_CURVE('',#754,#755,#52,.T.);
#609=EDGE_CURVE('',#754,#752,#53,.T.);
#610=EDGE_CURVE('',#751,#755,#54,.T.);
#611=EDGE_CURVE('',#756,#756,#824,.T.);
#612=EDGE_CURVE('',#757,#757,#825,.T.);
#613=EDGE_CURVE('',#758,#759,#55,.T.);
#614=EDGE_CURVE('',#759,#754,#56,.T.);
#615=EDGE_CURVE('',#755,#758,#57,.T.);
#616=EDGE_CURVE('',#760,#760,#826,.T.);
#617=EDGE_CURVE('',#761,#761,#827,.T.);
#618=EDGE_CURVE('',#762,#763,#58,.T.);
#619=EDGE_CURVE('',#763,#764,#59,.T.);
#620=EDGE_CURVE('',#764,#765,#60,.T.);
#621=EDGE_CURVE('',#765,#762,#61,.T.);
#622=EDGE_CURVE('',#766,#766,#828,.F.);
#623=EDGE_CURVE('',#767,#768,#62,.T.);
#624=EDGE_CURVE('',#767,#769,#63,.T.);
#625=EDGE_CURVE('',#769,#770,#64,.T.);
#626=EDGE_CURVE('',#770,#768,#65,.T.);
#627=EDGE_CURVE('',#771,#771,#829,.T.);
#628=EDGE_CURVE('',#772,#772,#830,.F.);
#629=EDGE_CURVE('',#773,#773,#831,.T.);
#630=EDGE_CURVE('',#774,#774,#832,.F.);
#631=EDGE_CURVE('',#775,#775,#833,.T.);
#632=EDGE_CURVE('',#776,#776,#834,.F.);
#633=EDGE_CURVE('',#744,#767,#66,.T.);
#634=EDGE_CURVE('',#768,#745,#67,.T.);
#635=EDGE_CURVE('',#777,#777,#835,.T.);
#636=EDGE_CURVE('',#778,#778,#836,.F.);
#637=EDGE_CURVE('',#779,#780,#68,.T.);
#638=EDGE_CURVE('',#780,#781,#69,.T.);
#639=EDGE_CURVE('',#781,#782,#70,.T.);
#640=EDGE_CURVE('',#782,#783,#71,.T.);
#641=EDGE_CURVE('',#783,#784,#72,.T.);
#642=EDGE_CURVE('',#784,#785,#73,.T.);
#643=EDGE_CURVE('',#785,#786,#74,.T.);
#644=EDGE_CURVE('',#786,#779,#75,.T.);
#645=EDGE_CURVE('',#787,#787,#837,.T.);
#646=EDGE_CURVE('',#788,#788,#838,.T.);
#647=EDGE_CURVE('',#789,#789,#839,.T.);
#648=EDGE_CURVE('',#790,#790,#840,.T.);
#649=EDGE_CURVE('',#791,#791,#841,.F.);
#650=EDGE_CURVE('',#792,#792,#842,.F.);
#651=EDGE_CURVE('',#793,#793,#843,.T.);
#652=EDGE_CURVE('',#746,#747,#20,.F.);
#653=EDGE_CURVE('',#794,#794,#844,.T.);
#654=EDGE_CURVE('',#748,#749,#21,.F.);
#655=EDGE_CURVE('',#795,#795,#845,.F.);
#656=EDGE_CURVE('',#718,#796,#76,.T.);
#657=EDGE_CURVE('',#796,#797,#77,.T.);
#658=EDGE_CURVE('',#797,#719,#78,.T.);
#659=EDGE_CURVE('',#797,#798,#79,.T.);
#660=EDGE_CURVE('',#798,#720,#80,.T.);
#661=EDGE_CURVE('',#796,#799,#81,.T.);
#662=EDGE_CURVE('',#799,#798,#82,.T.);
#663=EDGE_CURVE('',#799,#721,#83,.T.);
#664=EDGE_CURVE('',#770,#784,#84,.T.);
#665=EDGE_CURVE('',#762,#770,#85,.F.);
#666=EDGE_CURVE('',#784,#762,#86,.F.);
#667=EDGE_CURVE('',#769,#730,#87,.T.);
#668=EDGE_CURVE('',#731,#767,#88,.F.);
#669=EDGE_CURVE('',#763,#769,#89,.T.);
#670=EDGE_CURVE('',#785,#765,#90,.T.);
#671=EDGE_CURVE('',#768,#783,#91,.F.);
#672=EDGE_CURVE('',#732,#744,#92,.T.);
#673=EDGE_CURVE('',#763,#730,#93,.T.);
#674=EDGE_CURVE('',#785,#758,#94,.F.);
#675=EDGE_CURVE('',#758,#765,#95,.T.);
#676=EDGE_CURVE('',#745,#782,#96,.T.);
#677=EDGE_CURVE('',#733,#743,#97,.F.);
#678=EDGE_CURVE('',#764,#729,#98,.F.);
#679=EDGE_CURVE('',#759,#764,#99,.F.);
#680=EDGE_CURVE('',#786,#755,#100,.T.);
#681=EDGE_CURVE('',#742,#781,#101,.T.);
#682=EDGE_CURVE('',#743,#722,#102,.T.);
#683=EDGE_CURVE('',#723,#742,#103,.T.);
#684=EDGE_CURVE('',#733,#722,#104,.F.);
#685=EDGE_CURVE('',#759,#729,#105,.T.);
#686=EDGE_CURVE('',#779,#751,#106,.F.);
#687=EDGE_CURVE('',#723,#781,#107,.T.);
#688=EDGE_CURVE('',#734,#721,#108,.F.);
#689=EDGE_CURVE('',#754,#728,#109,.T.);
#690=EDGE_CURVE('',#780,#750,#110,.F.);
#691=EDGE_CURVE('',#716,#780,#111,.F.);
#692=EDGE_CURVE('',#735,#799,#112,.F.);
#693=EDGE_CURVE('',#752,#727,#113,.F.);
#694=EDGE_CURVE('',#716,#750,#114,.T.);
#695=EDGE_CURVE('',#724,#796,#115,.T.);
#696=EDGE_CURVE('',#753,#726,#116,.T.);
#697=EDGE_CURVE('',#717,#753,#117,.F.);
#698=EDGE_CURVE('',#725,#718,#118,.T.);
#699=EDGE_CURVE('',#717,#726,#119,.F.);
#700=EDGE_CURVE('',#800,#800,#846,.F.);
#701=EDGE_CURVE('',#801,#801,#847,.T.);
#702=EDGE_CURVE('',#802,#802,#848,.F.);
#703=EDGE_CURVE('',#803,#803,#849,.T.);
#704=EDGE_CURVE('',#804,#804,#850,.T.);
#705=EDGE_CURVE('',#805,#805,#851,.T.);
#706=EDGE_CURVE('',#806,#806,#852,.F.);
#707=EDGE_CURVE('',#807,#807,#853,.T.);
#708=EDGE_CURVE('',#808,#808,#854,.F.);
#709=EDGE_CURVE('',#809,#809,#855,.T.);
#710=EDGE_CURVE('',#810,#810,#856,.T.);
#711=EDGE_CURVE('',#811,#811,#857,.T.);
#712=VERTEX_POINT('',#1741);
#713=VERTEX_POINT('',#1743);
#714=VERTEX_POINT('',#1746);
#715=VERTEX_POINT('',#1748);
#716=VERTEX_POINT('',#1751);
#717=VERTEX_POINT('',#1752);
#718=VERTEX_POINT('',#1754);
#719=VERTEX_POINT('',#1756);
#720=VERTEX_POINT('',#1758);
#721=VERTEX_POINT('',#1760);
#722=VERTEX_POINT('',#1762);
#723=VERTEX_POINT('',#1764);
#724=VERTEX_POINT('',#1768);
#725=VERTEX_POINT('',#1769);
#726=VERTEX_POINT('',#1771);
#727=VERTEX_POINT('',#1773);
#728=VERTEX_POINT('',#1775);
#729=VERTEX_POINT('',#1777);
#730=VERTEX_POINT('',#1779);
#731=VERTEX_POINT('',#1781);
#732=VERTEX_POINT('',#1783);
#733=VERTEX_POINT('',#1785);
#734=VERTEX_POINT('',#1787);
#735=VERTEX_POINT('',#1789);
#736=VERTEX_POINT('',#1792);
#737=VERTEX_POINT('',#1794);
#738=VERTEX_POINT('',#1796);
#739=VERTEX_POINT('',#1798);
#740=VERTEX_POINT('',#1801);
#741=VERTEX_POINT('',#1803);
#742=VERTEX_POINT('',#1805);
#743=VERTEX_POINT('',#1806);
#744=VERTEX_POINT('',#1808);
#745=VERTEX_POINT('',#1810);
#746=VERTEX_POINT('',#1814);
#747=VERTEX_POINT('',#1815);
#748=VERTEX_POINT('',#1817);
#749=VERTEX_POINT('',#1819);
#750=VERTEX_POINT('',#1821);
#751=VERTEX_POINT('',#1823);
#752=VERTEX_POINT('',#1825);
#753=VERTEX_POINT('',#1827);
#754=VERTEX_POINT('',#1831);
#755=VERTEX_POINT('',#1832);
#756=VERTEX_POINT('',#1837);
#757=VERTEX_POINT('',#1839);
#758=VERTEX_POINT('',#1841);
#759=VERTEX_POINT('',#1842);
#760=VERTEX_POINT('',#1847);
#761=VERTEX_POINT('',#1849);
#762=VERTEX_POINT('',#1851);
#763=VERTEX_POINT('',#1852);
#764=VERTEX_POINT('',#1854);
#765=VERTEX_POINT('',#1856);
#766=VERTEX_POINT('',#1859);
#767=VERTEX_POINT('',#1862);
#768=VERTEX_POINT('',#1863);
#769=VERTEX_POINT('',#1865);
#770=VERTEX_POINT('',#1867);
#771=VERTEX_POINT('',#1871);
#772=VERTEX_POINT('',#1873);
#773=VERTEX_POINT('',#1876);
#774=VERTEX_POINT('',#1878);
#775=VERTEX_POINT('',#1881);
#776=VERTEX_POINT('',#1883);
#777=VERTEX_POINT('',#1889);
#778=VERTEX_POINT('',#1891);
#779=VERTEX_POINT('',#1894);
#780=VERTEX_POINT('',#1895);
#781=VERTEX_POINT('',#1897);
#782=VERTEX_POINT('',#1899);
#783=VERTEX_POINT('',#1901);
#784=VERTEX_POINT('',#1903);
#785=VERTEX_POINT('',#1905);
#786=VERTEX_POINT('',#1907);
#787=VERTEX_POINT('',#1910);
#788=VERTEX_POINT('',#1912);
#789=VERTEX_POINT('',#1914);
#790=VERTEX_POINT('',#1916);
#791=VERTEX_POINT('',#1919);
#792=VERTEX_POINT('',#1922);
#793=VERTEX_POINT('',#1925);
#794=VERTEX_POINT('',#1930);
#795=VERTEX_POINT('',#1935);
#796=VERTEX_POINT('',#1938);
#797=VERTEX_POINT('',#1940);
#798=VERTEX_POINT('',#1944);
#799=VERTEX_POINT('',#1948);
#800=VERTEX_POINT('',#2030);
#801=VERTEX_POINT('',#2032);
#802=VERTEX_POINT('',#2036);
#803=VERTEX_POINT('',#2038);
#804=VERTEX_POINT('',#2042);
#805=VERTEX_POINT('',#2046);
#806=VERTEX_POINT('',#2050);
#807=VERTEX_POINT('',#2052);
#808=VERTEX_POINT('',#2056);
#809=VERTEX_POINT('',#2058);
#810=VERTEX_POINT('',#2062);
#811=VERTEX_POINT('',#2066);
#812=CIRCLE('',#1246,0.00155);
#813=CIRCLE('',#1247,0.00155);
#814=CIRCLE('',#1249,0.00155);
#815=CIRCLE('',#1250,0.00155);
#816=CIRCLE('',#1253,0.00265);
#817=CIRCLE('',#1254,0.00265);
#818=CIRCLE('',#1255,0.00265);
#819=CIRCLE('',#1256,0.00265);
#820=CIRCLE('',#1258,0.00155);
#821=CIRCLE('',#1259,0.00155);
#822=CIRCLE('',#1261,0.00235);
#823=CIRCLE('',#1262,0.00235);
#824=CIRCLE('',#1265,0.00235);
#825=CIRCLE('',#1266,0.00235);
#826=CIRCLE('',#1268,0.00235);
#827=CIRCLE('',#1269,0.00235);
#828=CIRCLE('',#1270,0.0022);
#829=CIRCLE('',#1273,0.00165);
#830=CIRCLE('',#1274,0.00165);
#831=CIRCLE('',#1276,0.00165);
#832=CIRCLE('',#1277,0.00165);
#833=CIRCLE('',#1279,0.00165);
#834=CIRCLE('',#1280,0.00165);
#835=CIRCLE('',#1283,0.00165);
#836=CIRCLE('',#1284,0.00165);
#837=CIRCLE('',#1286,0.00265);
#838=CIRCLE('',#1287,0.00265);
#839=CIRCLE('',#1288,0.00265);
#840=CIRCLE('',#1289,0.00265);
#841=CIRCLE('',#1291,0.00155);
#842=CIRCLE('',#1293,0.00155);
#843=CIRCLE('',#1295,0.00235);
#844=CIRCLE('',#1299,0.00235);
#845=CIRCLE('',#1303,0.0022);
#846=CIRCLE('',#1349,0.00165);
#847=CIRCLE('',#1350,0.00235);
#848=CIRCLE('',#1353,0.00165);
#849=CIRCLE('',#1354,0.00235);
#850=CIRCLE('',#1357,0.00165);
#851=CIRCLE('',#1360,0.00165);
#852=CIRCLE('',#1363,0.00165);
#853=CIRCLE('',#1364,0.00235);
#854=CIRCLE('',#1367,0.00165);
#855=CIRCLE('',#1368,0.00235);
#856=CIRCLE('',#1371,0.00165);
#857=CIRCLE('',#1374,0.00165);
#858=EDGE_LOOP('',(#274));
#859=EDGE_LOOP('',(#275));
#860=EDGE_LOOP('',(#276));
#861=EDGE_LOOP('',(#277));
#862=EDGE_LOOP('',(#278,#279,#280,#281,#282,#283,#284,#285));
#863=EDGE_LOOP('',(#286,#287,#288,#289,#290,#291,#292,#293,#294,#295,#296,
#297));
#864=EDGE_LOOP('',(#298));
#865=EDGE_LOOP('',(#299));
#866=EDGE_LOOP('',(#300));
#867=EDGE_LOOP('',(#301));
#868=EDGE_LOOP('',(#302));
#869=EDGE_LOOP('',(#303));
#870=EDGE_LOOP('',(#304,#305,#306,#307));
#871=EDGE_LOOP('',(#308,#309,#310,#311,#312,#313,#314,#315));
#872=EDGE_LOOP('',(#316,#317,#318,#319));
#873=EDGE_LOOP('',(#320));
#874=EDGE_LOOP('',(#321));
#875=EDGE_LOOP('',(#322,#323,#324,#325));
#876=EDGE_LOOP('',(#326));
#877=EDGE_LOOP('',(#327));
#878=EDGE_LOOP('',(#328,#329,#330,#331));
#879=EDGE_LOOP('',(#332));
#880=EDGE_LOOP('',(#333,#334,#335,#336));
#881=EDGE_LOOP('',(#337));
#882=EDGE_LOOP('',(#338));
#883=EDGE_LOOP('',(#339));
#884=EDGE_LOOP('',(#340));
#885=EDGE_LOOP('',(#341));
#886=EDGE_LOOP('',(#342));
#887=EDGE_LOOP('',(#343,#344,#345,#346));
#888=EDGE_LOOP('',(#347));
#889=EDGE_LOOP('',(#348));
#890=EDGE_LOOP('',(#349,#350,#351,#352,#353,#354,#355,#356));
#891=EDGE_LOOP('',(#357));
#892=EDGE_LOOP('',(#358));
#893=EDGE_LOOP('',(#359));
#894=EDGE_LOOP('',(#360));
#895=EDGE_LOOP('',(#361));
#896=EDGE_LOOP('',(#362));
#897=EDGE_LOOP('',(#363));
#898=EDGE_LOOP('',(#364));
#899=EDGE_LOOP('',(#365));
#900=EDGE_LOOP('',(#366));
#901=EDGE_LOOP('',(#367));
#902=EDGE_LOOP('',(#368,#369));
#903=EDGE_LOOP('',(#370));
#904=EDGE_LOOP('',(#371));
#905=EDGE_LOOP('',(#372));
#906=EDGE_LOOP('',(#373,#374));
#907=EDGE_LOOP('',(#375));
#908=EDGE_LOOP('',(#376));
#909=EDGE_LOOP('',(#377));
#910=EDGE_LOOP('',(#378));
#911=EDGE_LOOP('',(#379,#380,#381,#382));
#912=EDGE_LOOP('',(#383,#384,#385,#386));
#913=EDGE_LOOP('',(#387));
#914=EDGE_LOOP('',(#388,#389,#390,#391));
#915=EDGE_LOOP('',(#392));
#916=EDGE_LOOP('',(#393));
#917=EDGE_LOOP('',(#394,#395,#396,#397));
#918=EDGE_LOOP('',(#398,#399,#400));
#919=EDGE_LOOP('',(#401,#402,#403,#404));
#920=EDGE_LOOP('',(#405,#406,#407,#408));
#921=EDGE_LOOP('',(#409,#410,#411,#412));
#922=EDGE_LOOP('',(#413,#414,#415,#416));
#923=EDGE_LOOP('',(#417,#418,#419,#420));
#924=EDGE_LOOP('',(#421,#422,#423));
#925=EDGE_LOOP('',(#424,#425,#426));
#926=EDGE_LOOP('',(#427,#428,#429,#430));
#927=EDGE_LOOP('',(#431,#432,#433,#434));
#928=EDGE_LOOP('',(#435,#436,#437,#438));
#929=EDGE_LOOP('',(#439,#440,#441,#442));
#930=EDGE_LOOP('',(#443,#444,#445,#446));
#931=EDGE_LOOP('',(#447,#448,#449,#450));
#932=EDGE_LOOP('',(#451,#452,#453,#454));
#933=EDGE_LOOP('',(#455,#456,#457));
#934=EDGE_LOOP('',(#458,#459,#460));
#935=EDGE_LOOP('',(#461,#462,#463,#464));
#936=EDGE_LOOP('',(#465,#466,#467));
#937=EDGE_LOOP('',(#468,#469,#470,#471));
#938=EDGE_LOOP('',(#472,#473,#474,#475));
#939=EDGE_LOOP('',(#476,#477,#478,#479));
#940=EDGE_LOOP('',(#480,#481,#482,#483));
#941=EDGE_LOOP('',(#484,#485,#486,#487));
#942=EDGE_LOOP('',(#488,#489,#490,#491));
#943=EDGE_LOOP('',(#492,#493,#494));
#944=EDGE_LOOP('',(#495,#496,#497,#498));
#945=EDGE_LOOP('',(#499,#500,#501,#502));
#946=EDGE_LOOP('',(#503,#504,#505,#506,#507,#508,#509,#510));
#947=EDGE_LOOP('',(#511,#512,#513,#514));
#948=EDGE_LOOP('',(#515,#516,#517));
#949=EDGE_LOOP('',(#518,#519,#520,#521));
#950=EDGE_LOOP('',(#522));
#951=EDGE_LOOP('',(#523));
#952=EDGE_LOOP('',(#524));
#953=EDGE_LOOP('',(#525));
#954=EDGE_LOOP('',(#526));
#955=EDGE_LOOP('',(#527));
#956=EDGE_LOOP('',(#528));
#957=EDGE_LOOP('',(#529));
#958=EDGE_LOOP('',(#530));
#959=EDGE_LOOP('',(#531));
#960=EDGE_LOOP('',(#532));
#961=EDGE_LOOP('',(#533));
#962=EDGE_LOOP('',(#534));
#963=EDGE_LOOP('',(#535));
#964=EDGE_LOOP('',(#536));
#965=EDGE_LOOP('',(#537));
#966=EDGE_LOOP('',(#538));
#967=EDGE_LOOP('',(#539));
#968=EDGE_LOOP('',(#540));
#969=EDGE_LOOP('',(#541));
#970=EDGE_LOOP('',(#542));
#971=EDGE_LOOP('',(#543));
#972=EDGE_LOOP('',(#544));
#973=EDGE_LOOP('',(#545));
#974=EDGE_LOOP('',(#546));
#975=EDGE_LOOP('',(#547));
#976=EDGE_LOOP('',(#548));
#977=EDGE_LOOP('',(#549));
#978=EDGE_LOOP('',(#550));
#979=EDGE_LOOP('',(#551));
#980=EDGE_LOOP('',(#552));
#981=EDGE_LOOP('',(#553));
#982=EDGE_LOOP('',(#554));
#983=EDGE_LOOP('',(#555));
#984=EDGE_LOOP('',(#556));
#985=EDGE_LOOP('',(#557));
#986=EDGE_LOOP('',(#558));
#987=EDGE_LOOP('',(#559));
#988=EDGE_LOOP('',(#560));
#989=EDGE_LOOP('',(#561));
#990=EDGE_LOOP('',(#562));
#991=EDGE_LOOP('',(#563));
#992=EDGE_LOOP('',(#564));
#993=EDGE_LOOP('',(#565));
#994=FACE_BOUND('',#858,.T.);
#995=FACE_BOUND('',#859,.T.);
#996=FACE_BOUND('',#860,.T.);
#997=FACE_BOUND('',#861,.T.);
#998=FACE_BOUND('',#862,.T.);
#999=FACE_BOUND('',#863,.T.);
#1000=FACE_BOUND('',#864,.T.);
#1001=FACE_BOUND('',#865,.T.);
#1002=FACE_BOUND('',#866,.T.);
#1003=FACE_BOUND('',#867,.T.);
#1004=FACE_BOUND('',#868,.T.);
#1005=FACE_BOUND('',#869,.T.);
#1006=FACE_BOUND('',#870,.T.);
#1007=FACE_BOUND('',#871,.T.);
#1008=FACE_BOUND('',#872,.T.);
#1009=FACE_BOUND('',#873,.T.);
#1010=FACE_BOUND('',#874,.T.);
#1011=FACE_BOUND('',#875,.T.);
#1012=FACE_BOUND('',#876,.T.);
#1013=FACE_BOUND('',#877,.T.);
#1014=FACE_BOUND('',#878,.T.);
#1015=FACE_BOUND('',#879,.T.);
#1016=FACE_BOUND('',#880,.T.);
#1017=FACE_BOUND('',#881,.T.);
#1018=FACE_BOUND('',#882,.T.);
#1019=FACE_BOUND('',#883,.T.);
#1020=FACE_BOUND('',#884,.T.);
#1021=FACE_BOUND('',#885,.T.);
#1022=FACE_BOUND('',#886,.T.);
#1023=FACE_BOUND('',#887,.T.);
#1024=FACE_BOUND('',#888,.T.);
#1025=FACE_BOUND('',#889,.T.);
#1026=FACE_BOUND('',#890,.T.);
#1027=FACE_BOUND('',#891,.T.);
#1028=FACE_BOUND('',#892,.T.);
#1029=FACE_BOUND('',#893,.T.);
#1030=FACE_BOUND('',#894,.T.);
#1031=FACE_BOUND('',#895,.T.);
#1032=FACE_BOUND('',#896,.T.);
#1033=FACE_BOUND('',#897,.T.);
#1034=FACE_BOUND('',#898,.T.);
#1035=FACE_BOUND('',#899,.T.);
#1036=FACE_BOUND('',#900,.T.);
#1037=FACE_BOUND('',#901,.T.);
#1038=FACE_BOUND('',#902,.T.);
#1039=FACE_BOUND('',#903,.T.);
#1040=FACE_BOUND('',#904,.T.);
#1041=FACE_BOUND('',#905,.T.);
#1042=FACE_BOUND('',#906,.T.);
#1043=FACE_BOUND('',#907,.T.);
#1044=FACE_BOUND('',#908,.T.);
#1045=FACE_BOUND('',#909,.T.);
#1046=FACE_BOUND('',#910,.T.);
#1047=FACE_BOUND('',#911,.T.);
#1048=FACE_BOUND('',#912,.T.);
#1049=FACE_BOUND('',#913,.T.);
#1050=FACE_BOUND('',#914,.T.);
#1051=FACE_BOUND('',#915,.T.);
#1052=FACE_BOUND('',#916,.T.);
#1053=FACE_BOUND('',#917,.T.);
#1054=FACE_BOUND('',#918,.T.);
#1055=FACE_BOUND('',#919,.T.);
#1056=FACE_BOUND('',#920,.T.);
#1057=FACE_BOUND('',#921,.T.);
#1058=FACE_BOUND('',#922,.T.);
#1059=FACE_BOUND('',#923,.T.);
#1060=FACE_BOUND('',#924,.T.);
#1061=FACE_BOUND('',#925,.T.);
#1062=FACE_BOUND('',#926,.T.);
#1063=FACE_BOUND('',#927,.T.);
#1064=FACE_BOUND('',#928,.T.);
#1065=FACE_BOUND('',#929,.T.);
#1066=FACE_BOUND('',#930,.T.);
#1067=FACE_BOUND('',#931,.T.);
#1068=FACE_BOUND('',#932,.T.);
#1069=FACE_BOUND('',#933,.T.);
#1070=FACE_BOUND('',#934,.T.);
#1071=FACE_BOUND('',#935,.T.);
#1072=FACE_BOUND('',#936,.T.);
#1073=FACE_BOUND('',#937,.T.);
#1074=FACE_BOUND('',#938,.T.);
#1075=FACE_BOUND('',#939,.T.);
#1076=FACE_BOUND('',#940,.T.);
#1077=FACE_BOUND('',#941,.T.);
#1078=FACE_BOUND('',#942,.T.);
#1079=FACE_BOUND('',#943,.T.);
#1080=FACE_BOUND('',#944,.T.);
#1081=FACE_BOUND('',#945,.T.);
#1082=FACE_BOUND('',#946,.T.);
#1083=FACE_BOUND('',#947,.T.);
#1084=FACE_BOUND('',#948,.T.);
#1085=FACE_BOUND('',#949,.T.);
#1086=FACE_BOUND('',#950,.T.);
#1087=FACE_BOUND('',#951,.T.);
#1088=FACE_BOUND('',#952,.T.);
#1089=FACE_BOUND('',#953,.T.);
#1090=FACE_BOUND('',#954,.T.);
#1091=FACE_BOUND('',#955,.T.);
#1092=FACE_BOUND('',#956,.T.);
#1093=FACE_BOUND('',#957,.T.);
#1094=FACE_BOUND('',#958,.T.);
#1095=FACE_BOUND('',#959,.T.);
#1096=FACE_BOUND('',#960,.T.);
#1097=FACE_BOUND('',#961,.T.);
#1098=FACE_BOUND('',#962,.T.);
#1099=FACE_BOUND('',#963,.T.);
#1100=FACE_BOUND('',#964,.T.);
#1101=FACE_BOUND('',#965,.T.);
#1102=FACE_BOUND('',#966,.T.);
#1103=FACE_BOUND('',#967,.T.);
#1104=FACE_BOUND('',#968,.T.);
#1105=FACE_BOUND('',#969,.T.);
#1106=FACE_BOUND('',#970,.T.);
#1107=FACE_BOUND('',#971,.T.);
#1108=FACE_BOUND('',#972,.T.);
#1109=FACE_BOUND('',#973,.T.);
#1110=FACE_BOUND('',#974,.T.);
#1111=FACE_BOUND('',#975,.T.);
#1112=FACE_BOUND('',#976,.T.);
#1113=FACE_BOUND('',#977,.T.);
#1114=FACE_BOUND('',#978,.T.);
#1115=FACE_BOUND('',#979,.T.);
#1116=FACE_BOUND('',#980,.T.);
#1117=FACE_BOUND('',#981,.T.);
#1118=FACE_BOUND('',#982,.T.);
#1119=FACE_BOUND('',#983,.T.);
#1120=FACE_BOUND('',#984,.T.);
#1121=FACE_BOUND('',#985,.T.);
#1122=FACE_BOUND('',#986,.T.);
#1123=FACE_BOUND('',#987,.T.);
#1124=FACE_BOUND('',#988,.T.);
#1125=FACE_BOUND('',#989,.T.);
#1126=FACE_BOUND('',#990,.T.);
#1127=FACE_BOUND('',#991,.T.);
#1128=FACE_BOUND('',#992,.T.);
#1129=FACE_BOUND('',#993,.T.);
#1130=CYLINDRICAL_SURFACE('',#1245,0.00155);
#1131=CYLINDRICAL_SURFACE('',#1248,0.00155);
#1132=CYLINDRICAL_SURFACE('',#1272,0.00165);
#1133=CYLINDRICAL_SURFACE('',#1275,0.00165);
#1134=CYLINDRICAL_SURFACE('',#1278,0.00165);
#1135=CYLINDRICAL_SURFACE('',#1282,0.00165);
#1136=CYLINDRICAL_SURFACE('',#1290,0.00155);
#1137=CYLINDRICAL_SURFACE('',#1292,0.00155);
#1138=CYLINDRICAL_SURFACE('',#1296,0.00235);
#1139=CYLINDRICAL_SURFACE('',#1300,0.00235);
#1140=CYLINDRICAL_SURFACE('',#1302,0.0022);
#1141=CYLINDRICAL_SURFACE('',#1351,0.00235);
#1142=CYLINDRICAL_SURFACE('',#1355,0.00235);
#1143=CYLINDRICAL_SURFACE('',#1358,0.00165);
#1144=CYLINDRICAL_SURFACE('',#1361,0.00165);
#1145=CYLINDRICAL_SURFACE('',#1365,0.00235);
#1146=CYLINDRICAL_SURFACE('',#1369,0.00235);
#1147=CYLINDRICAL_SURFACE('',#1372,0.00165);
#1148=CYLINDRICAL_SURFACE('',#1375,0.00165);
#1149=ADVANCED_FACE('',(#994,#995),#1130,.F.);
#1150=ADVANCED_FACE('',(#996,#997),#1131,.F.);
#1151=ADVANCED_FACE('',(#998),#218,.F.);
#1152=ADVANCED_FACE('',(#999,#1000,#1001,#1002,#1003),#219,.T.);
#1153=ADVANCED_FACE('',(#1004,#1005,#1006),#220,.T.);
#1154=ADVANCED_FACE('',(#1007),#221,.F.);
#1155=ADVANCED_FACE('',(#1008),#222,.F.);
#1156=ADVANCED_FACE('',(#1009,#1010,#1011),#223,.T.);
#1157=ADVANCED_FACE('',(#1012,#1013,#1014,#1015),#224,.T.);
#1158=ADVANCED_FACE('',(#1016),#225,.F.);
#1159=ADVANCED_FACE('',(#1017,#1018),#1132,.F.);
#1160=ADVANCED_FACE('',(#1019,#1020),#1133,.F.);
#1161=ADVANCED_FACE('',(#1021,#1022),#1134,.F.);
#1162=ADVANCED_FACE('',(#1023),#226,.F.);
#1163=ADVANCED_FACE('',(#1024,#1025),#1135,.F.);
#1164=ADVANCED_FACE('',(#1026,#1027,#1028,#1029,#1030),#227,.F.);
#1165=ADVANCED_FACE('',(#1031,#1032),#1136,.F.);
#1166=ADVANCED_FACE('',(#1033,#1034),#1137,.F.);
#1167=ADVANCED_FACE('',(#1035,#1036),#228,.T.);
#1168=ADVANCED_FACE('',(#1037,#1038),#1138,.F.);
#1169=ADVANCED_FACE('',(#1039,#1040),#229,.T.);
#1170=ADVANCED_FACE('',(#1041,#1042),#1139,.F.);
#1171=ADVANCED_FACE('',(#1043,#1044),#1140,.F.);
#1172=ADVANCED_FACE('',(#1045,#1046,#1047),#230,.T.);
#1173=ADVANCED_FACE('',(#1048),#231,.T.);
#1174=ADVANCED_FACE('',(#1049,#1050),#232,.F.);
#1175=ADVANCED_FACE('',(#1051,#1052,#1053),#233,.F.);
#1176=ADVANCED_FACE('',(#1054),#234,.T.);
#1177=ADVANCED_FACE('',(#1055),#235,.T.);
#1178=ADVANCED_FACE('',(#1056),#236,.T.);
#1179=ADVANCED_FACE('',(#1057),#237,.T.);
#1180=ADVANCED_FACE('',(#1058),#238,.F.);
#1181=ADVANCED_FACE('',(#1059),#239,.T.);
#1182=ADVANCED_FACE('',(#1060),#240,.T.);
#1183=ADVANCED_FACE('',(#1061),#241,.T.);
#1184=ADVANCED_FACE('',(#1062),#242,.F.);
#1185=ADVANCED_FACE('',(#1063),#243,.F.);
#1186=ADVANCED_FACE('',(#1064),#244,.F.);
#1187=ADVANCED_FACE('',(#1065),#245,.F.);
#1188=ADVANCED_FACE('',(#1066),#246,.T.);
#1189=ADVANCED_FACE('',(#1067),#247,.T.);
#1190=ADVANCED_FACE('',(#1068),#248,.T.);
#1191=ADVANCED_FACE('',(#1069),#249,.T.);
#1192=ADVANCED_FACE('',(#1070),#250,.T.);
#1193=ADVANCED_FACE('',(#1071),#251,.F.);
#1194=ADVANCED_FACE('',(#1072),#252,.T.);
#1195=ADVANCED_FACE('',(#1073),#253,.T.);
#1196=ADVANCED_FACE('',(#1074),#254,.F.);
#1197=ADVANCED_FACE('',(#1075),#255,.F.);
#1198=ADVANCED_FACE('',(#1076),#256,.F.);
#1199=ADVANCED_FACE('',(#1077),#257,.T.);
#1200=ADVANCED_FACE('',(#1078),#258,.T.);
#1201=ADVANCED_FACE('',(#1079),#259,.T.);
#1202=ADVANCED_FACE('',(#1080),#260,.T.);
#1203=ADVANCED_FACE('',(#1081),#261,.T.);
#1204=ADVANCED_FACE('',(#1082),#262,.F.);
#1205=ADVANCED_FACE('',(#1083),#263,.F.);
#1206=ADVANCED_FACE('',(#1084),#264,.T.);
#1207=ADVANCED_FACE('',(#1085),#265,.T.);
#1208=ADVANCED_FACE('',(#1086,#1087),#12,.F.);
#1209=ADVANCED_FACE('',(#1088,#1089),#13,.F.);
#1210=ADVANCED_FACE('',(#1090,#1091),#14,.F.);
#1211=ADVANCED_FACE('',(#1092,#1093),#15,.F.);
#1212=ADVANCED_FACE('',(#1094,#1095),#16,.F.);
#1213=ADVANCED_FACE('',(#1096,#1097),#17,.F.);
#1214=ADVANCED_FACE('',(#1098,#1099),#18,.F.);
#1215=ADVANCED_FACE('',(#1100,#1101),#19,.F.);
#1216=ADVANCED_FACE('',(#1102,#1103),#266,.T.);
#1217=ADVANCED_FACE('',(#1104,#1105),#1141,.F.);
#1218=ADVANCED_FACE('',(#1106,#1107),#267,.T.);
#1219=ADVANCED_FACE('',(#1108,#1109),#1142,.F.);
#1220=ADVANCED_FACE('',(#1110),#268,.T.);
#1221=ADVANCED_FACE('',(#1111,#1112),#1143,.F.);
#1222=ADVANCED_FACE('',(#1113),#269,.T.);
#1223=ADVANCED_FACE('',(#1114,#1115),#1144,.F.);
#1224=ADVANCED_FACE('',(#1116,#1117),#270,.T.);
#1225=ADVANCED_FACE('',(#1118,#1119),#1145,.F.);
#1226=ADVANCED_FACE('',(#1120,#1121),#271,.T.);
#1227=ADVANCED_FACE('',(#1122,#1123),#1146,.F.);
#1228=ADVANCED_FACE('',(#1124),#272,.T.);
#1229=ADVANCED_FACE('',(#1125,#1126),#1147,.F.);
#1230=ADVANCED_FACE('',(#1127),#273,.T.);
#1231=ADVANCED_FACE('',(#1128,#1129),#1148,.F.);
#1232=CLOSED_SHELL('',(#1149,#1150,#1151,#1152,#1153,#1154,#1155,#1156,
#1157,#1158,#1159,#1160,#1161,#1162,#1163,#1164,#1165,#1166,#1167,#1168,
#1169,#1170,#1171,#1172,#1173,#1174,#1175,#1176,#1177,#1178,#1179,#1180,
#1181,#1182,#1183,#1184,#1185,#1186,#1187,#1188,#1189,#1190,#1191,#1192,
#1193,#1194,#1195,#1196,#1197,#1198,#1199,#1200,#1201,#1202,#1203,#1204,
#1205,#1206,#1207,#1208,#1209,#1210,#1211,#1212,#1213,#1214,#1215,#1216,
#1217,#1218,#1219,#1220,#1221,#1222,#1223,#1224,#1225,#1226,#1227,#1228,
#1229,#1230,#1231));
#1233=STYLED_ITEM('',(#1234),#1241);
#1234=PRESENTATION_STYLE_ASSIGNMENT((#1235));
#1235=SURFACE_STYLE_USAGE(.BOTH.,#1236);
#1236=SURFACE_SIDE_STYLE('',(#1237));
#1237=SURFACE_STYLE_FILL_AREA(#1238);
#1238=FILL_AREA_STYLE('',(#1239));
#1239=FILL_AREA_STYLE_COLOUR('',#1240);
#1240=COLOUR_RGB('',0.647058823529412,0.647058823529412,0.647058823529412);
#1241=MANIFOLD_SOLID_BREP('hotend bloc',#1232);
#1242=SHAPE_DEFINITION_REPRESENTATION(#2074,#1243);
#1243=SHAPE_REPRESENTATION('hotend bloc',(#1244),#2069);
#1244=AXIS2_PLACEMENT_3D('',#1738,#1376,#1377);
#1245=AXIS2_PLACEMENT_3D('',#1739,#1378,#1379);
#1246=AXIS2_PLACEMENT_3D('',#1740,#1380,#1381);
#1247=AXIS2_PLACEMENT_3D('',#1742,#1382,#1383);
#1248=AXIS2_PLACEMENT_3D('',#1744,#1384,#1385);
#1249=AXIS2_PLACEMENT_3D('',#1745,#1386,#1387);
#1250=AXIS2_PLACEMENT_3D('',#1747,#1388,#1389);
#1251=AXIS2_PLACEMENT_3D('',#1749,#1390,#1391);
#1252=AXIS2_PLACEMENT_3D('',#1766,#1400,#1401);
#1253=AXIS2_PLACEMENT_3D('',#1791,#1414,#1415);
#1254=AXIS2_PLACEMENT_3D('',#1793,#1416,#1417);
#1255=AXIS2_PLACEMENT_3D('',#1795,#1418,#1419);
#1256=AXIS2_PLACEMENT_3D('',#1797,#1420,#1421);
#1257=AXIS2_PLACEMENT_3D('',#1799,#1422,#1423);
#1258=AXIS2_PLACEMENT_3D('',#1800,#1424,#1425);
#1259=AXIS2_PLACEMENT_3D('',#1802,#1426,#1427);
#1260=AXIS2_PLACEMENT_3D('',#1812,#1432,#1433);
#1261=AXIS2_PLACEMENT_3D('',#1813,#1434,#1435);
#1262=AXIS2_PLACEMENT_3D('',#1818,#1437,#1438);
#1263=AXIS2_PLACEMENT_3D('',#1829,#1444,#1445);
#1264=AXIS2_PLACEMENT_3D('',#1835,#1449,#1450);
#1265=AXIS2_PLACEMENT_3D('',#1836,#1451,#1452);
#1266=AXIS2_PLACEMENT_3D('',#1838,#1453,#1454);
#1267=AXIS2_PLACEMENT_3D('',#1845,#1458,#1459);
#1268=AXIS2_PLACEMENT_3D('',#1846,#1460,#1461);
#1269=AXIS2_PLACEMENT_3D('',#1848,#1462,#1463);
#1270=AXIS2_PLACEMENT_3D('',#1858,#1468,#1469);
#1271=AXIS2_PLACEMENT_3D('',#1860,#1470,#1471);
#1272=AXIS2_PLACEMENT_3D('',#1869,#1476,#1477);
#1273=AXIS2_PLACEMENT_3D('',#1870,#1478,#1479);
#1274=AXIS2_PLACEMENT_3D('',#1872,#1480,#1481);
#1275=AXIS2_PLACEMENT_3D('',#1874,#1482,#1483);
#1276=AXIS2_PLACEMENT_3D('',#1875,#1484,#1485);
#1277=AXIS2_PLACEMENT_3D('',#1877,#1486,#1487);
#1278=AXIS2_PLACEMENT_3D('',#1879,#1488,#1489);
#1279=AXIS2_PLACEMENT_3D('',#1880,#1490,#1491);
#1280=AXIS2_PLACEMENT_3D('',#1882,#1492,#1493);
#1281=AXIS2_PLACEMENT_3D('',#1884,#1494,#1495);
#1282=AXIS2_PLACEMENT_3D('',#1887,#1498,#1499);
#1283=AXIS2_PLACEMENT_3D('',#1888,#1500,#1501);
#1284=AXIS2_PLACEMENT_3D('',#1890,#1502,#1503);
#1285=AXIS2_PLACEMENT_3D('',#1892,#1504,#1505);
#1286=AXIS2_PLACEMENT_3D('',#1909,#1514,#1515);
#1287=AXIS2_PLACEMENT_3D('',#1911,#1516,#1517);
#1288=AXIS2_PLACEMENT_3D('',#1913,#1518,#1519);
#1289=AXIS2_PLACEMENT_3D('',#1915,#1520,#1521);
#1290=AXIS2_PLACEMENT_3D('',#1917,#1522,#1523);
#1291=AXIS2_PLACEMENT_3D('',#1918,#1524,#1525);
#1292=AXIS2_PLACEMENT_3D('',#1920,#1526,#1527);
#1293=AXIS2_PLACEMENT_3D('',#1921,#1528,#1529);
#1294=AXIS2_PLACEMENT_3D('',#1923,#1530,#1531);
#1295=AXIS2_PLACEMENT_3D('',#1924,#1532,#1533);
#1296=AXIS2_PLACEMENT_3D('',#1926,#1534,#1535);
#1297=AXIS2_PLACEMENT_3D('',#1927,#1536,#1537);
#1298=AXIS2_PLACEMENT_3D('',#1928,#1538,#1539);
#1299=AXIS2_PLACEMENT_3D('',#1929,#1540,#1541);
#1300=AXIS2_PLACEMENT_3D('',#1931,#1542,#1543);
#1301=AXIS2_PLACEMENT_3D('',#1932,#1544,#1545);
#1302=AXIS2_PLACEMENT_3D('',#1933,#1546,#1547);
#1303=AXIS2_PLACEMENT_3D('',#1934,#1548,#1549);
#1304=AXIS2_PLACEMENT_3D('',#1936,#1550,#1551);
#1305=AXIS2_PLACEMENT_3D('',#1942,#1555,#1556);
#1306=AXIS2_PLACEMENT_3D('',#1946,#1559,#1560);
#1307=AXIS2_PLACEMENT_3D('',#1950,#1563,#1564);
#1308=AXIS2_PLACEMENT_3D('',#1952,#1566,#1567);
#1309=AXIS2_PLACEMENT_3D('',#1956,#1571,#1572);
#1310=AXIS2_PLACEMENT_3D('',#1959,#1575,#1576);
#1311=AXIS2_PLACEMENT_3D('',#1961,#1578,#1579);
#1312=AXIS2_PLACEMENT_3D('',#1963,#1581,#1582);
#1313=AXIS2_PLACEMENT_3D('',#1965,#1584,#1585);
#1314=AXIS2_PLACEMENT_3D('',#1967,#1587,#1588);
#1315=AXIS2_PLACEMENT_3D('',#1969,#1590,#1591);
#1316=AXIS2_PLACEMENT_3D('',#1972,#1594,#1595);
#1317=AXIS2_PLACEMENT_3D('',#1974,#1597,#1598);
#1318=AXIS2_PLACEMENT_3D('',#1976,#1600,#1601);
#1319=AXIS2_PLACEMENT_3D('',#1978,#1603,#1604);
#1320=AXIS2_PLACEMENT_3D('',#1980,#1606,#1607);
#1321=AXIS2_PLACEMENT_3D('',#1982,#1609,#1610);
#1322=AXIS2_PLACEMENT_3D('',#1984,#1612,#1613);
#1323=AXIS2_PLACEMENT_3D('',#1987,#1616,#1617);
#1324=AXIS2_PLACEMENT_3D('',#1989,#1619,#1620);
#1325=AXIS2_PLACEMENT_3D('',#1991,#1622,#1623);
#1326=AXIS2_PLACEMENT_3D('',#1993,#1625,#1626);
#1327=AXIS2_PLACEMENT_3D('',#1995,#1628,#1629);
#1328=AXIS2_PLACEMENT_3D('',#1997,#1631,#1632);
#1329=AXIS2_PLACEMENT_3D('',#1999,#1634,#1635);
#1330=AXIS2_PLACEMENT_3D('',#2001,#1637,#1638);
#1331=AXIS2_PLACEMENT_3D('',#2003,#1640,#1641);
#1332=AXIS2_PLACEMENT_3D('',#2005,#1643,#1644);
#1333=AXIS2_PLACEMENT_3D('',#2007,#1646,#1647);
#1334=AXIS2_PLACEMENT_3D('',#2009,#1649,#1650);
#1335=AXIS2_PLACEMENT_3D('',#2011,#1652,#1653);
#1336=AXIS2_PLACEMENT_3D('',#2013,#1655,#1656);
#1337=AXIS2_PLACEMENT_3D('',#2015,#1658,#1659);
#1338=AXIS2_PLACEMENT_3D('',#2017,#1661,#1662);
#1339=AXIS2_PLACEMENT_3D('',#2019,#1664,#1665);
#1340=AXIS2_PLACEMENT_3D('',#2020,#1666,#1667);
#1341=AXIS2_PLACEMENT_3D('',#2021,#1668,#1669);
#1342=AXIS2_PLACEMENT_3D('',#2022,#1670,#1671);
#1343=AXIS2_PLACEMENT_3D('',#2023,#1672,#1673);
#1344=AXIS2_PLACEMENT_3D('',#2024,#1674,#1675);
#1345=AXIS2_PLACEMENT_3D('',#2025,#1676,#1677);
#1346=AXIS2_PLACEMENT_3D('',#2026,#1678,#1679);
#1347=AXIS2_PLACEMENT_3D('',#2027,#1680,#1681);
#1348=AXIS2_PLACEMENT_3D('',#2028,#1682,#1683);
#1349=AXIS2_PLACEMENT_3D('',#2029,#1684,#1685);
#1350=AXIS2_PLACEMENT_3D('',#2031,#1686,#1687);
#1351=AXIS2_PLACEMENT_3D('',#2033,#1688,#1689);
#1352=AXIS2_PLACEMENT_3D('',#2034,#1690,#1691);
#1353=AXIS2_PLACEMENT_3D('',#2035,#1692,#1693);
#1354=AXIS2_PLACEMENT_3D('',#2037,#1694,#1695);
#1355=AXIS2_PLACEMENT_3D('',#2039,#1696,#1697);
#1356=AXIS2_PLACEMENT_3D('',#2040,#1698,#1699);
#1357=AXIS2_PLACEMENT_3D('',#2041,#1700,#1701);
#1358=AXIS2_PLACEMENT_3D('',#2043,#1702,#1703);
#1359=AXIS2_PLACEMENT_3D('',#2044,#1704,#1705);
#1360=AXIS2_PLACEMENT_3D('',#2045,#1706,#1707);
#1361=AXIS2_PLACEMENT_3D('',#2047,#1708,#1709);
#1362=AXIS2_PLACEMENT_3D('',#2048,#1710,#1711);
#1363=AXIS2_PLACEMENT_3D('',#2049,#1712,#1713);
#1364=AXIS2_PLACEMENT_3D('',#2051,#1714,#1715);
#1365=AXIS2_PLACEMENT_3D('',#2053,#1716,#1717);
#1366=AXIS2_PLACEMENT_3D('',#2054,#1718,#1719);
#1367=AXIS2_PLACEMENT_3D('',#2055,#1720,#1721);
#1368=AXIS2_PLACEMENT_3D('',#2057,#1722,#1723);
#1369=AXIS2_PLACEMENT_3D('',#2059,#1724,#1725);
#1370=AXIS2_PLACEMENT_3D('',#2060,#1726,#1727);
#1371=AXIS2_PLACEMENT_3D('',#2061,#1728,#1729);
#1372=AXIS2_PLACEMENT_3D('',#2063,#1730,#1731);
#1373=AXIS2_PLACEMENT_3D('',#2064,#1732,#1733);
#1374=AXIS2_PLACEMENT_3D('',#2065,#1734,#1735);
#1375=AXIS2_PLACEMENT_3D('',#2067,#1736,#1737);
#1376=DIRECTION('',(0.,0.,1.));
#1377=DIRECTION('',(1.,0.,0.));
#1378=DIRECTION('',(-1.,7.91033905045828E-16,2.949109904838E-15));
#1379=DIRECTION('',(2.949109904838E-15,0.,1.));
#1380=DIRECTION('',(1.,1.22464679914735E-16,0.));
#1381=DIRECTION('',(-1.22464679914735E-16,1.,0.));
#1382=DIRECTION('',(-1.,-1.22464679914735E-16,-1.29456975819164E-16));
#1383=DIRECTION('',(-1.29456975819164E-16,0.,1.));
#1384=DIRECTION('',(-1.,7.91033905045828E-16,2.949109904838E-15));
#1385=DIRECTION('',(2.949109904838E-15,0.,1.));
#1386=DIRECTION('',(1.,1.22464679914735E-16,0.));
#1387=DIRECTION('',(-1.22464679914735E-16,1.,0.));
#1388=DIRECTION('',(-1.,-1.22464679914735E-16,-1.29456975819164E-16));
#1389=DIRECTION('',(-1.29456975819164E-16,0.,1.));
#1390=DIRECTION('',(0.,0.,1.));
#1391=DIRECTION('',(1.,0.,0.));
#1392=DIRECTION('',(1.22464679914735E-16,-1.,0.));
#1393=DIRECTION('',(-1.,-1.22464679914735E-16,0.));
#1394=DIRECTION('',(-1.22464679914735E-16,1.,-1.58539071064236E-32));
#1395=DIRECTION('',(1.,1.22464679914735E-16,0.));
#1396=DIRECTION('',(-1.22464679914735E-16,1.,-1.58539071064236E-32));
#1397=DIRECTION('',(-1.,-1.22464679914735E-16,0.));
#1398=DIRECTION('',(-1.22464679914735E-16,1.,0.));
#1399=DIRECTION('',(1.,1.22464679914735E-16,0.));
#1400=DIRECTION('',(1.22464679914735E-16,-1.,0.));
#1401=DIRECTION('',(1.,1.22464679914735E-16,0.));
#1402=DIRECTION('',(1.29456975819164E-16,1.58539071064236E-32,-1.));
#1403=DIRECTION('',(1.,1.22464679914735E-16,0.));
#1404=DIRECTION('',(0.,0.,1.));
#1405=DIRECTION('',(0.672672793996313,8.23786584041092E-17,0.739940073395943));
#1406=DIRECTION('',(0.,0.,1.));
#1407=DIRECTION('',(-1.,-1.22464679914735E-16,0.));
#1408=DIRECTION('',(0.,0.,-1.));
#1409=DIRECTION('',(0.573462344363328,7.02288824456087E-17,-0.819231920519041));
#1410=DIRECTION('',(0.,0.,-1.));
#1411=DIRECTION('',(1.,1.22464679914735E-16,0.));
#1412=DIRECTION('',(-1.29456975819164E-16,-1.58539071064236E-32,1.));
#1413=DIRECTION('',(1.,1.22464679914735E-16,0.));
#1414=DIRECTION('',(1.22464679914735E-16,-1.,0.));
#1415=DIRECTION('',(1.,1.22464679914735E-16,0.));
#1416=DIRECTION('',(1.22464679914735E-16,-1.,0.));
#1417=DIRECTION('',(1.,1.22464679914735E-16,0.));
#1418=DIRECTION('',(1.22464679914735E-16,-1.,0.));
#1419=DIRECTION('',(1.,1.22464679914735E-16,0.));
#1420=DIRECTION('',(1.22464679914735E-16,-1.,0.));
#1421=DIRECTION('',(1.,1.22464679914735E-16,0.));
#1422=DIRECTION('',(-1.,-1.22464679914735E-16,0.));
#1423=DIRECTION('',(1.22464679914735E-16,-1.,0.));
#1424=DIRECTION('',(-1.,-1.22464679914735E-16,0.));
#1425=DIRECTION('',(1.22464679914735E-16,-1.,0.));
#1426=DIRECTION('',(-1.,-1.22464679914735E-16,0.));
#1427=DIRECTION('',(1.22464679914735E-16,-1.,0.));
#1428=DIRECTION('',(1.22464679914735E-16,-1.,0.));
#1429=DIRECTION('',(0.,0.,1.));
#1430=DIRECTION('',(-1.22464679914735E-16,1.,0.));
#1431=DIRECTION('',(0.,0.,-1.));
#1432=DIRECTION('',(-1.,-1.22464679914735E-16,0.));
#1433=DIRECTION('',(1.22464679914735E-16,-1.,0.));
#1434=DIRECTION('',(-1.,-1.22464679914735E-16,0.));
#1435=DIRECTION('',(1.22464679914735E-16,-1.,0.));
#1436=DIRECTION('',(-1.22464679914735E-16,1.,0.));
#1437=DIRECTION('',(-1.,-1.22464679914735E-16,0.));
#1438=DIRECTION('',(1.22464679914735E-16,-1.,0.));
#1439=DIRECTION('',(-1.22464679914735E-16,1.,0.));
#1440=DIRECTION('',(0.,0.,1.));
#1441=DIRECTION('',(-1.22464679914735E-16,1.,0.));
#1442=DIRECTION('',(0.,0.,-1.));
#1443=DIRECTION('',(-1.22464679914735E-16,1.,0.));
#1444=DIRECTION('',(-0.739940073395943,-9.06165242445199E-17,0.672672793996313));
#1445=DIRECTION('',(0.672672793996313,0.,0.739940073395943));
#1446=DIRECTION('',(-1.22464679914735E-16,1.,0.));
#1447=DIRECTION('',(-0.672672793996313,-8.23786584041092E-17,-0.739940073395943));
#1448=DIRECTION('',(0.672672793996313,8.23786584041092E-17,0.739940073395943));
#1449=DIRECTION('',(1.,1.22464679914735E-16,0.));
#1450=DIRECTION('',(-1.22464679914735E-16,1.,0.));
#1451=DIRECTION('',(-1.,-1.22464679914735E-16,0.));
#1452=DIRECTION('',(1.22464679914735E-16,-1.,0.));
#1453=DIRECTION('',(-1.,-1.22464679914735E-16,0.));
#1454=DIRECTION('',(1.22464679914735E-16,-1.,0.));
#1455=DIRECTION('',(1.22464679914735E-16,-1.,0.));
#1456=DIRECTION('',(0.,0.,-1.));
#1457=DIRECTION('',(0.,0.,1.));
#1458=DIRECTION('',(0.,0.,1.));
#1459=DIRECTION('',(1.,0.,0.));
#1460=DIRECTION('',(0.,0.,-1.));
#1461=DIRECTION('',(-1.,0.,0.));
#1462=DIRECTION('',(0.,0.,-1.));
#1463=DIRECTION('',(-1.,0.,0.));
#1464=DIRECTION('',(1.22464679914735E-16,-1.,0.));
#1465=DIRECTION('',(1.,1.22464679914735E-16,0.));
#1466=DIRECTION('',(-1.22464679914735E-16,1.,0.));
#1467=DIRECTION('',(-1.,-1.22464679914735E-16,0.));
#1468=DIRECTION('',(2.949109904838E-15,4.16333634234441E-16,1.));
#1469=DIRECTION('',(1.,0.,-2.949109904838E-15));
#1470=DIRECTION('',(1.,1.22464679914735E-16,0.));
#1471=DIRECTION('',(-1.22464679914735E-16,1.,0.));
#1472=DIRECTION('',(-1.22464679914735E-16,1.,0.));
#1473=DIRECTION('',(0.,0.,1.));
#1474=DIRECTION('',(-1.22464679914735E-16,1.,0.));
#1475=DIRECTION('',(0.,0.,-1.));
#1476=DIRECTION('',(-1.22464679914735E-16,1.,0.));
#1477=DIRECTION('',(-1.,-1.22464679914735E-16,0.));
#1478=DIRECTION('',(0.,-1.,0.));
#1479=DIRECTION('',(0.,0.,-1.));
#1480=DIRECTION('',(0.,-1.,0.));
#1481=DIRECTION('',(0.,0.,-1.));
#1482=DIRECTION('',(-1.22464679914735E-16,1.,0.));
#1483=DIRECTION('',(-1.,-1.22464679914735E-16,0.));
#1484=DIRECTION('',(0.,-1.,0.));
#1485=DIRECTION('',(0.,0.,-1.));
#1486=DIRECTION('',(0.,-1.,0.));
#1487=DIRECTION('',(0.,0.,-1.));
#1488=DIRECTION('',(-1.22464679914735E-16,1.,0.));
#1489=DIRECTION('',(-1.,-1.22464679914735E-16,0.));
#1490=DIRECTION('',(0.,-1.,0.));
#1491=DIRECTION('',(0.,0.,-1.));
#1492=DIRECTION('',(0.,-1.,0.));
#1493=DIRECTION('',(0.,0.,-1.));
#1494=DIRECTION('',(0.819231920519041,1.00326974922298E-16,0.573462344363328));
#1495=DIRECTION('',(0.573462344363328,0.,-0.819231920519041));
#1496=DIRECTION('',(-0.573462344363328,-7.02288824456087E-17,0.819231920519041));
#1497=DIRECTION('',(0.573462344363328,7.02288824456087E-17,-0.819231920519041));
#1498=DIRECTION('',(-1.22464679914735E-16,1.,0.));
#1499=DIRECTION('',(-1.,-1.22464679914735E-16,0.));
#1500=DIRECTION('',(0.,-1.,0.));
#1501=DIRECTION('',(0.,0.,-1.));
#1502=DIRECTION('',(0.,-1.,0.));
#1503=DIRECTION('',(0.,0.,-1.));
#1504=DIRECTION('',(1.22464679914735E-16,-1.,0.));
#1505=DIRECTION('',(1.,1.22464679914735E-16,0.));
#1506=DIRECTION('',(0.,0.,-1.));
#1507=DIRECTION('',(-1.,-1.22464679914735E-16,0.));
#1508=DIRECTION('',(0.,0.,1.));
#1509=DIRECTION('',(-0.573462344363328,-7.02288824456087E-17,0.819231920519041));
#1510=DIRECTION('',(0.,0.,1.));
#1511=DIRECTION('',(1.,1.22464679914735E-16,0.));
#1512=DIRECTION('',(0.,0.,-1.));
#1513=DIRECTION('',(-0.672672793996313,-8.23786584041092E-17,-0.739940073395943));
#1514=DIRECTION('',(1.22464679914735E-16,-1.,0.));
#1515=DIRECTION('',(1.,1.22464679914735E-16,0.));
#1516=DIRECTION('',(1.22464679914735E-16,-1.,0.));
#1517=DIRECTION('',(1.,1.22464679914735E-16,0.));
#1518=DIRECTION('',(1.22464679914735E-16,-1.,0.));
#1519=DIRECTION('',(1.,1.22464679914735E-16,0.));
#1520=DIRECTION('',(1.22464679914735E-16,-1.,0.));
#1521=DIRECTION('',(1.,1.22464679914735E-16,0.));
#1522=DIRECTION('',(-1.,7.91033905045828E-16,2.949109904838E-15));
#1523=DIRECTION('',(2.949109904838E-15,0.,1.));
#1524=DIRECTION('',(-1.,-1.22464679914735E-16,-1.29456975819164E-16));
#1525=DIRECTION('',(-1.29456975819164E-16,0.,1.));
#1526=DIRECTION('',(-1.,7.91033905045828E-16,2.949109904838E-15));
#1527=DIRECTION('',(2.949109904838E-15,0.,1.));
#1528=DIRECTION('',(-1.,-1.22464679914735E-16,-1.29456975819164E-16));
#1529=DIRECTION('',(-1.29456975819164E-16,0.,1.));
#1530=DIRECTION('',(1.,1.22464679914735E-16,0.));
#1531=DIRECTION('',(-1.22464679914735E-16,1.,0.));
#1532=DIRECTION('',(-1.,-1.22464679914735E-16,0.));
#1533=DIRECTION('',(1.22464679914735E-16,-1.,0.));
#1534=DIRECTION('',(-1.,-1.22464679914735E-16,0.));
#1535=DIRECTION('',(1.22464679914735E-16,-1.,0.));
#1536=DIRECTION('',(-0.707106781186548,-8.65956056235493E-17,0.707106781186548));
#1537=DIRECTION('',(-0.707106781186548,-8.65956056235493E-17,-0.707106781186548));
#1538=DIRECTION('',(1.,1.22464679914735E-16,0.));
#1539=DIRECTION('',(-1.22464679914735E-16,1.,0.));
#1540=DIRECTION('',(-1.,-1.22464679914735E-16,0.));
#1541=DIRECTION('',(1.22464679914735E-16,-1.,0.));
#1542=DIRECTION('',(-1.,-1.22464679914735E-16,0.));
#1543=DIRECTION('',(1.22464679914735E-16,-1.,0.));
#1544=DIRECTION('',(-0.707106781186548,-8.65956056235493E-17,0.707106781186548));
#1545=DIRECTION('',(-0.707106781186548,-8.65956056235493E-17,-0.707106781186548));
#1546=DIRECTION('',(2.949109904838E-15,4.16333634234441E-16,1.));
#1547=DIRECTION('',(1.,0.,-2.949109904838E-15));
#1548=DIRECTION('',(0.,0.,1.));
#1549=DIRECTION('',(1.,0.,0.));
#1550=DIRECTION('',(-1.,-1.22464679914735E-16,-1.29456975819164E-16));
#1551=DIRECTION('',(-1.29456975819164E-16,0.,1.));
#1552=DIRECTION('',(-1.29456975819164E-16,-1.58539071064236E-32,1.));
#1553=DIRECTION('',(-1.22464679914735E-16,1.,0.));
#1554=DIRECTION('',(1.29456975819164E-16,1.58539071064236E-32,-1.));
#1555=DIRECTION('',(1.22464679914735E-16,-1.,0.));
#1556=DIRECTION('',(1.,1.22464679914735E-16,0.));
#1557=DIRECTION('',(-1.,-1.22464679914735E-16,0.));
#1558=DIRECTION('',(1.29456975819164E-16,1.58539071064236E-32,-1.));
#1559=DIRECTION('',(0.,0.,1.));
#1560=DIRECTION('',(1.,0.,0.));
#1561=DIRECTION('',(-1.,-1.22464679914735E-16,0.));
#1562=DIRECTION('',(-1.22464679914735E-16,1.,0.));
#1563=DIRECTION('',(-1.,-1.22464679914735E-16,-1.29456975819164E-16));
#1564=DIRECTION('',(-1.29456975819164E-16,0.,1.));
#1565=DIRECTION('',(1.29456975819164E-16,1.58539071064236E-32,-1.));
#1566=DIRECTION('',(-0.577350269189627,0.577350269189627,0.577350269189624));
#1567=DIRECTION('',(-0.707106781186548,-0.707106781186548,0.));
#1568=DIRECTION('',(0.707106781186548,0.707106781186548,0.));
#1569=DIRECTION('',(0.707106781186548,2.59599962661781E-15,0.707106781186548));
#1570=DIRECTION('',(2.59599962661781E-15,0.707106781186548,-0.707106781186548));
#1571=DIRECTION('',(-0.707106781186544,-0.707106781186551,0.));
#1572=DIRECTION('',(0.,0.,1.));
#1573=DIRECTION('',(0.707106781186552,-0.707106781186544,-2.49923493000131E-15));
#1574=DIRECTION('',(0.690169905341478,-0.69016990534147,0.217556897205954));
#1575=DIRECTION('',(-0.707106781186548,-8.65956056235493E-17,0.707106781186548));
#1576=DIRECTION('',(1.22464679914735E-16,-1.,0.));
#1577=DIRECTION('',(-0.707106781186548,0.,-0.707106781186548));
#1578=DIRECTION('',(-8.65956056235493E-17,0.707106781186548,0.707106781186548));
#1579=DIRECTION('',(-1.,-1.22464679914735E-16,0.));
#1580=DIRECTION('',(-2.30755522366028E-15,-0.707106781186548,0.707106781186548));
#1581=DIRECTION('',(0.707106781186548,-0.707106781186548,0.));
#1582=DIRECTION('',(0.,0.,-1.));
#1583=DIRECTION('',(-0.690169905341475,-0.690169905341475,-0.217556897205947));
#1584=DIRECTION('',(-0.579284446363488,-0.707106781186553,-0.405499112454441));
#1585=DIRECTION('',(-0.573462344363328,-7.02288824456087E-17,0.819231920519041));
#1586=DIRECTION('',(-0.690169905341478,0.69016990534147,-0.217556897205954));
#1587=DIRECTION('',(-0.577350269189623,-0.577350269189631,0.577350269189623));
#1588=DIRECTION('',(0.,-0.707106781186543,-0.707106781186553));
#1589=DIRECTION('',(9.9032578348754E-15,-0.707106781186548,-0.707106781186548));
#1590=DIRECTION('',(0.577350269189625,0.577350269189625,0.577350269189627));
#1591=DIRECTION('',(0.707106781186549,0.,-0.707106781186546));
#1592=DIRECTION('',(-0.707106781186548,0.707106781186548,0.));
#1593=DIRECTION('',(-0.707106781186548,-2.30755522366028E-15,0.707106781186548));
#1594=DIRECTION('',(0.579284446363492,-0.707106781186548,0.405499112454444));
#1595=DIRECTION('',(0.573462344363328,7.02288824456087E-17,-0.819231920519041));
#1596=DIRECTION('',(0.690169905341475,0.690169905341475,0.217556897205947));
#1597=DIRECTION('',(0.707106781186544,0.707106781186551,0.));
#1598=DIRECTION('',(0.,0.,1.));
#1599=DIRECTION('',(0.707106781186551,-0.707106781186544,1.15776313317223E-15));
#1600=DIRECTION('',(-8.65956056235493E-17,0.707106781186548,-0.707106781186548));
#1601=DIRECTION('',(1.,1.22464679914735E-16,0.));
#1602=DIRECTION('',(-2.47209591668299E-15,0.707106781186548,0.707106781186548));
#1603=DIRECTION('',(-0.707106781186548,-8.65956056235493E-17,-0.707106781186548));
#1604=DIRECTION('',(-1.22464679914735E-16,1.,0.));
#1605=DIRECTION('',(0.707106781186548,2.59599962661782E-15,-0.707106781186548));
#1606=DIRECTION('',(0.707106781186548,0.707106781186548,0.));
#1607=DIRECTION('',(0.,0.,1.));
#1608=DIRECTION('',(0.682079227832973,-0.682079227832973,-0.26369651859202));
#1609=DIRECTION('',(-0.707106781186548,0.707106781186548,0.));
#1610=DIRECTION('',(0.,0.,-1.));
#1611=DIRECTION('',(0.707106781186547,0.707106781186547,1.06590880134382E-15));
#1612=DIRECTION('',(-0.707106781186548,-8.65956056235494E-17,-0.707106781186547));
#1613=DIRECTION('',(1.22464679914735E-16,-1.,0.));
#1614=DIRECTION('',(0.707106781186547,4.73901415725533E-15,-0.707106781186548));
#1615=DIRECTION('',(-0.707106781186547,-2.59599962661781E-15,0.707106781186548));
#1616=DIRECTION('',(-0.577350269189623,-0.57735026918963,-0.577350269189625));
#1617=DIRECTION('',(0.,0.707106781186545,-0.70710678118655));
#1618=DIRECTION('',(5.67273992483155E-15,-0.707106781186548,0.707106781186547));
#1619=DIRECTION('',(0.577350269189628,-0.577350269189624,0.577350269189626));
#1620=DIRECTION('',(0.707106781186546,0.,-0.707106781186549));
#1621=DIRECTION('',(-0.707106781186546,-0.707106781186549,2.47147935438566E-15));
#1622=DIRECTION('',(-0.523216643569943,-0.707106781186548,0.475651494154495));
#1623=DIRECTION('',(0.672672793996313,8.23786584041092E-17,0.739940073395943));
#1624=DIRECTION('',(-0.682079227832971,0.682079227832973,0.263696518592023));
#1625=DIRECTION('',(-0.577350269189627,0.577350269189627,-0.577350269189623));
#1626=DIRECTION('',(-0.707106781186548,-0.707106781186547,0.));
#1627=DIRECTION('',(4.32666604436302E-15,0.707106781186547,0.707106781186548));
#1628=DIRECTION('',(8.65956056235493E-17,-0.707106781186547,-0.707106781186548));
#1629=DIRECTION('',(-1.,-1.22464679914735E-16,0.));
#1630=DIRECTION('',(-0.577350269189626,-0.577350269189626,0.577350269189625));
#1631=DIRECTION('',(-0.707106781186549,0.707106781186546,0.));
#1632=DIRECTION('',(0.,0.,-1.));
#1633=DIRECTION('',(-0.682079227832972,-0.682079227832974,0.263696518592019));
#1634=DIRECTION('',(-0.707106781186549,-0.707106781186546,0.));
#1635=DIRECTION('',(0.,0.,1.));
#1636=DIRECTION('',(-0.707106781186546,0.707106781186549,1.31371622121344E-15));
#1637=DIRECTION('',(8.65956056235494E-17,-0.707106781186548,0.707106781186547));
#1638=DIRECTION('',(1.,1.22464679914735E-16,0.));
#1639=DIRECTION('',(3.2006440081485E-15,-0.707106781186547,-0.707106781186548));
#1640=DIRECTION('',(0.707106781186547,-0.707106781186548,9.1539905473634E-17));
#1641=DIRECTION('',(1.29456975819164E-16,1.58539071064236E-32,-1.));
#1642=DIRECTION('',(-0.577350269189626,-0.577350269189626,0.577350269189626));
#1643=DIRECTION('',(0.523216643569944,-0.707106781186546,-0.475651494154496));
#1644=DIRECTION('',(-0.672672793996313,-8.23786584041092E-17,-0.739940073395943));
#1645=DIRECTION('',(0.682079227832972,0.682079227832974,-0.263696518592019));
#1646=DIRECTION('',(0.577350269189627,0.577350269189627,-0.577350269189623));
#1647=DIRECTION('',(-0.707106781186547,0.707106781186548,0.));
#1648=DIRECTION('',(0.707106781186548,-4.87579927466245E-15,0.707106781186548));
#1649=DIRECTION('',(8.65956056235493E-17,-0.707106781186548,-0.707106781186548));
#1650=DIRECTION('',(-1.,-1.22464679914735E-16,0.));
#1651=DIRECTION('',(-0.577350269189626,0.577350269189626,-0.577350269189626));
#1652=DIRECTION('',(0.707106781186549,-0.707106781186546,0.));
#1653=DIRECTION('',(0.,0.,-1.));
#1654=DIRECTION('',(-0.707106781186546,-0.707106781186549,-1.15776313317223E-15));
#1655=DIRECTION('',(-0.707106781186548,-8.65956056235493E-17,0.707106781186548));
#1656=DIRECTION('',(-1.22464679914735E-16,1.,0.));
#1657=DIRECTION('',(-0.707106781186548,0.,-0.707106781186548));
#1658=DIRECTION('',(0.707106781186548,0.707106781186548,9.15399054736341E-17));
#1659=DIRECTION('',(-1.29456975819164E-16,-1.58539071064236E-32,1.));
#1660=DIRECTION('',(-0.577350269189626,0.577350269189626,-0.577350269189626));
#1661=DIRECTION('',(0.577350269189627,-0.577350269189624,-0.577350269189627));
#1662=DIRECTION('',(-0.707106781186548,0.,-0.707106781186548));
#1663=DIRECTION('',(-2.98059216389452E-15,0.707106781186548,-0.707106781186547));
#1664=DIRECTION('',(8.65956056235493E-17,-0.707106781186547,-0.707106781186548));
#1665=DIRECTION('',(-1.,-1.22464679914735E-16,0.));
#1666=DIRECTION('',(0.,-1.,0.));
#1667=DIRECTION('',(0.,0.,-1.));
#1668=DIRECTION('',(0.,-1.,0.));
#1669=DIRECTION('',(0.,0.,-1.));
#1670=DIRECTION('',(0.,-1.,0.));
#1671=DIRECTION('',(0.,0.,-1.));
#1672=DIRECTION('',(0.,-1.,0.));
#1673=DIRECTION('',(0.,0.,-1.));
#1674=DIRECTION('',(0.,1.,0.));
#1675=DIRECTION('',(0.,0.,1.));
#1676=DIRECTION('',(0.,1.,0.));
#1677=DIRECTION('',(0.,0.,1.));
#1678=DIRECTION('',(0.,1.,0.));
#1679=DIRECTION('',(0.,0.,1.));
#1680=DIRECTION('',(0.,1.,0.));
#1681=DIRECTION('',(0.,0.,1.));
#1682=DIRECTION('',(1.,1.22464679914735E-16,0.));
#1683=DIRECTION('',(-1.22464679914735E-16,1.,0.));
#1684=DIRECTION('',(1.,1.22464679914735E-16,0.));
#1685=DIRECTION('',(-1.22464679914735E-16,1.,0.));
#1686=DIRECTION('',(-1.,-1.22464679914735E-16,0.));
#1687=DIRECTION('',(1.22464679914735E-16,-1.,0.));
#1688=DIRECTION('',(-1.,-1.22464679914735E-16,0.));
#1689=DIRECTION('',(1.22464679914735E-16,-1.,0.));
#1690=DIRECTION('',(1.,1.22464679914735E-16,0.));
#1691=DIRECTION('',(-1.22464679914735E-16,1.,0.));
#1692=DIRECTION('',(1.,1.22464679914735E-16,0.));
#1693=DIRECTION('',(-1.22464679914735E-16,1.,0.));
#1694=DIRECTION('',(-1.,-1.22464679914735E-16,0.));
#1695=DIRECTION('',(1.22464679914735E-16,-1.,0.));
#1696=DIRECTION('',(-1.,-1.22464679914735E-16,0.));
#1697=DIRECTION('',(1.22464679914735E-16,-1.,0.));
#1698=DIRECTION('',(1.,1.22464679914735E-16,0.));
#1699=DIRECTION('',(-1.22464679914735E-16,1.,0.));
#1700=DIRECTION('',(-1.,-1.22464679914735E-16,0.));
#1701=DIRECTION('',(1.22464679914735E-16,-1.,0.));
#1702=DIRECTION('',(-1.,-1.22464679914735E-16,0.));
#1703=DIRECTION('',(1.22464679914735E-16,-1.,0.));
#1704=DIRECTION('',(1.,1.22464679914735E-16,0.));
#1705=DIRECTION('',(-1.22464679914735E-16,1.,0.));
#1706=DIRECTION('',(-1.,-1.22464679914735E-16,0.));
#1707=DIRECTION('',(1.22464679914735E-16,-1.,0.));
#1708=DIRECTION('',(-1.,-1.22464679914735E-16,0.));
#1709=DIRECTION('',(1.22464679914735E-16,-1.,0.));
#1710=DIRECTION('',(0.,0.,1.));
#1711=DIRECTION('',(1.,0.,0.));
#1712=DIRECTION('',(0.,0.,1.));
#1713=DIRECTION('',(1.,0.,0.));
#1714=DIRECTION('',(0.,0.,-1.));
#1715=DIRECTION('',(-1.,0.,0.));
#1716=DIRECTION('',(0.,0.,-1.));
#1717=DIRECTION('',(-1.,0.,0.));
#1718=DIRECTION('',(0.,0.,1.));
#1719=DIRECTION('',(1.,0.,0.));
#1720=DIRECTION('',(0.,0.,1.));
#1721=DIRECTION('',(1.,0.,0.));
#1722=DIRECTION('',(0.,0.,-1.));
#1723=DIRECTION('',(-1.,0.,0.));
#1724=DIRECTION('',(0.,0.,-1.));
#1725=DIRECTION('',(-1.,0.,0.));
#1726=DIRECTION('',(0.,0.,1.));
#1727=DIRECTION('',(1.,0.,0.));
#1728=DIRECTION('',(0.,0.,-1.));
#1729=DIRECTION('',(-1.,0.,0.));
#1730=DIRECTION('',(0.,0.,-1.));
#1731=DIRECTION('',(-1.,0.,0.));
#1732=DIRECTION('',(0.,0.,1.));
#1733=DIRECTION('',(1.,0.,0.));
#1734=DIRECTION('',(0.,0.,-1.));
#1735=DIRECTION('',(-1.,0.,0.));
#1736=DIRECTION('',(0.,0.,-1.));
#1737=DIRECTION('',(-1.,0.,0.));
#1738=CARTESIAN_POINT('',(0.,0.,0.));
#1739=CARTESIAN_POINT('',(0.0145,-0.026075,-0.018175));
#1740=CARTESIAN_POINT('',(0.0095,-0.026075,-0.018175));
#1741=CARTESIAN_POINT('',(0.0095,-0.024525,-0.018175));
#1742=CARTESIAN_POINT('',(0.00396000000000016,-0.026075,-0.018175));
#1743=CARTESIAN_POINT('',(0.00396000000000016,-0.026075,-0.016625));
#1744=CARTESIAN_POINT('',(0.0145,-0.032925,-0.018175));
#1745=CARTESIAN_POINT('',(0.0095,-0.032925,-0.018175));
#1746=CARTESIAN_POINT('',(0.0095,-0.031375,-0.018175));
#1747=CARTESIAN_POINT('',(0.00396000000000016,-0.032925,-0.018175));
#1748=CARTESIAN_POINT('',(0.00396000000000016,-0.032925,-0.016625));
#1749=CARTESIAN_POINT('',(-0.00713,-0.0235,-0.0215));
#1750=CARTESIAN_POINT('',(0.0135,-0.0235,-0.0215));
#1751=CARTESIAN_POINT('',(0.0135,-0.0205,-0.0215));
#1752=CARTESIAN_POINT('',(0.0135,-0.0355,-0.0215));
#1753=CARTESIAN_POINT('',(0.00396000000000016,-0.0355,-0.0215));
#1754=CARTESIAN_POINT('',(0.00396000000000016,-0.0355,-0.0215));
#1755=CARTESIAN_POINT('',(0.00396000000000016,-0.0365,-0.0215));
#1756=CARTESIAN_POINT('',(0.00396000000000016,-0.0233,-0.0215));
#1757=CARTESIAN_POINT('',(2.85342704201333E-18,-0.0233,-0.0215));
#1758=CARTESIAN_POINT('',(-0.00395999999999984,-0.0233,-0.0215));
#1759=CARTESIAN_POINT('',(-0.00395999999999984,-0.0365,-0.0215));
#1760=CARTESIAN_POINT('',(-0.00395999999999984,-0.0355,-0.0215));
#1761=CARTESIAN_POINT('',(-0.01519,-0.0355,-0.0215));
#1762=CARTESIAN_POINT('',(-0.01419,-0.0355,-0.0215));
#1763=CARTESIAN_POINT('',(-0.01419,-0.0195,-0.0215));
#1764=CARTESIAN_POINT('',(-0.01419,-0.0205,-0.0215));
#1765=CARTESIAN_POINT('',(-0.00713,-0.0205,-0.0215));
#1766=CARTESIAN_POINT('',(4.46996081688784E-18,-0.0365,-0.0139));
#1767=CARTESIAN_POINT('',(0.00496000000000015,-0.0365,-0.0139));
#1768=CARTESIAN_POINT('',(0.00496000000000015,-0.0365,-0.0136));
#1769=CARTESIAN_POINT('',(0.00496000000000016,-0.0365,-0.0205));
#1770=CARTESIAN_POINT('',(0.0145,-0.0365,-0.0205));
#1771=CARTESIAN_POINT('',(0.0135,-0.0365,-0.0205));
#1772=CARTESIAN_POINT('',(0.0135,-0.0365,-0.0148));
#1773=CARTESIAN_POINT('',(0.0135,-0.0365,-0.0144133931252682));
#1774=CARTESIAN_POINT('',(0.0167600599266041,-0.0365,-0.0108273272060037));
#1775=CARTESIAN_POINT('',(0.0165,-0.0365,-0.0111133931252682));
#1776=CARTESIAN_POINT('',(0.0165,-0.0365,-0.0139));
#1777=CARTESIAN_POINT('',(0.0165,-0.0365,0.0052));
#1778=CARTESIAN_POINT('',(4.46996081688784E-18,-0.0365,0.0052));
#1779=CARTESIAN_POINT('',(-0.0165,-0.0365,0.0052));
#1780=CARTESIAN_POINT('',(-0.0165,-0.0365,-0.0115));
#1781=CARTESIAN_POINT('',(-0.0165,-0.0365,-0.0111847777691809));
#1782=CARTESIAN_POINT('',(-0.014370768079481,-0.0365,-0.0142265376556367));
#1783=CARTESIAN_POINT('',(-0.01419,-0.0365,-0.0144847777691809));
#1784=CARTESIAN_POINT('',(-0.01419,-0.0365,-0.0139));
#1785=CARTESIAN_POINT('',(-0.01419,-0.0365,-0.0205));
#1786=CARTESIAN_POINT('',(-0.00395999999999984,-0.0365,-0.0205));
#1787=CARTESIAN_POINT('',(-0.00495999999999985,-0.0365,-0.0205));
#1788=CARTESIAN_POINT('',(-0.00495999999999985,-0.0365,-0.0146));
#1789=CARTESIAN_POINT('',(-0.00495999999999985,-0.0365,-0.0136));
#1790=CARTESIAN_POINT('',(0.00396000000000016,-0.0365,-0.0136));
#1791=CARTESIAN_POINT('',(-0.0105,-0.0365,-0.0099));
#1792=CARTESIAN_POINT('',(-0.00785,-0.0365,-0.0099));
#1793=CARTESIAN_POINT('',(0.0105,-0.0365,-0.0099));
#1794=CARTESIAN_POINT('',(0.01315,-0.0365,-0.0099));
#1795=CARTESIAN_POINT('',(0.0105,-0.0365,-0.0009));
#1796=CARTESIAN_POINT('',(0.01315,-0.0365,-0.0009));
#1797=CARTESIAN_POINT('',(-0.0105,-0.0365,-0.0009));
#1798=CARTESIAN_POINT('',(-0.00785,-0.0365,-0.0009));
#1799=CARTESIAN_POINT('',(-0.01519,-0.0235,-0.01815));
#1800=CARTESIAN_POINT('',(-0.01519,-0.032925,-0.018175));
#1801=CARTESIAN_POINT('',(-0.01519,-0.034475,-0.018175));
#1802=CARTESIAN_POINT('',(-0.01519,-0.026075,-0.018175));
#1803=CARTESIAN_POINT('',(-0.01519,-0.027625,-0.018175));
#1804=CARTESIAN_POINT('',(-0.01519,-0.0365,-0.0205));
#1805=CARTESIAN_POINT('',(-0.01519,-0.0205,-0.0205));
#1806=CARTESIAN_POINT('',(-0.01519,-0.0355,-0.0205));
#1807=CARTESIAN_POINT('',(-0.01519,-0.0355,-0.01815));
#1808=CARTESIAN_POINT('',(-0.01519,-0.0355,-0.0148));
#1809=CARTESIAN_POINT('',(-0.01519,-0.0235,-0.0148));
#1810=CARTESIAN_POINT('',(-0.01519,-0.0205,-0.0148));
#1811=CARTESIAN_POINT('',(-0.01519,-0.0205,-0.0215));
#1812=CARTESIAN_POINT('',(0.0145,-0.0235,-0.01815));
#1813=CARTESIAN_POINT('',(0.0145,-0.032925,-0.018175));
#1814=CARTESIAN_POINT('',(0.0145,-0.0332668698582797,-0.0205));
#1815=CARTESIAN_POINT('',(0.0145,-0.0325831301417204,-0.0205));
#1816=CARTESIAN_POINT('',(0.0145,-0.0235,-0.0205));
#1817=CARTESIAN_POINT('',(0.0145,-0.0264168698582796,-0.0205));
#1818=CARTESIAN_POINT('',(0.0145,-0.026075,-0.018175));
#1819=CARTESIAN_POINT('',(0.0145,-0.0257331301417204,-0.0205));
#1820=CARTESIAN_POINT('',(0.0145,-0.0235,-0.0205));
#1821=CARTESIAN_POINT('',(0.0145,-0.0205,-0.0205));
#1822=CARTESIAN_POINT('',(0.0145,-0.0205,-0.01815));
#1823=CARTESIAN_POINT('',(0.0145,-0.0205,-0.0148));
#1824=CARTESIAN_POINT('',(0.0145,-0.0235,-0.0148));
#1825=CARTESIAN_POINT('',(0.0145,-0.0355,-0.0148));
#1826=CARTESIAN_POINT('',(0.0145,-0.0355,-0.0215));
#1827=CARTESIAN_POINT('',(0.0145,-0.0355,-0.0205));
#1828=CARTESIAN_POINT('',(0.0145,-0.0235,-0.0205));
#1829=CARTESIAN_POINT('',(0.016,-0.0235,-0.01315));
#1830=CARTESIAN_POINT('',(0.0175,-0.0235,-0.0115));
#1831=CARTESIAN_POINT('',(0.0175,-0.0355,-0.0115));
#1832=CARTESIAN_POINT('',(0.0175,-0.0205,-0.0115));
#1833=CARTESIAN_POINT('',(0.0145,-0.0355,-0.0148));
#1834=CARTESIAN_POINT('',(0.016,-0.0205,-0.01315));
#1835=CARTESIAN_POINT('',(0.0175,-0.0235,-0.00265));
#1836=CARTESIAN_POINT('',(0.0175,-0.03175,-0.0054));
#1837=CARTESIAN_POINT('',(0.0175,-0.0341,-0.0054));
#1838=CARTESIAN_POINT('',(0.0175,-0.02425,-0.0054));
#1839=CARTESIAN_POINT('',(0.0175,-0.0266,-0.0054));
#1840=CARTESIAN_POINT('',(0.0175,-0.0235,0.0052));
#1841=CARTESIAN_POINT('',(0.0175,-0.0205,0.0052));
#1842=CARTESIAN_POINT('',(0.0175,-0.0355,0.0052));
#1843=CARTESIAN_POINT('',(0.0175,-0.0355,-0.00265));
#1844=CARTESIAN_POINT('',(0.0175,-0.0205,0.0062));
#1845=CARTESIAN_POINT('',(3.95930567161255E-18,-0.0235,0.0062));
#1846=CARTESIAN_POINT('',(-0.00825,-0.028,0.0062));
#1847=CARTESIAN_POINT('',(-0.0106,-0.028,0.0062));
#1848=CARTESIAN_POINT('',(0.00825,-0.028,0.0062));
#1849=CARTESIAN_POINT('',(0.0059,-0.028,0.0062));
#1850=CARTESIAN_POINT('',(-0.0165,-0.0365,0.0062));
#1851=CARTESIAN_POINT('',(-0.0165,-0.0205,0.0062));
#1852=CARTESIAN_POINT('',(-0.0165,-0.0355,0.0062));
#1853=CARTESIAN_POINT('',(5.42888183058938E-18,-0.0355,0.0062));
#1854=CARTESIAN_POINT('',(0.0165,-0.0355,0.0062));
#1855=CARTESIAN_POINT('',(0.0165,-0.0235,0.0062));
#1856=CARTESIAN_POINT('',(0.0165,-0.0205,0.0062));
#1857=CARTESIAN_POINT('',(-0.0175,-0.0205,0.0062));
#1858=CARTESIAN_POINT('',(2.20577115776294E-16,-0.0295,0.0062));
#1859=CARTESIAN_POINT('',(0.00220000000000022,-0.0295,0.00619999999999999));
#1860=CARTESIAN_POINT('',(-0.0175,-0.0235,-0.00265));
#1861=CARTESIAN_POINT('',(-0.0175,-0.0235,-0.0115));
#1862=CARTESIAN_POINT('',(-0.0175,-0.0355,-0.0115));
#1863=CARTESIAN_POINT('',(-0.0175,-0.0205,-0.0115));
#1864=CARTESIAN_POINT('',(-0.0175,-0.0355,0.0062));
#1865=CARTESIAN_POINT('',(-0.0175,-0.0355,0.0052));
#1866=CARTESIAN_POINT('',(-0.0175,-0.0195,0.0052));
#1867=CARTESIAN_POINT('',(-0.0175,-0.0205,0.0052));
#1868=CARTESIAN_POINT('',(-0.0175,-0.0205,-0.00265));
#1869=CARTESIAN_POINT('',(0.0105,-0.0235,-0.0009));
#1870=CARTESIAN_POINT('',(0.0105,-0.0355,-0.0009));
#1871=CARTESIAN_POINT('',(0.0105,-0.0355,-0.00255));
#1872=CARTESIAN_POINT('',(0.0105,-0.0205,-0.0009));
#1873=CARTESIAN_POINT('',(0.0105,-0.0205,-0.00255));
#1874=CARTESIAN_POINT('',(-0.0105,-0.0235,-0.0009));
#1875=CARTESIAN_POINT('',(-0.0105,-0.0355,-0.0009));
#1876=CARTESIAN_POINT('',(-0.0105,-0.0355,-0.00255));
#1877=CARTESIAN_POINT('',(-0.0105,-0.0205,-0.0009));
#1878=CARTESIAN_POINT('',(-0.0105,-0.0205,-0.00255));
#1879=CARTESIAN_POINT('',(-0.0105,-0.0235,-0.0099));
#1880=CARTESIAN_POINT('',(-0.0105,-0.0355,-0.0099));
#1881=CARTESIAN_POINT('',(-0.0105,-0.0355,-0.01155));
#1882=CARTESIAN_POINT('',(-0.0105,-0.0205,-0.0099));
#1883=CARTESIAN_POINT('',(-0.0105,-0.0205,-0.01155));
#1884=CARTESIAN_POINT('',(-0.016345,-0.0235,-0.01315));
#1885=CARTESIAN_POINT('',(-0.0175,-0.0355,-0.0115));
#1886=CARTESIAN_POINT('',(-0.016345,-0.0205,-0.01315));
#1887=CARTESIAN_POINT('',(0.0105,-0.0235,-0.0099));
#1888=CARTESIAN_POINT('',(0.0105,-0.0355,-0.0099));
#1889=CARTESIAN_POINT('',(0.0105,-0.0355,-0.01155));
#1890=CARTESIAN_POINT('',(0.0105,-0.0205,-0.0099));
#1891=CARTESIAN_POINT('',(0.0105,-0.0205,-0.01155));
#1892=CARTESIAN_POINT('',(2.38806125833734E-18,-0.0195,-0.0139));
#1893=CARTESIAN_POINT('',(0.0135,-0.0195,-0.0139));
#1894=CARTESIAN_POINT('',(0.0135,-0.0195,-0.0144133931252682));
#1895=CARTESIAN_POINT('',(0.0135,-0.0195,-0.0205));
#1896=CARTESIAN_POINT('',(2.38806125833734E-18,-0.0195,-0.0205));
#1897=CARTESIAN_POINT('',(-0.01419,-0.0195,-0.0205));
#1898=CARTESIAN_POINT('',(-0.01419,-0.0195,-0.0148));
#1899=CARTESIAN_POINT('',(-0.01419,-0.0195,-0.0144847777691809));
#1900=CARTESIAN_POINT('',(-0.0097982177439105,-0.0195,-0.0207587524207373));
#1901=CARTESIAN_POINT('',(-0.0165,-0.0195,-0.0111847777691809));
#1902=CARTESIAN_POINT('',(-0.0165,-0.0195,-0.0139));
#1903=CARTESIAN_POINT('',(-0.0165,-0.0195,0.0052));
#1904=CARTESIAN_POINT('',(0.0175,-0.0195,0.0052));
#1905=CARTESIAN_POINT('',(0.0165,-0.0195,0.0052));
#1906=CARTESIAN_POINT('',(0.0165,-0.0195,-0.0115));
#1907=CARTESIAN_POINT('',(0.0165,-0.0195,-0.0111133931252682));
#1908=CARTESIAN_POINT('',(0.00764693775465835,-0.0195,-0.020851761595144));
#1909=CARTESIAN_POINT('',(-0.0105,-0.0195,-0.0099));
#1910=CARTESIAN_POINT('',(-0.00785,-0.0195,-0.0099));
#1911=CARTESIAN_POINT('',(0.0105,-0.0195,-0.0099));
#1912=CARTESIAN_POINT('',(0.01315,-0.0195,-0.0099));
#1913=CARTESIAN_POINT('',(0.0105,-0.0195,-0.0009));
#1914=CARTESIAN_POINT('',(0.01315,-0.0195,-0.0009));
#1915=CARTESIAN_POINT('',(-0.0105,-0.0195,-0.0009));
#1916=CARTESIAN_POINT('',(-0.00785,-0.0195,-0.0009));
#1917=CARTESIAN_POINT('',(0.0145,-0.026075,-0.018175));
#1918=CARTESIAN_POINT('',(-0.00395999999999984,-0.026075,-0.018175));
#1919=CARTESIAN_POINT('',(-0.00395999999999984,-0.026075,-0.016625));
#1920=CARTESIAN_POINT('',(0.0145,-0.032925,-0.018175));
#1921=CARTESIAN_POINT('',(-0.00395999999999984,-0.032925,-0.018175));
#1922=CARTESIAN_POINT('',(-0.00395999999999984,-0.032925,-0.016625));
#1923=CARTESIAN_POINT('',(0.0095,-0.030575,-0.018175));
#1924=CARTESIAN_POINT('',(0.0095,-0.032925,-0.018175));
#1925=CARTESIAN_POINT('',(0.0095,-0.035275,-0.018175));
#1926=CARTESIAN_POINT('',(0.0145,-0.032925,-0.018175));
#1927=CARTESIAN_POINT('',(0.016825,-0.032925,-0.018175));
#1928=CARTESIAN_POINT('',(0.0095,-0.023725,-0.018175));
#1929=CARTESIAN_POINT('',(0.0095,-0.026075,-0.018175));
#1930=CARTESIAN_POINT('',(0.0095,-0.028425,-0.018175));
#1931=CARTESIAN_POINT('',(0.0145,-0.026075,-0.018175));
#1932=CARTESIAN_POINT('',(0.016825,-0.026075,-0.018175));
#1933=CARTESIAN_POINT('',(1.38886771412281E-16,-0.0295,-0.0215));
#1934=CARTESIAN_POINT('',(1.59235629755663E-16,-0.0295,-0.0146));
#1935=CARTESIAN_POINT('',(0.00220000000000016,-0.0295,-0.0146));
#1936=CARTESIAN_POINT('',(0.00396000000000016,-0.0365,-0.01815));
#1937=CARTESIAN_POINT('',(0.00396000000000016,-0.0355,-0.01815));
#1938=CARTESIAN_POINT('',(0.00396000000000016,-0.0355,-0.0146));
#1939=CARTESIAN_POINT('',(0.00396000000000016,-0.0365,-0.0146));
#1940=CARTESIAN_POINT('',(0.00396000000000016,-0.0233,-0.0146));
#1941=CARTESIAN_POINT('',(0.00396000000000015,-0.0233,-0.0139));
#1942=CARTESIAN_POINT('',(2.85342704201333E-18,-0.0233,-0.0139));
#1943=CARTESIAN_POINT('',(2.85342704201333E-18,-0.0233,-0.0146));
#1944=CARTESIAN_POINT('',(-0.00395999999999984,-0.0233,-0.0146));
#1945=CARTESIAN_POINT('',(-0.00395999999999985,-0.0233,-0.0139));
#1946=CARTESIAN_POINT('',(1.53870203706521E-16,-0.0365,-0.0146));
#1947=CARTESIAN_POINT('',(-0.00395999999999984,-0.0355,-0.0146));
#1948=CARTESIAN_POINT('',(-0.00395999999999984,-0.0355,-0.0146));
#1949=CARTESIAN_POINT('',(-0.00395999999999984,-0.0365,-0.0146));
#1950=CARTESIAN_POINT('',(-0.00395999999999984,-0.0365,-0.01815));
#1951=CARTESIAN_POINT('',(-0.00395999999999984,-0.0355,-0.0215));
#1952=CARTESIAN_POINT('',(-0.0175,-0.0205,0.0052));
#1953=CARTESIAN_POINT('',(-0.0175,-0.0205,0.0052));
#1954=CARTESIAN_POINT('',(-0.0175,-0.0205,0.0052));
#1955=CARTESIAN_POINT('',(-0.0165,-0.02,0.0057));
#1956=CARTESIAN_POINT('',(-0.0165,-0.0365,-0.0139));
#1957=CARTESIAN_POINT('',(-0.017,-0.036,0.0052));
#1958=CARTESIAN_POINT('',(-0.0169076939390843,-0.0360923060609157,-0.0113132919621505));
#1959=CARTESIAN_POINT('',(-0.0175,-0.0235,0.0052));
#1960=CARTESIAN_POINT('',(-0.0165,-0.0355,0.0062));
#1961=CARTESIAN_POINT('',(2.38806125833734E-18,-0.0195,0.0052));
#1962=CARTESIAN_POINT('',(0.0165,-0.0205,0.0062));
#1963=CARTESIAN_POINT('',(-0.0175,-0.0205,-0.00265));
#1964=CARTESIAN_POINT('',(-0.0161711616751135,-0.0191711616751135,-0.0110811206188314));
#1965=CARTESIAN_POINT('',(-0.00979821774391049,-0.0365,-0.0207587524207373));
#1966=CARTESIAN_POINT('',(-0.0156930065975559,-0.0349969934024441,-0.0149585588617983));
#1967=CARTESIAN_POINT('',(-0.0165,-0.0355,0.0062));
#1968=CARTESIAN_POINT('',(-0.0165,-0.0355,0.0062));
#1969=CARTESIAN_POINT('',(0.0165,-0.0205,0.0062));
#1970=CARTESIAN_POINT('',(0.017,-0.02,0.0052));
#1971=CARTESIAN_POINT('',(0.0165,-0.0205,0.0062));
#1972=CARTESIAN_POINT('',(-0.016345,-0.0205,-0.01315));
#1973=CARTESIAN_POINT('',(-0.014102194902686,-0.0194121949026859,-0.0144570996505283));
#1974=CARTESIAN_POINT('',(-0.01519,-0.0355,-0.01815));
#1975=CARTESIAN_POINT('',(-0.01469,-0.036,-0.0205));
#1976=CARTESIAN_POINT('',(5.42888183058938E-18,-0.0355,0.0062));
#1977=CARTESIAN_POINT('',(0.0165,-0.036,0.0057));
#1978=CARTESIAN_POINT('',(0.0165,-0.0235,0.0062));
#1979=CARTESIAN_POINT('',(0.0175,-0.0355,0.0052));
#1980=CARTESIAN_POINT('',(0.0165,-0.0195,-0.0139));
#1981=CARTESIAN_POINT('',(0.017001204456598,-0.0200012044565979,-0.0113071622138352));
#1982=CARTESIAN_POINT('',(-0.01419,-0.0195,-0.0139));
#1983=CARTESIAN_POINT('',(-0.01419,-0.0195,-0.0205));
#1984=CARTESIAN_POINT('',(-0.01419,-0.0235,-0.0215));
#1985=CARTESIAN_POINT('',(-0.01419,-0.0355,-0.0215));
#1986=CARTESIAN_POINT('',(-0.01469,-0.0205,-0.021));
#1987=CARTESIAN_POINT('',(-0.01419,-0.0355,-0.0215));
#1988=CARTESIAN_POINT('',(-0.01419,-0.0355,-0.0215));
#1989=CARTESIAN_POINT('',(0.0175,-0.0355,0.0052));
#1990=CARTESIAN_POINT('',(0.0175,-0.0355,0.0052));
#1991=CARTESIAN_POINT('',(0.016,-0.0205,-0.01315));
#1992=CARTESIAN_POINT('',(0.0151025374245747,-0.0211025374245747,-0.0150329451106238));
#1993=CARTESIAN_POINT('',(-0.01419,-0.0195,-0.0205));
#1994=CARTESIAN_POINT('',(-0.01419,-0.0195,-0.0205));
#1995=CARTESIAN_POINT('',(4.46996081688784E-18,-0.0365,-0.0205));
#1996=CARTESIAN_POINT('',(-0.00330666666666656,-0.0348466666666667,-0.0221533333333333));
#1997=CARTESIAN_POINT('',(0.0175,-0.0355,-0.00265));
#1998=CARTESIAN_POINT('',(0.0159082220276162,-0.0370917779723838,-0.0108846076928297));
#1999=CARTESIAN_POINT('',(0.0145,-0.0205,-0.01815));
#2000=CARTESIAN_POINT('',(0.014,-0.02,-0.0205));
#2001=CARTESIAN_POINT('',(-0.00713,-0.0205,-0.0215));
#2002=CARTESIAN_POINT('',(0.0135,-0.0205,-0.0215));
#2003=CARTESIAN_POINT('',(-0.00495999999999985,-0.0365,-0.0139));
#2004=CARTESIAN_POINT('',(-0.00330666666666656,-0.0348466666666667,-0.0152533333333333));
#2005=CARTESIAN_POINT('',(0.00764693775465835,-0.0365,-0.020851761595144));
#2006=CARTESIAN_POINT('',(0.0134076601279124,-0.0365923398720876,-0.0143776938959072));
#2007=CARTESIAN_POINT('',(0.0135,-0.0205,-0.0215));
#2008=CARTESIAN_POINT('',(0.0135,-0.0205,-0.0215));
#2009=CARTESIAN_POINT('',(4.46996081688784E-18,-0.0365,-0.0136));
#2010=CARTESIAN_POINT('',(0.00277666666666682,-0.0343166666666666,-0.0157833333333334));
#2011=CARTESIAN_POINT('',(0.0135,-0.0365,-0.0139));
#2012=CARTESIAN_POINT('',(0.0135,-0.0365,-0.0205));
#2013=CARTESIAN_POINT('',(0.0145,-0.0235,-0.0205));
#2014=CARTESIAN_POINT('',(0.014,-0.0355,-0.021));
#2015=CARTESIAN_POINT('',(0.00396000000000016,-0.0355,-0.01815));
#2016=CARTESIAN_POINT('',(0.00507666666666682,-0.0366166666666667,-0.0203833333333334));
#2017=CARTESIAN_POINT('',(0.0135,-0.0365,-0.0205));
#2018=CARTESIAN_POINT('',(0.0135,-0.0365,-0.0205));
#2019=CARTESIAN_POINT('',(4.46996081688784E-18,-0.0365,-0.0205));
#2020=CARTESIAN_POINT('',(-0.0105,-0.0355,-0.0099));
#2021=CARTESIAN_POINT('',(0.0105,-0.0355,-0.0099));
#2022=CARTESIAN_POINT('',(0.0105,-0.0355,-0.0009));
#2023=CARTESIAN_POINT('',(-0.0105,-0.0355,-0.0009));
#2024=CARTESIAN_POINT('',(-0.0105,-0.0195,-0.0099));
#2025=CARTESIAN_POINT('',(0.0105,-0.0195,-0.0099));
#2026=CARTESIAN_POINT('',(0.0105,-0.0195,-0.0009));
#2027=CARTESIAN_POINT('',(-0.0105,-0.0195,-0.0009));
#2028=CARTESIAN_POINT('',(0.0125,-0.0219,-0.0054));
#2029=CARTESIAN_POINT('',(0.0125,-0.02425,-0.0054));
#2030=CARTESIAN_POINT('',(0.0125,-0.0226,-0.0054));
#2031=CARTESIAN_POINT('',(0.0125,-0.02425,-0.0054));
#2032=CARTESIAN_POINT('',(0.0125,-0.0266,-0.0054));
#2033=CARTESIAN_POINT('',(0.0175,-0.02425,-0.0054));
#2034=CARTESIAN_POINT('',(0.0125,-0.0294,-0.0054));
#2035=CARTESIAN_POINT('',(0.0125,-0.03175,-0.0054));
#2036=CARTESIAN_POINT('',(0.0125,-0.0301,-0.0054));
#2037=CARTESIAN_POINT('',(0.0125,-0.03175,-0.0054));
#2038=CARTESIAN_POINT('',(0.0125,-0.0341,-0.0054));
#2039=CARTESIAN_POINT('',(0.0175,-0.03175,-0.0054));
#2040=CARTESIAN_POINT('',(0.00525,-0.0301,-0.0054));
#2041=CARTESIAN_POINT('',(0.00525,-0.03175,-0.0054));
#2042=CARTESIAN_POINT('',(0.00525,-0.0334,-0.0054));
#2043=CARTESIAN_POINT('',(0.03825,-0.03175,-0.0054));
#2044=CARTESIAN_POINT('',(0.00525,-0.0226,-0.0054));
#2045=CARTESIAN_POINT('',(0.00525,-0.02425,-0.0054));
#2046=CARTESIAN_POINT('',(0.00525,-0.0259,-0.0054));
#2047=CARTESIAN_POINT('',(0.03825,-0.02425,-0.0054));
#2048=CARTESIAN_POINT('',(0.0106,-0.028,0.0012));
#2049=CARTESIAN_POINT('',(0.00825,-0.028,0.0012));
#2050=CARTESIAN_POINT('',(0.0099,-0.028,0.0012));
#2051=CARTESIAN_POINT('',(0.00825,-0.028,0.0012));
#2052=CARTESIAN_POINT('',(0.0059,-0.028,0.0012));
#2053=CARTESIAN_POINT('',(0.00825,-0.028,0.0062));
#2054=CARTESIAN_POINT('',(-0.0059,-0.028,0.0012));
#2055=CARTESIAN_POINT('',(-0.00825,-0.028,0.0012));
#2056=CARTESIAN_POINT('',(-0.0066,-0.028,0.0012));
#2057=CARTESIAN_POINT('',(-0.00825,-0.028,0.0012));
#2058=CARTESIAN_POINT('',(-0.0106,-0.028,0.0012));
#2059=CARTESIAN_POINT('',(-0.00825,-0.028,0.0062));
#2060=CARTESIAN_POINT('',(-0.0066,-0.028,0.0007));
#2061=CARTESIAN_POINT('',(-0.00825,-0.028,0.0007));
#2062=CARTESIAN_POINT('',(-0.0099,-0.028,0.0007));
#2063=CARTESIAN_POINT('',(-0.00825,-0.028,0.0062));
#2064=CARTESIAN_POINT('',(0.0099,-0.028,0.0007));
#2065=CARTESIAN_POINT('',(0.00825,-0.028,0.0007));
#2066=CARTESIAN_POINT('',(0.0066,-0.028,0.0007));
#2067=CARTESIAN_POINT('',(0.00825,-0.028,0.0062));
#2068=MECHANICAL_DESIGN_GEOMETRIC_PRESENTATION_REPRESENTATION('',(#1233),
#2069);
#2069=(
GEOMETRIC_REPRESENTATION_CONTEXT(3)
GLOBAL_UNCERTAINTY_ASSIGNED_CONTEXT((#2070))
GLOBAL_UNIT_ASSIGNED_CONTEXT((#2073,#2072,#2071))
REPRESENTATION_CONTEXT('hotend bloc','TOP_LEVEL_ASSEMBLY_PART')
);
#2070=UNCERTAINTY_MEASURE_WITH_UNIT(LENGTH_MEASURE(1.E-8),#2073,
'DISTANCE_ACCURACY_VALUE','Maximum Tolerance applied to model');
#2071=(
NAMED_UNIT(*)
SI_UNIT($,.STERADIAN.)
SOLID_ANGLE_UNIT()
);
#2072=(
NAMED_UNIT(*)
PLANE_ANGLE_UNIT()
SI_UNIT($,.RADIAN.)
);
#2073=(
LENGTH_UNIT()
NAMED_UNIT(*)
SI_UNIT($,.METRE.)
);
#2074=PRODUCT_DEFINITION_SHAPE('','',#2075);
#2075=PRODUCT_DEFINITION('','',#2077,#2076);
#2076=PRODUCT_DEFINITION_CONTEXT('',#2083,'design');
#2077=PRODUCT_DEFINITION_FORMATION_WITH_SPECIFIED_SOURCE('','',#2079,
 .NOT_KNOWN.);
#2078=PRODUCT_RELATED_PRODUCT_CATEGORY('','',(#2079));
#2079=PRODUCT('hotend bloc','hotend bloc','hotend bloc',(#2081));
#2080=PRODUCT_CATEGORY('','');
#2081=PRODUCT_CONTEXT('',#2083,'mechanical');
#2082=APPLICATION_PROTOCOL_DEFINITION('international standard',
'ap242_managed_model_based_3d_engineering',2020,#2083);
#2083=APPLICATION_CONTEXT('managed model based 3d engineering');
ENDSEC;
END-ISO-10303-21;
