ISO-10303-21;
HEADER;
/* Generated by software containing ST-Developer
 * from STEP Tools, Inc. (www.steptools.com) 
 */
/* OPTION: using custom renumber hook */

FILE_DESCRIPTION(
/* description */ ('STEP AP242 Edition 2',
'CAx-IF Rec.Pracs.---Representation and Presentation of Product Manufa
cturing Information (PMI)---4.0---2014-10-13',
'CAx-IF Rec.Pracs.---3D Tessellated Geometry---0.4---2014-09-14','2;1',
'CAx-IF Rec.Pracs.---User Defined Attributes---1.5---2016-08-15'),
/* implementation_level */ '2;1');

FILE_NAME(
/* name */ 'toolhead v4 - CPAP clamp',
/* time_stamp */ '2026-08-19T20:10:38Z',
/* author */ (''),
/* organization */ (''),
/* preprocessor_version */ 'ST-DEVELOPER v20',
/* originating_system */ 'ONSHAPE BY PTC INC, 1.219',
/* authorisation */ '  ');

FILE_SCHEMA (('AP242_MANAGED_MODEL_BASED_3D_ENGINEERING_MIM_LF { 1 0 10303 442 3 1 4 }'));
ENDSEC;

DATA;
#10=SHAPE_REPRESENTATION_RELATIONSHIP('','',#883,#11);
#11=ADVANCED_BREP_SHAPE_REPRESENTATION('',(#881),#1613);
#12=CONICAL_SURFACE('',#951,0.01075,0.785398163397457);
#13=CONICAL_SURFACE('',#987,0.01075,0.785398163397457);
#14=PLANE('',#919);
#15=PLANE('',#920);
#16=PLANE('',#921);
#17=PLANE('',#923);
#18=PLANE('',#930);
#19=PLANE('',#932);
#20=PLANE('',#934);
#21=PLANE('',#942);
#22=PLANE('',#944);
#23=PLANE('',#945);
#24=PLANE('',#946);
#25=PLANE('',#947);
#26=PLANE('',#949);
#27=PLANE('',#959);
#28=PLANE('',#960);
#29=PLANE('',#963);
#30=PLANE('',#966);
#31=PLANE('',#968);
#32=PLANE('',#971);
#33=PLANE('',#972);
#34=PLANE('',#976);
#35=PLANE('',#977);
#36=PLANE('',#980);
#37=PLANE('',#983);
#38=PLANE('',#984);
#39=PLANE('',#985);
#40=OVER_RIDING_STYLED_ITEM('',(#856),#810,#854);
#41=OVER_RIDING_STYLED_ITEM('',(#857),#818,#854);
#42=OVER_RIDING_STYLED_ITEM('',(#858),#825,#854);
#43=ELLIPSE('',#892,0.00282842712474612,0.002);
#44=ELLIPSE('',#893,0.00282842712474619,0.002);
#45=ELLIPSE('',#895,0.00282842712474619,0.002);
#46=ELLIPSE('',#896,0.00282842712474617,0.002);
#47=ELLIPSE('',#898,0.0149197587539961,0.011);
#48=ELLIPSE('',#899,0.0149197587540022,0.011);
#49=ELLIPSE('',#901,0.0149197587540074,0.011);
#50=ELLIPSE('',#902,0.0149197587540329,0.011);
#51=ELLIPSE('',#903,0.0149197587539211,0.011);
#52=ELLIPSE('',#905,0.0149197587540191,0.011);
#53=ELLIPSE('',#907,0.0149197587540089,0.011);
#54=ELLIPSE('',#908,0.0149197587539457,0.011);
#55=ELLIPSE('',#910,0.0149197587539881,0.011);
#56=ELLIPSE('',#914,0.0149197587540074,0.011);
#57=ELLIPSE('',#916,0.0149197587540022,0.011);
#58=ELLIPSE('',#917,0.0149197587539961,0.011);
#59=ELLIPSE('',#926,0.0149197587540329,0.011);
#60=ELLIPSE('',#928,0.0149197587539211,0.011);
#61=ELLIPSE('',#936,0.0149197587540191,0.011);
#62=ELLIPSE('',#937,0.0149197587539881,0.011);
#63=ELLIPSE('',#939,0.0149197587539457,0.011);
#64=ELLIPSE('',#940,0.0149197587540089,0.011);
#65=LINE('',#1248,#99);
#66=LINE('',#1257,#100);
#67=LINE('',#1267,#101);
#68=LINE('',#1276,#102);
#69=LINE('',#1393,#103);
#70=LINE('',#1395,#104);
#71=LINE('',#1507,#105);
#72=LINE('',#1509,#106);
#73=LINE('',#1511,#107);
#74=LINE('',#1518,#108);
#75=LINE('',#1540,#109);
#76=LINE('',#1542,#110);
#77=LINE('',#1546,#111);
#78=LINE('',#1550,#112);
#79=LINE('',#1552,#113);
#80=LINE('',#1554,#114);
#81=LINE('',#1559,#115);
#82=LINE('',#1560,#116);
#83=LINE('',#1562,#117);
#84=LINE('',#1566,#118);
#85=LINE('',#1567,#119);
#86=LINE('',#1569,#120);
#87=LINE('',#1573,#121);
#88=LINE('',#1575,#122);
#89=LINE('',#1582,#123);
#90=LINE('',#1587,#124);
#91=LINE('',#1588,#125);
#92=LINE('',#1590,#126);
#93=LINE('',#1593,#127);
#94=LINE('',#1597,#128);
#95=LINE('',#1599,#129);
#96=LINE('',#1601,#130);
#97=LINE('',#1603,#131);
#98=LINE('',#1607,#132);
#99=VECTOR('',#1004,1.);
#100=VECTOR('',#1007,1.);
#101=VECTOR('',#1012,1.);
#102=VECTOR('',#1015,1.);
#103=VECTOR('',#1064,1.);
#104=VECTOR('',#1067,1.);
#105=VECTOR('',#1116,1.);
#106=VECTOR('',#1119,1.);
#107=VECTOR('',#1122,1.);
#108=VECTOR('',#1127,1.);
#109=VECTOR('',#1150,1.);
#110=VECTOR('',#1153,1.);
#111=VECTOR('',#1156,1.);
#112=VECTOR('',#1159,1.);
#113=VECTOR('',#1160,1.);
#114=VECTOR('',#1163,1.);
#115=VECTOR('',#1168,1.);
#116=VECTOR('',#1169,1.);
#117=VECTOR('',#1172,1.);
#118=VECTOR('',#1177,1.);
#119=VECTOR('',#1178,1.);
#120=VECTOR('',#1179,1.);
#121=VECTOR('',#1182,1.);
#122=VECTOR('',#1183,1.);
#123=VECTOR('',#1192,1.);
#124=VECTOR('',#1197,1.);
#125=VECTOR('',#1198,1.);
#126=VECTOR('',#1201,1.);
#127=VECTOR('',#1206,1.);
#128=VECTOR('',#1209,1.);
#129=VECTOR('',#1212,1.);
#130=VECTOR('',#1213,1.);
#131=VECTOR('',#1216,1.);
#132=VECTOR('',#1221,1.);
#133=B_SPLINE_CURVE_WITH_KNOTS('',3,(#1242,#1243,#1244,#1245),
 .UNSPECIFIED.,.F.,.F.,(4,4),(0.,0.00119852775774083),.UNSPECIFIED.);
#134=B_SPLINE_CURVE_WITH_KNOTS('',3,(#1250,#1251,#1252,#1253),
 .UNSPECIFIED.,.F.,.F.,(4,4),(0.,0.00119199984677298),.UNSPECIFIED.);
#135=B_SPLINE_CURVE_WITH_KNOTS('',3,(#1261,#1262,#1263,#1264),
 .UNSPECIFIED.,.F.,.F.,(4,4),(0.,0.00119852775516184),.UNSPECIFIED.);
#136=B_SPLINE_CURVE_WITH_KNOTS('',3,(#1269,#1270,#1271,#1272),
 .UNSPECIFIED.,.F.,.F.,(4,4),(0.,0.00119199984677323),.UNSPECIFIED.);
#137=B_SPLINE_CURVE_WITH_KNOTS('',3,(#1280,#1281,#1282,#1283),
 .UNSPECIFIED.,.F.,.F.,(4,4),(1.67109165047363E-14,0.000333002571584367),
 .UNSPECIFIED.);
#138=B_SPLINE_CURVE_WITH_KNOTS('',3,(#1286,#1287,#1288,#1289),
 .UNSPECIFIED.,.F.,.F.,(4,4),(-1.32831020000553E-9,0.000256742535806112),
 .UNSPECIFIED.);
#139=B_SPLINE_CURVE_WITH_KNOTS('',3,(#1297,#1298,#1299,#1300,#1301,#1302,
#1303),.UNSPECIFIED.,.F.,.F.,(4,1,1,1,4),(-4.95200939715917E-14,0.000268066638091308,
0.000536133276232136,0.000804199914372964,0.00107226655251379),
 .UNSPECIFIED.);
#140=B_SPLINE_CURVE_WITH_KNOTS('',3,(#1309,#1310,#1311,#1312),
 .UNSPECIFIED.,.F.,.F.,(4,4),(3.04373891067976E-10,0.000241109181592616),
 .UNSPECIFIED.);
#141=B_SPLINE_CURVE_WITH_KNOTS('',3,(#1316,#1317,#1318,#1319),
 .UNSPECIFIED.,.F.,.F.,(4,4),(2.12760363254788E-9,0.000196904029503972),
 .UNSPECIFIED.);
#142=B_SPLINE_CURVE_WITH_KNOTS('',3,(#1323,#1324,#1325,#1326),
 .UNSPECIFIED.,.F.,.F.,(4,4),(2.34622937344377E-15,0.00019156443252624),
 .UNSPECIFIED.);
#143=B_SPLINE_CURVE_WITH_KNOTS('',3,(#1327,#1328,#1329,#1330),
 .UNSPECIFIED.,.F.,.F.,(4,4),(3.73644241177009E-14,0.00120083261052094),
 .UNSPECIFIED.);
#144=B_SPLINE_CURVE_WITH_KNOTS('',3,(#1335,#1336,#1337,#1338),
 .UNSPECIFIED.,.F.,.F.,(4,4),(1.12252158984331E-11,0.000591470060769519),
 .UNSPECIFIED.);
#145=B_SPLINE_CURVE_WITH_KNOTS('',3,(#1348,#1349,#1350,#1351),
 .UNSPECIFIED.,.F.,.F.,(4,4),(0.,0.000657493058259046),.UNSPECIFIED.);
#146=B_SPLINE_CURVE_WITH_KNOTS('',3,(#1357,#1358,#1359,#1360),
 .UNSPECIFIED.,.F.,.F.,(4,4),(-1.32831020000553E-9,0.000256742527996189),
 .UNSPECIFIED.);
#147=B_SPLINE_CURVE_WITH_KNOTS('',3,(#1363,#1364,#1365,#1366),
 .UNSPECIFIED.,.F.,.F.,(4,4),(7.2105949683321E-15,0.000333002566449049),
 .UNSPECIFIED.);
#148=B_SPLINE_CURVE_WITH_KNOTS('',3,(#1370,#1371,#1372,#1373,#1374,#1375,
#1376),.UNSPECIFIED.,.F.,.F.,(4,1,1,1,4),(3.14576115435526E-15,0.00026806667717294,
0.000536133354342734,0.000804200031512528,0.00107226670868232),
 .UNSPECIFIED.);
#149=B_SPLINE_CURVE_WITH_KNOTS('',3,(#1384,#1385,#1386,#1387),
 .UNSPECIFIED.,.F.,.F.,(4,4),(0.,1.),.UNSPECIFIED.);
#150=B_SPLINE_CURVE_WITH_KNOTS('',3,(#1388,#1389,#1390,#1391),
 .UNSPECIFIED.,.F.,.F.,(4,4),(0.,0.999999149869201),.UNSPECIFIED.);
#151=B_SPLINE_CURVE_WITH_KNOTS('',3,(#1397,#1398,#1399,#1400),
 .UNSPECIFIED.,.F.,.F.,(4,4),(4.16666654882536E-7,1.),.UNSPECIFIED.);
#152=B_SPLINE_CURVE_WITH_KNOTS('',3,(#1402,#1403,#1404,#1405),
 .UNSPECIFIED.,.F.,.F.,(4,4),(0.,0.999989170535244),.UNSPECIFIED.);
#153=B_SPLINE_CURVE_WITH_KNOTS('',3,(#1407,#1408,#1409,#1410),
 .UNSPECIFIED.,.F.,.F.,(4,4),(4.1666677053069E-7,1.),.UNSPECIFIED.);
#154=B_SPLINE_CURVE_WITH_KNOTS('',3,(#1413,#1414,#1415,#1416),
 .UNSPECIFIED.,.F.,.F.,(4,4),(2.10250139516764E-13,0.000240931831414615),
 .UNSPECIFIED.);
#155=B_SPLINE_CURVE_WITH_KNOTS('',3,(#1421,#1422,#1423,#1424),
 .UNSPECIFIED.,.F.,.F.,(4,4),(1.15530254883814E-14,0.000191564120144003),
 .UNSPECIFIED.);
#156=B_SPLINE_CURVE_WITH_KNOTS('',3,(#1428,#1429,#1430,#1431),
 .UNSPECIFIED.,.F.,.F.,(4,4),(0.,0.000196904213043476),.UNSPECIFIED.);
#157=B_SPLINE_CURVE_WITH_KNOTS('',3,(#1435,#1436,#1437,#1438),
 .UNSPECIFIED.,.F.,.F.,(4,4),(4.16518509497668E-7,0.999993432031909),
 .UNSPECIFIED.);
#158=B_SPLINE_CURVE_WITH_KNOTS('',3,(#1439,#1440,#1441,#1442),
 .UNSPECIFIED.,.F.,.F.,(4,4),(4.47874746317666E-5,0.999988008912132),
 .UNSPECIFIED.);
#159=B_SPLINE_CURVE_WITH_KNOTS('',3,(#1444,#1445,#1446,#1447),
 .UNSPECIFIED.,.F.,.F.,(4,4),(4.16666654882526E-7,0.999974924138543),
 .UNSPECIFIED.);
#160=B_SPLINE_CURVE_WITH_KNOTS('',3,(#1449,#1450,#1451,#1452),
 .UNSPECIFIED.,.F.,.F.,(4,4),(9.49024562639065E-7,1.),.UNSPECIFIED.);
#161=B_SPLINE_CURVE_WITH_KNOTS('',3,(#1454,#1455,#1456,#1457),
 .UNSPECIFIED.,.F.,.F.,(4,4),(4.16666654882527E-7,1.),.UNSPECIFIED.);
#162=B_SPLINE_CURVE_WITH_KNOTS('',3,(#1459,#1460,#1461,#1462),
 .UNSPECIFIED.,.F.,.F.,(4,4),(0.,0.999980902509929),.UNSPECIFIED.);
#163=B_SPLINE_CURVE_WITH_KNOTS('',3,(#1468,#1469,#1470,#1471),
 .UNSPECIFIED.,.F.,.F.,(4,4),(1.81659726392899E-14,0.00120083265880166),
 .UNSPECIFIED.);
#164=B_SPLINE_CURVE_WITH_KNOTS('',3,(#1475,#1476,#1477,#1478),
 .UNSPECIFIED.,.F.,.F.,(4,4),(4.36730002751593E-15,0.000657492933027106),
 .UNSPECIFIED.);
#165=B_SPLINE_CURVE_WITH_KNOTS('',3,(#1488,#1489,#1490,#1491),
 .UNSPECIFIED.,.F.,.F.,(4,4),(0.,0.00059147006930673),.UNSPECIFIED.);
#166=B_SPLINE_CURVE_WITH_KNOTS('',3,(#1493,#1494,#1495,#1496),
 .UNSPECIFIED.,.F.,.F.,(4,4),(2.85770601626808E-6,1.),.UNSPECIFIED.);
#167=B_SPLINE_CURVE_WITH_KNOTS('',3,(#1497,#1498,#1499,#1500),
 .UNSPECIFIED.,.F.,.F.,(4,4),(4.16666654882546E-7,0.999998962657335),
 .UNSPECIFIED.);
#168=B_SPLINE_CURVE_WITH_KNOTS('',3,(#1502,#1503,#1504,#1505),
 .UNSPECIFIED.,.F.,.F.,(4,4),(0.,1.),.UNSPECIFIED.);
#169=B_SPLINE_CURVE_WITH_KNOTS('',3,(#1513,#1514,#1515,#1516),
 .UNSPECIFIED.,.F.,.F.,(4,4),(4.16666701141848E-7,1.),.UNSPECIFIED.);
#170=B_SPLINE_CURVE_WITH_KNOTS('',3,(#1520,#1521,#1522,#1523),
 .UNSPECIFIED.,.F.,.F.,(4,4),(4.16666678012173E-7,1.),.UNSPECIFIED.);
#171=ORIENTED_EDGE('',*,*,#425,.F.);
#172=ORIENTED_EDGE('',*,*,#426,.F.);
#173=ORIENTED_EDGE('',*,*,#427,.F.);
#174=ORIENTED_EDGE('',*,*,#428,.F.);
#175=ORIENTED_EDGE('',*,*,#429,.T.);
#176=ORIENTED_EDGE('',*,*,#430,.T.);
#177=ORIENTED_EDGE('',*,*,#431,.T.);
#178=ORIENTED_EDGE('',*,*,#432,.T.);
#179=ORIENTED_EDGE('',*,*,#433,.T.);
#180=ORIENTED_EDGE('',*,*,#434,.T.);
#181=ORIENTED_EDGE('',*,*,#435,.T.);
#182=ORIENTED_EDGE('',*,*,#436,.T.);
#183=ORIENTED_EDGE('',*,*,#437,.T.);
#184=ORIENTED_EDGE('',*,*,#438,.T.);
#185=ORIENTED_EDGE('',*,*,#439,.T.);
#186=ORIENTED_EDGE('',*,*,#440,.T.);
#187=ORIENTED_EDGE('',*,*,#441,.T.);
#188=ORIENTED_EDGE('',*,*,#442,.T.);
#189=ORIENTED_EDGE('',*,*,#443,.T.);
#190=ORIENTED_EDGE('',*,*,#444,.T.);
#191=ORIENTED_EDGE('',*,*,#445,.T.);
#192=ORIENTED_EDGE('',*,*,#446,.T.);
#193=ORIENTED_EDGE('',*,*,#447,.T.);
#194=ORIENTED_EDGE('',*,*,#448,.T.);
#195=ORIENTED_EDGE('',*,*,#449,.T.);
#196=ORIENTED_EDGE('',*,*,#450,.T.);
#197=ORIENTED_EDGE('',*,*,#451,.T.);
#198=ORIENTED_EDGE('',*,*,#452,.T.);
#199=ORIENTED_EDGE('',*,*,#453,.T.);
#200=ORIENTED_EDGE('',*,*,#454,.T.);
#201=ORIENTED_EDGE('',*,*,#455,.T.);
#202=ORIENTED_EDGE('',*,*,#456,.T.);
#203=ORIENTED_EDGE('',*,*,#457,.T.);
#204=ORIENTED_EDGE('',*,*,#458,.T.);
#205=ORIENTED_EDGE('',*,*,#459,.T.);
#206=ORIENTED_EDGE('',*,*,#460,.T.);
#207=ORIENTED_EDGE('',*,*,#461,.T.);
#208=ORIENTED_EDGE('',*,*,#462,.T.);
#209=ORIENTED_EDGE('',*,*,#430,.F.);
#210=ORIENTED_EDGE('',*,*,#463,.F.);
#211=ORIENTED_EDGE('',*,*,#436,.F.);
#212=ORIENTED_EDGE('',*,*,#464,.F.);
#213=ORIENTED_EDGE('',*,*,#465,.F.);
#214=ORIENTED_EDGE('',*,*,#466,.F.);
#215=ORIENTED_EDGE('',*,*,#467,.F.);
#216=ORIENTED_EDGE('',*,*,#468,.F.);
#217=ORIENTED_EDGE('',*,*,#469,.F.);
#218=ORIENTED_EDGE('',*,*,#470,.F.);
#219=ORIENTED_EDGE('',*,*,#471,.F.);
#220=ORIENTED_EDGE('',*,*,#442,.F.);
#221=ORIENTED_EDGE('',*,*,#472,.T.);
#222=ORIENTED_EDGE('',*,*,#465,.T.);
#223=ORIENTED_EDGE('',*,*,#473,.F.);
#224=ORIENTED_EDGE('',*,*,#443,.F.);
#225=ORIENTED_EDGE('',*,*,#473,.T.);
#226=ORIENTED_EDGE('',*,*,#471,.T.);
#227=ORIENTED_EDGE('',*,*,#474,.F.);
#228=ORIENTED_EDGE('',*,*,#444,.F.);
#229=ORIENTED_EDGE('',*,*,#474,.T.);
#230=ORIENTED_EDGE('',*,*,#470,.T.);
#231=ORIENTED_EDGE('',*,*,#475,.F.);
#232=ORIENTED_EDGE('',*,*,#445,.F.);
#233=ORIENTED_EDGE('',*,*,#475,.T.);
#234=ORIENTED_EDGE('',*,*,#469,.T.);
#235=ORIENTED_EDGE('',*,*,#476,.F.);
#236=ORIENTED_EDGE('',*,*,#446,.F.);
#237=ORIENTED_EDGE('',*,*,#476,.T.);
#238=ORIENTED_EDGE('',*,*,#468,.T.);
#239=ORIENTED_EDGE('',*,*,#477,.F.);
#240=ORIENTED_EDGE('',*,*,#447,.F.);
#241=ORIENTED_EDGE('',*,*,#477,.T.);
#242=ORIENTED_EDGE('',*,*,#467,.T.);
#243=ORIENTED_EDGE('',*,*,#478,.F.);
#244=ORIENTED_EDGE('',*,*,#441,.F.);
#245=ORIENTED_EDGE('',*,*,#478,.T.);
#246=ORIENTED_EDGE('',*,*,#466,.T.);
#247=ORIENTED_EDGE('',*,*,#472,.F.);
#248=ORIENTED_EDGE('',*,*,#479,.F.);
#249=ORIENTED_EDGE('',*,*,#480,.F.);
#250=ORIENTED_EDGE('',*,*,#481,.F.);
#251=ORIENTED_EDGE('',*,*,#482,.F.);
#252=ORIENTED_EDGE('',*,*,#483,.F.);
#253=ORIENTED_EDGE('',*,*,#484,.F.);
#254=ORIENTED_EDGE('',*,*,#449,.F.);
#255=ORIENTED_EDGE('',*,*,#485,.T.);
#256=ORIENTED_EDGE('',*,*,#479,.T.);
#257=ORIENTED_EDGE('',*,*,#486,.F.);
#258=ORIENTED_EDGE('',*,*,#450,.F.);
#259=ORIENTED_EDGE('',*,*,#486,.T.);
#260=ORIENTED_EDGE('',*,*,#484,.T.);
#261=ORIENTED_EDGE('',*,*,#487,.F.);
#262=ORIENTED_EDGE('',*,*,#451,.F.);
#263=ORIENTED_EDGE('',*,*,#487,.T.);
#264=ORIENTED_EDGE('',*,*,#483,.T.);
#265=ORIENTED_EDGE('',*,*,#488,.F.);
#266=ORIENTED_EDGE('',*,*,#452,.F.);
#267=ORIENTED_EDGE('',*,*,#488,.T.);
#268=ORIENTED_EDGE('',*,*,#482,.T.);
#269=ORIENTED_EDGE('',*,*,#489,.F.);
#270=ORIENTED_EDGE('',*,*,#453,.F.);
#271=ORIENTED_EDGE('',*,*,#489,.T.);
#272=ORIENTED_EDGE('',*,*,#481,.T.);
#273=ORIENTED_EDGE('',*,*,#490,.F.);
#274=ORIENTED_EDGE('',*,*,#448,.F.);
#275=ORIENTED_EDGE('',*,*,#490,.T.);
#276=ORIENTED_EDGE('',*,*,#480,.T.);
#277=ORIENTED_EDGE('',*,*,#485,.F.);
#278=ORIENTED_EDGE('',*,*,#491,.F.);
#279=ORIENTED_EDGE('',*,*,#492,.F.);
#280=ORIENTED_EDGE('',*,*,#493,.F.);
#281=ORIENTED_EDGE('',*,*,#494,.F.);
#282=ORIENTED_EDGE('',*,*,#495,.F.);
#283=ORIENTED_EDGE('',*,*,#496,.F.);
#284=ORIENTED_EDGE('',*,*,#497,.F.);
#285=ORIENTED_EDGE('',*,*,#498,.F.);
#286=ORIENTED_EDGE('',*,*,#499,.F.);
#287=ORIENTED_EDGE('',*,*,#455,.F.);
#288=ORIENTED_EDGE('',*,*,#500,.T.);
#289=ORIENTED_EDGE('',*,*,#491,.T.);
#290=ORIENTED_EDGE('',*,*,#501,.F.);
#291=ORIENTED_EDGE('',*,*,#456,.F.);
#292=ORIENTED_EDGE('',*,*,#501,.T.);
#293=ORIENTED_EDGE('',*,*,#499,.T.);
#294=ORIENTED_EDGE('',*,*,#502,.F.);
#295=ORIENTED_EDGE('',*,*,#457,.F.);
#296=ORIENTED_EDGE('',*,*,#502,.T.);
#297=ORIENTED_EDGE('',*,*,#498,.T.);
#298=ORIENTED_EDGE('',*,*,#503,.F.);
#299=ORIENTED_EDGE('',*,*,#458,.F.);
#300=ORIENTED_EDGE('',*,*,#503,.T.);
#301=ORIENTED_EDGE('',*,*,#497,.T.);
#302=ORIENTED_EDGE('',*,*,#504,.F.);
#303=ORIENTED_EDGE('',*,*,#459,.F.);
#304=ORIENTED_EDGE('',*,*,#504,.T.);
#305=ORIENTED_EDGE('',*,*,#496,.T.);
#306=ORIENTED_EDGE('',*,*,#505,.F.);
#307=ORIENTED_EDGE('',*,*,#460,.F.);
#308=ORIENTED_EDGE('',*,*,#505,.T.);
#309=ORIENTED_EDGE('',*,*,#495,.T.);
#310=ORIENTED_EDGE('',*,*,#506,.F.);
#311=ORIENTED_EDGE('',*,*,#461,.F.);
#312=ORIENTED_EDGE('',*,*,#506,.T.);
#313=ORIENTED_EDGE('',*,*,#494,.T.);
#314=ORIENTED_EDGE('',*,*,#507,.F.);
#315=ORIENTED_EDGE('',*,*,#462,.F.);
#316=ORIENTED_EDGE('',*,*,#507,.T.);
#317=ORIENTED_EDGE('',*,*,#493,.T.);
#318=ORIENTED_EDGE('',*,*,#508,.F.);
#319=ORIENTED_EDGE('',*,*,#454,.F.);
#320=ORIENTED_EDGE('',*,*,#508,.T.);
#321=ORIENTED_EDGE('',*,*,#492,.T.);
#322=ORIENTED_EDGE('',*,*,#500,.F.);
#323=ORIENTED_EDGE('',*,*,#509,.T.);
#324=ORIENTED_EDGE('',*,*,#510,.T.);
#325=ORIENTED_EDGE('',*,*,#431,.F.);
#326=ORIENTED_EDGE('',*,*,#464,.T.);
#327=ORIENTED_EDGE('',*,*,#435,.F.);
#328=ORIENTED_EDGE('',*,*,#511,.T.);
#329=ORIENTED_EDGE('',*,*,#512,.T.);
#330=ORIENTED_EDGE('',*,*,#513,.T.);
#331=ORIENTED_EDGE('',*,*,#514,.T.);
#332=ORIENTED_EDGE('',*,*,#515,.T.);
#333=ORIENTED_EDGE('',*,*,#516,.T.);
#334=ORIENTED_EDGE('',*,*,#511,.F.);
#335=ORIENTED_EDGE('',*,*,#440,.F.);
#336=ORIENTED_EDGE('',*,*,#426,.T.);
#337=ORIENTED_EDGE('',*,*,#439,.F.);
#338=ORIENTED_EDGE('',*,*,#517,.F.);
#339=ORIENTED_EDGE('',*,*,#518,.F.);
#340=ORIENTED_EDGE('',*,*,#519,.T.);
#341=ORIENTED_EDGE('',*,*,#520,.T.);
#342=ORIENTED_EDGE('',*,*,#521,.T.);
#343=ORIENTED_EDGE('',*,*,#522,.T.);
#344=ORIENTED_EDGE('',*,*,#512,.F.);
#345=ORIENTED_EDGE('',*,*,#516,.F.);
#346=ORIENTED_EDGE('',*,*,#513,.F.);
#347=ORIENTED_EDGE('',*,*,#522,.F.);
#348=ORIENTED_EDGE('',*,*,#523,.F.);
#349=ORIENTED_EDGE('',*,*,#524,.T.);
#350=ORIENTED_EDGE('',*,*,#525,.T.);
#351=ORIENTED_EDGE('',*,*,#520,.F.);
#352=ORIENTED_EDGE('',*,*,#526,.F.);
#353=ORIENTED_EDGE('',*,*,#527,.T.);
#354=ORIENTED_EDGE('',*,*,#528,.F.);
#355=ORIENTED_EDGE('',*,*,#434,.F.);
#356=ORIENTED_EDGE('',*,*,#428,.T.);
#357=ORIENTED_EDGE('',*,*,#433,.F.);
#358=ORIENTED_EDGE('',*,*,#529,.F.);
#359=ORIENTED_EDGE('',*,*,#509,.F.);
#360=ORIENTED_EDGE('',*,*,#530,.T.);
#361=ORIENTED_EDGE('',*,*,#531,.T.);
#362=ORIENTED_EDGE('',*,*,#532,.T.);
#363=ORIENTED_EDGE('',*,*,#533,.T.);
#364=ORIENTED_EDGE('',*,*,#534,.T.);
#365=ORIENTED_EDGE('',*,*,#535,.F.);
#366=ORIENTED_EDGE('',*,*,#527,.F.);
#367=ORIENTED_EDGE('',*,*,#529,.T.);
#368=ORIENTED_EDGE('',*,*,#432,.F.);
#369=ORIENTED_EDGE('',*,*,#510,.F.);
#370=ORIENTED_EDGE('',*,*,#536,.F.);
#371=ORIENTED_EDGE('',*,*,#534,.F.);
#372=ORIENTED_EDGE('',*,*,#537,.F.);
#373=ORIENTED_EDGE('',*,*,#538,.T.);
#374=ORIENTED_EDGE('',*,*,#539,.T.);
#375=ORIENTED_EDGE('',*,*,#532,.F.);
#376=ORIENTED_EDGE('',*,*,#540,.F.);
#377=ORIENTED_EDGE('',*,*,#515,.F.);
#378=ORIENTED_EDGE('',*,*,#541,.T.);
#379=ORIENTED_EDGE('',*,*,#530,.F.);
#380=ORIENTED_EDGE('',*,*,#542,.F.);
#381=ORIENTED_EDGE('',*,*,#537,.T.);
#382=ORIENTED_EDGE('',*,*,#533,.F.);
#383=ORIENTED_EDGE('',*,*,#539,.F.);
#384=ORIENTED_EDGE('',*,*,#543,.F.);
#385=ORIENTED_EDGE('',*,*,#544,.T.);
#386=ORIENTED_EDGE('',*,*,#545,.T.);
#387=ORIENTED_EDGE('',*,*,#526,.T.);
#388=ORIENTED_EDGE('',*,*,#519,.F.);
#389=ORIENTED_EDGE('',*,*,#427,.T.);
#390=ORIENTED_EDGE('',*,*,#543,.T.);
#391=ORIENTED_EDGE('',*,*,#538,.F.);
#392=ORIENTED_EDGE('',*,*,#546,.F.);
#393=ORIENTED_EDGE('',*,*,#547,.T.);
#394=ORIENTED_EDGE('',*,*,#548,.F.);
#395=ORIENTED_EDGE('',*,*,#544,.F.);
#396=ORIENTED_EDGE('',*,*,#547,.F.);
#397=ORIENTED_EDGE('',*,*,#549,.F.);
#398=ORIENTED_EDGE('',*,*,#523,.T.);
#399=ORIENTED_EDGE('',*,*,#521,.F.);
#400=ORIENTED_EDGE('',*,*,#525,.F.);
#401=ORIENTED_EDGE('',*,*,#550,.T.);
#402=ORIENTED_EDGE('',*,*,#549,.T.);
#403=ORIENTED_EDGE('',*,*,#546,.T.);
#404=ORIENTED_EDGE('',*,*,#540,.T.);
#405=ORIENTED_EDGE('',*,*,#531,.F.);
#406=ORIENTED_EDGE('',*,*,#541,.F.);
#407=ORIENTED_EDGE('',*,*,#514,.F.);
#408=ORIENTED_EDGE('',*,*,#425,.T.);
#409=ORIENTED_EDGE('',*,*,#548,.T.);
#410=ORIENTED_EDGE('',*,*,#550,.F.);
#411=ORIENTED_EDGE('',*,*,#524,.F.);
#412=ORIENTED_EDGE('',*,*,#545,.F.);
#413=ORIENTED_EDGE('',*,*,#517,.T.);
#414=ORIENTED_EDGE('',*,*,#438,.F.);
#415=ORIENTED_EDGE('',*,*,#551,.F.);
#416=ORIENTED_EDGE('',*,*,#518,.T.);
#417=ORIENTED_EDGE('',*,*,#551,.T.);
#418=ORIENTED_EDGE('',*,*,#437,.F.);
#419=ORIENTED_EDGE('',*,*,#463,.T.);
#420=ORIENTED_EDGE('',*,*,#429,.F.);
#421=ORIENTED_EDGE('',*,*,#528,.T.);
#422=ORIENTED_EDGE('',*,*,#535,.T.);
#423=ORIENTED_EDGE('',*,*,#536,.T.);
#424=ORIENTED_EDGE('',*,*,#542,.T.);
#425=EDGE_CURVE('',#552,#552,#638,.T.);
#426=EDGE_CURVE('',#553,#553,#639,.T.);
#427=EDGE_CURVE('',#554,#554,#640,.T.);
#428=EDGE_CURVE('',#555,#555,#641,.T.);
#429=EDGE_CURVE('',#556,#557,#133,.T.);
#430=EDGE_CURVE('',#557,#558,#65,.T.);
#431=EDGE_CURVE('',#558,#559,#134,.T.);
#432=EDGE_CURVE('',#559,#560,#43,.T.);
#433=EDGE_CURVE('',#560,#561,#66,.T.);
#434=EDGE_CURVE('',#561,#556,#44,.T.);
#435=EDGE_CURVE('',#562,#563,#135,.T.);
#436=EDGE_CURVE('',#563,#564,#67,.T.);
#437=EDGE_CURVE('',#564,#565,#136,.T.);
#438=EDGE_CURVE('',#565,#566,#45,.T.);
#439=EDGE_CURVE('',#566,#567,#68,.T.);
#440=EDGE_CURVE('',#567,#562,#46,.T.);
#441=EDGE_CURVE('',#568,#569,#137,.T.);
#442=EDGE_CURVE('',#569,#570,#138,.T.);
#443=EDGE_CURVE('',#570,#571,#47,.T.);
#444=EDGE_CURVE('',#571,#572,#48,.T.);
#445=EDGE_CURVE('',#572,#573,#642,.T.);
#446=EDGE_CURVE('',#573,#574,#139,.T.);
#447=EDGE_CURVE('',#574,#568,#49,.T.);
#448=EDGE_CURVE('',#575,#576,#50,.T.);
#449=EDGE_CURVE('',#576,#577,#140,.T.);
#450=EDGE_CURVE('',#577,#578,#51,.T.);
#451=EDGE_CURVE('',#578,#579,#141,.T.);
#452=EDGE_CURVE('',#579,#580,#643,.T.);
#453=EDGE_CURVE('',#580,#575,#142,.T.);
#454=EDGE_CURVE('',#581,#582,#143,.T.);
#455=EDGE_CURVE('',#582,#583,#52,.T.);
#456=EDGE_CURVE('',#583,#584,#144,.T.);
#457=EDGE_CURVE('',#584,#585,#644,.T.);
#458=EDGE_CURVE('',#585,#586,#53,.T.);
#459=EDGE_CURVE('',#586,#587,#54,.T.);
#460=EDGE_CURVE('',#587,#588,#645,.T.);
#461=EDGE_CURVE('',#588,#589,#145,.T.);
#462=EDGE_CURVE('',#589,#581,#55,.T.);
#463=EDGE_CURVE('',#564,#557,#646,.T.);
#464=EDGE_CURVE('',#558,#563,#647,.T.);
#465=EDGE_CURVE('',#590,#591,#146,.T.);
#466=EDGE_CURVE('',#592,#590,#147,.T.);
#467=EDGE_CURVE('',#593,#592,#56,.T.);
#468=EDGE_CURVE('',#594,#593,#148,.T.);
#469=EDGE_CURVE('',#595,#594,#648,.T.);
#470=EDGE_CURVE('',#596,#595,#57,.T.);
#471=EDGE_CURVE('',#591,#596,#58,.T.);
#472=EDGE_CURVE('',#569,#590,#149,.T.);
#473=EDGE_CURVE('',#570,#591,#150,.T.);
#474=EDGE_CURVE('',#571,#596,#69,.T.);
#475=EDGE_CURVE('',#572,#595,#70,.T.);
#476=EDGE_CURVE('',#573,#594,#151,.F.);
#477=EDGE_CURVE('',#574,#593,#152,.T.);
#478=EDGE_CURVE('',#568,#592,#153,.F.);
#479=EDGE_CURVE('',#597,#598,#154,.T.);
#480=EDGE_CURVE('',#599,#597,#59,.T.);
#481=EDGE_CURVE('',#600,#599,#155,.T.);
#482=EDGE_CURVE('',#601,#600,#649,.T.);
#483=EDGE_CURVE('',#602,#601,#156,.T.);
#484=EDGE_CURVE('',#598,#602,#60,.T.);
#485=EDGE_CURVE('',#576,#597,#157,.F.);
#486=EDGE_CURVE('',#577,#598,#158,.T.);
#487=EDGE_CURVE('',#578,#602,#159,.F.);
#488=EDGE_CURVE('',#579,#601,#160,.T.);
#489=EDGE_CURVE('',#580,#600,#161,.F.);
#490=EDGE_CURVE('',#575,#599,#162,.T.);
#491=EDGE_CURVE('',#603,#604,#61,.T.);
#492=EDGE_CURVE('',#605,#603,#163,.T.);
#493=EDGE_CURVE('',#606,#605,#62,.T.);
#494=EDGE_CURVE('',#607,#606,#164,.T.);
#495=EDGE_CURVE('',#608,#607,#650,.T.);
#496=EDGE_CURVE('',#609,#608,#63,.T.);
#497=EDGE_CURVE('',#610,#609,#64,.T.);
#498=EDGE_CURVE('',#611,#610,#651,.T.);
#499=EDGE_CURVE('',#604,#611,#165,.T.);
#500=EDGE_CURVE('',#582,#603,#166,.T.);
#501=EDGE_CURVE('',#583,#604,#167,.F.);
#502=EDGE_CURVE('',#584,#611,#168,.T.);
#503=EDGE_CURVE('',#585,#610,#71,.T.);
#504=EDGE_CURVE('',#586,#609,#72,.T.);
#505=EDGE_CURVE('',#587,#608,#73,.T.);
#506=EDGE_CURVE('',#588,#607,#169,.F.);
#507=EDGE_CURVE('',#589,#606,#74,.T.);
#508=EDGE_CURVE('',#581,#605,#170,.F.);
#509=EDGE_CURVE('',#612,#613,#652,.T.);
#510=EDGE_CURVE('',#613,#559,#653,.T.);
#511=EDGE_CURVE('',#562,#614,#654,.T.);
#512=EDGE_CURVE('',#614,#615,#655,.T.);
#513=EDGE_CURVE('',#615,#616,#656,.T.);
#514=EDGE_CURVE('',#616,#617,#657,.T.);
#515=EDGE_CURVE('',#617,#612,#658,.T.);
#516=EDGE_CURVE('',#567,#614,#75,.T.);
#517=EDGE_CURVE('',#618,#566,#76,.T.);
#518=EDGE_CURVE('',#619,#618,#659,.T.);
#519=EDGE_CURVE('',#619,#620,#77,.T.);
#520=EDGE_CURVE('',#620,#621,#660,.T.);
#521=EDGE_CURVE('',#621,#622,#78,.T.);
#522=EDGE_CURVE('',#622,#615,#79,.T.);
#523=EDGE_CURVE('',#616,#622,#80,.T.);
#524=EDGE_CURVE('',#623,#624,#661,.T.);
#525=EDGE_CURVE('',#624,#621,#81,.T.);
#526=EDGE_CURVE('',#623,#620,#82,.T.);
#527=EDGE_CURVE('',#561,#625,#83,.T.);
#528=EDGE_CURVE('',#556,#625,#662,.T.);
#529=EDGE_CURVE('',#613,#560,#84,.T.);
#530=EDGE_CURVE('',#612,#626,#85,.T.);
#531=EDGE_CURVE('',#626,#627,#86,.T.);
#532=EDGE_CURVE('',#627,#628,#663,.T.);
#533=EDGE_CURVE('',#628,#629,#87,.T.);
#534=EDGE_CURVE('',#629,#630,#88,.T.);
#535=EDGE_CURVE('',#625,#630,#664,.T.);
#536=EDGE_CURVE('',#630,#631,#665,.T.);
#537=EDGE_CURVE('',#631,#629,#89,.T.);
#538=EDGE_CURVE('',#632,#633,#666,.T.);
#539=EDGE_CURVE('',#633,#628,#90,.T.);
#540=EDGE_CURVE('',#632,#627,#91,.T.);
#541=EDGE_CURVE('',#617,#626,#92,.T.);
#542=EDGE_CURVE('',#631,#619,#667,.T.);
#543=EDGE_CURVE('',#634,#633,#93,.T.);
#544=EDGE_CURVE('',#634,#635,#668,.T.);
#545=EDGE_CURVE('',#635,#623,#94,.T.);
#546=EDGE_CURVE('',#636,#632,#95,.T.);
#547=EDGE_CURVE('',#636,#634,#96,.T.);
#548=EDGE_CURVE('',#635,#637,#97,.T.);
#549=EDGE_CURVE('',#637,#636,#669,.T.);
#550=EDGE_CURVE('',#624,#637,#98,.T.);
#551=EDGE_CURVE('',#618,#565,#670,.T.);
#552=VERTEX_POINT('',#1233);
#553=VERTEX_POINT('',#1235);
#554=VERTEX_POINT('',#1238);
#555=VERTEX_POINT('',#1240);
#556=VERTEX_POINT('',#1246);
#557=VERTEX_POINT('',#1247);
#558=VERTEX_POINT('',#1249);
#559=VERTEX_POINT('',#1254);
#560=VERTEX_POINT('',#1256);
#561=VERTEX_POINT('',#1258);
#562=VERTEX_POINT('',#1265);
#563=VERTEX_POINT('',#1266);
#564=VERTEX_POINT('',#1268);
#565=VERTEX_POINT('',#1273);
#566=VERTEX_POINT('',#1275);
#567=VERTEX_POINT('',#1277);
#568=VERTEX_POINT('',#1284);
#569=VERTEX_POINT('',#1285);
#570=VERTEX_POINT('',#1290);
#571=VERTEX_POINT('',#1292);
#572=VERTEX_POINT('',#1294);
#573=VERTEX_POINT('',#1296);
#574=VERTEX_POINT('',#1304);
#575=VERTEX_POINT('',#1307);
#576=VERTEX_POINT('',#1308);
#577=VERTEX_POINT('',#1313);
#578=VERTEX_POINT('',#1315);
#579=VERTEX_POINT('',#1320);
#580=VERTEX_POINT('',#1322);
#581=VERTEX_POINT('',#1331);
#582=VERTEX_POINT('',#1332);
#583=VERTEX_POINT('',#1334);
#584=VERTEX_POINT('',#1339);
#585=VERTEX_POINT('',#1341);
#586=VERTEX_POINT('',#1343);
#587=VERTEX_POINT('',#1345);
#588=VERTEX_POINT('',#1347);
#589=VERTEX_POINT('',#1352);
#590=VERTEX_POINT('',#1361);
#591=VERTEX_POINT('',#1362);
#592=VERTEX_POINT('',#1367);
#593=VERTEX_POINT('',#1369);
#594=VERTEX_POINT('',#1377);
#595=VERTEX_POINT('',#1379);
#596=VERTEX_POINT('',#1381);
#597=VERTEX_POINT('',#1417);
#598=VERTEX_POINT('',#1418);
#599=VERTEX_POINT('',#1420);
#600=VERTEX_POINT('',#1425);
#601=VERTEX_POINT('',#1427);
#602=VERTEX_POINT('',#1432);
#603=VERTEX_POINT('',#1466);
#604=VERTEX_POINT('',#1467);
#605=VERTEX_POINT('',#1472);
#606=VERTEX_POINT('',#1474);
#607=VERTEX_POINT('',#1479);
#608=VERTEX_POINT('',#1481);
#609=VERTEX_POINT('',#1483);
#610=VERTEX_POINT('',#1485);
#611=VERTEX_POINT('',#1487);
#612=VERTEX_POINT('',#1527);
#613=VERTEX_POINT('',#1528);
#614=VERTEX_POINT('',#1531);
#615=VERTEX_POINT('',#1533);
#616=VERTEX_POINT('',#1535);
#617=VERTEX_POINT('',#1537);
#618=VERTEX_POINT('',#1543);
#619=VERTEX_POINT('',#1545);
#620=VERTEX_POINT('',#1547);
#621=VERTEX_POINT('',#1549);
#622=VERTEX_POINT('',#1551);
#623=VERTEX_POINT('',#1557);
#624=VERTEX_POINT('',#1558);
#625=VERTEX_POINT('',#1563);
#626=VERTEX_POINT('',#1568);
#627=VERTEX_POINT('',#1570);
#628=VERTEX_POINT('',#1572);
#629=VERTEX_POINT('',#1574);
#630=VERTEX_POINT('',#1576);
#631=VERTEX_POINT('',#1581);
#632=VERTEX_POINT('',#1585);
#633=VERTEX_POINT('',#1586);
#634=VERTEX_POINT('',#1594);
#635=VERTEX_POINT('',#1596);
#636=VERTEX_POINT('',#1600);
#637=VERTEX_POINT('',#1604);
#638=CIRCLE('',#886,0.0016);
#639=CIRCLE('',#887,0.0016);
#640=CIRCLE('',#889,0.0016);
#641=CIRCLE('',#890,0.0016);
#642=CIRCLE('',#900,0.011);
#643=CIRCLE('',#904,0.011);
#644=CIRCLE('',#906,0.011);
#645=CIRCLE('',#909,0.011);
#646=CIRCLE('',#911,0.011);
#647=CIRCLE('',#912,0.011);
#648=CIRCLE('',#915,0.011);
#649=CIRCLE('',#927,0.011);
#650=CIRCLE('',#938,0.011);
#651=CIRCLE('',#941,0.011);
#652=CIRCLE('',#952,0.368586174392621);
#653=CIRCLE('',#953,0.0556241845841507);
#654=CIRCLE('',#954,0.0556241845844457);
#655=CIRCLE('',#955,0.368586174420469);
#656=CIRCLE('',#956,0.0128084127686303);
#657=CIRCLE('',#957,0.0105);
#658=CIRCLE('',#958,0.0128084127589082);
#659=CIRCLE('',#961,0.367499000290219);
#660=CIRCLE('',#962,0.005);
#661=CIRCLE('',#965,0.005);
#662=CIRCLE('',#967,0.0556241845836151);
#663=CIRCLE('',#969,0.005);
#664=CIRCLE('',#970,0.368586174396602);
#665=CIRCLE('',#973,0.0128084131491468);
#666=CIRCLE('',#975,0.005);
#667=CIRCLE('',#978,0.0105);
#668=CIRCLE('',#979,0.0088);
#669=CIRCLE('',#982,0.0088);
#670=CIRCLE('',#986,0.0556241845839249);
#671=EDGE_LOOP('',(#171));
#672=EDGE_LOOP('',(#172));
#673=EDGE_LOOP('',(#173));
#674=EDGE_LOOP('',(#174));
#675=EDGE_LOOP('',(#175,#176,#177,#178,#179,#180));
#676=EDGE_LOOP('',(#181,#182,#183,#184,#185,#186));
#677=EDGE_LOOP('',(#187,#188,#189,#190,#191,#192,#193));
#678=EDGE_LOOP('',(#194,#195,#196,#197,#198,#199));
#679=EDGE_LOOP('',(#200,#201,#202,#203,#204,#205,#206,#207,#208));
#680=EDGE_LOOP('',(#209,#210,#211,#212));
#681=EDGE_LOOP('',(#213,#214,#215,#216,#217,#218,#219));
#682=EDGE_LOOP('',(#220,#221,#222,#223));
#683=EDGE_LOOP('',(#224,#225,#226,#227));
#684=EDGE_LOOP('',(#228,#229,#230,#231));
#685=EDGE_LOOP('',(#232,#233,#234,#235));
#686=EDGE_LOOP('',(#236,#237,#238,#239));
#687=EDGE_LOOP('',(#240,#241,#242,#243));
#688=EDGE_LOOP('',(#244,#245,#246,#247));
#689=EDGE_LOOP('',(#248,#249,#250,#251,#252,#253));
#690=EDGE_LOOP('',(#254,#255,#256,#257));
#691=EDGE_LOOP('',(#258,#259,#260,#261));
#692=EDGE_LOOP('',(#262,#263,#264,#265));
#693=EDGE_LOOP('',(#266,#267,#268,#269));
#694=EDGE_LOOP('',(#270,#271,#272,#273));
#695=EDGE_LOOP('',(#274,#275,#276,#277));
#696=EDGE_LOOP('',(#278,#279,#280,#281,#282,#283,#284,#285,#286));
#697=EDGE_LOOP('',(#287,#288,#289,#290));
#698=EDGE_LOOP('',(#291,#292,#293,#294));
#699=EDGE_LOOP('',(#295,#296,#297,#298));
#700=EDGE_LOOP('',(#299,#300,#301,#302));
#701=EDGE_LOOP('',(#303,#304,#305,#306));
#702=EDGE_LOOP('',(#307,#308,#309,#310));
#703=EDGE_LOOP('',(#311,#312,#313,#314));
#704=EDGE_LOOP('',(#315,#316,#317,#318));
#705=EDGE_LOOP('',(#319,#320,#321,#322));
#706=EDGE_LOOP('',(#323,#324,#325,#326,#327,#328,#329,#330,#331,#332));
#707=EDGE_LOOP('',(#333,#334,#335));
#708=EDGE_LOOP('',(#336));
#709=EDGE_LOOP('',(#337,#338,#339,#340,#341,#342,#343,#344,#345));
#710=EDGE_LOOP('',(#346,#347,#348));
#711=EDGE_LOOP('',(#349,#350,#351,#352));
#712=EDGE_LOOP('',(#353,#354,#355));
#713=EDGE_LOOP('',(#356));
#714=EDGE_LOOP('',(#357,#358,#359,#360,#361,#362,#363,#364,#365,#366));
#715=EDGE_LOOP('',(#367,#368,#369));
#716=EDGE_LOOP('',(#370,#371,#372));
#717=EDGE_LOOP('',(#373,#374,#375,#376));
#718=EDGE_LOOP('',(#377,#378,#379));
#719=EDGE_LOOP('',(#380,#381,#382,#383,#384,#385,#386,#387,#388));
#720=EDGE_LOOP('',(#389));
#721=EDGE_LOOP('',(#390,#391,#392,#393));
#722=EDGE_LOOP('',(#394,#395,#396,#397));
#723=EDGE_LOOP('',(#398,#399,#400,#401,#402,#403,#404,#405,#406,#407));
#724=EDGE_LOOP('',(#408));
#725=EDGE_LOOP('',(#409,#410,#411,#412));
#726=EDGE_LOOP('',(#413,#414,#415));
#727=EDGE_LOOP('',(#416,#417,#418,#419,#420,#421,#422,#423,#424));
#728=FACE_BOUND('',#671,.T.);
#729=FACE_BOUND('',#672,.T.);
#730=FACE_BOUND('',#673,.T.);
#731=FACE_BOUND('',#674,.T.);
#732=FACE_BOUND('',#675,.T.);
#733=FACE_BOUND('',#676,.T.);
#734=FACE_BOUND('',#677,.T.);
#735=FACE_BOUND('',#678,.T.);
#736=FACE_BOUND('',#679,.T.);
#737=FACE_BOUND('',#680,.T.);
#738=FACE_BOUND('',#681,.T.);
#739=FACE_BOUND('',#682,.T.);
#740=FACE_BOUND('',#683,.T.);
#741=FACE_BOUND('',#684,.T.);
#742=FACE_BOUND('',#685,.T.);
#743=FACE_BOUND('',#686,.T.);
#744=FACE_BOUND('',#687,.T.);
#745=FACE_BOUND('',#688,.T.);
#746=FACE_BOUND('',#689,.T.);
#747=FACE_BOUND('',#690,.T.);
#748=FACE_BOUND('',#691,.T.);
#749=FACE_BOUND('',#692,.T.);
#750=FACE_BOUND('',#693,.T.);
#751=FACE_BOUND('',#694,.T.);
#752=FACE_BOUND('',#695,.T.);
#753=FACE_BOUND('',#696,.T.);
#754=FACE_BOUND('',#697,.T.);
#755=FACE_BOUND('',#698,.T.);
#756=FACE_BOUND('',#699,.T.);
#757=FACE_BOUND('',#700,.T.);
#758=FACE_BOUND('',#701,.T.);
#759=FACE_BOUND('',#702,.T.);
#760=FACE_BOUND('',#703,.T.);
#761=FACE_BOUND('',#704,.T.);
#762=FACE_BOUND('',#705,.T.);
#763=FACE_BOUND('',#706,.T.);
#764=FACE_BOUND('',#707,.T.);
#765=FACE_BOUND('',#708,.T.);
#766=FACE_BOUND('',#709,.T.);
#767=FACE_BOUND('',#710,.T.);
#768=FACE_BOUND('',#711,.T.);
#769=FACE_BOUND('',#712,.T.);
#770=FACE_BOUND('',#713,.T.);
#771=FACE_BOUND('',#714,.T.);
#772=FACE_BOUND('',#715,.T.);
#773=FACE_BOUND('',#716,.T.);
#774=FACE_BOUND('',#717,.T.);
#775=FACE_BOUND('',#718,.T.);
#776=FACE_BOUND('',#719,.T.);
#777=FACE_BOUND('',#720,.T.);
#778=FACE_BOUND('',#721,.T.);
#779=FACE_BOUND('',#722,.T.);
#780=FACE_BOUND('',#723,.T.);
#781=FACE_BOUND('',#724,.T.);
#782=FACE_BOUND('',#725,.T.);
#783=FACE_BOUND('',#726,.T.);
#784=FACE_BOUND('',#727,.T.);
#785=CYLINDRICAL_SURFACE('',#885,0.0016);
#786=CYLINDRICAL_SURFACE('',#888,0.0016);
#787=CYLINDRICAL_SURFACE('',#891,0.002);
#788=CYLINDRICAL_SURFACE('',#894,0.002);
#789=CYLINDRICAL_SURFACE('',#897,0.011);
#790=CYLINDRICAL_SURFACE('',#913,0.011);
#791=CYLINDRICAL_SURFACE('',#918,0.000400093778685124);
#792=CYLINDRICAL_SURFACE('',#922,0.00039999082198805);
#793=CYLINDRICAL_SURFACE('',#924,0.000397239910740595);
#794=CYLINDRICAL_SURFACE('',#925,0.011);
#795=CYLINDRICAL_SURFACE('',#929,0.000160252920877184);
#796=CYLINDRICAL_SURFACE('',#931,8.04797346014783E-5);
#797=CYLINDRICAL_SURFACE('',#933,8.04719422204169E-5);
#798=CYLINDRICAL_SURFACE('',#935,0.011);
#799=CYLINDRICAL_SURFACE('',#943,0.000802368103057037);
#800=CYLINDRICAL_SURFACE('',#948,0.000800859876777965);
#801=CYLINDRICAL_SURFACE('',#950,0.000800222419119442);
#802=CYLINDRICAL_SURFACE('',#964,0.005);
#803=CYLINDRICAL_SURFACE('',#974,0.005);
#804=CYLINDRICAL_SURFACE('',#981,0.0088);
#805=ADVANCED_FACE('',(#728,#729),#785,.F.);
#806=ADVANCED_FACE('',(#730,#731),#786,.F.);
#807=ADVANCED_FACE('',(#732),#787,.F.);
#808=ADVANCED_FACE('',(#733),#788,.F.);
#809=ADVANCED_FACE('',(#734,#735,#736,#737),#789,.T.);
#810=ADVANCED_FACE('',(#738),#790,.T.);
#811=ADVANCED_FACE('',(#739),#791,.F.);
#812=ADVANCED_FACE('',(#740),#14,.F.);
#813=ADVANCED_FACE('',(#741),#15,.F.);
#814=ADVANCED_FACE('',(#742),#16,.F.);
#815=ADVANCED_FACE('',(#743),#792,.F.);
#816=ADVANCED_FACE('',(#744),#17,.F.);
#817=ADVANCED_FACE('',(#745),#793,.F.);
#818=ADVANCED_FACE('',(#746),#794,.T.);
#819=ADVANCED_FACE('',(#747),#795,.F.);
#820=ADVANCED_FACE('',(#748),#18,.F.);
#821=ADVANCED_FACE('',(#749),#796,.F.);
#822=ADVANCED_FACE('',(#750),#19,.F.);
#823=ADVANCED_FACE('',(#751),#797,.F.);
#824=ADVANCED_FACE('',(#752),#20,.F.);
#825=ADVANCED_FACE('',(#753),#798,.T.);
#826=ADVANCED_FACE('',(#754),#21,.F.);
#827=ADVANCED_FACE('',(#755),#799,.F.);
#828=ADVANCED_FACE('',(#756),#22,.F.);
#829=ADVANCED_FACE('',(#757),#23,.F.);
#830=ADVANCED_FACE('',(#758),#24,.F.);
#831=ADVANCED_FACE('',(#759),#25,.F.);
#832=ADVANCED_FACE('',(#760),#800,.F.);
#833=ADVANCED_FACE('',(#761),#26,.F.);
#834=ADVANCED_FACE('',(#762),#801,.T.);
#835=ADVANCED_FACE('',(#763),#12,.T.);
#836=ADVANCED_FACE('',(#764),#27,.T.);
#837=ADVANCED_FACE('',(#765,#766),#28,.T.);
#838=ADVANCED_FACE('',(#767),#29,.T.);
#839=ADVANCED_FACE('',(#768),#802,.T.);
#840=ADVANCED_FACE('',(#769),#30,.T.);
#841=ADVANCED_FACE('',(#770,#771),#31,.T.);
#842=ADVANCED_FACE('',(#772),#32,.T.);
#843=ADVANCED_FACE('',(#773),#33,.T.);
#844=ADVANCED_FACE('',(#774),#803,.T.);
#845=ADVANCED_FACE('',(#775),#34,.T.);
#846=ADVANCED_FACE('',(#776),#35,.F.);
#847=ADVANCED_FACE('',(#777,#778),#36,.T.);
#848=ADVANCED_FACE('',(#779),#804,.F.);
#849=ADVANCED_FACE('',(#780),#37,.T.);
#850=ADVANCED_FACE('',(#781,#782),#38,.T.);
#851=ADVANCED_FACE('',(#783),#39,.T.);
#852=ADVANCED_FACE('',(#784),#13,.T.);
#853=CLOSED_SHELL('',(#805,#806,#807,#808,#809,#810,#811,#812,#813,#814,
#815,#816,#817,#818,#819,#820,#821,#822,#823,#824,#825,#826,#827,#828,#829,
#830,#831,#832,#833,#834,#835,#836,#837,#838,#839,#840,#841,#842,#843,#844,
#845,#846,#847,#848,#849,#850,#851,#852));
#854=STYLED_ITEM('',(#855),#881);
#855=PRESENTATION_STYLE_ASSIGNMENT((#859));
#856=PRESENTATION_STYLE_ASSIGNMENT((#860));
#857=PRESENTATION_STYLE_ASSIGNMENT((#861));
#858=PRESENTATION_STYLE_ASSIGNMENT((#862));
#859=SURFACE_STYLE_USAGE(.BOTH.,#863);
#860=SURFACE_STYLE_USAGE(.BOTH.,#864);
#861=SURFACE_STYLE_USAGE(.BOTH.,#865);
#862=SURFACE_STYLE_USAGE(.BOTH.,#866);
#863=SURFACE_SIDE_STYLE('',(#867));
#864=SURFACE_SIDE_STYLE('',(#868));
#865=SURFACE_SIDE_STYLE('',(#869));
#866=SURFACE_SIDE_STYLE('',(#870));
#867=SURFACE_STYLE_FILL_AREA(#871);
#868=SURFACE_STYLE_FILL_AREA(#872);
#869=SURFACE_STYLE_FILL_AREA(#873);
#870=SURFACE_STYLE_FILL_AREA(#874);
#871=FILL_AREA_STYLE('',(#875));
#872=FILL_AREA_STYLE('',(#876));
#873=FILL_AREA_STYLE('',(#877));
#874=FILL_AREA_STYLE('',(#878));
#875=FILL_AREA_STYLE_COLOUR('',#879);
#876=FILL_AREA_STYLE_COLOUR('',#880);
#877=FILL_AREA_STYLE_COLOUR('',#880);
#878=FILL_AREA_STYLE_COLOUR('',#880);
#879=COLOUR_RGB('',0.0980392156862745,0.0980392156862745,0.0980392156862745);
#880=COLOUR_RGB('',0.858823529411765,0.0431372549019608,0.0431372549019608);
#881=MANIFOLD_SOLID_BREP('CPAP clamp',#853);
#882=SHAPE_DEFINITION_REPRESENTATION(#1618,#883);
#883=SHAPE_REPRESENTATION('CPAP clamp',(#884),#1613);
#884=AXIS2_PLACEMENT_3D('',#1230,#988,#989);
#885=AXIS2_PLACEMENT_3D('',#1231,#990,#991);
#886=AXIS2_PLACEMENT_3D('',#1232,#992,#993);
#887=AXIS2_PLACEMENT_3D('',#1234,#994,#995);
#888=AXIS2_PLACEMENT_3D('',#1236,#996,#997);
#889=AXIS2_PLACEMENT_3D('',#1237,#998,#999);
#890=AXIS2_PLACEMENT_3D('',#1239,#1000,#1001);
#891=AXIS2_PLACEMENT_3D('',#1241,#1002,#1003);
#892=AXIS2_PLACEMENT_3D('',#1255,#1005,#1006);
#893=AXIS2_PLACEMENT_3D('',#1259,#1008,#1009);
#894=AXIS2_PLACEMENT_3D('',#1260,#1010,#1011);
#895=AXIS2_PLACEMENT_3D('',#1274,#1013,#1014);
#896=AXIS2_PLACEMENT_3D('',#1278,#1016,#1017);
#897=AXIS2_PLACEMENT_3D('',#1279,#1018,#1019);
#898=AXIS2_PLACEMENT_3D('',#1291,#1020,#1021);
#899=AXIS2_PLACEMENT_3D('',#1293,#1022,#1023);
#900=AXIS2_PLACEMENT_3D('',#1295,#1024,#1025);
#901=AXIS2_PLACEMENT_3D('',#1305,#1026,#1027);
#902=AXIS2_PLACEMENT_3D('',#1306,#1028,#1029);
#903=AXIS2_PLACEMENT_3D('',#1314,#1030,#1031);
#904=AXIS2_PLACEMENT_3D('',#1321,#1032,#1033);
#905=AXIS2_PLACEMENT_3D('',#1333,#1034,#1035);
#906=AXIS2_PLACEMENT_3D('',#1340,#1036,#1037);
#907=AXIS2_PLACEMENT_3D('',#1342,#1038,#1039);
#908=AXIS2_PLACEMENT_3D('',#1344,#1040,#1041);
#909=AXIS2_PLACEMENT_3D('',#1346,#1042,#1043);
#910=AXIS2_PLACEMENT_3D('',#1353,#1044,#1045);
#911=AXIS2_PLACEMENT_3D('',#1354,#1046,#1047);
#912=AXIS2_PLACEMENT_3D('',#1355,#1048,#1049);
#913=AXIS2_PLACEMENT_3D('',#1356,#1050,#1051);
#914=AXIS2_PLACEMENT_3D('',#1368,#1052,#1053);
#915=AXIS2_PLACEMENT_3D('',#1378,#1054,#1055);
#916=AXIS2_PLACEMENT_3D('',#1380,#1056,#1057);
#917=AXIS2_PLACEMENT_3D('',#1382,#1058,#1059);
#918=AXIS2_PLACEMENT_3D('',#1383,#1060,#1061);
#919=AXIS2_PLACEMENT_3D('',#1392,#1062,#1063);
#920=AXIS2_PLACEMENT_3D('',#1394,#1065,#1066);
#921=AXIS2_PLACEMENT_3D('',#1396,#1068,#1069);
#922=AXIS2_PLACEMENT_3D('',#1401,#1070,#1071);
#923=AXIS2_PLACEMENT_3D('',#1406,#1072,#1073);
#924=AXIS2_PLACEMENT_3D('',#1411,#1074,#1075);
#925=AXIS2_PLACEMENT_3D('',#1412,#1076,#1077);
#926=AXIS2_PLACEMENT_3D('',#1419,#1078,#1079);
#927=AXIS2_PLACEMENT_3D('',#1426,#1080,#1081);
#928=AXIS2_PLACEMENT_3D('',#1433,#1082,#1083);
#929=AXIS2_PLACEMENT_3D('',#1434,#1084,#1085);
#930=AXIS2_PLACEMENT_3D('',#1443,#1086,#1087);
#931=AXIS2_PLACEMENT_3D('',#1448,#1088,#1089);
#932=AXIS2_PLACEMENT_3D('',#1453,#1090,#1091);
#933=AXIS2_PLACEMENT_3D('',#1458,#1092,#1093);
#934=AXIS2_PLACEMENT_3D('',#1463,#1094,#1095);
#935=AXIS2_PLACEMENT_3D('',#1464,#1096,#1097);
#936=AXIS2_PLACEMENT_3D('',#1465,#1098,#1099);
#937=AXIS2_PLACEMENT_3D('',#1473,#1100,#1101);
#938=AXIS2_PLACEMENT_3D('',#1480,#1102,#1103);
#939=AXIS2_PLACEMENT_3D('',#1482,#1104,#1105);
#940=AXIS2_PLACEMENT_3D('',#1484,#1106,#1107);
#941=AXIS2_PLACEMENT_3D('',#1486,#1108,#1109);
#942=AXIS2_PLACEMENT_3D('',#1492,#1110,#1111);
#943=AXIS2_PLACEMENT_3D('',#1501,#1112,#1113);
#944=AXIS2_PLACEMENT_3D('',#1506,#1114,#1115);
#945=AXIS2_PLACEMENT_3D('',#1508,#1117,#1118);
#946=AXIS2_PLACEMENT_3D('',#1510,#1120,#1121);
#947=AXIS2_PLACEMENT_3D('',#1512,#1123,#1124);
#948=AXIS2_PLACEMENT_3D('',#1517,#1125,#1126);
#949=AXIS2_PLACEMENT_3D('',#1519,#1128,#1129);
#950=AXIS2_PLACEMENT_3D('',#1524,#1130,#1131);
#951=AXIS2_PLACEMENT_3D('',#1525,#1132,#1133);
#952=AXIS2_PLACEMENT_3D('',#1526,#1134,#1135);
#953=AXIS2_PLACEMENT_3D('',#1529,#1136,#1137);
#954=AXIS2_PLACEMENT_3D('',#1530,#1138,#1139);
#955=AXIS2_PLACEMENT_3D('',#1532,#1140,#1141);
#956=AXIS2_PLACEMENT_3D('',#1534,#1142,#1143);
#957=AXIS2_PLACEMENT_3D('',#1536,#1144,#1145);
#958=AXIS2_PLACEMENT_3D('',#1538,#1146,#1147);
#959=AXIS2_PLACEMENT_3D('',#1539,#1148,#1149);
#960=AXIS2_PLACEMENT_3D('',#1541,#1151,#1152);
#961=AXIS2_PLACEMENT_3D('',#1544,#1154,#1155);
#962=AXIS2_PLACEMENT_3D('',#1548,#1157,#1158);
#963=AXIS2_PLACEMENT_3D('',#1553,#1161,#1162);
#964=AXIS2_PLACEMENT_3D('',#1555,#1164,#1165);
#965=AXIS2_PLACEMENT_3D('',#1556,#1166,#1167);
#966=AXIS2_PLACEMENT_3D('',#1561,#1170,#1171);
#967=AXIS2_PLACEMENT_3D('',#1564,#1173,#1174);
#968=AXIS2_PLACEMENT_3D('',#1565,#1175,#1176);
#969=AXIS2_PLACEMENT_3D('',#1571,#1180,#1181);
#970=AXIS2_PLACEMENT_3D('',#1577,#1184,#1185);
#971=AXIS2_PLACEMENT_3D('',#1578,#1186,#1187);
#972=AXIS2_PLACEMENT_3D('',#1579,#1188,#1189);
#973=AXIS2_PLACEMENT_3D('',#1580,#1190,#1191);
#974=AXIS2_PLACEMENT_3D('',#1583,#1193,#1194);
#975=AXIS2_PLACEMENT_3D('',#1584,#1195,#1196);
#976=AXIS2_PLACEMENT_3D('',#1589,#1199,#1200);
#977=AXIS2_PLACEMENT_3D('',#1591,#1202,#1203);
#978=AXIS2_PLACEMENT_3D('',#1592,#1204,#1205);
#979=AXIS2_PLACEMENT_3D('',#1595,#1207,#1208);
#980=AXIS2_PLACEMENT_3D('',#1598,#1210,#1211);
#981=AXIS2_PLACEMENT_3D('',#1602,#1214,#1215);
#982=AXIS2_PLACEMENT_3D('',#1605,#1217,#1218);
#983=AXIS2_PLACEMENT_3D('',#1606,#1219,#1220);
#984=AXIS2_PLACEMENT_3D('',#1608,#1222,#1223);
#985=AXIS2_PLACEMENT_3D('',#1609,#1224,#1225);
#986=AXIS2_PLACEMENT_3D('',#1610,#1226,#1227);
#987=AXIS2_PLACEMENT_3D('',#1611,#1228,#1229);
#988=DIRECTION('',(0.,0.,1.));
#989=DIRECTION('',(1.,0.,0.));
#990=DIRECTION('',(0.,-1.,0.));
#991=DIRECTION('',(-1.,0.,0.));
#992=DIRECTION('',(-2.91681634416672E-14,1.,0.));
#993=DIRECTION('',(-1.,-2.91681634416672E-14,0.));
#994=DIRECTION('',(1.52259157662879E-15,-1.,0.));
#995=DIRECTION('',(-1.,-1.52259157662879E-15,0.));
#996=DIRECTION('',(0.,-1.,0.));
#997=DIRECTION('',(-1.,0.,0.));
#998=DIRECTION('',(-2.91681634416672E-14,1.,0.));
#999=DIRECTION('',(-1.,-2.91681634416672E-14,0.));
#1000=DIRECTION('',(1.52259157662879E-15,-1.,0.));
#1001=DIRECTION('',(-1.,-1.52259157662879E-15,0.));
#1002=DIRECTION('',(0.,0.,-1.));
#1003=DIRECTION('',(-0.554700196225231,-0.832050294337843,0.));
#1004=DIRECTION('',(0.,0.,1.));
#1005=DIRECTION('',(-1.0766348288117E-15,0.707106781186529,0.707106781186566));
#1006=DIRECTION('',(1.07943856534512E-15,-0.707106781186566,0.707106781186529));
#1007=DIRECTION('',(0.,0.,-1.));
#1008=DIRECTION('',(-1.07663482881173E-15,0.707106781186548,-0.707106781186548));
#1009=DIRECTION('',(1.0794385653451E-15,-0.707106781186548,-0.707106781186548));
#1010=DIRECTION('',(0.,0.,1.));
#1011=DIRECTION('',(0.554700196225238,-0.832050294337838,0.));
#1012=DIRECTION('',(0.,0.,-1.));
#1013=DIRECTION('',(-1.07663482881173E-15,0.707106781186548,-0.707106781186548));
#1014=DIRECTION('',(1.17756934401283E-15,-0.707106781186548,-0.707106781186548));
#1015=DIRECTION('',(0.,0.,1.));
#1016=DIRECTION('',(-1.07663482881172E-15,0.707106781186541,0.707106781186554));
#1017=DIRECTION('',(1.17756934401284E-15,-0.707106781186554,0.707106781186541));
#1018=DIRECTION('',(0.,0.,-1.));
#1019=DIRECTION('',(-1.,0.,0.));
#1020=DIRECTION('',(0.675590207615353,0.,-0.737277336810406));
#1021=DIRECTION('',(-0.737277336810406,0.,-0.675590207615353));
#1022=DIRECTION('',(0.675590207615683,0.,0.737277336810103));
#1023=DIRECTION('',(-0.737277336810103,0.,0.675590207615683));
#1024=DIRECTION('',(2.48497735078436E-12,0.,1.));
#1025=DIRECTION('',(-1.,0.,2.48497735078436E-12));
#1026=DIRECTION('',(-0.675590207615963,0.,-0.737277336809846));
#1027=DIRECTION('',(-0.737277336809846,0.,0.675590207615963));
#1028=DIRECTION('',(-0.675590207617336,0.,-0.737277336808589));
#1029=DIRECTION('',(-0.737277336808589,0.,0.675590207617336));
#1030=DIRECTION('',(0.675590207611304,0.,-0.737277336814116));
#1031=DIRECTION('',(-0.737277336814116,0.,-0.675590207611304));
#1032=DIRECTION('',(-2.68655143515013E-12,0.,1.));
#1033=DIRECTION('',(-1.,0.,-2.68655143515013E-12));
#1034=DIRECTION('',(0.675590207616594,0.,0.737277336809269));
#1035=DIRECTION('',(-0.737277336809269,0.,0.675590207616594));
#1036=DIRECTION('',(3.24588812664002E-13,0.,1.));
#1037=DIRECTION('',(-1.,0.,3.24588812664002E-13));
#1038=DIRECTION('',(-0.67559020761604,0.,-0.737277336809776));
#1039=DIRECTION('',(-0.737277336809776,0.,0.67559020761604));
#1040=DIRECTION('',(0.675590207612633,0.,-0.737277336812899));
#1041=DIRECTION('',(-0.737277336812899,0.,-0.675590207612633));
#1042=DIRECTION('',(-1.90129784153734E-13,0.,1.));
#1043=DIRECTION('',(-1.,0.,-1.90129784153734E-13));
#1044=DIRECTION('',(-0.675590207614922,0.,0.737277336810801));
#1045=DIRECTION('',(-0.737277336810801,0.,-0.675590207614922));
#1046=DIRECTION('',(0.,0.,-1.));
#1047=DIRECTION('',(-1.,0.,0.));
#1048=DIRECTION('',(0.,0.,1.));
#1049=DIRECTION('',(-1.,0.,0.));
#1050=DIRECTION('',(0.,0.,-1.));
#1051=DIRECTION('',(-1.,0.,0.));
#1052=DIRECTION('',(-0.675590207615963,0.,-0.737277336809846));
#1053=DIRECTION('',(-0.737277336809846,0.,0.675590207615963));
#1054=DIRECTION('',(2.48497735078436E-12,0.,1.));
#1055=DIRECTION('',(-1.,0.,2.48497735078436E-12));
#1056=DIRECTION('',(0.675590207615683,0.,0.737277336810103));
#1057=DIRECTION('',(-0.737277336810103,0.,0.675590207615683));
#1058=DIRECTION('',(0.675590207615353,0.,-0.737277336810406));
#1059=DIRECTION('',(-0.737277336810406,0.,-0.675590207615353));
#1060=DIRECTION('',(0.,-1.,0.));
#1061=DIRECTION('',(0.,0.,-1.));
#1062=DIRECTION('',(0.675590207612633,0.,-0.737277336812899));
#1063=DIRECTION('',(0.729205626285972,-0.147567396749197,0.668193847629226));
#1064=DIRECTION('',(0.,-1.,0.));
#1065=DIRECTION('',(0.675590207615683,0.,0.737277336810103));
#1066=DIRECTION('',(-0.735620928522419,0.0669945058965041,0.674072389064778));
#1067=DIRECTION('',(0.,-1.,0.));
#1068=DIRECTION('',(0.,0.,1.));
#1069=DIRECTION('',(-0.933074715551903,0.359682603412698,0.));
#1070=DIRECTION('',(0.,-1.,0.));
#1071=DIRECTION('',(-0.931768103922992,0.,0.363053991180034));
#1072=DIRECTION('',(-0.675590207615963,0.,-0.737277336809846));
#1073=DIRECTION('',(0.624982710081893,0.530491724464576,-0.572691140470405));
#1074=DIRECTION('',(0.,-1.,0.));
#1075=DIRECTION('',(0.,0.,-1.));
#1076=DIRECTION('',(0.,0.,-1.));
#1077=DIRECTION('',(-1.,0.,0.));
#1078=DIRECTION('',(-0.675590207617336,0.,-0.737277336808589));
#1079=DIRECTION('',(-0.737277336808589,0.,0.675590207617336));
#1080=DIRECTION('',(-2.68655143515013E-12,0.,1.));
#1081=DIRECTION('',(-1.,0.,-2.68655143515013E-12));
#1082=DIRECTION('',(0.675590207611304,0.,-0.737277336814116));
#1083=DIRECTION('',(-0.737277336814116,0.,-0.675590207611304));
#1084=DIRECTION('',(-3.3817492680835E-14,-1.,1.64891301172903E-15));
#1085=DIRECTION('',(1.,-3.3817492680835E-14,0.));
#1086=DIRECTION('',(0.675590207611304,0.,-0.737277336814116));
#1087=DIRECTION('',(0.72659215040856,-0.169633392014081,0.665799038207822));
#1088=DIRECTION('',(0.,-1.,0.));
#1089=DIRECTION('',(0.,0.,-1.));
#1090=DIRECTION('',(0.,0.,1.));
#1091=DIRECTION('',(-0.933074715551903,0.359682603412698,0.));
#1092=DIRECTION('',(9.48027837122412E-15,-1.,1.94304766586128E-14));
#1093=DIRECTION('',(0.,-1.94304766586128E-14,-1.));
#1094=DIRECTION('',(-0.675590207617336,0.,-0.737277336808589));
#1095=DIRECTION('',(0.736279808085919,-0.0520014330128234,-0.674676140951772));
#1096=DIRECTION('',(0.,0.,-1.));
#1097=DIRECTION('',(-1.,0.,0.));
#1098=DIRECTION('',(0.675590207616594,0.,0.737277336809269));
#1099=DIRECTION('',(-0.737277336809269,0.,0.675590207616594));
#1100=DIRECTION('',(-0.675590207614922,0.,0.737277336810801));
#1101=DIRECTION('',(-0.737277336810801,0.,-0.675590207614922));
#1102=DIRECTION('',(-1.90129784153734E-13,0.,1.));
#1103=DIRECTION('',(-1.,0.,-1.90129784153734E-13));
#1104=DIRECTION('',(0.675590207612633,0.,-0.737277336812899));
#1105=DIRECTION('',(-0.737277336812899,0.,-0.675590207612633));
#1106=DIRECTION('',(-0.67559020761604,0.,-0.737277336809776));
#1107=DIRECTION('',(-0.737277336809776,0.,0.67559020761604));
#1108=DIRECTION('',(3.24588812664002E-13,0.,1.));
#1109=DIRECTION('',(-1.,0.,3.24588812664002E-13));
#1110=DIRECTION('',(0.675590207616594,0.,0.737277336809269));
#1111=DIRECTION('',(-0.732756231644538,0.110574515804453,0.67144737801313));
#1112=DIRECTION('',(0.,-1.,0.));
#1113=DIRECTION('',(0.,0.,-1.));
#1114=DIRECTION('',(0.,0.,1.));
#1115=DIRECTION('',(-0.933074715551903,0.359682603412698,0.));
#1116=DIRECTION('',(0.,-1.,0.));
#1117=DIRECTION('',(-0.67559020761604,0.,-0.737277336809776));
#1118=DIRECTION('',(0.716520470380585,0.23561450097136,-0.656570043832037));
#1119=DIRECTION('',(0.,-1.,0.));
#1120=DIRECTION('',(0.675590207612633,0.,-0.737277336812899));
#1121=DIRECTION('',(0.729205626285972,-0.147567396749197,0.668193847629226));
#1122=DIRECTION('',(0.,-1.,0.));
#1123=DIRECTION('',(0.,0.,1.));
#1124=DIRECTION('',(-0.933074715551903,0.359682603412698,0.));
#1125=DIRECTION('',(0.,-1.,0.));
#1126=DIRECTION('',(-0.362271475349674,0.,0.932072624932183));
#1127=DIRECTION('',(0.,-1.,0.));
#1128=DIRECTION('',(-0.675590207614922,0.,0.737277336810801));
#1129=DIRECTION('',(-0.692049160653048,0.344857261891925,-0.634146219857705));
#1130=DIRECTION('',(0.,1.,0.));
#1131=DIRECTION('',(-0.000633270507739704,0.,-0.999999799484212));
#1132=DIRECTION('',(0.,0.,-1.));
#1133=DIRECTION('',(-1.,0.,0.));
#1134=DIRECTION('',(7.64139277680673E-11,1.,7.94970215763004E-11));
#1135=DIRECTION('',(0.693331278109965,-1.10267230155272E-10,0.720618996970245));
#1136=DIRECTION('',(-5.17414682903303E-11,0.707106781205857,0.707106781167238));
#1137=DIRECTION('',(0.886794114294102,-0.326799784883085,0.326799784965823));
#1138=DIRECTION('',(-1.51182882276763E-11,0.707106781181034,0.707106781192061));
#1139=DIRECTION('',(-0.881941399584001,-0.333301190903849,0.333301190879795));
#1140=DIRECTION('',(1.10994567670353E-10,1.,-1.15765344480758E-10));
#1141=DIRECTION('',(-0.691974743236018,1.60378952858788E-10,0.721921709552668));
#1142=DIRECTION('',(1.,-1.42331745251754E-11,-5.04545260775452E-11));
#1143=DIRECTION('',(5.24235826423245E-11,0.274246859415803,0.9616593264252));
#1144=DIRECTION('',(0.,0.,-1.));
#1145=DIRECTION('',(-1.,0.,0.));
#1146=DIRECTION('',(-1.,3.61645936194944E-12,1.28088900689221E-11));
#1147=DIRECTION('',(1.33095738127011E-11,0.268756455858419,0.963208164123634));
#1148=DIRECTION('',(0.,0.707106781186548,0.707106781186548));
#1149=DIRECTION('',(1.,-7.61295788314382E-16,7.61295788314382E-16));
#1150=DIRECTION('',(1.,2.92906281215819E-14,-2.77680365449526E-14));
#1151=DIRECTION('',(0.,1.,0.));
#1152=DIRECTION('',(1.,0.,0.));
#1153=DIRECTION('',(-1.,-3.5527136788005E-14,-3.40045452113762E-14));
#1154=DIRECTION('',(0.,1.,0.));
#1155=DIRECTION('',(-0.693332650791441,0.,-0.720617676265656));
#1156=DIRECTION('',(-1.,-2.92906281215819E-14,-6.00574725601534E-15));
#1157=DIRECTION('',(-2.92906281215819E-14,1.,-5.551115123126E-17));
#1158=DIRECTION('',(-1.,-2.92906281215819E-14,1.73472347597688E-17));
#1159=DIRECTION('',(1.,2.92906281215819E-14,5.49473600987842E-15));
#1160=DIRECTION('',(-1.11195774809248E-14,-5.55111512315857E-17,-1.));
#1161=DIRECTION('',(1.,0.,0.));
#1162=DIRECTION('',(0.,-5.55111512315857E-17,-1.));
#1163=DIRECTION('',(-2.96059473233374E-14,1.,0.));
#1164=DIRECTION('',(0.,1.,0.));
#1165=DIRECTION('',(-1.,0.,1.73472347597688E-17));
#1166=DIRECTION('',(-2.92906281215819E-14,1.,-5.551115123126E-17));
#1167=DIRECTION('',(-1.,-2.92906281215819E-14,1.73472347597688E-17));
#1168=DIRECTION('',(-2.96059473233374E-14,1.,0.));
#1169=DIRECTION('',(-2.96059473233374E-14,1.,0.));
#1170=DIRECTION('',(0.,0.707106781186548,-0.707106781186548));
#1171=DIRECTION('',(-1.,7.61295788314398E-16,7.61295788314398E-16));
#1172=DIRECTION('',(-1.,-2.92906281215819E-14,-2.77680365449532E-14));
#1173=DIRECTION('',(1.8211799349851E-11,0.707106781179656,-0.707106781193439));
#1174=DIRECTION('',(0.881941399583909,-0.33330119090655,-0.333301190877338));
#1175=DIRECTION('',(0.,1.,0.));
#1176=DIRECTION('',(1.,0.,0.));
#1177=DIRECTION('',(1.,2.92906281215819E-14,-2.77680365449517E-14));
#1178=DIRECTION('',(2.22218077272052E-14,5.55111512318024E-17,1.));
#1179=DIRECTION('',(1.,2.92906281215819E-14,-3.69206939785197E-15));
#1180=DIRECTION('',(-2.92906281215819E-14,1.,-5.551115123126E-17));
#1181=DIRECTION('',(-1.,-2.92906281215819E-14,1.73472347597688E-17));
#1182=DIRECTION('',(-1.,-2.92906281215819E-14,1.63221708876001E-15));
#1183=DIRECTION('',(1.73472347597672E-17,5.55111512312298E-17,1.));
#1184=DIRECTION('',(0.,1.,0.));
#1185=DIRECTION('',(0.691974743235224,0.,-0.72192170955343));
#1186=DIRECTION('',(0.,0.707106781186548,0.707106781186548));
#1187=DIRECTION('',(1.,-7.61295788314382E-16,7.61295788314382E-16));
#1188=DIRECTION('',(-1.,0.,0.));
#1189=DIRECTION('',(0.,5.55111512312298E-17,1.));
#1190=DIRECTION('',(-1.,-1.9711345045185E-14,-3.12330547187889E-14));
#1191=DIRECTION('',(2.46292941161746E-14,0.274246859334462,-0.961659326448397));
#1192=DIRECTION('',(-2.92358729817957E-14,1.,0.));
#1193=DIRECTION('',(0.,1.,0.));
#1194=DIRECTION('',(1.,0.,-1.67123939424528E-15));
#1195=DIRECTION('',(-2.92906281215819E-14,1.,-5.551115123126E-17));
#1196=DIRECTION('',(-1.,-2.92906281215819E-14,1.73472347597688E-17));
#1197=DIRECTION('',(-2.92358729817957E-14,1.,0.));
#1198=DIRECTION('',(-2.92358729817957E-14,1.,0.));
#1199=DIRECTION('',(-1.,0.,0.));
#1200=DIRECTION('',(0.,5.55111512312298E-17,1.));
#1201=DIRECTION('',(-2.92358729817957E-14,1.,0.));
#1202=DIRECTION('',(0.,0.,1.));
#1203=DIRECTION('',(-1.,0.,0.));
#1204=DIRECTION('',(0.,0.,1.));
#1205=DIRECTION('',(-1.,0.,0.));
#1206=DIRECTION('',(1.,2.92906281215819E-14,-1.63221708876001E-15));
#1207=DIRECTION('',(0.,0.,1.));
#1208=DIRECTION('',(-1.,0.,0.));
#1209=DIRECTION('',(-1.,-2.92906281215819E-14,-6.00574725601534E-15));
#1210=DIRECTION('',(0.,-1.,0.));
#1211=DIRECTION('',(0.,0.,-1.));
#1212=DIRECTION('',(1.,2.92906281215819E-14,-3.69206939785197E-15));
#1213=DIRECTION('',(0.,0.,-1.));
#1214=DIRECTION('',(0.,0.,-1.));
#1215=DIRECTION('',(-1.,0.,0.));
#1216=DIRECTION('',(0.,0.,1.));
#1217=DIRECTION('',(0.,0.,-1.));
#1218=DIRECTION('',(-1.,0.,0.));
#1219=DIRECTION('',(0.,0.,1.));
#1220=DIRECTION('',(-1.,0.,0.));
#1221=DIRECTION('',(1.,2.91681634416672E-14,0.));
#1222=DIRECTION('',(0.,-1.,0.));
#1223=DIRECTION('',(0.,0.,-1.));
#1224=DIRECTION('',(0.,0.707106781186548,-0.707106781186548));
#1225=DIRECTION('',(-1.,7.61295788314398E-16,7.61295788314398E-16));
#1226=DIRECTION('',(3.61741219965627E-12,0.707106781187926,-0.707106781185169));
#1227=DIRECTION('',(-0.886794114294186,-0.326799784921443,-0.326799784927237));
#1228=DIRECTION('',(0.,0.,1.));
#1229=DIRECTION('',(-1.,0.,0.));
#1230=CARTESIAN_POINT('',(0.,0.,0.));
#1231=CARTESIAN_POINT('',(-0.0140415026221286,0.0399996880496906,-0.0104680138129141));
#1232=CARTESIAN_POINT('',(-0.0140415026221286,0.036999688049691,-0.0104680138129141));
#1233=CARTESIAN_POINT('',(-0.0156415026221286,0.036999688049691,-0.0104680138129141));
#1234=CARTESIAN_POINT('',(-0.0140415026221286,0.0399996880496906,-0.0104680138129141));
#1235=CARTESIAN_POINT('',(-0.0156415026221286,0.0399996880496906,-0.0104680138129141));
#1236=CARTESIAN_POINT('',(0.0140415026221297,0.0399996880496907,-0.0104680138129141));
#1237=CARTESIAN_POINT('',(0.0140415026221297,0.036999688049691,-0.0104680138129141));
#1238=CARTESIAN_POINT('',(0.0124415026221297,0.036999688049691,-0.0104680138129141));
#1239=CARTESIAN_POINT('',(0.0140415026221297,0.0399996880496907,-0.0104680138129141));
#1240=CARTESIAN_POINT('',(0.0124415026221297,0.0399996880496907,-0.0104680138129141));
#1241=CARTESIAN_POINT('',(0.0120000000000005,0.0419996880496907,-0.00546801381291413));
#1242=CARTESIAN_POINT('',(0.0108529335340612,0.0403613234618418,-0.0146063784139512));
#1243=CARTESIAN_POINT('',(0.0105713073244334,0.0405584981221033,-0.014817055937932));
#1244=CARTESIAN_POINT('',(0.0103096527605434,0.0408565214243879,-0.0149680138129141));
#1245=CARTESIAN_POINT('',(0.0101538461538467,0.0412304572804599,-0.0149680138129141));
#1246=CARTESIAN_POINT('',(0.0108529335469942,0.0403613234527869,-0.0146063784098182));
#1247=CARTESIAN_POINT('',(0.0101538461538467,0.0412304572804599,-0.0149680138129141));
#1248=CARTESIAN_POINT('',(0.0101538461538467,0.0412304572804599,-0.00546801381291413));
#1249=CARTESIAN_POINT('',(0.0101538461538467,0.0412304572804599,-0.00596801381291413));
#1250=CARTESIAN_POINT('',(0.0101538461538467,0.0412304572804599,-0.00596801381291413));
#1251=CARTESIAN_POINT('',(0.0103097130968179,0.040856376617329,-0.00596801381291414));
#1252=CARTESIAN_POINT('',(0.010571046715303,0.0405586805798216,-0.00611877673184508));
#1253=CARTESIAN_POINT('',(0.0108529335429396,0.0403613234556256,-0.00632964921851873));
#1254=CARTESIAN_POINT('',(0.0108529335430538,0.0403613234555462,-0.00632964921860423));
#1255=CARTESIAN_POINT('',(0.0120000000000005,0.0419996880496907,-0.00796801381291414));
#1256=CARTESIAN_POINT('',(0.0120000000000006,0.0399996880496908,-0.00596801381291413));
#1257=CARTESIAN_POINT('',(0.0120000000000006,0.0399996880496907,-0.00546801381291413));
#1258=CARTESIAN_POINT('',(0.0120000000000006,0.0399996880496908,-0.0149680138129141));
#1259=CARTESIAN_POINT('',(0.0120000000000005,0.0419996880496907,-0.0129680138129141));
#1260=CARTESIAN_POINT('',(-0.0119999999999995,0.0419996880496906,-0.00546801381291413));
#1261=CARTESIAN_POINT('',(-0.0108529335322482,0.0403613234631102,-0.00632964921052153));
#1262=CARTESIAN_POINT('',(-0.0105713073233157,0.0405584981233491,-0.00611897168723994));
#1263=CARTESIAN_POINT('',(-0.0103096527602077,0.040856521425191,-0.00596801381291411));
#1264=CARTESIAN_POINT('',(-0.0101538461538456,0.0412304572804599,-0.00596801381291413));
#1265=CARTESIAN_POINT('',(-0.0108529335377077,0.040361323459288,-0.00632964921460613));
#1266=CARTESIAN_POINT('',(-0.0101538461538456,0.0412304572804599,-0.00596801381291413));
#1267=CARTESIAN_POINT('',(-0.0101538461538456,0.0412304572804599,-0.00546801381291413));
#1268=CARTESIAN_POINT('',(-0.0101538461538456,0.0412304572804599,-0.0149680138129141));
#1269=CARTESIAN_POINT('',(-0.0101538461538456,0.0412304572804599,-0.0149680138129141));
#1270=CARTESIAN_POINT('',(-0.0103097130968168,0.040856376617329,-0.0149680138129142));
#1271=CARTESIAN_POINT('',(-0.0105710467153021,0.0405586805798215,-0.0148172508939831));
#1272=CARTESIAN_POINT('',(-0.0108529335429387,0.0403613234556255,-0.0146063784073094));
#1273=CARTESIAN_POINT('',(-0.0108529335430527,0.0403613234555456,-0.0146063784072241));
#1274=CARTESIAN_POINT('',(-0.0119999999999995,0.0419996880496906,-0.0129680138129141));
#1275=CARTESIAN_POINT('',(-0.0119999999999995,0.0399996880496908,-0.0149680138129141));
#1276=CARTESIAN_POINT('',(-0.0119999999999995,0.0399996880496906,-0.00546801381291413));
#1277=CARTESIAN_POINT('',(-0.0119999999999995,0.0399996880496907,-0.00596801381291413));
#1278=CARTESIAN_POINT('',(-0.0119999999999995,0.0419996880496906,-0.00796801381291414));
#1279=CARTESIAN_POINT('',(5.30825383648903E-16,0.0369996880496907,-0.00546801381291413));
#1280=CARTESIAN_POINT('',(-0.00030863865706075,0.0479953572962335,-0.0139252718357553));
#1281=CARTESIAN_POINT('',(-0.000225716863071418,0.0479976848372466,-0.0140014094253053));
#1282=CARTESIAN_POINT('',(-0.000112098617954399,0.0479996873495874,-0.0140392077713665));
#1283=CARTESIAN_POINT('',(-6.87207173683674E-8,0.047999688049476,-0.014027896876706));
#1284=CARTESIAN_POINT('',(-0.000308671033741808,0.0479953559326218,-0.0139253071390531));
#1285=CARTESIAN_POINT('',(-3.51803111694332E-8,0.047999688049637,-0.0140282285648587));
#1286=CARTESIAN_POINT('',(-3.01541802175351E-9,0.0479996880496903,-0.0140285603864865));
#1287=CARTESIAN_POINT('',(8.6406091445395E-5,0.0479996880733775,-0.0140201843810163));
#1288=CARTESIAN_POINT('',(0.000167727655828677,0.0479985954643065,-0.0139839383830462));
#1289=CARTESIAN_POINT('',(0.00023172034142325,0.0479972471281122,-0.0139252895956844));
#1290=CARTESIAN_POINT('',(0.000231744538698741,0.0479972463631793,-0.0139253160153333));
#1291=CARTESIAN_POINT('',(5.30825383648903E-16,0.0369996880496907,-0.0141377193529234));
#1292=CARTESIAN_POINT('',(0.000997663721815381,0.0479543522206352,-0.013223528983439));
#1293=CARTESIAN_POINT('',(5.30825383648903E-16,0.0369996880496907,-0.0123093386139537));
#1294=CARTESIAN_POINT('',(-0.00580443847850345,0.0463435894805312,-0.00699055068843393));
#1295=CARTESIAN_POINT('',(5.30825383648903E-16,0.0369996880496907,-0.00699055068844354));
#1296=CARTESIAN_POINT('',(-0.00684810230974475,0.045608026724772,-0.00699056417736733));
#1297=CARTESIAN_POINT('',(-0.0068481023092938,0.0456080267261068,-0.00699057766600694));
#1298=CARTESIAN_POINT('',(-0.00691889002163346,0.0455517137121136,-0.00699058560548867));
#1299=CARTESIAN_POINT('',(-0.00705633297279263,0.0454395383688883,-0.00702700197797531));
#1300=CARTESIAN_POINT('',(-0.00722945532805905,0.0452907434709644,-0.00719430782988544));
#1301=CARTESIAN_POINT('',(-0.0072698448429801,0.0452549836648987,-0.00748424180004279));
#1302=CARTESIAN_POINT('',(-0.00717505590249854,0.0453377999371239,-0.00763344029291217));
#1303=CARTESIAN_POINT('',(-0.0071183255904867,0.045385953057894,-0.00768543758916063));
#1304=CARTESIAN_POINT('',(-0.0071183319922489,0.045385947624021,-0.00768544960616954));
#1305=CARTESIAN_POINT('',(5.30825383648903E-16,0.0369996880496907,-0.0142082170008218));
#1306=CARTESIAN_POINT('',(5.30825383648903E-16,0.0369996880496907,-0.00641940414376874));
#1307=CARTESIAN_POINT('',(0.00077480724857994,0.0479723608223179,-0.00712970822113183));
#1308=CARTESIAN_POINT('',(0.00228468681016252,0.0477598091530742,-0.00851289621833663));
#1309=CARTESIAN_POINT('',(0.00228470491563866,0.0477598053060184,-0.00851287513828244));
#1310=CARTESIAN_POINT('',(0.0023440634852049,0.0477472016500877,-0.00856735070349938));
#1311=CARTESIAN_POINT('',(0.00244173241415648,0.0477254354576879,-0.00856734179818423));
#1312=CARTESIAN_POINT('',(0.00250108394361457,0.0477115776638996,-0.00851317895753383));
#1313=CARTESIAN_POINT('',(0.00250097221868514,0.0477116037489216,-0.00851304638369703));
#1314=CARTESIAN_POINT('',(5.30825383648903E-16,0.0369996880496907,-0.0108045302296442));
#1315=CARTESIAN_POINT('',(0.00401059427947329,0.0472424969185403,-0.00712957750185964));
#1316=CARTESIAN_POINT('',(0.00401063117620549,0.0472424824715491,-0.00712962354136064));
#1317=CARTESIAN_POINT('',(0.00405758151309066,0.0472240987691052,-0.00708622812758873));
#1318=CARTESIAN_POINT('',(0.00401854336538752,0.047239596691041,-0.00699043454502137));
#1319=CARTESIAN_POINT('',(0.00395651135551165,0.0472635088730348,-0.00699004416293263));
#1320=CARTESIAN_POINT('',(0.00395651011469332,0.0472635093513469,-0.00699029742642943));
#1321=CARTESIAN_POINT('',(5.30825383648903E-16,0.0369996880496907,-0.00699055068844354));
#1322=CARTESIAN_POINT('',(0.00082901645968203,0.0479684040856701,-0.00699049015664893));
#1323=CARTESIAN_POINT('',(0.000829016182665501,0.0479684041171655,-0.00699042962484813));
#1324=CARTESIAN_POINT('',(0.000764428273004585,0.0479732856750419,-0.00699072774104835));
#1325=CARTESIAN_POINT('',(0.000727230726451007,0.0479757253507512,-0.00708587863927115));
#1326=CARTESIAN_POINT('',(0.000774645480471131,0.0479723779833207,-0.00712988403555134));
#1327=CARTESIAN_POINT('',(0.00272226725309097,0.0476575143291321,-0.00920176762882983));
#1328=CARTESIAN_POINT('',(0.00242795173469087,0.0477326896488277,-0.00947129955905904));
#1329=CARTESIAN_POINT('',(0.00193908085572479,0.0478316139735063,-0.00947441459384513));
#1330=CARTESIAN_POINT('',(0.00164136392696991,0.0478765407405771,-0.00920176383324273));
#1331=CARTESIAN_POINT('',(0.00272227630024123,0.0476575108002184,-0.00920177849215264));
#1332=CARTESIAN_POINT('',(0.00164135270442887,0.0478765424340949,-0.00920177650875123));
#1333=CARTESIAN_POINT('',(5.30825383648903E-16,0.0369996880496907,-0.00769777681726803));
#1334=CARTESIAN_POINT('',(-0.00054244531043487,0.0479863050487149,-0.00720074261867833));
#1335=CARTESIAN_POINT('',(-0.000542457898081709,0.0479863044269784,-0.00720075643353813));
#1336=CARTESIAN_POINT('',(-0.000689950845233843,0.0479790220470949,-0.00706587382903543));
#1337=CARTESIAN_POINT('',(-0.000883888463221122,0.0479659424833683,-0.00699075298197289));
#1338=CARTESIAN_POINT('',(-0.00108290480207629,0.0479462545063308,-0.00699049597893853));
#1339=CARTESIAN_POINT('',(-0.00108290483688779,0.0479462545011398,-0.00699052333369133));
#1340=CARTESIAN_POINT('',(5.30825383648903E-16,0.0369996880496907,-0.00699055068844433));
#1341=CARTESIAN_POINT('',(-0.00343613890581241,0.0474492310741468,-0.00699055068844334));
#1342=CARTESIAN_POINT('',(5.30825383648903E-16,0.0369996880496907,-0.0101391918860971));
#1343=CARTESIAN_POINT('',(0.00218181350815302,0.0477811392421621,-0.0121384556195117));
#1344=CARTESIAN_POINT('',(5.30825383648903E-16,0.0369996880496907,-0.0141377193529076));
#1345=CARTESIAN_POINT('',(0.00779976592217122,0.0447562112114781,-0.00699055068844274));
#1346=CARTESIAN_POINT('',(5.30825383648903E-16,0.0369996880496907,-0.00699055068844354));
#1347=CARTESIAN_POINT('',(0.00544653189865447,0.0465566378913999,-0.00699058668263823));
#1348=CARTESIAN_POINT('',(0.0054465319061193,0.0465566378871456,-0.00699062267683443));
#1349=CARTESIAN_POINT('',(0.00525352195733182,0.0466666347859626,-0.00699068598860098));
#1350=CARTESIAN_POINT('',(0.00506020526337924,0.046768208032976,-0.00705964094775557));
#1351=CARTESIAN_POINT('',(0.00490606254354412,0.0468450194467965,-0.00720073266671203));
#1352=CARTESIAN_POINT('',(0.00490606113287563,0.0468450201497516,-0.00720073074285194));
#1353=CARTESIAN_POINT('',(5.30825383648903E-16,0.0369996880496907,-0.011696304284032));
#1354=CARTESIAN_POINT('',(5.30825383648903E-16,0.0369996880496907,-0.0149680138129141));
#1355=CARTESIAN_POINT('',(5.30825383648903E-16,0.0369996880496907,-0.00596801381291413));
#1356=CARTESIAN_POINT('',(5.30825383648903E-16,0.0363996880496907,-0.00546801381291413));
#1357=CARTESIAN_POINT('',(-3.01541802355488E-9,0.0473996880496903,-0.0140285603864865));
#1358=CARTESIAN_POINT('',(8.64060888169034E-5,0.0473996880733775,-0.0140201843812711));
#1359=CARTESIAN_POINT('',(0.000167727657775279,0.0473985954642655,-0.0139839383812621));
#1360=CARTESIAN_POINT('',(0.00023172034142325,0.0473972471281122,-0.0139252895956844));
#1361=CARTESIAN_POINT('',(-3.51803111694332E-8,0.047399688049637,-0.0140282285648587));
#1362=CARTESIAN_POINT('',(0.000231744535780031,0.0473972466182799,-0.0139253160180118));
#1363=CARTESIAN_POINT('',(-0.00030863865325167,0.0473953572963404,-0.0139252718392528));
#1364=CARTESIAN_POINT('',(-0.000225716859547576,0.0473976848373168,-0.0140014094265513));
#1365=CARTESIAN_POINT('',(-0.000112098616229934,0.0473996873495874,-0.0140392077711923));
#1366=CARTESIAN_POINT('',(-6.87207173683674E-8,0.047399688049476,-0.014027896876706));
#1367=CARTESIAN_POINT('',(-0.00030867102682107,0.0473953557280845,-0.0139253071454076));
#1368=CARTESIAN_POINT('',(5.30825383648903E-16,0.0363996880496907,-0.0142082170008218));
#1369=CARTESIAN_POINT('',(-0.00711833073895535,0.044785948687827,-0.00768545075488113));
#1370=CARTESIAN_POINT('',(-0.0068481021873123,0.0450080268227712,-0.00699057766628614));
#1371=CARTESIAN_POINT('',(-0.00691888991071684,0.0449517138016111,-0.00699058558418164));
#1372=CARTESIAN_POINT('',(-0.00705633288958569,0.0448395384392727,-0.00702700192628506));
#1373=CARTESIAN_POINT('',(-0.00722945529619281,0.0446907434991249,-0.0071943077549077));
#1374=CARTESIAN_POINT('',(-0.00726984486215618,0.0446549836479603,-0.00748424176034182));
#1375=CARTESIAN_POINT('',(-0.00717505591071011,0.0447377999301535,-0.00763344028537551));
#1376=CARTESIAN_POINT('',(-0.0071183255905152,0.0447859530578698,-0.00768543758913443));
#1377=CARTESIAN_POINT('',(-0.0068481023094516,0.0450080269744035,-0.00699056417736454));
#1378=CARTESIAN_POINT('',(5.30825383648903E-16,0.0363996880496907,-0.00699055068844354));
#1379=CARTESIAN_POINT('',(-0.00580443847850345,0.0457435894805312,-0.00699055068843393));
#1380=CARTESIAN_POINT('',(5.30825383648903E-16,0.0363996880496907,-0.0123093386139537));
#1381=CARTESIAN_POINT('',(0.000997663721815371,0.0473543522206352,-0.013223528983439));
#1382=CARTESIAN_POINT('',(5.30825383648903E-16,0.0363996880496907,-0.0141377193529234));
#1383=CARTESIAN_POINT('',(-3.86048894749688E-5,0.0478783697595,-0.0136303331560491));
#1384=CARTESIAN_POINT('',(-1.6742596665076E-9,0.0479996880496907,-0.01402856025648));
#1385=CARTESIAN_POINT('',(-1.6742596665076E-9,0.0477996880496907,-0.01402856025648));
#1386=CARTESIAN_POINT('',(-1.6742596665076E-9,0.0475996880496907,-0.01402856025648));
#1387=CARTESIAN_POINT('',(-1.6742596665076E-9,0.0473996880496907,-0.01402856025648));
#1388=CARTESIAN_POINT('',(0.000231768741811643,0.0479972461082017,-0.0139253424296251));
#1389=CARTESIAN_POINT('',(0.000231768741811642,0.0477972462782278,-0.0139253424296251));
#1390=CARTESIAN_POINT('',(0.000231768741811641,0.0475972464482538,-0.0139253424296251));
#1391=CARTESIAN_POINT('',(0.000231768741811639,0.0473972466182799,-0.0139253424296251));
#1392=CARTESIAN_POINT('',(0.00218181350815302,0.0477811392421621,-0.0121384556195117));
#1393=CARTESIAN_POINT('',(0.000997663721815371,0.0479543522206352,-0.013223528983439));
#1394=CARTESIAN_POINT('',(0.00099766372181536,0.0479543522206352,-0.013223528983439));
#1395=CARTESIAN_POINT('',(-0.00580443847849295,0.0463435894805377,-0.00699055068844354));
#1396=CARTESIAN_POINT('',(0.00395650863754021,0.0472635099207616,-0.00699055068844354));
#1397=CARTESIAN_POINT('',(-0.00684810231096445,0.0450080269744035,-0.00699055068844354));
#1398=CARTESIAN_POINT('',(-0.00684810231096445,0.0452080268910702,-0.00699055068844354));
#1399=CARTESIAN_POINT('',(-0.00684810231096446,0.0454080268077368,-0.00699055068844354));
#1400=CARTESIAN_POINT('',(-0.00684810231096446,0.0456080267244035,-0.00699055068844354));
#1401=CARTESIAN_POINT('',(-0.0068480574467082,0.0450111691872568,-0.00739056848577203));
#1402=CARTESIAN_POINT('',(-0.00711833839401115,0.0453859421901481,-0.00768546162317844));
#1403=CARTESIAN_POINT('',(-0.00711833839401115,0.0451859443560411,-0.00768546162317844));
#1404=CARTESIAN_POINT('',(-0.00711833839401115,0.044985946521934,-0.00768546162317844));
#1405=CARTESIAN_POINT('',(-0.00711833839401115,0.044785948687827,-0.00768546162317844));
#1406=CARTESIAN_POINT('',(-0.00711833839401115,0.0453859421901481,-0.00768546162317844));
#1407=CARTESIAN_POINT('',(-0.000308703424276844,0.0473953557280845,-0.0139253424296303));
#1408=CARTESIAN_POINT('',(-0.000308703424276844,0.0475953556447511,-0.0139253424296303));
#1409=CARTESIAN_POINT('',(-0.000308703424276844,0.0477953555614178,-0.0139253424296303));
#1410=CARTESIAN_POINT('',(-0.000308703424276844,0.0479953554780845,-0.0139253424296303));
#1411=CARTESIAN_POINT('',(-3.99724602722084E-5,0.0478815099984843,-0.0136326662626909));
#1412=CARTESIAN_POINT('',(5.30825383648903E-16,0.0363996880496907,-0.00546801381291413));
#1413=CARTESIAN_POINT('',(0.00228470489069064,0.0471598053149651,-0.00851287511054143));
#1414=CARTESIAN_POINT('',(0.00234401986044776,0.0471472109167672,-0.00856731068791667));
#1415=CARTESIAN_POINT('',(0.00244159029381147,0.047125467874183,-0.00856735108502166));
#1416=CARTESIAN_POINT('',(0.00250095288721793,0.047111608262982,-0.00851329842375161));
#1417=CARTESIAN_POINT('',(0.00228468703558348,0.0471598133437661,-0.00851289642400033));
#1418=CARTESIAN_POINT('',(0.00250084004504332,0.0471116378160591,-0.00851316691869463));
#1419=CARTESIAN_POINT('',(5.30825383648903E-16,0.0363996880496907,-0.00641940414376874));
#1420=CARTESIAN_POINT('',(0.000774807248579921,0.0473723665604777,-0.00712970822113173));
#1421=CARTESIAN_POINT('',(0.000829016163878191,0.0473684041185854,-0.00699042962493493));
#1422=CARTESIAN_POINT('',(0.000764428359604853,0.0473732856683854,-0.00699072775572814));
#1423=CARTESIAN_POINT('',(0.000727230803770974,0.0473757253452927,-0.00708587871103125));
#1424=CARTESIAN_POINT('',(0.00077464548047103,0.0473723779833208,-0.00712988403555123));
#1425=CARTESIAN_POINT('',(0.00082901645888857,0.0473684043251717,-0.00699049015665743));
#1426=CARTESIAN_POINT('',(5.30825383648903E-16,0.0363996880496907,-0.00699055068844354));
#1427=CARTESIAN_POINT('',(0.00395651011469322,0.04666350965883,-0.00699029742642943));
#1428=CARTESIAN_POINT('',(0.00401062961062628,0.0466424830912488,-0.00712962499684033));
#1429=CARTESIAN_POINT('',(0.00405758176406856,0.0466240986858093,-0.00708623021648602));
#1430=CARTESIAN_POINT('',(0.004018544091796,0.0466395964110241,-0.00699043454959242));
#1431=CARTESIAN_POINT('',(0.00395651135551125,0.0466635088730349,-0.00699004416293253));
#1432=CARTESIAN_POINT('',(0.0040105958047527,0.0466425122140572,-0.00712957609199613));
#1433=CARTESIAN_POINT('',(5.30825383648903E-16,0.0363996880496907,-0.0108045302296442));
#1434=CARTESIAN_POINT('',(0.00239306042582413,0.0476306490294435,-0.00839480700877123));
#1435=CARTESIAN_POINT('',(0.00228466825468177,0.0471598133437661,-0.00851291688783064));
#1436=CARTESIAN_POINT('',(0.00228466825468177,0.0473598119468688,-0.00851291688783064));
#1437=CARTESIAN_POINT('',(0.00228466825468177,0.0475598105499715,-0.00851291688783064));
#1438=CARTESIAN_POINT('',(0.00228466825468177,0.0477598091530742,-0.00851291688783064));
#1439=CARTESIAN_POINT('',(0.00250085712112196,0.0477116037489216,-0.00851291688782434));
#1440=CARTESIAN_POINT('',(0.00250085712112196,0.0475116151046341,-0.00851291688782434));
#1441=CARTESIAN_POINT('',(0.00250085712112196,0.0473116264603466,-0.00851291688782434));
#1442=CARTESIAN_POINT('',(0.00250085712112196,0.0471116378160591,-0.00851291688782434));
#1443=CARTESIAN_POINT('',(0.00250085712112196,0.0477116306214064,-0.00851291688782434));
#1444=CARTESIAN_POINT('',(0.00401055585415363,0.0466425122140572,-0.00712953287538923));
#1445=CARTESIAN_POINT('',(0.00401055585415363,0.0468425071155515,-0.00712953287538923));
#1446=CARTESIAN_POINT('',(0.00401055585415363,0.0470425020170459,-0.00712953287538922));
#1447=CARTESIAN_POINT('',(0.00401055585415363,0.0472424969185403,-0.00712953287538922));
#1448=CARTESIAN_POINT('',(0.00395600488756346,0.047114196474914,-0.00707052230388863));
#1449=CARTESIAN_POINT('',(0.00395650863754021,0.0472635093513469,-0.00699055068844354));
#1450=CARTESIAN_POINT('',(0.00395650863754021,0.0470635095411518,-0.00699055068844354));
#1451=CARTESIAN_POINT('',(0.00395650863754021,0.0468635097309567,-0.00699055068844354));
#1452=CARTESIAN_POINT('',(0.00395650863754021,0.0466635099207616,-0.00699055068844354));
#1453=CARTESIAN_POINT('',(0.00395650863754021,0.0472635099207616,-0.00699055068844354));
#1454=CARTESIAN_POINT('',(0.000829016738285481,0.0473684043251717,-0.00699055068844354));
#1455=CARTESIAN_POINT('',(0.000829016738285481,0.0475684042418384,-0.00699055068844354));
#1456=CARTESIAN_POINT('',(0.00082901673828548,0.047768404158505,-0.00699055068844354));
#1457=CARTESIAN_POINT('',(0.00082901673828548,0.0479684040751717,-0.00699055068844354));
#1458=CARTESIAN_POINT('',(0.00082938761029373,0.0478511391803115,-0.00707090070988033));
#1459=CARTESIAN_POINT('',(0.00077496952167623,0.0479723551019836,-0.00712953287539674));
#1460=CARTESIAN_POINT('',(0.00077496952167623,0.0477723589214816,-0.00712953287539674));
#1461=CARTESIAN_POINT('',(0.00077496952167623,0.0475723627409796,-0.00712953287539674));
#1462=CARTESIAN_POINT('',(0.00077496952167623,0.0473723665604777,-0.00712953287539674));
#1463=CARTESIAN_POINT('',(0.00077496952167623,0.0479723551019836,-0.00712953287539674));
#1464=CARTESIAN_POINT('',(5.30825383648903E-16,0.0363996880496907,-0.00546801381291413));
#1465=CARTESIAN_POINT('',(5.30825383648903E-16,0.0363996880496907,-0.00769777681726803));
#1466=CARTESIAN_POINT('',(0.00164135270443524,0.0472765432966822,-0.00920177650875703));
#1467=CARTESIAN_POINT('',(-0.00054244531885219,0.0473863059211205,-0.00720074261109043));
#1468=CARTESIAN_POINT('',(0.00272226721954929,0.0470575143376995,-0.00920176765954703));
#1469=CARTESIAN_POINT('',(0.00242795167439857,0.0471326896632412,-0.0094712995835172));
#1470=CARTESIAN_POINT('',(0.00193908086772977,0.0472316139716943,-0.00947441460482307));
#1471=CARTESIAN_POINT('',(0.00164136392698748,0.0472765407405745,-0.00920176383325883));
#1472=CARTESIAN_POINT('',(0.00272227613683054,0.0470575098739139,-0.00920177864180273));
#1473=CARTESIAN_POINT('',(5.30825383648903E-16,0.0363996880496907,-0.011696304284032));
#1474=CARTESIAN_POINT('',(0.00490606113287562,0.0462450201497516,-0.00720073074285194));
#1475=CARTESIAN_POINT('',(0.00544653179857336,0.0459566379484364,-0.00699062267686974));
#1476=CARTESIAN_POINT('',(0.00525352188535787,0.0460666348241034,-0.00699068601454356));
#1477=CARTESIAN_POINT('',(0.00506020523381474,0.0461682080477085,-0.00705964097481687));
#1478=CARTESIAN_POINT('',(0.0049060625435441,0.0462450194467966,-0.00720073266671203));
#1479=CARTESIAN_POINT('',(0.00544653190010174,0.0459566381473038,-0.00699058668263753));
#1480=CARTESIAN_POINT('',(5.30825383648903E-16,0.0363996880496907,-0.00699055068844354));
#1481=CARTESIAN_POINT('',(0.00779976592217122,0.0441562112114781,-0.00699055068844274));
#1482=CARTESIAN_POINT('',(5.30825383648903E-16,0.0363996880496907,-0.0141377193529076));
#1483=CARTESIAN_POINT('',(0.00218181350815302,0.0471811392421621,-0.0121384556195117));
#1484=CARTESIAN_POINT('',(5.30825383648903E-16,0.0363996880496907,-0.0101391918860971));
#1485=CARTESIAN_POINT('',(-0.00343613890581241,0.0468492310741468,-0.00699055068844334));
#1486=CARTESIAN_POINT('',(5.30825383648903E-16,0.0363996880496907,-0.00699055068844433));
#1487=CARTESIAN_POINT('',(-0.00108290483671661,0.047346254502904,-0.00699052333369173));
#1488=CARTESIAN_POINT('',(-0.00054245789159489,0.0473863044276228,-0.00720075643990893));
#1489=CARTESIAN_POINT('',(-0.000689950842124401,0.04737902204766,-0.00706587382925048));
#1490=CARTESIAN_POINT('',(-0.000883888456534873,0.0473659424840298,-0.00699075298198153));
#1491=CARTESIAN_POINT('',(-0.00108290480207629,0.0473462545063308,-0.00699049597893853));
#1492=CARTESIAN_POINT('',(0.00164134134202564,0.0478765441487185,-0.00920178905617313));
#1493=CARTESIAN_POINT('',(0.00164134134202564,0.0478765424340949,-0.00920178905617313));
#1494=CARTESIAN_POINT('',(0.00164134134202564,0.0476765430056361,-0.00920178905617313));
#1495=CARTESIAN_POINT('',(0.00164134134202564,0.0474765435771773,-0.00920178905617313));
#1496=CARTESIAN_POINT('',(0.00164134134202564,0.0472765441487185,-0.00920178905617313));
#1497=CARTESIAN_POINT('',(-0.00054243270595348,0.0473863059211205,-0.00720072881899456));
#1498=CARTESIAN_POINT('',(-0.000542432705953479,0.0475863056303186,-0.00720072881899456));
#1499=CARTESIAN_POINT('',(-0.000542432705953478,0.0477863053395168,-0.00720072881899456));
#1500=CARTESIAN_POINT('',(-0.000542432705953477,0.0479863050487149,-0.00720072881899456));
#1501=CARTESIAN_POINT('',(-0.00108394095250699,0.0478661503291582,-0.00779286341297093));
#1502=CARTESIAN_POINT('',(-0.00108290487204165,0.0479462544994094,-0.00699055068844354));
#1503=CARTESIAN_POINT('',(-0.00108290487204165,0.0477462544994094,-0.00699055068844354));
#1504=CARTESIAN_POINT('',(-0.00108290487204165,0.0475462544994094,-0.00699055068844354));
#1505=CARTESIAN_POINT('',(-0.00108290487204165,0.0473462544994094,-0.00699055068844354));
#1506=CARTESIAN_POINT('',(0.00395650863754021,0.0472635099207616,-0.00699055068844354));
#1507=CARTESIAN_POINT('',(-0.00343613890581225,0.0474492310741468,-0.00699055068844354));
#1508=CARTESIAN_POINT('',(-0.00343613890581225,0.0474492310741468,-0.00699055068844354));
#1509=CARTESIAN_POINT('',(0.00218181350815302,0.0477811392421621,-0.0121384556195117));
#1510=CARTESIAN_POINT('',(0.00218181350815302,0.0477811392421621,-0.0121384556195117));
#1511=CARTESIAN_POINT('',(0.0077997659221704,0.0447562112114789,-0.00699055068844354));
#1512=CARTESIAN_POINT('',(0.00395650863754021,0.0472635099207616,-0.00699055068844354));
#1513=CARTESIAN_POINT('',(0.00544653188829507,0.0459566381473038,-0.00699055068844354));
#1514=CARTESIAN_POINT('',(0.00544653188829507,0.0461566380639704,-0.00699055068844354));
#1515=CARTESIAN_POINT('',(0.00544653188829507,0.0463566379806371,-0.00699055068844354));
#1516=CARTESIAN_POINT('',(0.00544653188829507,0.0465566378973037,-0.00699055068844354));
#1517=CARTESIAN_POINT('',(0.00544679460683058,0.0464158056998464,-0.00779148251052643));
#1518=CARTESIAN_POINT('',(0.00490605972220253,0.0468450208527089,-0.00720072881899603));
#1519=CARTESIAN_POINT('',(0.00490605972220253,0.0468450208527089,-0.00720072881899603));
#1520=CARTESIAN_POINT('',(0.00272228567421291,0.0470575098739139,-0.00920178905617512));
#1521=CARTESIAN_POINT('',(0.00272228567421291,0.0472575097905806,-0.00920178905617512));
#1522=CARTESIAN_POINT('',(0.00272228567421291,0.0474575097072472,-0.00920178905617512));
#1523=CARTESIAN_POINT('',(0.00272228567421291,0.0476575096239139,-0.00920178905617512));
#1524=CARTESIAN_POINT('',(0.00218181766231238,0.0474836212505737,-0.00861162344315263));
#1525=CARTESIAN_POINT('',(5.30825383648903E-16,0.0369996880496907,-0.00571801381291413));
#1526=CARTESIAN_POINT('',(-0.24496931814104,0.0399996880903339,-0.271578213100825));
#1527=CARTESIAN_POINT('',(0.0100830052442588,0.0399996880496909,-0.00548785196545983));
#1528=CARTESIAN_POINT('',(0.0105830052442585,0.0399996880627144,-0.00596801381291413));
#1529=CARTESIAN_POINT('',(-0.0384742659586053,0.0585392950116747,-0.0245076207794999));
#1530=CARTESIAN_POINT('',(0.0384742659588666,0.0585392950147417,-0.0245076207766287));
#1531=CARTESIAN_POINT('',(-0.0105830052442579,0.0399996880307762,-0.00596801381291504));
#1532=CARTESIAN_POINT('',(0.244969318160692,0.0399996879905777,-0.271578213120562));
#1533=CARTESIAN_POINT('',(-0.0100830052442579,0.0399996880496912,-0.00548785196545933));
#1534=CARTESIAN_POINT('',(-0.0100830052449294,0.0364870210737931,-0.0178051815611163));
#1535=CARTESIAN_POINT('',(-0.0100830052442579,0.0399293646946903,-0.00546801381291413));
#1536=CARTESIAN_POINT('',(5.30825383648903E-16,0.0369996880496907,-0.00546801381291413));
#1537=CARTESIAN_POINT('',(0.0100830052442588,0.0399293646946909,-0.00546801381291413));
#1538=CARTESIAN_POINT('',(0.0100830052440883,0.0364870210764349,-0.0178051815517599));
#1539=CARTESIAN_POINT('',(-0.00874999999999945,0.0397496880496906,-0.00571801381291413));
#1540=CARTESIAN_POINT('',(-0.0113353756555317,0.039999688049691,-0.00596801381291413));
#1541=CARTESIAN_POINT('',(-0.0174999999999995,0.0399996880496906,-0.00546801381291413));
#1542=CARTESIAN_POINT('',(-0.00988768928616265,0.0399996880496911,-0.0149680138129135));
#1543=CARTESIAN_POINT('',(-0.0105830052442583,0.0399996880496285,-0.0149680138128513));
#1544=CARTESIAN_POINT('',(0.244216050790164,0.0399996880496911,0.249858261806176));
#1545=CARTESIAN_POINT('',(-0.0100623058987472,0.0399996880496863,-0.0154680138129142));
#1546=CARTESIAN_POINT('',(-0.0110253785723257,0.0399996880496911,-0.0154680138129142));
#1547=CARTESIAN_POINT('',(-0.0140415026221287,0.039999688049691,-0.0154680138129142));
#1548=CARTESIAN_POINT('',(-0.0140415026221287,0.039999688049691,-0.0104680138129141));
#1549=CARTESIAN_POINT('',(-0.0140415026221288,0.039999688049691,-0.00546801381291413));
#1550=CARTESIAN_POINT('',(-0.0124999999999995,0.0399996880496911,-0.00546801381291413));
#1551=CARTESIAN_POINT('',(-0.0100830052442579,0.0399996880496911,-0.00546801381291413));
#1552=CARTESIAN_POINT('',(-0.0100830052442579,0.0399996880496911,-0.00546801381291413));
#1553=CARTESIAN_POINT('',(-0.0100830052442578,0.0369996880496911,-0.00546801381291413));
#1554=CARTESIAN_POINT('',(-0.0100830052442578,0.0369996880496908,-0.00546801381291413));
#1555=CARTESIAN_POINT('',(-0.0140415026221286,0.036999688049691,-0.0104680138129141));
#1556=CARTESIAN_POINT('',(-0.0140415026221286,0.036999688049691,-0.0104680138129141));
#1557=CARTESIAN_POINT('',(-0.0140415026221286,0.036999688049691,-0.0154680138129142));
#1558=CARTESIAN_POINT('',(-0.0140415026221288,0.0369996880496909,-0.00546801381291413));
#1559=CARTESIAN_POINT('',(-0.0140415026221288,0.036999688049691,-0.00546801381291413));
#1560=CARTESIAN_POINT('',(-0.0140415026221287,0.036999688049691,-0.0154680138129142));
#1561=CARTESIAN_POINT('',(-0.00874999999999945,0.0397496880496906,-0.0152180138129141));
#1562=CARTESIAN_POINT('',(0.00962473837852351,0.0399996880496909,-0.0149680138129141));
#1563=CARTESIAN_POINT('',(0.0105830052442586,0.0399996880496958,-0.0149680138129141));
#1564=CARTESIAN_POINT('',(-0.0384742659581281,0.0585392950146157,0.00357159315038537));
#1565=CARTESIAN_POINT('',(-0.0174999999999995,0.0399996880496906,-0.00546801381291413));
#1566=CARTESIAN_POINT('',(0.00962473837852351,0.0399996880496909,-0.00596801381291413));
#1567=CARTESIAN_POINT('',(0.0100830052442588,0.0399996880496909,-0.00556801381291414));
#1568=CARTESIAN_POINT('',(0.0100830052442588,0.0399996880496909,-0.00546801381291413));
#1569=CARTESIAN_POINT('',(0.0100830052442588,0.0399996880496909,-0.00546801381291413));
#1570=CARTESIAN_POINT('',(0.0140415026221296,0.039999688049691,-0.00546801381291413));
#1571=CARTESIAN_POINT('',(0.0140415026221296,0.039999688049691,-0.0104680138129141));
#1572=CARTESIAN_POINT('',(0.0140415026221296,0.039999688049691,-0.0154680138129142));
#1573=CARTESIAN_POINT('',(0.0112915026221296,0.0399996880496909,-0.0154680138129142));
#1574=CARTESIAN_POINT('',(0.0100830052442588,0.0399996880496909,-0.0154680138129142));
#1575=CARTESIAN_POINT('',(0.0100830052442588,0.0399996880496909,-0.0154680138129142));
#1576=CARTESIAN_POINT('',(0.0100830052442588,0.0399996880496909,-0.0154481756603687));
#1577=CARTESIAN_POINT('',(-0.244969318143883,0.0399996880496909,0.250642185477785));
#1578=CARTESIAN_POINT('',(-0.00874999999999945,0.0397496880496906,-0.00571801381291413));
#1579=CARTESIAN_POINT('',(0.0100830052442589,0.0369996880496909,-0.0154680138129142));
#1580=CARTESIAN_POINT('',(0.0100830052442585,0.0364870209704792,-0.00313084569848783));
#1581=CARTESIAN_POINT('',(0.0100830052442588,0.0399293646946909,-0.0154680138129142));
#1582=CARTESIAN_POINT('',(0.0100830052442589,0.0369996880496909,-0.0154680138129142));
#1583=CARTESIAN_POINT('',(0.0140415026221297,0.036999688049691,-0.0104680138129141));
#1584=CARTESIAN_POINT('',(0.0140415026221297,0.036999688049691,-0.0104680138129141));
#1585=CARTESIAN_POINT('',(0.0140415026221297,0.036999688049691,-0.00546801381291413));
#1586=CARTESIAN_POINT('',(0.0140415026221297,0.036999688049691,-0.0154680138129142));
#1587=CARTESIAN_POINT('',(0.0140415026221297,0.036999688049691,-0.0154680138129142));
#1588=CARTESIAN_POINT('',(0.0140415026221297,0.036999688049691,-0.00546801381291413));
#1589=CARTESIAN_POINT('',(0.0100830052442589,0.0369996880496909,-0.0154680138129142));
#1590=CARTESIAN_POINT('',(0.0100830052442589,0.0369996880496909,-0.00546801381291413));
#1591=CARTESIAN_POINT('',(5.30825383648903E-16,0.0369996880496907,-0.0154680138129142));
#1592=CARTESIAN_POINT('',(5.30825383648903E-16,0.0369996880496907,-0.0154680138129142));
#1593=CARTESIAN_POINT('',(0.0112915026221297,0.0369996880496909,-0.0154680138129142));
#1594=CARTESIAN_POINT('',(0.00880000000000053,0.0369996880496911,-0.0154680138129142));
#1595=CARTESIAN_POINT('',(5.30825383648903E-16,0.0369996880496907,-0.0154680138129142));
#1596=CARTESIAN_POINT('',(-0.00879999999999945,0.0369996880496909,-0.0154680138129142));
#1597=CARTESIAN_POINT('',(-0.0110253785723256,0.0369996880496911,-0.0154680138129142));
#1598=CARTESIAN_POINT('',(-0.00258770070131335,0.036999688049691,-0.00202000641513743));
#1599=CARTESIAN_POINT('',(0.0100830052442589,0.0369996880496909,-0.00546801381291413));
#1600=CARTESIAN_POINT('',(0.00880000000000053,0.0369996880496912,-0.00546801381291413));
#1601=CARTESIAN_POINT('',(0.00880000000000053,0.0369996880496913,-0.00546801381291413));
#1602=CARTESIAN_POINT('',(5.30825383648903E-16,0.0369996880496907,-0.00546801381291413));
#1603=CARTESIAN_POINT('',(-0.00879999999999945,0.0369996880496908,-0.00546801381291413));
#1604=CARTESIAN_POINT('',(-0.00879999999999945,0.0369996880496908,-0.00546801381291413));
#1605=CARTESIAN_POINT('',(5.30825383648903E-16,0.0369996880496907,-0.00546801381291413));
#1606=CARTESIAN_POINT('',(5.30825383648903E-16,0.0369996880496907,-0.00546801381291413));
#1607=CARTESIAN_POINT('',(-0.00129385035065645,0.036999688049691,-0.00546801381291413));
#1608=CARTESIAN_POINT('',(-0.00258770070131335,0.036999688049691,-0.00202000641513743));
#1609=CARTESIAN_POINT('',(-0.00874999999999945,0.0397496880496906,-0.0152180138129141));
#1610=CARTESIAN_POINT('',(0.0384742659584107,0.0585392950137337,0.00357159315145156));
#1611=CARTESIAN_POINT('',(5.30825383648903E-16,0.0369996880496907,-0.0152180138129141));
#1612=MECHANICAL_DESIGN_GEOMETRIC_PRESENTATION_REPRESENTATION('',(#854,
#40,#41,#42),#1613);
#1613=(
GEOMETRIC_REPRESENTATION_CONTEXT(3)
GLOBAL_UNCERTAINTY_ASSIGNED_CONTEXT((#1614))
GLOBAL_UNIT_ASSIGNED_CONTEXT((#1617,#1616,#1615))
REPRESENTATION_CONTEXT('CPAP clamp','TOP_LEVEL_ASSEMBLY_PART')
);
#1614=UNCERTAINTY_MEASURE_WITH_UNIT(LENGTH_MEASURE(2.E-5),#1617,
'DISTANCE_ACCURACY_VALUE','Maximum Tolerance applied to model');
#1615=(
NAMED_UNIT(*)
SI_UNIT($,.STERADIAN.)
SOLID_ANGLE_UNIT()
);
#1616=(
NAMED_UNIT(*)
PLANE_ANGLE_UNIT()
SI_UNIT($,.RADIAN.)
);
#1617=(
LENGTH_UNIT()
NAMED_UNIT(*)
SI_UNIT($,.METRE.)
);
#1618=PRODUCT_DEFINITION_SHAPE('','',#1619);
#1619=PRODUCT_DEFINITION('','',#1621,#1620);
#1620=PRODUCT_DEFINITION_CONTEXT('',#1627,'design');
#1621=PRODUCT_DEFINITION_FORMATION_WITH_SPECIFIED_SOURCE('','',#1623,
 .NOT_KNOWN.);
#1622=PRODUCT_RELATED_PRODUCT_CATEGORY('','',(#1623));
#1623=PRODUCT('CPAP clamp','CPAP clamp','CPAP clamp',(#1625));
#1624=PRODUCT_CATEGORY('','');
#1625=PRODUCT_CONTEXT('',#1627,'mechanical');
#1626=APPLICATION_PROTOCOL_DEFINITION('international standard',
'ap242_managed_model_based_3d_engineering',2020,#1627);
#1627=APPLICATION_CONTEXT('managed model based 3d engineering');
ENDSEC;
END-ISO-10303-21;
