ISO-10303-21;
HEADER;
/* Generated by software containing ST-Developer
 * from STEP Tools, Inc. (www.steptools.com) 
 */
/* OPTION: using custom renumber hook */

FILE_DESCRIPTION(
/* description */ ('STEP AP242 Edition 2',
'CAx-IF Rec.Pracs.---Representation and Presentation of Product Manufa
cturing Information (PMI)---4.0---2014-10-13',
'CAx-IF Rec.Pracs.---3D Tessellated Geometry---0.4---2014-09-14','2;1',
'CAx-IF Rec.Pracs.---User Defined Attributes---1.5---2016-08-15'),
/* implementation_level */ '2;1');

FILE_NAME(
/* name */ 'toolhead v4 - Part 29',
/* time_stamp */ '2026-08-19T20:10:41Z',
/* author */ (''),
/* organization */ (''),
/* preprocessor_version */ 'ST-DEVELOPER v20',
/* originating_system */ 'ONSHAPE BY PTC INC, 1.219',
/* authorisation */ '  ');

FILE_SCHEMA (('AP242_MANAGED_MODEL_BASED_3D_ENGINEERING_MIM_LF { 1 0 10303 442 3 1 4 }'));
ENDSEC;

DATA;
#10=SHAPE_REPRESENTATION_RELATIONSHIP('','',#947,#11);
#11=ADVANCED_BREP_SHAPE_REPRESENTATION('',(#945),#1553);
#12=CYLINDRICAL_SURFACE('',#965,0.00165);
#13=CYLINDRICAL_SURFACE('',#968,0.00165);
#14=CYLINDRICAL_SURFACE('',#980,0.0035);
#15=CYLINDRICAL_SURFACE('',#982,0.0035);
#16=CYLINDRICAL_SURFACE('',#984,0.0035);
#17=CYLINDRICAL_SURFACE('',#986,0.0035);
#18=CYLINDRICAL_SURFACE('',#989,0.00165);
#19=CYLINDRICAL_SURFACE('',#990,0.00165);
#20=CYLINDRICAL_SURFACE('',#994,0.00165);
#21=CYLINDRICAL_SURFACE('',#996,0.00165);
#22=CYLINDRICAL_SURFACE('',#1005,0.00165);
#23=CYLINDRICAL_SURFACE('',#1014,0.00165);
#24=CYLINDRICAL_SURFACE('',#1018,0.003);
#25=CYLINDRICAL_SURFACE('',#1021,0.003);
#26=CYLINDRICAL_SURFACE('',#1032,0.01);
#27=LINE('',#1295,#115);
#28=LINE('',#1298,#116);
#29=LINE('',#1300,#117);
#30=LINE('',#1306,#118);
#31=LINE('',#1309,#119);
#32=LINE('',#1311,#120);
#33=LINE('',#1315,#121);
#34=LINE('',#1318,#122);
#35=LINE('',#1320,#123);
#36=LINE('',#1322,#124);
#37=LINE('',#1323,#125);
#38=LINE('',#1326,#126);
#39=LINE('',#1328,#127);
#40=LINE('',#1330,#128);
#41=LINE('',#1331,#129);
#42=LINE('',#1336,#130);
#43=LINE('',#1340,#131);
#44=LINE('',#1342,#132);
#45=LINE('',#1344,#133);
#46=LINE('',#1346,#134);
#47=LINE('',#1352,#135);
#48=LINE('',#1357,#136);
#49=LINE('',#1361,#137);
#50=LINE('',#1365,#138);
#51=LINE('',#1379,#139);
#52=LINE('',#1384,#140);
#53=LINE('',#1386,#141);
#54=LINE('',#1388,#142);
#55=LINE('',#1390,#143);
#56=LINE('',#1392,#144);
#57=LINE('',#1396,#145);
#58=LINE('',#1400,#146);
#59=LINE('',#1403,#147);
#60=LINE('',#1406,#148);
#61=LINE('',#1408,#149);
#62=LINE('',#1410,#150);
#63=LINE('',#1411,#151);
#64=LINE('',#1414,#152);
#65=LINE('',#1416,#153);
#66=LINE('',#1418,#154);
#67=LINE('',#1424,#155);
#68=LINE('',#1425,#156);
#69=LINE('',#1427,#157);
#70=LINE('',#1429,#158);
#71=LINE('',#1430,#159);
#72=LINE('',#1431,#160);
#73=LINE('',#1433,#161);
#74=LINE('',#1435,#162);
#75=LINE('',#1437,#163);
#76=LINE('',#1439,#164);
#77=LINE('',#1441,#165);
#78=LINE('',#1443,#166);
#79=LINE('',#1444,#167);
#80=LINE('',#1445,#168);
#81=LINE('',#1447,#169);
#82=LINE('',#1449,#170);
#83=LINE('',#1464,#171);
#84=LINE('',#1467,#172);
#85=LINE('',#1469,#173);
#86=LINE('',#1471,#174);
#87=LINE('',#1473,#175);
#88=LINE('',#1476,#176);
#89=LINE('',#1478,#177);
#90=LINE('',#1480,#178);
#91=LINE('',#1482,#179);
#92=LINE('',#1483,#180);
#93=LINE('',#1485,#181);
#94=LINE('',#1486,#182);
#95=LINE('',#1490,#183);
#96=LINE('',#1491,#184);
#97=LINE('',#1493,#185);
#98=LINE('',#1494,#186);
#99=LINE('',#1499,#187);
#100=LINE('',#1502,#188);
#101=LINE('',#1504,#189);
#102=LINE('',#1506,#190);
#103=LINE('',#1508,#191);
#104=LINE('',#1511,#192);
#105=LINE('',#1513,#193);
#106=LINE('',#1515,#194);
#107=LINE('',#1517,#195);
#108=LINE('',#1518,#196);
#109=LINE('',#1520,#197);
#110=LINE('',#1521,#198);
#111=LINE('',#1525,#199);
#112=LINE('',#1526,#200);
#113=LINE('',#1528,#201);
#114=LINE('',#1529,#202);
#115=VECTOR('',#1039,1.);
#116=VECTOR('',#1040,1.);
#117=VECTOR('',#1041,1.);
#118=VECTOR('',#1048,1.);
#119=VECTOR('',#1049,1.);
#120=VECTOR('',#1050,1.);
#121=VECTOR('',#1055,1.);
#122=VECTOR('',#1056,1.);
#123=VECTOR('',#1057,1.);
#124=VECTOR('',#1058,1.);
#125=VECTOR('',#1059,1.);
#126=VECTOR('',#1060,1.);
#127=VECTOR('',#1061,1.);
#128=VECTOR('',#1062,1.);
#129=VECTOR('',#1063,1.);
#130=VECTOR('',#1066,1.);
#131=VECTOR('',#1069,1.);
#132=VECTOR('',#1070,1.);
#133=VECTOR('',#1071,1.);
#134=VECTOR('',#1072,1.);
#135=VECTOR('',#1079,1.);
#136=VECTOR('',#1082,1.);
#137=VECTOR('',#1085,1.);
#138=VECTOR('',#1088,1.);
#139=VECTOR('',#1105,1.);
#140=VECTOR('',#1108,1.);
#141=VECTOR('',#1109,1.);
#142=VECTOR('',#1110,1.);
#143=VECTOR('',#1111,1.);
#144=VECTOR('',#1112,1.);
#145=VECTOR('',#1115,1.);
#146=VECTOR('',#1118,1.);
#147=VECTOR('',#1121,1.);
#148=VECTOR('',#1122,1.);
#149=VECTOR('',#1123,1.);
#150=VECTOR('',#1124,1.);
#151=VECTOR('',#1125,1.);
#152=VECTOR('',#1126,1.);
#153=VECTOR('',#1127,1.);
#154=VECTOR('',#1128,1.);
#155=VECTOR('',#1135,1.);
#156=VECTOR('',#1136,1.);
#157=VECTOR('',#1139,1.);
#158=VECTOR('',#1142,1.);
#159=VECTOR('',#1143,1.);
#160=VECTOR('',#1144,1.);
#161=VECTOR('',#1147,1.);
#162=VECTOR('',#1150,1.);
#163=VECTOR('',#1153,1.);
#164=VECTOR('',#1156,1.);
#165=VECTOR('',#1159,1.);
#166=VECTOR('',#1162,1.);
#167=VECTOR('',#1163,1.);
#168=VECTOR('',#1164,1.);
#169=VECTOR('',#1167,1.);
#170=VECTOR('',#1170,1.);
#171=VECTOR('',#1191,1.);
#172=VECTOR('',#1192,1.);
#173=VECTOR('',#1193,1.);
#174=VECTOR('',#1194,1.);
#175=VECTOR('',#1197,1.);
#176=VECTOR('',#1198,1.);
#177=VECTOR('',#1199,1.);
#178=VECTOR('',#1200,1.);
#179=VECTOR('',#1203,1.);
#180=VECTOR('',#1204,1.);
#181=VECTOR('',#1207,1.);
#182=VECTOR('',#1208,1.);
#183=VECTOR('',#1213,1.);
#184=VECTOR('',#1214,1.);
#185=VECTOR('',#1217,1.);
#186=VECTOR('',#1218,1.);
#187=VECTOR('',#1225,1.);
#188=VECTOR('',#1226,1.);
#189=VECTOR('',#1227,1.);
#190=VECTOR('',#1228,1.);
#191=VECTOR('',#1231,1.);
#192=VECTOR('',#1232,1.);
#193=VECTOR('',#1233,1.);
#194=VECTOR('',#1234,1.);
#195=VECTOR('',#1237,1.);
#196=VECTOR('',#1238,1.);
#197=VECTOR('',#1241,1.);
#198=VECTOR('',#1242,1.);
#199=VECTOR('',#1247,1.);
#200=VECTOR('',#1248,1.);
#201=VECTOR('',#1251,1.);
#202=VECTOR('',#1252,1.);
#203=ORIENTED_EDGE('',*,*,#447,.F.);
#204=ORIENTED_EDGE('',*,*,#448,.T.);
#205=ORIENTED_EDGE('',*,*,#449,.T.);
#206=ORIENTED_EDGE('',*,*,#450,.F.);
#207=ORIENTED_EDGE('',*,*,#451,.T.);
#208=ORIENTED_EDGE('',*,*,#452,.F.);
#209=ORIENTED_EDGE('',*,*,#453,.F.);
#210=ORIENTED_EDGE('',*,*,#454,.T.);
#211=ORIENTED_EDGE('',*,*,#455,.T.);
#212=ORIENTED_EDGE('',*,*,#456,.T.);
#213=ORIENTED_EDGE('',*,*,#457,.T.);
#214=ORIENTED_EDGE('',*,*,#458,.T.);
#215=ORIENTED_EDGE('',*,*,#459,.F.);
#216=ORIENTED_EDGE('',*,*,#460,.T.);
#217=ORIENTED_EDGE('',*,*,#461,.T.);
#218=ORIENTED_EDGE('',*,*,#462,.T.);
#219=ORIENTED_EDGE('',*,*,#463,.F.);
#220=ORIENTED_EDGE('',*,*,#464,.T.);
#221=ORIENTED_EDGE('',*,*,#465,.F.);
#222=ORIENTED_EDGE('',*,*,#466,.T.);
#223=ORIENTED_EDGE('',*,*,#467,.F.);
#224=ORIENTED_EDGE('',*,*,#468,.T.);
#225=ORIENTED_EDGE('',*,*,#469,.F.);
#226=ORIENTED_EDGE('',*,*,#470,.F.);
#227=ORIENTED_EDGE('',*,*,#471,.F.);
#228=ORIENTED_EDGE('',*,*,#472,.T.);
#229=ORIENTED_EDGE('',*,*,#473,.T.);
#230=ORIENTED_EDGE('',*,*,#474,.T.);
#231=ORIENTED_EDGE('',*,*,#475,.T.);
#232=ORIENTED_EDGE('',*,*,#476,.T.);
#233=ORIENTED_EDGE('',*,*,#477,.F.);
#234=ORIENTED_EDGE('',*,*,#478,.T.);
#235=ORIENTED_EDGE('',*,*,#479,.F.);
#236=ORIENTED_EDGE('',*,*,#480,.T.);
#237=ORIENTED_EDGE('',*,*,#481,.F.);
#238=ORIENTED_EDGE('',*,*,#482,.T.);
#239=ORIENTED_EDGE('',*,*,#483,.F.);
#240=ORIENTED_EDGE('',*,*,#484,.T.);
#241=ORIENTED_EDGE('',*,*,#485,.F.);
#242=ORIENTED_EDGE('',*,*,#486,.T.);
#243=ORIENTED_EDGE('',*,*,#487,.T.);
#244=ORIENTED_EDGE('',*,*,#488,.F.);
#245=ORIENTED_EDGE('',*,*,#489,.T.);
#246=ORIENTED_EDGE('',*,*,#490,.F.);
#247=ORIENTED_EDGE('',*,*,#491,.T.);
#248=ORIENTED_EDGE('',*,*,#492,.T.);
#249=ORIENTED_EDGE('',*,*,#493,.T.);
#250=ORIENTED_EDGE('',*,*,#494,.F.);
#251=ORIENTED_EDGE('',*,*,#495,.T.);
#252=ORIENTED_EDGE('',*,*,#496,.F.);
#253=ORIENTED_EDGE('',*,*,#497,.T.);
#254=ORIENTED_EDGE('',*,*,#498,.F.);
#255=ORIENTED_EDGE('',*,*,#499,.F.);
#256=ORIENTED_EDGE('',*,*,#500,.T.);
#257=ORIENTED_EDGE('',*,*,#501,.T.);
#258=ORIENTED_EDGE('',*,*,#502,.F.);
#259=ORIENTED_EDGE('',*,*,#503,.F.);
#260=ORIENTED_EDGE('',*,*,#504,.T.);
#261=ORIENTED_EDGE('',*,*,#505,.T.);
#262=ORIENTED_EDGE('',*,*,#506,.F.);
#263=ORIENTED_EDGE('',*,*,#507,.T.);
#264=ORIENTED_EDGE('',*,*,#508,.T.);
#265=ORIENTED_EDGE('',*,*,#483,.T.);
#266=ORIENTED_EDGE('',*,*,#485,.T.);
#267=ORIENTED_EDGE('',*,*,#490,.T.);
#268=ORIENTED_EDGE('',*,*,#509,.F.);
#269=ORIENTED_EDGE('',*,*,#472,.F.);
#270=ORIENTED_EDGE('',*,*,#510,.T.);
#271=ORIENTED_EDGE('',*,*,#489,.F.);
#272=ORIENTED_EDGE('',*,*,#511,.F.);
#273=ORIENTED_EDGE('',*,*,#465,.T.);
#274=ORIENTED_EDGE('',*,*,#509,.T.);
#275=ORIENTED_EDGE('',*,*,#488,.T.);
#276=ORIENTED_EDGE('',*,*,#512,.F.);
#277=ORIENTED_EDGE('',*,*,#476,.F.);
#278=ORIENTED_EDGE('',*,*,#513,.F.);
#279=ORIENTED_EDGE('',*,*,#451,.F.);
#280=ORIENTED_EDGE('',*,*,#514,.T.);
#281=ORIENTED_EDGE('',*,*,#466,.F.);
#282=ORIENTED_EDGE('',*,*,#511,.T.);
#283=ORIENTED_EDGE('',*,*,#487,.F.);
#284=ORIENTED_EDGE('',*,*,#515,.F.);
#285=ORIENTED_EDGE('',*,*,#477,.T.);
#286=ORIENTED_EDGE('',*,*,#512,.T.);
#287=ORIENTED_EDGE('',*,*,#498,.T.);
#288=ORIENTED_EDGE('',*,*,#516,.F.);
#289=ORIENTED_EDGE('',*,*,#478,.F.);
#290=ORIENTED_EDGE('',*,*,#515,.T.);
#291=ORIENTED_EDGE('',*,*,#497,.F.);
#292=ORIENTED_EDGE('',*,*,#517,.F.);
#293=ORIENTED_EDGE('',*,*,#479,.T.);
#294=ORIENTED_EDGE('',*,*,#516,.T.);
#295=ORIENTED_EDGE('',*,*,#496,.T.);
#296=ORIENTED_EDGE('',*,*,#518,.F.);
#297=ORIENTED_EDGE('',*,*,#480,.F.);
#298=ORIENTED_EDGE('',*,*,#517,.T.);
#299=ORIENTED_EDGE('',*,*,#495,.F.);
#300=ORIENTED_EDGE('',*,*,#519,.F.);
#301=ORIENTED_EDGE('',*,*,#481,.T.);
#302=ORIENTED_EDGE('',*,*,#518,.T.);
#303=ORIENTED_EDGE('',*,*,#494,.T.);
#304=ORIENTED_EDGE('',*,*,#520,.F.);
#305=ORIENTED_EDGE('',*,*,#468,.F.);
#306=ORIENTED_EDGE('',*,*,#521,.F.);
#307=ORIENTED_EDGE('',*,*,#456,.F.);
#308=ORIENTED_EDGE('',*,*,#522,.T.);
#309=ORIENTED_EDGE('',*,*,#482,.F.);
#310=ORIENTED_EDGE('',*,*,#519,.T.);
#311=ORIENTED_EDGE('',*,*,#493,.F.);
#312=ORIENTED_EDGE('',*,*,#523,.F.);
#313=ORIENTED_EDGE('',*,*,#469,.T.);
#314=ORIENTED_EDGE('',*,*,#520,.T.);
#315=ORIENTED_EDGE('',*,*,#492,.F.);
#316=ORIENTED_EDGE('',*,*,#524,.F.);
#317=ORIENTED_EDGE('',*,*,#470,.T.);
#318=ORIENTED_EDGE('',*,*,#523,.T.);
#319=ORIENTED_EDGE('',*,*,#507,.F.);
#320=ORIENTED_EDGE('',*,*,#452,.T.);
#321=ORIENTED_EDGE('',*,*,#508,.F.);
#322=ORIENTED_EDGE('',*,*,#447,.T.);
#323=ORIENTED_EDGE('',*,*,#525,.T.);
#324=ORIENTED_EDGE('',*,*,#526,.T.);
#325=ORIENTED_EDGE('',*,*,#491,.F.);
#326=ORIENTED_EDGE('',*,*,#510,.F.);
#327=ORIENTED_EDGE('',*,*,#471,.T.);
#328=ORIENTED_EDGE('',*,*,#524,.T.);
#329=ORIENTED_EDGE('',*,*,#527,.T.);
#330=ORIENTED_EDGE('',*,*,#526,.F.);
#331=ORIENTED_EDGE('',*,*,#528,.T.);
#332=ORIENTED_EDGE('',*,*,#525,.F.);
#333=ORIENTED_EDGE('',*,*,#529,.T.);
#334=ORIENTED_EDGE('',*,*,#530,.T.);
#335=ORIENTED_EDGE('',*,*,#531,.F.);
#336=ORIENTED_EDGE('',*,*,#532,.T.);
#337=ORIENTED_EDGE('',*,*,#533,.F.);
#338=ORIENTED_EDGE('',*,*,#534,.T.);
#339=ORIENTED_EDGE('',*,*,#535,.T.);
#340=ORIENTED_EDGE('',*,*,#536,.F.);
#341=ORIENTED_EDGE('',*,*,#537,.T.);
#342=ORIENTED_EDGE('',*,*,#504,.F.);
#343=ORIENTED_EDGE('',*,*,#538,.F.);
#344=ORIENTED_EDGE('',*,*,#536,.T.);
#345=ORIENTED_EDGE('',*,*,#539,.T.);
#346=ORIENTED_EDGE('',*,*,#532,.F.);
#347=ORIENTED_EDGE('',*,*,#540,.F.);
#348=ORIENTED_EDGE('',*,*,#506,.T.);
#349=ORIENTED_EDGE('',*,*,#541,.T.);
#350=ORIENTED_EDGE('',*,*,#457,.F.);
#351=ORIENTED_EDGE('',*,*,#542,.T.);
#352=ORIENTED_EDGE('',*,*,#533,.T.);
#353=ORIENTED_EDGE('',*,*,#538,.T.);
#354=ORIENTED_EDGE('',*,*,#503,.T.);
#355=ORIENTED_EDGE('',*,*,#540,.T.);
#356=ORIENTED_EDGE('',*,*,#531,.T.);
#357=ORIENTED_EDGE('',*,*,#543,.T.);
#358=ORIENTED_EDGE('',*,*,#459,.T.);
#359=ORIENTED_EDGE('',*,*,#544,.T.);
#360=ORIENTED_EDGE('',*,*,#529,.F.);
#361=ORIENTED_EDGE('',*,*,#539,.F.);
#362=ORIENTED_EDGE('',*,*,#505,.F.);
#363=ORIENTED_EDGE('',*,*,#537,.F.);
#364=ORIENTED_EDGE('',*,*,#535,.F.);
#365=ORIENTED_EDGE('',*,*,#545,.T.);
#366=ORIENTED_EDGE('',*,*,#528,.F.);
#367=ORIENTED_EDGE('',*,*,#546,.F.);
#368=ORIENTED_EDGE('',*,*,#541,.F.);
#369=ORIENTED_EDGE('',*,*,#547,.T.);
#370=ORIENTED_EDGE('',*,*,#548,.T.);
#371=ORIENTED_EDGE('',*,*,#549,.F.);
#372=ORIENTED_EDGE('',*,*,#550,.T.);
#373=ORIENTED_EDGE('',*,*,#551,.F.);
#374=ORIENTED_EDGE('',*,*,#552,.T.);
#375=ORIENTED_EDGE('',*,*,#553,.T.);
#376=ORIENTED_EDGE('',*,*,#554,.F.);
#377=ORIENTED_EDGE('',*,*,#555,.T.);
#378=ORIENTED_EDGE('',*,*,#500,.F.);
#379=ORIENTED_EDGE('',*,*,#556,.F.);
#380=ORIENTED_EDGE('',*,*,#554,.T.);
#381=ORIENTED_EDGE('',*,*,#557,.T.);
#382=ORIENTED_EDGE('',*,*,#550,.F.);
#383=ORIENTED_EDGE('',*,*,#558,.F.);
#384=ORIENTED_EDGE('',*,*,#502,.T.);
#385=ORIENTED_EDGE('',*,*,#559,.T.);
#386=ORIENTED_EDGE('',*,*,#461,.F.);
#387=ORIENTED_EDGE('',*,*,#560,.T.);
#388=ORIENTED_EDGE('',*,*,#551,.T.);
#389=ORIENTED_EDGE('',*,*,#556,.T.);
#390=ORIENTED_EDGE('',*,*,#499,.T.);
#391=ORIENTED_EDGE('',*,*,#558,.T.);
#392=ORIENTED_EDGE('',*,*,#549,.T.);
#393=ORIENTED_EDGE('',*,*,#561,.T.);
#394=ORIENTED_EDGE('',*,*,#463,.T.);
#395=ORIENTED_EDGE('',*,*,#562,.T.);
#396=ORIENTED_EDGE('',*,*,#547,.F.);
#397=ORIENTED_EDGE('',*,*,#557,.F.);
#398=ORIENTED_EDGE('',*,*,#501,.F.);
#399=ORIENTED_EDGE('',*,*,#555,.F.);
#400=ORIENTED_EDGE('',*,*,#553,.F.);
#401=ORIENTED_EDGE('',*,*,#563,.T.);
#402=ORIENTED_EDGE('',*,*,#527,.F.);
#403=ORIENTED_EDGE('',*,*,#564,.F.);
#404=ORIENTED_EDGE('',*,*,#559,.F.);
#405=ORIENTED_EDGE('',*,*,#486,.F.);
#406=ORIENTED_EDGE('',*,*,#565,.F.);
#407=ORIENTED_EDGE('',*,*,#565,.T.);
#408=ORIENTED_EDGE('',*,*,#474,.F.);
#409=ORIENTED_EDGE('',*,*,#484,.F.);
#410=ORIENTED_EDGE('',*,*,#566,.F.);
#411=ORIENTED_EDGE('',*,*,#566,.T.);
#412=ORIENTED_EDGE('',*,*,#473,.F.);
#413=ORIENTED_EDGE('',*,*,#564,.T.);
#414=ORIENTED_EDGE('',*,*,#546,.T.);
#415=ORIENTED_EDGE('',*,*,#450,.T.);
#416=ORIENTED_EDGE('',*,*,#567,.T.);
#417=ORIENTED_EDGE('',*,*,#453,.T.);
#418=ORIENTED_EDGE('',*,*,#521,.T.);
#419=ORIENTED_EDGE('',*,*,#467,.T.);
#420=ORIENTED_EDGE('',*,*,#514,.F.);
#421=ORIENTED_EDGE('',*,*,#568,.F.);
#422=ORIENTED_EDGE('',*,*,#448,.F.);
#423=ORIENTED_EDGE('',*,*,#513,.T.);
#424=ORIENTED_EDGE('',*,*,#475,.F.);
#425=ORIENTED_EDGE('',*,*,#522,.F.);
#426=ORIENTED_EDGE('',*,*,#455,.F.);
#427=ORIENTED_EDGE('',*,*,#562,.F.);
#428=ORIENTED_EDGE('',*,*,#462,.F.);
#429=ORIENTED_EDGE('',*,*,#561,.F.);
#430=ORIENTED_EDGE('',*,*,#548,.F.);
#431=ORIENTED_EDGE('',*,*,#560,.F.);
#432=ORIENTED_EDGE('',*,*,#464,.F.);
#433=ORIENTED_EDGE('',*,*,#563,.F.);
#434=ORIENTED_EDGE('',*,*,#552,.F.);
#435=ORIENTED_EDGE('',*,*,#544,.F.);
#436=ORIENTED_EDGE('',*,*,#458,.F.);
#437=ORIENTED_EDGE('',*,*,#543,.F.);
#438=ORIENTED_EDGE('',*,*,#530,.F.);
#439=ORIENTED_EDGE('',*,*,#542,.F.);
#440=ORIENTED_EDGE('',*,*,#460,.F.);
#441=ORIENTED_EDGE('',*,*,#545,.F.);
#442=ORIENTED_EDGE('',*,*,#534,.F.);
#443=ORIENTED_EDGE('',*,*,#568,.T.);
#444=ORIENTED_EDGE('',*,*,#454,.F.);
#445=ORIENTED_EDGE('',*,*,#567,.F.);
#446=ORIENTED_EDGE('',*,*,#449,.F.);
#447=EDGE_CURVE('',#569,#569,#657,.T.);
#448=EDGE_CURVE('',#570,#571,#27,.T.);
#449=EDGE_CURVE('',#571,#572,#28,.F.);
#450=EDGE_CURVE('',#573,#572,#29,.T.);
#451=EDGE_CURVE('',#573,#570,#658,.T.);
#452=EDGE_CURVE('',#574,#574,#659,.T.);
#453=EDGE_CURVE('',#575,#576,#30,.T.);
#454=EDGE_CURVE('',#575,#577,#31,.T.);
#455=EDGE_CURVE('',#577,#578,#32,.T.);
#456=EDGE_CURVE('',#578,#576,#660,.T.);
#457=EDGE_CURVE('',#579,#580,#33,.T.);
#458=EDGE_CURVE('',#580,#581,#34,.T.);
#459=EDGE_CURVE('',#582,#581,#35,.T.);
#460=EDGE_CURVE('',#582,#579,#36,.T.);
#461=EDGE_CURVE('',#583,#584,#37,.T.);
#462=EDGE_CURVE('',#584,#585,#38,.T.);
#463=EDGE_CURVE('',#586,#585,#39,.T.);
#464=EDGE_CURVE('',#586,#583,#40,.T.);
#465=EDGE_CURVE('',#587,#588,#41,.T.);
#466=EDGE_CURVE('',#587,#589,#661,.F.);
#467=EDGE_CURVE('',#590,#589,#42,.T.);
#468=EDGE_CURVE('',#590,#591,#662,.F.);
#469=EDGE_CURVE('',#592,#591,#43,.T.);
#470=EDGE_CURVE('',#593,#592,#44,.T.);
#471=EDGE_CURVE('',#594,#593,#45,.T.);
#472=EDGE_CURVE('',#594,#588,#46,.T.);
#473=EDGE_CURVE('',#595,#595,#663,.T.);
#474=EDGE_CURVE('',#596,#596,#664,.T.);
#475=EDGE_CURVE('',#597,#598,#47,.T.);
#476=EDGE_CURVE('',#598,#599,#665,.F.);
#477=EDGE_CURVE('',#600,#599,#48,.T.);
#478=EDGE_CURVE('',#600,#601,#666,.T.);
#479=EDGE_CURVE('',#602,#601,#49,.T.);
#480=EDGE_CURVE('',#602,#603,#667,.T.);
#481=EDGE_CURVE('',#604,#603,#50,.T.);
#482=EDGE_CURVE('',#604,#597,#668,.F.);
#483=EDGE_CURVE('',#605,#605,#669,.T.);
#484=EDGE_CURVE('',#606,#606,#670,.T.);
#485=EDGE_CURVE('',#607,#607,#671,.T.);
#486=EDGE_CURVE('',#608,#608,#672,.T.);
#487=EDGE_CURVE('',#609,#610,#51,.T.);
#488=EDGE_CURVE('',#611,#610,#673,.T.);
#489=EDGE_CURVE('',#611,#612,#52,.T.);
#490=EDGE_CURVE('',#613,#612,#53,.T.);
#491=EDGE_CURVE('',#613,#614,#54,.T.);
#492=EDGE_CURVE('',#614,#615,#55,.T.);
#493=EDGE_CURVE('',#615,#616,#56,.T.);
#494=EDGE_CURVE('',#617,#616,#674,.T.);
#495=EDGE_CURVE('',#617,#618,#57,.T.);
#496=EDGE_CURVE('',#619,#618,#675,.T.);
#497=EDGE_CURVE('',#619,#620,#58,.T.);
#498=EDGE_CURVE('',#609,#620,#676,.T.);
#499=EDGE_CURVE('',#621,#622,#59,.T.);
#500=EDGE_CURVE('',#621,#623,#60,.T.);
#501=EDGE_CURVE('',#623,#624,#61,.T.);
#502=EDGE_CURVE('',#622,#624,#62,.T.);
#503=EDGE_CURVE('',#625,#626,#63,.T.);
#504=EDGE_CURVE('',#625,#627,#64,.T.);
#505=EDGE_CURVE('',#627,#628,#65,.T.);
#506=EDGE_CURVE('',#626,#628,#66,.T.);
#507=EDGE_CURVE('',#629,#629,#677,.T.);
#508=EDGE_CURVE('',#630,#630,#678,.T.);
#509=EDGE_CURVE('',#588,#612,#67,.T.);
#510=EDGE_CURVE('',#594,#613,#68,.T.);
#511=EDGE_CURVE('',#587,#611,#69,.T.);
#512=EDGE_CURVE('',#599,#610,#70,.T.);
#513=EDGE_CURVE('',#570,#598,#71,.T.);
#514=EDGE_CURVE('',#573,#589,#72,.T.);
#515=EDGE_CURVE('',#600,#609,#73,.T.);
#516=EDGE_CURVE('',#601,#620,#74,.T.);
#517=EDGE_CURVE('',#602,#619,#75,.T.);
#518=EDGE_CURVE('',#603,#618,#76,.T.);
#519=EDGE_CURVE('',#604,#617,#77,.T.);
#520=EDGE_CURVE('',#591,#616,#78,.T.);
#521=EDGE_CURVE('',#576,#590,#79,.T.);
#522=EDGE_CURVE('',#578,#597,#80,.T.);
#523=EDGE_CURVE('',#592,#615,#81,.T.);
#524=EDGE_CURVE('',#593,#614,#82,.T.);
#525=EDGE_CURVE('',#631,#631,#679,.T.);
#526=EDGE_CURVE('',#632,#632,#680,.T.);
#527=EDGE_CURVE('',#633,#633,#681,.F.);
#528=EDGE_CURVE('',#634,#634,#682,.F.);
#529=EDGE_CURVE('',#635,#636,#83,.T.);
#530=EDGE_CURVE('',#636,#637,#84,.T.);
#531=EDGE_CURVE('',#638,#637,#85,.T.);
#532=EDGE_CURVE('',#638,#635,#86,.T.);
#533=EDGE_CURVE('',#639,#640,#87,.T.);
#534=EDGE_CURVE('',#639,#641,#88,.T.);
#535=EDGE_CURVE('',#641,#642,#89,.T.);
#536=EDGE_CURVE('',#640,#642,#90,.T.);
#537=EDGE_CURVE('',#642,#627,#91,.T.);
#538=EDGE_CURVE('',#640,#625,#92,.T.);
#539=EDGE_CURVE('',#628,#635,#93,.T.);
#540=EDGE_CURVE('',#626,#638,#94,.T.);
#541=EDGE_CURVE('',#643,#643,#683,.F.);
#542=EDGE_CURVE('',#579,#639,#95,.T.);
#543=EDGE_CURVE('',#637,#580,#96,.T.);
#544=EDGE_CURVE('',#581,#636,#97,.T.);
#545=EDGE_CURVE('',#641,#582,#98,.T.);
#546=EDGE_CURVE('',#644,#644,#684,.T.);
#547=EDGE_CURVE('',#645,#646,#99,.T.);
#548=EDGE_CURVE('',#646,#647,#100,.T.);
#549=EDGE_CURVE('',#648,#647,#101,.T.);
#550=EDGE_CURVE('',#648,#645,#102,.T.);
#551=EDGE_CURVE('',#649,#650,#103,.T.);
#552=EDGE_CURVE('',#649,#651,#104,.T.);
#553=EDGE_CURVE('',#651,#652,#105,.T.);
#554=EDGE_CURVE('',#650,#652,#106,.T.);
#555=EDGE_CURVE('',#652,#623,#107,.T.);
#556=EDGE_CURVE('',#650,#621,#108,.T.);
#557=EDGE_CURVE('',#624,#645,#109,.T.);
#558=EDGE_CURVE('',#622,#648,#110,.T.);
#559=EDGE_CURVE('',#653,#653,#685,.F.);
#560=EDGE_CURVE('',#583,#649,#111,.T.);
#561=EDGE_CURVE('',#647,#584,#112,.T.);
#562=EDGE_CURVE('',#585,#646,#113,.T.);
#563=EDGE_CURVE('',#651,#586,#114,.T.);
#564=EDGE_CURVE('',#654,#654,#686,.T.);
#565=EDGE_CURVE('',#655,#655,#687,.T.);
#566=EDGE_CURVE('',#656,#656,#688,.T.);
#567=EDGE_CURVE('',#572,#575,#689,.T.);
#568=EDGE_CURVE('',#571,#577,#690,.F.);
#569=VERTEX_POINT('',#1294);
#570=VERTEX_POINT('',#1296);
#571=VERTEX_POINT('',#1297);
#572=VERTEX_POINT('',#1299);
#573=VERTEX_POINT('',#1301);
#574=VERTEX_POINT('',#1305);
#575=VERTEX_POINT('',#1307);
#576=VERTEX_POINT('',#1308);
#577=VERTEX_POINT('',#1310);
#578=VERTEX_POINT('',#1312);
#579=VERTEX_POINT('',#1316);
#580=VERTEX_POINT('',#1317);
#581=VERTEX_POINT('',#1319);
#582=VERTEX_POINT('',#1321);
#583=VERTEX_POINT('',#1324);
#584=VERTEX_POINT('',#1325);
#585=VERTEX_POINT('',#1327);
#586=VERTEX_POINT('',#1329);
#587=VERTEX_POINT('',#1332);
#588=VERTEX_POINT('',#1333);
#589=VERTEX_POINT('',#1335);
#590=VERTEX_POINT('',#1337);
#591=VERTEX_POINT('',#1339);
#592=VERTEX_POINT('',#1341);
#593=VERTEX_POINT('',#1343);
#594=VERTEX_POINT('',#1345);
#595=VERTEX_POINT('',#1349);
#596=VERTEX_POINT('',#1351);
#597=VERTEX_POINT('',#1353);
#598=VERTEX_POINT('',#1354);
#599=VERTEX_POINT('',#1356);
#600=VERTEX_POINT('',#1358);
#601=VERTEX_POINT('',#1360);
#602=VERTEX_POINT('',#1362);
#603=VERTEX_POINT('',#1364);
#604=VERTEX_POINT('',#1366);
#605=VERTEX_POINT('',#1370);
#606=VERTEX_POINT('',#1372);
#607=VERTEX_POINT('',#1375);
#608=VERTEX_POINT('',#1377);
#609=VERTEX_POINT('',#1380);
#610=VERTEX_POINT('',#1381);
#611=VERTEX_POINT('',#1383);
#612=VERTEX_POINT('',#1385);
#613=VERTEX_POINT('',#1387);
#614=VERTEX_POINT('',#1389);
#615=VERTEX_POINT('',#1391);
#616=VERTEX_POINT('',#1393);
#617=VERTEX_POINT('',#1395);
#618=VERTEX_POINT('',#1397);
#619=VERTEX_POINT('',#1399);
#620=VERTEX_POINT('',#1401);
#621=VERTEX_POINT('',#1404);
#622=VERTEX_POINT('',#1405);
#623=VERTEX_POINT('',#1407);
#624=VERTEX_POINT('',#1409);
#625=VERTEX_POINT('',#1412);
#626=VERTEX_POINT('',#1413);
#627=VERTEX_POINT('',#1415);
#628=VERTEX_POINT('',#1417);
#629=VERTEX_POINT('',#1420);
#630=VERTEX_POINT('',#1422);
#631=VERTEX_POINT('',#1454);
#632=VERTEX_POINT('',#1456);
#633=VERTEX_POINT('',#1459);
#634=VERTEX_POINT('',#1462);
#635=VERTEX_POINT('',#1465);
#636=VERTEX_POINT('',#1466);
#637=VERTEX_POINT('',#1468);
#638=VERTEX_POINT('',#1470);
#639=VERTEX_POINT('',#1474);
#640=VERTEX_POINT('',#1475);
#641=VERTEX_POINT('',#1477);
#642=VERTEX_POINT('',#1479);
#643=VERTEX_POINT('',#1489);
#644=VERTEX_POINT('',#1497);
#645=VERTEX_POINT('',#1500);
#646=VERTEX_POINT('',#1501);
#647=VERTEX_POINT('',#1503);
#648=VERTEX_POINT('',#1505);
#649=VERTEX_POINT('',#1509);
#650=VERTEX_POINT('',#1510);
#651=VERTEX_POINT('',#1512);
#652=VERTEX_POINT('',#1514);
#653=VERTEX_POINT('',#1524);
#654=VERTEX_POINT('',#1532);
#655=VERTEX_POINT('',#1535);
#656=VERTEX_POINT('',#1539);
#657=CIRCLE('',#950,0.00165);
#658=CIRCLE('',#951,0.0035);
#659=CIRCLE('',#953,0.00165);
#660=CIRCLE('',#954,0.0035);
#661=CIRCLE('',#956,0.0035);
#662=CIRCLE('',#957,0.0035);
#663=CIRCLE('',#959,0.003);
#664=CIRCLE('',#960,0.003);
#665=CIRCLE('',#961,0.0035);
#666=CIRCLE('',#962,0.0035);
#667=CIRCLE('',#963,0.0035);
#668=CIRCLE('',#964,0.0035);
#669=CIRCLE('',#966,0.00165);
#670=CIRCLE('',#967,0.00165);
#671=CIRCLE('',#969,0.00165);
#672=CIRCLE('',#970,0.00165);
#673=CIRCLE('',#972,0.0035);
#674=CIRCLE('',#973,0.0035);
#675=CIRCLE('',#974,0.0035);
#676=CIRCLE('',#975,0.0035);
#677=CIRCLE('',#976,0.00165);
#678=CIRCLE('',#977,0.00165);
#679=CIRCLE('',#992,0.00165);
#680=CIRCLE('',#993,0.00165);
#681=CIRCLE('',#995,0.00165);
#682=CIRCLE('',#997,0.00165);
#683=CIRCLE('',#1003,0.00165);
#684=CIRCLE('',#1006,0.00165);
#685=CIRCLE('',#1012,0.00165);
#686=CIRCLE('',#1015,0.00165);
#687=CIRCLE('',#1017,0.003);
#688=CIRCLE('',#1020,0.003);
#689=CIRCLE('',#1025,0.01);
#690=CIRCLE('',#1027,0.01);
#691=EDGE_LOOP('',(#203));
#692=EDGE_LOOP('',(#204,#205,#206,#207));
#693=EDGE_LOOP('',(#208));
#694=EDGE_LOOP('',(#209,#210,#211,#212));
#695=EDGE_LOOP('',(#213,#214,#215,#216));
#696=EDGE_LOOP('',(#217,#218,#219,#220));
#697=EDGE_LOOP('',(#221,#222,#223,#224,#225,#226,#227,#228));
#698=EDGE_LOOP('',(#229));
#699=EDGE_LOOP('',(#230));
#700=EDGE_LOOP('',(#231,#232,#233,#234,#235,#236,#237,#238));
#701=EDGE_LOOP('',(#239));
#702=EDGE_LOOP('',(#240));
#703=EDGE_LOOP('',(#241));
#704=EDGE_LOOP('',(#242));
#705=EDGE_LOOP('',(#243,#244,#245,#246,#247,#248,#249,#250,#251,#252,#253,
#254));
#706=EDGE_LOOP('',(#255,#256,#257,#258));
#707=EDGE_LOOP('',(#259,#260,#261,#262));
#708=EDGE_LOOP('',(#263));
#709=EDGE_LOOP('',(#264));
#710=EDGE_LOOP('',(#265));
#711=EDGE_LOOP('',(#266));
#712=EDGE_LOOP('',(#267,#268,#269,#270));
#713=EDGE_LOOP('',(#271,#272,#273,#274));
#714=EDGE_LOOP('',(#275,#276,#277,#278,#279,#280,#281,#282));
#715=EDGE_LOOP('',(#283,#284,#285,#286));
#716=EDGE_LOOP('',(#287,#288,#289,#290));
#717=EDGE_LOOP('',(#291,#292,#293,#294));
#718=EDGE_LOOP('',(#295,#296,#297,#298));
#719=EDGE_LOOP('',(#299,#300,#301,#302));
#720=EDGE_LOOP('',(#303,#304,#305,#306,#307,#308,#309,#310));
#721=EDGE_LOOP('',(#311,#312,#313,#314));
#722=EDGE_LOOP('',(#315,#316,#317,#318));
#723=EDGE_LOOP('',(#319));
#724=EDGE_LOOP('',(#320));
#725=EDGE_LOOP('',(#321));
#726=EDGE_LOOP('',(#322));
#727=EDGE_LOOP('',(#323));
#728=EDGE_LOOP('',(#324));
#729=EDGE_LOOP('',(#325,#326,#327,#328));
#730=EDGE_LOOP('',(#329));
#731=EDGE_LOOP('',(#330));
#732=EDGE_LOOP('',(#331));
#733=EDGE_LOOP('',(#332));
#734=EDGE_LOOP('',(#333,#334,#335,#336));
#735=EDGE_LOOP('',(#337,#338,#339,#340));
#736=EDGE_LOOP('',(#341,#342,#343,#344));
#737=EDGE_LOOP('',(#345,#346,#347,#348));
#738=EDGE_LOOP('',(#349));
#739=EDGE_LOOP('',(#350,#351,#352,#353,#354,#355,#356,#357));
#740=EDGE_LOOP('',(#358,#359,#360,#361,#362,#363,#364,#365));
#741=EDGE_LOOP('',(#366));
#742=EDGE_LOOP('',(#367));
#743=EDGE_LOOP('',(#368));
#744=EDGE_LOOP('',(#369,#370,#371,#372));
#745=EDGE_LOOP('',(#373,#374,#375,#376));
#746=EDGE_LOOP('',(#377,#378,#379,#380));
#747=EDGE_LOOP('',(#381,#382,#383,#384));
#748=EDGE_LOOP('',(#385));
#749=EDGE_LOOP('',(#386,#387,#388,#389,#390,#391,#392,#393));
#750=EDGE_LOOP('',(#394,#395,#396,#397,#398,#399,#400,#401));
#751=EDGE_LOOP('',(#402));
#752=EDGE_LOOP('',(#403));
#753=EDGE_LOOP('',(#404));
#754=EDGE_LOOP('',(#405));
#755=EDGE_LOOP('',(#406));
#756=EDGE_LOOP('',(#407));
#757=EDGE_LOOP('',(#408));
#758=EDGE_LOOP('',(#409));
#759=EDGE_LOOP('',(#410));
#760=EDGE_LOOP('',(#411));
#761=EDGE_LOOP('',(#412));
#762=EDGE_LOOP('',(#413));
#763=EDGE_LOOP('',(#414));
#764=EDGE_LOOP('',(#415,#416,#417,#418,#419,#420));
#765=EDGE_LOOP('',(#421,#422,#423,#424,#425,#426));
#766=EDGE_LOOP('',(#427,#428,#429,#430));
#767=EDGE_LOOP('',(#431,#432,#433,#434));
#768=EDGE_LOOP('',(#435,#436,#437,#438));
#769=EDGE_LOOP('',(#439,#440,#441,#442));
#770=EDGE_LOOP('',(#443,#444,#445,#446));
#771=FACE_BOUND('',#691,.T.);
#772=FACE_BOUND('',#692,.T.);
#773=FACE_BOUND('',#693,.T.);
#774=FACE_BOUND('',#694,.T.);
#775=FACE_BOUND('',#695,.T.);
#776=FACE_BOUND('',#696,.T.);
#777=FACE_BOUND('',#697,.T.);
#778=FACE_BOUND('',#698,.T.);
#779=FACE_BOUND('',#699,.T.);
#780=FACE_BOUND('',#700,.T.);
#781=FACE_BOUND('',#701,.T.);
#782=FACE_BOUND('',#702,.T.);
#783=FACE_BOUND('',#703,.T.);
#784=FACE_BOUND('',#704,.T.);
#785=FACE_BOUND('',#705,.T.);
#786=FACE_BOUND('',#706,.T.);
#787=FACE_BOUND('',#707,.T.);
#788=FACE_BOUND('',#708,.T.);
#789=FACE_BOUND('',#709,.T.);
#790=FACE_BOUND('',#710,.T.);
#791=FACE_BOUND('',#711,.T.);
#792=FACE_BOUND('',#712,.T.);
#793=FACE_BOUND('',#713,.T.);
#794=FACE_BOUND('',#714,.T.);
#795=FACE_BOUND('',#715,.T.);
#796=FACE_BOUND('',#716,.T.);
#797=FACE_BOUND('',#717,.T.);
#798=FACE_BOUND('',#718,.T.);
#799=FACE_BOUND('',#719,.T.);
#800=FACE_BOUND('',#720,.T.);
#801=FACE_BOUND('',#721,.T.);
#802=FACE_BOUND('',#722,.T.);
#803=FACE_BOUND('',#723,.T.);
#804=FACE_BOUND('',#724,.T.);
#805=FACE_BOUND('',#725,.T.);
#806=FACE_BOUND('',#726,.T.);
#807=FACE_BOUND('',#727,.T.);
#808=FACE_BOUND('',#728,.T.);
#809=FACE_BOUND('',#729,.T.);
#810=FACE_BOUND('',#730,.T.);
#811=FACE_BOUND('',#731,.T.);
#812=FACE_BOUND('',#732,.T.);
#813=FACE_BOUND('',#733,.T.);
#814=FACE_BOUND('',#734,.T.);
#815=FACE_BOUND('',#735,.T.);
#816=FACE_BOUND('',#736,.T.);
#817=FACE_BOUND('',#737,.T.);
#818=FACE_BOUND('',#738,.T.);
#819=FACE_BOUND('',#739,.T.);
#820=FACE_BOUND('',#740,.T.);
#821=FACE_BOUND('',#741,.T.);
#822=FACE_BOUND('',#742,.T.);
#823=FACE_BOUND('',#743,.T.);
#824=FACE_BOUND('',#744,.T.);
#825=FACE_BOUND('',#745,.T.);
#826=FACE_BOUND('',#746,.T.);
#827=FACE_BOUND('',#747,.T.);
#828=FACE_BOUND('',#748,.T.);
#829=FACE_BOUND('',#749,.T.);
#830=FACE_BOUND('',#750,.T.);
#831=FACE_BOUND('',#751,.T.);
#832=FACE_BOUND('',#752,.T.);
#833=FACE_BOUND('',#753,.T.);
#834=FACE_BOUND('',#754,.T.);
#835=FACE_BOUND('',#755,.T.);
#836=FACE_BOUND('',#756,.T.);
#837=FACE_BOUND('',#757,.T.);
#838=FACE_BOUND('',#758,.T.);
#839=FACE_BOUND('',#759,.T.);
#840=FACE_BOUND('',#760,.T.);
#841=FACE_BOUND('',#761,.T.);
#842=FACE_BOUND('',#762,.T.);
#843=FACE_BOUND('',#763,.T.);
#844=FACE_BOUND('',#764,.T.);
#845=FACE_BOUND('',#765,.T.);
#846=FACE_BOUND('',#766,.T.);
#847=FACE_BOUND('',#767,.T.);
#848=FACE_BOUND('',#768,.T.);
#849=FACE_BOUND('',#769,.T.);
#850=FACE_BOUND('',#770,.T.);
#851=PLANE('',#949);
#852=PLANE('',#952);
#853=PLANE('',#955);
#854=PLANE('',#958);
#855=PLANE('',#971);
#856=PLANE('',#978);
#857=PLANE('',#979);
#858=PLANE('',#981);
#859=PLANE('',#983);
#860=PLANE('',#985);
#861=PLANE('',#987);
#862=PLANE('',#988);
#863=PLANE('',#991);
#864=PLANE('',#998);
#865=PLANE('',#999);
#866=PLANE('',#1000);
#867=PLANE('',#1001);
#868=PLANE('',#1002);
#869=PLANE('',#1004);
#870=PLANE('',#1007);
#871=PLANE('',#1008);
#872=PLANE('',#1009);
#873=PLANE('',#1010);
#874=PLANE('',#1011);
#875=PLANE('',#1013);
#876=PLANE('',#1016);
#877=PLANE('',#1019);
#878=PLANE('',#1022);
#879=PLANE('',#1023);
#880=PLANE('',#1024);
#881=PLANE('',#1026);
#882=PLANE('',#1028);
#883=PLANE('',#1029);
#884=PLANE('',#1030);
#885=PLANE('',#1031);
#886=ADVANCED_FACE('',(#771,#772),#851,.T.);
#887=ADVANCED_FACE('',(#773,#774),#852,.T.);
#888=ADVANCED_FACE('',(#775,#776,#777),#853,.T.);
#889=ADVANCED_FACE('',(#778,#779,#780),#854,.T.);
#890=ADVANCED_FACE('',(#781,#782),#12,.F.);
#891=ADVANCED_FACE('',(#783,#784),#13,.F.);
#892=ADVANCED_FACE('',(#785,#786,#787,#788,#789,#790,#791),#855,.F.);
#893=ADVANCED_FACE('',(#792),#856,.F.);
#894=ADVANCED_FACE('',(#793),#857,.T.);
#895=ADVANCED_FACE('',(#794),#14,.T.);
#896=ADVANCED_FACE('',(#795),#858,.T.);
#897=ADVANCED_FACE('',(#796),#15,.T.);
#898=ADVANCED_FACE('',(#797),#859,.T.);
#899=ADVANCED_FACE('',(#798),#16,.T.);
#900=ADVANCED_FACE('',(#799),#860,.T.);
#901=ADVANCED_FACE('',(#800),#17,.T.);
#902=ADVANCED_FACE('',(#801),#861,.T.);
#903=ADVANCED_FACE('',(#802),#862,.T.);
#904=ADVANCED_FACE('',(#803,#804),#18,.F.);
#905=ADVANCED_FACE('',(#805,#806),#19,.F.);
#906=ADVANCED_FACE('',(#807,#808,#809),#863,.T.);
#907=ADVANCED_FACE('',(#810,#811),#20,.F.);
#908=ADVANCED_FACE('',(#812,#813),#21,.F.);
#909=ADVANCED_FACE('',(#814),#864,.F.);
#910=ADVANCED_FACE('',(#815),#865,.F.);
#911=ADVANCED_FACE('',(#816),#866,.F.);
#912=ADVANCED_FACE('',(#817),#867,.F.);
#913=ADVANCED_FACE('',(#818,#819),#868,.T.);
#914=ADVANCED_FACE('',(#820,#821),#869,.F.);
#915=ADVANCED_FACE('',(#822,#823),#22,.F.);
#916=ADVANCED_FACE('',(#824),#870,.F.);
#917=ADVANCED_FACE('',(#825),#871,.F.);
#918=ADVANCED_FACE('',(#826),#872,.F.);
#919=ADVANCED_FACE('',(#827),#873,.F.);
#920=ADVANCED_FACE('',(#828,#829),#874,.T.);
#921=ADVANCED_FACE('',(#830,#831),#875,.F.);
#922=ADVANCED_FACE('',(#832,#833),#23,.F.);
#923=ADVANCED_FACE('',(#834,#835),#876,.T.);
#924=ADVANCED_FACE('',(#836,#837),#24,.F.);
#925=ADVANCED_FACE('',(#838,#839),#877,.T.);
#926=ADVANCED_FACE('',(#840,#841),#25,.F.);
#927=ADVANCED_FACE('',(#842),#878,.T.);
#928=ADVANCED_FACE('',(#843),#879,.T.);
#929=ADVANCED_FACE('',(#844),#880,.T.);
#930=ADVANCED_FACE('',(#845),#881,.F.);
#931=ADVANCED_FACE('',(#846),#882,.T.);
#932=ADVANCED_FACE('',(#847),#883,.T.);
#933=ADVANCED_FACE('',(#848),#884,.T.);
#934=ADVANCED_FACE('',(#849),#885,.T.);
#935=ADVANCED_FACE('',(#850),#26,.F.);
#936=CLOSED_SHELL('',(#886,#887,#888,#889,#890,#891,#892,#893,#894,#895,
#896,#897,#898,#899,#900,#901,#902,#903,#904,#905,#906,#907,#908,#909,#910,
#911,#912,#913,#914,#915,#916,#917,#918,#919,#920,#921,#922,#923,#924,#925,
#926,#927,#928,#929,#930,#931,#932,#933,#934,#935));
#937=STYLED_ITEM('',(#938),#945);
#938=PRESENTATION_STYLE_ASSIGNMENT((#939));
#939=SURFACE_STYLE_USAGE(.BOTH.,#940);
#940=SURFACE_SIDE_STYLE('',(#941));
#941=SURFACE_STYLE_FILL_AREA(#942);
#942=FILL_AREA_STYLE('',(#943));
#943=FILL_AREA_STYLE_COLOUR('',#944);
#944=COLOUR_RGB('',0.647058823529412,0.647058823529412,0.647058823529412);
#945=MANIFOLD_SOLID_BREP('Part 29',#936);
#946=SHAPE_DEFINITION_REPRESENTATION(#1558,#947);
#947=SHAPE_REPRESENTATION('Part 29',(#948),#1553);
#948=AXIS2_PLACEMENT_3D('',#1291,#1033,#1034);
#949=AXIS2_PLACEMENT_3D('',#1292,#1035,#1036);
#950=AXIS2_PLACEMENT_3D('',#1293,#1037,#1038);
#951=AXIS2_PLACEMENT_3D('',#1302,#1042,#1043);
#952=AXIS2_PLACEMENT_3D('',#1303,#1044,#1045);
#953=AXIS2_PLACEMENT_3D('',#1304,#1046,#1047);
#954=AXIS2_PLACEMENT_3D('',#1313,#1051,#1052);
#955=AXIS2_PLACEMENT_3D('',#1314,#1053,#1054);
#956=AXIS2_PLACEMENT_3D('',#1334,#1064,#1065);
#957=AXIS2_PLACEMENT_3D('',#1338,#1067,#1068);
#958=AXIS2_PLACEMENT_3D('',#1347,#1073,#1074);
#959=AXIS2_PLACEMENT_3D('',#1348,#1075,#1076);
#960=AXIS2_PLACEMENT_3D('',#1350,#1077,#1078);
#961=AXIS2_PLACEMENT_3D('',#1355,#1080,#1081);
#962=AXIS2_PLACEMENT_3D('',#1359,#1083,#1084);
#963=AXIS2_PLACEMENT_3D('',#1363,#1086,#1087);
#964=AXIS2_PLACEMENT_3D('',#1367,#1089,#1090);
#965=AXIS2_PLACEMENT_3D('',#1368,#1091,#1092);
#966=AXIS2_PLACEMENT_3D('',#1369,#1093,#1094);
#967=AXIS2_PLACEMENT_3D('',#1371,#1095,#1096);
#968=AXIS2_PLACEMENT_3D('',#1373,#1097,#1098);
#969=AXIS2_PLACEMENT_3D('',#1374,#1099,#1100);
#970=AXIS2_PLACEMENT_3D('',#1376,#1101,#1102);
#971=AXIS2_PLACEMENT_3D('',#1378,#1103,#1104);
#972=AXIS2_PLACEMENT_3D('',#1382,#1106,#1107);
#973=AXIS2_PLACEMENT_3D('',#1394,#1113,#1114);
#974=AXIS2_PLACEMENT_3D('',#1398,#1116,#1117);
#975=AXIS2_PLACEMENT_3D('',#1402,#1119,#1120);
#976=AXIS2_PLACEMENT_3D('',#1419,#1129,#1130);
#977=AXIS2_PLACEMENT_3D('',#1421,#1131,#1132);
#978=AXIS2_PLACEMENT_3D('',#1423,#1133,#1134);
#979=AXIS2_PLACEMENT_3D('',#1426,#1137,#1138);
#980=AXIS2_PLACEMENT_3D('',#1428,#1140,#1141);
#981=AXIS2_PLACEMENT_3D('',#1432,#1145,#1146);
#982=AXIS2_PLACEMENT_3D('',#1434,#1148,#1149);
#983=AXIS2_PLACEMENT_3D('',#1436,#1151,#1152);
#984=AXIS2_PLACEMENT_3D('',#1438,#1154,#1155);
#985=AXIS2_PLACEMENT_3D('',#1440,#1157,#1158);
#986=AXIS2_PLACEMENT_3D('',#1442,#1160,#1161);
#987=AXIS2_PLACEMENT_3D('',#1446,#1165,#1166);
#988=AXIS2_PLACEMENT_3D('',#1448,#1168,#1169);
#989=AXIS2_PLACEMENT_3D('',#1450,#1171,#1172);
#990=AXIS2_PLACEMENT_3D('',#1451,#1173,#1174);
#991=AXIS2_PLACEMENT_3D('',#1452,#1175,#1176);
#992=AXIS2_PLACEMENT_3D('',#1453,#1177,#1178);
#993=AXIS2_PLACEMENT_3D('',#1455,#1179,#1180);
#994=AXIS2_PLACEMENT_3D('',#1457,#1181,#1182);
#995=AXIS2_PLACEMENT_3D('',#1458,#1183,#1184);
#996=AXIS2_PLACEMENT_3D('',#1460,#1185,#1186);
#997=AXIS2_PLACEMENT_3D('',#1461,#1187,#1188);
#998=AXIS2_PLACEMENT_3D('',#1463,#1189,#1190);
#999=AXIS2_PLACEMENT_3D('',#1472,#1195,#1196);
#1000=AXIS2_PLACEMENT_3D('',#1481,#1201,#1202);
#1001=AXIS2_PLACEMENT_3D('',#1484,#1205,#1206);
#1002=AXIS2_PLACEMENT_3D('',#1487,#1209,#1210);
#1003=AXIS2_PLACEMENT_3D('',#1488,#1211,#1212);
#1004=AXIS2_PLACEMENT_3D('',#1492,#1215,#1216);
#1005=AXIS2_PLACEMENT_3D('',#1495,#1219,#1220);
#1006=AXIS2_PLACEMENT_3D('',#1496,#1221,#1222);
#1007=AXIS2_PLACEMENT_3D('',#1498,#1223,#1224);
#1008=AXIS2_PLACEMENT_3D('',#1507,#1229,#1230);
#1009=AXIS2_PLACEMENT_3D('',#1516,#1235,#1236);
#1010=AXIS2_PLACEMENT_3D('',#1519,#1239,#1240);
#1011=AXIS2_PLACEMENT_3D('',#1522,#1243,#1244);
#1012=AXIS2_PLACEMENT_3D('',#1523,#1245,#1246);
#1013=AXIS2_PLACEMENT_3D('',#1527,#1249,#1250);
#1014=AXIS2_PLACEMENT_3D('',#1530,#1253,#1254);
#1015=AXIS2_PLACEMENT_3D('',#1531,#1255,#1256);
#1016=AXIS2_PLACEMENT_3D('',#1533,#1257,#1258);
#1017=AXIS2_PLACEMENT_3D('',#1534,#1259,#1260);
#1018=AXIS2_PLACEMENT_3D('',#1536,#1261,#1262);
#1019=AXIS2_PLACEMENT_3D('',#1537,#1263,#1264);
#1020=AXIS2_PLACEMENT_3D('',#1538,#1265,#1266);
#1021=AXIS2_PLACEMENT_3D('',#1540,#1267,#1268);
#1022=AXIS2_PLACEMENT_3D('',#1541,#1269,#1270);
#1023=AXIS2_PLACEMENT_3D('',#1542,#1271,#1272);
#1024=AXIS2_PLACEMENT_3D('',#1543,#1273,#1274);
#1025=AXIS2_PLACEMENT_3D('',#1544,#1275,#1276);
#1026=AXIS2_PLACEMENT_3D('',#1545,#1277,#1278);
#1027=AXIS2_PLACEMENT_3D('',#1546,#1279,#1280);
#1028=AXIS2_PLACEMENT_3D('',#1547,#1281,#1282);
#1029=AXIS2_PLACEMENT_3D('',#1548,#1283,#1284);
#1030=AXIS2_PLACEMENT_3D('',#1549,#1285,#1286);
#1031=AXIS2_PLACEMENT_3D('',#1550,#1287,#1288);
#1032=AXIS2_PLACEMENT_3D('',#1551,#1289,#1290);
#1033=DIRECTION('',(0.,0.,1.));
#1034=DIRECTION('',(1.,0.,0.));
#1035=DIRECTION('',(-1.22464679914735E-16,1.,0.));
#1036=DIRECTION('',(-1.,-1.22464679914735E-16,0.));
#1037=DIRECTION('',(-1.22464679914735E-16,1.,0.));
#1038=DIRECTION('',(-1.,-1.22464679914735E-16,0.));
#1039=DIRECTION('',(-1.,-1.22464679914735E-16,0.));
#1040=DIRECTION('',(0.,0.,-1.));
#1041=DIRECTION('',(-1.,-1.22464679914735E-16,0.));
#1042=DIRECTION('',(-1.22464679914735E-16,1.,0.));
#1043=DIRECTION('',(-1.,-1.22464679914735E-16,0.));
#1044=DIRECTION('',(-1.22464679914735E-16,1.,0.));
#1045=DIRECTION('',(-1.,-1.22464679914735E-16,0.));
#1046=DIRECTION('',(-1.22464679914735E-16,1.,0.));
#1047=DIRECTION('',(-1.,-1.22464679914735E-16,0.));
#1048=DIRECTION('',(-1.,-1.22464679914735E-16,0.));
#1049=DIRECTION('',(0.,0.,-1.));
#1050=DIRECTION('',(-1.,-1.22464679914735E-16,0.));
#1051=DIRECTION('',(-1.22464679914735E-16,1.,0.));
#1052=DIRECTION('',(-1.,-1.22464679914735E-16,0.));
#1053=DIRECTION('',(-1.22464679914735E-16,1.,0.));
#1054=DIRECTION('',(-1.,-1.22464679914735E-16,0.));
#1055=DIRECTION('',(1.,1.22464679914735E-16,0.));
#1056=DIRECTION('',(0.,0.,1.));
#1057=DIRECTION('',(1.,1.22464679914735E-16,0.));
#1058=DIRECTION('',(0.,0.,-1.));
#1059=DIRECTION('',(1.,1.22464679914735E-16,0.));
#1060=DIRECTION('',(0.,0.,1.));
#1061=DIRECTION('',(1.,1.22464679914735E-16,0.));
#1062=DIRECTION('',(0.,0.,-1.));
#1063=DIRECTION('',(-0.454945586831953,-5.57147656699966E-17,0.890519237873124));
#1064=DIRECTION('',(-1.22464679914735E-16,1.,0.));
#1065=DIRECTION('',(-1.,-1.22464679914735E-16,0.));
#1066=DIRECTION('',(1.,1.22464679914735E-16,0.));
#1067=DIRECTION('',(-1.22464679914735E-16,1.,0.));
#1068=DIRECTION('',(-1.,-1.22464679914735E-16,0.));
#1069=DIRECTION('',(-0.454945586831885,-5.57147656699882E-17,-0.890519237873159));
#1070=DIRECTION('',(0.,0.,-1.));
#1071=DIRECTION('',(-1.,-1.22464679914735E-16,0.));
#1072=DIRECTION('',(0.,0.,-1.));
#1073=DIRECTION('',(-1.22464679914735E-16,1.,0.));
#1074=DIRECTION('',(-1.,-1.22464679914735E-16,0.));
#1075=DIRECTION('',(1.22464679914735E-16,-1.,0.));
#1076=DIRECTION('',(1.,1.22464679914735E-16,0.));
#1077=DIRECTION('',(1.22464679914735E-16,-1.,0.));
#1078=DIRECTION('',(1.,1.22464679914735E-16,0.));
#1079=DIRECTION('',(1.,1.22464679914735E-16,0.));
#1080=DIRECTION('',(-1.22464679914735E-16,1.,0.));
#1081=DIRECTION('',(-1.,-1.22464679914735E-16,0.));
#1082=DIRECTION('',(0.712626804533828,8.72716135158959E-17,0.701543325433223));
#1083=DIRECTION('',(-1.22464679914735E-16,1.,0.));
#1084=DIRECTION('',(-1.,-1.22464679914735E-16,0.));
#1085=DIRECTION('',(1.,1.22464679914735E-16,0.));
#1086=DIRECTION('',(-1.22464679914735E-16,1.,0.));
#1087=DIRECTION('',(-1.,-1.22464679914735E-16,0.));
#1088=DIRECTION('',(0.712626804533776,8.72716135158895E-17,-0.701543325433277));
#1089=DIRECTION('',(-1.22464679914735E-16,1.,0.));
#1090=DIRECTION('',(-1.,-1.22464679914735E-16,0.));
#1091=DIRECTION('',(1.22464679914735E-16,-1.,0.));
#1092=DIRECTION('',(1.,1.22464679914735E-16,0.));
#1093=DIRECTION('',(-1.22464679914735E-16,1.,0.));
#1094=DIRECTION('',(-1.,-1.22464679914735E-16,0.));
#1095=DIRECTION('',(-1.22464679914735E-16,1.,0.));
#1096=DIRECTION('',(-1.,-1.22464679914735E-16,0.));
#1097=DIRECTION('',(1.22464679914735E-16,-1.,0.));
#1098=DIRECTION('',(1.,1.22464679914735E-16,0.));
#1099=DIRECTION('',(-1.22464679914735E-16,1.,0.));
#1100=DIRECTION('',(-1.,-1.22464679914735E-16,0.));
#1101=DIRECTION('',(-1.22464679914735E-16,1.,0.));
#1102=DIRECTION('',(-1.,-1.22464679914735E-16,0.));
#1103=DIRECTION('',(-1.22464679914735E-16,1.,0.));
#1104=DIRECTION('',(-1.,-1.22464679914735E-16,0.));
#1105=DIRECTION('',(0.712626804533828,8.72716135158959E-17,0.701543325433223));
#1106=DIRECTION('',(-1.22464679914735E-16,1.,0.));
#1107=DIRECTION('',(-1.,-1.22464679914735E-16,0.));
#1108=DIRECTION('',(-0.454945586831953,-5.57147656699966E-17,0.890519237873124));
#1109=DIRECTION('',(0.,0.,-1.));
#1110=DIRECTION('',(-1.,-1.22464679914735E-16,0.));
#1111=DIRECTION('',(0.,0.,-1.));
#1112=DIRECTION('',(-0.454945586831885,-5.57147656699882E-17,-0.890519237873159));
#1113=DIRECTION('',(-1.22464679914735E-16,1.,0.));
#1114=DIRECTION('',(-1.,-1.22464679914735E-16,0.));
#1115=DIRECTION('',(0.712626804533776,8.72716135158895E-17,-0.701543325433277));
#1116=DIRECTION('',(-1.22464679914735E-16,1.,0.));
#1117=DIRECTION('',(-1.,-1.22464679914735E-16,0.));
#1118=DIRECTION('',(1.,1.22464679914735E-16,0.));
#1119=DIRECTION('',(-1.22464679914735E-16,1.,0.));
#1120=DIRECTION('',(-1.,-1.22464679914735E-16,0.));
#1121=DIRECTION('',(1.,0.,0.));
#1122=DIRECTION('',(0.,0.,1.));
#1123=DIRECTION('',(1.,0.,0.));
#1124=DIRECTION('',(0.,0.,1.));
#1125=DIRECTION('',(1.,0.,0.));
#1126=DIRECTION('',(0.,0.,1.));
#1127=DIRECTION('',(1.,0.,0.));
#1128=DIRECTION('',(0.,0.,1.));
#1129=DIRECTION('',(-1.22464679914735E-16,1.,0.));
#1130=DIRECTION('',(-1.,-1.22464679914735E-16,0.));
#1131=DIRECTION('',(-1.22464679914735E-16,1.,0.));
#1132=DIRECTION('',(-1.,-1.22464679914735E-16,0.));
#1133=DIRECTION('',(-1.,-1.22464679914735E-16,0.));
#1134=DIRECTION('',(1.22464679914735E-16,-1.,0.));
#1135=DIRECTION('',(1.22464679914735E-16,-1.,0.));
#1136=DIRECTION('',(1.22464679914735E-16,-1.,0.));
#1137=DIRECTION('',(0.890519237873124,1.09057153424046E-16,0.454945586831953));
#1138=DIRECTION('',(0.454945586831953,0.,-0.890519237873124));
#1139=DIRECTION('',(1.22464679914735E-16,-1.,0.));
#1140=DIRECTION('',(1.22464679914735E-16,-1.,0.));
#1141=DIRECTION('',(1.,1.22464679914735E-16,0.));
#1142=DIRECTION('',(1.22464679914735E-16,-1.,0.));
#1143=DIRECTION('',(1.22464679914735E-16,-1.,0.));
#1144=DIRECTION('',(1.22464679914735E-16,-1.,0.));
#1145=DIRECTION('',(0.701543325433223,8.59142787954987E-17,-0.712626804533828));
#1146=DIRECTION('',(-0.712626804533828,0.,-0.701543325433223));
#1147=DIRECTION('',(1.22464679914735E-16,-1.,0.));
#1148=DIRECTION('',(1.22464679914735E-16,-1.,0.));
#1149=DIRECTION('',(1.,1.22464679914735E-16,0.));
#1150=DIRECTION('',(1.22464679914735E-16,-1.,0.));
#1151=DIRECTION('',(0.,0.,-1.));
#1152=DIRECTION('',(-1.,0.,0.));
#1153=DIRECTION('',(1.22464679914735E-16,-1.,0.));
#1154=DIRECTION('',(1.22464679914735E-16,-1.,0.));
#1155=DIRECTION('',(1.,1.22464679914735E-16,0.));
#1156=DIRECTION('',(1.22464679914735E-16,-1.,0.));
#1157=DIRECTION('',(-0.701543325433277,-8.59142787955052E-17,-0.712626804533776));
#1158=DIRECTION('',(-0.712626804533776,0.,0.701543325433277));
#1159=DIRECTION('',(1.22464679914735E-16,-1.,0.));
#1160=DIRECTION('',(1.22464679914735E-16,-1.,0.));
#1161=DIRECTION('',(1.,1.22464679914735E-16,0.));
#1162=DIRECTION('',(1.22464679914735E-16,-1.,0.));
#1163=DIRECTION('',(1.22464679914735E-16,-1.,0.));
#1164=DIRECTION('',(1.22464679914735E-16,-1.,0.));
#1165=DIRECTION('',(-0.890519237873159,-1.0905715342405E-16,0.454945586831885));
#1166=DIRECTION('',(0.454945586831885,0.,0.890519237873159));
#1167=DIRECTION('',(1.22464679914735E-16,-1.,0.));
#1168=DIRECTION('',(-1.,-1.22464679914735E-16,0.));
#1169=DIRECTION('',(1.22464679914735E-16,-1.,0.));
#1170=DIRECTION('',(1.22464679914735E-16,-1.,0.));
#1171=DIRECTION('',(1.22464679914735E-16,-1.,0.));
#1172=DIRECTION('',(1.,1.22464679914735E-16,0.));
#1173=DIRECTION('',(1.22464679914735E-16,-1.,0.));
#1174=DIRECTION('',(1.,1.22464679914735E-16,0.));
#1175=DIRECTION('',(0.,0.,1.));
#1176=DIRECTION('',(1.,0.,0.));
#1177=DIRECTION('',(0.,0.,-1.));
#1178=DIRECTION('',(-1.,0.,0.));
#1179=DIRECTION('',(0.,0.,-1.));
#1180=DIRECTION('',(-1.,0.,0.));
#1181=DIRECTION('',(0.,0.,-1.));
#1182=DIRECTION('',(-1.,0.,0.));
#1183=DIRECTION('',(0.,0.,1.));
#1184=DIRECTION('',(1.,0.,0.));
#1185=DIRECTION('',(0.,0.,-1.));
#1186=DIRECTION('',(-1.,0.,0.));
#1187=DIRECTION('',(0.,0.,1.));
#1188=DIRECTION('',(1.,0.,0.));
#1189=DIRECTION('',(0.866025403784439,0.5,0.));
#1190=DIRECTION('',(-0.5,0.866025403784439,0.));
#1191=DIRECTION('',(-0.5,0.866025403784439,0.));
#1192=DIRECTION('',(0.,0.,-1.));
#1193=DIRECTION('',(-0.5,0.866025403784439,0.));
#1194=DIRECTION('',(0.,0.,1.));
#1195=DIRECTION('',(-0.866025403784439,0.5,0.));
#1196=DIRECTION('',(-0.5,-0.866025403784439,0.));
#1197=DIRECTION('',(-0.5,-0.866025403784439,0.));
#1198=DIRECTION('',(0.,0.,1.));
#1199=DIRECTION('',(-0.5,-0.866025403784439,0.));
#1200=DIRECTION('',(0.,0.,1.));
#1201=DIRECTION('',(-0.866025403784439,-0.5,0.));
#1202=DIRECTION('',(0.5,-0.866025403784439,0.));
#1203=DIRECTION('',(0.5,-0.866025403784439,0.));
#1204=DIRECTION('',(0.5,-0.866025403784439,0.));
#1205=DIRECTION('',(0.866025403784438,-0.5,0.));
#1206=DIRECTION('',(0.5,0.866025403784438,0.));
#1207=DIRECTION('',(0.5,0.866025403784438,0.));
#1208=DIRECTION('',(0.5,0.866025403784438,0.));
#1209=DIRECTION('',(0.,0.,1.));
#1210=DIRECTION('',(1.,0.,0.));
#1211=DIRECTION('',(0.,0.,1.));
#1212=DIRECTION('',(1.,0.,0.));
#1213=DIRECTION('',(0.5,-0.86602540378444,0.));
#1214=DIRECTION('',(0.5,0.86602540378444,0.));
#1215=DIRECTION('',(0.,0.,1.));
#1216=DIRECTION('',(1.,0.,0.));
#1217=DIRECTION('',(-0.5,-0.86602540378444,0.));
#1218=DIRECTION('',(-0.5,0.86602540378444,0.));
#1219=DIRECTION('',(0.,0.,-1.));
#1220=DIRECTION('',(-1.,0.,0.));
#1221=DIRECTION('',(0.,0.,1.));
#1222=DIRECTION('',(1.,0.,0.));
#1223=DIRECTION('',(0.866025403784439,0.5,0.));
#1224=DIRECTION('',(-0.5,0.866025403784439,0.));
#1225=DIRECTION('',(-0.5,0.866025403784439,0.));
#1226=DIRECTION('',(0.,0.,-1.));
#1227=DIRECTION('',(-0.5,0.866025403784439,0.));
#1228=DIRECTION('',(0.,0.,1.));
#1229=DIRECTION('',(-0.866025403784439,0.5,0.));
#1230=DIRECTION('',(-0.5,-0.866025403784439,0.));
#1231=DIRECTION('',(-0.5,-0.866025403784439,0.));
#1232=DIRECTION('',(0.,0.,1.));
#1233=DIRECTION('',(-0.5,-0.866025403784439,0.));
#1234=DIRECTION('',(0.,0.,1.));
#1235=DIRECTION('',(-0.866025403784439,-0.5,0.));
#1236=DIRECTION('',(0.5,-0.866025403784439,0.));
#1237=DIRECTION('',(0.5,-0.866025403784439,0.));
#1238=DIRECTION('',(0.5,-0.866025403784439,0.));
#1239=DIRECTION('',(0.866025403784438,-0.5,0.));
#1240=DIRECTION('',(0.5,0.866025403784438,0.));
#1241=DIRECTION('',(0.5,0.866025403784438,0.));
#1242=DIRECTION('',(0.5,0.866025403784438,0.));
#1243=DIRECTION('',(0.,0.,1.));
#1244=DIRECTION('',(1.,0.,0.));
#1245=DIRECTION('',(0.,0.,1.));
#1246=DIRECTION('',(1.,0.,0.));
#1247=DIRECTION('',(0.5,-0.866025403784438,0.));
#1248=DIRECTION('',(0.5,0.866025403784439,0.));
#1249=DIRECTION('',(0.,0.,1.));
#1250=DIRECTION('',(1.,0.,0.));
#1251=DIRECTION('',(-0.5,-0.866025403784439,0.));
#1252=DIRECTION('',(-0.5,0.866025403784438,0.));
#1253=DIRECTION('',(0.,0.,-1.));
#1254=DIRECTION('',(-1.,0.,0.));
#1255=DIRECTION('',(0.,0.,1.));
#1256=DIRECTION('',(1.,0.,0.));
#1257=DIRECTION('',(-1.22464679914735E-16,1.,0.));
#1258=DIRECTION('',(-1.,-1.22464679914735E-16,0.));
#1259=DIRECTION('',(1.22464679914735E-16,-1.,0.));
#1260=DIRECTION('',(1.,1.22464679914735E-16,0.));
#1261=DIRECTION('',(1.22464679914735E-16,-1.,0.));
#1262=DIRECTION('',(1.,1.22464679914735E-16,0.));
#1263=DIRECTION('',(-1.22464679914735E-16,1.,0.));
#1264=DIRECTION('',(-1.,-1.22464679914735E-16,0.));
#1265=DIRECTION('',(1.22464679914735E-16,-1.,0.));
#1266=DIRECTION('',(1.,1.22464679914735E-16,0.));
#1267=DIRECTION('',(1.22464679914735E-16,-1.,0.));
#1268=DIRECTION('',(1.,1.22464679914735E-16,0.));
#1269=DIRECTION('',(0.,0.,1.));
#1270=DIRECTION('',(1.,0.,0.));
#1271=DIRECTION('',(0.,0.,1.));
#1272=DIRECTION('',(1.,0.,0.));
#1273=DIRECTION('',(0.,0.,1.));
#1274=DIRECTION('',(1.,0.,0.));
#1275=DIRECTION('',(0.,0.,-1.));
#1276=DIRECTION('',(-1.,0.,0.));
#1277=DIRECTION('',(0.,0.,1.));
#1278=DIRECTION('',(1.,0.,0.));
#1279=DIRECTION('',(0.,0.,1.));
#1280=DIRECTION('',(1.,0.,0.));
#1281=DIRECTION('',(-0.866025403784439,0.5,0.));
#1282=DIRECTION('',(0.,0.,1.));
#1283=DIRECTION('',(0.866025403784438,0.5,0.));
#1284=DIRECTION('',(0.,0.,-1.));
#1285=DIRECTION('',(-0.86602540378444,0.5,0.));
#1286=DIRECTION('',(0.,0.,1.));
#1287=DIRECTION('',(0.86602540378444,0.5,0.));
#1288=DIRECTION('',(0.,0.,-1.));
#1289=DIRECTION('',(0.,0.,-1.));
#1290=DIRECTION('',(-1.,0.,0.));
#1291=CARTESIAN_POINT('',(0.,0.,0.));
#1292=CARTESIAN_POINT('',(5.33233084395965E-16,0.037,-0.0134));
#1293=CARTESIAN_POINT('',(0.0140415026221297,0.037,-0.0104680138129141));
#1294=CARTESIAN_POINT('',(0.0123915026221297,0.037,-0.0104680138129141));
#1295=CARTESIAN_POINT('',(-3.87785537448468E-18,0.037,-0.0134680138129141));
#1296=CARTESIAN_POINT('',(0.0122387269843977,0.037,-0.0134680138129141));
#1297=CARTESIAN_POINT('',(0.0100000000000005,0.037,-0.0134680138129141));
#1298=CARTESIAN_POINT('',(0.0100000000000005,0.037,-0.00746801381291413));
#1299=CARTESIAN_POINT('',(0.0100000000000005,0.037,-0.00746801381291413));
#1300=CARTESIAN_POINT('',(-3.87785537448468E-18,0.037,-0.00746801381291413));
#1301=CARTESIAN_POINT('',(0.0122387269843977,0.037,-0.00746801381291413));
#1302=CARTESIAN_POINT('',(0.0140415026221297,0.037,-0.0104680138129141));
#1303=CARTESIAN_POINT('',(5.33233084395965E-16,0.037,-0.0134));
#1304=CARTESIAN_POINT('',(-0.0140415026221286,0.037,-0.0104680138129141));
#1305=CARTESIAN_POINT('',(-0.0156915026221286,0.037,-0.0104680138129141));
#1306=CARTESIAN_POINT('',(-3.87785537448468E-18,0.037,-0.00746801381291413));
#1307=CARTESIAN_POINT('',(-0.00999999999999947,0.037,-0.00746801381291413));
#1308=CARTESIAN_POINT('',(-0.0122387269843967,0.037,-0.00746801381291413));
#1309=CARTESIAN_POINT('',(-0.00999999999999947,0.037,-0.00746801381291413));
#1310=CARTESIAN_POINT('',(-0.00999999999999947,0.037,-0.0134680138129141));
#1311=CARTESIAN_POINT('',(-3.87785537448468E-18,0.037,-0.0134680138129141));
#1312=CARTESIAN_POINT('',(-0.0122387269843967,0.037,-0.0134680138129141));
#1313=CARTESIAN_POINT('',(-0.0140415026221286,0.037,-0.0104680138129141));
#1314=CARTESIAN_POINT('',(5.34763892894899E-16,0.0245,-0.0134));
#1315=CARTESIAN_POINT('',(5.34763892894899E-16,0.0245,-0.0003));
#1316=CARTESIAN_POINT('',(0.0041905989232415,0.0245,-0.0003));
#1317=CARTESIAN_POINT('',(0.0108094010767585,0.0245,-0.0003));
#1318=CARTESIAN_POINT('',(0.0108094010767585,0.0245,0.0022));
#1319=CARTESIAN_POINT('',(0.0108094010767585,0.0245,0.0022));
#1320=CARTESIAN_POINT('',(5.34763892894899E-16,0.0245,0.0022));
#1321=CARTESIAN_POINT('',(0.0041905989232415,0.0245,0.0022));
#1322=CARTESIAN_POINT('',(0.0041905989232415,0.0245,-0.0003));
#1323=CARTESIAN_POINT('',(5.34763892894899E-16,0.0245,-0.0003));
#1324=CARTESIAN_POINT('',(-0.0108094010767585,0.0245,-0.0003));
#1325=CARTESIAN_POINT('',(-0.0041905989232415,0.0245,-0.0003));
#1326=CARTESIAN_POINT('',(-0.0041905989232415,0.0245,0.0022));
#1327=CARTESIAN_POINT('',(-0.0041905989232415,0.0245,0.0022));
#1328=CARTESIAN_POINT('',(5.34763892894899E-16,0.0245,0.0022));
#1329=CARTESIAN_POINT('',(-0.0108094010767585,0.0245,0.0022));
#1330=CARTESIAN_POINT('',(-0.0108094010767585,0.0245,-0.0003));
#1331=CARTESIAN_POINT('',(0.0143291599773428,0.0245,-0.00333785212950115));
#1332=CARTESIAN_POINT('',(0.0171583199546857,0.0245,-0.0088757042590023));
#1333=CARTESIAN_POINT('',(0.0115,0.0245,0.0022));
#1334=CARTESIAN_POINT('',(0.0140415026221297,0.0245,-0.0104680138129141));
#1335=CARTESIAN_POINT('',(0.0122387269843977,0.0245,-0.00746801381291413));
#1336=CARTESIAN_POINT('',(5.34763892894899E-16,0.0245,-0.00746801381291413));
#1337=CARTESIAN_POINT('',(-0.0122387269843966,0.0245,-0.00746801381291413));
#1338=CARTESIAN_POINT('',(-0.0140415026221286,0.0245,-0.0104680138129141));
#1339=CARTESIAN_POINT('',(-0.0171583199546847,0.0245,-0.00887570425900254));
#1340=CARTESIAN_POINT('',(-0.0143291599773423,0.0245,-0.00333785212950126));
#1341=CARTESIAN_POINT('',(-0.0115,0.0245,0.0022));
#1342=CARTESIAN_POINT('',(-0.0115,0.0245,0.0042));
#1343=CARTESIAN_POINT('',(-0.0115,0.0245,0.0062));
#1344=CARTESIAN_POINT('',(0.0104151590968125,0.0245,0.0062));
#1345=CARTESIAN_POINT('',(0.0115,0.0245,0.0062));
#1346=CARTESIAN_POINT('',(0.0115,0.0245,0.0042));
#1347=CARTESIAN_POINT('',(5.34763892894899E-16,0.0245,-0.0134));
#1348=CARTESIAN_POINT('',(-0.007,0.0245,-0.0174));
#1349=CARTESIAN_POINT('',(-0.004,0.0245,-0.0174));
#1350=CARTESIAN_POINT('',(0.007,0.0245,-0.0174));
#1351=CARTESIAN_POINT('',(0.01,0.0245,-0.0174));
#1352=CARTESIAN_POINT('',(5.34763892894899E-16,0.0245,-0.0134680138129141));
#1353=CARTESIAN_POINT('',(-0.0122387269843967,0.0245,-0.0134680138129141));
#1354=CARTESIAN_POINT('',(0.0122387269843977,0.0245,-0.0134680138129141));
#1355=CARTESIAN_POINT('',(0.0140415026221297,0.0245,-0.0104680138129141));
#1356=CARTESIAN_POINT('',(0.016496904261146,0.0245,-0.0129622076287825));
#1357=CARTESIAN_POINT('',(0.0129761529500811,0.0245,-0.0164282007223254));
#1358=CARTESIAN_POINT('',(0.00945540163901628,0.0245,-0.0198941938158684));
#1359=CARTESIAN_POINT('',(0.007,0.0245,-0.0174));
#1360=CARTESIAN_POINT('',(0.007,0.0245,-0.0209));
#1361=CARTESIAN_POINT('',(1.98976181439154E-18,0.0245,-0.0209));
#1362=CARTESIAN_POINT('',(-0.007,0.0245,-0.0209));
#1363=CARTESIAN_POINT('',(-0.007,0.0245,-0.0174));
#1364=CARTESIAN_POINT('',(-0.00945540163901646,0.0245,-0.0198941938158682));
#1365=CARTESIAN_POINT('',(-0.0129761529500808,0.0245,-0.0164282007223253));
#1366=CARTESIAN_POINT('',(-0.0164969042611451,0.0245,-0.0129622076287823));
#1367=CARTESIAN_POINT('',(-0.0140415026221286,0.0245,-0.0104680138129141));
#1368=CARTESIAN_POINT('',(-0.007,0.0245,-0.0174));
#1369=CARTESIAN_POINT('',(-0.007,0.0195,-0.0174));
#1370=CARTESIAN_POINT('',(-0.00865,0.0195,-0.0174));
#1371=CARTESIAN_POINT('',(-0.007,0.0225,-0.0174));
#1372=CARTESIAN_POINT('',(-0.00865,0.0225,-0.0174));
#1373=CARTESIAN_POINT('',(0.007,0.0245,-0.0174));
#1374=CARTESIAN_POINT('',(0.007,0.0195,-0.0174));
#1375=CARTESIAN_POINT('',(0.00535,0.0195,-0.0174));
#1376=CARTESIAN_POINT('',(0.007,0.0225,-0.0174));
#1377=CARTESIAN_POINT('',(0.00535,0.0225,-0.0174));
#1378=CARTESIAN_POINT('',(5.35376216294473E-16,0.0195,-0.0134));
#1379=CARTESIAN_POINT('',(0.0129761529500811,0.0195,-0.0164282007223254));
#1380=CARTESIAN_POINT('',(0.00945540163901628,0.0195,-0.0198941938158684));
#1381=CARTESIAN_POINT('',(0.016496904261146,0.0195,-0.0129622076287825));
#1382=CARTESIAN_POINT('',(0.0140415026221297,0.0195,-0.0104680138129141));
#1383=CARTESIAN_POINT('',(0.0171583199546857,0.0195,-0.0088757042590023));
#1384=CARTESIAN_POINT('',(0.0143291599773428,0.0195,-0.00333785212950115));
#1385=CARTESIAN_POINT('',(0.0115,0.0195,0.0022));
#1386=CARTESIAN_POINT('',(0.0115,0.0195,0.0042));
#1387=CARTESIAN_POINT('',(0.0115,0.0195,0.0062));
#1388=CARTESIAN_POINT('',(0.0104151590968125,0.0195,0.0062));
#1389=CARTESIAN_POINT('',(-0.0115,0.0195,0.0062));
#1390=CARTESIAN_POINT('',(-0.0115,0.0195,0.0042));
#1391=CARTESIAN_POINT('',(-0.0115,0.0195,0.0022));
#1392=CARTESIAN_POINT('',(-0.0143291599773423,0.0195,-0.00333785212950126));
#1393=CARTESIAN_POINT('',(-0.0171583199546847,0.0195,-0.00887570425900253));
#1394=CARTESIAN_POINT('',(-0.0140415026221286,0.0195,-0.0104680138129141));
#1395=CARTESIAN_POINT('',(-0.0164969042611451,0.0195,-0.0129622076287823));
#1396=CARTESIAN_POINT('',(-0.0129761529500808,0.0195,-0.0164282007223253));
#1397=CARTESIAN_POINT('',(-0.00945540163901646,0.0195,-0.0198941938158682));
#1398=CARTESIAN_POINT('',(-0.007,0.0195,-0.0174));
#1399=CARTESIAN_POINT('',(-0.007,0.0195,-0.0209));
#1400=CARTESIAN_POINT('',(2.60208521396521E-18,0.0195,-0.0209));
#1401=CARTESIAN_POINT('',(0.007,0.0195,-0.0209));
#1402=CARTESIAN_POINT('',(0.007,0.0195,-0.0174));
#1403=CARTESIAN_POINT('',(-0.0075,0.0195,-0.0003));
#1404=CARTESIAN_POINT('',(-0.00923205080756888,0.0195,-0.0003));
#1405=CARTESIAN_POINT('',(-0.00576794919243112,0.0195,-0.0003));
#1406=CARTESIAN_POINT('',(-0.00923205080756888,0.0195,-0.0003));
#1407=CARTESIAN_POINT('',(-0.00923205080756888,0.0195,0.0022));
#1408=CARTESIAN_POINT('',(-0.0075,0.0195,0.0022));
#1409=CARTESIAN_POINT('',(-0.00576794919243112,0.0195,0.0022));
#1410=CARTESIAN_POINT('',(-0.00576794919243112,0.0195,-0.0003));
#1411=CARTESIAN_POINT('',(0.0075,0.0195,-0.0003));
#1412=CARTESIAN_POINT('',(0.00576794919243112,0.0195,-0.0003));
#1413=CARTESIAN_POINT('',(0.00923205080756887,0.0195,-0.0003));
#1414=CARTESIAN_POINT('',(0.00576794919243112,0.0195,-0.0003));
#1415=CARTESIAN_POINT('',(0.00576794919243112,0.0195,0.0022));
#1416=CARTESIAN_POINT('',(0.0075,0.0195,0.0022));
#1417=CARTESIAN_POINT('',(0.00923205080756887,0.0195,0.0022));
#1418=CARTESIAN_POINT('',(0.00923205080756887,0.0195,-0.0003));
#1419=CARTESIAN_POINT('',(-0.0140415026221286,0.0195,-0.0104680138129141));
#1420=CARTESIAN_POINT('',(-0.0156915026221286,0.0195,-0.0104680138129141));
#1421=CARTESIAN_POINT('',(0.0140415026221297,0.0195,-0.0104680138129141));
#1422=CARTESIAN_POINT('',(0.0123915026221297,0.0195,-0.0104680138129141));
#1423=CARTESIAN_POINT('',(0.0115,0.0245,0.0042));
#1424=CARTESIAN_POINT('',(0.0115,0.0245,0.0022));
#1425=CARTESIAN_POINT('',(0.0115,0.0245,0.0062));
#1426=CARTESIAN_POINT('',(0.0143291599773428,0.0245,-0.00333785212950115));
#1427=CARTESIAN_POINT('',(0.0171583199546857,0.0245,-0.0088757042590023));
#1428=CARTESIAN_POINT('',(0.0140415026221297,0.0245,-0.0104680138129141));
#1429=CARTESIAN_POINT('',(0.016496904261146,0.0245,-0.0129622076287825));
#1430=CARTESIAN_POINT('',(0.0122387269843977,0.037,-0.0134680138129141));
#1431=CARTESIAN_POINT('',(0.0122387269843977,0.037,-0.00746801381291413));
#1432=CARTESIAN_POINT('',(0.0129761529500811,0.0245,-0.0164282007223254));
#1433=CARTESIAN_POINT('',(0.00945540163901628,0.0245,-0.0198941938158684));
#1434=CARTESIAN_POINT('',(0.007,0.0245,-0.0174));
#1435=CARTESIAN_POINT('',(0.007,0.0245,-0.0209));
#1436=CARTESIAN_POINT('',(1.98976181439154E-18,0.0245,-0.0209));
#1437=CARTESIAN_POINT('',(-0.007,0.0245,-0.0209));
#1438=CARTESIAN_POINT('',(-0.007,0.0245,-0.0174));
#1439=CARTESIAN_POINT('',(-0.00945540163901646,0.0245,-0.0198941938158682));
#1440=CARTESIAN_POINT('',(-0.0129761529500808,0.0245,-0.0164282007223253));
#1441=CARTESIAN_POINT('',(-0.0164969042611451,0.0245,-0.0129622076287823));
#1442=CARTESIAN_POINT('',(-0.0140415026221286,0.0245,-0.0104680138129141));
#1443=CARTESIAN_POINT('',(-0.0171583199546847,0.0245,-0.00887570425900253));
#1444=CARTESIAN_POINT('',(-0.0122387269843967,0.037,-0.00746801381291413));
#1445=CARTESIAN_POINT('',(-0.0122387269843967,0.037,-0.0134680138129141));
#1446=CARTESIAN_POINT('',(-0.0143291599773423,0.0245,-0.00333785212950126));
#1447=CARTESIAN_POINT('',(-0.0115,0.0245,0.0022));
#1448=CARTESIAN_POINT('',(-0.0115,0.0245,0.0042));
#1449=CARTESIAN_POINT('',(-0.0115,0.0245,0.0062));
#1450=CARTESIAN_POINT('',(-0.0140415026221286,0.0245,-0.0104680138129141));
#1451=CARTESIAN_POINT('',(0.0140415026221297,0.0245,-0.0104680138129141));
#1452=CARTESIAN_POINT('',(0.0104151590968125,0.0245,0.0062));
#1453=CARTESIAN_POINT('',(0.0075,0.0225,0.0062));
#1454=CARTESIAN_POINT('',(0.00585,0.0225,0.0062));
#1455=CARTESIAN_POINT('',(-0.0075,0.0225,0.0062));
#1456=CARTESIAN_POINT('',(-0.00915,0.0225,0.0062));
#1457=CARTESIAN_POINT('',(-0.0075,0.0225,0.0102));
#1458=CARTESIAN_POINT('',(-0.0075,0.0225,0.0022));
#1459=CARTESIAN_POINT('',(-0.00585,0.0225,0.0022));
#1460=CARTESIAN_POINT('',(0.0075,0.0225,0.0102));
#1461=CARTESIAN_POINT('',(0.0075,0.0225,0.0022));
#1462=CARTESIAN_POINT('',(0.00915,0.0225,0.0022));
#1463=CARTESIAN_POINT('',(0.0100980762113533,0.024,-0.0003));
#1464=CARTESIAN_POINT('',(0.0100980762113533,0.024,0.0022));
#1465=CARTESIAN_POINT('',(0.0109641016151377,0.0225,0.0022));
#1466=CARTESIAN_POINT('',(0.0103094010767585,0.0236339745962155,0.0022));
#1467=CARTESIAN_POINT('',(0.0103094010767585,0.0236339745962155,-0.0003));
#1468=CARTESIAN_POINT('',(0.0103094010767585,0.0236339745962155,-0.0003));
#1469=CARTESIAN_POINT('',(0.0100980762113533,0.024,-0.0003));
#1470=CARTESIAN_POINT('',(0.0109641016151377,0.0225,-0.0003));
#1471=CARTESIAN_POINT('',(0.0109641016151377,0.0225,-0.0003));
#1472=CARTESIAN_POINT('',(0.00490192378864668,0.024,-0.0003));
#1473=CARTESIAN_POINT('',(0.00490192378864668,0.024,-0.0003));
#1474=CARTESIAN_POINT('',(0.0046905989232415,0.0236339745962155,-0.0003));
#1475=CARTESIAN_POINT('',(0.00403589838486224,0.0225,-0.0003));
#1476=CARTESIAN_POINT('',(0.0046905989232415,0.0236339745962155,0.0022));
#1477=CARTESIAN_POINT('',(0.0046905989232415,0.0236339745962155,0.0022));
#1478=CARTESIAN_POINT('',(0.00490192378864668,0.024,0.0022));
#1479=CARTESIAN_POINT('',(0.00403589838486224,0.0225,0.0022));
#1480=CARTESIAN_POINT('',(0.00403589838486224,0.0225,-0.0003));
#1481=CARTESIAN_POINT('',(0.00490192378864668,0.021,-0.0003));
#1482=CARTESIAN_POINT('',(0.00490192378864668,0.021,0.0022));
#1483=CARTESIAN_POINT('',(0.00490192378864668,0.021,-0.0003));
#1484=CARTESIAN_POINT('',(0.0100980762113533,0.021,-0.0003));
#1485=CARTESIAN_POINT('',(0.0100980762113533,0.021,0.0022));
#1486=CARTESIAN_POINT('',(0.0100980762113533,0.021,-0.0003));
#1487=CARTESIAN_POINT('',(0.0075,0.0225,-0.0003));
#1488=CARTESIAN_POINT('',(0.0075,0.0225,-0.0003));
#1489=CARTESIAN_POINT('',(0.00915,0.0225,-0.0003));
#1490=CARTESIAN_POINT('',(0.0046905989232415,0.0236339745962155,-0.0003));
#1491=CARTESIAN_POINT('',(0.0103094010767585,0.0236339745962155,-0.0003));
#1492=CARTESIAN_POINT('',(0.0075,0.0225,0.0022));
#1493=CARTESIAN_POINT('',(0.00911602540378444,0.0215669872981078,0.0022));
#1494=CARTESIAN_POINT('',(0.00588397459621555,0.0215669872981078,0.0022));
#1495=CARTESIAN_POINT('',(0.0075,0.0225,0.0102));
#1496=CARTESIAN_POINT('',(0.0075,0.0225,-0.00746801381291413));
#1497=CARTESIAN_POINT('',(0.00915,0.0225,-0.00746801381291413));
#1498=CARTESIAN_POINT('',(-0.00490192378864669,0.024,-0.0003));
#1499=CARTESIAN_POINT('',(-0.00490192378864669,0.024,0.0022));
#1500=CARTESIAN_POINT('',(-0.00403589838486224,0.0225,0.0022));
#1501=CARTESIAN_POINT('',(-0.0046905989232415,0.0236339745962155,0.0022));
#1502=CARTESIAN_POINT('',(-0.0046905989232415,0.0236339745962155,-0.0003));
#1503=CARTESIAN_POINT('',(-0.0046905989232415,0.0236339745962155,-0.0003));
#1504=CARTESIAN_POINT('',(-0.00490192378864669,0.024,-0.0003));
#1505=CARTESIAN_POINT('',(-0.00403589838486224,0.0225,-0.0003));
#1506=CARTESIAN_POINT('',(-0.00403589838486224,0.0225,-0.0003));
#1507=CARTESIAN_POINT('',(-0.0100980762113533,0.024,-0.0003));
#1508=CARTESIAN_POINT('',(-0.0100980762113533,0.024,-0.0003));
#1509=CARTESIAN_POINT('',(-0.0103094010767585,0.0236339745962155,-0.0003));
#1510=CARTESIAN_POINT('',(-0.0109641016151378,0.0225,-0.0003));
#1511=CARTESIAN_POINT('',(-0.0103094010767585,0.0236339745962155,0.0022));
#1512=CARTESIAN_POINT('',(-0.0103094010767585,0.0236339745962155,0.0022));
#1513=CARTESIAN_POINT('',(-0.0100980762113533,0.024,0.0022));
#1514=CARTESIAN_POINT('',(-0.0109641016151378,0.0225,0.0022));
#1515=CARTESIAN_POINT('',(-0.0109641016151378,0.0225,-0.0003));
#1516=CARTESIAN_POINT('',(-0.0100980762113533,0.021,-0.0003));
#1517=CARTESIAN_POINT('',(-0.0100980762113533,0.021,0.0022));
#1518=CARTESIAN_POINT('',(-0.0100980762113533,0.021,-0.0003));
#1519=CARTESIAN_POINT('',(-0.00490192378864669,0.021,-0.0003));
#1520=CARTESIAN_POINT('',(-0.00490192378864669,0.021,0.0022));
#1521=CARTESIAN_POINT('',(-0.00490192378864669,0.021,-0.0003));
#1522=CARTESIAN_POINT('',(-0.0075,0.0225,-0.0003));
#1523=CARTESIAN_POINT('',(-0.0075,0.0225,-0.0003));
#1524=CARTESIAN_POINT('',(-0.00585,0.0225,-0.0003));
#1525=CARTESIAN_POINT('',(-0.0103094010767585,0.0236339745962155,-0.0003));
#1526=CARTESIAN_POINT('',(-0.0046905989232415,0.0236339745962155,-0.0003));
#1527=CARTESIAN_POINT('',(-0.0075,0.0225,0.0022));
#1528=CARTESIAN_POINT('',(-0.00588397459621556,0.0215669872981077,0.0022));
#1529=CARTESIAN_POINT('',(-0.00911602540378443,0.0215669872981077,0.0022));
#1530=CARTESIAN_POINT('',(-0.0075,0.0225,0.0102));
#1531=CARTESIAN_POINT('',(-0.0075,0.0225,-0.00746801381291413));
#1532=CARTESIAN_POINT('',(-0.00585,0.0225,-0.00746801381291413));
#1533=CARTESIAN_POINT('',(0.01,0.0225,-0.0174));
#1534=CARTESIAN_POINT('',(0.007,0.0225,-0.0174));
#1535=CARTESIAN_POINT('',(0.01,0.0225,-0.0174));
#1536=CARTESIAN_POINT('',(0.007,0.0245,-0.0174));
#1537=CARTESIAN_POINT('',(-0.004,0.0225,-0.0174));
#1538=CARTESIAN_POINT('',(-0.007,0.0225,-0.0174));
#1539=CARTESIAN_POINT('',(-0.004,0.0225,-0.0174));
#1540=CARTESIAN_POINT('',(-0.007,0.0245,-0.0174));
#1541=CARTESIAN_POINT('',(-3.87785537448468E-18,0.037,-0.00746801381291413));
#1542=CARTESIAN_POINT('',(-3.87785537448468E-18,0.037,-0.00746801381291413));
#1543=CARTESIAN_POINT('',(-3.87785537448468E-18,0.037,-0.00746801381291413));
#1544=CARTESIAN_POINT('',(5.3128433696436E-16,0.037,-0.00746801381291413));
#1545=CARTESIAN_POINT('',(-3.87785537448468E-18,0.037,-0.0134680138129141));
#1546=CARTESIAN_POINT('',(5.3128433696436E-16,0.037,-0.0134680138129141));
#1547=CARTESIAN_POINT('',(-0.0046905989232415,0.0236339745962155,-0.0003));
#1548=CARTESIAN_POINT('',(-0.0103094010767585,0.0236339745962155,-0.0003));
#1549=CARTESIAN_POINT('',(0.0103094010767585,0.0236339745962155,-0.0003));
#1550=CARTESIAN_POINT('',(0.0046905989232415,0.0236339745962155,-0.0003));
#1551=CARTESIAN_POINT('',(5.3128433696436E-16,0.037,-0.00746801381291413));
#1552=MECHANICAL_DESIGN_GEOMETRIC_PRESENTATION_REPRESENTATION('',(#937),
#1553);
#1553=(
GEOMETRIC_REPRESENTATION_CONTEXT(3)
GLOBAL_UNCERTAINTY_ASSIGNED_CONTEXT((#1554))
GLOBAL_UNIT_ASSIGNED_CONTEXT((#1557,#1556,#1555))
REPRESENTATION_CONTEXT('Part 29','TOP_LEVEL_ASSEMBLY_PART')
);
#1554=UNCERTAINTY_MEASURE_WITH_UNIT(LENGTH_MEASURE(1.E-8),#1557,
'DISTANCE_ACCURACY_VALUE','Maximum Tolerance applied to model');
#1555=(
NAMED_UNIT(*)
SI_UNIT($,.STERADIAN.)
SOLID_ANGLE_UNIT()
);
#1556=(
NAMED_UNIT(*)
PLANE_ANGLE_UNIT()
SI_UNIT($,.RADIAN.)
);
#1557=(
LENGTH_UNIT()
NAMED_UNIT(*)
SI_UNIT($,.METRE.)
);
#1558=PRODUCT_DEFINITION_SHAPE('','',#1559);
#1559=PRODUCT_DEFINITION('','',#1561,#1560);
#1560=PRODUCT_DEFINITION_CONTEXT('',#1567,'design');
#1561=PRODUCT_DEFINITION_FORMATION_WITH_SPECIFIED_SOURCE('','',#1563,
 .NOT_KNOWN.);
#1562=PRODUCT_RELATED_PRODUCT_CATEGORY('','',(#1563));
#1563=PRODUCT('Part 29','Part 29','Part 29',(#1565));
#1564=PRODUCT_CATEGORY('','');
#1565=PRODUCT_CONTEXT('',#1567,'mechanical');
#1566=APPLICATION_PROTOCOL_DEFINITION('international standard',
'ap242_managed_model_based_3d_engineering',2020,#1567);
#1567=APPLICATION_CONTEXT('managed model based 3d engineering');
ENDSEC;
END-ISO-10303-21;
