ISO-10303-21;
HEADER;
/* Generated by software containing ST-Developer
 * from STEP Tools, Inc. (www.steptools.com) 
 */
/* OPTION: using custom renumber hook */

FILE_DESCRIPTION(
/* description */ ('STEP AP242 Edition 2',
'CAx-IF Rec.Pracs.---Representation and Presentation of Product Manufa
cturing Information (PMI)---4.0---2014-10-13',
'CAx-IF Rec.Pracs.---3D Tessellated Geometry---0.4---2014-09-14','2;1',
'CAx-IF Rec.Pracs.---User Defined Attributes---1.5---2016-08-15'),
/* implementation_level */ '2;1');

FILE_NAME(
/* name */ 'toolhead v4 - Part 22',
/* time_stamp */ '2026-08-19T20:10:41Z',
/* author */ (''),
/* organization */ (''),
/* preprocessor_version */ 'ST-DEVELOPER v20',
/* originating_system */ 'ONSHAPE BY PTC INC, 1.219',
/* authorisation */ '  ');

FILE_SCHEMA (('AP242_MANAGED_MODEL_BASED_3D_ENGINEERING_MIM_LF { 1 0 10303 442 3 1 4 }'));
ENDSEC;

DATA;
#10=SHAPE_REPRESENTATION_RELATIONSHIP('','',#1039,#11);
#11=ADVANCED_BREP_SHAPE_REPRESENTATION('',(#1037),#1685);
#12=B_SPLINE_CURVE_WITH_KNOTS('',3,(#1645,#1646,#1647,#1648),
 .UNSPECIFIED.,.F.,.F.,(4,4),(1.18773002567E-6,0.00176298815145894),
 .UNSPECIFIED.);
#13=B_SPLINE_CURVE_WITH_KNOTS('',3,(#1650,#1651,#1652,#1653),
 .UNSPECIFIED.,.F.,.F.,(4,4),(1.18773002566308E-6,0.00176298815145896),
 .UNSPECIFIED.);
#14=CONICAL_SURFACE('',#1088,0.00265,0.785398163397449);
#15=CONICAL_SURFACE('',#1089,0.00265,0.785398163397449);
#16=CONICAL_SURFACE('',#1097,0.00265,0.785398163397448);
#17=CONICAL_SURFACE('',#1098,0.00265,0.785398163397448);
#18=ELLIPSE('',#1065,0.00428736002617699,0.003);
#19=CYLINDRICAL_SURFACE('',#1047,0.00165);
#20=CYLINDRICAL_SURFACE('',#1050,0.00165);
#21=CYLINDRICAL_SURFACE('',#1052,0.00165);
#22=CYLINDRICAL_SURFACE('',#1055,0.00165);
#23=CYLINDRICAL_SURFACE('',#1112,0.00165);
#24=CYLINDRICAL_SURFACE('',#1113,0.00165);
#25=CYLINDRICAL_SURFACE('',#1116,0.003);
#26=CIRCLE('',#1043,0.00165);
#27=CIRCLE('',#1044,0.00165);
#28=CIRCLE('',#1045,0.00165);
#29=CIRCLE('',#1046,0.00165);
#30=CIRCLE('',#1048,0.00165);
#31=CIRCLE('',#1051,0.00165);
#32=CIRCLE('',#1053,0.00165);
#33=CIRCLE('',#1056,0.00165);
#34=CIRCLE('',#1059,0.00165);
#35=CIRCLE('',#1060,0.00165);
#36=CIRCLE('',#1068,0.00265);
#37=CIRCLE('',#1069,0.00265);
#38=CIRCLE('',#1070,0.00265);
#39=CIRCLE('',#1071,0.00265);
#40=CIRCLE('',#1072,0.00265);
#41=CIRCLE('',#1073,0.00265);
#42=CIRCLE('',#1078,0.00165);
#43=CIRCLE('',#1079,0.00165);
#44=CIRCLE('',#1115,0.003);
#45=ORIENTED_EDGE('',*,*,#329,.F.);
#46=ORIENTED_EDGE('',*,*,#330,.F.);
#47=ORIENTED_EDGE('',*,*,#331,.F.);
#48=ORIENTED_EDGE('',*,*,#332,.T.);
#49=ORIENTED_EDGE('',*,*,#333,.T.);
#50=ORIENTED_EDGE('',*,*,#334,.T.);
#51=ORIENTED_EDGE('',*,*,#335,.F.);
#52=ORIENTED_EDGE('',*,*,#336,.F.);
#53=ORIENTED_EDGE('',*,*,#337,.T.);
#54=ORIENTED_EDGE('',*,*,#338,.F.);
#55=ORIENTED_EDGE('',*,*,#339,.T.);
#56=ORIENTED_EDGE('',*,*,#340,.F.);
#57=ORIENTED_EDGE('',*,*,#341,.F.);
#58=ORIENTED_EDGE('',*,*,#342,.F.);
#59=ORIENTED_EDGE('',*,*,#343,.T.);
#60=ORIENTED_EDGE('',*,*,#344,.F.);
#61=ORIENTED_EDGE('',*,*,#345,.F.);
#62=ORIENTED_EDGE('',*,*,#346,.T.);
#63=ORIENTED_EDGE('',*,*,#347,.T.);
#64=ORIENTED_EDGE('',*,*,#348,.F.);
#65=ORIENTED_EDGE('',*,*,#349,.F.);
#66=ORIENTED_EDGE('',*,*,#350,.T.);
#67=ORIENTED_EDGE('',*,*,#351,.T.);
#68=ORIENTED_EDGE('',*,*,#352,.T.);
#69=ORIENTED_EDGE('',*,*,#353,.F.);
#70=ORIENTED_EDGE('',*,*,#338,.T.);
#71=ORIENTED_EDGE('',*,*,#354,.T.);
#72=ORIENTED_EDGE('',*,*,#355,.T.);
#73=ORIENTED_EDGE('',*,*,#351,.F.);
#74=ORIENTED_EDGE('',*,*,#341,.T.);
#75=ORIENTED_EDGE('',*,*,#356,.T.);
#76=ORIENTED_EDGE('',*,*,#357,.T.);
#77=ORIENTED_EDGE('',*,*,#354,.F.);
#78=ORIENTED_EDGE('',*,*,#340,.T.);
#79=ORIENTED_EDGE('',*,*,#358,.T.);
#80=ORIENTED_EDGE('',*,*,#359,.T.);
#81=ORIENTED_EDGE('',*,*,#360,.F.);
#82=ORIENTED_EDGE('',*,*,#342,.T.);
#83=ORIENTED_EDGE('',*,*,#361,.T.);
#84=ORIENTED_EDGE('',*,*,#362,.T.);
#85=ORIENTED_EDGE('',*,*,#358,.F.);
#86=ORIENTED_EDGE('',*,*,#345,.T.);
#87=ORIENTED_EDGE('',*,*,#363,.T.);
#88=ORIENTED_EDGE('',*,*,#364,.T.);
#89=ORIENTED_EDGE('',*,*,#361,.F.);
#90=ORIENTED_EDGE('',*,*,#344,.T.);
#91=ORIENTED_EDGE('',*,*,#365,.T.);
#92=ORIENTED_EDGE('',*,*,#366,.T.);
#93=ORIENTED_EDGE('',*,*,#367,.T.);
#94=ORIENTED_EDGE('',*,*,#368,.F.);
#95=ORIENTED_EDGE('',*,*,#369,.F.);
#96=ORIENTED_EDGE('',*,*,#370,.T.);
#97=ORIENTED_EDGE('',*,*,#371,.T.);
#98=ORIENTED_EDGE('',*,*,#372,.T.);
#99=ORIENTED_EDGE('',*,*,#373,.T.);
#100=ORIENTED_EDGE('',*,*,#374,.T.);
#101=ORIENTED_EDGE('',*,*,#375,.T.);
#102=ORIENTED_EDGE('',*,*,#376,.T.);
#103=ORIENTED_EDGE('',*,*,#377,.T.);
#104=ORIENTED_EDGE('',*,*,#378,.T.);
#105=ORIENTED_EDGE('',*,*,#379,.T.);
#106=ORIENTED_EDGE('',*,*,#380,.T.);
#107=ORIENTED_EDGE('',*,*,#381,.T.);
#108=ORIENTED_EDGE('',*,*,#382,.T.);
#109=ORIENTED_EDGE('',*,*,#383,.T.);
#110=ORIENTED_EDGE('',*,*,#348,.T.);
#111=ORIENTED_EDGE('',*,*,#384,.T.);
#112=ORIENTED_EDGE('',*,*,#385,.T.);
#113=ORIENTED_EDGE('',*,*,#386,.T.);
#114=ORIENTED_EDGE('',*,*,#346,.F.);
#115=ORIENTED_EDGE('',*,*,#387,.F.);
#116=ORIENTED_EDGE('',*,*,#388,.T.);
#117=ORIENTED_EDGE('',*,*,#389,.T.);
#118=ORIENTED_EDGE('',*,*,#334,.F.);
#119=ORIENTED_EDGE('',*,*,#360,.T.);
#120=ORIENTED_EDGE('',*,*,#390,.T.);
#121=ORIENTED_EDGE('',*,*,#363,.F.);
#122=ORIENTED_EDGE('',*,*,#343,.F.);
#123=ORIENTED_EDGE('',*,*,#391,.F.);
#124=ORIENTED_EDGE('',*,*,#337,.F.);
#125=ORIENTED_EDGE('',*,*,#368,.T.);
#126=ORIENTED_EDGE('',*,*,#392,.T.);
#127=ORIENTED_EDGE('',*,*,#393,.T.);
#128=ORIENTED_EDGE('',*,*,#394,.T.);
#129=ORIENTED_EDGE('',*,*,#332,.F.);
#130=ORIENTED_EDGE('',*,*,#353,.T.);
#131=ORIENTED_EDGE('',*,*,#395,.T.);
#132=ORIENTED_EDGE('',*,*,#356,.F.);
#133=ORIENTED_EDGE('',*,*,#339,.F.);
#134=ORIENTED_EDGE('',*,*,#396,.T.);
#135=ORIENTED_EDGE('',*,*,#397,.T.);
#136=ORIENTED_EDGE('',*,*,#398,.T.);
#137=ORIENTED_EDGE('',*,*,#399,.T.);
#138=ORIENTED_EDGE('',*,*,#400,.T.);
#139=ORIENTED_EDGE('',*,*,#401,.T.);
#140=ORIENTED_EDGE('',*,*,#402,.T.);
#141=ORIENTED_EDGE('',*,*,#403,.T.);
#142=ORIENTED_EDGE('',*,*,#404,.T.);
#143=ORIENTED_EDGE('',*,*,#405,.T.);
#144=ORIENTED_EDGE('',*,*,#406,.T.);
#145=ORIENTED_EDGE('',*,*,#407,.T.);
#146=ORIENTED_EDGE('',*,*,#408,.T.);
#147=ORIENTED_EDGE('',*,*,#409,.T.);
#148=ORIENTED_EDGE('',*,*,#410,.T.);
#149=ORIENTED_EDGE('',*,*,#411,.T.);
#150=ORIENTED_EDGE('',*,*,#412,.T.);
#151=ORIENTED_EDGE('',*,*,#413,.T.);
#152=ORIENTED_EDGE('',*,*,#414,.T.);
#153=ORIENTED_EDGE('',*,*,#415,.T.);
#154=ORIENTED_EDGE('',*,*,#383,.F.);
#155=ORIENTED_EDGE('',*,*,#416,.T.);
#156=ORIENTED_EDGE('',*,*,#417,.F.);
#157=ORIENTED_EDGE('',*,*,#418,.T.);
#158=ORIENTED_EDGE('',*,*,#349,.T.);
#159=ORIENTED_EDGE('',*,*,#419,.T.);
#160=ORIENTED_EDGE('',*,*,#420,.T.);
#161=ORIENTED_EDGE('',*,*,#387,.T.);
#162=ORIENTED_EDGE('',*,*,#350,.F.);
#163=ORIENTED_EDGE('',*,*,#418,.F.);
#164=ORIENTED_EDGE('',*,*,#389,.F.);
#165=ORIENTED_EDGE('',*,*,#421,.T.);
#166=ORIENTED_EDGE('',*,*,#422,.F.);
#167=ORIENTED_EDGE('',*,*,#423,.T.);
#168=ORIENTED_EDGE('',*,*,#335,.T.);
#169=ORIENTED_EDGE('',*,*,#424,.T.);
#170=ORIENTED_EDGE('',*,*,#425,.T.);
#171=ORIENTED_EDGE('',*,*,#426,.F.);
#172=ORIENTED_EDGE('',*,*,#427,.T.);
#173=ORIENTED_EDGE('',*,*,#369,.T.);
#174=ORIENTED_EDGE('',*,*,#336,.T.);
#175=ORIENTED_EDGE('',*,*,#423,.F.);
#176=ORIENTED_EDGE('',*,*,#428,.T.);
#177=ORIENTED_EDGE('',*,*,#429,.T.);
#178=ORIENTED_EDGE('',*,*,#430,.T.);
#179=ORIENTED_EDGE('',*,*,#426,.T.);
#180=ORIENTED_EDGE('',*,*,#422,.T.);
#181=ORIENTED_EDGE('',*,*,#431,.T.);
#182=ORIENTED_EDGE('',*,*,#419,.F.);
#183=ORIENTED_EDGE('',*,*,#417,.T.);
#184=ORIENTED_EDGE('',*,*,#432,.T.);
#185=ORIENTED_EDGE('',*,*,#433,.T.);
#186=ORIENTED_EDGE('',*,*,#428,.F.);
#187=ORIENTED_EDGE('',*,*,#416,.F.);
#188=ORIENTED_EDGE('',*,*,#382,.F.);
#189=ORIENTED_EDGE('',*,*,#421,.F.);
#190=ORIENTED_EDGE('',*,*,#388,.F.);
#191=ORIENTED_EDGE('',*,*,#420,.F.);
#192=ORIENTED_EDGE('',*,*,#431,.F.);
#193=ORIENTED_EDGE('',*,*,#434,.T.);
#194=ORIENTED_EDGE('',*,*,#435,.T.);
#195=ORIENTED_EDGE('',*,*,#432,.F.);
#196=ORIENTED_EDGE('',*,*,#381,.F.);
#197=ORIENTED_EDGE('',*,*,#436,.T.);
#198=ORIENTED_EDGE('',*,*,#430,.F.);
#199=ORIENTED_EDGE('',*,*,#437,.T.);
#200=ORIENTED_EDGE('',*,*,#365,.F.);
#201=ORIENTED_EDGE('',*,*,#427,.F.);
#202=ORIENTED_EDGE('',*,*,#367,.F.);
#203=ORIENTED_EDGE('',*,*,#438,.T.);
#204=ORIENTED_EDGE('',*,*,#439,.T.);
#205=ORIENTED_EDGE('',*,*,#440,.T.);
#206=ORIENTED_EDGE('',*,*,#392,.F.);
#207=ORIENTED_EDGE('',*,*,#394,.F.);
#208=ORIENTED_EDGE('',*,*,#441,.T.);
#209=ORIENTED_EDGE('',*,*,#384,.F.);
#210=ORIENTED_EDGE('',*,*,#333,.F.);
#211=ORIENTED_EDGE('',*,*,#386,.F.);
#212=ORIENTED_EDGE('',*,*,#442,.T.);
#213=ORIENTED_EDGE('',*,*,#379,.F.);
#214=ORIENTED_EDGE('',*,*,#347,.F.);
#215=ORIENTED_EDGE('',*,*,#443,.F.);
#216=ORIENTED_EDGE('',*,*,#404,.F.);
#217=ORIENTED_EDGE('',*,*,#444,.F.);
#218=ORIENTED_EDGE('',*,*,#357,.F.);
#219=ORIENTED_EDGE('',*,*,#445,.F.);
#220=ORIENTED_EDGE('',*,*,#410,.F.);
#221=ORIENTED_EDGE('',*,*,#446,.F.);
#222=ORIENTED_EDGE('',*,*,#364,.F.);
#223=ORIENTED_EDGE('',*,*,#444,.T.);
#224=ORIENTED_EDGE('',*,*,#403,.F.);
#225=ORIENTED_EDGE('',*,*,#447,.F.);
#226=ORIENTED_EDGE('',*,*,#355,.F.);
#227=ORIENTED_EDGE('',*,*,#443,.T.);
#228=ORIENTED_EDGE('',*,*,#395,.F.);
#229=ORIENTED_EDGE('',*,*,#448,.F.);
#230=ORIENTED_EDGE('',*,*,#405,.F.);
#231=ORIENTED_EDGE('',*,*,#446,.T.);
#232=ORIENTED_EDGE('',*,*,#409,.F.);
#233=ORIENTED_EDGE('',*,*,#449,.F.);
#234=ORIENTED_EDGE('',*,*,#362,.F.);
#235=ORIENTED_EDGE('',*,*,#445,.T.);
#236=ORIENTED_EDGE('',*,*,#390,.F.);
#237=ORIENTED_EDGE('',*,*,#450,.F.);
#238=ORIENTED_EDGE('',*,*,#411,.F.);
#239=ORIENTED_EDGE('',*,*,#451,.F.);
#240=ORIENTED_EDGE('',*,*,#385,.F.);
#241=ORIENTED_EDGE('',*,*,#452,.F.);
#242=ORIENTED_EDGE('',*,*,#415,.F.);
#243=ORIENTED_EDGE('',*,*,#453,.F.);
#244=ORIENTED_EDGE('',*,*,#437,.F.);
#245=ORIENTED_EDGE('',*,*,#454,.F.);
#246=ORIENTED_EDGE('',*,*,#376,.F.);
#247=ORIENTED_EDGE('',*,*,#452,.T.);
#248=ORIENTED_EDGE('',*,*,#441,.F.);
#249=ORIENTED_EDGE('',*,*,#455,.F.);
#250=ORIENTED_EDGE('',*,*,#396,.F.);
#251=ORIENTED_EDGE('',*,*,#447,.T.);
#252=ORIENTED_EDGE('',*,*,#402,.F.);
#253=ORIENTED_EDGE('',*,*,#456,.F.);
#254=ORIENTED_EDGE('',*,*,#406,.F.);
#255=ORIENTED_EDGE('',*,*,#448,.T.);
#256=ORIENTED_EDGE('',*,*,#352,.F.);
#257=ORIENTED_EDGE('',*,*,#449,.T.);
#258=ORIENTED_EDGE('',*,*,#408,.F.);
#259=ORIENTED_EDGE('',*,*,#457,.F.);
#260=ORIENTED_EDGE('',*,*,#412,.F.);
#261=ORIENTED_EDGE('',*,*,#450,.T.);
#262=ORIENTED_EDGE('',*,*,#359,.F.);
#263=ORIENTED_EDGE('',*,*,#451,.T.);
#264=ORIENTED_EDGE('',*,*,#414,.F.);
#265=ORIENTED_EDGE('',*,*,#458,.F.);
#266=ORIENTED_EDGE('',*,*,#442,.F.);
#267=ORIENTED_EDGE('',*,*,#454,.T.);
#268=ORIENTED_EDGE('',*,*,#429,.F.);
#269=ORIENTED_EDGE('',*,*,#459,.F.);
#270=ORIENTED_EDGE('',*,*,#377,.F.);
#271=ORIENTED_EDGE('',*,*,#453,.T.);
#272=ORIENTED_EDGE('',*,*,#375,.F.);
#273=ORIENTED_EDGE('',*,*,#460,.F.);
#274=ORIENTED_EDGE('',*,*,#366,.F.);
#275=ORIENTED_EDGE('',*,*,#393,.F.);
#276=ORIENTED_EDGE('',*,*,#440,.F.);
#277=ORIENTED_EDGE('',*,*,#461,.F.);
#278=ORIENTED_EDGE('',*,*,#397,.F.);
#279=ORIENTED_EDGE('',*,*,#455,.T.);
#280=ORIENTED_EDGE('',*,*,#456,.T.);
#281=ORIENTED_EDGE('',*,*,#401,.F.);
#282=ORIENTED_EDGE('',*,*,#462,.F.);
#283=ORIENTED_EDGE('',*,*,#380,.F.);
#284=ORIENTED_EDGE('',*,*,#458,.T.);
#285=ORIENTED_EDGE('',*,*,#413,.F.);
#286=ORIENTED_EDGE('',*,*,#457,.T.);
#287=ORIENTED_EDGE('',*,*,#407,.F.);
#288=ORIENTED_EDGE('',*,*,#433,.F.);
#289=ORIENTED_EDGE('',*,*,#435,.F.);
#290=ORIENTED_EDGE('',*,*,#463,.F.);
#291=ORIENTED_EDGE('',*,*,#378,.F.);
#292=ORIENTED_EDGE('',*,*,#459,.T.);
#293=ORIENTED_EDGE('',*,*,#460,.T.);
#294=ORIENTED_EDGE('',*,*,#374,.F.);
#295=ORIENTED_EDGE('',*,*,#464,.F.);
#296=ORIENTED_EDGE('',*,*,#438,.F.);
#297=ORIENTED_EDGE('',*,*,#461,.T.);
#298=ORIENTED_EDGE('',*,*,#439,.F.);
#299=ORIENTED_EDGE('',*,*,#465,.F.);
#300=ORIENTED_EDGE('',*,*,#398,.F.);
#301=ORIENTED_EDGE('',*,*,#462,.T.);
#302=ORIENTED_EDGE('',*,*,#400,.F.);
#303=ORIENTED_EDGE('',*,*,#466,.F.);
#304=ORIENTED_EDGE('',*,*,#436,.F.);
#305=ORIENTED_EDGE('',*,*,#463,.T.);
#306=ORIENTED_EDGE('',*,*,#434,.F.);
#307=ORIENTED_EDGE('',*,*,#467,.F.);
#308=ORIENTED_EDGE('',*,*,#372,.F.);
#309=ORIENTED_EDGE('',*,*,#465,.T.);
#310=ORIENTED_EDGE('',*,*,#464,.T.);
#311=ORIENTED_EDGE('',*,*,#468,.F.);
#312=ORIENTED_EDGE('',*,*,#467,.T.);
#313=ORIENTED_EDGE('',*,*,#466,.T.);
#314=ORIENTED_EDGE('',*,*,#469,.F.);
#315=ORIENTED_EDGE('',*,*,#468,.T.);
#316=ORIENTED_EDGE('',*,*,#373,.F.);
#317=ORIENTED_EDGE('',*,*,#469,.T.);
#318=ORIENTED_EDGE('',*,*,#399,.F.);
#319=ORIENTED_EDGE('',*,*,#371,.F.);
#320=ORIENTED_EDGE('',*,*,#425,.F.);
#321=ORIENTED_EDGE('',*,*,#370,.F.);
#322=ORIENTED_EDGE('',*,*,#424,.F.);
#323=ORIENTED_EDGE('',*,*,#330,.T.);
#324=ORIENTED_EDGE('',*,*,#470,.F.);
#325=ORIENTED_EDGE('',*,*,#329,.T.);
#326=ORIENTED_EDGE('',*,*,#391,.T.);
#327=ORIENTED_EDGE('',*,*,#331,.T.);
#328=ORIENTED_EDGE('',*,*,#470,.T.);
#329=EDGE_CURVE('',#471,#472,#559,.F.);
#330=EDGE_CURVE('',#473,#471,#560,.T.);
#331=EDGE_CURVE('',#474,#473,#561,.T.);
#332=EDGE_CURVE('',#474,#475,#562,.T.);
#333=EDGE_CURVE('',#475,#476,#563,.F.);
#334=EDGE_CURVE('',#476,#477,#564,.T.);
#335=EDGE_CURVE('',#478,#477,#565,.T.);
#336=EDGE_CURVE('',#479,#478,#566,.T.);
#337=EDGE_CURVE('',#479,#472,#567,.T.);
#338=EDGE_CURVE('',#480,#481,#26,.T.);
#339=EDGE_CURVE('',#480,#482,#568,.T.);
#340=EDGE_CURVE('',#483,#482,#27,.T.);
#341=EDGE_CURVE('',#481,#483,#569,.T.);
#342=EDGE_CURVE('',#484,#485,#28,.T.);
#343=EDGE_CURVE('',#484,#486,#570,.T.);
#344=EDGE_CURVE('',#487,#486,#29,.T.);
#345=EDGE_CURVE('',#485,#487,#571,.T.);
#346=EDGE_CURVE('',#488,#489,#572,.T.);
#347=EDGE_CURVE('',#489,#490,#573,.T.);
#348=EDGE_CURVE('',#491,#490,#574,.T.);
#349=EDGE_CURVE('',#492,#491,#575,.T.);
#350=EDGE_CURVE('',#492,#488,#576,.T.);
#351=EDGE_CURVE('',#481,#493,#577,.T.);
#352=EDGE_CURVE('',#493,#494,#30,.T.);
#353=EDGE_CURVE('',#480,#494,#578,.T.);
#354=EDGE_CURVE('',#483,#495,#579,.T.);
#355=EDGE_CURVE('',#495,#493,#580,.T.);
#356=EDGE_CURVE('',#482,#496,#581,.T.);
#357=EDGE_CURVE('',#496,#495,#31,.T.);
#358=EDGE_CURVE('',#485,#497,#582,.T.);
#359=EDGE_CURVE('',#497,#498,#32,.T.);
#360=EDGE_CURVE('',#484,#498,#583,.T.);
#361=EDGE_CURVE('',#487,#499,#584,.T.);
#362=EDGE_CURVE('',#499,#497,#585,.T.);
#363=EDGE_CURVE('',#486,#500,#586,.T.);
#364=EDGE_CURVE('',#500,#499,#33,.T.);
#365=EDGE_CURVE('',#501,#502,#587,.T.);
#366=EDGE_CURVE('',#502,#503,#588,.T.);
#367=EDGE_CURVE('',#503,#504,#589,.T.);
#368=EDGE_CURVE('',#479,#504,#590,.T.);
#369=EDGE_CURVE('',#501,#479,#591,.T.);
#370=EDGE_CURVE('',#505,#505,#34,.F.);
#371=EDGE_CURVE('',#506,#506,#35,.F.);
#372=EDGE_CURVE('',#507,#508,#592,.T.);
#373=EDGE_CURVE('',#508,#509,#593,.T.);
#374=EDGE_CURVE('',#509,#510,#594,.T.);
#375=EDGE_CURVE('',#510,#511,#595,.T.);
#376=EDGE_CURVE('',#511,#512,#596,.T.);
#377=EDGE_CURVE('',#512,#513,#597,.T.);
#378=EDGE_CURVE('',#513,#507,#598,.T.);
#379=EDGE_CURVE('',#490,#514,#599,.T.);
#380=EDGE_CURVE('',#514,#515,#600,.T.);
#381=EDGE_CURVE('',#515,#516,#601,.T.);
#382=EDGE_CURVE('',#516,#517,#602,.T.);
#383=EDGE_CURVE('',#517,#491,#603,.T.);
#384=EDGE_CURVE('',#476,#518,#604,.T.);
#385=EDGE_CURVE('',#518,#519,#605,.T.);
#386=EDGE_CURVE('',#519,#489,#606,.T.);
#387=EDGE_CURVE('',#520,#488,#607,.T.);
#388=EDGE_CURVE('',#520,#521,#608,.T.);
#389=EDGE_CURVE('',#521,#477,#609,.T.);
#390=EDGE_CURVE('',#498,#500,#610,.T.);
#391=EDGE_CURVE('',#472,#474,#18,.F.);
#392=EDGE_CURVE('',#504,#522,#611,.T.);
#393=EDGE_CURVE('',#522,#523,#612,.T.);
#394=EDGE_CURVE('',#523,#475,#613,.T.);
#395=EDGE_CURVE('',#494,#496,#614,.T.);
#396=EDGE_CURVE('',#524,#525,#615,.T.);
#397=EDGE_CURVE('',#525,#526,#616,.T.);
#398=EDGE_CURVE('',#526,#527,#617,.T.);
#399=EDGE_CURVE('',#527,#528,#618,.T.);
#400=EDGE_CURVE('',#528,#529,#619,.T.);
#401=EDGE_CURVE('',#529,#530,#620,.T.);
#402=EDGE_CURVE('',#530,#531,#36,.F.);
#403=EDGE_CURVE('',#531,#532,#621,.T.);
#404=EDGE_CURVE('',#532,#533,#37,.F.);
#405=EDGE_CURVE('',#533,#534,#622,.T.);
#406=EDGE_CURVE('',#534,#535,#38,.F.);
#407=EDGE_CURVE('',#535,#536,#623,.T.);
#408=EDGE_CURVE('',#536,#537,#39,.F.);
#409=EDGE_CURVE('',#537,#538,#624,.T.);
#410=EDGE_CURVE('',#538,#539,#40,.F.);
#411=EDGE_CURVE('',#539,#540,#625,.T.);
#412=EDGE_CURVE('',#540,#541,#41,.F.);
#413=EDGE_CURVE('',#541,#542,#626,.T.);
#414=EDGE_CURVE('',#542,#543,#627,.T.);
#415=EDGE_CURVE('',#543,#524,#628,.T.);
#416=EDGE_CURVE('',#517,#544,#629,.T.);
#417=EDGE_CURVE('',#545,#544,#630,.T.);
#418=EDGE_CURVE('',#545,#492,#631,.T.);
#419=EDGE_CURVE('',#545,#546,#632,.T.);
#420=EDGE_CURVE('',#546,#520,#633,.F.);
#421=EDGE_CURVE('',#521,#547,#634,.F.);
#422=EDGE_CURVE('',#548,#547,#635,.T.);
#423=EDGE_CURVE('',#548,#478,#636,.T.);
#424=EDGE_CURVE('',#549,#549,#42,.T.);
#425=EDGE_CURVE('',#550,#550,#43,.T.);
#426=EDGE_CURVE('',#551,#548,#637,.T.);
#427=EDGE_CURVE('',#551,#501,#638,.F.);
#428=EDGE_CURVE('',#544,#552,#639,.T.);
#429=EDGE_CURVE('',#552,#553,#640,.T.);
#430=EDGE_CURVE('',#553,#551,#641,.T.);
#431=EDGE_CURVE('',#547,#546,#642,.T.);
#432=EDGE_CURVE('',#516,#554,#643,.F.);
#433=EDGE_CURVE('',#554,#552,#644,.T.);
#434=EDGE_CURVE('',#555,#556,#645,.F.);
#435=EDGE_CURVE('',#556,#554,#646,.T.);
#436=EDGE_CURVE('',#515,#555,#647,.F.);
#437=EDGE_CURVE('',#553,#502,#648,.F.);
#438=EDGE_CURVE('',#503,#557,#649,.T.);
#439=EDGE_CURVE('',#557,#558,#650,.T.);
#440=EDGE_CURVE('',#558,#522,#651,.T.);
#441=EDGE_CURVE('',#523,#518,#652,.F.);
#442=EDGE_CURVE('',#519,#514,#653,.T.);
#443=EDGE_CURVE('',#533,#496,#654,.T.);
#444=EDGE_CURVE('',#495,#532,#655,.T.);
#445=EDGE_CURVE('',#539,#500,#656,.T.);
#446=EDGE_CURVE('',#499,#538,#657,.T.);
#447=EDGE_CURVE('',#493,#531,#658,.T.);
#448=EDGE_CURVE('',#534,#494,#659,.T.);
#449=EDGE_CURVE('',#497,#537,#660,.T.);
#450=EDGE_CURVE('',#540,#498,#661,.T.);
#451=EDGE_CURVE('',#519,#543,#662,.F.);
#452=EDGE_CURVE('',#524,#518,#663,.F.);
#453=EDGE_CURVE('',#502,#511,#664,.T.);
#454=EDGE_CURVE('',#512,#553,#665,.F.);
#455=EDGE_CURVE('',#525,#523,#666,.F.);
#456=EDGE_CURVE('',#535,#530,#12,.T.);
#457=EDGE_CURVE('',#541,#536,#13,.T.);
#458=EDGE_CURVE('',#514,#542,#667,.T.);
#459=EDGE_CURVE('',#513,#552,#668,.T.);
#460=EDGE_CURVE('',#503,#510,#669,.F.);
#461=EDGE_CURVE('',#526,#558,#670,.T.);
#462=EDGE_CURVE('',#515,#529,#671,.F.);
#463=EDGE_CURVE('',#507,#556,#672,.T.);
#464=EDGE_CURVE('',#557,#509,#673,.F.);
#465=EDGE_CURVE('',#527,#557,#674,.F.);
#466=EDGE_CURVE('',#555,#528,#675,.T.);
#467=EDGE_CURVE('',#508,#555,#676,.T.);
#468=EDGE_CURVE('',#527,#509,#677,.T.);
#469=EDGE_CURVE('',#508,#528,#678,.T.);
#470=EDGE_CURVE('',#473,#471,#44,.T.);
#471=VERTEX_POINT('',#1394);
#472=VERTEX_POINT('',#1395);
#473=VERTEX_POINT('',#1397);
#474=VERTEX_POINT('',#1399);
#475=VERTEX_POINT('',#1401);
#476=VERTEX_POINT('',#1403);
#477=VERTEX_POINT('',#1405);
#478=VERTEX_POINT('',#1407);
#479=VERTEX_POINT('',#1409);
#480=VERTEX_POINT('',#1413);
#481=VERTEX_POINT('',#1414);
#482=VERTEX_POINT('',#1416);
#483=VERTEX_POINT('',#1418);
#484=VERTEX_POINT('',#1421);
#485=VERTEX_POINT('',#1422);
#486=VERTEX_POINT('',#1424);
#487=VERTEX_POINT('',#1426);
#488=VERTEX_POINT('',#1429);
#489=VERTEX_POINT('',#1430);
#490=VERTEX_POINT('',#1432);
#491=VERTEX_POINT('',#1434);
#492=VERTEX_POINT('',#1436);
#493=VERTEX_POINT('',#1440);
#494=VERTEX_POINT('',#1442);
#495=VERTEX_POINT('',#1446);
#496=VERTEX_POINT('',#1450);
#497=VERTEX_POINT('',#1454);
#498=VERTEX_POINT('',#1456);
#499=VERTEX_POINT('',#1460);
#500=VERTEX_POINT('',#1464);
#501=VERTEX_POINT('',#1468);
#502=VERTEX_POINT('',#1469);
#503=VERTEX_POINT('',#1471);
#504=VERTEX_POINT('',#1473);
#505=VERTEX_POINT('',#1478);
#506=VERTEX_POINT('',#1480);
#507=VERTEX_POINT('',#1482);
#508=VERTEX_POINT('',#1483);
#509=VERTEX_POINT('',#1485);
#510=VERTEX_POINT('',#1487);
#511=VERTEX_POINT('',#1489);
#512=VERTEX_POINT('',#1491);
#513=VERTEX_POINT('',#1493);
#514=VERTEX_POINT('',#1497);
#515=VERTEX_POINT('',#1499);
#516=VERTEX_POINT('',#1501);
#517=VERTEX_POINT('',#1503);
#518=VERTEX_POINT('',#1507);
#519=VERTEX_POINT('',#1509);
#520=VERTEX_POINT('',#1512);
#521=VERTEX_POINT('',#1514);
#522=VERTEX_POINT('',#1521);
#523=VERTEX_POINT('',#1523);
#524=VERTEX_POINT('',#1529);
#525=VERTEX_POINT('',#1530);
#526=VERTEX_POINT('',#1532);
#527=VERTEX_POINT('',#1534);
#528=VERTEX_POINT('',#1536);
#529=VERTEX_POINT('',#1538);
#530=VERTEX_POINT('',#1540);
#531=VERTEX_POINT('',#1542);
#532=VERTEX_POINT('',#1544);
#533=VERTEX_POINT('',#1546);
#534=VERTEX_POINT('',#1548);
#535=VERTEX_POINT('',#1550);
#536=VERTEX_POINT('',#1552);
#537=VERTEX_POINT('',#1554);
#538=VERTEX_POINT('',#1556);
#539=VERTEX_POINT('',#1558);
#540=VERTEX_POINT('',#1560);
#541=VERTEX_POINT('',#1562);
#542=VERTEX_POINT('',#1564);
#543=VERTEX_POINT('',#1566);
#544=VERTEX_POINT('',#1570);
#545=VERTEX_POINT('',#1572);
#546=VERTEX_POINT('',#1576);
#547=VERTEX_POINT('',#1580);
#548=VERTEX_POINT('',#1582);
#549=VERTEX_POINT('',#1586);
#550=VERTEX_POINT('',#1588);
#551=VERTEX_POINT('',#1590);
#552=VERTEX_POINT('',#1594);
#553=VERTEX_POINT('',#1596);
#554=VERTEX_POINT('',#1601);
#555=VERTEX_POINT('',#1606);
#556=VERTEX_POINT('',#1607);
#557=VERTEX_POINT('',#1614);
#558=VERTEX_POINT('',#1616);
#559=LINE('',#1393,#679);
#560=LINE('',#1396,#680);
#561=LINE('',#1398,#681);
#562=LINE('',#1400,#682);
#563=LINE('',#1402,#683);
#564=LINE('',#1404,#684);
#565=LINE('',#1406,#685);
#566=LINE('',#1408,#686);
#567=LINE('',#1410,#687);
#568=LINE('',#1415,#688);
#569=LINE('',#1419,#689);
#570=LINE('',#1423,#690);
#571=LINE('',#1427,#691);
#572=LINE('',#1428,#692);
#573=LINE('',#1431,#693);
#574=LINE('',#1433,#694);
#575=LINE('',#1435,#695);
#576=LINE('',#1437,#696);
#577=LINE('',#1439,#697);
#578=LINE('',#1443,#698);
#579=LINE('',#1445,#699);
#580=LINE('',#1447,#700);
#581=LINE('',#1449,#701);
#582=LINE('',#1453,#702);
#583=LINE('',#1457,#703);
#584=LINE('',#1459,#704);
#585=LINE('',#1461,#705);
#586=LINE('',#1463,#706);
#587=LINE('',#1467,#707);
#588=LINE('',#1470,#708);
#589=LINE('',#1472,#709);
#590=LINE('',#1474,#710);
#591=LINE('',#1475,#711);
#592=LINE('',#1481,#712);
#593=LINE('',#1484,#713);
#594=LINE('',#1486,#714);
#595=LINE('',#1488,#715);
#596=LINE('',#1490,#716);
#597=LINE('',#1492,#717);
#598=LINE('',#1494,#718);
#599=LINE('',#1496,#719);
#600=LINE('',#1498,#720);
#601=LINE('',#1500,#721);
#602=LINE('',#1502,#722);
#603=LINE('',#1504,#723);
#604=LINE('',#1506,#724);
#605=LINE('',#1508,#725);
#606=LINE('',#1510,#726);
#607=LINE('',#1511,#727);
#608=LINE('',#1513,#728);
#609=LINE('',#1515,#729);
#610=LINE('',#1517,#730);
#611=LINE('',#1520,#731);
#612=LINE('',#1522,#732);
#613=LINE('',#1524,#733);
#614=LINE('',#1526,#734);
#615=LINE('',#1528,#735);
#616=LINE('',#1531,#736);
#617=LINE('',#1533,#737);
#618=LINE('',#1535,#738);
#619=LINE('',#1537,#739);
#620=LINE('',#1539,#740);
#621=LINE('',#1543,#741);
#622=LINE('',#1547,#742);
#623=LINE('',#1551,#743);
#624=LINE('',#1555,#744);
#625=LINE('',#1559,#745);
#626=LINE('',#1563,#746);
#627=LINE('',#1565,#747);
#628=LINE('',#1567,#748);
#629=LINE('',#1569,#749);
#630=LINE('',#1571,#750);
#631=LINE('',#1573,#751);
#632=LINE('',#1575,#752);
#633=LINE('',#1577,#753);
#634=LINE('',#1579,#754);
#635=LINE('',#1581,#755);
#636=LINE('',#1583,#756);
#637=LINE('',#1589,#757);
#638=LINE('',#1591,#758);
#639=LINE('',#1593,#759);
#640=LINE('',#1595,#760);
#641=LINE('',#1597,#761);
#642=LINE('',#1598,#762);
#643=LINE('',#1600,#763);
#644=LINE('',#1602,#764);
#645=LINE('',#1605,#765);
#646=LINE('',#1608,#766);
#647=LINE('',#1609,#767);
#648=LINE('',#1611,#768);
#649=LINE('',#1613,#769);
#650=LINE('',#1615,#770);
#651=LINE('',#1617,#771);
#652=LINE('',#1619,#772);
#653=LINE('',#1621,#773);
#654=LINE('',#1623,#774);
#655=LINE('',#1624,#775);
#656=LINE('',#1626,#776);
#657=LINE('',#1627,#777);
#658=LINE('',#1629,#778);
#659=LINE('',#1631,#779);
#660=LINE('',#1633,#780);
#661=LINE('',#1635,#781);
#662=LINE('',#1637,#782);
#663=LINE('',#1638,#783);
#664=LINE('',#1640,#784);
#665=LINE('',#1641,#785);
#666=LINE('',#1643,#786);
#667=LINE('',#1655,#787);
#668=LINE('',#1657,#788);
#669=LINE('',#1659,#789);
#670=LINE('',#1661,#790);
#671=LINE('',#1663,#791);
#672=LINE('',#1665,#792);
#673=LINE('',#1667,#793);
#674=LINE('',#1669,#794);
#675=LINE('',#1671,#795);
#676=LINE('',#1673,#796);
#677=LINE('',#1675,#797);
#678=LINE('',#1677,#798);
#679=VECTOR('',#1121,1.);
#680=VECTOR('',#1122,1.);
#681=VECTOR('',#1123,1.);
#682=VECTOR('',#1124,1.);
#683=VECTOR('',#1125,1.);
#684=VECTOR('',#1126,1.);
#685=VECTOR('',#1127,1.);
#686=VECTOR('',#1128,1.);
#687=VECTOR('',#1129,1.);
#688=VECTOR('',#1134,1.);
#689=VECTOR('',#1137,1.);
#690=VECTOR('',#1140,1.);
#691=VECTOR('',#1143,1.);
#692=VECTOR('',#1144,1.);
#693=VECTOR('',#1145,1.);
#694=VECTOR('',#1146,1.);
#695=VECTOR('',#1147,1.);
#696=VECTOR('',#1148,1.);
#697=VECTOR('',#1151,1.);
#698=VECTOR('',#1154,1.);
#699=VECTOR('',#1157,1.);
#700=VECTOR('',#1158,1.);
#701=VECTOR('',#1161,1.);
#702=VECTOR('',#1166,1.);
#703=VECTOR('',#1169,1.);
#704=VECTOR('',#1172,1.);
#705=VECTOR('',#1173,1.);
#706=VECTOR('',#1176,1.);
#707=VECTOR('',#1181,1.);
#708=VECTOR('',#1182,1.);
#709=VECTOR('',#1183,1.);
#710=VECTOR('',#1184,1.);
#711=VECTOR('',#1185,1.);
#712=VECTOR('',#1192,1.);
#713=VECTOR('',#1193,1.);
#714=VECTOR('',#1194,1.);
#715=VECTOR('',#1195,1.);
#716=VECTOR('',#1196,1.);
#717=VECTOR('',#1197,1.);
#718=VECTOR('',#1198,1.);
#719=VECTOR('',#1201,1.);
#720=VECTOR('',#1202,1.);
#721=VECTOR('',#1203,1.);
#722=VECTOR('',#1204,1.);
#723=VECTOR('',#1205,1.);
#724=VECTOR('',#1208,1.);
#725=VECTOR('',#1209,1.);
#726=VECTOR('',#1210,1.);
#727=VECTOR('',#1211,1.);
#728=VECTOR('',#1212,1.);
#729=VECTOR('',#1213,1.);
#730=VECTOR('',#1216,1.);
#731=VECTOR('',#1221,1.);
#732=VECTOR('',#1222,1.);
#733=VECTOR('',#1223,1.);
#734=VECTOR('',#1226,1.);
#735=VECTOR('',#1229,1.);
#736=VECTOR('',#1230,1.);
#737=VECTOR('',#1231,1.);
#738=VECTOR('',#1232,1.);
#739=VECTOR('',#1233,1.);
#740=VECTOR('',#1234,1.);
#741=VECTOR('',#1237,1.);
#742=VECTOR('',#1240,1.);
#743=VECTOR('',#1243,1.);
#744=VECTOR('',#1246,1.);
#745=VECTOR('',#1249,1.);
#746=VECTOR('',#1252,1.);
#747=VECTOR('',#1253,1.);
#748=VECTOR('',#1254,1.);
#749=VECTOR('',#1257,1.);
#750=VECTOR('',#1258,1.);
#751=VECTOR('',#1259,1.);
#752=VECTOR('',#1262,1.);
#753=VECTOR('',#1263,1.);
#754=VECTOR('',#1266,1.);
#755=VECTOR('',#1267,1.);
#756=VECTOR('',#1268,1.);
#757=VECTOR('',#1275,1.);
#758=VECTOR('',#1276,1.);
#759=VECTOR('',#1279,1.);
#760=VECTOR('',#1280,1.);
#761=VECTOR('',#1281,1.);
#762=VECTOR('',#1282,1.);
#763=VECTOR('',#1285,1.);
#764=VECTOR('',#1286,1.);
#765=VECTOR('',#1291,1.);
#766=VECTOR('',#1292,1.);
#767=VECTOR('',#1293,1.);
#768=VECTOR('',#1296,1.);
#769=VECTOR('',#1299,1.);
#770=VECTOR('',#1300,1.);
#771=VECTOR('',#1301,1.);
#772=VECTOR('',#1304,1.);
#773=VECTOR('',#1307,1.);
#774=VECTOR('',#1310,1.);
#775=VECTOR('',#1311,1.);
#776=VECTOR('',#1314,1.);
#777=VECTOR('',#1315,1.);
#778=VECTOR('',#1318,1.);
#779=VECTOR('',#1321,1.);
#780=VECTOR('',#1324,1.);
#781=VECTOR('',#1327,1.);
#782=VECTOR('',#1330,1.);
#783=VECTOR('',#1331,1.);
#784=VECTOR('',#1334,1.);
#785=VECTOR('',#1335,1.);
#786=VECTOR('',#1338,1.);
#787=VECTOR('',#1345,1.);
#788=VECTOR('',#1348,1.);
#789=VECTOR('',#1351,1.);
#790=VECTOR('',#1354,1.);
#791=VECTOR('',#1357,1.);
#792=VECTOR('',#1360,1.);
#793=VECTOR('',#1363,1.);
#794=VECTOR('',#1366,1.);
#795=VECTOR('',#1369,1.);
#796=VECTOR('',#1372,1.);
#797=VECTOR('',#1375,1.);
#798=VECTOR('',#1378,1.);
#799=EDGE_LOOP('',(#45,#46,#47,#48,#49,#50,#51,#52,#53));
#800=EDGE_LOOP('',(#54,#55,#56,#57));
#801=EDGE_LOOP('',(#58,#59,#60,#61));
#802=EDGE_LOOP('',(#62,#63,#64,#65,#66));
#803=EDGE_LOOP('',(#67,#68,#69,#70));
#804=EDGE_LOOP('',(#71,#72,#73,#74));
#805=EDGE_LOOP('',(#75,#76,#77,#78));
#806=EDGE_LOOP('',(#79,#80,#81,#82));
#807=EDGE_LOOP('',(#83,#84,#85,#86));
#808=EDGE_LOOP('',(#87,#88,#89,#90));
#809=EDGE_LOOP('',(#91,#92,#93,#94,#95));
#810=EDGE_LOOP('',(#96));
#811=EDGE_LOOP('',(#97));
#812=EDGE_LOOP('',(#98,#99,#100,#101,#102,#103,#104));
#813=EDGE_LOOP('',(#105,#106,#107,#108,#109,#110));
#814=EDGE_LOOP('',(#111,#112,#113,#114,#115,#116,#117,#118));
#815=EDGE_LOOP('',(#119,#120,#121,#122));
#816=EDGE_LOOP('',(#123,#124,#125,#126,#127,#128,#129));
#817=EDGE_LOOP('',(#130,#131,#132,#133));
#818=EDGE_LOOP('',(#134,#135,#136,#137,#138,#139,#140,#141,#142,#143,#144,
#145,#146,#147,#148,#149,#150,#151,#152,#153));
#819=EDGE_LOOP('',(#154,#155,#156,#157,#158));
#820=EDGE_LOOP('',(#159,#160,#161,#162,#163));
#821=EDGE_LOOP('',(#164,#165,#166,#167,#168));
#822=EDGE_LOOP('',(#169));
#823=EDGE_LOOP('',(#170));
#824=EDGE_LOOP('',(#171,#172,#173,#174,#175));
#825=EDGE_LOOP('',(#176,#177,#178,#179,#180,#181,#182,#183));
#826=EDGE_LOOP('',(#184,#185,#186,#187,#188));
#827=EDGE_LOOP('',(#189,#190,#191,#192));
#828=EDGE_LOOP('',(#193,#194,#195,#196,#197));
#829=EDGE_LOOP('',(#198,#199,#200,#201));
#830=EDGE_LOOP('',(#202,#203,#204,#205,#206));
#831=EDGE_LOOP('',(#207,#208,#209,#210));
#832=EDGE_LOOP('',(#211,#212,#213,#214));
#833=EDGE_LOOP('',(#215,#216,#217,#218));
#834=EDGE_LOOP('',(#219,#220,#221,#222));
#835=EDGE_LOOP('',(#223,#224,#225,#226));
#836=EDGE_LOOP('',(#227,#228,#229,#230));
#837=EDGE_LOOP('',(#231,#232,#233,#234));
#838=EDGE_LOOP('',(#235,#236,#237,#238));
#839=EDGE_LOOP('',(#239,#240,#241,#242));
#840=EDGE_LOOP('',(#243,#244,#245,#246));
#841=EDGE_LOOP('',(#247,#248,#249,#250));
#842=EDGE_LOOP('',(#251,#252,#253,#254,#255,#256));
#843=EDGE_LOOP('',(#257,#258,#259,#260,#261,#262));
#844=EDGE_LOOP('',(#263,#264,#265,#266));
#845=EDGE_LOOP('',(#267,#268,#269,#270));
#846=EDGE_LOOP('',(#271,#272,#273,#274));
#847=EDGE_LOOP('',(#275,#276,#277,#278,#279));
#848=EDGE_LOOP('',(#280,#281,#282,#283,#284,#285,#286,#287));
#849=EDGE_LOOP('',(#288,#289,#290,#291,#292));
#850=EDGE_LOOP('',(#293,#294,#295,#296));
#851=EDGE_LOOP('',(#297,#298,#299,#300));
#852=EDGE_LOOP('',(#301,#302,#303,#304));
#853=EDGE_LOOP('',(#305,#306,#307,#308));
#854=EDGE_LOOP('',(#309,#310,#311));
#855=EDGE_LOOP('',(#312,#313,#314));
#856=EDGE_LOOP('',(#315,#316,#317,#318));
#857=EDGE_LOOP('',(#319));
#858=EDGE_LOOP('',(#320));
#859=EDGE_LOOP('',(#321));
#860=EDGE_LOOP('',(#322));
#861=EDGE_LOOP('',(#323,#324));
#862=EDGE_LOOP('',(#325,#326,#327,#328));
#863=FACE_BOUND('',#799,.T.);
#864=FACE_BOUND('',#800,.T.);
#865=FACE_BOUND('',#801,.T.);
#866=FACE_BOUND('',#802,.T.);
#867=FACE_BOUND('',#803,.T.);
#868=FACE_BOUND('',#804,.T.);
#869=FACE_BOUND('',#805,.T.);
#870=FACE_BOUND('',#806,.T.);
#871=FACE_BOUND('',#807,.T.);
#872=FACE_BOUND('',#808,.T.);
#873=FACE_BOUND('',#809,.T.);
#874=FACE_BOUND('',#810,.T.);
#875=FACE_BOUND('',#811,.T.);
#876=FACE_BOUND('',#812,.T.);
#877=FACE_BOUND('',#813,.T.);
#878=FACE_BOUND('',#814,.T.);
#879=FACE_BOUND('',#815,.T.);
#880=FACE_BOUND('',#816,.T.);
#881=FACE_BOUND('',#817,.T.);
#882=FACE_BOUND('',#818,.T.);
#883=FACE_BOUND('',#819,.T.);
#884=FACE_BOUND('',#820,.T.);
#885=FACE_BOUND('',#821,.T.);
#886=FACE_BOUND('',#822,.T.);
#887=FACE_BOUND('',#823,.T.);
#888=FACE_BOUND('',#824,.T.);
#889=FACE_BOUND('',#825,.T.);
#890=FACE_BOUND('',#826,.T.);
#891=FACE_BOUND('',#827,.T.);
#892=FACE_BOUND('',#828,.T.);
#893=FACE_BOUND('',#829,.T.);
#894=FACE_BOUND('',#830,.T.);
#895=FACE_BOUND('',#831,.T.);
#896=FACE_BOUND('',#832,.T.);
#897=FACE_BOUND('',#833,.T.);
#898=FACE_BOUND('',#834,.T.);
#899=FACE_BOUND('',#835,.T.);
#900=FACE_BOUND('',#836,.T.);
#901=FACE_BOUND('',#837,.T.);
#902=FACE_BOUND('',#838,.T.);
#903=FACE_BOUND('',#839,.T.);
#904=FACE_BOUND('',#840,.T.);
#905=FACE_BOUND('',#841,.T.);
#906=FACE_BOUND('',#842,.T.);
#907=FACE_BOUND('',#843,.T.);
#908=FACE_BOUND('',#844,.T.);
#909=FACE_BOUND('',#845,.T.);
#910=FACE_BOUND('',#846,.T.);
#911=FACE_BOUND('',#847,.T.);
#912=FACE_BOUND('',#848,.T.);
#913=FACE_BOUND('',#849,.T.);
#914=FACE_BOUND('',#850,.T.);
#915=FACE_BOUND('',#851,.T.);
#916=FACE_BOUND('',#852,.T.);
#917=FACE_BOUND('',#853,.T.);
#918=FACE_BOUND('',#854,.T.);
#919=FACE_BOUND('',#855,.T.);
#920=FACE_BOUND('',#856,.T.);
#921=FACE_BOUND('',#857,.T.);
#922=FACE_BOUND('',#858,.T.);
#923=FACE_BOUND('',#859,.T.);
#924=FACE_BOUND('',#860,.T.);
#925=FACE_BOUND('',#861,.T.);
#926=FACE_BOUND('',#862,.T.);
#927=PLANE('',#1041);
#928=PLANE('',#1042);
#929=PLANE('',#1049);
#930=PLANE('',#1054);
#931=PLANE('',#1057);
#932=PLANE('',#1058);
#933=PLANE('',#1061);
#934=PLANE('',#1062);
#935=PLANE('',#1063);
#936=PLANE('',#1064);
#937=PLANE('',#1066);
#938=PLANE('',#1067);
#939=PLANE('',#1074);
#940=PLANE('',#1075);
#941=PLANE('',#1076);
#942=PLANE('',#1077);
#943=PLANE('',#1080);
#944=PLANE('',#1081);
#945=PLANE('',#1082);
#946=PLANE('',#1083);
#947=PLANE('',#1084);
#948=PLANE('',#1085);
#949=PLANE('',#1086);
#950=PLANE('',#1087);
#951=PLANE('',#1090);
#952=PLANE('',#1091);
#953=PLANE('',#1092);
#954=PLANE('',#1093);
#955=PLANE('',#1094);
#956=PLANE('',#1095);
#957=PLANE('',#1096);
#958=PLANE('',#1099);
#959=PLANE('',#1100);
#960=PLANE('',#1101);
#961=PLANE('',#1102);
#962=PLANE('',#1103);
#963=PLANE('',#1104);
#964=PLANE('',#1105);
#965=PLANE('',#1106);
#966=PLANE('',#1107);
#967=PLANE('',#1108);
#968=PLANE('',#1109);
#969=PLANE('',#1110);
#970=PLANE('',#1111);
#971=PLANE('',#1114);
#972=ADVANCED_FACE('',(#863),#927,.F.);
#973=ADVANCED_FACE('',(#864,#865,#866),#928,.F.);
#974=ADVANCED_FACE('',(#867),#19,.F.);
#975=ADVANCED_FACE('',(#868),#929,.T.);
#976=ADVANCED_FACE('',(#869),#20,.F.);
#977=ADVANCED_FACE('',(#870),#21,.F.);
#978=ADVANCED_FACE('',(#871),#930,.T.);
#979=ADVANCED_FACE('',(#872),#22,.F.);
#980=ADVANCED_FACE('',(#873),#931,.F.);
#981=ADVANCED_FACE('',(#874,#875,#876),#932,.T.);
#982=ADVANCED_FACE('',(#877),#933,.T.);
#983=ADVANCED_FACE('',(#878),#934,.F.);
#984=ADVANCED_FACE('',(#879),#935,.F.);
#985=ADVANCED_FACE('',(#880),#936,.F.);
#986=ADVANCED_FACE('',(#881),#937,.F.);
#987=ADVANCED_FACE('',(#882),#938,.T.);
#988=ADVANCED_FACE('',(#883),#939,.F.);
#989=ADVANCED_FACE('',(#884),#940,.T.);
#990=ADVANCED_FACE('',(#885),#941,.F.);
#991=ADVANCED_FACE('',(#886,#887,#888),#942,.F.);
#992=ADVANCED_FACE('',(#889),#943,.F.);
#993=ADVANCED_FACE('',(#890),#944,.T.);
#994=ADVANCED_FACE('',(#891),#945,.F.);
#995=ADVANCED_FACE('',(#892),#946,.F.);
#996=ADVANCED_FACE('',(#893),#947,.F.);
#997=ADVANCED_FACE('',(#894),#948,.T.);
#998=ADVANCED_FACE('',(#895),#949,.F.);
#999=ADVANCED_FACE('',(#896),#950,.T.);
#1000=ADVANCED_FACE('',(#897),#14,.F.);
#1001=ADVANCED_FACE('',(#898),#15,.F.);
#1002=ADVANCED_FACE('',(#899),#951,.F.);
#1003=ADVANCED_FACE('',(#900),#952,.T.);
#1004=ADVANCED_FACE('',(#901),#953,.F.);
#1005=ADVANCED_FACE('',(#902),#954,.T.);
#1006=ADVANCED_FACE('',(#903),#955,.T.);
#1007=ADVANCED_FACE('',(#904),#956,.T.);
#1008=ADVANCED_FACE('',(#905),#957,.T.);
#1009=ADVANCED_FACE('',(#906),#16,.F.);
#1010=ADVANCED_FACE('',(#907),#17,.F.);
#1011=ADVANCED_FACE('',(#908),#958,.F.);
#1012=ADVANCED_FACE('',(#909),#959,.T.);
#1013=ADVANCED_FACE('',(#910),#960,.T.);
#1014=ADVANCED_FACE('',(#911),#961,.T.);
#1015=ADVANCED_FACE('',(#912),#962,.F.);
#1016=ADVANCED_FACE('',(#913),#963,.F.);
#1017=ADVANCED_FACE('',(#914),#964,.F.);
#1018=ADVANCED_FACE('',(#915),#965,.F.);
#1019=ADVANCED_FACE('',(#916),#966,.T.);
#1020=ADVANCED_FACE('',(#917),#967,.T.);
#1021=ADVANCED_FACE('',(#918),#968,.T.);
#1022=ADVANCED_FACE('',(#919),#969,.T.);
#1023=ADVANCED_FACE('',(#920),#970,.F.);
#1024=ADVANCED_FACE('',(#921,#922),#23,.F.);
#1025=ADVANCED_FACE('',(#923,#924),#24,.F.);
#1026=ADVANCED_FACE('',(#925),#971,.T.);
#1027=ADVANCED_FACE('',(#926),#25,.F.);
#1028=CLOSED_SHELL('',(#972,#973,#974,#975,#976,#977,#978,#979,#980,#981,
#982,#983,#984,#985,#986,#987,#988,#989,#990,#991,#992,#993,#994,#995,#996,
#997,#998,#999,#1000,#1001,#1002,#1003,#1004,#1005,#1006,#1007,#1008,#1009,
#1010,#1011,#1012,#1013,#1014,#1015,#1016,#1017,#1018,#1019,#1020,#1021,
#1022,#1023,#1024,#1025,#1026,#1027));
#1029=STYLED_ITEM('',(#1030),#1037);
#1030=PRESENTATION_STYLE_ASSIGNMENT((#1031));
#1031=SURFACE_STYLE_USAGE(.BOTH.,#1032);
#1032=SURFACE_SIDE_STYLE('',(#1033));
#1033=SURFACE_STYLE_FILL_AREA(#1034);
#1034=FILL_AREA_STYLE('',(#1035));
#1035=FILL_AREA_STYLE_COLOUR('',#1036);
#1036=COLOUR_RGB('',0.231372549019608,0.380392156862745,0.705882352941177);
#1037=MANIFOLD_SOLID_BREP('Part 22',#1028);
#1038=SHAPE_DEFINITION_REPRESENTATION(#1690,#1039);
#1039=SHAPE_REPRESENTATION('Part 22',(#1040),#1685);
#1040=AXIS2_PLACEMENT_3D('',#1391,#1117,#1118);
#1041=AXIS2_PLACEMENT_3D('',#1392,#1119,#1120);
#1042=AXIS2_PLACEMENT_3D('',#1411,#1130,#1131);
#1043=AXIS2_PLACEMENT_3D('',#1412,#1132,#1133);
#1044=AXIS2_PLACEMENT_3D('',#1417,#1135,#1136);
#1045=AXIS2_PLACEMENT_3D('',#1420,#1138,#1139);
#1046=AXIS2_PLACEMENT_3D('',#1425,#1141,#1142);
#1047=AXIS2_PLACEMENT_3D('',#1438,#1149,#1150);
#1048=AXIS2_PLACEMENT_3D('',#1441,#1152,#1153);
#1049=AXIS2_PLACEMENT_3D('',#1444,#1155,#1156);
#1050=AXIS2_PLACEMENT_3D('',#1448,#1159,#1160);
#1051=AXIS2_PLACEMENT_3D('',#1451,#1162,#1163);
#1052=AXIS2_PLACEMENT_3D('',#1452,#1164,#1165);
#1053=AXIS2_PLACEMENT_3D('',#1455,#1167,#1168);
#1054=AXIS2_PLACEMENT_3D('',#1458,#1170,#1171);
#1055=AXIS2_PLACEMENT_3D('',#1462,#1174,#1175);
#1056=AXIS2_PLACEMENT_3D('',#1465,#1177,#1178);
#1057=AXIS2_PLACEMENT_3D('',#1466,#1179,#1180);
#1058=AXIS2_PLACEMENT_3D('',#1476,#1186,#1187);
#1059=AXIS2_PLACEMENT_3D('',#1477,#1188,#1189);
#1060=AXIS2_PLACEMENT_3D('',#1479,#1190,#1191);
#1061=AXIS2_PLACEMENT_3D('',#1495,#1199,#1200);
#1062=AXIS2_PLACEMENT_3D('',#1505,#1206,#1207);
#1063=AXIS2_PLACEMENT_3D('',#1516,#1214,#1215);
#1064=AXIS2_PLACEMENT_3D('',#1518,#1217,#1218);
#1065=AXIS2_PLACEMENT_3D('',#1519,#1219,#1220);
#1066=AXIS2_PLACEMENT_3D('',#1525,#1224,#1225);
#1067=AXIS2_PLACEMENT_3D('',#1527,#1227,#1228);
#1068=AXIS2_PLACEMENT_3D('',#1541,#1235,#1236);
#1069=AXIS2_PLACEMENT_3D('',#1545,#1238,#1239);
#1070=AXIS2_PLACEMENT_3D('',#1549,#1241,#1242);
#1071=AXIS2_PLACEMENT_3D('',#1553,#1244,#1245);
#1072=AXIS2_PLACEMENT_3D('',#1557,#1247,#1248);
#1073=AXIS2_PLACEMENT_3D('',#1561,#1250,#1251);
#1074=AXIS2_PLACEMENT_3D('',#1568,#1255,#1256);
#1075=AXIS2_PLACEMENT_3D('',#1574,#1260,#1261);
#1076=AXIS2_PLACEMENT_3D('',#1578,#1264,#1265);
#1077=AXIS2_PLACEMENT_3D('',#1584,#1269,#1270);
#1078=AXIS2_PLACEMENT_3D('',#1585,#1271,#1272);
#1079=AXIS2_PLACEMENT_3D('',#1587,#1273,#1274);
#1080=AXIS2_PLACEMENT_3D('',#1592,#1277,#1278);
#1081=AXIS2_PLACEMENT_3D('',#1599,#1283,#1284);
#1082=AXIS2_PLACEMENT_3D('',#1603,#1287,#1288);
#1083=AXIS2_PLACEMENT_3D('',#1604,#1289,#1290);
#1084=AXIS2_PLACEMENT_3D('',#1610,#1294,#1295);
#1085=AXIS2_PLACEMENT_3D('',#1612,#1297,#1298);
#1086=AXIS2_PLACEMENT_3D('',#1618,#1302,#1303);
#1087=AXIS2_PLACEMENT_3D('',#1620,#1305,#1306);
#1088=AXIS2_PLACEMENT_3D('',#1622,#1308,#1309);
#1089=AXIS2_PLACEMENT_3D('',#1625,#1312,#1313);
#1090=AXIS2_PLACEMENT_3D('',#1628,#1316,#1317);
#1091=AXIS2_PLACEMENT_3D('',#1630,#1319,#1320);
#1092=AXIS2_PLACEMENT_3D('',#1632,#1322,#1323);
#1093=AXIS2_PLACEMENT_3D('',#1634,#1325,#1326);
#1094=AXIS2_PLACEMENT_3D('',#1636,#1328,#1329);
#1095=AXIS2_PLACEMENT_3D('',#1639,#1332,#1333);
#1096=AXIS2_PLACEMENT_3D('',#1642,#1336,#1337);
#1097=AXIS2_PLACEMENT_3D('',#1644,#1339,#1340);
#1098=AXIS2_PLACEMENT_3D('',#1649,#1341,#1342);
#1099=AXIS2_PLACEMENT_3D('',#1654,#1343,#1344);
#1100=AXIS2_PLACEMENT_3D('',#1656,#1346,#1347);
#1101=AXIS2_PLACEMENT_3D('',#1658,#1349,#1350);
#1102=AXIS2_PLACEMENT_3D('',#1660,#1352,#1353);
#1103=AXIS2_PLACEMENT_3D('',#1662,#1355,#1356);
#1104=AXIS2_PLACEMENT_3D('',#1664,#1358,#1359);
#1105=AXIS2_PLACEMENT_3D('',#1666,#1361,#1362);
#1106=AXIS2_PLACEMENT_3D('',#1668,#1364,#1365);
#1107=AXIS2_PLACEMENT_3D('',#1670,#1367,#1368);
#1108=AXIS2_PLACEMENT_3D('',#1672,#1370,#1371);
#1109=AXIS2_PLACEMENT_3D('',#1674,#1373,#1374);
#1110=AXIS2_PLACEMENT_3D('',#1676,#1376,#1377);
#1111=AXIS2_PLACEMENT_3D('',#1678,#1379,#1380);
#1112=AXIS2_PLACEMENT_3D('',#1679,#1381,#1382);
#1113=AXIS2_PLACEMENT_3D('',#1680,#1383,#1384);
#1114=AXIS2_PLACEMENT_3D('',#1681,#1385,#1386);
#1115=AXIS2_PLACEMENT_3D('',#1682,#1387,#1388);
#1116=AXIS2_PLACEMENT_3D('',#1683,#1389,#1390);
#1117=DIRECTION('',(0.,0.,1.));
#1118=DIRECTION('',(1.,0.,0.));
#1119=DIRECTION('',(1.22464679914735E-16,-1.,0.));
#1120=DIRECTION('',(1.,1.22464679914735E-16,0.));
#1121=DIRECTION('',(-1.,-1.22464679914735E-16,0.));
#1122=DIRECTION('',(0.,0.,1.));
#1123=DIRECTION('',(-1.,-1.22464679914735E-16,0.));
#1124=DIRECTION('',(0.714406123524654,8.74895172465736E-17,-0.699731298907286));
#1125=DIRECTION('',(-0.387471741610094,-4.74516028122852E-17,0.921881581036112));
#1126=DIRECTION('',(0.,0.,-1.));
#1127=DIRECTION('',(1.,1.22464679914735E-16,0.));
#1128=DIRECTION('',(0.,0.,-1.));
#1129=DIRECTION('',(0.714406123524654,8.74895172465736E-17,-0.699731298907286));
#1130=DIRECTION('',(1.22464679914735E-16,-1.,0.));
#1131=DIRECTION('',(1.,1.22464679914735E-16,0.));
#1132=DIRECTION('',(-1.22464679914735E-16,1.,0.));
#1133=DIRECTION('',(1.,1.22464679914735E-16,0.));
#1134=DIRECTION('',(0.,0.,1.));
#1135=DIRECTION('',(-1.22464679914735E-16,1.,0.));
#1136=DIRECTION('',(1.,1.22464679914735E-16,0.));
#1137=DIRECTION('',(0.,0.,1.));
#1138=DIRECTION('',(-1.22464679914735E-16,1.,0.));
#1139=DIRECTION('',(1.,1.22464679914735E-16,0.));
#1140=DIRECTION('',(0.,0.,1.));
#1141=DIRECTION('',(-1.22464679914735E-16,1.,0.));
#1142=DIRECTION('',(1.,1.22464679914735E-16,0.));
#1143=DIRECTION('',(0.,0.,1.));
#1144=DIRECTION('',(0.,0.,-1.));
#1145=DIRECTION('',(-0.707106781186549,-8.65956056235495E-17,-0.707106781186546));
#1146=DIRECTION('',(1.,1.22464679914735E-16,0.));
#1147=DIRECTION('',(0.,0.,-1.));
#1148=DIRECTION('',(1.,1.22464679914735E-16,0.));
#1149=DIRECTION('',(1.22464679914735E-16,-1.,0.));
#1150=DIRECTION('',(1.,1.22464679914735E-16,0.));
#1151=DIRECTION('',(1.22464679914735E-16,-1.,0.));
#1152=DIRECTION('',(0.,-1.,0.));
#1153=DIRECTION('',(0.,0.,-1.));
#1154=DIRECTION('',(1.22464679914735E-16,-1.,0.));
#1155=DIRECTION('',(1.,1.22464679914735E-16,0.));
#1156=DIRECTION('',(-1.22464679914735E-16,1.,0.));
#1157=DIRECTION('',(1.22464679914735E-16,-1.,0.));
#1158=DIRECTION('',(0.,0.,-1.));
#1159=DIRECTION('',(1.22464679914735E-16,-1.,0.));
#1160=DIRECTION('',(1.,1.22464679914735E-16,0.));
#1161=DIRECTION('',(1.22464679914735E-16,-1.,0.));
#1162=DIRECTION('',(0.,-1.,0.));
#1163=DIRECTION('',(0.,0.,-1.));
#1164=DIRECTION('',(1.22464679914735E-16,-1.,0.));
#1165=DIRECTION('',(1.,1.22464679914735E-16,0.));
#1166=DIRECTION('',(1.22464679914735E-16,-1.,0.));
#1167=DIRECTION('',(0.,-1.,0.));
#1168=DIRECTION('',(0.,0.,-1.));
#1169=DIRECTION('',(1.22464679914735E-16,-1.,0.));
#1170=DIRECTION('',(1.,1.22464679914735E-16,0.));
#1171=DIRECTION('',(-1.22464679914735E-16,1.,0.));
#1172=DIRECTION('',(1.22464679914735E-16,-1.,0.));
#1173=DIRECTION('',(0.,0.,-1.));
#1174=DIRECTION('',(1.22464679914735E-16,-1.,0.));
#1175=DIRECTION('',(1.,1.22464679914735E-16,0.));
#1176=DIRECTION('',(1.22464679914735E-16,-1.,0.));
#1177=DIRECTION('',(0.,-1.,0.));
#1178=DIRECTION('',(0.,0.,-1.));
#1179=DIRECTION('',(0.,0.,-1.));
#1180=DIRECTION('',(-1.,0.,0.));
#1181=DIRECTION('',(-1.,-1.22464679914735E-16,0.));
#1182=DIRECTION('',(1.22464679914735E-16,-1.,0.));
#1183=DIRECTION('',(1.,1.22464679914735E-16,0.));
#1184=DIRECTION('',(1.22464679914735E-16,-1.,0.));
#1185=DIRECTION('',(1.22464679914735E-16,-1.,0.));
#1186=DIRECTION('',(-1.,-1.22464679914735E-16,0.));
#1187=DIRECTION('',(1.22464679914735E-16,-1.,0.));
#1188=DIRECTION('',(-1.,-1.22464679914735E-16,0.));
#1189=DIRECTION('',(1.22464679914735E-16,-1.,0.));
#1190=DIRECTION('',(-1.,-1.22464679914735E-16,0.));
#1191=DIRECTION('',(1.22464679914735E-16,-1.,0.));
#1192=DIRECTION('',(1.22464679914735E-16,-1.,1.74315279842105E-32));
#1193=DIRECTION('',(0.,0.,1.));
#1194=DIRECTION('',(-8.65956056235494E-17,0.707106781186548,0.707106781186548));
#1195=DIRECTION('',(-1.22464679914735E-16,1.,0.));
#1196=DIRECTION('',(-8.65956056235494E-17,0.707106781186548,-0.707106781186547));
#1197=DIRECTION('',(0.,0.,-1.));
#1198=DIRECTION('',(6.79311819793636E-17,-0.554700196225229,-0.832050294337844));
#1199=DIRECTION('',(0.,0.,-1.));
#1200=DIRECTION('',(-1.,0.,0.));
#1201=DIRECTION('',(1.22464679914735E-16,-1.,0.));
#1202=DIRECTION('',(-1.,-1.22464679914735E-16,0.));
#1203=DIRECTION('',(-1.22464679914735E-16,1.,0.));
#1204=DIRECTION('',(1.,1.22464679914735E-16,0.));
#1205=DIRECTION('',(1.22464679914735E-16,-1.,0.));
#1206=DIRECTION('',(-1.,-1.22464679914735E-16,0.));
#1207=DIRECTION('',(1.22464679914735E-16,-1.,0.));
#1208=DIRECTION('',(1.22464679914735E-16,-1.,3.45068476828445E-32));
#1209=DIRECTION('',(0.,0.,-1.));
#1210=DIRECTION('',(-1.22464679914735E-16,1.,0.));
#1211=DIRECTION('',(1.22464679914735E-16,-1.,0.));
#1212=DIRECTION('',(0.,0.,1.));
#1213=DIRECTION('',(1.22464679914735E-16,-1.,0.));
#1214=DIRECTION('',(1.,1.22464679914735E-16,0.));
#1215=DIRECTION('',(-1.22464679914735E-16,1.,0.));
#1216=DIRECTION('',(0.,0.,1.));
#1217=DIRECTION('',(-0.699731298907286,-8.56923695470027E-17,-0.714406123524654));
#1218=DIRECTION('',(-0.714406123524654,0.,0.699731298907286));
#1219=DIRECTION('',(-0.699731298907286,-8.56923695470027E-17,-0.714406123524654));
#1220=DIRECTION('',(-0.714406123524654,-8.74895172465736E-17,0.699731298907286));
#1221=DIRECTION('',(0.585338181493419,-0.573314579129982,-0.573314579129982));
#1222=DIRECTION('',(0.714406123524654,8.74895172465736E-17,-0.699731298907286));
#1223=DIRECTION('',(-1.22464679914735E-16,1.,-2.79042669555772E-32));
#1224=DIRECTION('',(1.,1.22464679914735E-16,0.));
#1225=DIRECTION('',(-1.22464679914735E-16,1.,0.));
#1226=DIRECTION('',(0.,0.,1.));
#1227=DIRECTION('',(1.22464679914735E-16,-1.,0.));
#1228=DIRECTION('',(1.,1.22464679914735E-16,0.));
#1229=DIRECTION('',(-0.387471741610093,-4.74516028122852E-17,0.921881581036112));
#1230=DIRECTION('',(-0.714406123524654,-8.74895172465736E-17,0.699731298907286));
#1231=DIRECTION('',(-1.,-1.22464679914735E-16,0.));
#1232=DIRECTION('',(0.,0.,-1.));
#1233=DIRECTION('',(0.707106781186549,8.65956056235495E-17,-0.707106781186546));
#1234=DIRECTION('',(1.,1.22464679914735E-16,0.));
#1235=DIRECTION('',(1.22464679914735E-16,-1.,0.));
#1236=DIRECTION('',(1.,1.22464679914735E-16,0.));
#1237=DIRECTION('',(0.,0.,1.));
#1238=DIRECTION('',(1.22464679914735E-16,-1.,0.));
#1239=DIRECTION('',(1.,1.22464679914735E-16,0.));
#1240=DIRECTION('',(0.,0.,-1.));
#1241=DIRECTION('',(1.22464679914735E-16,-1.,0.));
#1242=DIRECTION('',(1.,1.22464679914735E-16,0.));
#1243=DIRECTION('',(1.,1.22464679914735E-16,0.));
#1244=DIRECTION('',(1.22464679914735E-16,-1.,0.));
#1245=DIRECTION('',(1.,1.22464679914735E-16,0.));
#1246=DIRECTION('',(0.,0.,1.));
#1247=DIRECTION('',(1.22464679914735E-16,-1.,0.));
#1248=DIRECTION('',(1.,1.22464679914735E-16,0.));
#1249=DIRECTION('',(0.,0.,-1.));
#1250=DIRECTION('',(1.22464679914735E-16,-1.,0.));
#1251=DIRECTION('',(1.,1.22464679914735E-16,0.));
#1252=DIRECTION('',(1.,1.22464679914735E-16,0.));
#1253=DIRECTION('',(0.707106781186549,8.65956056235495E-17,0.707106781186546));
#1254=DIRECTION('',(0.,0.,1.));
#1255=DIRECTION('',(-1.,-1.22464679914735E-16,0.));
#1256=DIRECTION('',(1.22464679914735E-16,-1.,0.));
#1257=DIRECTION('',(-6.79311819793636E-17,0.554700196225229,0.832050294337844));
#1258=DIRECTION('',(0.,0.,-1.));
#1259=DIRECTION('',(1.22464679914735E-16,-1.,0.));
#1260=DIRECTION('',(0.,0.,-1.));
#1261=DIRECTION('',(-1.,0.,0.));
#1262=DIRECTION('',(1.,1.22464679914735E-16,0.));
#1263=DIRECTION('',(-0.832050294337844,0.554700196225229,0.));
#1264=DIRECTION('',(0.,0.,-1.));
#1265=DIRECTION('',(-1.,0.,0.));
#1266=DIRECTION('',(0.832050294337844,-0.554700196225229,0.));
#1267=DIRECTION('',(1.,1.22464679914735E-16,0.));
#1268=DIRECTION('',(1.22464679914735E-16,-1.,0.));
#1269=DIRECTION('',(-1.,-1.22464679914735E-16,0.));
#1270=DIRECTION('',(1.22464679914735E-16,-1.,0.));
#1271=DIRECTION('',(-1.,-1.22464679914735E-16,0.));
#1272=DIRECTION('',(1.22464679914735E-16,-1.,0.));
#1273=DIRECTION('',(-1.,-1.22464679914735E-16,0.));
#1274=DIRECTION('',(1.22464679914735E-16,-1.,0.));
#1275=DIRECTION('',(0.,0.,-1.));
#1276=DIRECTION('',(-8.65956056235494E-17,0.707106781186548,-0.707106781186547));
#1277=DIRECTION('',(1.22464679914735E-16,-1.,0.));
#1278=DIRECTION('',(1.,1.22464679914735E-16,0.));
#1279=DIRECTION('',(-1.,-1.22464679914735E-16,0.));
#1280=DIRECTION('',(0.,0.,1.));
#1281=DIRECTION('',(1.,1.22464679914735E-16,0.));
#1282=DIRECTION('',(0.,0.,-1.));
#1283=DIRECTION('',(-1.01896772969045E-16,0.832050294337844,-0.554700196225229));
#1284=DIRECTION('',(-1.,-1.22464679914735E-16,0.));
#1285=DIRECTION('',(0.639602149066833,-0.42640143271122,-0.63960214906683));
#1286=DIRECTION('',(-6.79311819793636E-17,0.554700196225229,0.832050294337844));
#1287=DIRECTION('',(-0.554700196225229,-0.832050294337844,0.));
#1288=DIRECTION('',(0.,0.,-1.));
#1289=DIRECTION('',(0.707106781186546,8.65956056235492E-17,0.707106781186549));
#1290=DIRECTION('',(1.22464679914735E-16,-1.,0.));
#1291=DIRECTION('',(1.22464679914735E-16,-1.,2.48708978912827E-32));
#1292=DIRECTION('',(0.661335502539432,0.353936019870594,-0.661335502539429));
#1293=DIRECTION('',(0.707106781186549,8.65956056235495E-17,-0.707106781186546));
#1294=DIRECTION('',(8.65956056235493E-17,-0.707106781186547,-0.707106781186548));
#1295=DIRECTION('',(1.,1.22464679914735E-16,0.));
#1296=DIRECTION('',(-8.65956056235494E-17,0.707106781186548,-0.707106781186547));
#1297=DIRECTION('',(8.65956056235494E-17,-0.707106781186548,0.707106781186548));
#1298=DIRECTION('',(-1.,-1.22464679914735E-16,0.));
#1299=DIRECTION('',(8.65956056235494E-17,-0.707106781186548,-0.707106781186548));
#1300=DIRECTION('',(1.,1.22464679914735E-16,0.));
#1301=DIRECTION('',(0.27728715531071,0.679379067053031,0.679379067053031));
#1302=DIRECTION('',(-0.921881581036112,-1.12897932740878E-16,-0.387471741610094));
#1303=DIRECTION('',(1.22464679914735E-16,-1.,4.15472803054045E-32));
#1304=DIRECTION('',(-0.387471741610094,-4.74516028122852E-17,0.921881581036112));
#1305=DIRECTION('',(0.707106781186546,8.65956056235492E-17,-0.707106781186549));
#1306=DIRECTION('',(-1.22464679914735E-16,1.,0.));
#1307=DIRECTION('',(-0.707106781186549,-8.65956056235495E-17,-0.707106781186546));
#1308=DIRECTION('',(0.,-1.,0.));
#1309=DIRECTION('',(0.,0.,-1.));
#1310=DIRECTION('',(-0.707106781186548,0.707106781186548,0.));
#1311=DIRECTION('',(-0.707106781186548,-0.707106781186548,0.));
#1312=DIRECTION('',(0.,-1.,0.));
#1313=DIRECTION('',(0.,0.,-1.));
#1314=DIRECTION('',(-0.707106781186548,0.707106781186548,0.));
#1315=DIRECTION('',(-0.707106781186548,-0.707106781186548,0.));
#1316=DIRECTION('',(-0.707106781186548,0.707106781186548,0.));
#1317=DIRECTION('',(0.,0.,1.));
#1318=DIRECTION('',(-0.707106781186548,-0.707106781186548,0.));
#1319=DIRECTION('',(-0.707106781186548,-0.707106781186548,0.));
#1320=DIRECTION('',(0.,0.,-1.));
#1321=DIRECTION('',(-0.707106781186546,0.707106781186549,0.));
#1322=DIRECTION('',(-0.707106781186548,0.707106781186548,0.));
#1323=DIRECTION('',(0.,0.,1.));
#1324=DIRECTION('',(-0.707106781186548,-0.707106781186548,0.));
#1325=DIRECTION('',(-0.707106781186548,-0.707106781186548,0.));
#1326=DIRECTION('',(0.,0.,-1.));
#1327=DIRECTION('',(-0.707106781186548,0.707106781186548,0.));
#1328=DIRECTION('',(0.707106781186555,-0.70710678118654,0.));
#1329=DIRECTION('',(0.,0.,1.));
#1330=DIRECTION('',(0.678598344545841,0.678598344545855,-0.281084637714815));
#1331=DIRECTION('',(-0.70002906822934,-0.700029068229355,-0.14113329609948));
#1332=DIRECTION('',(-0.707106781186547,0.5,0.5));
#1333=DIRECTION('',(8.65956056235494E-17,-0.707106781186548,0.707106781186547));
#1334=DIRECTION('',(-0.678598344545848,-0.28108463771482,-0.678598344545846));
#1335=DIRECTION('',(-0.678598344545848,-0.678598344545846,-0.281084637714821));
#1336=DIRECTION('',(0.651868717401618,-0.70710678118654,0.273983896010662));
#1337=DIRECTION('',(0.387471741610094,4.74516028122852E-17,-0.921881581036112));
#1338=DIRECTION('',(-0.590658740151654,-0.700029068229354,-0.401349668389553));
#1339=DIRECTION('',(0.,-1.,0.));
#1340=DIRECTION('',(0.,0.,-1.));
#1341=DIRECTION('',(0.,-1.,0.));
#1342=DIRECTION('',(0.,0.,-1.));
#1343=DIRECTION('',(-0.5,0.707106781186539,0.500000000000007));
#1344=DIRECTION('',(0.707106781186549,8.65956056235495E-17,0.707106781186546));
#1345=DIRECTION('',(-0.281084637714813,-0.678598344545855,0.678598344545842));
#1346=DIRECTION('',(-0.707106781186546,0.707106781186549,0.));
#1347=DIRECTION('',(0.,0.,1.));
#1348=DIRECTION('',(0.69143776435065,0.691437764350648,-0.209350510053244));
#1349=DIRECTION('',(-0.707106781186547,-8.65956056235492E-17,0.707106781186549));
#1350=DIRECTION('',(-1.22464679914735E-16,1.,0.));
#1351=DIRECTION('',(0.678598344545848,-0.281084637714818,0.678598344545847));
#1352=DIRECTION('',(0.494784746465816,-0.707106781186542,0.505161414465481));
#1353=DIRECTION('',(-0.714406123524654,-8.74895172465736E-17,0.699731298907286));
#1354=DIRECTION('',(-0.368467412346173,0.355758080551936,0.858875982992258));
#1355=DIRECTION('',(-8.65956056235485E-17,0.707106781186541,0.707106781186555));
#1356=DIRECTION('',(1.,1.22464679914735E-16,0.));
#1357=DIRECTION('',(-0.281084637714821,0.678598344545854,-0.67859834454584));
#1358=DIRECTION('',(0.707106781186544,-0.588348405414555,0.39223227027637));
#1359=DIRECTION('',(6.79311819793636E-17,-0.554700196225229,-0.832050294337844));
#1360=DIRECTION('',(0.378110735728931,-0.154127495692406,-0.91284006627564));
#1361=DIRECTION('',(0.707106781186546,0.5,-0.5));
#1362=DIRECTION('',(-8.65956056235494E-17,0.707106781186548,0.707106781186548));
#1363=DIRECTION('',(0.707106781186549,-0.5,0.5));
#1364=DIRECTION('',(-1.13142611228769E-16,0.923879532511279,-0.382683432365108));
#1365=DIRECTION('',(-1.,-1.22464679914735E-16,0.));
#1366=DIRECTION('',(-1.93550832011611E-15,-0.382683432365108,-0.923879532511279));
#1367=DIRECTION('',(-0.5,-0.707106781186542,-0.5));
#1368=DIRECTION('',(-0.707106781186549,-8.65956056235495E-17,0.707106781186546));
#1369=DIRECTION('',(0.5,-0.707106781186553,0.499999999999989));
#1370=DIRECTION('',(-0.923879532511285,-1.1314261122877E-16,-0.382683432365095));
#1371=DIRECTION('',(-1.22464679914735E-16,1.,-8.7157639921052E-33));
#1372=DIRECTION('',(0.382683432365095,8.18026623221561E-17,-0.923879532511285));
#1373=DIRECTION('',(-0.678598344545847,-0.678598344545841,0.281084637714835));
#1374=DIRECTION('',(0.707106781186544,-0.707106781186551,0.));
#1375=DIRECTION('',(-0.707106781186548,0.707106781186548,-1.58276176769904E-14));
#1376=DIRECTION('',(-0.678598344545848,-0.678598344545844,-0.281084637714825));
#1377=DIRECTION('',(0.707106781186546,-0.70710678118655,0.));
#1378=DIRECTION('',(0.707106781186548,-0.707106781186548,-9.87144436640765E-15));
#1379=DIRECTION('',(0.707106781186548,0.707106781186548,0.));
#1380=DIRECTION('',(0.,0.,-1.));
#1381=DIRECTION('',(-1.,-1.22464679914735E-16,0.));
#1382=DIRECTION('',(1.22464679914735E-16,-1.,0.));
#1383=DIRECTION('',(-1.,-1.22464679914735E-16,0.));
#1384=DIRECTION('',(1.22464679914735E-16,-1.,0.));
#1385=DIRECTION('',(1.,1.22464679914735E-16,0.));
#1386=DIRECTION('',(-1.22464679914735E-16,1.,0.));
#1387=DIRECTION('',(-1.,-1.22464679914735E-16,0.));
#1388=DIRECTION('',(1.22464679914735E-16,-1.,0.));
#1389=DIRECTION('',(-1.,-1.22464679914735E-16,0.));
#1390=DIRECTION('',(1.22464679914735E-16,-1.,0.));
#1391=CARTESIAN_POINT('',(0.,0.,0.));
#1392=CARTESIAN_POINT('',(0.010875,-0.0335,-0.0184022355886837));
#1393=CARTESIAN_POINT('',(0.03825,-0.0335,-0.00296330141379776));
#1394=CARTESIAN_POINT('',(0.02025,-0.0335,-0.00296330141379776));
#1395=CARTESIAN_POINT('',(0.0295342690412863,-0.0335,-0.00296330141379776));
#1396=CARTESIAN_POINT('',(0.02025,-0.0335,-0.0184022355886837));
#1397=CARTESIAN_POINT('',(0.02025,-0.0335,-0.00783669858620224));
#1398=CARTESIAN_POINT('',(0.03825,-0.0335,-0.00783669858620224));
#1399=CARTESIAN_POINT('',(0.0345098715157938,-0.0335,-0.00783669858620224));
#1400=CARTESIAN_POINT('',(0.0292143970434557,-0.0335,-0.00265));
#1401=CARTESIAN_POINT('',(0.0368211877529507,-0.0335,-0.0101005374021854));
#1402=CARTESIAN_POINT('',(0.03825,-0.0335,-0.0135));
#1403=CARTESIAN_POINT('',(0.03825,-0.0335,-0.0135));
#1404=CARTESIAN_POINT('',(0.03825,-0.0335,-0.015));
#1405=CARTESIAN_POINT('',(0.03825,-0.0335,-0.0185));
#1406=CARTESIAN_POINT('',(0.010875,-0.0335,-0.0185));
#1407=CARTESIAN_POINT('',(0.0201787940869115,-0.0335,-0.0185));
#1408=CARTESIAN_POINT('',(0.0201787940869115,-0.0335,-0.0184022355886837));
#1409=CARTESIAN_POINT('',(0.0201787940869115,-0.0335,0.0062));
#1410=CARTESIAN_POINT('',(0.0292143970434557,-0.0335,-0.00265));
#1411=CARTESIAN_POINT('',(0.010875,-0.0335,-0.0184022355886837));
#1412=CARTESIAN_POINT('',(0.0239643970434557,-0.0335,-0.0395044711773674));
#1413=CARTESIAN_POINT('',(0.0256143970434557,-0.0335,-0.0395044711773674));
#1414=CARTESIAN_POINT('',(0.0223143970434557,-0.0335,-0.0395044711773674));
#1415=CARTESIAN_POINT('',(0.0256143970434557,-0.0335,-0.0370044711773674));
#1416=CARTESIAN_POINT('',(0.0256143970434557,-0.0335,-0.0345044711773674));
#1417=CARTESIAN_POINT('',(0.0239643970434557,-0.0335,-0.0345044711773674));
#1418=CARTESIAN_POINT('',(0.0223143970434557,-0.0335,-0.0345044711773674));
#1419=CARTESIAN_POINT('',(0.0223143970434557,-0.0335,-0.0370044711773674));
#1420=CARTESIAN_POINT('',(0.0344643970434557,-0.0335,-0.0395044711773674));
#1421=CARTESIAN_POINT('',(0.0361143970434557,-0.0335,-0.0395044711773674));
#1422=CARTESIAN_POINT('',(0.0328143970434557,-0.0335,-0.0395044711773674));
#1423=CARTESIAN_POINT('',(0.0361143970434557,-0.0335,-0.0370044711773674));
#1424=CARTESIAN_POINT('',(0.0361143970434557,-0.0335,-0.0345044711773674));
#1425=CARTESIAN_POINT('',(0.0344643970434557,-0.0335,-0.0345044711773674));
#1426=CARTESIAN_POINT('',(0.0328143970434557,-0.0335,-0.0345044711773674));
#1427=CARTESIAN_POINT('',(0.0328143970434557,-0.0335,-0.0370044711773674));
#1428=CARTESIAN_POINT('',(0.03825,-0.0335,-0.015));
#1429=CARTESIAN_POINT('',(0.03825,-0.0335,-0.0215));
#1430=CARTESIAN_POINT('',(0.03825,-0.0335,-0.0410044711773674));
#1431=CARTESIAN_POINT('',(0.03625,-0.0335,-0.0430044711773674));
#1432=CARTESIAN_POINT('',(0.03625,-0.0335,-0.0430044711773674));
#1433=CARTESIAN_POINT('',(0.0188393970434558,-0.0335,-0.0430044711773674));
#1434=CARTESIAN_POINT('',(0.0201787940869115,-0.0335,-0.0430044711773674));
#1435=CARTESIAN_POINT('',(0.0201787940869115,-0.0335,-0.0184022355886837));
#1436=CARTESIAN_POINT('',(0.0201787940869115,-0.0335,-0.0215));
#1437=CARTESIAN_POINT('',(0.010875,-0.0335,-0.0215));
#1438=CARTESIAN_POINT('',(0.0239643970434557,-0.0335,-0.0395044711773674));
#1439=CARTESIAN_POINT('',(0.0223143970434557,-0.0335,-0.0395044711773674));
#1440=CARTESIAN_POINT('',(0.0223143970434557,-0.0355,-0.0395044711773674));
#1441=CARTESIAN_POINT('',(0.0239643970434557,-0.0355,-0.0395044711773674));
#1442=CARTESIAN_POINT('',(0.0256143970434557,-0.0355,-0.0395044711773674));
#1443=CARTESIAN_POINT('',(0.0256143970434557,-0.0335,-0.0395044711773674));
#1444=CARTESIAN_POINT('',(0.0223143970434557,-0.0335,-0.0370044711773674));
#1445=CARTESIAN_POINT('',(0.0223143970434557,-0.0335,-0.0345044711773674));
#1446=CARTESIAN_POINT('',(0.0223143970434557,-0.0355,-0.0345044711773674));
#1447=CARTESIAN_POINT('',(0.0223143970434557,-0.0355,-0.0370044711773674));
#1448=CARTESIAN_POINT('',(0.0239643970434557,-0.0335,-0.0345044711773674));
#1449=CARTESIAN_POINT('',(0.0256143970434557,-0.0335,-0.0345044711773674));
#1450=CARTESIAN_POINT('',(0.0256143970434557,-0.0355,-0.0345044711773674));
#1451=CARTESIAN_POINT('',(0.0239643970434557,-0.0355,-0.0345044711773674));
#1452=CARTESIAN_POINT('',(0.0344643970434557,-0.0335,-0.0395044711773674));
#1453=CARTESIAN_POINT('',(0.0328143970434557,-0.0335,-0.0395044711773674));
#1454=CARTESIAN_POINT('',(0.0328143970434557,-0.0355,-0.0395044711773674));
#1455=CARTESIAN_POINT('',(0.0344643970434557,-0.0355,-0.0395044711773674));
#1456=CARTESIAN_POINT('',(0.0361143970434557,-0.0355,-0.0395044711773674));
#1457=CARTESIAN_POINT('',(0.0361143970434557,-0.0335,-0.0395044711773674));
#1458=CARTESIAN_POINT('',(0.0328143970434557,-0.0335,-0.0370044711773674));
#1459=CARTESIAN_POINT('',(0.0328143970434557,-0.0335,-0.0345044711773674));
#1460=CARTESIAN_POINT('',(0.0328143970434557,-0.0355,-0.0345044711773674));
#1461=CARTESIAN_POINT('',(0.0328143970434557,-0.0355,-0.0370044711773674));
#1462=CARTESIAN_POINT('',(0.0344643970434557,-0.0335,-0.0345044711773674));
#1463=CARTESIAN_POINT('',(0.0361143970434557,-0.0335,-0.0345044711773674));
#1464=CARTESIAN_POINT('',(0.0361143970434557,-0.0355,-0.0345044711773674));
#1465=CARTESIAN_POINT('',(0.0344643970434557,-0.0355,-0.0345044711773674));
#1466=CARTESIAN_POINT('',(0.0188393970434558,-0.0335,0.0062));
#1467=CARTESIAN_POINT('',(0.0188393970434558,-0.0215,0.0062));
#1468=CARTESIAN_POINT('',(0.0201787940869115,-0.0215,0.0062));
#1469=CARTESIAN_POINT('',(0.0185,-0.0215,0.0062));
#1470=CARTESIAN_POINT('',(0.0185,-0.0345,0.0062));
#1471=CARTESIAN_POINT('',(0.0185,-0.0345,0.0062));
#1472=CARTESIAN_POINT('',(0.0201787940869115,-0.0345,0.0062));
#1473=CARTESIAN_POINT('',(0.0201787940869115,-0.0345,0.0062));
#1474=CARTESIAN_POINT('',(0.0201787940869115,-0.0335,0.0062));
#1475=CARTESIAN_POINT('',(0.0201787940869115,-0.0195,0.0062));
#1476=CARTESIAN_POINT('',(0.0175,-0.0335,-0.00265));
#1477=CARTESIAN_POINT('',(0.0175,-0.03175,-0.0054));
#1478=CARTESIAN_POINT('',(0.0175,-0.0334,-0.0054));
#1479=CARTESIAN_POINT('',(0.0175,-0.02425,-0.0054));
#1480=CARTESIAN_POINT('',(0.0175,-0.0259,-0.0054));
#1481=CARTESIAN_POINT('',(0.0175,-0.0335,-0.0405902576149943));
#1482=CARTESIAN_POINT('',(0.0175,-0.0310923747169059,-0.0405902576149943));
#1483=CARTESIAN_POINT('',(0.0175,-0.0355,-0.0405902576149943));
#1484=CARTESIAN_POINT('',(0.0175,-0.0355,-0.00265));
#1485=CARTESIAN_POINT('',(0.0175,-0.0355,0.00378578643762691));
#1486=CARTESIAN_POINT('',(0.0175,-0.0377178932188134,0.00156789321881345));
#1487=CARTESIAN_POINT('',(0.0175,-0.0340857864376269,0.0052));
#1488=CARTESIAN_POINT('',(0.0175,-0.0215,0.0052));
#1489=CARTESIAN_POINT('',(0.0175,-0.0219142135623731,0.0052));
#1490=CARTESIAN_POINT('',(0.0175,-0.0237821067811866,0.00706789321881345));
#1491=CARTESIAN_POINT('',(0.0175,-0.0205,0.0037857864376269));
#1492=CARTESIAN_POINT('',(0.0175,-0.0205,-0.0250044711773674));
#1493=CARTESIAN_POINT('',(0.0175,-0.0205,-0.0247016955396354));
#1494=CARTESIAN_POINT('',(0.0175,-0.0143222943663221,-0.0154351370891186));
#1495=CARTESIAN_POINT('',(0.0188393970434558,-0.0335,-0.0430044711773674));
#1496=CARTESIAN_POINT('',(0.03625,-0.0365,-0.0430044711773674));
#1497=CARTESIAN_POINT('',(0.03625,-0.0355,-0.0430044711773674));
#1498=CARTESIAN_POINT('',(0.0188393970434558,-0.0355,-0.0430044711773674));
#1499=CARTESIAN_POINT('',(0.0195,-0.0355,-0.0430044711773674));
#1500=CARTESIAN_POINT('',(0.0195,-0.0335,-0.0430044711773674));
#1501=CARTESIAN_POINT('',(0.0195,-0.0315,-0.0430044711773674));
#1502=CARTESIAN_POINT('',(0.0201787940869115,-0.0315,-0.0430044711773674));
#1503=CARTESIAN_POINT('',(0.0201787940869115,-0.0315,-0.0430044711773674));
#1504=CARTESIAN_POINT('',(0.0201787940869115,-0.0195,-0.0430044711773674));
#1505=CARTESIAN_POINT('',(0.03825,-0.0335,-0.015));
#1506=CARTESIAN_POINT('',(0.03825,-0.0335,-0.0135));
#1507=CARTESIAN_POINT('',(0.03825,-0.0355,-0.0135));
#1508=CARTESIAN_POINT('',(0.03825,-0.0355,-0.0410044711773674));
#1509=CARTESIAN_POINT('',(0.03825,-0.0355,-0.0410044711773674));
#1510=CARTESIAN_POINT('',(0.03825,-0.0335,-0.0410044711773674));
#1511=CARTESIAN_POINT('',(0.03825,-0.0195,-0.0215));
#1512=CARTESIAN_POINT('',(0.03825,-0.0315,-0.0215));
#1513=CARTESIAN_POINT('',(0.03825,-0.0315,-0.015));
#1514=CARTESIAN_POINT('',(0.03825,-0.0315,-0.0185));
#1515=CARTESIAN_POINT('',(0.03825,-0.0195,-0.0185));
#1516=CARTESIAN_POINT('',(0.0361143970434557,-0.0335,-0.0370044711773674));
#1517=CARTESIAN_POINT('',(0.0361143970434557,-0.0355,-0.0345044711773674));
#1518=CARTESIAN_POINT('',(0.0292143970434557,-0.0335,-0.00265));
#1519=CARTESIAN_POINT('',(0.0320220702785401,-0.03175,-0.0054));
#1520=CARTESIAN_POINT('',(0.0197198888181602,-0.0340505212382637,0.00664947876173632));
#1521=CARTESIAN_POINT('',(0.0211997661723967,-0.0355,0.0052));
#1522=CARTESIAN_POINT('',(0.0368211877529507,-0.0355,-0.0101005374021855));
#1523=CARTESIAN_POINT('',(0.0368211877529507,-0.0355,-0.0101005374021854));
#1524=CARTESIAN_POINT('',(0.0368211877529507,-0.0335,-0.0101005374021854));
#1525=CARTESIAN_POINT('',(0.0256143970434557,-0.0335,-0.0370044711773674));
#1526=CARTESIAN_POINT('',(0.0256143970434557,-0.0355,-0.0345044711773674));
#1527=CARTESIAN_POINT('',(0.010875,-0.0365,-0.0184022355886837));
#1528=CARTESIAN_POINT('',(0.0349692841345153,-0.0365,-0.00827527955821776));
#1529=CARTESIAN_POINT('',(0.03725,-0.0365,-0.0137016106223367));
#1530=CARTESIAN_POINT('',(0.0359774245908785,-0.0365,-0.010673870263069));
#1531=CARTESIAN_POINT('',(0.0215210069589747,-0.0365,0.00348559387647535));
#1532=CARTESIAN_POINT('',(0.0212145187337686,-0.0365,0.00378578643762693));
#1533=CARTESIAN_POINT('',(0.010875,-0.0365,0.00378578643762693));
#1534=CARTESIAN_POINT('',(0.0185,-0.0365,0.00378578643762693));
#1535=CARTESIAN_POINT('',(0.0185,-0.0365,-0.0184022355886837));
#1536=CARTESIAN_POINT('',(0.0185,-0.0365,-0.0405902576149943));
#1537=CARTESIAN_POINT('',(0.00359348898684467,-0.0365,-0.0256837466018391));
#1538=CARTESIAN_POINT('',(0.0199142135623731,-0.0365,-0.0420044711773674));
#1539=CARTESIAN_POINT('',(0.010875,-0.0365,-0.0420044711773674));
#1540=CARTESIAN_POINT('',(0.0230854772518934,-0.0365,-0.0420044711773674));
#1541=CARTESIAN_POINT('',(0.0239643970434557,-0.0365,-0.0395044711773674));
#1542=CARTESIAN_POINT('',(0.0213143970434557,-0.0365,-0.0395044711773674));
#1543=CARTESIAN_POINT('',(0.0213143970434557,-0.0365,-0.0184022355886837));
#1544=CARTESIAN_POINT('',(0.0213143970434557,-0.0365,-0.0345044711773674));
#1545=CARTESIAN_POINT('',(0.0239643970434557,-0.0365,-0.0345044711773674));
#1546=CARTESIAN_POINT('',(0.0266143970434557,-0.0365,-0.0345044711773674));
#1547=CARTESIAN_POINT('',(0.0266143970434557,-0.0365,-0.0395044711773674));
#1548=CARTESIAN_POINT('',(0.0266143970434557,-0.0365,-0.0395044711773674));
#1549=CARTESIAN_POINT('',(0.0239643970434557,-0.0365,-0.0395044711773674));
#1550=CARTESIAN_POINT('',(0.024843316835018,-0.0365,-0.0420044711773674));
#1551=CARTESIAN_POINT('',(0.010875,-0.0365,-0.0420044711773674));
#1552=CARTESIAN_POINT('',(0.0335854772518934,-0.0365,-0.0420044711773674));
#1553=CARTESIAN_POINT('',(0.0344643970434557,-0.0365,-0.0395044711773674));
#1554=CARTESIAN_POINT('',(0.0318143970434557,-0.0365,-0.0395044711773674));
#1555=CARTESIAN_POINT('',(0.0318143970434557,-0.0365,-0.0184022355886837));
#1556=CARTESIAN_POINT('',(0.0318143970434557,-0.0365,-0.0345044711773674));
#1557=CARTESIAN_POINT('',(0.0344643970434557,-0.0365,-0.0345044711773674));
#1558=CARTESIAN_POINT('',(0.0371143970434557,-0.0365,-0.0345044711773674));
#1559=CARTESIAN_POINT('',(0.0371143970434557,-0.0365,-0.0395044711773674));
#1560=CARTESIAN_POINT('',(0.0371143970434557,-0.0365,-0.0395044711773674));
#1561=CARTESIAN_POINT('',(0.0344643970434557,-0.0365,-0.0395044711773674));
#1562=CARTESIAN_POINT('',(0.035343316835018,-0.0365,-0.0420044711773674));
#1563=CARTESIAN_POINT('',(0.010875,-0.0365,-0.0420044711773674));
#1564=CARTESIAN_POINT('',(0.0358357864376269,-0.0365,-0.0420044711773674));
#1565=CARTESIAN_POINT('',(0.0351565110131552,-0.0365,-0.0426837466018391));
#1566=CARTESIAN_POINT('',(0.03725,-0.0365,-0.0405902576149943));
#1567=CARTESIAN_POINT('',(0.03725,-0.0365,-0.0135));
#1568=CARTESIAN_POINT('',(0.0201787940869115,-0.0195,-0.0370044711773674));
#1569=CARTESIAN_POINT('',(0.0201787940869115,-0.0315,-0.0430044711773674));
#1570=CARTESIAN_POINT('',(0.0201787940869115,-0.0195,-0.0250044711773674));
#1571=CARTESIAN_POINT('',(0.0201787940869115,-0.0195,-0.0370044711773674));
#1572=CARTESIAN_POINT('',(0.0201787940869115,-0.0195,-0.0215));
#1573=CARTESIAN_POINT('',(0.0201787940869115,-0.0195,-0.0215));
#1574=CARTESIAN_POINT('',(0.0292143970434557,-0.0195,-0.0215));
#1575=CARTESIAN_POINT('',(0.0292143970434557,-0.0195,-0.0215));
#1576=CARTESIAN_POINT('',(0.02025,-0.0195,-0.0215));
#1577=CARTESIAN_POINT('',(0.0264561210300847,-0.0236374140200565,-0.0215));
#1578=CARTESIAN_POINT('',(0.0292143970434557,-0.0195,-0.0185));
#1579=CARTESIAN_POINT('',(0.02025,-0.0195,-0.0185));
#1580=CARTESIAN_POINT('',(0.02025,-0.0195,-0.0185));
#1581=CARTESIAN_POINT('',(0.0292143970434557,-0.0195,-0.0185));
#1582=CARTESIAN_POINT('',(0.0201787940869115,-0.0195,-0.0185));
#1583=CARTESIAN_POINT('',(0.0201787940869115,-0.0195,-0.0185));
#1584=CARTESIAN_POINT('',(0.0201787940869115,-0.0195,-0.00265));
#1585=CARTESIAN_POINT('',(0.0201787940869115,-0.03175,-0.0054));
#1586=CARTESIAN_POINT('',(0.0201787940869115,-0.0334,-0.0054));
#1587=CARTESIAN_POINT('',(0.0201787940869115,-0.02425,-0.0054));
#1588=CARTESIAN_POINT('',(0.0201787940869115,-0.0259,-0.0054));
#1589=CARTESIAN_POINT('',(0.0201787940869115,-0.0195,-0.00265));
#1590=CARTESIAN_POINT('',(0.0201787940869115,-0.0195,0.0042));
#1591=CARTESIAN_POINT('',(0.0201787940869115,-0.0195,0.0042));
#1592=CARTESIAN_POINT('',(0.010875,-0.0195,-0.0184022355886837));
#1593=CARTESIAN_POINT('',(0.0175,-0.0195,-0.0250044711773674));
#1594=CARTESIAN_POINT('',(0.0185,-0.0195,-0.0250044711773674));
#1595=CARTESIAN_POINT('',(0.0185,-0.0195,0.0042));
#1596=CARTESIAN_POINT('',(0.0185,-0.0195,0.0042));
#1597=CARTESIAN_POINT('',(0.010875,-0.0195,0.0042));
#1598=CARTESIAN_POINT('',(0.02025,-0.0195,-0.0184022355886837));
#1599=CARTESIAN_POINT('',(0.0188393970434558,-0.0315,-0.0430044711773674));
#1600=CARTESIAN_POINT('',(0.0192297533359592,-0.0313198355573061,-0.0427342245133265));
#1601=CARTESIAN_POINT('',(0.0185,-0.0308333333333333,-0.0420044711773674));
#1602=CARTESIAN_POINT('',(0.0185,-0.0315,-0.0430044711773674));
#1603=CARTESIAN_POINT('',(0.02025,-0.0195,-0.0184022355886837));
#1604=CARTESIAN_POINT('',(0.0175,-0.0335,-0.0410044711773674));
#1605=CARTESIAN_POINT('',(0.0177928932188135,-0.0335,-0.0412973643961808));
#1606=CARTESIAN_POINT('',(0.0177928932188135,-0.0355,-0.0412973643961808));
#1607=CARTESIAN_POINT('',(0.0177928932188135,-0.0312117653981411,-0.0412973643961808));
#1608=CARTESIAN_POINT('',(0.0170010828246474,-0.0316355294609008,-0.0405055540020147));
#1609=CARTESIAN_POINT('',(0.0175,-0.0355,-0.0410044711773674));
#1610=CARTESIAN_POINT('',(0.010875,-0.0195,0.0042));
#1611=CARTESIAN_POINT('',(0.0185,-0.0195,0.0042));
#1612=CARTESIAN_POINT('',(0.0188393970434558,-0.0345,0.0062));
#1613=CARTESIAN_POINT('',(0.0185,-0.0345,0.0062));
#1614=CARTESIAN_POINT('',(0.0185,-0.0362071067811865,0.00449289321881346));
#1615=CARTESIAN_POINT('',(0.0188393970434558,-0.0362071067811865,0.00449289321881346));
#1616=CARTESIAN_POINT('',(0.0209111620081463,-0.0362071067811865,0.00449289321881346));
#1617=CARTESIAN_POINT('',(0.0213950478955701,-0.035021541793909,0.00567845820609096));
#1618=CARTESIAN_POINT('',(0.03825,-0.0335,-0.0135));
#1619=CARTESIAN_POINT('',(0.03825,-0.0355,-0.0135));
#1620=CARTESIAN_POINT('',(0.03625,-0.0335,-0.0430044711773674));
#1621=CARTESIAN_POINT('',(0.03625,-0.0355,-0.0430044711773674));
#1622=CARTESIAN_POINT('',(0.0239643970434557,-0.0365,-0.0345044711773674));
#1623=CARTESIAN_POINT('',(0.0266143970434557,-0.0365,-0.0345044711773674));
#1624=CARTESIAN_POINT('',(0.0223143970434557,-0.0355,-0.0345044711773674));
#1625=CARTESIAN_POINT('',(0.0344643970434557,-0.0365,-0.0345044711773674));
#1626=CARTESIAN_POINT('',(0.0371143970434557,-0.0365,-0.0345044711773674));
#1627=CARTESIAN_POINT('',(0.0328143970434557,-0.0355,-0.0345044711773674));
#1628=CARTESIAN_POINT('',(0.0213143970434557,-0.0365,-0.0184022355886837));
#1629=CARTESIAN_POINT('',(0.0223143970434557,-0.0355,-0.0395044711773674));
#1630=CARTESIAN_POINT('',(0.0256143970434557,-0.0355,-0.0370044711773674));
#1631=CARTESIAN_POINT('',(0.0266143970434557,-0.0365,-0.0395044711773674));
#1632=CARTESIAN_POINT('',(0.0318143970434557,-0.0365,-0.0184022355886837));
#1633=CARTESIAN_POINT('',(0.0328143970434557,-0.0355,-0.0395044711773674));
#1634=CARTESIAN_POINT('',(0.0361143970434557,-0.0355,-0.0370044711773674));
#1635=CARTESIAN_POINT('',(0.0371143970434557,-0.0365,-0.0395044711773674));
#1636=CARTESIAN_POINT('',(0.03825,-0.0355,-0.015));
#1637=CARTESIAN_POINT('',(0.0366852768586357,-0.0370647231413644,-0.0403563416308552));
#1638=CARTESIAN_POINT('',(0.0381018038853529,-0.035648196114647,-0.0135298779109019));
#1639=CARTESIAN_POINT('',(0.0175,-0.0237821067811866,0.00706789321881345));
#1640=CARTESIAN_POINT('',(0.0162110771620334,-0.0224481028827113,0.00391107716203346));
#1641=CARTESIAN_POINT('',(0.0166146446609407,-0.0213853553390593,0.0034190602486691));
#1642=CARTESIAN_POINT('',(0.0349692841345153,-0.0365,-0.00827527955821777));
#1643=CARTESIAN_POINT('',(0.0361943183857822,-0.0362429446974539,-0.0105264920110549));
#1644=CARTESIAN_POINT('',(0.0239643970434557,-0.0365,-0.0395044711773674));
#1645=CARTESIAN_POINT('',(0.024843316835018,-0.0365,-0.0420044711773674));
#1646=CARTESIAN_POINT('',(0.0242642600246461,-0.0364011758269758,-0.0421032953503916));
#1647=CARTESIAN_POINT('',(0.0236648879982105,-0.0364011154228384,-0.042103355754529));
#1648=CARTESIAN_POINT('',(0.0230854772518934,-0.0365,-0.0420044711773674));
#1649=CARTESIAN_POINT('',(0.0344643970434557,-0.0365,-0.0395044711773674));
#1650=CARTESIAN_POINT('',(0.035343316835018,-0.0365,-0.0420044711773674));
#1651=CARTESIAN_POINT('',(0.0347642600246461,-0.0364011758269758,-0.0421032953503917));
#1652=CARTESIAN_POINT('',(0.0341648879982105,-0.0364011154228384,-0.042103355754529));
#1653=CARTESIAN_POINT('',(0.0335854772518934,-0.0365,-0.0420044711773674));
#1654=CARTESIAN_POINT('',(0.0351565110131552,-0.0365,-0.0426837466018391));
#1655=CARTESIAN_POINT('',(0.0338636703062725,-0.0412611095108907,-0.0372433616664767));
#1656=CARTESIAN_POINT('',(0.0175,-0.0205,-0.00265));
#1657=CARTESIAN_POINT('',(0.0143079542533645,-0.0236920457466354,-0.0237352218530282));
#1658=CARTESIAN_POINT('',(0.0185,-0.0335,0.0062));
#1659=CARTESIAN_POINT('',(0.0165202314107542,-0.0336799529999741,0.00422023141075423));
#1660=CARTESIAN_POINT('',(0.0292143970434557,-0.0355,-0.00265));
#1661=CARTESIAN_POINT('',(0.0242062820702631,-0.0393885701866546,-0.00318783888286096));
#1662=CARTESIAN_POINT('',(0.010875,-0.0365,-0.0420044711773674));
#1663=CARTESIAN_POINT('',(0.0217378096619643,-0.0409025504359236,-0.0376019207414439));
#1664=CARTESIAN_POINT('',(0.0175,-0.0143222943663221,-0.0154351370891186));
#1665=CARTESIAN_POINT('',(0.00784027935977421,-0.0271548283563244,-0.0172696290366262));
#1666=CARTESIAN_POINT('',(0.0175,-0.0377178932188134,0.00156789321881345));
#1667=CARTESIAN_POINT('',(0.0175,-0.0355,0.00378578643762691));
#1668=CARTESIAN_POINT('',(0.010875,-0.0365,0.00378578643762693));
#1669=CARTESIAN_POINT('',(0.0185,-0.0363535533905932,0.0041393398282202));
#1670=CARTESIAN_POINT('',(0.00359348898684467,-0.0365,-0.0256837466018391));
#1671=CARTESIAN_POINT('',(0.0185,-0.0365,-0.0405902576149943));
#1672=CARTESIAN_POINT('',(0.0175,-0.0335,-0.0405902576149943));
#1673=CARTESIAN_POINT('',(0.0176464466094068,-0.0355,-0.0409438110055876));
#1674=CARTESIAN_POINT('',(0.0175,-0.0355,0.00378578643762691));
#1675=CARTESIAN_POINT('',(0.0175,-0.0355,0.00378578643762691));
#1676=CARTESIAN_POINT('',(0.0185,-0.0365,-0.0405902576149943));
#1677=CARTESIAN_POINT('',(0.0185,-0.0365,-0.0405902576149943));
#1678=CARTESIAN_POINT('',(0.0185,-0.0365,-0.0184022355886837));
#1679=CARTESIAN_POINT('',(0.0201787940869115,-0.02425,-0.0054));
#1680=CARTESIAN_POINT('',(0.0201787940869115,-0.03175,-0.0054));
#1681=CARTESIAN_POINT('',(0.02025,-0.02875,-0.0054));
#1682=CARTESIAN_POINT('',(0.02025,-0.03175,-0.0054));
#1683=CARTESIAN_POINT('',(0.03825,-0.03175,-0.0054));
#1684=MECHANICAL_DESIGN_GEOMETRIC_PRESENTATION_REPRESENTATION('',(#1029),
#1685);
#1685=(
GEOMETRIC_REPRESENTATION_CONTEXT(3)
GLOBAL_UNCERTAINTY_ASSIGNED_CONTEXT((#1686))
GLOBAL_UNIT_ASSIGNED_CONTEXT((#1689,#1688,#1687))
REPRESENTATION_CONTEXT('Part 22','TOP_LEVEL_ASSEMBLY_PART')
);
#1686=UNCERTAINTY_MEASURE_WITH_UNIT(LENGTH_MEASURE(2.E-5),#1689,
'DISTANCE_ACCURACY_VALUE','Maximum Tolerance applied to model');
#1687=(
NAMED_UNIT(*)
SI_UNIT($,.STERADIAN.)
SOLID_ANGLE_UNIT()
);
#1688=(
NAMED_UNIT(*)
PLANE_ANGLE_UNIT()
SI_UNIT($,.RADIAN.)
);
#1689=(
LENGTH_UNIT()
NAMED_UNIT(*)
SI_UNIT($,.METRE.)
);
#1690=PRODUCT_DEFINITION_SHAPE('','',#1691);
#1691=PRODUCT_DEFINITION('','',#1693,#1692);
#1692=PRODUCT_DEFINITION_CONTEXT('',#1699,'design');
#1693=PRODUCT_DEFINITION_FORMATION_WITH_SPECIFIED_SOURCE('','',#1695,
 .NOT_KNOWN.);
#1694=PRODUCT_RELATED_PRODUCT_CATEGORY('','',(#1695));
#1695=PRODUCT('Part 22','Part 22','Part 22',(#1697));
#1696=PRODUCT_CATEGORY('','');
#1697=PRODUCT_CONTEXT('',#1699,'mechanical');
#1698=APPLICATION_PROTOCOL_DEFINITION('international standard',
'ap242_managed_model_based_3d_engineering',2020,#1699);
#1699=APPLICATION_CONTEXT('managed model based 3d engineering');
ENDSEC;
END-ISO-10303-21;
