ISO-10303-21;
HEADER;
/* Generated by software containing ST-Developer
 * from STEP Tools, Inc. (www.steptools.com) 
 */
/* OPTION: using custom renumber hook */

FILE_DESCRIPTION(
/* description */ ('STEP AP242 Edition 2',
'CAx-IF Rec.Pracs.---Representation and Presentation of Product Manufa
cturing Information (PMI)---4.0---2014-10-13',
'CAx-IF Rec.Pracs.---3D Tessellated Geometry---0.4---2014-09-14','2;1',
'CAx-IF Rec.Pracs.---User Defined Attributes---1.5---2016-08-15'),
/* implementation_level */ '2;1');

FILE_NAME(
/* name */ 'toolhead v4 - duct (1)',
/* time_stamp */ '2026-08-19T20:10:38Z',
/* author */ (''),
/* organization */ (''),
/* preprocessor_version */ 'ST-DEVELOPER v20',
/* originating_system */ 'ONSHAPE BY PTC INC, 1.219',
/* authorisation */ '  ');

FILE_SCHEMA (('AP242_MANAGED_MODEL_BASED_3D_ENGINEERING_MIM_LF { 1 0 10303 442 3 1 4 }'));
ENDSEC;

DATA;
#10=SHAPE_REPRESENTATION_RELATIONSHIP('','',#359,#11);
#11=ADVANCED_BREP_SHAPE_REPRESENTATION('',(#357),#726);
#12=CIRCLE('',#365,0.00201620296600789);
#13=CIRCLE('',#369,0.0020161884117352);
#14=ELLIPSE('',#364,0.00313665499400509,0.00201620296600789);
#15=ELLIPSE('',#368,0.00313663235157628,0.0020161884117352);
#16=CYLINDRICAL_SURFACE('',#363,0.00201620296600789);
#17=CYLINDRICAL_SURFACE('',#367,0.0020161884117352);
#18=B_SPLINE_CURVE_WITH_KNOTS('',3,(#463,#464,#465,#466,#467,#468,#469),
 .UNSPECIFIED.,.F.,.F.,(4,1,1,1,4),(0.,0.00101344685045985,0.00202689370091969,
0.00304034055137954,0.00405378740183939),.UNSPECIFIED.);
#19=B_SPLINE_CURVE_WITH_KNOTS('',3,(#471,#472,#473,#474,#475),
 .UNSPECIFIED.,.F.,.F.,(4,1,4),(0.5,0.538592769481397,0.590049795456593),
 .UNSPECIFIED.);
#20=B_SPLINE_CURVE_WITH_KNOTS('',3,(#549,#550,#551,#552,#553,#554,#555,
#556,#557,#558,#559,#560,#561,#562,#563),.UNSPECIFIED.,.F.,.F.,(4,1,1,1,
1,1,1,1,1,1,1,1,4),(0.,0.00275422742481825,0.00413134113722737,0.00481989799343193,
0.00550845484963649,0.00619701170584106,0.00654129013394334,0.00688556856204562,
0.00757412541825018,0.00826268227445474,0.0089512391306593,0.00963979598686386,
0.011016909699273),.UNSPECIFIED.);
#21=B_SPLINE_CURVE_WITH_KNOTS('',3,(#565,#566,#567,#568,#569,#570,#571,
#572,#573,#574,#575,#576,#577,#578),.UNSPECIFIED.,.F.,.F.,(4,2,1,2,2,1,
2,4),(-0.475835738566323,-0.245632948366237,-0.212619939357075,-0.179606930347914,
-0.150453935638432,-0.0986086307892044,-0.0467633259399767,6.9913949845611E-16),
 .UNSPECIFIED.);
#22=B_SPLINE_CURVE_WITH_KNOTS('',3,(#591,#592,#593,#594,#595,#596),
 .UNSPECIFIED.,.F.,.F.,(4,1,1,4),(0.,0.000690446306769095,0.00138089261353819,
0.00276178522707638),.UNSPECIFIED.);
#23=B_SPLINE_CURVE_WITH_KNOTS('',3,(#601,#602,#603,#604,#605),
 .UNSPECIFIED.,.F.,.F.,(4,1,4),(-1.,-0.571428571428571,0.),
 .UNSPECIFIED.);
#24=B_SPLINE_CURVE_WITH_KNOTS('',3,(#638,#639,#640,#641,#642,#643,#644,
#645,#646,#647,#648,#649,#650,#651,#652),.UNSPECIFIED.,.F.,.F.,(4,1,1,1,
1,1,1,1,1,1,1,1,4),(0.,0.00137680406911095,0.00206520610366642,0.00275360813822189,
0.00344201017277737,0.00413041220733284,0.00447461322461058,0.00481881424188831,
0.00550721627644379,0.00619561831099926,0.00688402034555473,0.00826082441466568,
0.0110144325528876),.UNSPECIFIED.);
#25=B_SPLINE_CURVE_WITH_KNOTS('',3,(#654,#655,#656,#657,#658,#659,#660,
#661,#662,#663,#664,#665,#666),.UNSPECIFIED.,.F.,.F.,(4,2,1,2,2,2,4),(-1.,
-0.953236609695339,-0.908112122513132,-0.862987635330925,-0.849545999996883,
-0.810166820916266,-0.524160289010804),.UNSPECIFIED.);
#26=B_SPLINE_CURVE_WITH_KNOTS('',3,(#685,#686,#687,#688,#689,#690,#691),
 .UNSPECIFIED.,.F.,.F.,(4,1,1,1,4),(1.41196261246345E-17,0.00101819268731885,
0.00203638537463769,0.00305457806195653,0.00407277074927537),
 .UNSPECIFIED.);
#27=B_SPLINE_CURVE_WITH_KNOTS('',3,(#692,#693,#694,#695,#696),
 .UNSPECIFIED.,.F.,.F.,(4,1,4),(0.610106802677745,0.648699572159143,0.70015659813434),
 .UNSPECIFIED.);
#28=B_SPLINE_CURVE_WITH_KNOTS('',3,(#707,#708,#709,#710,#711,#712),
 .UNSPECIFIED.,.F.,.F.,(4,1,1,4),(5.98919403711487E-17,0.00137346072857532,
0.00206019109286295,0.00274692145715059),.UNSPECIFIED.);
#29=B_SPLINE_CURVE_WITH_KNOTS('',3,(#713,#714,#715,#716,#717,#718,#719),
 .UNSPECIFIED.,.F.,.F.,(4,1,2,4),(-1.,-0.428222528169177,-0.047037546948628,
0.),.UNSPECIFIED.);
#30=B_SPLINE_SURFACE_WITH_KNOTS('',3,1,((#453,#454),(#455,#456),(#457,#458),
(#459,#460),(#461,#462)),.SURF_OF_LINEAR_EXTRUSION.,.F.,.F.,.F.,(4,1,4),
(2,2),(0.5,0.545024897728297,0.590049795456593),(0.,1.),.UNSPECIFIED.);
#31=B_SPLINE_SURFACE_WITH_KNOTS('',3,1,((#523,#524),(#525,#526),(#527,#528),
(#529,#530),(#531,#532),(#533,#534),(#535,#536),(#537,#538),(#539,#540),
(#541,#542),(#543,#544),(#545,#546),(#547,#548)),
 .SURF_OF_LINEAR_EXTRUSION.,.F.,.F.,.F.,(4,1,1,1,1,1,1,1,1,1,4),(2,2),(-0.475835738566323,
-0.356876803924742,-0.297397336603952,-0.237917869283161,-0.178438401962371,
-0.148698668301975,-0.11895893464158,-0.089219200981185,-0.0594794673207898,
-0.0297397336603945,6.9913949845611E-16),(0.,1.),.UNSPECIFIED.);
#32=B_SPLINE_SURFACE_WITH_KNOTS('',3,1,((#581,#582),(#583,#584),(#585,#586),
(#587,#588),(#589,#590)),.SURF_OF_LINEAR_EXTRUSION.,.F.,.F.,.F.,(4,1,4),
(2,2),(-1.,-0.499999999999999,2.76224060830377E-15),(0.,1.),
 .UNSPECIFIED.);
#33=B_SPLINE_SURFACE_WITH_KNOTS('',3,1,((#608,#609),(#610,#611),(#612,#613),
(#614,#615),(#616,#617),(#618,#619),(#620,#621),(#622,#623),(#624,#625),
(#626,#627),(#628,#629),(#630,#631),(#632,#633),(#634,#635),(#636,#637)),
 .SURF_OF_LINEAR_EXTRUSION.,.F.,.F.,.F.,(4,1,1,1,1,1,1,1,1,1,1,1,4),(2,
2),(-1.,-0.970260018063175,-0.955390027094763,-0.94052003612635,-0.910780054189526,
-0.881040072252701,-0.851300090315876,-0.821560108379051,-0.762080144505402,
-0.702600180631752,-0.643120216758103,-0.583640252884454,-0.524160289010804),
(0.,1.),.UNSPECIFIED.);
#34=B_SPLINE_SURFACE_WITH_KNOTS('',3,1,((#675,#676),(#677,#678),(#679,#680),
(#681,#682),(#683,#684)),.SURF_OF_LINEAR_EXTRUSION.,.F.,.F.,.F.,(4,1,4),
(2,2),(0.610106802677745,0.655131700406042,0.70015659813434),(0.,1.),
 .UNSPECIFIED.);
#35=B_SPLINE_SURFACE_WITH_KNOTS('',3,1,((#697,#698),(#699,#700),(#701,#702),
(#703,#704),(#705,#706)),.SURF_OF_LINEAR_EXTRUSION.,.F.,.F.,.F.,(4,1,4),
(2,2),(-1.,-0.5,8.10481562078876E-17),(0.,1.),.UNSPECIFIED.);
#36=ORIENTED_EDGE('',*,*,#132,.F.);
#37=ORIENTED_EDGE('',*,*,#133,.F.);
#38=ORIENTED_EDGE('',*,*,#134,.F.);
#39=ORIENTED_EDGE('',*,*,#135,.T.);
#40=ORIENTED_EDGE('',*,*,#136,.F.);
#41=ORIENTED_EDGE('',*,*,#135,.F.);
#42=ORIENTED_EDGE('',*,*,#137,.F.);
#43=ORIENTED_EDGE('',*,*,#138,.T.);
#44=ORIENTED_EDGE('',*,*,#139,.F.);
#45=ORIENTED_EDGE('',*,*,#138,.F.);
#46=ORIENTED_EDGE('',*,*,#140,.T.);
#47=ORIENTED_EDGE('',*,*,#141,.T.);
#48=ORIENTED_EDGE('',*,*,#142,.F.);
#49=ORIENTED_EDGE('',*,*,#141,.F.);
#50=ORIENTED_EDGE('',*,*,#143,.F.);
#51=ORIENTED_EDGE('',*,*,#144,.T.);
#52=ORIENTED_EDGE('',*,*,#145,.F.);
#53=ORIENTED_EDGE('',*,*,#144,.F.);
#54=ORIENTED_EDGE('',*,*,#146,.F.);
#55=ORIENTED_EDGE('',*,*,#147,.T.);
#56=ORIENTED_EDGE('',*,*,#148,.F.);
#57=ORIENTED_EDGE('',*,*,#147,.F.);
#58=ORIENTED_EDGE('',*,*,#149,.F.);
#59=ORIENTED_EDGE('',*,*,#150,.T.);
#60=ORIENTED_EDGE('',*,*,#151,.F.);
#61=ORIENTED_EDGE('',*,*,#150,.F.);
#62=ORIENTED_EDGE('',*,*,#152,.F.);
#63=ORIENTED_EDGE('',*,*,#153,.T.);
#64=ORIENTED_EDGE('',*,*,#154,.F.);
#65=ORIENTED_EDGE('',*,*,#155,.F.);
#66=ORIENTED_EDGE('',*,*,#156,.T.);
#67=ORIENTED_EDGE('',*,*,#157,.T.);
#68=ORIENTED_EDGE('',*,*,#158,.F.);
#69=ORIENTED_EDGE('',*,*,#157,.F.);
#70=ORIENTED_EDGE('',*,*,#159,.F.);
#71=ORIENTED_EDGE('',*,*,#160,.T.);
#72=ORIENTED_EDGE('',*,*,#161,.F.);
#73=ORIENTED_EDGE('',*,*,#160,.F.);
#74=ORIENTED_EDGE('',*,*,#162,.T.);
#75=ORIENTED_EDGE('',*,*,#163,.T.);
#76=ORIENTED_EDGE('',*,*,#164,.F.);
#77=ORIENTED_EDGE('',*,*,#165,.F.);
#78=ORIENTED_EDGE('',*,*,#166,.T.);
#79=ORIENTED_EDGE('',*,*,#167,.T.);
#80=ORIENTED_EDGE('',*,*,#168,.F.);
#81=ORIENTED_EDGE('',*,*,#167,.F.);
#82=ORIENTED_EDGE('',*,*,#169,.T.);
#83=ORIENTED_EDGE('',*,*,#170,.T.);
#84=ORIENTED_EDGE('',*,*,#171,.F.);
#85=ORIENTED_EDGE('',*,*,#170,.F.);
#86=ORIENTED_EDGE('',*,*,#172,.F.);
#87=ORIENTED_EDGE('',*,*,#173,.T.);
#88=ORIENTED_EDGE('',*,*,#174,.F.);
#89=ORIENTED_EDGE('',*,*,#153,.F.);
#90=ORIENTED_EDGE('',*,*,#175,.F.);
#91=ORIENTED_EDGE('',*,*,#133,.T.);
#92=ORIENTED_EDGE('',*,*,#176,.F.);
#93=ORIENTED_EDGE('',*,*,#163,.F.);
#94=ORIENTED_EDGE('',*,*,#177,.T.);
#95=ORIENTED_EDGE('',*,*,#155,.T.);
#96=ORIENTED_EDGE('',*,*,#178,.F.);
#97=ORIENTED_EDGE('',*,*,#173,.F.);
#98=ORIENTED_EDGE('',*,*,#179,.T.);
#99=ORIENTED_EDGE('',*,*,#165,.T.);
#100=ORIENTED_EDGE('',*,*,#172,.T.);
#101=ORIENTED_EDGE('',*,*,#169,.F.);
#102=ORIENTED_EDGE('',*,*,#166,.F.);
#103=ORIENTED_EDGE('',*,*,#179,.F.);
#104=ORIENTED_EDGE('',*,*,#162,.F.);
#105=ORIENTED_EDGE('',*,*,#159,.T.);
#106=ORIENTED_EDGE('',*,*,#156,.F.);
#107=ORIENTED_EDGE('',*,*,#177,.F.);
#108=ORIENTED_EDGE('',*,*,#152,.T.);
#109=ORIENTED_EDGE('',*,*,#149,.T.);
#110=ORIENTED_EDGE('',*,*,#146,.T.);
#111=ORIENTED_EDGE('',*,*,#143,.T.);
#112=ORIENTED_EDGE('',*,*,#140,.F.);
#113=ORIENTED_EDGE('',*,*,#137,.T.);
#114=ORIENTED_EDGE('',*,*,#134,.T.);
#115=ORIENTED_EDGE('',*,*,#175,.T.);
#116=ORIENTED_EDGE('',*,*,#132,.T.);
#117=ORIENTED_EDGE('',*,*,#136,.T.);
#118=ORIENTED_EDGE('',*,*,#139,.T.);
#119=ORIENTED_EDGE('',*,*,#142,.T.);
#120=ORIENTED_EDGE('',*,*,#145,.T.);
#121=ORIENTED_EDGE('',*,*,#148,.T.);
#122=ORIENTED_EDGE('',*,*,#151,.T.);
#123=ORIENTED_EDGE('',*,*,#174,.T.);
#124=ORIENTED_EDGE('',*,*,#154,.T.);
#125=ORIENTED_EDGE('',*,*,#158,.T.);
#126=ORIENTED_EDGE('',*,*,#161,.T.);
#127=ORIENTED_EDGE('',*,*,#176,.T.);
#128=ORIENTED_EDGE('',*,*,#164,.T.);
#129=ORIENTED_EDGE('',*,*,#168,.T.);
#130=ORIENTED_EDGE('',*,*,#171,.T.);
#131=ORIENTED_EDGE('',*,*,#178,.T.);
#132=EDGE_CURVE('',#180,#181,#212,.F.);
#133=EDGE_CURVE('',#182,#180,#213,.T.);
#134=EDGE_CURVE('',#183,#182,#214,.T.);
#135=EDGE_CURVE('',#183,#181,#215,.T.);
#136=EDGE_CURVE('',#181,#184,#18,.T.);
#137=EDGE_CURVE('',#185,#183,#19,.T.);
#138=EDGE_CURVE('',#185,#184,#216,.T.);
#139=EDGE_CURVE('',#184,#186,#217,.T.);
#140=EDGE_CURVE('',#185,#187,#218,.T.);
#141=EDGE_CURVE('',#187,#186,#219,.T.);
#142=EDGE_CURVE('',#186,#188,#14,.F.);
#143=EDGE_CURVE('',#189,#187,#12,.F.);
#144=EDGE_CURVE('',#189,#188,#220,.T.);
#145=EDGE_CURVE('',#188,#190,#221,.F.);
#146=EDGE_CURVE('',#191,#189,#222,.T.);
#147=EDGE_CURVE('',#191,#190,#223,.T.);
#148=EDGE_CURVE('',#190,#192,#15,.F.);
#149=EDGE_CURVE('',#193,#191,#13,.F.);
#150=EDGE_CURVE('',#193,#192,#224,.T.);
#151=EDGE_CURVE('',#192,#194,#225,.F.);
#152=EDGE_CURVE('',#195,#193,#226,.T.);
#153=EDGE_CURVE('',#195,#194,#227,.T.);
#154=EDGE_CURVE('',#196,#197,#228,.T.);
#155=EDGE_CURVE('',#198,#196,#229,.T.);
#156=EDGE_CURVE('',#198,#199,#230,.T.);
#157=EDGE_CURVE('',#199,#197,#231,.T.);
#158=EDGE_CURVE('',#197,#200,#232,.F.);
#159=EDGE_CURVE('',#201,#199,#233,.T.);
#160=EDGE_CURVE('',#201,#200,#234,.T.);
#161=EDGE_CURVE('',#200,#202,#20,.T.);
#162=EDGE_CURVE('',#201,#203,#21,.T.);
#163=EDGE_CURVE('',#203,#202,#235,.T.);
#164=EDGE_CURVE('',#204,#205,#22,.T.);
#165=EDGE_CURVE('',#206,#204,#236,.T.);
#166=EDGE_CURVE('',#206,#207,#23,.T.);
#167=EDGE_CURVE('',#207,#205,#237,.T.);
#168=EDGE_CURVE('',#205,#208,#24,.T.);
#169=EDGE_CURVE('',#207,#209,#25,.T.);
#170=EDGE_CURVE('',#209,#208,#238,.T.);
#171=EDGE_CURVE('',#208,#210,#239,.F.);
#172=EDGE_CURVE('',#211,#209,#240,.T.);
#173=EDGE_CURVE('',#211,#210,#241,.T.);
#174=EDGE_CURVE('',#194,#180,#26,.T.);
#175=EDGE_CURVE('',#182,#195,#27,.T.);
#176=EDGE_CURVE('',#202,#196,#28,.T.);
#177=EDGE_CURVE('',#203,#198,#29,.T.);
#178=EDGE_CURVE('',#210,#204,#242,.T.);
#179=EDGE_CURVE('',#211,#206,#243,.T.);
#180=VERTEX_POINT('',#446);
#181=VERTEX_POINT('',#447);
#182=VERTEX_POINT('',#449);
#183=VERTEX_POINT('',#451);
#184=VERTEX_POINT('',#470);
#185=VERTEX_POINT('',#476);
#186=VERTEX_POINT('',#480);
#187=VERTEX_POINT('',#482);
#188=VERTEX_POINT('',#486);
#189=VERTEX_POINT('',#488);
#190=VERTEX_POINT('',#492);
#191=VERTEX_POINT('',#494);
#192=VERTEX_POINT('',#498);
#193=VERTEX_POINT('',#500);
#194=VERTEX_POINT('',#504);
#195=VERTEX_POINT('',#506);
#196=VERTEX_POINT('',#510);
#197=VERTEX_POINT('',#511);
#198=VERTEX_POINT('',#513);
#199=VERTEX_POINT('',#515);
#200=VERTEX_POINT('',#519);
#201=VERTEX_POINT('',#521);
#202=VERTEX_POINT('',#564);
#203=VERTEX_POINT('',#579);
#204=VERTEX_POINT('',#597);
#205=VERTEX_POINT('',#598);
#206=VERTEX_POINT('',#600);
#207=VERTEX_POINT('',#606);
#208=VERTEX_POINT('',#653);
#209=VERTEX_POINT('',#667);
#210=VERTEX_POINT('',#671);
#211=VERTEX_POINT('',#673);
#212=LINE('',#445,#244);
#213=LINE('',#448,#245);
#214=LINE('',#450,#246);
#215=LINE('',#452,#247);
#216=LINE('',#477,#248);
#217=LINE('',#479,#249);
#218=LINE('',#481,#250);
#219=LINE('',#483,#251);
#220=LINE('',#489,#252);
#221=LINE('',#491,#253);
#222=LINE('',#493,#254);
#223=LINE('',#495,#255);
#224=LINE('',#501,#256);
#225=LINE('',#503,#257);
#226=LINE('',#505,#258);
#227=LINE('',#507,#259);
#228=LINE('',#509,#260);
#229=LINE('',#512,#261);
#230=LINE('',#514,#262);
#231=LINE('',#516,#263);
#232=LINE('',#518,#264);
#233=LINE('',#520,#265);
#234=LINE('',#522,#266);
#235=LINE('',#580,#267);
#236=LINE('',#599,#268);
#237=LINE('',#607,#269);
#238=LINE('',#668,#270);
#239=LINE('',#670,#271);
#240=LINE('',#672,#272);
#241=LINE('',#674,#273);
#242=LINE('',#721,#274);
#243=LINE('',#722,#275);
#244=VECTOR('',#381,1.);
#245=VECTOR('',#382,1.);
#246=VECTOR('',#383,1.);
#247=VECTOR('',#384,1.);
#248=VECTOR('',#385,1.);
#249=VECTOR('',#388,1.);
#250=VECTOR('',#389,1.);
#251=VECTOR('',#390,1.);
#252=VECTOR('',#397,1.);
#253=VECTOR('',#400,1.);
#254=VECTOR('',#401,1.);
#255=VECTOR('',#402,1.);
#256=VECTOR('',#409,1.);
#257=VECTOR('',#412,1.);
#258=VECTOR('',#413,1.);
#259=VECTOR('',#414,1.);
#260=VECTOR('',#417,1.);
#261=VECTOR('',#418,1.);
#262=VECTOR('',#419,1.);
#263=VECTOR('',#420,1.);
#264=VECTOR('',#423,1.);
#265=VECTOR('',#424,1.);
#266=VECTOR('',#425,1.);
#267=VECTOR('',#426,1.);
#268=VECTOR('',#427,1.);
#269=VECTOR('',#428,1.);
#270=VECTOR('',#429,1.);
#271=VECTOR('',#432,1.);
#272=VECTOR('',#433,1.);
#273=VECTOR('',#434,1.);
#274=VECTOR('',#437,1.);
#275=VECTOR('',#438,1.);
#276=EDGE_LOOP('',(#36,#37,#38,#39));
#277=EDGE_LOOP('',(#40,#41,#42,#43));
#278=EDGE_LOOP('',(#44,#45,#46,#47));
#279=EDGE_LOOP('',(#48,#49,#50,#51));
#280=EDGE_LOOP('',(#52,#53,#54,#55));
#281=EDGE_LOOP('',(#56,#57,#58,#59));
#282=EDGE_LOOP('',(#60,#61,#62,#63));
#283=EDGE_LOOP('',(#64,#65,#66,#67));
#284=EDGE_LOOP('',(#68,#69,#70,#71));
#285=EDGE_LOOP('',(#72,#73,#74,#75));
#286=EDGE_LOOP('',(#76,#77,#78,#79));
#287=EDGE_LOOP('',(#80,#81,#82,#83));
#288=EDGE_LOOP('',(#84,#85,#86,#87));
#289=EDGE_LOOP('',(#88,#89,#90,#91));
#290=EDGE_LOOP('',(#92,#93,#94,#95));
#291=EDGE_LOOP('',(#96,#97,#98,#99));
#292=EDGE_LOOP('',(#100,#101,#102,#103));
#293=EDGE_LOOP('',(#104,#105,#106,#107));
#294=EDGE_LOOP('',(#108,#109,#110,#111,#112,#113,#114,#115));
#295=EDGE_LOOP('',(#116,#117,#118,#119,#120,#121,#122,#123));
#296=EDGE_LOOP('',(#124,#125,#126,#127));
#297=EDGE_LOOP('',(#128,#129,#130,#131));
#298=FACE_BOUND('',#276,.T.);
#299=FACE_BOUND('',#277,.T.);
#300=FACE_BOUND('',#278,.T.);
#301=FACE_BOUND('',#279,.T.);
#302=FACE_BOUND('',#280,.T.);
#303=FACE_BOUND('',#281,.T.);
#304=FACE_BOUND('',#282,.T.);
#305=FACE_BOUND('',#283,.T.);
#306=FACE_BOUND('',#284,.T.);
#307=FACE_BOUND('',#285,.T.);
#308=FACE_BOUND('',#286,.T.);
#309=FACE_BOUND('',#287,.T.);
#310=FACE_BOUND('',#288,.T.);
#311=FACE_BOUND('',#289,.T.);
#312=FACE_BOUND('',#290,.T.);
#313=FACE_BOUND('',#291,.T.);
#314=FACE_BOUND('',#292,.T.);
#315=FACE_BOUND('',#293,.T.);
#316=FACE_BOUND('',#294,.T.);
#317=FACE_BOUND('',#295,.T.);
#318=FACE_BOUND('',#296,.T.);
#319=FACE_BOUND('',#297,.T.);
#320=PLANE('',#361);
#321=PLANE('',#362);
#322=PLANE('',#366);
#323=PLANE('',#370);
#324=PLANE('',#371);
#325=PLANE('',#372);
#326=PLANE('',#373);
#327=PLANE('',#374);
#328=PLANE('',#375);
#329=PLANE('',#376);
#330=ADVANCED_FACE('',(#298),#320,.F.);
#331=ADVANCED_FACE('',(#299),#30,.F.);
#332=ADVANCED_FACE('',(#300),#321,.T.);
#333=ADVANCED_FACE('',(#301),#16,.T.);
#334=ADVANCED_FACE('',(#302),#322,.F.);
#335=ADVANCED_FACE('',(#303),#17,.T.);
#336=ADVANCED_FACE('',(#304),#323,.F.);
#337=ADVANCED_FACE('',(#305),#324,.T.);
#338=ADVANCED_FACE('',(#306),#325,.F.);
#339=ADVANCED_FACE('',(#307),#31,.T.);
#340=ADVANCED_FACE('',(#308),#32,.T.);
#341=ADVANCED_FACE('',(#309),#33,.T.);
#342=ADVANCED_FACE('',(#310),#326,.F.);
#343=ADVANCED_FACE('',(#311),#34,.F.);
#344=ADVANCED_FACE('',(#312),#35,.T.);
#345=ADVANCED_FACE('',(#313),#327,.T.);
#346=ADVANCED_FACE('',(#314,#315,#316),#328,.F.);
#347=ADVANCED_FACE('',(#317,#318,#319),#329,.F.);
#348=CLOSED_SHELL('',(#330,#331,#332,#333,#334,#335,#336,#337,#338,#339,
#340,#341,#342,#343,#344,#345,#346,#347));
#349=STYLED_ITEM('',(#350),#357);
#350=PRESENTATION_STYLE_ASSIGNMENT((#351));
#351=SURFACE_STYLE_USAGE(.BOTH.,#352);
#352=SURFACE_SIDE_STYLE('',(#353));
#353=SURFACE_STYLE_FILL_AREA(#354);
#354=FILL_AREA_STYLE('',(#355));
#355=FILL_AREA_STYLE_COLOUR('',#356);
#356=COLOUR_RGB('',0.980392156862745,0.713725490196078,0.00392156862745098);
#357=MANIFOLD_SOLID_BREP('duct',#348);
#358=SHAPE_DEFINITION_REPRESENTATION(#731,#359);
#359=SHAPE_REPRESENTATION('duct',(#360),#726);
#360=AXIS2_PLACEMENT_3D('',#443,#377,#378);
#361=AXIS2_PLACEMENT_3D('',#444,#379,#380);
#362=AXIS2_PLACEMENT_3D('',#478,#386,#387);
#363=AXIS2_PLACEMENT_3D('',#484,#391,#392);
#364=AXIS2_PLACEMENT_3D('',#485,#393,#394);
#365=AXIS2_PLACEMENT_3D('',#487,#395,#396);
#366=AXIS2_PLACEMENT_3D('',#490,#398,#399);
#367=AXIS2_PLACEMENT_3D('',#496,#403,#404);
#368=AXIS2_PLACEMENT_3D('',#497,#405,#406);
#369=AXIS2_PLACEMENT_3D('',#499,#407,#408);
#370=AXIS2_PLACEMENT_3D('',#502,#410,#411);
#371=AXIS2_PLACEMENT_3D('',#508,#415,#416);
#372=AXIS2_PLACEMENT_3D('',#517,#421,#422);
#373=AXIS2_PLACEMENT_3D('',#669,#430,#431);
#374=AXIS2_PLACEMENT_3D('',#720,#435,#436);
#375=AXIS2_PLACEMENT_3D('',#723,#439,#440);
#376=AXIS2_PLACEMENT_3D('',#724,#441,#442);
#377=DIRECTION('',(0.,0.,1.));
#378=DIRECTION('',(1.,0.,0.));
#379=DIRECTION('',(-3.55752227068792E-15,1.,2.98511562523974E-15));
#380=DIRECTION('',(0.642787609686608,0.,0.766044443118921));
#381=DIRECTION('',(1.,3.5575222706879E-15,7.84815266957811E-15));
#382=DIRECTION('',(0.766044443118979,4.64401550411828E-15,-0.642787609686538));
#383=DIRECTION('',(0.642787609686608,0.,0.766044443118921));
#384=DIRECTION('',(0.766044443118979,4.64401550411828E-15,-0.642787609686538));
#385=DIRECTION('',(0.766044443118979,4.64401550411828E-15,-0.642787609686538));
#386=DIRECTION('',(-0.642787609686538,8.9112727390485E-16,-0.766044443118979));
#387=DIRECTION('',(-6.75291415533807E-15,1.,6.82965181619418E-15));
#388=DIRECTION('',(1.88251503709558E-15,1.,-4.16333634234388E-16));
#389=DIRECTION('',(-6.75291415533807E-15,1.,6.82965181619418E-15));
#390=DIRECTION('',(0.766044443118979,4.64401550411828E-15,-0.642787609686538));
#391=DIRECTION('',(0.766044443118979,4.64401550411828E-15,-0.642787609686538));
#392=DIRECTION('',(-0.454519499839702,0.707106746699795,-0.541675246838085));
#393=DIRECTION('',(-7.84815266957811E-15,4.16333634234403E-16,1.));
#394=DIRECTION('',(1.,6.41167708978094E-15,7.84815266957811E-15));
#395=DIRECTION('',(0.766044443118979,4.64401550411828E-15,-0.642787609686538));
#396=DIRECTION('',(-0.642787609686538,0.,-0.766044443118979));
#397=DIRECTION('',(0.766044443118979,4.64401550411828E-15,-0.642787609686538));
#398=DIRECTION('',(3.55752227068812E-15,-1.,-2.9851156252395E-15));
#399=DIRECTION('',(-0.642787609686557,0.,-0.766044443118963));
#400=DIRECTION('',(-1.,-3.5575222706881E-15,-7.84815266957811E-15));
#401=DIRECTION('',(-0.642787609686557,0.,-0.766044443118963));
#402=DIRECTION('',(0.766044443118979,4.64401550411828E-15,-0.642787609686538));
#403=DIRECTION('',(0.766044443118979,4.64401550411828E-15,-0.642787609686538));
#404=DIRECTION('',(0.454512423386996,0.707117755535546,0.54166681345016));
#405=DIRECTION('',(-7.84815266957811E-15,4.16333634234403E-16,1.));
#406=DIRECTION('',(1.,6.41167708978094E-15,7.84815266957811E-15));
#407=DIRECTION('',(0.766044443118979,4.64401550411828E-15,-0.642787609686538));
#408=DIRECTION('',(-0.642787609686538,0.,-0.766044443118979));
#409=DIRECTION('',(0.766044443118979,4.64401550411828E-15,-0.642787609686538));
#410=DIRECTION('',(-0.642787609686538,5.29060128090978E-15,-0.766044443118979));
#411=DIRECTION('',(0.,1.,6.9063894770503E-15));
#412=DIRECTION('',(8.72688157544615E-15,1.,-4.16333634234334E-16));
#413=DIRECTION('',(0.,1.,6.9063894770503E-15));
#414=DIRECTION('',(0.766044443118979,4.64401550411828E-15,-0.642787609686538));
#415=DIRECTION('',(0.642787609686538,-1.13668704864205E-14,0.766044443118979));
#416=DIRECTION('',(0.,-1.,-1.48383955898692E-14));
#417=DIRECTION('',(-1.81798783568773E-14,-1.,4.1633363423426E-16));
#418=DIRECTION('',(0.766044443118979,4.64401550411828E-15,-0.642787609686538));
#419=DIRECTION('',(0.,-1.,-1.48383955898692E-14));
#420=DIRECTION('',(0.766044443118979,4.64401550411828E-15,-0.642787609686538));
#421=DIRECTION('',(1.96914344144082E-16,-1.,-6.99013219499895E-15));
#422=DIRECTION('',(-0.642787609686538,5.22817782406065E-15,-0.766044443118979));
#423=DIRECTION('',(-1.,-1.96914344144027E-16,-7.84815266957811E-15));
#424=DIRECTION('',(-0.642787609686538,5.22817782406065E-15,-0.766044443118979));
#425=DIRECTION('',(0.766044443118979,4.64401550411828E-15,-0.642787609686538));
#426=DIRECTION('',(0.766044443118979,4.64401550411828E-15,-0.642787609686538));
#427=DIRECTION('',(0.766044443118979,4.64401550411828E-15,-0.642787609686538));
#428=DIRECTION('',(0.766044443118979,4.64401550411828E-15,-0.642787609686538));
#429=DIRECTION('',(0.766044443118979,4.64401550411828E-15,-0.642787609686538));
#430=DIRECTION('',(-1.96914344144082E-16,1.,6.99013219499895E-15));
#431=DIRECTION('',(0.642787609686538,-5.22817782406065E-15,0.766044443118979));
#432=DIRECTION('',(1.,1.96914344144027E-16,7.84815266957811E-15));
#433=DIRECTION('',(0.642787609686538,-5.22817782406065E-15,0.766044443118979));
#434=DIRECTION('',(0.766044443118979,4.64401550411828E-15,-0.642787609686538));
#435=DIRECTION('',(0.642787609686538,0.,0.766044443118979));
#436=DIRECTION('',(0.,-1.,0.));
#437=DIRECTION('',(-4.9616710431665E-16,-1.,4.16333634234398E-16));
#438=DIRECTION('',(0.,-1.,0.));
#439=DIRECTION('',(0.766044443118979,4.64401550411828E-15,-0.642787609686538));
#440=DIRECTION('',(-0.642787609686538,5.22855037286777E-15,-0.766044443118979));
#441=DIRECTION('',(-7.84815266957811E-15,4.16333634234403E-16,1.));
#442=DIRECTION('',(1.,3.26744992295188E-30,7.84815266957811E-15));
#443=CARTESIAN_POINT('',(0.,0.,0.));
#444=CARTESIAN_POINT('',(-0.013336002521885,-0.0388096266974252,-0.0581402073816642));
#445=CARTESIAN_POINT('',(-0.013336002521885,-0.0388096266974251,-0.0623944711773673));
#446=CARTESIAN_POINT('',(-0.00676038151733274,-0.0388096266974251,-0.0623944711773673));
#447=CARTESIAN_POINT('',(-0.00826596835951241,-0.0388096266974251,-0.0623944711773673));
#448=CARTESIAN_POINT('',(-0.012713930306527,-0.0388096266974252,-0.0573988505841584));
#449=CARTESIAN_POINT('',(-0.012713930306527,-0.0388096266974252,-0.0573988505841584));
#450=CARTESIAN_POINT('',(-0.013336002521885,-0.0388096266974252,-0.0581402073816642));
#451=CARTESIAN_POINT('',(-0.013336002521885,-0.0388096266974252,-0.0581402073816642));
#452=CARTESIAN_POINT('',(-0.013336002521885,-0.0388096266974252,-0.0581402073816642));
#453=CARTESIAN_POINT('',(-0.0146319354384224,-0.0367935129811552,-0.0596846400907087));
#454=CARTESIAN_POINT('',(-0.00953148107107556,-0.0367935129811552,-0.063964429469186));
#455=CARTESIAN_POINT('',(-0.0146319354384224,-0.0373213303178082,-0.0596846400907087));
#456=CARTESIAN_POINT('',(-0.00953148107107556,-0.0373213303178081,-0.063964429469186));
#457=CARTESIAN_POINT('',(-0.0143501808403106,-0.0383708395238433,-0.0593488580361791));
#458=CARTESIAN_POINT('',(-0.00924972647296367,-0.0383708395238433,-0.0636286474146564));
#459=CARTESIAN_POINT('',(-0.0136752769660633,-0.0388096266974252,-0.0585445389193891));
#460=CARTESIAN_POINT('',(-0.00857482259871641,-0.0388096266974251,-0.0628243282978664));
#461=CARTESIAN_POINT('',(-0.013336002521885,-0.0388096266974252,-0.0581402073816642));
#462=CARTESIAN_POINT('',(-0.00823554815453816,-0.0388096266974251,-0.0624199967601415));
#463=CARTESIAN_POINT('',(-0.00826596835951241,-0.0388096266974251,-0.0623944711773673));
#464=CARTESIAN_POINT('',(-0.00860871423413706,-0.0388096266974251,-0.0623944711773673));
#465=CARTESIAN_POINT('',(-0.00928015137698855,-0.0387352165620489,-0.0623944711773672));
#466=CARTESIAN_POINT('',(-0.0102576113739837,-0.0384050875967861,-0.0623944711773673));
#467=CARTESIAN_POINT('',(-0.0111065334296446,-0.0377977383018643,-0.0623944711773673));
#468=CARTESIAN_POINT('',(-0.0114024845055736,-0.0371397628101642,-0.0623944711773673));
#469=CARTESIAN_POINT('',(-0.0114024845055736,-0.0367935129811552,-0.0623944711773673));
#470=CARTESIAN_POINT('',(-0.0114024845055735,-0.0367935129811552,-0.0623944711773673));
#471=CARTESIAN_POINT('',(-0.0146319354384224,-0.0367935129811552,-0.0596846400907087));
#472=CARTESIAN_POINT('',(-0.0146319354384224,-0.0372459278411435,-0.0596846400907087));
#473=CARTESIAN_POINT('',(-0.0143947072774977,-0.0383028918516935,-0.0594019225776623));
#474=CARTESIAN_POINT('',(-0.013723744743803,-0.0388096266974252,-0.0586023005676355));
#475=CARTESIAN_POINT('',(-0.013336002521885,-0.0388096266974252,-0.0581402073816642));
#476=CARTESIAN_POINT('',(-0.0146319354384224,-0.0367935129811552,-0.0596846400907087));
#477=CARTESIAN_POINT('',(-0.0146319354384224,-0.0367935129811552,-0.0596846400907087));
#478=CARTESIAN_POINT('',(-0.0146319354384223,-0.0367935129811552,-0.0596846400907087));
#479=CARTESIAN_POINT('',(-0.0114024845055735,-0.0367935129811552,-0.0623944711773673));
#480=CARTESIAN_POINT('',(-0.0114024930798331,-0.022325740413283,-0.0623944711773673));
#481=CARTESIAN_POINT('',(-0.0146319354384223,-0.0367935129811552,-0.0596846400907087));
#482=CARTESIAN_POINT('',(-0.0146319387895889,-0.0223257404135248,-0.0596846444734042));
#483=CARTESIAN_POINT('',(-0.0146319354384224,-0.022325740413695,-0.0596846400907086));
#484=CARTESIAN_POINT('',(-0.0133359522392327,-0.0223258026900352,-0.0581401474571324));
#485=CARTESIAN_POINT('',(-0.00826584666158402,-0.0223258026900351,-0.0623944711773673));
#486=CARTESIAN_POINT('',(-0.0082659683598486,-0.0203096132114849,-0.0623944711775677));
#487=CARTESIAN_POINT('',(-0.0133359522392327,-0.0223258026900352,-0.0581401474571324));
#488=CARTESIAN_POINT('',(-0.0133360025222214,-0.020309613211485,-0.0581402073820649));
#489=CARTESIAN_POINT('',(-0.013336002521885,-0.0203096266974251,-0.0581402073816641));
#490=CARTESIAN_POINT('',(-0.012713930306527,-0.0203096266974251,-0.0573988505841582));
#491=CARTESIAN_POINT('',(-0.012713930306527,-0.0203096266974251,-0.0623944711773673));
#492=CARTESIAN_POINT('',(-0.0067603815176111,-0.0203096427775863,-0.0623944711775333));
#493=CARTESIAN_POINT('',(-0.012713930306527,-0.0203096266974251,-0.0573988505841582));
#494=CARTESIAN_POINT('',(-0.0127139301152945,-0.0203096427775864,-0.0573988507451871));
#495=CARTESIAN_POINT('',(-0.012713930306527,-0.0203096266974251,-0.0573988505841582));
#496=CARTESIAN_POINT('',(-0.0127139652402889,-0.0223258472687503,-0.0573988922165944));
#497=CARTESIAN_POINT('',(-0.00676046606669977,-0.0223258472687503,-0.0623944711773673));
#498=CARTESIAN_POINT('',(-0.00362384954540015,-0.0223257404123901,-0.0623944711773672));
#499=CARTESIAN_POINT('',(-0.0127139652402889,-0.0223258472687503,-0.0573988922165944));
#500=CARTESIAN_POINT('',(-0.0114179908511209,-0.0223257404131559,-0.0558544100823933));
#501=CARTESIAN_POINT('',(-0.0114179973899897,-0.022325740413695,-0.0558544178751137));
#502=CARTESIAN_POINT('',(-0.0114179973899897,-0.0367935129811552,-0.0558544178751138));
#503=CARTESIAN_POINT('',(-0.00362386537127155,-0.0367935129811553,-0.0623944711773672));
#504=CARTESIAN_POINT('',(-0.00362386537127161,-0.0367935129811552,-0.0623944711773672));
#505=CARTESIAN_POINT('',(-0.0114179973899897,-0.0367935129811552,-0.0558544178751138));
#506=CARTESIAN_POINT('',(-0.0114179973899897,-0.0367935129811552,-0.0558544178751138));
#507=CARTESIAN_POINT('',(-0.0114179973899897,-0.0367935129811552,-0.0558544178751138));
#508=CARTESIAN_POINT('',(-0.0142141234921261,-0.0223257401656168,-0.0591867112026813));
#509=CARTESIAN_POINT('',(-0.0103912640181142,-0.0223257401656169,-0.0623944711773673));
#510=CARTESIAN_POINT('',(-0.0103912640181152,-0.0223257401656168,-0.0623944711773673));
#511=CARTESIAN_POINT('',(-0.0103912640181143,-0.0290596266974251,-0.0623944711773673));
#512=CARTESIAN_POINT('',(-0.0142141234921263,-0.0223257401656168,-0.0591867112026815));
#513=CARTESIAN_POINT('',(-0.0142141234921263,-0.0223257401656168,-0.0591867112026815));
#514=CARTESIAN_POINT('',(-0.0142141234921261,-0.0223257401656168,-0.0591867112026813));
#515=CARTESIAN_POINT('',(-0.0142141234921261,-0.0290596266974252,-0.0591867112026814));
#516=CARTESIAN_POINT('',(-0.0142141234921261,-0.0290596266974252,-0.0591867112026814));
#517=CARTESIAN_POINT('',(-0.0109359066827248,-0.0290596266974252,-0.0552798845427746));
#518=CARTESIAN_POINT('',(-0.0109359066827248,-0.0290596266974251,-0.0623944711773673));
#519=CARTESIAN_POINT('',(-0.00463494522601758,-0.0290596266974259,-0.0623944711773673));
#520=CARTESIAN_POINT('',(-0.0109359066827248,-0.0290596266974252,-0.0552798845427746));
#521=CARTESIAN_POINT('',(-0.0118357512306131,-0.0290596266974252,-0.0563522775151304));
#522=CARTESIAN_POINT('',(-0.0118357512306131,-0.0290596266974252,-0.0563522775151304));
#523=CARTESIAN_POINT('',(-0.0118357512304169,-0.0290596266974259,-0.0563522775148966));
#524=CARTESIAN_POINT('',(-0.00457664259910742,-0.0290596266974259,-0.0624433928901042));
#525=CARTESIAN_POINT('',(-0.0118356844386922,-0.0282390977525298,-0.0563521979156188));
#526=CARTESIAN_POINT('',(-0.0045765758073827,-0.0282390977525298,-0.0624433132908264));
#527=CARTESIAN_POINT('',(-0.0118349599434052,-0.0270083809960107,-0.0563513344957576));
#528=CARTESIAN_POINT('',(-0.00457585131209567,-0.0270083809960107,-0.0624424498709652));
#529=CARTESIAN_POINT('',(-0.0118362183206717,-0.0253674988248355,-0.0563528341713856));
#530=CARTESIAN_POINT('',(-0.00457710968936213,-0.0253674988248354,-0.0624439495465932));
#531=CARTESIAN_POINT('',(-0.0118316826757007,-0.0241365407361114,-0.0563474288001967));
#532=CARTESIAN_POINT('',(-0.00457257404439119,-0.0241365407361113,-0.0624385441754043));
#533=CARTESIAN_POINT('',(-0.0118454795412269,-0.0231113679136779,-0.0563638712642541));
#534=CARTESIAN_POINT('',(-0.00458637090991735,-0.0231113679136779,-0.0624549866394617));
#535=CARTESIAN_POINT('',(-0.0118172610805457,-0.0222895982243976,-0.0563302418123598));
#536=CARTESIAN_POINT('',(-0.00455815244923614,-0.0222895982243975,-0.0624213571875674));
#537=CARTESIAN_POINT('',(-0.0119051026830242,-0.0216779388477313,-0.0564349273576928));
#538=CARTESIAN_POINT('',(-0.00464599405171465,-0.0216779388477313,-0.0625260427329004));
#539=CARTESIAN_POINT('',(-0.0121696459472002,-0.0211973730835391,-0.0567501977431712));
#540=CARTESIAN_POINT('',(-0.0049105373158907,-0.0211973730835391,-0.0628413131183788));
#541=CARTESIAN_POINT('',(-0.0125412769493251,-0.0209375751354981,-0.0571930903250729));
#542=CARTESIAN_POINT('',(-0.00528216831801561,-0.0209375751354981,-0.0632842057002805));
#543=CARTESIAN_POINT('',(-0.0129414216481876,-0.0209658730098989,-0.0576699642074998));
#544=CARTESIAN_POINT('',(-0.00568231301687807,-0.0209658730098989,-0.0637610795827074));
#545=CARTESIAN_POINT('',(-0.013204130241175,-0.0209596266974251,-0.057983048116998));
#546=CARTESIAN_POINT('',(-0.0059450216098655,-0.0209596266974251,-0.0640741634922057));
#547=CARTESIAN_POINT('',(-0.0133360016413898,-0.0209596266974251,-0.0581402063319645));
#548=CARTESIAN_POINT('',(-0.00607689301008032,-0.0209596266974251,-0.0642313217071721));
#549=CARTESIAN_POINT('',(-0.00463494522601758,-0.0290596266974259,-0.0623944711773673));
#550=CARTESIAN_POINT('',(-0.00463476435361987,-0.0281415509030764,-0.0623944711773673));
#551=CARTESIAN_POINT('',(-0.00463421576118665,-0.0267644121994599,-0.0623944711773673));
#552=CARTESIAN_POINT('',(-0.00463387233984752,-0.0251578381157475,-0.0623944711773672));
#553=CARTESIAN_POINT('',(-0.00463346813088392,-0.0242396703913238,-0.0623944711773673));
#554=CARTESIAN_POINT('',(-0.00463406892221461,-0.023551395622388,-0.0623944711773672));
#555=CARTESIAN_POINT('',(-0.00463207309172395,-0.0229767153844801,-0.0623944711773673));
#556=CARTESIAN_POINT('',(-0.0046359412311193,-0.022519478716559,-0.0623944711773672));
#557=CARTESIAN_POINT('',(-0.0046202043560014,-0.0220531031596346,-0.0623944711773673));
#558=CARTESIAN_POINT('',(-0.00494622379844878,-0.0215410919680414,-0.0623944711773671));
#559=CARTESIAN_POINT('',(-0.00553666559694636,-0.0211778417825549,-0.0623944711773678));
#560=CARTESIAN_POINT('',(-0.0061993334311436,-0.0209797463141018,-0.0623944711773671));
#561=CARTESIAN_POINT('',(-0.00711439779955701,-0.020947337653084,-0.0623944711773674));
#562=CARTESIAN_POINT('',(-0.00780605314843438,-0.0209596266974251,-0.0623944711773673));
#563=CARTESIAN_POINT('',(-0.00826596622803384,-0.0209596266974251,-0.0623944711773673));
#564=CARTESIAN_POINT('',(-0.00826596622803378,-0.0209596266974251,-0.0623944711773673));
#565=CARTESIAN_POINT('',(-0.0118357512302365,-0.0290596266974259,-0.056352277515048));
#566=CARTESIAN_POINT('',(-0.0118356219785629,-0.0274717841942619,-0.0563521234789017));
#567=CARTESIAN_POINT('',(-0.0118353136625019,-0.0258841910067997,-0.0563517560421282));
#568=CARTESIAN_POINT('',(-0.0118351913803935,-0.0240686037299651,-0.0563516103119861));
#569=CARTESIAN_POINT('',(-0.0118351881404651,-0.0236131350933304,-0.0563516064507898));
#570=CARTESIAN_POINT('',(-0.0118351699923545,-0.0231576922860028,-0.0563515848227138));
#571=CARTESIAN_POINT('',(-0.0118351416661209,-0.0227288756491808,-0.0563515510648232));
#572=CARTESIAN_POINT('',(-0.0118351811550793,-0.0225277581623073,-0.0563515981259312));
#573=CARTESIAN_POINT('',(-0.0118349892380068,-0.0219690992578546,-0.0563513694080706));
#574=CARTESIAN_POINT('',(-0.0120267964876411,-0.0212576158775425,-0.0565799563869079));
#575=CARTESIAN_POINT('',(-0.0124841288579031,-0.0209592563214697,-0.0571249838821772));
#576=CARTESIAN_POINT('',(-0.012921304030269,-0.0209596502702954,-0.0576459889644373));
#577=CARTESIAN_POINT('',(-0.0131286445296486,-0.0209596266974251,-0.0578930877494633));
#578=CARTESIAN_POINT('',(-0.0133360016412094,-0.0209596266974251,-0.0581402063321159));
#579=CARTESIAN_POINT('',(-0.0133360016412094,-0.0209596266974251,-0.0581402063321158));
#580=CARTESIAN_POINT('',(-0.0133360016412094,-0.0209596266974251,-0.0581402063321158));
#581=CARTESIAN_POINT('',(-0.0142141234921262,-0.0367935132292333,-0.0591867112026814));
#582=CARTESIAN_POINT('',(-0.00911366908982905,-0.0367935132292333,-0.0634665006104854));
#583=CARTESIAN_POINT('',(-0.0142141234503792,-0.037151160928813,-0.0591867111529293));
#584=CARTESIAN_POINT('',(-0.0091136690480821,-0.037151160928813,-0.0634665005607334));
#585=CARTESIAN_POINT('',(-0.0140232902883126,-0.0378624134303609,-0.0589592850464504));
#586=CARTESIAN_POINT('',(-0.00892283588601552,-0.0378624134303608,-0.0632390744542545));
#587=CARTESIAN_POINT('',(-0.0135658940073464,-0.0381596267073878,-0.0584141813853696));
#588=CARTESIAN_POINT('',(-0.00846543960504928,-0.0381596267073878,-0.0626939707931737));
#589=CARTESIAN_POINT('',(-0.0133360024974237,-0.0381596266974251,-0.0581402073525124));
#590=CARTESIAN_POINT('',(-0.00823554809512655,-0.0381596266974251,-0.0624199967603164));
#591=CARTESIAN_POINT('',(-0.0103912640181143,-0.0367935132292333,-0.0623944711773673));
#592=CARTESIAN_POINT('',(-0.0103912639518054,-0.037028226398468,-0.0623944711773673));
#593=CARTESIAN_POINT('',(-0.0101925681884938,-0.0374724365183084,-0.0623944711773673));
#594=CARTESIAN_POINT('',(-0.00942296130474203,-0.0380209465983688,-0.0623944711773672));
#595=CARTESIAN_POINT('',(-0.00873006433203868,-0.0381596267057351,-0.0623944711773673));
#596=CARTESIAN_POINT('',(-0.00826596830030925,-0.0381596266974251,-0.0623944711773673));
#597=CARTESIAN_POINT('',(-0.0103912640181143,-0.0367935132292333,-0.0623944711773673));
#598=CARTESIAN_POINT('',(-0.00826596830030935,-0.0381596266974251,-0.0623944711773673));
#599=CARTESIAN_POINT('',(-0.0142141234921261,-0.0367935132292333,-0.0591867112026814));
#600=CARTESIAN_POINT('',(-0.0142141234921261,-0.0367935132292333,-0.0591867112026814));
#601=CARTESIAN_POINT('',(-0.0142141234921261,-0.0367935132292333,-0.0591867112026814));
#602=CARTESIAN_POINT('',(-0.014214123456343,-0.0371000684003016,-0.0591867111600368));
#603=CARTESIAN_POINT('',(-0.0140534626111141,-0.0378163739757129,-0.0589952430205461));
#604=CARTESIAN_POINT('',(-0.013598735651621,-0.0381596267088111,-0.0584533205329207));
#605=CARTESIAN_POINT('',(-0.0133360024974236,-0.0381596266974251,-0.0581402073525124));
#606=CARTESIAN_POINT('',(-0.0133360024974237,-0.0381596266974251,-0.0581402073525124));
#607=CARTESIAN_POINT('',(-0.0133360024974237,-0.0381596266974251,-0.0581402073525124));
#608=CARTESIAN_POINT('',(-0.0133360024974237,-0.0381596266974251,-0.0581402073525124));
#609=CARTESIAN_POINT('',(-0.00609167207459234,-0.0381596266974251,-0.0642189223384366));
#610=CARTESIAN_POINT('',(-0.0133223285587187,-0.0381596266974251,-0.0581239113869357));
#611=CARTESIAN_POINT('',(-0.00607799813588727,-0.0381596266974251,-0.0642026263728599));
#612=CARTESIAN_POINT('',(-0.0130736798772103,-0.0381573534663645,-0.0578275834274544));
#613=CARTESIAN_POINT('',(-0.00582934945437891,-0.0381573534663645,-0.0639062984133785));
#614=CARTESIAN_POINT('',(-0.0127319240953793,-0.0381631833037479,-0.0574202947466675));
#615=CARTESIAN_POINT('',(-0.00548759367254791,-0.0381631833037478,-0.0634990097325916));
#616=CARTESIAN_POINT('',(-0.0124845554791762,-0.0381415134020128,-0.0571254923096124));
#617=CARTESIAN_POINT('',(-0.00524022505634483,-0.0381415134020128,-0.0632042072955365));
#618=CARTESIAN_POINT('',(-0.0121676581729051,-0.0379228950152267,-0.0567478288063803));
#619=CARTESIAN_POINT('',(-0.00492332775007366,-0.0379228950152267,-0.0628265437923044));
#620=CARTESIAN_POINT('',(-0.011904516611099,-0.0374422616729318,-0.0564342289047371));
#621=CARTESIAN_POINT('',(-0.00466018618826757,-0.0374422616729317,-0.0625129438906612));
#622=CARTESIAN_POINT('',(-0.011817938353207,-0.0368302885915847,-0.0563310489548537));
#623=CARTESIAN_POINT('',(-0.0045736079303756,-0.0368302885915847,-0.0624097639407779));
#624=CARTESIAN_POINT('',(-0.0118457056930226,-0.0360085229072144,-0.0563641407818357));
#625=CARTESIAN_POINT('',(-0.00460137527019118,-0.0360085229072144,-0.0624428557677599));
#626=CARTESIAN_POINT('',(-0.0118321336175749,-0.034983330211163,-0.056347966212162));
#627=CARTESIAN_POINT('',(-0.00458780319474349,-0.034983330211163,-0.0624266811980861));
#628=CARTESIAN_POINT('',(-0.0118365839792616,-0.0337522716395094,-0.0563532699466904));
#629=CARTESIAN_POINT('',(-0.00459225355643019,-0.0337522716395094,-0.0624319849326146));
#630=CARTESIAN_POINT('',(-0.0118354839333657,-0.0325214479612289,-0.056351958963042));
#631=CARTESIAN_POINT('',(-0.00459115351053434,-0.0325214479612289,-0.0624306739489661));
#632=CARTESIAN_POINT('',(-0.0118358634035762,-0.031290549720668,-0.0563524111980286));
#633=CARTESIAN_POINT('',(-0.00459153298074481,-0.031290549720668,-0.0624311261839527));
#634=CARTESIAN_POINT('',(-0.0118358093362859,-0.0304699410816183,-0.0563523467631411));
#635=CARTESIAN_POINT('',(-0.00459147891345455,-0.0304699410816183,-0.0624310617490653));
#636=CARTESIAN_POINT('',(-0.0118358093362859,-0.0300596266974252,-0.0563523467631411));
#637=CARTESIAN_POINT('',(-0.00459147891345455,-0.0300596266974251,-0.0624310617490653));
#638=CARTESIAN_POINT('',(-0.00826596830030935,-0.0381596266974251,-0.0623944711773673));
#639=CARTESIAN_POINT('',(-0.00780703360314916,-0.0381596266974251,-0.0623944711773673));
#640=CARTESIAN_POINT('',(-0.00711767070396159,-0.038171044008323,-0.0623944711773674));
#641=CARTESIAN_POINT('',(-0.00620236239415822,-0.0381408422866721,-0.062394471177367));
#642=CARTESIAN_POINT('',(-0.00553972187895347,-0.0379447029009096,-0.0623944711773681));
#643=CARTESIAN_POINT('',(-0.00494979597812452,-0.0375830386198264,-0.062394471177367));
#644=CARTESIAN_POINT('',(-0.00462198219725385,-0.0370723607976632,-0.0623944711773673));
#645=CARTESIAN_POINT('',(-0.00463673227939463,-0.0366076620368699,-0.0623944711773672));
#646=CARTESIAN_POINT('',(-0.00463312291146241,-0.0361493549146587,-0.0623944711773672));
#647=CARTESIAN_POINT('',(-0.00463493119262611,-0.0355742780907524,-0.0623944711773672));
#648=CARTESIAN_POINT('',(-0.00463444742639924,-0.0348851244758163,-0.0623944711773672));
#649=CARTESIAN_POINT('',(-0.00463475519328954,-0.0339659255150211,-0.0623944711773673));
#650=CARTESIAN_POINT('',(-0.00463487986872966,-0.0323574808414067,-0.0623944711773672));
#651=CARTESIAN_POINT('',(-0.00463508585873077,-0.030978761342394,-0.0623944711773673));
#652=CARTESIAN_POINT('',(-0.00463508585873072,-0.0300596266974251,-0.0623944711773673));
#653=CARTESIAN_POINT('',(-0.00463508585873072,-0.0300596266974251,-0.0623944711773673));
#654=CARTESIAN_POINT('',(-0.0133360024974237,-0.0381596266974251,-0.0581402073525124));
#655=CARTESIAN_POINT('',(-0.0133145014846112,-0.0381596266974251,-0.0581145834432487));
#656=CARTESIAN_POINT('',(-0.0129213062530852,-0.0381593481217304,-0.0576459916134868));
#657=CARTESIAN_POINT('',(-0.0125138584669294,-0.0381602444478457,-0.057160414250541));
#658=CARTESIAN_POINT('',(-0.0121146115917982,-0.0379377764759509,-0.0566846103527714));
#659=CARTESIAN_POINT('',(-0.0118938309540997,-0.0373744788969444,-0.056421494234619));
#660=CARTESIAN_POINT('',(-0.0118416684550798,-0.0369786957969817,-0.0563593293890134));
#661=CARTESIAN_POINT('',(-0.011835519408664,-0.0368859941604695,-0.0563520012408563));
#662=CARTESIAN_POINT('',(-0.0118355561871851,-0.0365216095829015,-0.0563520450717909));
#663=CARTESIAN_POINT('',(-0.0118355391914288,-0.0362499646914133,-0.0563520248170373));
#664=CARTESIAN_POINT('',(-0.0118356113809146,-0.0340053816494513,-0.0563521108491163));
#665=CARTESIAN_POINT('',(-0.0118358093362859,-0.0320326035852944,-0.0563523467631412));
#666=CARTESIAN_POINT('',(-0.0118358093362859,-0.0300596266974252,-0.0563523467631411));
#667=CARTESIAN_POINT('',(-0.0118358093362859,-0.0300596266974252,-0.0563523467631411));
#668=CARTESIAN_POINT('',(-0.0118358093362859,-0.0300596266974252,-0.0563523467631411));
#669=CARTESIAN_POINT('',(-0.0109359066827248,-0.0300596266974252,-0.0552798845427746));
#670=CARTESIAN_POINT('',(-0.0109359066827248,-0.0300596266974251,-0.0623944711773673));
#671=CARTESIAN_POINT('',(-0.0103912640181143,-0.0300596266974251,-0.0623944711773673));
#672=CARTESIAN_POINT('',(-0.0109359066827248,-0.0300596266974252,-0.0552798845427746));
#673=CARTESIAN_POINT('',(-0.0142141234921261,-0.0300596266974252,-0.0591867112026814));
#674=CARTESIAN_POINT('',(-0.0142141234921261,-0.0300596266974252,-0.0591867112026814));
#675=CARTESIAN_POINT('',(-0.0127139303065271,-0.0388096266974252,-0.0573988505841584));
#676=CARTESIAN_POINT('',(-0.00487303349569665,-0.0388096266974251,-0.0639781442062253));
#677=CARTESIAN_POINT('',(-0.0123746558623488,-0.0388096266974252,-0.0569945190464334));
#678=CARTESIAN_POINT('',(-0.0045337590515184,-0.0388096266974251,-0.0635738126685004));
#679=CARTESIAN_POINT('',(-0.011700044204528,-0.0383712946244809,-0.0561905481796196));
#680=CARTESIAN_POINT('',(-0.00385914739369761,-0.0383712946244808,-0.0627698418016865));
#681=CARTESIAN_POINT('',(-0.0114179973899898,-0.0373213303178081,-0.0558544178751139));
#682=CARTESIAN_POINT('',(-0.00357710057915935,-0.0373213303178081,-0.0624337114971808));
#683=CARTESIAN_POINT('',(-0.0114179973899898,-0.0367935129811552,-0.0558544178751139));
#684=CARTESIAN_POINT('',(-0.00357710057915935,-0.0367935129811552,-0.0624337114971808));
#685=CARTESIAN_POINT('',(-0.00362386537127167,-0.0367935129811552,-0.0623944711773672));
#686=CARTESIAN_POINT('',(-0.00362386537127167,-0.0371399819280012,-0.0623944711773672));
#687=CARTESIAN_POINT('',(-0.00392590893628262,-0.0377894115353,-0.0623944711773672));
#688=CARTESIAN_POINT('',(-0.00476628981970525,-0.0384101439477142,-0.0623944711773673));
#689=CARTESIAN_POINT('',(-0.00573949307174932,-0.0387365843777831,-0.0623944711773672));
#690=CARTESIAN_POINT('',(-0.00641815104433539,-0.0388096266974251,-0.0623944711773673));
#691=CARTESIAN_POINT('',(-0.00676038151733274,-0.0388096266974251,-0.0623944711773673));
#692=CARTESIAN_POINT('',(-0.012713930306527,-0.0388096266974252,-0.0573988505841584));
#693=CARTESIAN_POINT('',(-0.0124231236400885,-0.0388096266974252,-0.0570522806946799));
#694=CARTESIAN_POINT('',(-0.0117437201240083,-0.0384405654680028,-0.0562425991135702));
#695=CARTESIAN_POINT('',(-0.0114179973899897,-0.0373967327944728,-0.0558544178751139));
#696=CARTESIAN_POINT('',(-0.0114179973899897,-0.0367935129811552,-0.0558544178751139));
#697=CARTESIAN_POINT('',(-0.0133360016412095,-0.0209596266974251,-0.0581402063321158));
#698=CARTESIAN_POINT('',(-0.00823554601555465,-0.0209596266974251,-0.0624199967664388));
#699=CARTESIAN_POINT('',(-0.0135658932938345,-0.0209596263387367,-0.0584141805350392));
#700=CARTESIAN_POINT('',(-0.00846543766817969,-0.0209596263387367,-0.0626939709693622));
#701=CARTESIAN_POINT('',(-0.0140232003963211,-0.0212572589134711,-0.0589591779173466));
#702=CARTESIAN_POINT('',(-0.00892274477066628,-0.0212572589134711,-0.0632389683516696));
#703=CARTESIAN_POINT('',(-0.0142141234503801,-0.0219680922440314,-0.05918671115293));
#704=CARTESIAN_POINT('',(-0.00911366782472532,-0.0219680922440314,-0.063466501587253));
#705=CARTESIAN_POINT('',(-0.0142141234921266,-0.0223257401656168,-0.0591867112026818));
#706=CARTESIAN_POINT('',(-0.00911366786647175,-0.0223257401656168,-0.0634665016370048));
#707=CARTESIAN_POINT('',(-0.00826596622803372,-0.0209596266974251,-0.0623944711773673));
#708=CARTESIAN_POINT('',(-0.00873047574749443,-0.0209596263979755,-0.0623944711773673));
#709=CARTESIAN_POINT('',(-0.00942074581322861,-0.0210984462345328,-0.0623944711773611));
#710=CARTESIAN_POINT('',(-0.0101915677396622,-0.0216449654560832,-0.0623944711773685));
#711=CARTESIAN_POINT('',(-0.0103912639518512,-0.0220911840035884,-0.0623944711773673));
#712=CARTESIAN_POINT('',(-0.0103912640181152,-0.0223257401656168,-0.0623944711773673));
#713=CARTESIAN_POINT('',(-0.0133360016412094,-0.0209596266974251,-0.0581402063321158));
#714=CARTESIAN_POINT('',(-0.0135988953770753,-0.0209596262872452,-0.0584535108863046));
#715=CARTESIAN_POINT('',(-0.0140319555392795,-0.0212870821065553,-0.0589696118904209));
#716=CARTESIAN_POINT('',(-0.0141987330309984,-0.0219534620382947,-0.0591683695653407));
#717=CARTESIAN_POINT('',(-0.0142133275412477,-0.0222584195453226,-0.0591857626253625));
#718=CARTESIAN_POINT('',(-0.0142141234881992,-0.0222920944038115,-0.0591867111980014));
#719=CARTESIAN_POINT('',(-0.0142141234921265,-0.0223257401656168,-0.0591867112026818));
#720=CARTESIAN_POINT('',(-0.0142141234921261,-0.0300596266974252,-0.0591867112026814));
#721=CARTESIAN_POINT('',(-0.0103912640181143,-0.0300596266974252,-0.0623944711773673));
#722=CARTESIAN_POINT('',(-0.0142141234921261,-0.0300596266974252,-0.0591867112026814));
#723=CARTESIAN_POINT('',(-0.0128350518931623,-0.0289020006716314,-0.0575431976701715));
#724=CARTESIAN_POINT('',(3.54013587655461E-16,-0.0295,-0.0623944711773672));
#725=MECHANICAL_DESIGN_GEOMETRIC_PRESENTATION_REPRESENTATION('',(#349),
#726);
#726=(
GEOMETRIC_REPRESENTATION_CONTEXT(3)
GLOBAL_UNCERTAINTY_ASSIGNED_CONTEXT((#727))
GLOBAL_UNIT_ASSIGNED_CONTEXT((#730,#729,#728))
REPRESENTATION_CONTEXT('duct','TOP_LEVEL_ASSEMBLY_PART')
);
#727=UNCERTAINTY_MEASURE_WITH_UNIT(LENGTH_MEASURE(2.E-5),#730,
'DISTANCE_ACCURACY_VALUE','Maximum Tolerance applied to model');
#728=(
NAMED_UNIT(*)
SI_UNIT($,.STERADIAN.)
SOLID_ANGLE_UNIT()
);
#729=(
NAMED_UNIT(*)
PLANE_ANGLE_UNIT()
SI_UNIT($,.RADIAN.)
);
#730=(
LENGTH_UNIT()
NAMED_UNIT(*)
SI_UNIT($,.METRE.)
);
#731=PRODUCT_DEFINITION_SHAPE('','',#732);
#732=PRODUCT_DEFINITION('','',#734,#733);
#733=PRODUCT_DEFINITION_CONTEXT('',#740,'design');
#734=PRODUCT_DEFINITION_FORMATION_WITH_SPECIFIED_SOURCE('','',#736,
 .NOT_KNOWN.);
#735=PRODUCT_RELATED_PRODUCT_CATEGORY('','',(#736));
#736=PRODUCT('duct','duct','duct',(#738));
#737=PRODUCT_CATEGORY('','');
#738=PRODUCT_CONTEXT('',#740,'mechanical');
#739=APPLICATION_PROTOCOL_DEFINITION('international standard',
'ap242_managed_model_based_3d_engineering',2020,#740);
#740=APPLICATION_CONTEXT('managed model based 3d engineering');
ENDSEC;
END-ISO-10303-21;
