ISO-10303-21;
HEADER;
/* Generated by software containing ST-Developer
 * from STEP Tools, Inc. (www.steptools.com) 
 */
/* OPTION: using custom renumber hook */

FILE_DESCRIPTION(
/* description */ ('STEP AP242 Edition 2',
'CAx-IF Rec.Pracs.---Representation and Presentation of Product Manufa
cturing Information (PMI)---4.0---2014-10-13',
'CAx-IF Rec.Pracs.---3D Tessellated Geometry---0.4---2014-09-14','2;1',
'CAx-IF Rec.Pracs.---User Defined Attributes---1.5---2016-08-15'),
/* implementation_level */ '2;1');

FILE_NAME(
/* name */ 'toolhead v4 - duct',
/* time_stamp */ '2026-08-19T20:10:38Z',
/* author */ (''),
/* organization */ (''),
/* preprocessor_version */ 'ST-DEVELOPER v20',
/* originating_system */ 'ONSHAPE BY PTC INC, 1.219',
/* authorisation */ '  ');

FILE_SCHEMA (('AP242_MANAGED_MODEL_BASED_3D_ENGINEERING_MIM_LF { 1 0 10303 442 3 1 4 }'));
ENDSEC;

DATA;
#10=SHAPE_REPRESENTATION_RELATIONSHIP('','',#359,#11);
#11=ADVANCED_BREP_SHAPE_REPRESENTATION('',(#357),#725);
#12=B_SPLINE_CURVE_WITH_KNOTS('',3,(#475,#476,#477,#478,#479,#480,#481),
 .UNSPECIFIED.,.F.,.F.,(4,1,1,1,4),(0.,0.00101893142237891,0.00203786284475782,
0.00305679426713674,0.00407572568951565),.UNSPECIFIED.);
#13=B_SPLINE_CURVE_WITH_KNOTS('',3,(#483,#484,#485,#486,#487),
 .UNSPECIFIED.,.F.,.F.,(4,1,4),(-0.590049795456593,-0.538592769481397,-0.5),
 .UNSPECIFIED.);
#14=B_SPLINE_CURVE_WITH_KNOTS('',3,(#506,#507,#508,#509,#510,#511),
 .UNSPECIFIED.,.F.,.F.,(4,1,1,4),(0.,0.00202516026917404,0.00303774040376106,
0.00405032053834809),.UNSPECIFIED.);
#15=B_SPLINE_CURVE_WITH_KNOTS('',3,(#513,#514,#515,#516,#517),
 .UNSPECIFIED.,.F.,.F.,(4,1,4),(-0.70015659813434,-0.648699572159143,-0.610106802677745),
 .UNSPECIFIED.);
#16=B_SPLINE_CURVE_WITH_KNOTS('',3,(#536,#537,#538,#539,#540,#541),
 .UNSPECIFIED.,.F.,.F.,(4,1,1,4),(1.76907777093865E-16,0.00069048989737447,
0.00138097979474876,0.00276195958949735),.UNSPECIFIED.);
#17=B_SPLINE_CURVE_WITH_KNOTS('',3,(#546,#547,#548,#549,#550,#551,#552),
 .UNSPECIFIED.,.F.,.F.,(4,1,2,4),(-1.,-0.428222528169177,-0.047037546948628,
0.),.UNSPECIFIED.);
#18=B_SPLINE_CURVE_WITH_KNOTS('',3,(#581,#582,#583,#584,#585,#586,#587,
#588,#589,#590,#591,#592,#593,#594,#595),.UNSPECIFIED.,.F.,.F.,(4,1,1,1,
1,1,1,1,1,1,1,1,4),(0.,0.00136097101640197,0.00204145652460296,0.00272194203280395,
0.00340242754100494,0.00408291304920592,0.00442315580330642,0.00476339855740691,
0.0054438840656079,0.00612436957380889,0.00680485508200987,0.00816582609841185,
0.0108877681312158),.UNSPECIFIED.);
#19=B_SPLINE_CURVE_WITH_KNOTS('',3,(#597,#598,#599,#600,#601,#602,#603,
#604,#605,#606,#607,#608,#609,#610),.UNSPECIFIED.,.F.,.F.,(4,2,1,2,2,1,
2,4),(-0.47583597771773,-0.245632948366237,-0.212619939357075,-0.179606930347914,
-0.150453935638432,-0.0986086307892044,-0.0467633259399767,6.13470660090672E-16),
 .UNSPECIFIED.);
#20=B_SPLINE_CURVE_WITH_KNOTS('',3,(#664,#665,#666,#667,#668,#669,#670,
#671,#672,#673,#674,#675,#676,#677,#678),.UNSPECIFIED.,.F.,.F.,(4,1,1,1,
1,1,1,1,1,1,1,1,4),(0.,0.00277256088390762,0.00415884132586143,0.00485198154683834,
0.00554512176781524,0.00623826198879215,0.0065848320992806,0.00693140220976906,
0.00762454243074596,0.00831768265172287,0.00901082287269977,0.00970396309367668,
0.0110902435356305),.UNSPECIFIED.);
#21=B_SPLINE_CURVE_WITH_KNOTS('',3,(#680,#681,#682,#683,#684,#685,#686,
#687,#688,#689,#690,#691,#692),.UNSPECIFIED.,.F.,.F.,(4,2,1,2,2,2,4),(-1.,
-0.953236609695339,-0.908112122513132,-0.862987635330925,-0.849545999996883,
-0.810166820916266,-0.524160289010804),.UNSPECIFIED.);
#22=B_SPLINE_CURVE_WITH_KNOTS('',3,(#705,#706,#707,#708,#709,#710),
 .UNSPECIFIED.,.F.,.F.,(4,1,1,4),(5.76648802964689E-17,0.00137346281783966,
0.00206019422675946,0.00274692563567925),.UNSPECIFIED.);
#23=B_SPLINE_CURVE_WITH_KNOTS('',3,(#711,#712,#713,#714,#715),
 .UNSPECIFIED.,.F.,.F.,(4,1,4),(-1.,-0.571428571428571,0.),
 .UNSPECIFIED.);
#24=B_SPLINE_SURFACE_WITH_KNOTS('',3,1,((#465,#466),(#467,#468),(#469,#470),
(#471,#472),(#473,#474)),.SURF_OF_LINEAR_EXTRUSION.,.F.,.F.,.F.,(4,1,4),
(2,2),(-0.590049795456593,-0.545024897728297,-0.5),(0.,1.),
 .UNSPECIFIED.);
#25=B_SPLINE_SURFACE_WITH_KNOTS('',3,1,((#496,#497),(#498,#499),(#500,#501),
(#502,#503),(#504,#505)),.SURF_OF_LINEAR_EXTRUSION.,.F.,.F.,.F.,(4,1,4),
(2,2),(-0.70015659813434,-0.655131700406042,-0.610106802677745),(0.,1.),
 .UNSPECIFIED.);
#26=B_SPLINE_SURFACE_WITH_KNOTS('',3,1,((#526,#527),(#528,#529),(#530,#531),
(#532,#533),(#534,#535)),.SURF_OF_LINEAR_EXTRUSION.,.F.,.F.,.F.,(4,1,4),
(2,2),(-1.,-0.5,0.),(0.,1.),.UNSPECIFIED.);
#27=B_SPLINE_SURFACE_WITH_KNOTS('',3,1,((#555,#556),(#557,#558),(#559,#560),
(#561,#562),(#563,#564),(#565,#566),(#567,#568),(#569,#570),(#571,#572),
(#573,#574),(#575,#576),(#577,#578),(#579,#580)),
 .SURF_OF_LINEAR_EXTRUSION.,.F.,.F.,.F.,(4,1,1,1,1,1,1,1,1,1,4),(2,2),(-0.47583597771773,
-0.356876983288297,-0.297397486073581,-0.237917988858865,-0.178438491644148,
-0.14869874303679,-0.118958994429432,-0.0892192458220739,-0.0594794972147157,
-0.0297397486073576,6.13470660090672E-16),(0.,1.),.UNSPECIFIED.);
#28=B_SPLINE_SURFACE_WITH_KNOTS('',3,1,((#634,#635),(#636,#637),(#638,#639),
(#640,#641),(#642,#643),(#644,#645),(#646,#647),(#648,#649),(#650,#651),
(#652,#653),(#654,#655),(#656,#657),(#658,#659),(#660,#661),(#662,#663)),
 .SURF_OF_LINEAR_EXTRUSION.,.F.,.F.,.F.,(4,1,1,1,1,1,1,1,1,1,1,1,4),(2,
2),(-1.,-0.970260018063175,-0.955390027094763,-0.94052003612635,-0.910780054189526,
-0.881040072252701,-0.851300090315876,-0.821560108379051,-0.762080144505402,
-0.702600180631752,-0.643120216758103,-0.583640252884454,-0.524160289010804),
(0.,1.),.UNSPECIFIED.);
#29=B_SPLINE_SURFACE_WITH_KNOTS('',3,1,((#695,#696),(#697,#698),(#699,#700),
(#701,#702),(#703,#704)),.SURF_OF_LINEAR_EXTRUSION.,.F.,.F.,.F.,(4,1,4),
(2,2),(-1.,-0.5,0.),(0.,1.),.UNSPECIFIED.);
#30=CIRCLE('',#364,0.00201620293502617);
#31=CIRCLE('',#374,0.00201618715534677);
#32=ELLIPSE('',#363,0.00313665494580612,0.00201620293502617);
#33=ELLIPSE('',#373,0.0031366303969829,0.00201618715534677);
#34=CYLINDRICAL_SURFACE('',#362,0.00201620293502617);
#35=CYLINDRICAL_SURFACE('',#372,0.00201618715534677);
#36=ORIENTED_EDGE('',*,*,#132,.F.);
#37=ORIENTED_EDGE('',*,*,#133,.F.);
#38=ORIENTED_EDGE('',*,*,#134,.F.);
#39=ORIENTED_EDGE('',*,*,#135,.T.);
#40=ORIENTED_EDGE('',*,*,#136,.F.);
#41=ORIENTED_EDGE('',*,*,#135,.F.);
#42=ORIENTED_EDGE('',*,*,#137,.F.);
#43=ORIENTED_EDGE('',*,*,#138,.T.);
#44=ORIENTED_EDGE('',*,*,#139,.F.);
#45=ORIENTED_EDGE('',*,*,#138,.F.);
#46=ORIENTED_EDGE('',*,*,#140,.T.);
#47=ORIENTED_EDGE('',*,*,#141,.T.);
#48=ORIENTED_EDGE('',*,*,#142,.F.);
#49=ORIENTED_EDGE('',*,*,#141,.F.);
#50=ORIENTED_EDGE('',*,*,#143,.F.);
#51=ORIENTED_EDGE('',*,*,#144,.T.);
#52=ORIENTED_EDGE('',*,*,#145,.F.);
#53=ORIENTED_EDGE('',*,*,#144,.F.);
#54=ORIENTED_EDGE('',*,*,#146,.F.);
#55=ORIENTED_EDGE('',*,*,#147,.T.);
#56=ORIENTED_EDGE('',*,*,#148,.F.);
#57=ORIENTED_EDGE('',*,*,#147,.F.);
#58=ORIENTED_EDGE('',*,*,#149,.F.);
#59=ORIENTED_EDGE('',*,*,#150,.T.);
#60=ORIENTED_EDGE('',*,*,#151,.F.);
#61=ORIENTED_EDGE('',*,*,#150,.F.);
#62=ORIENTED_EDGE('',*,*,#152,.F.);
#63=ORIENTED_EDGE('',*,*,#153,.T.);
#64=ORIENTED_EDGE('',*,*,#154,.F.);
#65=ORIENTED_EDGE('',*,*,#155,.F.);
#66=ORIENTED_EDGE('',*,*,#156,.F.);
#67=ORIENTED_EDGE('',*,*,#157,.T.);
#68=ORIENTED_EDGE('',*,*,#158,.F.);
#69=ORIENTED_EDGE('',*,*,#157,.F.);
#70=ORIENTED_EDGE('',*,*,#159,.F.);
#71=ORIENTED_EDGE('',*,*,#160,.T.);
#72=ORIENTED_EDGE('',*,*,#161,.F.);
#73=ORIENTED_EDGE('',*,*,#160,.F.);
#74=ORIENTED_EDGE('',*,*,#162,.T.);
#75=ORIENTED_EDGE('',*,*,#163,.T.);
#76=ORIENTED_EDGE('',*,*,#164,.F.);
#77=ORIENTED_EDGE('',*,*,#165,.F.);
#78=ORIENTED_EDGE('',*,*,#166,.F.);
#79=ORIENTED_EDGE('',*,*,#167,.T.);
#80=ORIENTED_EDGE('',*,*,#168,.F.);
#81=ORIENTED_EDGE('',*,*,#167,.F.);
#82=ORIENTED_EDGE('',*,*,#169,.T.);
#83=ORIENTED_EDGE('',*,*,#170,.T.);
#84=ORIENTED_EDGE('',*,*,#171,.F.);
#85=ORIENTED_EDGE('',*,*,#170,.F.);
#86=ORIENTED_EDGE('',*,*,#172,.F.);
#87=ORIENTED_EDGE('',*,*,#173,.T.);
#88=ORIENTED_EDGE('',*,*,#174,.F.);
#89=ORIENTED_EDGE('',*,*,#173,.F.);
#90=ORIENTED_EDGE('',*,*,#175,.F.);
#91=ORIENTED_EDGE('',*,*,#165,.T.);
#92=ORIENTED_EDGE('',*,*,#176,.F.);
#93=ORIENTED_EDGE('',*,*,#163,.F.);
#94=ORIENTED_EDGE('',*,*,#177,.F.);
#95=ORIENTED_EDGE('',*,*,#155,.T.);
#96=ORIENTED_EDGE('',*,*,#178,.F.);
#97=ORIENTED_EDGE('',*,*,#153,.F.);
#98=ORIENTED_EDGE('',*,*,#179,.F.);
#99=ORIENTED_EDGE('',*,*,#133,.T.);
#100=ORIENTED_EDGE('',*,*,#172,.T.);
#101=ORIENTED_EDGE('',*,*,#169,.F.);
#102=ORIENTED_EDGE('',*,*,#166,.T.);
#103=ORIENTED_EDGE('',*,*,#175,.T.);
#104=ORIENTED_EDGE('',*,*,#162,.F.);
#105=ORIENTED_EDGE('',*,*,#159,.T.);
#106=ORIENTED_EDGE('',*,*,#156,.T.);
#107=ORIENTED_EDGE('',*,*,#177,.T.);
#108=ORIENTED_EDGE('',*,*,#152,.T.);
#109=ORIENTED_EDGE('',*,*,#149,.T.);
#110=ORIENTED_EDGE('',*,*,#146,.T.);
#111=ORIENTED_EDGE('',*,*,#143,.T.);
#112=ORIENTED_EDGE('',*,*,#140,.F.);
#113=ORIENTED_EDGE('',*,*,#137,.T.);
#114=ORIENTED_EDGE('',*,*,#134,.T.);
#115=ORIENTED_EDGE('',*,*,#179,.T.);
#116=ORIENTED_EDGE('',*,*,#164,.T.);
#117=ORIENTED_EDGE('',*,*,#168,.T.);
#118=ORIENTED_EDGE('',*,*,#171,.T.);
#119=ORIENTED_EDGE('',*,*,#174,.T.);
#120=ORIENTED_EDGE('',*,*,#154,.T.);
#121=ORIENTED_EDGE('',*,*,#158,.T.);
#122=ORIENTED_EDGE('',*,*,#161,.T.);
#123=ORIENTED_EDGE('',*,*,#176,.T.);
#124=ORIENTED_EDGE('',*,*,#132,.T.);
#125=ORIENTED_EDGE('',*,*,#136,.T.);
#126=ORIENTED_EDGE('',*,*,#139,.T.);
#127=ORIENTED_EDGE('',*,*,#142,.T.);
#128=ORIENTED_EDGE('',*,*,#145,.T.);
#129=ORIENTED_EDGE('',*,*,#148,.T.);
#130=ORIENTED_EDGE('',*,*,#151,.T.);
#131=ORIENTED_EDGE('',*,*,#178,.T.);
#132=EDGE_CURVE('',#180,#181,#212,.T.);
#133=EDGE_CURVE('',#182,#180,#213,.T.);
#134=EDGE_CURVE('',#183,#182,#214,.T.);
#135=EDGE_CURVE('',#183,#181,#215,.T.);
#136=EDGE_CURVE('',#181,#184,#32,.F.);
#137=EDGE_CURVE('',#185,#183,#30,.T.);
#138=EDGE_CURVE('',#185,#184,#216,.T.);
#139=EDGE_CURVE('',#184,#186,#217,.F.);
#140=EDGE_CURVE('',#185,#187,#218,.T.);
#141=EDGE_CURVE('',#187,#186,#219,.T.);
#142=EDGE_CURVE('',#186,#188,#12,.T.);
#143=EDGE_CURVE('',#189,#187,#13,.T.);
#144=EDGE_CURVE('',#189,#188,#220,.T.);
#145=EDGE_CURVE('',#188,#190,#221,.T.);
#146=EDGE_CURVE('',#191,#189,#222,.T.);
#147=EDGE_CURVE('',#191,#190,#223,.T.);
#148=EDGE_CURVE('',#190,#192,#14,.T.);
#149=EDGE_CURVE('',#193,#191,#15,.T.);
#150=EDGE_CURVE('',#193,#192,#224,.T.);
#151=EDGE_CURVE('',#192,#194,#225,.T.);
#152=EDGE_CURVE('',#195,#193,#226,.T.);
#153=EDGE_CURVE('',#195,#194,#227,.T.);
#154=EDGE_CURVE('',#196,#197,#16,.T.);
#155=EDGE_CURVE('',#198,#196,#228,.T.);
#156=EDGE_CURVE('',#199,#198,#17,.T.);
#157=EDGE_CURVE('',#199,#197,#229,.T.);
#158=EDGE_CURVE('',#197,#200,#18,.T.);
#159=EDGE_CURVE('',#201,#199,#19,.T.);
#160=EDGE_CURVE('',#201,#200,#230,.T.);
#161=EDGE_CURVE('',#200,#202,#231,.F.);
#162=EDGE_CURVE('',#201,#203,#232,.T.);
#163=EDGE_CURVE('',#203,#202,#233,.T.);
#164=EDGE_CURVE('',#204,#205,#234,.T.);
#165=EDGE_CURVE('',#206,#204,#235,.T.);
#166=EDGE_CURVE('',#207,#206,#236,.T.);
#167=EDGE_CURVE('',#207,#205,#237,.T.);
#168=EDGE_CURVE('',#205,#208,#238,.F.);
#169=EDGE_CURVE('',#207,#209,#239,.T.);
#170=EDGE_CURVE('',#209,#208,#240,.T.);
#171=EDGE_CURVE('',#208,#210,#20,.T.);
#172=EDGE_CURVE('',#211,#209,#21,.T.);
#173=EDGE_CURVE('',#211,#210,#241,.T.);
#174=EDGE_CURVE('',#210,#204,#22,.T.);
#175=EDGE_CURVE('',#206,#211,#23,.T.);
#176=EDGE_CURVE('',#202,#196,#242,.T.);
#177=EDGE_CURVE('',#198,#203,#243,.T.);
#178=EDGE_CURVE('',#194,#180,#33,.F.);
#179=EDGE_CURVE('',#182,#195,#31,.T.);
#180=VERTEX_POINT('',#446);
#181=VERTEX_POINT('',#447);
#182=VERTEX_POINT('',#449);
#183=VERTEX_POINT('',#451);
#184=VERTEX_POINT('',#455);
#185=VERTEX_POINT('',#457);
#186=VERTEX_POINT('',#461);
#187=VERTEX_POINT('',#463);
#188=VERTEX_POINT('',#482);
#189=VERTEX_POINT('',#488);
#190=VERTEX_POINT('',#492);
#191=VERTEX_POINT('',#494);
#192=VERTEX_POINT('',#512);
#193=VERTEX_POINT('',#518);
#194=VERTEX_POINT('',#522);
#195=VERTEX_POINT('',#524);
#196=VERTEX_POINT('',#542);
#197=VERTEX_POINT('',#543);
#198=VERTEX_POINT('',#545);
#199=VERTEX_POINT('',#553);
#200=VERTEX_POINT('',#596);
#201=VERTEX_POINT('',#611);
#202=VERTEX_POINT('',#615);
#203=VERTEX_POINT('',#617);
#204=VERTEX_POINT('',#621);
#205=VERTEX_POINT('',#622);
#206=VERTEX_POINT('',#624);
#207=VERTEX_POINT('',#626);
#208=VERTEX_POINT('',#630);
#209=VERTEX_POINT('',#632);
#210=VERTEX_POINT('',#679);
#211=VERTEX_POINT('',#693);
#212=LINE('',#445,#244);
#213=LINE('',#448,#245);
#214=LINE('',#450,#246);
#215=LINE('',#452,#247);
#216=LINE('',#458,#248);
#217=LINE('',#460,#249);
#218=LINE('',#462,#250);
#219=LINE('',#464,#251);
#220=LINE('',#489,#252);
#221=LINE('',#491,#253);
#222=LINE('',#493,#254);
#223=LINE('',#495,#255);
#224=LINE('',#519,#256);
#225=LINE('',#521,#257);
#226=LINE('',#523,#258);
#227=LINE('',#525,#259);
#228=LINE('',#544,#260);
#229=LINE('',#554,#261);
#230=LINE('',#612,#262);
#231=LINE('',#614,#263);
#232=LINE('',#616,#264);
#233=LINE('',#618,#265);
#234=LINE('',#620,#266);
#235=LINE('',#623,#267);
#236=LINE('',#625,#268);
#237=LINE('',#627,#269);
#238=LINE('',#629,#270);
#239=LINE('',#631,#271);
#240=LINE('',#633,#272);
#241=LINE('',#694,#273);
#242=LINE('',#717,#274);
#243=LINE('',#718,#275);
#244=VECTOR('',#381,1.);
#245=VECTOR('',#382,1.);
#246=VECTOR('',#383,1.);
#247=VECTOR('',#384,1.);
#248=VECTOR('',#391,1.);
#249=VECTOR('',#394,1.);
#250=VECTOR('',#395,1.);
#251=VECTOR('',#396,1.);
#252=VECTOR('',#397,1.);
#253=VECTOR('',#400,1.);
#254=VECTOR('',#401,1.);
#255=VECTOR('',#402,1.);
#256=VECTOR('',#403,1.);
#257=VECTOR('',#406,1.);
#258=VECTOR('',#407,1.);
#259=VECTOR('',#408,1.);
#260=VECTOR('',#409,1.);
#261=VECTOR('',#410,1.);
#262=VECTOR('',#411,1.);
#263=VECTOR('',#414,1.);
#264=VECTOR('',#415,1.);
#265=VECTOR('',#416,1.);
#266=VECTOR('',#419,1.);
#267=VECTOR('',#420,1.);
#268=VECTOR('',#421,1.);
#269=VECTOR('',#422,1.);
#270=VECTOR('',#425,1.);
#271=VECTOR('',#426,1.);
#272=VECTOR('',#427,1.);
#273=VECTOR('',#428,1.);
#274=VECTOR('',#431,1.);
#275=VECTOR('',#432,1.);
#276=EDGE_LOOP('',(#36,#37,#38,#39));
#277=EDGE_LOOP('',(#40,#41,#42,#43));
#278=EDGE_LOOP('',(#44,#45,#46,#47));
#279=EDGE_LOOP('',(#48,#49,#50,#51));
#280=EDGE_LOOP('',(#52,#53,#54,#55));
#281=EDGE_LOOP('',(#56,#57,#58,#59));
#282=EDGE_LOOP('',(#60,#61,#62,#63));
#283=EDGE_LOOP('',(#64,#65,#66,#67));
#284=EDGE_LOOP('',(#68,#69,#70,#71));
#285=EDGE_LOOP('',(#72,#73,#74,#75));
#286=EDGE_LOOP('',(#76,#77,#78,#79));
#287=EDGE_LOOP('',(#80,#81,#82,#83));
#288=EDGE_LOOP('',(#84,#85,#86,#87));
#289=EDGE_LOOP('',(#88,#89,#90,#91));
#290=EDGE_LOOP('',(#92,#93,#94,#95));
#291=EDGE_LOOP('',(#96,#97,#98,#99));
#292=EDGE_LOOP('',(#100,#101,#102,#103));
#293=EDGE_LOOP('',(#104,#105,#106,#107));
#294=EDGE_LOOP('',(#108,#109,#110,#111,#112,#113,#114,#115));
#295=EDGE_LOOP('',(#116,#117,#118,#119));
#296=EDGE_LOOP('',(#120,#121,#122,#123));
#297=EDGE_LOOP('',(#124,#125,#126,#127,#128,#129,#130,#131));
#298=FACE_BOUND('',#276,.T.);
#299=FACE_BOUND('',#277,.T.);
#300=FACE_BOUND('',#278,.T.);
#301=FACE_BOUND('',#279,.T.);
#302=FACE_BOUND('',#280,.T.);
#303=FACE_BOUND('',#281,.T.);
#304=FACE_BOUND('',#282,.T.);
#305=FACE_BOUND('',#283,.T.);
#306=FACE_BOUND('',#284,.T.);
#307=FACE_BOUND('',#285,.T.);
#308=FACE_BOUND('',#286,.T.);
#309=FACE_BOUND('',#287,.T.);
#310=FACE_BOUND('',#288,.T.);
#311=FACE_BOUND('',#289,.T.);
#312=FACE_BOUND('',#290,.T.);
#313=FACE_BOUND('',#291,.T.);
#314=FACE_BOUND('',#292,.T.);
#315=FACE_BOUND('',#293,.T.);
#316=FACE_BOUND('',#294,.T.);
#317=FACE_BOUND('',#295,.T.);
#318=FACE_BOUND('',#296,.T.);
#319=FACE_BOUND('',#297,.T.);
#320=PLANE('',#361);
#321=PLANE('',#365);
#322=PLANE('',#366);
#323=PLANE('',#367);
#324=PLANE('',#368);
#325=PLANE('',#369);
#326=PLANE('',#370);
#327=PLANE('',#371);
#328=PLANE('',#375);
#329=PLANE('',#376);
#330=ADVANCED_FACE('',(#298),#320,.T.);
#331=ADVANCED_FACE('',(#299),#34,.T.);
#332=ADVANCED_FACE('',(#300),#321,.F.);
#333=ADVANCED_FACE('',(#301),#24,.T.);
#334=ADVANCED_FACE('',(#302),#322,.T.);
#335=ADVANCED_FACE('',(#303),#25,.T.);
#336=ADVANCED_FACE('',(#304),#323,.T.);
#337=ADVANCED_FACE('',(#305),#26,.T.);
#338=ADVANCED_FACE('',(#306),#27,.T.);
#339=ADVANCED_FACE('',(#307),#324,.F.);
#340=ADVANCED_FACE('',(#308),#325,.T.);
#341=ADVANCED_FACE('',(#309),#326,.F.);
#342=ADVANCED_FACE('',(#310),#28,.T.);
#343=ADVANCED_FACE('',(#311),#29,.T.);
#344=ADVANCED_FACE('',(#312),#327,.T.);
#345=ADVANCED_FACE('',(#313),#35,.T.);
#346=ADVANCED_FACE('',(#314,#315,#316),#328,.T.);
#347=ADVANCED_FACE('',(#317,#318,#319),#329,.F.);
#348=CLOSED_SHELL('',(#330,#331,#332,#333,#334,#335,#336,#337,#338,#339,
#340,#341,#342,#343,#344,#345,#346,#347));
#349=STYLED_ITEM('',(#350),#357);
#350=PRESENTATION_STYLE_ASSIGNMENT((#351));
#351=SURFACE_STYLE_USAGE(.BOTH.,#352);
#352=SURFACE_SIDE_STYLE('',(#353));
#353=SURFACE_STYLE_FILL_AREA(#354);
#354=FILL_AREA_STYLE('',(#355));
#355=FILL_AREA_STYLE_COLOUR('',#356);
#356=COLOUR_RGB('',0.498039215686275,0.498039215686275,0.498039215686275);
#357=MANIFOLD_SOLID_BREP('duct',#348);
#358=SHAPE_DEFINITION_REPRESENTATION(#730,#359);
#359=SHAPE_REPRESENTATION('duct',(#360),#725);
#360=AXIS2_PLACEMENT_3D('',#443,#377,#378);
#361=AXIS2_PLACEMENT_3D('',#444,#379,#380);
#362=AXIS2_PLACEMENT_3D('',#453,#385,#386);
#363=AXIS2_PLACEMENT_3D('',#454,#387,#388);
#364=AXIS2_PLACEMENT_3D('',#456,#389,#390);
#365=AXIS2_PLACEMENT_3D('',#459,#392,#393);
#366=AXIS2_PLACEMENT_3D('',#490,#398,#399);
#367=AXIS2_PLACEMENT_3D('',#520,#404,#405);
#368=AXIS2_PLACEMENT_3D('',#613,#412,#413);
#369=AXIS2_PLACEMENT_3D('',#619,#417,#418);
#370=AXIS2_PLACEMENT_3D('',#628,#423,#424);
#371=AXIS2_PLACEMENT_3D('',#716,#429,#430);
#372=AXIS2_PLACEMENT_3D('',#719,#433,#434);
#373=AXIS2_PLACEMENT_3D('',#720,#435,#436);
#374=AXIS2_PLACEMENT_3D('',#721,#437,#438);
#375=AXIS2_PLACEMENT_3D('',#722,#439,#440);
#376=AXIS2_PLACEMENT_3D('',#723,#441,#442);
#377=DIRECTION('',(0.,0.,1.));
#378=DIRECTION('',(1.,0.,0.));
#379=DIRECTION('',(8.53823334692118E-15,1.,7.16442845230689E-15));
#380=DIRECTION('',(-0.642787609686527,0.,0.766044443118988));
#381=DIRECTION('',(1.,-8.53823334692124E-15,7.84815266957812E-15));
#382=DIRECTION('',(-0.766044443118974,1.11458720490907E-14,-0.642787609686544));
#383=DIRECTION('',(-0.642787609686527,0.,0.766044443118988));
#384=DIRECTION('',(-0.766044443118974,1.11458720490907E-14,-0.642787609686544));
#385=DIRECTION('',(0.766044443118974,-1.11458720490907E-14,0.642787609686544));
#386=DIRECTION('',(0.454519490914882,0.707106760584363,-0.541675236201882));
#387=DIRECTION('',(-7.84815266957811E-15,4.16333634234403E-16,1.));
#388=DIRECTION('',(1.,-1.48992480177807E-14,7.84815266957812E-15));
#389=DIRECTION('',(0.766044443118974,-1.11458720490907E-14,0.642787609686544));
#390=DIRECTION('',(0.642787609686544,0.,-0.766044443118974));
#391=DIRECTION('',(-0.766044443118974,1.11458720490907E-14,-0.642787609686544));
#392=DIRECTION('',(-0.642787609686544,4.21758318986184E-16,0.766044443118974));
#393=DIRECTION('',(-8.97830632016538E-15,-1.,-6.98312713790641E-15));
#394=DIRECTION('',(1.59972361706751E-16,1.,-4.16333634234401E-16));
#395=DIRECTION('',(-8.97830632016538E-15,-1.,-6.98312713790641E-15));
#396=DIRECTION('',(-0.766044443118974,1.11458720490907E-14,-0.642787609686544));
#397=DIRECTION('',(-0.766044443118974,1.11458720490907E-14,-0.642787609686544));
#398=DIRECTION('',(-8.53823334692076E-15,-1.,-7.1644284523074E-15));
#399=DIRECTION('',(0.642787609686573,0.,-0.76604444311895));
#400=DIRECTION('',(-1.,8.53823334692081E-15,-7.84815266957812E-15));
#401=DIRECTION('',(0.642787609686573,0.,-0.76604444311895));
#402=DIRECTION('',(-0.766044443118974,1.11458720490907E-14,-0.642787609686544));
#403=DIRECTION('',(-0.766044443118974,1.11458720490907E-14,-0.642787609686544));
#404=DIRECTION('',(-0.642787609686544,4.80542777662956E-16,0.766044443118974));
#405=DIRECTION('',(-8.97830632016538E-15,-1.,-6.9063894770503E-15));
#406=DIRECTION('',(2.51424744719297E-16,1.,-4.16333634234401E-16));
#407=DIRECTION('',(-8.97830632016538E-15,-1.,-6.9063894770503E-15));
#408=DIRECTION('',(-0.766044443118974,1.11458720490907E-14,-0.642787609686544));
#409=DIRECTION('',(-0.766044443118974,1.11458720490907E-14,-0.642787609686544));
#410=DIRECTION('',(-0.766044443118974,1.11458720490907E-14,-0.642787609686544));
#411=DIRECTION('',(-0.766044443118974,1.11458720490907E-14,-0.642787609686544));
#412=DIRECTION('',(-8.68448527214381E-15,-1.,-6.99013219499901E-15));
#413=DIRECTION('',(0.642787609686545,-2.2752760479329E-16,-0.766044443118974));
#414=DIRECTION('',(-1.,8.68448527214386E-15,-7.84815266957812E-15));
#415=DIRECTION('',(0.642787609686545,-2.2752760479329E-16,-0.766044443118974));
#416=DIRECTION('',(-0.766044443118974,1.11458720490907E-14,-0.642787609686544));
#417=DIRECTION('',(-0.642787609686544,-5.59111984878318E-15,0.766044443118974));
#418=DIRECTION('',(-8.98547288497636E-15,-1.,-1.48383955898692E-14));
#419=DIRECTION('',(-9.19440547190085E-15,1.,-4.16333634234475E-16));
#420=DIRECTION('',(-0.766044443118974,1.11458720490907E-14,-0.642787609686544));
#421=DIRECTION('',(-8.98547288497636E-15,-1.,-1.48383955898692E-14));
#422=DIRECTION('',(-0.766044443118974,1.11458720490907E-14,-0.642787609686544));
#423=DIRECTION('',(8.68448527214381E-15,1.,6.99013219499901E-15));
#424=DIRECTION('',(-0.642787609686545,2.2752760479329E-16,0.766044443118974));
#425=DIRECTION('',(1.,-8.68448527214386E-15,7.84815266957812E-15));
#426=DIRECTION('',(-0.642787609686545,2.2752760479329E-16,0.766044443118974));
#427=DIRECTION('',(-0.766044443118974,1.11458720490907E-14,-0.642787609686544));
#428=DIRECTION('',(-0.766044443118974,1.11458720490907E-14,-0.642787609686544));
#429=DIRECTION('',(-0.642787609686544,4.71597987843773E-15,0.766044443118974));
#430=DIRECTION('',(-7.33676226387979E-15,-1.,0.));
#431=DIRECTION('',(6.84059515956321E-15,1.,-4.16333634234349E-16));
#432=DIRECTION('',(-7.33676226387979E-15,-1.,0.));
#433=DIRECTION('',(0.766044443118974,-1.11458720490907E-14,0.642787609686544));
#434=DIRECTION('',(-0.454512441422679,0.707117727477875,0.541666834944249));
#435=DIRECTION('',(-7.84815266957811E-15,4.16333634234403E-16,1.));
#436=DIRECTION('',(1.,-1.48992480177807E-14,7.84815266957812E-15));
#437=DIRECTION('',(0.766044443118974,-1.11458720490907E-14,0.642787609686544));
#438=DIRECTION('',(0.642787609686544,0.,-0.766044443118974));
#439=DIRECTION('',(0.766044443118974,-1.11458720490907E-14,0.642787609686544));
#440=DIRECTION('',(0.642787609686544,-2.27155055986164E-16,-0.766044443118974));
#441=DIRECTION('',(-7.84815266957811E-15,4.16333634234403E-16,1.));
#442=DIRECTION('',(1.,3.26744992295188E-30,7.84815266957811E-15));
#443=CARTESIAN_POINT('',(0.,0.,0.));
#444=CARTESIAN_POINT('',(0.0133332597239342,-0.0203096266974252,-0.058140207381664));
#445=CARTESIAN_POINT('',(0.0133332597239343,-0.0203096266974252,-0.0623944711773671));
#446=CARTESIAN_POINT('',(0.00675763871965375,-0.0203096427290709,-0.0623944711775292));
#447=CARTESIAN_POINT('',(0.00826322556189704,-0.020309613236944,-0.0623944711775671));
#448=CARTESIAN_POINT('',(0.0127111875085763,-0.0203096266974252,-0.0573988505841581));
#449=CARTESIAN_POINT('',(0.0127111875088482,-0.020309642729071,-0.0573988505844822));
#450=CARTESIAN_POINT('',(0.0133332597239342,-0.0203096266974252,-0.058140207381664));
#451=CARTESIAN_POINT('',(0.0133332595327586,-0.0203096132369441,-0.0581402075427607));
#452=CARTESIAN_POINT('',(0.0133332597239342,-0.0203096266974252,-0.058140207381664));
#453=CARTESIAN_POINT('',(0.0133332094742155,-0.0223258027099735,-0.0581401474963812));
#454=CARTESIAN_POINT('',(0.00826310394334201,-0.0223258027099735,-0.0623944711773671));
#455=CARTESIAN_POINT('',(0.01139974903743,-0.0223257404133303,-0.0623944722348062));
#456=CARTESIAN_POINT('',(0.0133332094742155,-0.0223258027099735,-0.0581401474963812));
#457=CARTESIAN_POINT('',(0.0146291961896585,-0.0223257404135245,-0.0596846443204647));
#458=CARTESIAN_POINT('',(0.0146291926404716,-0.0223257404136951,-0.0596846400907085));
#459=CARTESIAN_POINT('',(0.0146291926404716,-0.0223257404136951,-0.0596846400907085));
#460=CARTESIAN_POINT('',(0.0113997417076228,-0.0223257404136951,-0.0623944711773671));
#461=CARTESIAN_POINT('',(0.0113997417076228,-0.0367935129811553,-0.0623944711773671));
#462=CARTESIAN_POINT('',(0.0146291926404716,-0.0223257404136951,-0.0596846400907085));
#463=CARTESIAN_POINT('',(0.0146291926404715,-0.0367935129811554,-0.0596846400907086));
#464=CARTESIAN_POINT('',(0.0146291926404715,-0.0367935129811554,-0.0596846400907086));
#465=CARTESIAN_POINT('',(0.00823280535658729,-0.0388096266974251,-0.0624199967601414));
#466=CARTESIAN_POINT('',(0.0133332597239341,-0.0388096266974252,-0.0581402073816641));
#467=CARTESIAN_POINT('',(0.00857207980076555,-0.0388096266974251,-0.0628243282978663));
#468=CARTESIAN_POINT('',(0.0136725341681123,-0.0388096266974252,-0.058544538919389));
#469=CARTESIAN_POINT('',(0.00924699437863651,-0.0383708534020429,-0.0636286601707382));
#470=CARTESIAN_POINT('',(0.0143474487459833,-0.038370853402043,-0.0593488707922609));
#471=CARTESIAN_POINT('',(0.0095287382731247,-0.0373213303178081,-0.0639644294691859));
#472=CARTESIAN_POINT('',(0.0146291926404715,-0.0373213303178082,-0.0596846400907086));
#473=CARTESIAN_POINT('',(0.0095287382731247,-0.0367935129811553,-0.0639644294691859));
#474=CARTESIAN_POINT('',(0.0146291926404715,-0.0367935129811554,-0.0596846400907086));
#475=CARTESIAN_POINT('',(0.0113997417076228,-0.0367935129811553,-0.0623944711773671));
#476=CARTESIAN_POINT('',(0.0113997417076228,-0.0371398963338579,-0.0623944711773671));
#477=CARTESIAN_POINT('',(0.0111060243632741,-0.0377948026381106,-0.0623944711773671));
#478=CARTESIAN_POINT('',(0.0102558088383889,-0.0384045261814292,-0.0623944711773671));
#479=CARTESIAN_POINT('',(0.00928442850346776,-0.038733786632026,-0.0623944711773672));
#480=CARTESIAN_POINT('',(0.00860567443855746,-0.0388096266974252,-0.0623944711773671));
#481=CARTESIAN_POINT('',(0.00826322556156153,-0.0388096266974252,-0.0623944711773671));
#482=CARTESIAN_POINT('',(0.00826322556156153,-0.0388096266974252,-0.0623944711773671));
#483=CARTESIAN_POINT('',(0.0133332597239341,-0.0388096266974252,-0.0581402073816641));
#484=CARTESIAN_POINT('',(0.0137210019458521,-0.0388096266974252,-0.0586023005676354));
#485=CARTESIAN_POINT('',(0.0143919753530692,-0.0383029059501821,-0.0594019355362216));
#486=CARTESIAN_POINT('',(0.0146291926404715,-0.0372459278411435,-0.0596846400907086));
#487=CARTESIAN_POINT('',(0.0146291926404715,-0.0367935129811554,-0.0596846400907086));
#488=CARTESIAN_POINT('',(0.0133332597239341,-0.0388096266974252,-0.0581402073816641));
#489=CARTESIAN_POINT('',(0.0133332597239341,-0.0388096266974252,-0.0581402073816641));
#490=CARTESIAN_POINT('',(0.0127111875085761,-0.0388096266974252,-0.0573988505841583));
#491=CARTESIAN_POINT('',(0.0127111875085762,-0.0388096266974252,-0.0623944711773671));
#492=CARTESIAN_POINT('',(0.00675763871938191,-0.0388096266974252,-0.0623944711773672));
#493=CARTESIAN_POINT('',(0.0127111875085761,-0.0388096266974252,-0.0573988505841583));
#494=CARTESIAN_POINT('',(0.0127111875085761,-0.0388096266974252,-0.0573988505841583));
#495=CARTESIAN_POINT('',(0.0127111875085761,-0.0388096266974252,-0.0573988505841583));
#496=CARTESIAN_POINT('',(0.00357435778120843,-0.0367935129811552,-0.0624337114971807));
#497=CARTESIAN_POINT('',(0.0114152545920387,-0.0367935129811554,-0.0558544178751138));
#498=CARTESIAN_POINT('',(0.00357435778120843,-0.0373213303178081,-0.0624337114971807));
#499=CARTESIAN_POINT('',(0.0114152545920387,-0.0373213303178082,-0.0558544178751138));
#500=CARTESIAN_POINT('',(0.00385639580210211,-0.0383713110391304,-0.062769831321829));
#501=CARTESIAN_POINT('',(0.0116972926129324,-0.0383713110391305,-0.056190537699762));
#502=CARTESIAN_POINT('',(0.00453101625356754,-0.0388096266974251,-0.0635738126685003));
#503=CARTESIAN_POINT('',(0.0123719130643979,-0.0388096266974252,-0.0569945190464334));
#504=CARTESIAN_POINT('',(0.00487029069774581,-0.0388096266974251,-0.0639781442062252));
#505=CARTESIAN_POINT('',(0.0127111875085761,-0.0388096266974252,-0.0573988505841583));
#506=CARTESIAN_POINT('',(0.00675763871938191,-0.0388096266974252,-0.0623944711773672));
#507=CARTESIAN_POINT('',(0.00607267386454009,-0.0388096266974251,-0.0623944711773672));
#508=CARTESIAN_POINT('',(0.00504949742186294,-0.0386143213934373,-0.0623944711773672));
#509=CARTESIAN_POINT('',(0.00392509837436934,-0.0377938101589323,-0.0623944711773672));
#510=CARTESIAN_POINT('',(0.00362112257332075,-0.0371398609191196,-0.0623944711773672));
#511=CARTESIAN_POINT('',(0.00362112257332075,-0.0367935129811552,-0.0623944711773672));
#512=CARTESIAN_POINT('',(0.00362112257332075,-0.0367935129811552,-0.0623944711773672));
#513=CARTESIAN_POINT('',(0.0114152545920387,-0.0367935129811554,-0.0558544178751138));
#514=CARTESIAN_POINT('',(0.0114152545920387,-0.0373967327944729,-0.0558544178751138));
#515=CARTESIAN_POINT('',(0.0117409683928311,-0.0384405821432023,-0.0562425884673656));
#516=CARTESIAN_POINT('',(0.0124203808421376,-0.0388096266974252,-0.0570522806946798));
#517=CARTESIAN_POINT('',(0.0127111875085761,-0.0388096266974252,-0.0573988505841583));
#518=CARTESIAN_POINT('',(0.0114152545920387,-0.0367935129811554,-0.0558544178751138));
#519=CARTESIAN_POINT('',(0.0114152545920387,-0.0367935129811554,-0.0558544178751138));
#520=CARTESIAN_POINT('',(0.0114152545920389,-0.0223257404136951,-0.0558544178751137));
#521=CARTESIAN_POINT('',(0.00362112257332075,-0.0223257404136951,-0.0623944711773672));
#522=CARTESIAN_POINT('',(0.0036211068349287,-0.0223257404124138,-0.0623944711773672));
#523=CARTESIAN_POINT('',(0.0114152545920389,-0.0223257404136951,-0.0558544178751137));
#524=CARTESIAN_POINT('',(0.0114152478978033,-0.0223257404131657,-0.0558544102861653));
#525=CARTESIAN_POINT('',(0.0114152545920389,-0.0223257404136951,-0.0558544178751137));
#526=CARTESIAN_POINT('',(0.00823280321760398,-0.0209596266974251,-0.0624199967664387));
#527=CARTESIAN_POINT('',(0.0133332588432587,-0.0209596266974252,-0.0581402063321157));
#528=CARTESIAN_POINT('',(0.00846269487022902,-0.0209596263387367,-0.0626939709693621));
#529=CARTESIAN_POINT('',(0.0135631504958837,-0.0209596263387368,-0.0584141805350391));
#530=CARTESIAN_POINT('',(0.00892003981837133,-0.0212571809206284,-0.0632390134543652));
#531=CARTESIAN_POINT('',(0.014020495444026,-0.0212571809206284,-0.0589592230200422));
#532=CARTESIAN_POINT('',(0.00911092502677402,-0.0219680922440315,-0.063466501587253));
#533=CARTESIAN_POINT('',(0.0142113806524287,-0.0219680922440315,-0.05918671115293));
#534=CARTESIAN_POINT('',(0.0091109250685211,-0.0223257401656168,-0.0634665016370047));
#535=CARTESIAN_POINT('',(0.0142113806941758,-0.0223257401656169,-0.0591867112026817));
#536=CARTESIAN_POINT('',(0.0103885212201645,-0.0223257401656169,-0.0623944711773671));
#537=CARTESIAN_POINT('',(0.0103885211538836,-0.0220911252069067,-0.0623944711773671));
#538=CARTESIAN_POINT('',(0.0101899668795867,-0.0216467378016765,-0.0623944711773671));
#539=CARTESIAN_POINT('',(0.00942006122790364,-0.0210986491349455,-0.0623944711773671));
#540=CARTESIAN_POINT('',(0.00872734590722543,-0.0209596263982251,-0.0623944711773672));
#541=CARTESIAN_POINT('',(0.00826322343008304,-0.0209596266974252,-0.0623944711773672));
#542=CARTESIAN_POINT('',(0.0103885212201636,-0.0223257401656169,-0.0623944711773673));
#543=CARTESIAN_POINT('',(0.00826322343008317,-0.0209596266974252,-0.0623944711773672));
#544=CARTESIAN_POINT('',(0.0142113806941755,-0.0223257401656169,-0.0591867112026814));
#545=CARTESIAN_POINT('',(0.0142113806941755,-0.0223257401656169,-0.0591867112026814));
#546=CARTESIAN_POINT('',(0.0133332588432586,-0.0209596266974252,-0.0581402063321157));
#547=CARTESIAN_POINT('',(0.0135961525791246,-0.0209596262872453,-0.0584535108863045));
#548=CARTESIAN_POINT('',(0.0140292491983675,-0.0212870048167572,-0.0589696553382277));
#549=CARTESIAN_POINT('',(0.0141959940615308,-0.0219534585760991,-0.0591683741279491));
#550=CARTESIAN_POINT('',(0.0142105845921441,-0.0222584196179712,-0.0591857624452254));
#551=CARTESIAN_POINT('',(0.0142113806902484,-0.0222920944038116,-0.0591867111980013));
#552=CARTESIAN_POINT('',(0.0142113806941758,-0.0223257401656169,-0.0591867112026817));
#553=CARTESIAN_POINT('',(0.0133332588432587,-0.0209596266974252,-0.0581402063321157));
#554=CARTESIAN_POINT('',(0.0133332588432587,-0.0209596266974252,-0.0581402063321157));
#555=CARTESIAN_POINT('',(0.00455719635808028,-0.0290596266974258,-0.062457412825865));
#556=CARTESIAN_POINT('',(0.0118330104428641,-0.0290596266974259,-0.0563522799108084));
#557=CARTESIAN_POINT('',(0.00455713321839343,-0.0282390898357826,-0.0624573375789164));
#558=CARTESIAN_POINT('',(0.0118329473031773,-0.0282390898357827,-0.0563522046638597));
#559=CARTESIAN_POINT('',(0.00455641950839259,-0.0270083512833493,-0.0624564870124588));
#560=CARTESIAN_POINT('',(0.0118322335931765,-0.0270083512833494,-0.0563513540974021));
#561=CARTESIAN_POINT('',(0.00455768893192423,-0.0253674450414241,-0.0624579998525131));
#562=CARTESIAN_POINT('',(0.0118335030167081,-0.0253674450414242,-0.0563528669374565));
#563=CARTESIAN_POINT('',(0.0045531555692411,-0.0241364789338928,-0.0624525972012489));
#564=CARTESIAN_POINT('',(0.011828969654025,-0.0241364789338929,-0.0563474642861922));
#565=CARTESIAN_POINT('',(0.00456694942034678,-0.0231113086672217,-0.0624690360728599));
#566=CARTESIAN_POINT('',(0.0118427635051306,-0.0231113086672218,-0.0563639031578032));
#567=CARTESIAN_POINT('',(0.00453872805242554,-0.0222895423341743,-0.0624354031562518));
#568=CARTESIAN_POINT('',(0.0118145421372094,-0.0222895423341745,-0.0563302702411951));
#569=CARTESIAN_POINT('',(0.00462656099790733,-0.0216778894829764,-0.0625400783845778));
#570=CARTESIAN_POINT('',(0.0119023750826912,-0.0216778894829765,-0.0564349454695211));
#571=CARTESIAN_POINT('',(0.0048910984208076,-0.0211973326390187,-0.0628553418086948));
#572=CARTESIAN_POINT('',(0.0121669125055915,-0.0211973326390188,-0.0567502088936381));
#573=CARTESIAN_POINT('',(0.00526272603090938,-0.0209375509043776,-0.0632982303481407));
#574=CARTESIAN_POINT('',(0.0125385401156932,-0.0209375509043777,-0.0571930974330841));
#575=CARTESIAN_POINT('',(0.00566286659813514,-0.0209658648136297,-0.0637750993066747));
#576=CARTESIAN_POINT('',(0.012938680682919,-0.0209658648136298,-0.0576699663916181));
#577=CARTESIAN_POINT('',(0.00592557329215658,-0.0209596266974251,-0.0640881809530733));
#578=CARTESIAN_POINT('',(0.0132013873769404,-0.0209596266974252,-0.0579830480380167));
#579=CARTESIAN_POINT('',(0.00605744475864896,-0.0209596266974251,-0.0642453392470263));
#580=CARTESIAN_POINT('',(0.0133332588434328,-0.0209596266974252,-0.0581402063319697));
#581=CARTESIAN_POINT('',(0.00826322343008317,-0.0209596266974252,-0.0623944711773672));
#582=CARTESIAN_POINT('',(0.0078093721679785,-0.0209596266974251,-0.0623944711773672));
#583=CARTESIAN_POINT('',(0.00712922362437468,-0.0209496726652513,-0.0623944711773671));
#584=CARTESIAN_POINT('',(0.00621983403717566,-0.0209758250475625,-0.0623944711773672));
#585=CARTESIAN_POINT('',(0.00555209463531343,-0.0211698989572223,-0.0623944711773671));
#586=CARTESIAN_POINT('',(0.00495974835573217,-0.0215273684140384,-0.0623944711773672));
#587=CARTESIAN_POINT('',(0.00462230128624056,-0.0220329434991957,-0.0623944711773672));
#588=CARTESIAN_POINT('',(0.00463236978338106,-0.0225013621741284,-0.0623944711773672));
#589=CARTESIAN_POINT('',(0.00462990538130541,-0.0229596900166825,-0.0623944711773671));
#590=CARTESIAN_POINT('',(0.00463122141255387,-0.0235360625402246,-0.0623944711773672));
#591=CARTESIAN_POINT('',(0.0046308387965034,-0.0242262272663136,-0.0623944711773672));
#592=CARTESIAN_POINT('',(0.00463116918037193,-0.0251469640618184,-0.0623944711773671));
#593=CARTESIAN_POINT('',(0.00463153576111586,-0.0267580110020831,-0.0623944711773672));
#594=CARTESIAN_POINT('',(0.004632035836131,-0.0281389914792718,-0.0623944711773672));
#595=CARTESIAN_POINT('',(0.00463220729380139,-0.0290596266974258,-0.0623944711773672));
#596=CARTESIAN_POINT('',(0.00463220729382891,-0.0290596266974253,-0.0623944711773672));
#597=CARTESIAN_POINT('',(0.01183301044269,-0.0290596266974259,-0.0563522799109545));
#598=CARTESIAN_POINT('',(0.0118328882581738,-0.0274717680226715,-0.0563521342971183));
#599=CARTESIAN_POINT('',(0.0118326004155763,-0.0258841336502188,-0.0563517912596686));
#600=CARTESIAN_POINT('',(0.0118324773056182,-0.0240685411368327,-0.0563516445429337));
#601=CARTESIAN_POINT('',(0.0118324744754521,-0.0236130718813522,-0.0563516411700732));
#602=CARTESIAN_POINT('',(0.011832454249787,-0.023157631073467,-0.0563516170660641));
#603=CARTESIAN_POINT('',(0.0118324241094789,-0.0227288162460591,-0.0563515811462437));
#604=CARTESIAN_POINT('',(0.0118324635999471,-0.022527698662351,-0.056351628209151));
#605=CARTESIAN_POINT('',(0.011832265947156,-0.0219690461995988,-0.0563513926557271));
#606=CARTESIAN_POINT('',(0.0120240641104264,-0.021257568139049,-0.0565799688058575));
#607=CARTESIAN_POINT('',(0.0124813930036582,-0.020959229848853,-0.0571249921573636));
#608=CARTESIAN_POINT('',(0.0129185636561059,-0.020959640580348,-0.057645991852995));
#609=CARTESIAN_POINT('',(0.0131259017316979,-0.0209596266974252,-0.0578930877494632));
#610=CARTESIAN_POINT('',(0.0133332588432587,-0.0209596266974252,-0.0581402063321158));
#611=CARTESIAN_POINT('',(0.0118330104428755,-0.0290596266974255,-0.0563522799108219));
#612=CARTESIAN_POINT('',(0.0118330104428755,-0.0290596266974255,-0.0563522799108219));
#613=CARTESIAN_POINT('',(0.0109331638847739,-0.0290596266974252,-0.0552798845427745));
#614=CARTESIAN_POINT('',(0.010933163884774,-0.0290596266974252,-0.0623944711773671));
#615=CARTESIAN_POINT('',(0.0103885212201635,-0.0290596266974252,-0.0623944711773671));
#616=CARTESIAN_POINT('',(0.0109331638847739,-0.0290596266974252,-0.0552798845427745));
#617=CARTESIAN_POINT('',(0.0142113806941753,-0.0290596266974252,-0.0591867112026812));
#618=CARTESIAN_POINT('',(0.0142113806941753,-0.0290596266974252,-0.0591867112026812));
#619=CARTESIAN_POINT('',(0.0142113806941753,-0.0300596266974252,-0.0591867112026812));
#620=CARTESIAN_POINT('',(0.0103885212201634,-0.0300596266974252,-0.0623944711773671));
#621=CARTESIAN_POINT('',(0.0103885212201635,-0.0367935132292335,-0.0623944711773671));
#622=CARTESIAN_POINT('',(0.0103885212201634,-0.0300596266974252,-0.0623944711773671));
#623=CARTESIAN_POINT('',(0.0142113806941752,-0.0367935132292335,-0.0591867112026813));
#624=CARTESIAN_POINT('',(0.0142113806941752,-0.0367935132292335,-0.0591867112026813));
#625=CARTESIAN_POINT('',(0.0142113806941753,-0.0300596266974252,-0.0591867112026812));
#626=CARTESIAN_POINT('',(0.0142113806941753,-0.0300596266974252,-0.0591867112026812));
#627=CARTESIAN_POINT('',(0.0142113806941753,-0.0300596266974252,-0.0591867112026812));
#628=CARTESIAN_POINT('',(0.0109331638847739,-0.0300596266974252,-0.0552798845427745));
#629=CARTESIAN_POINT('',(0.0109331638847739,-0.0300596266974252,-0.0623944711773671));
#630=CARTESIAN_POINT('',(0.00463234306077991,-0.0300596266974251,-0.0623944711773672));
#631=CARTESIAN_POINT('',(0.0109331638847739,-0.0300596266974252,-0.0552798845427745));
#632=CARTESIAN_POINT('',(0.011833066538335,-0.0300596266974252,-0.056352346763141));
#633=CARTESIAN_POINT('',(0.011833066538335,-0.0300596266974252,-0.056352346763141));
#634=CARTESIAN_POINT('',(0.00608724086984337,-0.0381596266974251,-0.064220339079958));
#635=CARTESIAN_POINT('',(0.0133332596994728,-0.0381596266974253,-0.0581402073525123));
#636=CARTESIAN_POINT('',(0.00607356693113831,-0.0381596266974251,-0.0642040431143813));
#637=CARTESIAN_POINT('',(0.0133195857607677,-0.0381596266974253,-0.0581239113869356));
#638=CARTESIAN_POINT('',(0.00582491920187366,-0.038157355520762,-0.0639077162897397));
#639=CARTESIAN_POINT('',(0.0130709380315031,-0.0381573555207621,-0.057827584562294));
#640=CARTESIAN_POINT('',(0.00548316476172698,-0.0381631881325449,-0.0635004292079099));
#641=CARTESIAN_POINT('',(0.0127291835913564,-0.038163188132545,-0.0574202974804642));
#642=CARTESIAN_POINT('',(0.005235797039244,-0.0381415200351101,-0.063205627835949));
#643=CARTESIAN_POINT('',(0.0124818158688734,-0.0381415200351102,-0.0571254961085033));
#644=CARTESIAN_POINT('',(0.00491890067252452,-0.0379229036468071,-0.062827965452431));
#645=CARTESIAN_POINT('',(0.0121649195021539,-0.0379229036468072,-0.0567478337249852));
#646=CARTESIAN_POINT('',(0.00465576049606852,-0.0374422715499945,-0.0625143672017837));
#647=CARTESIAN_POINT('',(0.0119017793256979,-0.0374422715499947,-0.0564342354743379));
#648=CARTESIAN_POINT('',(0.00456918332360806,-0.0368302992821471,-0.0624111885454672));
#649=CARTESIAN_POINT('',(0.0118152021532375,-0.0368302992821472,-0.0563310568180215));
#650=CARTESIAN_POINT('',(0.00459695118699007,-0.0360085340043884,-0.0624442809964114));
#651=CARTESIAN_POINT('',(0.0118429700166195,-0.0360085340043886,-0.0563641492689657));
#652=CARTESIAN_POINT('',(0.00458337918299375,-0.0349833407484252,-0.0624281065118901));
#653=CARTESIAN_POINT('',(0.0118293980126232,-0.0349833407484253,-0.0563479747844443));
#654=CARTESIAN_POINT('',(0.00458782767519023,-0.0337522792477218,-0.0624334080184469));
#655=CARTESIAN_POINT('',(0.0118338465048196,-0.0337522792477219,-0.0563532762910011));
#656=CARTESIAN_POINT('',(0.00458672520107557,-0.0325214520163462,-0.06243209414096));
#657=CARTESIAN_POINT('',(0.011832744030705,-0.0325214520163463,-0.0563519624135142));
#658=CARTESIAN_POINT('',(0.0045871024660358,-0.0312905506728081,-0.0624325437478317));
#659=CARTESIAN_POINT('',(0.0118331212956652,-0.0312905506728082,-0.0563524120203859));
#660=CARTESIAN_POINT('',(0.00458704770870568,-0.0304699410816183,-0.0624324784905867));
#661=CARTESIAN_POINT('',(0.0118330665383351,-0.0304699410816184,-0.056352346763141));
#662=CARTESIAN_POINT('',(0.00458704770870569,-0.0300596266974251,-0.0624324784905867));
#663=CARTESIAN_POINT('',(0.0118330665383351,-0.0300596266974252,-0.056352346763141));
#664=CARTESIAN_POINT('',(0.00463234306077991,-0.0300596266974251,-0.0623944711773672));
#665=CARTESIAN_POINT('',(0.00463234306077996,-0.0309838136632604,-0.0623944711773672));
#666=CARTESIAN_POINT('',(0.00463218214298002,-0.0323701041017881,-0.0623944711773671));
#667=CARTESIAN_POINT('',(0.00463196920898268,-0.0339874079242487,-0.0623944711773673));
#668=CARTESIAN_POINT('',(0.00463181224277687,-0.0349116315621515,-0.0623944711773671));
#669=CARTESIAN_POINT('',(0.0046318424580367,-0.0356046592255731,-0.0623944711773672));
#670=CARTESIAN_POINT('',(0.00463145765208906,-0.0361826283254712,-0.0623944711773672));
#671=CARTESIAN_POINT('',(0.00463216979869514,-0.0366440031359329,-0.0623944711773671));
#672=CARTESIAN_POINT('',(0.00462917707536226,-0.0371090230047727,-0.0623944711773672));
#673=CARTESIAN_POINT('',(0.0049746237898455,-0.0376048201721296,-0.0623944711773668));
#674=CARTESIAN_POINT('',(0.00556393578676805,-0.0379559605836999,-0.0623944711773686));
#675=CARTESIAN_POINT('',(0.00622685938272133,-0.0381448380348808,-0.0623944711773668));
#676=CARTESIAN_POINT('',(0.00713077422194567,-0.03816863475739,-0.0623944711773673));
#677=CARTESIAN_POINT('',(0.00781048183697672,-0.0381596266974251,-0.0623944711773672));
#678=CARTESIAN_POINT('',(0.00826322550235844,-0.0381596266974252,-0.0623944711773672));
#679=CARTESIAN_POINT('',(0.00826322550235839,-0.0381596266974252,-0.0623944711773671));
#680=CARTESIAN_POINT('',(0.0133332596994727,-0.0381596266974253,-0.0581402073525123));
#681=CARTESIAN_POINT('',(0.0133117586866603,-0.0381596266974253,-0.0581145834432486));
#682=CARTESIAN_POINT('',(0.0129185650142125,-0.038159351474658,-0.0576459934715236));
#683=CARTESIAN_POINT('',(0.0125111187863818,-0.0381602509136803,-0.0571604179657175));
#684=CARTESIAN_POINT('',(0.0121118729917868,-0.0379377854860522,-0.0566846153556807));
#685=CARTESIAN_POINT('',(0.0118910937617491,-0.0373744887947378,-0.0564215009151131));
#686=CARTESIAN_POINT('',(0.011838932131838,-0.0369787064068883,-0.056359337105271));
#687=CARTESIAN_POINT('',(0.0118327830408996,-0.036886004728452,-0.0563520089040539));
#688=CARTESIAN_POINT('',(0.0118328201225058,-0.0365216203674637,-0.0563520530961914));
#689=CARTESIAN_POINT('',(0.0118328033513107,-0.0362499756529036,-0.0563520331090593));
#690=CARTESIAN_POINT('',(0.0118328765754281,-0.0340053926705726,-0.0563521203741643));
#691=CARTESIAN_POINT('',(0.011833066538335,-0.0320326035852945,-0.0563523467631411));
#692=CARTESIAN_POINT('',(0.0118330665383351,-0.0300596266974252,-0.056352346763141));
#693=CARTESIAN_POINT('',(0.0133332596994727,-0.0381596266974253,-0.0581402073525122));
#694=CARTESIAN_POINT('',(0.0133332596994727,-0.0381596266974253,-0.0581402073525122));
#695=CARTESIAN_POINT('',(0.00911092629187812,-0.0367935132292334,-0.0634665006104854));
#696=CARTESIAN_POINT('',(0.0142113806941752,-0.0367935132292335,-0.0591867112026813));
#697=CARTESIAN_POINT('',(0.00911092625013118,-0.037151160928813,-0.0634665005607333));
#698=CARTESIAN_POINT('',(0.0142113806524283,-0.0371511609288131,-0.0591867111529293));
#699=CARTESIAN_POINT('',(0.00892011350590552,-0.037862439903913,-0.0632390987872896));
#700=CARTESIAN_POINT('',(0.0140205679082026,-0.0378624399039131,-0.0589593093794855));
#701=CARTESIAN_POINT('',(0.00846269680709834,-0.038159626707388,-0.0626939707931736));
#702=CARTESIAN_POINT('',(0.0135631512093954,-0.0381596267073881,-0.0584141813853695));
#703=CARTESIAN_POINT('',(0.00823280529717564,-0.0381596266974252,-0.0624199967603163));
#704=CARTESIAN_POINT('',(0.0133332596994727,-0.0381596266974253,-0.0581402073525122));
#705=CARTESIAN_POINT('',(0.00826322550235833,-0.0381596266974252,-0.0623944711773671));
#706=CARTESIAN_POINT('',(0.00872772849568716,-0.0381596267057425,-0.0623944711773671));
#707=CARTESIAN_POINT('',(0.00941821448407909,-0.0380211656819586,-0.0623944711773609));
#708=CARTESIAN_POINT('',(0.0101886794311576,-0.0374743772559346,-0.0623944711773684));
#709=CARTESIAN_POINT('',(0.0103885211538796,-0.0370281382844184,-0.0623944711773671));
#710=CARTESIAN_POINT('',(0.0103885212201635,-0.0367935132292335,-0.0623944711773671));
#711=CARTESIAN_POINT('',(0.0142113806941752,-0.0367935132292335,-0.0591867112026813));
#712=CARTESIAN_POINT('',(0.0142113806583921,-0.0371000684003017,-0.0591867111600367));
#713=CARTESIAN_POINT('',(0.0140507405550969,-0.0378164008694802,-0.0589952677398198));
#714=CARTESIAN_POINT('',(0.0135959928536701,-0.0381596267088113,-0.0584533205329206));
#715=CARTESIAN_POINT('',(0.0133332596994727,-0.0381596266974253,-0.0581402073525122));
#716=CARTESIAN_POINT('',(0.0142113806941753,-0.0223257401656169,-0.0591867112026812));
#717=CARTESIAN_POINT('',(0.0103885212201635,-0.0223257401656169,-0.0623944711773671));
#718=CARTESIAN_POINT('',(0.0142113806941753,-0.0223257401656169,-0.0591867112026812));
#719=CARTESIAN_POINT('',(0.0127112217070816,-0.0223258459153617,-0.0573988913403499));
#720=CARTESIAN_POINT('',(0.00675772148922506,-0.0223258459153616,-0.0623944711773672));
#721=CARTESIAN_POINT('',(0.0127112217070816,-0.0223258459153617,-0.0573988913403498));
#722=CARTESIAN_POINT('',(0.0128323090952114,-0.0289020006716316,-0.0575431976701714));
#723=CARTESIAN_POINT('',(3.54013587655461E-16,-0.0295,-0.0623944711773672));
#724=MECHANICAL_DESIGN_GEOMETRIC_PRESENTATION_REPRESENTATION('',(#349),
#725);
#725=(
GEOMETRIC_REPRESENTATION_CONTEXT(3)
GLOBAL_UNCERTAINTY_ASSIGNED_CONTEXT((#726))
GLOBAL_UNIT_ASSIGNED_CONTEXT((#729,#728,#727))
REPRESENTATION_CONTEXT('duct','TOP_LEVEL_ASSEMBLY_PART')
);
#726=UNCERTAINTY_MEASURE_WITH_UNIT(LENGTH_MEASURE(2.E-5),#729,
'DISTANCE_ACCURACY_VALUE','Maximum Tolerance applied to model');
#727=(
NAMED_UNIT(*)
SI_UNIT($,.STERADIAN.)
SOLID_ANGLE_UNIT()
);
#728=(
NAMED_UNIT(*)
PLANE_ANGLE_UNIT()
SI_UNIT($,.RADIAN.)
);
#729=(
LENGTH_UNIT()
NAMED_UNIT(*)
SI_UNIT($,.METRE.)
);
#730=PRODUCT_DEFINITION_SHAPE('','',#731);
#731=PRODUCT_DEFINITION('','',#733,#732);
#732=PRODUCT_DEFINITION_CONTEXT('',#739,'design');
#733=PRODUCT_DEFINITION_FORMATION_WITH_SPECIFIED_SOURCE('','',#735,
 .NOT_KNOWN.);
#734=PRODUCT_RELATED_PRODUCT_CATEGORY('','',(#735));
#735=PRODUCT('duct','duct','duct',(#737));
#736=PRODUCT_CATEGORY('','');
#737=PRODUCT_CONTEXT('',#739,'mechanical');
#738=APPLICATION_PROTOCOL_DEFINITION('international standard',
'ap242_managed_model_based_3d_engineering',2020,#739);
#739=APPLICATION_CONTEXT('managed model based 3d engineering');
ENDSEC;
END-ISO-10303-21;
