ISO-10303-21;
HEADER;
/* Generated by software containing ST-Developer
 * from STEP Tools, Inc. (www.steptools.com) 
 */
/* OPTION: using custom renumber hook */

FILE_DESCRIPTION(
/* description */ ('STEP AP242 Edition 2',
'CAx-IF Rec.Pracs.---Representation and Presentation of Product Manufa
cturing Information (PMI)---4.0---2014-10-13',
'CAx-IF Rec.Pracs.---3D Tessellated Geometry---0.4---2014-09-14','2;1',
'CAx-IF Rec.Pracs.---User Defined Attributes---1.5---2016-08-15'),
/* implementation_level */ '2;1');

FILE_NAME(
/* name */ 'toolhead v4 - MGN12C Carriage v1',
/* time_stamp */ '2026-08-19T20:10:40Z',
/* author */ (''),
/* organization */ (''),
/* preprocessor_version */ 'ST-DEVELOPER v20',
/* originating_system */ 'ONSHAPE BY PTC INC, 1.219',
/* authorisation */ '  ');

FILE_SCHEMA (('AP242_MANAGED_MODEL_BASED_3D_ENGINEERING_MIM_LF { 1 0 10303 442 3 1 4 }'));
ENDSEC;

DATA;
#10=SHAPE_REPRESENTATION_RELATIONSHIP('','',#956,#11);
#11=ADVANCED_BREP_SHAPE_REPRESENTATION('',(#954),#1603);
#12=VERTEX_LOOP('',#541);
#13=VERTEX_LOOP('',#543);
#14=VERTEX_LOOP('',#545);
#15=VERTEX_LOOP('',#555);
#16=CONICAL_SURFACE('',#1023,0.000632367367890697,1.02974425867665);
#17=CONICAL_SURFACE('',#1026,0.000632367367890697,1.02974425867665);
#18=CONICAL_SURFACE('',#1028,0.000632367367890697,1.02974425867665);
#19=CONICAL_SURFACE('',#1032,0.0013895,0.785398163397449);
#20=CONICAL_SURFACE('',#1036,0.0013895,0.785398163397438);
#21=CONICAL_SURFACE('',#1042,0.0013895,0.785398163397438);
#22=CONICAL_SURFACE('',#1045,0.0013895,0.785398163397449);
#23=CONICAL_SURFACE('',#1047,0.000632367367890697,1.02974425867665);
#24=CONICAL_SURFACE('',#1051,0.00115735408741224,0.51487212933833);
#25=CYLINDRICAL_SURFACE('',#975,0.0001600000142);
#26=CYLINDRICAL_SURFACE('',#977,0.0011399998957);
#27=CYLINDRICAL_SURFACE('',#979,0.00016);
#28=CYLINDRICAL_SURFACE('',#982,0.000499999694000001);
#29=CYLINDRICAL_SURFACE('',#985,0.0001600002241);
#30=CYLINDRICAL_SURFACE('',#987,0.0011399998957);
#31=CYLINDRICAL_SURFACE('',#989,0.00016);
#32=CYLINDRICAL_SURFACE('',#996,0.0001600000142);
#33=CYLINDRICAL_SURFACE('',#998,0.0011399996828);
#34=CYLINDRICAL_SURFACE('',#1000,0.00016);
#35=CYLINDRICAL_SURFACE('',#1003,0.000499999694);
#36=CYLINDRICAL_SURFACE('',#1006,0.000160000224100001);
#37=CYLINDRICAL_SURFACE('',#1008,0.0011399996828);
#38=CYLINDRICAL_SURFACE('',#1010,0.00016);
#39=CYLINDRICAL_SURFACE('',#1030,0.0012645);
#40=CYLINDRICAL_SURFACE('',#1034,0.0012645);
#41=CYLINDRICAL_SURFACE('',#1038,0.0012645);
#42=CYLINDRICAL_SURFACE('',#1049,0.0012645);
#43=CIRCLE('',#959,0.0001600000142);
#44=CIRCLE('',#960,0.0011399998957);
#45=CIRCLE('',#961,0.00016);
#46=CIRCLE('',#962,0.000499999694000001);
#47=CIRCLE('',#963,0.0001600002241);
#48=CIRCLE('',#964,0.0011399998957);
#49=CIRCLE('',#965,0.00016);
#50=CIRCLE('',#966,0.0001600000142);
#51=CIRCLE('',#967,0.0011399996828);
#52=CIRCLE('',#968,0.00016);
#53=CIRCLE('',#969,0.000499999694);
#54=CIRCLE('',#970,0.000160000224100001);
#55=CIRCLE('',#971,0.0011399996828);
#56=CIRCLE('',#972,0.00016);
#57=CIRCLE('',#976,0.0001600000142);
#58=CIRCLE('',#978,0.0011399998957);
#59=CIRCLE('',#980,0.00016);
#60=CIRCLE('',#983,0.000499999694000001);
#61=CIRCLE('',#986,0.0001600002241);
#62=CIRCLE('',#988,0.0011399998957);
#63=CIRCLE('',#990,0.00016);
#64=CIRCLE('',#997,0.0001600000142);
#65=CIRCLE('',#999,0.0011399996828);
#66=CIRCLE('',#1001,0.00016);
#67=CIRCLE('',#1004,0.000499999694);
#68=CIRCLE('',#1007,0.000160000224100001);
#69=CIRCLE('',#1009,0.0011399996828);
#70=CIRCLE('',#1011,0.00016);
#71=CIRCLE('',#1024,0.0012645);
#72=CIRCLE('',#1027,0.0012645);
#73=CIRCLE('',#1029,0.0012645);
#74=CIRCLE('',#1031,0.0012645);
#75=CIRCLE('',#1033,0.0015145);
#76=CIRCLE('',#1035,0.0012645);
#77=CIRCLE('',#1037,0.0015145);
#78=CIRCLE('',#1039,0.0012645);
#79=CIRCLE('',#1041,0.0015145);
#80=CIRCLE('',#1044,0.0015145);
#81=CIRCLE('',#1046,0.0012645);
#82=CIRCLE('',#1048,0.00105020817482447);
#83=CIRCLE('',#1050,0.0012645);
#84=ORIENTED_EDGE('',*,*,#338,.T.);
#85=ORIENTED_EDGE('',*,*,#339,.T.);
#86=ORIENTED_EDGE('',*,*,#340,.T.);
#87=ORIENTED_EDGE('',*,*,#341,.T.);
#88=ORIENTED_EDGE('',*,*,#342,.T.);
#89=ORIENTED_EDGE('',*,*,#343,.T.);
#90=ORIENTED_EDGE('',*,*,#344,.T.);
#91=ORIENTED_EDGE('',*,*,#345,.T.);
#92=ORIENTED_EDGE('',*,*,#346,.T.);
#93=ORIENTED_EDGE('',*,*,#347,.T.);
#94=ORIENTED_EDGE('',*,*,#348,.T.);
#95=ORIENTED_EDGE('',*,*,#349,.T.);
#96=ORIENTED_EDGE('',*,*,#350,.T.);
#97=ORIENTED_EDGE('',*,*,#351,.T.);
#98=ORIENTED_EDGE('',*,*,#352,.T.);
#99=ORIENTED_EDGE('',*,*,#353,.T.);
#100=ORIENTED_EDGE('',*,*,#354,.T.);
#101=ORIENTED_EDGE('',*,*,#355,.T.);
#102=ORIENTED_EDGE('',*,*,#356,.T.);
#103=ORIENTED_EDGE('',*,*,#357,.T.);
#104=ORIENTED_EDGE('',*,*,#358,.T.);
#105=ORIENTED_EDGE('',*,*,#359,.T.);
#106=ORIENTED_EDGE('',*,*,#360,.T.);
#107=ORIENTED_EDGE('',*,*,#361,.T.);
#108=ORIENTED_EDGE('',*,*,#362,.T.);
#109=ORIENTED_EDGE('',*,*,#363,.T.);
#110=ORIENTED_EDGE('',*,*,#364,.T.);
#111=ORIENTED_EDGE('',*,*,#365,.T.);
#112=ORIENTED_EDGE('',*,*,#366,.T.);
#113=ORIENTED_EDGE('',*,*,#367,.T.);
#114=ORIENTED_EDGE('',*,*,#368,.T.);
#115=ORIENTED_EDGE('',*,*,#369,.T.);
#116=ORIENTED_EDGE('',*,*,#370,.T.);
#117=ORIENTED_EDGE('',*,*,#371,.T.);
#118=ORIENTED_EDGE('',*,*,#372,.T.);
#119=ORIENTED_EDGE('',*,*,#373,.T.);
#120=ORIENTED_EDGE('',*,*,#374,.T.);
#121=ORIENTED_EDGE('',*,*,#375,.T.);
#122=ORIENTED_EDGE('',*,*,#376,.T.);
#123=ORIENTED_EDGE('',*,*,#338,.F.);
#124=ORIENTED_EDGE('',*,*,#377,.F.);
#125=ORIENTED_EDGE('',*,*,#378,.T.);
#126=ORIENTED_EDGE('',*,*,#379,.T.);
#127=ORIENTED_EDGE('',*,*,#339,.F.);
#128=ORIENTED_EDGE('',*,*,#376,.F.);
#129=ORIENTED_EDGE('',*,*,#380,.T.);
#130=ORIENTED_EDGE('',*,*,#381,.T.);
#131=ORIENTED_EDGE('',*,*,#340,.F.);
#132=ORIENTED_EDGE('',*,*,#379,.F.);
#133=ORIENTED_EDGE('',*,*,#382,.T.);
#134=ORIENTED_EDGE('',*,*,#383,.T.);
#135=ORIENTED_EDGE('',*,*,#341,.F.);
#136=ORIENTED_EDGE('',*,*,#381,.F.);
#137=ORIENTED_EDGE('',*,*,#384,.T.);
#138=ORIENTED_EDGE('',*,*,#385,.T.);
#139=ORIENTED_EDGE('',*,*,#342,.F.);
#140=ORIENTED_EDGE('',*,*,#383,.F.);
#141=ORIENTED_EDGE('',*,*,#386,.T.);
#142=ORIENTED_EDGE('',*,*,#387,.T.);
#143=ORIENTED_EDGE('',*,*,#343,.F.);
#144=ORIENTED_EDGE('',*,*,#385,.F.);
#145=ORIENTED_EDGE('',*,*,#388,.T.);
#146=ORIENTED_EDGE('',*,*,#389,.T.);
#147=ORIENTED_EDGE('',*,*,#344,.F.);
#148=ORIENTED_EDGE('',*,*,#387,.F.);
#149=ORIENTED_EDGE('',*,*,#390,.T.);
#150=ORIENTED_EDGE('',*,*,#391,.T.);
#151=ORIENTED_EDGE('',*,*,#345,.F.);
#152=ORIENTED_EDGE('',*,*,#389,.F.);
#153=ORIENTED_EDGE('',*,*,#392,.T.);
#154=ORIENTED_EDGE('',*,*,#393,.T.);
#155=ORIENTED_EDGE('',*,*,#346,.F.);
#156=ORIENTED_EDGE('',*,*,#391,.F.);
#157=ORIENTED_EDGE('',*,*,#394,.T.);
#158=ORIENTED_EDGE('',*,*,#395,.T.);
#159=ORIENTED_EDGE('',*,*,#347,.F.);
#160=ORIENTED_EDGE('',*,*,#393,.F.);
#161=ORIENTED_EDGE('',*,*,#396,.T.);
#162=ORIENTED_EDGE('',*,*,#397,.T.);
#163=ORIENTED_EDGE('',*,*,#348,.F.);
#164=ORIENTED_EDGE('',*,*,#395,.F.);
#165=ORIENTED_EDGE('',*,*,#398,.T.);
#166=ORIENTED_EDGE('',*,*,#399,.T.);
#167=ORIENTED_EDGE('',*,*,#349,.F.);
#168=ORIENTED_EDGE('',*,*,#397,.F.);
#169=ORIENTED_EDGE('',*,*,#400,.T.);
#170=ORIENTED_EDGE('',*,*,#401,.T.);
#171=ORIENTED_EDGE('',*,*,#350,.F.);
#172=ORIENTED_EDGE('',*,*,#399,.F.);
#173=ORIENTED_EDGE('',*,*,#402,.T.);
#174=ORIENTED_EDGE('',*,*,#403,.T.);
#175=ORIENTED_EDGE('',*,*,#351,.F.);
#176=ORIENTED_EDGE('',*,*,#401,.F.);
#177=ORIENTED_EDGE('',*,*,#404,.T.);
#178=ORIENTED_EDGE('',*,*,#405,.T.);
#179=ORIENTED_EDGE('',*,*,#352,.F.);
#180=ORIENTED_EDGE('',*,*,#403,.F.);
#181=ORIENTED_EDGE('',*,*,#406,.T.);
#182=ORIENTED_EDGE('',*,*,#407,.T.);
#183=ORIENTED_EDGE('',*,*,#353,.F.);
#184=ORIENTED_EDGE('',*,*,#405,.F.);
#185=ORIENTED_EDGE('',*,*,#408,.T.);
#186=ORIENTED_EDGE('',*,*,#409,.T.);
#187=ORIENTED_EDGE('',*,*,#354,.F.);
#188=ORIENTED_EDGE('',*,*,#407,.F.);
#189=ORIENTED_EDGE('',*,*,#410,.T.);
#190=ORIENTED_EDGE('',*,*,#411,.T.);
#191=ORIENTED_EDGE('',*,*,#355,.F.);
#192=ORIENTED_EDGE('',*,*,#409,.F.);
#193=ORIENTED_EDGE('',*,*,#412,.T.);
#194=ORIENTED_EDGE('',*,*,#413,.T.);
#195=ORIENTED_EDGE('',*,*,#356,.F.);
#196=ORIENTED_EDGE('',*,*,#411,.F.);
#197=ORIENTED_EDGE('',*,*,#414,.T.);
#198=ORIENTED_EDGE('',*,*,#415,.T.);
#199=ORIENTED_EDGE('',*,*,#357,.F.);
#200=ORIENTED_EDGE('',*,*,#413,.F.);
#201=ORIENTED_EDGE('',*,*,#416,.T.);
#202=ORIENTED_EDGE('',*,*,#417,.T.);
#203=ORIENTED_EDGE('',*,*,#358,.F.);
#204=ORIENTED_EDGE('',*,*,#415,.F.);
#205=ORIENTED_EDGE('',*,*,#418,.T.);
#206=ORIENTED_EDGE('',*,*,#419,.T.);
#207=ORIENTED_EDGE('',*,*,#359,.F.);
#208=ORIENTED_EDGE('',*,*,#417,.F.);
#209=ORIENTED_EDGE('',*,*,#420,.T.);
#210=ORIENTED_EDGE('',*,*,#421,.T.);
#211=ORIENTED_EDGE('',*,*,#360,.F.);
#212=ORIENTED_EDGE('',*,*,#419,.F.);
#213=ORIENTED_EDGE('',*,*,#422,.T.);
#214=ORIENTED_EDGE('',*,*,#423,.T.);
#215=ORIENTED_EDGE('',*,*,#361,.F.);
#216=ORIENTED_EDGE('',*,*,#421,.F.);
#217=ORIENTED_EDGE('',*,*,#424,.T.);
#218=ORIENTED_EDGE('',*,*,#425,.T.);
#219=ORIENTED_EDGE('',*,*,#362,.F.);
#220=ORIENTED_EDGE('',*,*,#423,.F.);
#221=ORIENTED_EDGE('',*,*,#426,.T.);
#222=ORIENTED_EDGE('',*,*,#427,.T.);
#223=ORIENTED_EDGE('',*,*,#363,.F.);
#224=ORIENTED_EDGE('',*,*,#425,.F.);
#225=ORIENTED_EDGE('',*,*,#428,.T.);
#226=ORIENTED_EDGE('',*,*,#427,.F.);
#227=ORIENTED_EDGE('',*,*,#429,.T.);
#228=ORIENTED_EDGE('',*,*,#430,.T.);
#229=ORIENTED_EDGE('',*,*,#364,.F.);
#230=ORIENTED_EDGE('',*,*,#431,.T.);
#231=ORIENTED_EDGE('',*,*,#365,.F.);
#232=ORIENTED_EDGE('',*,*,#430,.F.);
#233=ORIENTED_EDGE('',*,*,#432,.T.);
#234=ORIENTED_EDGE('',*,*,#433,.T.);
#235=ORIENTED_EDGE('',*,*,#366,.F.);
#236=ORIENTED_EDGE('',*,*,#431,.F.);
#237=ORIENTED_EDGE('',*,*,#434,.T.);
#238=ORIENTED_EDGE('',*,*,#435,.T.);
#239=ORIENTED_EDGE('',*,*,#367,.F.);
#240=ORIENTED_EDGE('',*,*,#433,.F.);
#241=ORIENTED_EDGE('',*,*,#436,.T.);
#242=ORIENTED_EDGE('',*,*,#437,.T.);
#243=ORIENTED_EDGE('',*,*,#369,.F.);
#244=ORIENTED_EDGE('',*,*,#438,.F.);
#245=ORIENTED_EDGE('',*,*,#439,.T.);
#246=ORIENTED_EDGE('',*,*,#440,.T.);
#247=ORIENTED_EDGE('',*,*,#370,.F.);
#248=ORIENTED_EDGE('',*,*,#437,.F.);
#249=ORIENTED_EDGE('',*,*,#441,.T.);
#250=ORIENTED_EDGE('',*,*,#442,.T.);
#251=ORIENTED_EDGE('',*,*,#371,.F.);
#252=ORIENTED_EDGE('',*,*,#440,.F.);
#253=ORIENTED_EDGE('',*,*,#443,.T.);
#254=ORIENTED_EDGE('',*,*,#444,.T.);
#255=ORIENTED_EDGE('',*,*,#373,.F.);
#256=ORIENTED_EDGE('',*,*,#445,.F.);
#257=ORIENTED_EDGE('',*,*,#446,.T.);
#258=ORIENTED_EDGE('',*,*,#447,.F.);
#259=ORIENTED_EDGE('',*,*,#374,.F.);
#260=ORIENTED_EDGE('',*,*,#444,.F.);
#261=ORIENTED_EDGE('',*,*,#448,.T.);
#262=ORIENTED_EDGE('',*,*,#377,.T.);
#263=ORIENTED_EDGE('',*,*,#375,.F.);
#264=ORIENTED_EDGE('',*,*,#447,.T.);
#265=ORIENTED_EDGE('',*,*,#449,.T.);
#266=ORIENTED_EDGE('',*,*,#450,.F.);
#267=ORIENTED_EDGE('',*,*,#378,.F.);
#268=ORIENTED_EDGE('',*,*,#449,.F.);
#269=ORIENTED_EDGE('',*,*,#448,.F.);
#270=ORIENTED_EDGE('',*,*,#446,.F.);
#271=ORIENTED_EDGE('',*,*,#451,.F.);
#272=ORIENTED_EDGE('',*,*,#443,.F.);
#273=ORIENTED_EDGE('',*,*,#441,.F.);
#274=ORIENTED_EDGE('',*,*,#439,.F.);
#275=ORIENTED_EDGE('',*,*,#452,.F.);
#276=ORIENTED_EDGE('',*,*,#436,.F.);
#277=ORIENTED_EDGE('',*,*,#434,.F.);
#278=ORIENTED_EDGE('',*,*,#432,.F.);
#279=ORIENTED_EDGE('',*,*,#429,.F.);
#280=ORIENTED_EDGE('',*,*,#428,.F.);
#281=ORIENTED_EDGE('',*,*,#426,.F.);
#282=ORIENTED_EDGE('',*,*,#424,.F.);
#283=ORIENTED_EDGE('',*,*,#422,.F.);
#284=ORIENTED_EDGE('',*,*,#420,.F.);
#285=ORIENTED_EDGE('',*,*,#418,.F.);
#286=ORIENTED_EDGE('',*,*,#416,.F.);
#287=ORIENTED_EDGE('',*,*,#414,.F.);
#288=ORIENTED_EDGE('',*,*,#412,.F.);
#289=ORIENTED_EDGE('',*,*,#410,.F.);
#290=ORIENTED_EDGE('',*,*,#408,.F.);
#291=ORIENTED_EDGE('',*,*,#406,.F.);
#292=ORIENTED_EDGE('',*,*,#404,.F.);
#293=ORIENTED_EDGE('',*,*,#402,.F.);
#294=ORIENTED_EDGE('',*,*,#400,.F.);
#295=ORIENTED_EDGE('',*,*,#398,.F.);
#296=ORIENTED_EDGE('',*,*,#396,.F.);
#297=ORIENTED_EDGE('',*,*,#394,.F.);
#298=ORIENTED_EDGE('',*,*,#392,.F.);
#299=ORIENTED_EDGE('',*,*,#390,.F.);
#300=ORIENTED_EDGE('',*,*,#388,.F.);
#301=ORIENTED_EDGE('',*,*,#386,.F.);
#302=ORIENTED_EDGE('',*,*,#384,.F.);
#303=ORIENTED_EDGE('',*,*,#382,.F.);
#304=ORIENTED_EDGE('',*,*,#380,.F.);
#305=ORIENTED_EDGE('',*,*,#453,.T.);
#306=ORIENTED_EDGE('',*,*,#454,.T.);
#307=ORIENTED_EDGE('',*,*,#454,.F.);
#308=ORIENTED_EDGE('',*,*,#455,.F.);
#309=ORIENTED_EDGE('',*,*,#456,.T.);
#310=ORIENTED_EDGE('',*,*,#455,.T.);
#311=ORIENTED_EDGE('',*,*,#453,.F.);
#312=ORIENTED_EDGE('',*,*,#457,.F.);
#313=ORIENTED_EDGE('',*,*,#458,.T.);
#314=ORIENTED_EDGE('',*,*,#457,.T.);
#315=ORIENTED_EDGE('',*,*,#450,.T.);
#316=ORIENTED_EDGE('',*,*,#459,.F.);
#317=ORIENTED_EDGE('',*,*,#460,.F.);
#318=ORIENTED_EDGE('',*,*,#458,.F.);
#319=ORIENTED_EDGE('',*,*,#445,.T.);
#320=ORIENTED_EDGE('',*,*,#372,.F.);
#321=ORIENTED_EDGE('',*,*,#442,.F.);
#322=ORIENTED_EDGE('',*,*,#451,.T.);
#323=ORIENTED_EDGE('',*,*,#459,.T.);
#324=ORIENTED_EDGE('',*,*,#460,.T.);
#325=ORIENTED_EDGE('',*,*,#461,.F.);
#326=ORIENTED_EDGE('',*,*,#456,.F.);
#327=ORIENTED_EDGE('',*,*,#438,.T.);
#328=ORIENTED_EDGE('',*,*,#368,.F.);
#329=ORIENTED_EDGE('',*,*,#435,.F.);
#330=ORIENTED_EDGE('',*,*,#452,.T.);
#331=ORIENTED_EDGE('',*,*,#462,.T.);
#332=ORIENTED_EDGE('',*,*,#461,.T.);
#333=ORIENTED_EDGE('',*,*,#463,.F.);
#334=ORIENTED_EDGE('',*,*,#464,.F.);
#335=ORIENTED_EDGE('',*,*,#462,.F.);
#336=ORIENTED_EDGE('',*,*,#463,.T.);
#337=ORIENTED_EDGE('',*,*,#464,.T.);
#338=EDGE_CURVE('',#465,#466,#558,.T.);
#339=EDGE_CURVE('',#466,#467,#559,.T.);
#340=EDGE_CURVE('',#467,#468,#43,.T.);
#341=EDGE_CURVE('',#468,#469,#44,.T.);
#342=EDGE_CURVE('',#469,#470,#45,.T.);
#343=EDGE_CURVE('',#470,#471,#560,.T.);
#344=EDGE_CURVE('',#471,#472,#46,.T.);
#345=EDGE_CURVE('',#472,#473,#561,.T.);
#346=EDGE_CURVE('',#473,#474,#47,.T.);
#347=EDGE_CURVE('',#474,#475,#48,.T.);
#348=EDGE_CURVE('',#475,#476,#49,.T.);
#349=EDGE_CURVE('',#476,#477,#562,.T.);
#350=EDGE_CURVE('',#477,#478,#563,.T.);
#351=EDGE_CURVE('',#478,#479,#564,.T.);
#352=EDGE_CURVE('',#479,#480,#565,.T.);
#353=EDGE_CURVE('',#480,#481,#566,.T.);
#354=EDGE_CURVE('',#481,#482,#50,.T.);
#355=EDGE_CURVE('',#482,#483,#51,.T.);
#356=EDGE_CURVE('',#483,#484,#52,.T.);
#357=EDGE_CURVE('',#484,#485,#567,.T.);
#358=EDGE_CURVE('',#485,#486,#53,.T.);
#359=EDGE_CURVE('',#486,#487,#568,.T.);
#360=EDGE_CURVE('',#487,#488,#54,.T.);
#361=EDGE_CURVE('',#488,#489,#55,.T.);
#362=EDGE_CURVE('',#489,#490,#56,.T.);
#363=EDGE_CURVE('',#490,#491,#569,.T.);
#364=EDGE_CURVE('',#491,#492,#570,.T.);
#365=EDGE_CURVE('',#492,#493,#571,.T.);
#366=EDGE_CURVE('',#493,#494,#572,.T.);
#367=EDGE_CURVE('',#494,#495,#573,.T.);
#368=EDGE_CURVE('',#495,#496,#574,.T.);
#369=EDGE_CURVE('',#496,#497,#575,.T.);
#370=EDGE_CURVE('',#497,#498,#576,.T.);
#371=EDGE_CURVE('',#498,#499,#577,.T.);
#372=EDGE_CURVE('',#499,#500,#578,.T.);
#373=EDGE_CURVE('',#500,#501,#579,.T.);
#374=EDGE_CURVE('',#501,#502,#580,.T.);
#375=EDGE_CURVE('',#502,#465,#581,.T.);
#376=EDGE_CURVE('',#503,#466,#582,.T.);
#377=EDGE_CURVE('',#504,#465,#583,.T.);
#378=EDGE_CURVE('',#504,#503,#584,.T.);
#379=EDGE_CURVE('',#505,#467,#585,.T.);
#380=EDGE_CURVE('',#503,#505,#586,.T.);
#381=EDGE_CURVE('',#506,#468,#587,.T.);
#382=EDGE_CURVE('',#505,#506,#57,.T.);
#383=EDGE_CURVE('',#507,#469,#588,.T.);
#384=EDGE_CURVE('',#506,#507,#58,.T.);
#385=EDGE_CURVE('',#508,#470,#589,.T.);
#386=EDGE_CURVE('',#507,#508,#59,.T.);
#387=EDGE_CURVE('',#509,#471,#590,.T.);
#388=EDGE_CURVE('',#508,#509,#591,.T.);
#389=EDGE_CURVE('',#510,#472,#592,.T.);
#390=EDGE_CURVE('',#509,#510,#60,.T.);
#391=EDGE_CURVE('',#511,#473,#593,.T.);
#392=EDGE_CURVE('',#510,#511,#594,.T.);
#393=EDGE_CURVE('',#512,#474,#595,.T.);
#394=EDGE_CURVE('',#511,#512,#61,.T.);
#395=EDGE_CURVE('',#513,#475,#596,.T.);
#396=EDGE_CURVE('',#512,#513,#62,.T.);
#397=EDGE_CURVE('',#514,#476,#597,.T.);
#398=EDGE_CURVE('',#513,#514,#63,.T.);
#399=EDGE_CURVE('',#515,#477,#598,.T.);
#400=EDGE_CURVE('',#514,#515,#599,.T.);
#401=EDGE_CURVE('',#516,#478,#600,.T.);
#402=EDGE_CURVE('',#515,#516,#601,.T.);
#403=EDGE_CURVE('',#517,#479,#602,.T.);
#404=EDGE_CURVE('',#516,#517,#603,.T.);
#405=EDGE_CURVE('',#518,#480,#604,.T.);
#406=EDGE_CURVE('',#517,#518,#605,.T.);
#407=EDGE_CURVE('',#519,#481,#606,.T.);
#408=EDGE_CURVE('',#518,#519,#607,.T.);
#409=EDGE_CURVE('',#520,#482,#608,.T.);
#410=EDGE_CURVE('',#519,#520,#64,.T.);
#411=EDGE_CURVE('',#521,#483,#609,.T.);
#412=EDGE_CURVE('',#520,#521,#65,.T.);
#413=EDGE_CURVE('',#522,#484,#610,.T.);
#414=EDGE_CURVE('',#521,#522,#66,.T.);
#415=EDGE_CURVE('',#523,#485,#611,.T.);
#416=EDGE_CURVE('',#522,#523,#612,.T.);
#417=EDGE_CURVE('',#524,#486,#613,.T.);
#418=EDGE_CURVE('',#523,#524,#67,.T.);
#419=EDGE_CURVE('',#525,#487,#614,.T.);
#420=EDGE_CURVE('',#524,#525,#615,.T.);
#421=EDGE_CURVE('',#526,#488,#616,.T.);
#422=EDGE_CURVE('',#525,#526,#68,.T.);
#423=EDGE_CURVE('',#527,#489,#617,.T.);
#424=EDGE_CURVE('',#526,#527,#69,.T.);
#425=EDGE_CURVE('',#528,#490,#618,.T.);
#426=EDGE_CURVE('',#527,#528,#70,.T.);
#427=EDGE_CURVE('',#529,#491,#619,.T.);
#428=EDGE_CURVE('',#528,#529,#620,.T.);
#429=EDGE_CURVE('',#529,#530,#621,.T.);
#430=EDGE_CURVE('',#530,#492,#622,.T.);
#431=EDGE_CURVE('',#531,#493,#623,.T.);
#432=EDGE_CURVE('',#530,#531,#624,.T.);
#433=EDGE_CURVE('',#532,#494,#625,.T.);
#434=EDGE_CURVE('',#531,#532,#626,.T.);
#435=EDGE_CURVE('',#533,#495,#627,.T.);
#436=EDGE_CURVE('',#532,#533,#628,.T.);
#437=EDGE_CURVE('',#534,#497,#629,.T.);
#438=EDGE_CURVE('',#535,#496,#630,.T.);
#439=EDGE_CURVE('',#535,#534,#631,.T.);
#440=EDGE_CURVE('',#536,#498,#632,.T.);
#441=EDGE_CURVE('',#534,#536,#633,.T.);
#442=EDGE_CURVE('',#537,#499,#634,.T.);
#443=EDGE_CURVE('',#536,#537,#635,.T.);
#444=EDGE_CURVE('',#538,#501,#636,.T.);
#445=EDGE_CURVE('',#539,#500,#637,.T.);
#446=EDGE_CURVE('',#539,#538,#638,.T.);
#447=EDGE_CURVE('',#502,#540,#639,.T.);
#448=EDGE_CURVE('',#538,#540,#640,.T.);
#449=EDGE_CURVE('',#540,#504,#641,.T.);
#450=EDGE_CURVE('',#542,#542,#71,.T.);
#451=EDGE_CURVE('',#537,#539,#642,.T.);
#452=EDGE_CURVE('',#533,#535,#643,.T.);
#453=EDGE_CURVE('',#544,#544,#72,.T.);
#454=EDGE_CURVE('',#546,#546,#73,.T.);
#455=EDGE_CURVE('',#547,#547,#74,.T.);
#456=EDGE_CURVE('',#548,#548,#75,.T.);
#457=EDGE_CURVE('',#549,#549,#76,.T.);
#458=EDGE_CURVE('',#550,#550,#77,.T.);
#459=EDGE_CURVE('',#551,#551,#78,.T.);
#460=EDGE_CURVE('',#552,#552,#79,.T.);
#461=EDGE_CURVE('',#553,#553,#80,.T.);
#462=EDGE_CURVE('',#554,#554,#81,.T.);
#463=EDGE_CURVE('',#556,#556,#82,.T.);
#464=EDGE_CURVE('',#557,#557,#83,.T.);
#465=VERTEX_POINT('',#1331);
#466=VERTEX_POINT('',#1332);
#467=VERTEX_POINT('',#1334);
#468=VERTEX_POINT('',#1336);
#469=VERTEX_POINT('',#1338);
#470=VERTEX_POINT('',#1340);
#471=VERTEX_POINT('',#1342);
#472=VERTEX_POINT('',#1344);
#473=VERTEX_POINT('',#1346);
#474=VERTEX_POINT('',#1348);
#475=VERTEX_POINT('',#1350);
#476=VERTEX_POINT('',#1352);
#477=VERTEX_POINT('',#1354);
#478=VERTEX_POINT('',#1356);
#479=VERTEX_POINT('',#1358);
#480=VERTEX_POINT('',#1360);
#481=VERTEX_POINT('',#1362);
#482=VERTEX_POINT('',#1364);
#483=VERTEX_POINT('',#1366);
#484=VERTEX_POINT('',#1368);
#485=VERTEX_POINT('',#1370);
#486=VERTEX_POINT('',#1372);
#487=VERTEX_POINT('',#1374);
#488=VERTEX_POINT('',#1376);
#489=VERTEX_POINT('',#1378);
#490=VERTEX_POINT('',#1380);
#491=VERTEX_POINT('',#1382);
#492=VERTEX_POINT('',#1384);
#493=VERTEX_POINT('',#1386);
#494=VERTEX_POINT('',#1388);
#495=VERTEX_POINT('',#1390);
#496=VERTEX_POINT('',#1392);
#497=VERTEX_POINT('',#1394);
#498=VERTEX_POINT('',#1396);
#499=VERTEX_POINT('',#1398);
#500=VERTEX_POINT('',#1400);
#501=VERTEX_POINT('',#1402);
#502=VERTEX_POINT('',#1404);
#503=VERTEX_POINT('',#1408);
#504=VERTEX_POINT('',#1410);
#505=VERTEX_POINT('',#1414);
#506=VERTEX_POINT('',#1418);
#507=VERTEX_POINT('',#1422);
#508=VERTEX_POINT('',#1426);
#509=VERTEX_POINT('',#1430);
#510=VERTEX_POINT('',#1434);
#511=VERTEX_POINT('',#1438);
#512=VERTEX_POINT('',#1442);
#513=VERTEX_POINT('',#1446);
#514=VERTEX_POINT('',#1450);
#515=VERTEX_POINT('',#1454);
#516=VERTEX_POINT('',#1458);
#517=VERTEX_POINT('',#1462);
#518=VERTEX_POINT('',#1466);
#519=VERTEX_POINT('',#1470);
#520=VERTEX_POINT('',#1474);
#521=VERTEX_POINT('',#1478);
#522=VERTEX_POINT('',#1482);
#523=VERTEX_POINT('',#1486);
#524=VERTEX_POINT('',#1490);
#525=VERTEX_POINT('',#1494);
#526=VERTEX_POINT('',#1498);
#527=VERTEX_POINT('',#1502);
#528=VERTEX_POINT('',#1506);
#529=VERTEX_POINT('',#1510);
#530=VERTEX_POINT('',#1514);
#531=VERTEX_POINT('',#1518);
#532=VERTEX_POINT('',#1522);
#533=VERTEX_POINT('',#1526);
#534=VERTEX_POINT('',#1530);
#535=VERTEX_POINT('',#1532);
#536=VERTEX_POINT('',#1536);
#537=VERTEX_POINT('',#1540);
#538=VERTEX_POINT('',#1544);
#539=VERTEX_POINT('',#1546);
#540=VERTEX_POINT('',#1550);
#541=VERTEX_POINT('',#1555);
#542=VERTEX_POINT('',#1557);
#543=VERTEX_POINT('',#1562);
#544=VERTEX_POINT('',#1564);
#545=VERTEX_POINT('',#1566);
#546=VERTEX_POINT('',#1568);
#547=VERTEX_POINT('',#1571);
#548=VERTEX_POINT('',#1574);
#549=VERTEX_POINT('',#1577);
#550=VERTEX_POINT('',#1580);
#551=VERTEX_POINT('',#1583);
#552=VERTEX_POINT('',#1586);
#553=VERTEX_POINT('',#1590);
#554=VERTEX_POINT('',#1593);
#555=VERTEX_POINT('',#1595);
#556=VERTEX_POINT('',#1597);
#557=VERTEX_POINT('',#1600);
#558=LINE('',#1330,#644);
#559=LINE('',#1333,#645);
#560=LINE('',#1341,#646);
#561=LINE('',#1345,#647);
#562=LINE('',#1353,#648);
#563=LINE('',#1355,#649);
#564=LINE('',#1357,#650);
#565=LINE('',#1359,#651);
#566=LINE('',#1361,#652);
#567=LINE('',#1369,#653);
#568=LINE('',#1373,#654);
#569=LINE('',#1381,#655);
#570=LINE('',#1383,#656);
#571=LINE('',#1385,#657);
#572=LINE('',#1387,#658);
#573=LINE('',#1389,#659);
#574=LINE('',#1391,#660);
#575=LINE('',#1393,#661);
#576=LINE('',#1395,#662);
#577=LINE('',#1397,#663);
#578=LINE('',#1399,#664);
#579=LINE('',#1401,#665);
#580=LINE('',#1403,#666);
#581=LINE('',#1405,#667);
#582=LINE('',#1407,#668);
#583=LINE('',#1409,#669);
#584=LINE('',#1411,#670);
#585=LINE('',#1413,#671);
#586=LINE('',#1415,#672);
#587=LINE('',#1417,#673);
#588=LINE('',#1421,#674);
#589=LINE('',#1425,#675);
#590=LINE('',#1429,#676);
#591=LINE('',#1431,#677);
#592=LINE('',#1433,#678);
#593=LINE('',#1437,#679);
#594=LINE('',#1439,#680);
#595=LINE('',#1441,#681);
#596=LINE('',#1445,#682);
#597=LINE('',#1449,#683);
#598=LINE('',#1453,#684);
#599=LINE('',#1455,#685);
#600=LINE('',#1457,#686);
#601=LINE('',#1459,#687);
#602=LINE('',#1461,#688);
#603=LINE('',#1463,#689);
#604=LINE('',#1465,#690);
#605=LINE('',#1467,#691);
#606=LINE('',#1469,#692);
#607=LINE('',#1471,#693);
#608=LINE('',#1473,#694);
#609=LINE('',#1477,#695);
#610=LINE('',#1481,#696);
#611=LINE('',#1485,#697);
#612=LINE('',#1487,#698);
#613=LINE('',#1489,#699);
#614=LINE('',#1493,#700);
#615=LINE('',#1495,#701);
#616=LINE('',#1497,#702);
#617=LINE('',#1501,#703);
#618=LINE('',#1505,#704);
#619=LINE('',#1509,#705);
#620=LINE('',#1511,#706);
#621=LINE('',#1513,#707);
#622=LINE('',#1515,#708);
#623=LINE('',#1517,#709);
#624=LINE('',#1519,#710);
#625=LINE('',#1521,#711);
#626=LINE('',#1523,#712);
#627=LINE('',#1525,#713);
#628=LINE('',#1527,#714);
#629=LINE('',#1529,#715);
#630=LINE('',#1531,#716);
#631=LINE('',#1533,#717);
#632=LINE('',#1535,#718);
#633=LINE('',#1537,#719);
#634=LINE('',#1539,#720);
#635=LINE('',#1541,#721);
#636=LINE('',#1543,#722);
#637=LINE('',#1545,#723);
#638=LINE('',#1547,#724);
#639=LINE('',#1549,#725);
#640=LINE('',#1551,#726);
#641=LINE('',#1553,#727);
#642=LINE('',#1559,#728);
#643=LINE('',#1560,#729);
#644=VECTOR('',#1056,1.);
#645=VECTOR('',#1057,1.);
#646=VECTOR('',#1064,1.);
#647=VECTOR('',#1067,1.);
#648=VECTOR('',#1074,1.);
#649=VECTOR('',#1075,1.);
#650=VECTOR('',#1076,1.);
#651=VECTOR('',#1077,1.);
#652=VECTOR('',#1078,1.);
#653=VECTOR('',#1085,1.);
#654=VECTOR('',#1088,1.);
#655=VECTOR('',#1095,1.);
#656=VECTOR('',#1096,1.);
#657=VECTOR('',#1097,1.);
#658=VECTOR('',#1098,1.);
#659=VECTOR('',#1099,1.);
#660=VECTOR('',#1100,1.);
#661=VECTOR('',#1101,1.);
#662=VECTOR('',#1102,1.);
#663=VECTOR('',#1103,1.);
#664=VECTOR('',#1104,1.);
#665=VECTOR('',#1105,1.);
#666=VECTOR('',#1106,1.);
#667=VECTOR('',#1107,1.);
#668=VECTOR('',#1110,1.);
#669=VECTOR('',#1111,1.);
#670=VECTOR('',#1112,1.);
#671=VECTOR('',#1115,1.);
#672=VECTOR('',#1116,1.);
#673=VECTOR('',#1119,1.);
#674=VECTOR('',#1124,1.);
#675=VECTOR('',#1129,1.);
#676=VECTOR('',#1134,1.);
#677=VECTOR('',#1135,1.);
#678=VECTOR('',#1138,1.);
#679=VECTOR('',#1143,1.);
#680=VECTOR('',#1144,1.);
#681=VECTOR('',#1147,1.);
#682=VECTOR('',#1152,1.);
#683=VECTOR('',#1157,1.);
#684=VECTOR('',#1162,1.);
#685=VECTOR('',#1163,1.);
#686=VECTOR('',#1166,1.);
#687=VECTOR('',#1167,1.);
#688=VECTOR('',#1170,1.);
#689=VECTOR('',#1171,1.);
#690=VECTOR('',#1174,1.);
#691=VECTOR('',#1175,1.);
#692=VECTOR('',#1178,1.);
#693=VECTOR('',#1179,1.);
#694=VECTOR('',#1182,1.);
#695=VECTOR('',#1187,1.);
#696=VECTOR('',#1192,1.);
#697=VECTOR('',#1197,1.);
#698=VECTOR('',#1198,1.);
#699=VECTOR('',#1201,1.);
#700=VECTOR('',#1206,1.);
#701=VECTOR('',#1207,1.);
#702=VECTOR('',#1210,1.);
#703=VECTOR('',#1215,1.);
#704=VECTOR('',#1220,1.);
#705=VECTOR('',#1225,1.);
#706=VECTOR('',#1226,1.);
#707=VECTOR('',#1229,1.);
#708=VECTOR('',#1230,1.);
#709=VECTOR('',#1233,1.);
#710=VECTOR('',#1234,1.);
#711=VECTOR('',#1237,1.);
#712=VECTOR('',#1238,1.);
#713=VECTOR('',#1241,1.);
#714=VECTOR('',#1242,1.);
#715=VECTOR('',#1245,1.);
#716=VECTOR('',#1246,1.);
#717=VECTOR('',#1247,1.);
#718=VECTOR('',#1250,1.);
#719=VECTOR('',#1251,1.);
#720=VECTOR('',#1254,1.);
#721=VECTOR('',#1255,1.);
#722=VECTOR('',#1258,1.);
#723=VECTOR('',#1259,1.);
#724=VECTOR('',#1260,1.);
#725=VECTOR('',#1263,1.);
#726=VECTOR('',#1264,1.);
#727=VECTOR('',#1267,1.);
#728=VECTOR('',#1274,1.);
#729=VECTOR('',#1275,1.);
#730=EDGE_LOOP('',(#84,#85,#86,#87,#88,#89,#90,#91,#92,#93,#94,#95,#96,
#97,#98,#99,#100,#101,#102,#103,#104,#105,#106,#107,#108,#109,#110,#111,
#112,#113,#114,#115,#116,#117,#118,#119,#120,#121));
#731=EDGE_LOOP('',(#122,#123,#124,#125));
#732=EDGE_LOOP('',(#126,#127,#128,#129));
#733=EDGE_LOOP('',(#130,#131,#132,#133));
#734=EDGE_LOOP('',(#134,#135,#136,#137));
#735=EDGE_LOOP('',(#138,#139,#140,#141));
#736=EDGE_LOOP('',(#142,#143,#144,#145));
#737=EDGE_LOOP('',(#146,#147,#148,#149));
#738=EDGE_LOOP('',(#150,#151,#152,#153));
#739=EDGE_LOOP('',(#154,#155,#156,#157));
#740=EDGE_LOOP('',(#158,#159,#160,#161));
#741=EDGE_LOOP('',(#162,#163,#164,#165));
#742=EDGE_LOOP('',(#166,#167,#168,#169));
#743=EDGE_LOOP('',(#170,#171,#172,#173));
#744=EDGE_LOOP('',(#174,#175,#176,#177));
#745=EDGE_LOOP('',(#178,#179,#180,#181));
#746=EDGE_LOOP('',(#182,#183,#184,#185));
#747=EDGE_LOOP('',(#186,#187,#188,#189));
#748=EDGE_LOOP('',(#190,#191,#192,#193));
#749=EDGE_LOOP('',(#194,#195,#196,#197));
#750=EDGE_LOOP('',(#198,#199,#200,#201));
#751=EDGE_LOOP('',(#202,#203,#204,#205));
#752=EDGE_LOOP('',(#206,#207,#208,#209));
#753=EDGE_LOOP('',(#210,#211,#212,#213));
#754=EDGE_LOOP('',(#214,#215,#216,#217));
#755=EDGE_LOOP('',(#218,#219,#220,#221));
#756=EDGE_LOOP('',(#222,#223,#224,#225));
#757=EDGE_LOOP('',(#226,#227,#228,#229));
#758=EDGE_LOOP('',(#230,#231,#232,#233));
#759=EDGE_LOOP('',(#234,#235,#236,#237));
#760=EDGE_LOOP('',(#238,#239,#240,#241));
#761=EDGE_LOOP('',(#242,#243,#244,#245));
#762=EDGE_LOOP('',(#246,#247,#248,#249));
#763=EDGE_LOOP('',(#250,#251,#252,#253));
#764=EDGE_LOOP('',(#254,#255,#256,#257));
#765=EDGE_LOOP('',(#258,#259,#260,#261));
#766=EDGE_LOOP('',(#262,#263,#264,#265));
#767=EDGE_LOOP('',(#266));
#768=EDGE_LOOP('',(#267,#268,#269,#270,#271,#272,#273,#274,#275,#276,#277,
#278,#279,#280,#281,#282,#283,#284,#285,#286,#287,#288,#289,#290,#291,#292,
#293,#294,#295,#296,#297,#298,#299,#300,#301,#302,#303,#304));
#769=EDGE_LOOP('',(#305));
#770=EDGE_LOOP('',(#306));
#771=EDGE_LOOP('',(#307));
#772=EDGE_LOOP('',(#308));
#773=EDGE_LOOP('',(#309));
#774=EDGE_LOOP('',(#310));
#775=EDGE_LOOP('',(#311));
#776=EDGE_LOOP('',(#312));
#777=EDGE_LOOP('',(#313));
#778=EDGE_LOOP('',(#314));
#779=EDGE_LOOP('',(#315));
#780=EDGE_LOOP('',(#316));
#781=EDGE_LOOP('',(#317));
#782=EDGE_LOOP('',(#318));
#783=EDGE_LOOP('',(#319,#320,#321,#322));
#784=EDGE_LOOP('',(#323));
#785=EDGE_LOOP('',(#324));
#786=EDGE_LOOP('',(#325));
#787=EDGE_LOOP('',(#326));
#788=EDGE_LOOP('',(#327,#328,#329,#330));
#789=EDGE_LOOP('',(#331));
#790=EDGE_LOOP('',(#332));
#791=EDGE_LOOP('',(#333));
#792=EDGE_LOOP('',(#334));
#793=EDGE_LOOP('',(#335));
#794=EDGE_LOOP('',(#336));
#795=EDGE_LOOP('',(#337));
#796=FACE_BOUND('',#730,.T.);
#797=FACE_BOUND('',#731,.T.);
#798=FACE_BOUND('',#732,.T.);
#799=FACE_BOUND('',#733,.T.);
#800=FACE_BOUND('',#734,.T.);
#801=FACE_BOUND('',#735,.T.);
#802=FACE_BOUND('',#736,.T.);
#803=FACE_BOUND('',#737,.T.);
#804=FACE_BOUND('',#738,.T.);
#805=FACE_BOUND('',#739,.T.);
#806=FACE_BOUND('',#740,.T.);
#807=FACE_BOUND('',#741,.T.);
#808=FACE_BOUND('',#742,.T.);
#809=FACE_BOUND('',#743,.T.);
#810=FACE_BOUND('',#744,.T.);
#811=FACE_BOUND('',#745,.T.);
#812=FACE_BOUND('',#746,.T.);
#813=FACE_BOUND('',#747,.T.);
#814=FACE_BOUND('',#748,.T.);
#815=FACE_BOUND('',#749,.T.);
#816=FACE_BOUND('',#750,.T.);
#817=FACE_BOUND('',#751,.T.);
#818=FACE_BOUND('',#752,.T.);
#819=FACE_BOUND('',#753,.T.);
#820=FACE_BOUND('',#754,.T.);
#821=FACE_BOUND('',#755,.T.);
#822=FACE_BOUND('',#756,.T.);
#823=FACE_BOUND('',#757,.T.);
#824=FACE_BOUND('',#758,.T.);
#825=FACE_BOUND('',#759,.T.);
#826=FACE_BOUND('',#760,.T.);
#827=FACE_BOUND('',#761,.T.);
#828=FACE_BOUND('',#762,.T.);
#829=FACE_BOUND('',#763,.T.);
#830=FACE_BOUND('',#764,.T.);
#831=FACE_BOUND('',#765,.T.);
#832=FACE_BOUND('',#766,.T.);
#833=FACE_BOUND('',#12,.T.);
#834=FACE_BOUND('',#767,.T.);
#835=FACE_BOUND('',#768,.T.);
#836=FACE_BOUND('',#13,.T.);
#837=FACE_BOUND('',#769,.T.);
#838=FACE_BOUND('',#14,.T.);
#839=FACE_BOUND('',#770,.T.);
#840=FACE_BOUND('',#771,.T.);
#841=FACE_BOUND('',#772,.T.);
#842=FACE_BOUND('',#773,.T.);
#843=FACE_BOUND('',#774,.T.);
#844=FACE_BOUND('',#775,.T.);
#845=FACE_BOUND('',#776,.T.);
#846=FACE_BOUND('',#777,.T.);
#847=FACE_BOUND('',#778,.T.);
#848=FACE_BOUND('',#779,.T.);
#849=FACE_BOUND('',#780,.T.);
#850=FACE_BOUND('',#781,.T.);
#851=FACE_BOUND('',#782,.T.);
#852=FACE_BOUND('',#783,.T.);
#853=FACE_BOUND('',#784,.T.);
#854=FACE_BOUND('',#785,.T.);
#855=FACE_BOUND('',#786,.T.);
#856=FACE_BOUND('',#787,.T.);
#857=FACE_BOUND('',#788,.T.);
#858=FACE_BOUND('',#789,.T.);
#859=FACE_BOUND('',#790,.T.);
#860=FACE_BOUND('',#15,.T.);
#861=FACE_BOUND('',#791,.T.);
#862=FACE_BOUND('',#792,.T.);
#863=FACE_BOUND('',#793,.T.);
#864=FACE_BOUND('',#794,.T.);
#865=FACE_BOUND('',#795,.T.);
#866=PLANE('',#958);
#867=PLANE('',#973);
#868=PLANE('',#974);
#869=PLANE('',#981);
#870=PLANE('',#984);
#871=PLANE('',#991);
#872=PLANE('',#992);
#873=PLANE('',#993);
#874=PLANE('',#994);
#875=PLANE('',#995);
#876=PLANE('',#1002);
#877=PLANE('',#1005);
#878=PLANE('',#1012);
#879=PLANE('',#1013);
#880=PLANE('',#1014);
#881=PLANE('',#1015);
#882=PLANE('',#1016);
#883=PLANE('',#1017);
#884=PLANE('',#1018);
#885=PLANE('',#1019);
#886=PLANE('',#1020);
#887=PLANE('',#1021);
#888=PLANE('',#1022);
#889=PLANE('',#1025);
#890=PLANE('',#1040);
#891=PLANE('',#1043);
#892=ADVANCED_FACE('',(#796),#866,.T.);
#893=ADVANCED_FACE('',(#797),#867,.T.);
#894=ADVANCED_FACE('',(#798),#868,.T.);
#895=ADVANCED_FACE('',(#799),#25,.F.);
#896=ADVANCED_FACE('',(#800),#26,.T.);
#897=ADVANCED_FACE('',(#801),#27,.F.);
#898=ADVANCED_FACE('',(#802),#869,.T.);
#899=ADVANCED_FACE('',(#803),#28,.T.);
#900=ADVANCED_FACE('',(#804),#870,.T.);
#901=ADVANCED_FACE('',(#805),#29,.F.);
#902=ADVANCED_FACE('',(#806),#30,.T.);
#903=ADVANCED_FACE('',(#807),#31,.F.);
#904=ADVANCED_FACE('',(#808),#871,.T.);
#905=ADVANCED_FACE('',(#809),#872,.T.);
#906=ADVANCED_FACE('',(#810),#873,.T.);
#907=ADVANCED_FACE('',(#811),#874,.T.);
#908=ADVANCED_FACE('',(#812),#875,.T.);
#909=ADVANCED_FACE('',(#813),#32,.F.);
#910=ADVANCED_FACE('',(#814),#33,.T.);
#911=ADVANCED_FACE('',(#815),#34,.F.);
#912=ADVANCED_FACE('',(#816),#876,.T.);
#913=ADVANCED_FACE('',(#817),#35,.T.);
#914=ADVANCED_FACE('',(#818),#877,.T.);
#915=ADVANCED_FACE('',(#819),#36,.F.);
#916=ADVANCED_FACE('',(#820),#37,.T.);
#917=ADVANCED_FACE('',(#821),#38,.F.);
#918=ADVANCED_FACE('',(#822),#878,.T.);
#919=ADVANCED_FACE('',(#823),#879,.T.);
#920=ADVANCED_FACE('',(#824),#880,.T.);
#921=ADVANCED_FACE('',(#825),#881,.T.);
#922=ADVANCED_FACE('',(#826),#882,.T.);
#923=ADVANCED_FACE('',(#827),#883,.T.);
#924=ADVANCED_FACE('',(#828),#884,.T.);
#925=ADVANCED_FACE('',(#829),#885,.T.);
#926=ADVANCED_FACE('',(#830),#886,.T.);
#927=ADVANCED_FACE('',(#831),#887,.T.);
#928=ADVANCED_FACE('',(#832),#888,.T.);
#929=ADVANCED_FACE('',(#833,#834),#16,.F.);
#930=ADVANCED_FACE('',(#835),#889,.F.);
#931=ADVANCED_FACE('',(#836,#837),#17,.F.);
#932=ADVANCED_FACE('',(#838,#839),#18,.F.);
#933=ADVANCED_FACE('',(#840,#841),#39,.F.);
#934=ADVANCED_FACE('',(#842,#843),#19,.F.);
#935=ADVANCED_FACE('',(#844,#845),#40,.F.);
#936=ADVANCED_FACE('',(#846,#847),#20,.F.);
#937=ADVANCED_FACE('',(#848,#849),#41,.F.);
#938=ADVANCED_FACE('',(#850,#851,#852),#890,.T.);
#939=ADVANCED_FACE('',(#853,#854),#21,.F.);
#940=ADVANCED_FACE('',(#855,#856,#857),#891,.T.);
#941=ADVANCED_FACE('',(#858,#859),#22,.F.);
#942=ADVANCED_FACE('',(#860,#861),#23,.F.);
#943=ADVANCED_FACE('',(#862,#863),#42,.F.);
#944=ADVANCED_FACE('',(#864,#865),#24,.F.);
#945=CLOSED_SHELL('',(#892,#893,#894,#895,#896,#897,#898,#899,#900,#901,
#902,#903,#904,#905,#906,#907,#908,#909,#910,#911,#912,#913,#914,#915,#916,
#917,#918,#919,#920,#921,#922,#923,#924,#925,#926,#927,#928,#929,#930,#931,
#932,#933,#934,#935,#936,#937,#938,#939,#940,#941,#942,#943,#944));
#946=STYLED_ITEM('',(#947),#954);
#947=PRESENTATION_STYLE_ASSIGNMENT((#948));
#948=SURFACE_STYLE_USAGE(.BOTH.,#949);
#949=SURFACE_SIDE_STYLE('',(#950));
#950=SURFACE_STYLE_FILL_AREA(#951);
#951=FILL_AREA_STYLE('',(#952));
#952=FILL_AREA_STYLE_COLOUR('',#953);
#953=COLOUR_RGB('',0.627450980392157,0.627450980392157,0.627450980392157);
#954=MANIFOLD_SOLID_BREP('MGN12C Carriage v1',#945);
#955=SHAPE_DEFINITION_REPRESENTATION(#1608,#956);
#956=SHAPE_REPRESENTATION('MGN12C Carriage v1',(#957),#1603);
#957=AXIS2_PLACEMENT_3D('',#1328,#1052,#1053);
#958=AXIS2_PLACEMENT_3D('',#1329,#1054,#1055);
#959=AXIS2_PLACEMENT_3D('',#1335,#1058,#1059);
#960=AXIS2_PLACEMENT_3D('',#1337,#1060,#1061);
#961=AXIS2_PLACEMENT_3D('',#1339,#1062,#1063);
#962=AXIS2_PLACEMENT_3D('',#1343,#1065,#1066);
#963=AXIS2_PLACEMENT_3D('',#1347,#1068,#1069);
#964=AXIS2_PLACEMENT_3D('',#1349,#1070,#1071);
#965=AXIS2_PLACEMENT_3D('',#1351,#1072,#1073);
#966=AXIS2_PLACEMENT_3D('',#1363,#1079,#1080);
#967=AXIS2_PLACEMENT_3D('',#1365,#1081,#1082);
#968=AXIS2_PLACEMENT_3D('',#1367,#1083,#1084);
#969=AXIS2_PLACEMENT_3D('',#1371,#1086,#1087);
#970=AXIS2_PLACEMENT_3D('',#1375,#1089,#1090);
#971=AXIS2_PLACEMENT_3D('',#1377,#1091,#1092);
#972=AXIS2_PLACEMENT_3D('',#1379,#1093,#1094);
#973=AXIS2_PLACEMENT_3D('',#1406,#1108,#1109);
#974=AXIS2_PLACEMENT_3D('',#1412,#1113,#1114);
#975=AXIS2_PLACEMENT_3D('',#1416,#1117,#1118);
#976=AXIS2_PLACEMENT_3D('',#1419,#1120,#1121);
#977=AXIS2_PLACEMENT_3D('',#1420,#1122,#1123);
#978=AXIS2_PLACEMENT_3D('',#1423,#1125,#1126);
#979=AXIS2_PLACEMENT_3D('',#1424,#1127,#1128);
#980=AXIS2_PLACEMENT_3D('',#1427,#1130,#1131);
#981=AXIS2_PLACEMENT_3D('',#1428,#1132,#1133);
#982=AXIS2_PLACEMENT_3D('',#1432,#1136,#1137);
#983=AXIS2_PLACEMENT_3D('',#1435,#1139,#1140);
#984=AXIS2_PLACEMENT_3D('',#1436,#1141,#1142);
#985=AXIS2_PLACEMENT_3D('',#1440,#1145,#1146);
#986=AXIS2_PLACEMENT_3D('',#1443,#1148,#1149);
#987=AXIS2_PLACEMENT_3D('',#1444,#1150,#1151);
#988=AXIS2_PLACEMENT_3D('',#1447,#1153,#1154);
#989=AXIS2_PLACEMENT_3D('',#1448,#1155,#1156);
#990=AXIS2_PLACEMENT_3D('',#1451,#1158,#1159);
#991=AXIS2_PLACEMENT_3D('',#1452,#1160,#1161);
#992=AXIS2_PLACEMENT_3D('',#1456,#1164,#1165);
#993=AXIS2_PLACEMENT_3D('',#1460,#1168,#1169);
#994=AXIS2_PLACEMENT_3D('',#1464,#1172,#1173);
#995=AXIS2_PLACEMENT_3D('',#1468,#1176,#1177);
#996=AXIS2_PLACEMENT_3D('',#1472,#1180,#1181);
#997=AXIS2_PLACEMENT_3D('',#1475,#1183,#1184);
#998=AXIS2_PLACEMENT_3D('',#1476,#1185,#1186);
#999=AXIS2_PLACEMENT_3D('',#1479,#1188,#1189);
#1000=AXIS2_PLACEMENT_3D('',#1480,#1190,#1191);
#1001=AXIS2_PLACEMENT_3D('',#1483,#1193,#1194);
#1002=AXIS2_PLACEMENT_3D('',#1484,#1195,#1196);
#1003=AXIS2_PLACEMENT_3D('',#1488,#1199,#1200);
#1004=AXIS2_PLACEMENT_3D('',#1491,#1202,#1203);
#1005=AXIS2_PLACEMENT_3D('',#1492,#1204,#1205);
#1006=AXIS2_PLACEMENT_3D('',#1496,#1208,#1209);
#1007=AXIS2_PLACEMENT_3D('',#1499,#1211,#1212);
#1008=AXIS2_PLACEMENT_3D('',#1500,#1213,#1214);
#1009=AXIS2_PLACEMENT_3D('',#1503,#1216,#1217);
#1010=AXIS2_PLACEMENT_3D('',#1504,#1218,#1219);
#1011=AXIS2_PLACEMENT_3D('',#1507,#1221,#1222);
#1012=AXIS2_PLACEMENT_3D('',#1508,#1223,#1224);
#1013=AXIS2_PLACEMENT_3D('',#1512,#1227,#1228);
#1014=AXIS2_PLACEMENT_3D('',#1516,#1231,#1232);
#1015=AXIS2_PLACEMENT_3D('',#1520,#1235,#1236);
#1016=AXIS2_PLACEMENT_3D('',#1524,#1239,#1240);
#1017=AXIS2_PLACEMENT_3D('',#1528,#1243,#1244);
#1018=AXIS2_PLACEMENT_3D('',#1534,#1248,#1249);
#1019=AXIS2_PLACEMENT_3D('',#1538,#1252,#1253);
#1020=AXIS2_PLACEMENT_3D('',#1542,#1256,#1257);
#1021=AXIS2_PLACEMENT_3D('',#1548,#1261,#1262);
#1022=AXIS2_PLACEMENT_3D('',#1552,#1265,#1266);
#1023=AXIS2_PLACEMENT_3D('',#1554,#1268,#1269);
#1024=AXIS2_PLACEMENT_3D('',#1556,#1270,#1271);
#1025=AXIS2_PLACEMENT_3D('',#1558,#1272,#1273);
#1026=AXIS2_PLACEMENT_3D('',#1561,#1276,#1277);
#1027=AXIS2_PLACEMENT_3D('',#1563,#1278,#1279);
#1028=AXIS2_PLACEMENT_3D('',#1565,#1280,#1281);
#1029=AXIS2_PLACEMENT_3D('',#1567,#1282,#1283);
#1030=AXIS2_PLACEMENT_3D('',#1569,#1284,#1285);
#1031=AXIS2_PLACEMENT_3D('',#1570,#1286,#1287);
#1032=AXIS2_PLACEMENT_3D('',#1572,#1288,#1289);
#1033=AXIS2_PLACEMENT_3D('',#1573,#1290,#1291);
#1034=AXIS2_PLACEMENT_3D('',#1575,#1292,#1293);
#1035=AXIS2_PLACEMENT_3D('',#1576,#1294,#1295);
#1036=AXIS2_PLACEMENT_3D('',#1578,#1296,#1297);
#1037=AXIS2_PLACEMENT_3D('',#1579,#1298,#1299);
#1038=AXIS2_PLACEMENT_3D('',#1581,#1300,#1301);
#1039=AXIS2_PLACEMENT_3D('',#1582,#1302,#1303);
#1040=AXIS2_PLACEMENT_3D('',#1584,#1304,#1305);
#1041=AXIS2_PLACEMENT_3D('',#1585,#1306,#1307);
#1042=AXIS2_PLACEMENT_3D('',#1587,#1308,#1309);
#1043=AXIS2_PLACEMENT_3D('',#1588,#1310,#1311);
#1044=AXIS2_PLACEMENT_3D('',#1589,#1312,#1313);
#1045=AXIS2_PLACEMENT_3D('',#1591,#1314,#1315);
#1046=AXIS2_PLACEMENT_3D('',#1592,#1316,#1317);
#1047=AXIS2_PLACEMENT_3D('',#1594,#1318,#1319);
#1048=AXIS2_PLACEMENT_3D('',#1596,#1320,#1321);
#1049=AXIS2_PLACEMENT_3D('',#1598,#1322,#1323);
#1050=AXIS2_PLACEMENT_3D('',#1599,#1324,#1325);
#1051=AXIS2_PLACEMENT_3D('',#1601,#1326,#1327);
#1052=DIRECTION('',(0.,0.,1.));
#1053=DIRECTION('',(1.,0.,0.));
#1054=DIRECTION('',(-1.,-1.22464679914735E-16,0.));
#1055=DIRECTION('',(-1.22464679914735E-16,1.,0.));
#1056=DIRECTION('',(1.22464679914735E-16,-1.,-1.5636944008805E-16));
#1057=DIRECTION('',(0.,0.,1.));
#1058=DIRECTION('',(1.,1.22464679914735E-16,0.));
#1059=DIRECTION('',(-5.98462565573277E-17,0.488681770115228,0.87246210665968));
#1060=DIRECTION('',(-1.,-1.22464679914735E-16,0.));
#1061=DIRECTION('',(0.,0.,1.));
#1062=DIRECTION('',(1.,1.22464679914735E-16,0.));
#1063=DIRECTION('',(-1.38783650109783E-22,1.13325450412649E-6,0.999999999999358));
#1064=DIRECTION('',(1.22464679914735E-16,-1.,0.));
#1065=DIRECTION('',(-1.,-1.22464679914735E-16,0.));
#1066=DIRECTION('',(-3.80001149109055E-17,0.310294486029463,-0.950640485115015));
#1067=DIRECTION('',(-1.22464679914735E-16,1.,0.));
#1068=DIRECTION('',(1.,1.22464679914735E-16,0.));
#1069=DIRECTION('',(-1.06843986662558E-16,0.872447359817928,-0.488708097279682));
#1070=DIRECTION('',(-1.,-1.22464679914735E-16,0.));
#1071=DIRECTION('',(1.06844002254859E-16,-0.872447487138721,0.488707869985057));
#1072=DIRECTION('',(1.,1.22464679914735E-16,0.));
#1073=DIRECTION('',(-1.2246467991462E-16,0.999999999999059,-1.37155477253348E-6));
#1074=DIRECTION('',(0.,0.,1.));
#1075=DIRECTION('',(7.93230821159154E-17,-0.647722120134093,0.761876666586525));
#1076=DIRECTION('',(1.22464679914735E-16,-1.,-2.01858731750028E-16));
#1077=DIRECTION('',(7.93230821159154E-17,-0.647722120134093,-0.761876666586525));
#1078=DIRECTION('',(0.,0.,-1.));
#1079=DIRECTION('',(1.,1.22464679914735E-16,0.));
#1080=DIRECTION('',(5.98462848957374E-17,-0.488682001515904,-0.872461977047946));
#1081=DIRECTION('',(-1.,-1.22464679914735E-16,0.));
#1082=DIRECTION('',(-5.98463255075785E-17,0.488682333136753,0.872461791300926));
#1083=DIRECTION('',(1.,1.22464679914735E-16,0.));
#1084=DIRECTION('',(1.38783649260014E-22,-1.1332544971876E-6,-0.999999999999358));
#1085=DIRECTION('',(-1.22464679914735E-16,1.,0.));
#1086=DIRECTION('',(-1.,-1.22464679914735E-16,0.));
#1087=DIRECTION('',(3.80001086369761E-17,-0.310294434798942,0.950640501836948));
#1088=DIRECTION('',(1.22464679914735E-16,-1.,0.));
#1089=DIRECTION('',(1.,1.22464679914735E-16,0.));
#1090=DIRECTION('',(1.06843958323036E-16,-0.872447128408163,0.488708510394848));
#1091=DIRECTION('',(-1.,-1.22464679914735E-16,0.));
#1092=DIRECTION('',(0.,0.,1.));
#1093=DIRECTION('',(1.,1.22464679914735E-16,0.));
#1094=DIRECTION('',(1.22464679914666E-16,-0.999999999999432,-1.06592842538666E-6));
#1095=DIRECTION('',(0.,0.,-1.));
#1096=DIRECTION('',(1.22464679914735E-16,-1.,0.));
#1097=DIRECTION('',(8.65956056235494E-17,-0.707106781186548,0.707106781186547));
#1098=DIRECTION('',(2.95571972488454E-32,-2.41352831440251E-16,1.));
#1099=DIRECTION('',(-8.65956056235494E-17,0.707106781186548,0.707106781186548));
#1100=DIRECTION('',(-1.22464679914735E-16,1.,3.36431219583381E-16));
#1101=DIRECTION('',(0.,0.,-1.));
#1102=DIRECTION('',(-1.22464679914735E-16,1.,0.));
#1103=DIRECTION('',(0.,0.,1.));
#1104=DIRECTION('',(-1.22464679914735E-16,1.,3.36431219583381E-16));
#1105=DIRECTION('',(-8.65956056235494E-17,0.707106781186548,-0.707106781186548));
#1106=DIRECTION('',(-2.95571972488454E-32,2.41352831440251E-16,-1.));
#1107=DIRECTION('',(8.65956056235494E-17,-0.707106781186548,-0.707106781186547));
#1108=DIRECTION('',(0.,0.,-1.));
#1109=DIRECTION('',(1.22464679914735E-16,-1.,0.));
#1110=DIRECTION('',(-1.,-1.22464679914735E-16,0.));
#1111=DIRECTION('',(-1.,-1.22464679914735E-16,0.));
#1112=DIRECTION('',(1.22464679914735E-16,-1.,-1.5636944008805E-16));
#1113=DIRECTION('',(1.22464679914735E-16,-1.,0.));
#1114=DIRECTION('',(0.,0.,1.));
#1115=DIRECTION('',(-1.,-1.22464679914735E-16,0.));
#1116=DIRECTION('',(0.,0.,1.));
#1117=DIRECTION('',(-1.,-1.22464679914735E-16,0.));
#1118=DIRECTION('',(-5.98462565573277E-17,0.488681770115228,0.87246210665968));
#1119=DIRECTION('',(-1.,-1.22464679914735E-16,0.));
#1120=DIRECTION('',(1.,1.22464679914735E-16,0.));
#1121=DIRECTION('',(-5.98462565573277E-17,0.488681770115228,0.87246210665968));
#1122=DIRECTION('',(-1.,-1.22464679914735E-16,0.));
#1123=DIRECTION('',(1.06844002254859E-16,-0.872447487138721,0.488707869985057));
#1124=DIRECTION('',(-1.,-1.22464679914735E-16,0.));
#1125=DIRECTION('',(-1.,-1.22464679914735E-16,0.));
#1126=DIRECTION('',(0.,0.,1.));
#1127=DIRECTION('',(-1.,-1.22464679914735E-16,0.));
#1128=DIRECTION('',(-1.38783650109783E-22,1.13325450412649E-6,0.999999999999358));
#1129=DIRECTION('',(-1.,-1.22464679914735E-16,0.));
#1130=DIRECTION('',(1.,1.22464679914735E-16,0.));
#1131=DIRECTION('',(-1.38783650109783E-22,1.13325450412649E-6,0.999999999999358));
#1132=DIRECTION('',(0.,0.,-1.));
#1133=DIRECTION('',(1.22464679914735E-16,-1.,0.));
#1134=DIRECTION('',(-1.,-1.22464679914735E-16,0.));
#1135=DIRECTION('',(1.22464679914735E-16,-1.,0.));
#1136=DIRECTION('',(-1.,-1.22464679914735E-16,0.));
#1137=DIRECTION('',(1.22464679914729E-16,-0.999999999999952,3.10293790713493E-7));
#1138=DIRECTION('',(-1.,-1.22464679914735E-16,0.));
#1139=DIRECTION('',(-1.,-1.22464679914735E-16,0.));
#1140=DIRECTION('',(-3.80001149109055E-17,0.310294486029463,-0.950640485115015));
#1141=DIRECTION('',(0.,0.,1.));
#1142=DIRECTION('',(-1.22464679914735E-16,1.,0.));
#1143=DIRECTION('',(-1.,-1.22464679914735E-16,0.));
#1144=DIRECTION('',(-1.22464679914735E-16,1.,0.));
#1145=DIRECTION('',(-1.,-1.22464679914735E-16,0.));
#1146=DIRECTION('',(-1.06843986662558E-16,0.872447359817928,-0.488708097279682));
#1147=DIRECTION('',(-1.,-1.22464679914735E-16,0.));
#1148=DIRECTION('',(1.,1.22464679914735E-16,0.));
#1149=DIRECTION('',(-1.06843986662558E-16,0.872447359817928,-0.488708097279682));
#1150=DIRECTION('',(-1.,-1.22464679914735E-16,0.));
#1151=DIRECTION('',(1.06844002254859E-16,-0.872447487138721,0.488707869985057));
#1152=DIRECTION('',(-1.,-1.22464679914735E-16,0.));
#1153=DIRECTION('',(-1.,-1.22464679914735E-16,0.));
#1154=DIRECTION('',(1.06844002254859E-16,-0.872447487138721,0.488707869985057));
#1155=DIRECTION('',(-1.,-1.22464679914735E-16,0.));
#1156=DIRECTION('',(-1.2246467991462E-16,0.999999999999059,-1.37155477253348E-6));
#1157=DIRECTION('',(-1.,-1.22464679914735E-16,0.));
#1158=DIRECTION('',(1.,1.22464679914735E-16,0.));
#1159=DIRECTION('',(-1.2246467991462E-16,0.999999999999059,-1.37155477253348E-6));
#1160=DIRECTION('',(1.22464679914735E-16,-1.,0.));
#1161=DIRECTION('',(0.,0.,1.));
#1162=DIRECTION('',(-1.,-1.22464679914735E-16,0.));
#1163=DIRECTION('',(0.,0.,1.));
#1164=DIRECTION('',(9.33029821080243E-17,-0.761876666586525,-0.647722120134093));
#1165=DIRECTION('',(7.93230821159154E-17,-0.647722120134093,0.761876666586525));
#1166=DIRECTION('',(-1.,-1.22464679914735E-16,0.));
#1167=DIRECTION('',(7.93230821159154E-17,-0.647722120134093,0.761876666586525));
#1168=DIRECTION('',(0.,0.,-1.));
#1169=DIRECTION('',(1.22464679914735E-16,-1.,0.));
#1170=DIRECTION('',(-1.,-1.22464679914735E-16,0.));
#1171=DIRECTION('',(1.22464679914735E-16,-1.,-2.01858731750028E-16));
#1172=DIRECTION('',(-9.33029821080243E-17,0.761876666586525,-0.647722120134093));
#1173=DIRECTION('',(7.93230821159154E-17,-0.647722120134093,-0.761876666586525));
#1174=DIRECTION('',(-1.,-1.22464679914735E-16,0.));
#1175=DIRECTION('',(7.93230821159154E-17,-0.647722120134093,-0.761876666586525));
#1176=DIRECTION('',(-1.22464679914735E-16,1.,0.));
#1177=DIRECTION('',(0.,0.,-1.));
#1178=DIRECTION('',(-1.,-1.22464679914735E-16,0.));
#1179=DIRECTION('',(0.,0.,-1.));
#1180=DIRECTION('',(-1.,-1.22464679914735E-16,0.));
#1181=DIRECTION('',(5.98462848957374E-17,-0.488682001515904,-0.872461977047946));
#1182=DIRECTION('',(-1.,-1.22464679914735E-16,0.));
#1183=DIRECTION('',(1.,1.22464679914735E-16,0.));
#1184=DIRECTION('',(5.98462848957374E-17,-0.488682001515904,-0.872461977047946));
#1185=DIRECTION('',(-1.,-1.22464679914735E-16,0.));
#1186=DIRECTION('',(-5.98463255075785E-17,0.488682333136753,0.872461791300926));
#1187=DIRECTION('',(-1.,-1.22464679914735E-16,0.));
#1188=DIRECTION('',(-1.,-1.22464679914735E-16,0.));
#1189=DIRECTION('',(-5.98463255075785E-17,0.488682333136753,0.872461791300926));
#1190=DIRECTION('',(-1.,-1.22464679914735E-16,0.));
#1191=DIRECTION('',(1.38783649260014E-22,-1.1332544971876E-6,-0.999999999999358));
#1192=DIRECTION('',(-1.,-1.22464679914735E-16,0.));
#1193=DIRECTION('',(1.,1.22464679914735E-16,0.));
#1194=DIRECTION('',(1.38783649260014E-22,-1.1332544971876E-6,-0.999999999999358));
#1195=DIRECTION('',(0.,0.,1.));
#1196=DIRECTION('',(-1.22464679914735E-16,1.,0.));
#1197=DIRECTION('',(-1.,-1.22464679914735E-16,0.));
#1198=DIRECTION('',(-1.22464679914735E-16,1.,0.));
#1199=DIRECTION('',(-1.,-1.22464679914735E-16,0.));
#1200=DIRECTION('',(-1.22464679914729E-16,0.999999999999952,3.10293790540021E-7));
#1201=DIRECTION('',(-1.,-1.22464679914735E-16,0.));
#1202=DIRECTION('',(-1.,-1.22464679914735E-16,0.));
#1203=DIRECTION('',(3.80001086369761E-17,-0.310294434798942,0.950640501836948));
#1204=DIRECTION('',(0.,0.,-1.));
#1205=DIRECTION('',(1.22464679914735E-16,-1.,0.));
#1206=DIRECTION('',(-1.,-1.22464679914735E-16,0.));
#1207=DIRECTION('',(1.22464679914735E-16,-1.,0.));
#1208=DIRECTION('',(-1.,-1.22464679914735E-16,0.));
#1209=DIRECTION('',(1.06843958323036E-16,-0.872447128408163,0.488708510394848));
#1210=DIRECTION('',(-1.,-1.22464679914735E-16,0.));
#1211=DIRECTION('',(1.,1.22464679914735E-16,0.));
#1212=DIRECTION('',(1.06843958323036E-16,-0.872447128408163,0.488708510394848));
#1213=DIRECTION('',(-1.,-1.22464679914735E-16,0.));
#1214=DIRECTION('',(-5.98463255075785E-17,0.488682333136753,0.872461791300926));
#1215=DIRECTION('',(-1.,-1.22464679914735E-16,0.));
#1216=DIRECTION('',(-1.,-1.22464679914735E-16,0.));
#1217=DIRECTION('',(0.,0.,1.));
#1218=DIRECTION('',(-1.,-1.22464679914735E-16,0.));
#1219=DIRECTION('',(1.22464679914666E-16,-0.999999999999432,-1.06592842538666E-6));
#1220=DIRECTION('',(-1.,-1.22464679914735E-16,0.));
#1221=DIRECTION('',(1.,1.22464679914735E-16,0.));
#1222=DIRECTION('',(1.22464679914666E-16,-0.999999999999432,-1.06592842538666E-6));
#1223=DIRECTION('',(-1.22464679914735E-16,1.,0.));
#1224=DIRECTION('',(0.,0.,-1.));
#1225=DIRECTION('',(-1.,-1.22464679914735E-16,0.));
#1226=DIRECTION('',(0.,0.,-1.));
#1227=DIRECTION('',(0.,0.,-1.));
#1228=DIRECTION('',(1.22464679914735E-16,-1.,0.));
#1229=DIRECTION('',(1.22464679914735E-16,-1.,0.));
#1230=DIRECTION('',(-1.,-1.22464679914735E-16,0.));
#1231=DIRECTION('',(8.65956056235494E-17,-0.707106781186548,-0.707106781186548));
#1232=DIRECTION('',(8.65956056235494E-17,-0.707106781186548,0.707106781186548));
#1233=DIRECTION('',(-1.,-1.22464679914735E-16,0.));
#1234=DIRECTION('',(8.65956056235494E-17,-0.707106781186548,0.707106781186547));
#1235=DIRECTION('',(1.22464679914735E-16,-1.,0.));
#1236=DIRECTION('',(0.,0.,1.));
#1237=DIRECTION('',(-1.,-1.22464679914735E-16,0.));
#1238=DIRECTION('',(2.95571972488454E-32,-2.41352831440251E-16,1.));
#1239=DIRECTION('',(8.65956056235494E-17,-0.707106781186548,0.707106781186548));
#1240=DIRECTION('',(-8.65956056235494E-17,0.707106781186548,0.707106781186548));
#1241=DIRECTION('',(-1.,-1.22464679914735E-16,0.));
#1242=DIRECTION('',(-8.65956056235494E-17,0.707106781186548,0.707106781186548));
#1243=DIRECTION('',(-1.22464679914735E-16,1.,0.));
#1244=DIRECTION('',(0.,0.,-1.));
#1245=DIRECTION('',(-1.,-1.22464679914735E-16,0.));
#1246=DIRECTION('',(-1.,-1.22464679914735E-16,0.));
#1247=DIRECTION('',(0.,0.,-1.));
#1248=DIRECTION('',(0.,0.,1.));
#1249=DIRECTION('',(-1.22464679914735E-16,1.,0.));
#1250=DIRECTION('',(-1.,-1.22464679914735E-16,0.));
#1251=DIRECTION('',(-1.22464679914735E-16,1.,0.));
#1252=DIRECTION('',(1.22464679914735E-16,-1.,0.));
#1253=DIRECTION('',(0.,0.,1.));
#1254=DIRECTION('',(-1.,-1.22464679914735E-16,0.));
#1255=DIRECTION('',(0.,0.,1.));
#1256=DIRECTION('',(-8.65956056235494E-17,0.707106781186548,0.707106781186548));
#1257=DIRECTION('',(-8.65956056235494E-17,0.707106781186548,-0.707106781186548));
#1258=DIRECTION('',(-1.,-1.22464679914735E-16,0.));
#1259=DIRECTION('',(-1.,-1.22464679914735E-16,0.));
#1260=DIRECTION('',(-8.65956056235494E-17,0.707106781186548,-0.707106781186548));
#1261=DIRECTION('',(-1.22464679914735E-16,1.,0.));
#1262=DIRECTION('',(0.,0.,-1.));
#1263=DIRECTION('',(1.,1.22464679914735E-16,0.));
#1264=DIRECTION('',(-2.95571972488454E-32,2.41352831440251E-16,-1.));
#1265=DIRECTION('',(-8.65956056235494E-17,0.707106781186548,-0.707106781186548));
#1266=DIRECTION('',(8.65956056235494E-17,-0.707106781186548,-0.707106781186548));
#1267=DIRECTION('',(8.65956056235494E-17,-0.707106781186548,-0.707106781186547));
#1268=DIRECTION('',(0.,0.,1.));
#1269=DIRECTION('',(-1.22464679914735E-16,1.,0.));
#1270=DIRECTION('',(-4.12009416196028E-32,3.36431219583381E-16,-1.));
#1271=DIRECTION('',(-1.22464679914735E-16,1.,3.36431219583381E-16));
#1272=DIRECTION('',(-1.,-1.22464679914735E-16,0.));
#1273=DIRECTION('',(-1.22464679914735E-16,1.,0.));
#1274=DIRECTION('',(-1.22464679914735E-16,1.,3.36431219583381E-16));
#1275=DIRECTION('',(-1.22464679914735E-16,1.,3.36431219583381E-16));
#1276=DIRECTION('',(0.,0.,1.));
#1277=DIRECTION('',(-1.22464679914735E-16,1.,0.));
#1278=DIRECTION('',(4.12009416196028E-32,-3.36431219583381E-16,1.));
#1279=DIRECTION('',(-1.22464679914735E-16,1.,3.36431219583381E-16));
#1280=DIRECTION('',(0.,0.,1.));
#1281=DIRECTION('',(-1.22464679914735E-16,1.,0.));
#1282=DIRECTION('',(4.12009416196028E-32,-3.36431219583381E-16,1.));
#1283=DIRECTION('',(-1.22464679914735E-16,1.,3.36431219583381E-16));
#1284=DIRECTION('',(0.,0.,1.));
#1285=DIRECTION('',(-1.22464679914735E-16,1.,0.));
#1286=DIRECTION('',(-4.12009416196028E-32,3.36431219583381E-16,-1.));
#1287=DIRECTION('',(-1.22464679914735E-16,1.,3.36431219583381E-16));
#1288=DIRECTION('',(0.,0.,1.));
#1289=DIRECTION('',(-1.22464679914735E-16,1.,3.36431219583381E-16));
#1290=DIRECTION('',(4.12009416196028E-32,-3.36431219583381E-16,1.));
#1291=DIRECTION('',(-1.22464679914735E-16,1.,3.36431219583381E-16));
#1292=DIRECTION('',(0.,0.,1.));
#1293=DIRECTION('',(-1.22464679914735E-16,1.,0.));
#1294=DIRECTION('',(-4.12009416196028E-32,3.36431219583381E-16,-1.));
#1295=DIRECTION('',(-1.22464679914735E-16,1.,3.36431219583381E-16));
#1296=DIRECTION('',(0.,0.,1.));
#1297=DIRECTION('',(-1.22464679914735E-16,1.,3.36431219583381E-16));
#1298=DIRECTION('',(4.12009416196028E-32,-3.36431219583381E-16,1.));
#1299=DIRECTION('',(-1.22464679914735E-16,1.,3.36431219583381E-16));
#1300=DIRECTION('',(0.,0.,-1.));
#1301=DIRECTION('',(-1.22464679914735E-16,1.,0.));
#1302=DIRECTION('',(-4.12009416196028E-32,3.36431219583381E-16,-1.));
#1303=DIRECTION('',(-1.22464679914735E-16,1.,3.36431219583381E-16));
#1304=DIRECTION('',(0.,0.,1.));
#1305=DIRECTION('',(-1.22464679914735E-16,1.,0.));
#1306=DIRECTION('',(4.12009416196028E-32,-3.36431219583381E-16,1.));
#1307=DIRECTION('',(-1.22464679914735E-16,1.,3.36431219583381E-16));
#1308=DIRECTION('',(0.,0.,1.));
#1309=DIRECTION('',(-1.22464679914735E-16,1.,3.36431219583381E-16));
#1310=DIRECTION('',(0.,0.,1.));
#1311=DIRECTION('',(-1.22464679914735E-16,1.,0.));
#1312=DIRECTION('',(4.12009416196028E-32,-3.36431219583381E-16,1.));
#1313=DIRECTION('',(-1.22464679914735E-16,1.,3.36431219583381E-16));
#1314=DIRECTION('',(0.,0.,1.));
#1315=DIRECTION('',(-1.22464679914735E-16,1.,3.36431219583381E-16));
#1316=DIRECTION('',(-4.12009416196028E-32,3.36431219583381E-16,-1.));
#1317=DIRECTION('',(-1.22464679914735E-16,1.,3.36431219583381E-16));
#1318=DIRECTION('',(0.,0.,1.));
#1319=DIRECTION('',(-1.22464679914735E-16,1.,0.));
#1320=DIRECTION('',(-4.34076486438541E-30,-1.05714567001034E-15,-1.));
#1321=DIRECTION('',(-1.22464679914735E-16,1.,-1.05714567001034E-15));
#1322=DIRECTION('',(0.,0.,-1.));
#1323=DIRECTION('',(-1.22464679914735E-16,1.,0.));
#1324=DIRECTION('',(4.12009416196028E-32,-3.36431219583381E-16,1.));
#1325=DIRECTION('',(-1.22464679914735E-16,1.,3.36431219583381E-16));
#1326=DIRECTION('',(0.,0.,1.));
#1327=DIRECTION('',(-1.22464679914735E-16,1.,0.));
#1328=CARTESIAN_POINT('',(0.,0.,0.));
#1329=CARTESIAN_POINT('',(-0.01085,0.00725,-0.003));
#1330=CARTESIAN_POINT('',(-0.01085,0.0131,-0.01));
#1331=CARTESIAN_POINT('',(-0.01085,0.0131,-0.01));
#1332=CARTESIAN_POINT('',(-0.01085,0.006,-0.01));
#1333=CARTESIAN_POINT('',(-0.01085,0.006,-0.01));
#1334=CARTESIAN_POINT('',(-0.01085,0.006,-0.00867826));
#1335=CARTESIAN_POINT('',(-0.01085,0.00584,-0.00867826));
#1336=CARTESIAN_POINT('',(-0.01085,0.00591818921566628,-0.0085386657054296));
#1337=CARTESIAN_POINT('',(-0.01085,0.006475287,-0.007544059));
#1338=CARTESIAN_POINT('',(-0.01085,0.00548069680302654,-0.00810118632008784));
#1339=CARTESIAN_POINT('',(-0.01085,0.005341105,-0.00817938));
#1340=CARTESIAN_POINT('',(-0.01085,0.005341105,-0.00801938));
#1341=CARTESIAN_POINT('',(-0.01085,0.005341105,-0.00801938));
#1342=CARTESIAN_POINT('',(-0.01085,0.00491937795750849,-0.00801938));
#1343=CARTESIAN_POINT('',(-0.01085,0.004764233,-0.007544059));
#1344=CARTESIAN_POINT('',(-0.01085,0.00491937999998087,-0.007068739));
#1345=CARTESIAN_POINT('',(-0.01085,0.005341105,-0.007068739));
#1346=CARTESIAN_POINT('',(-0.01085,0.005341105,-0.0070687390747));
#1347=CARTESIAN_POINT('',(-0.01085,0.005341105,-0.006908739));
#1348=CARTESIAN_POINT('',(-0.01085,0.00548069677308632,-0.00698693240508423));
#1349=CARTESIAN_POINT('',(-0.01085,0.006475287,-0.007544059));
#1350=CARTESIAN_POINT('',(-0.01085,0.00591818912024254,-0.00654945291632767));
#1351=CARTESIAN_POINT('',(-0.01085,0.00584,-0.006409859));
#1352=CARTESIAN_POINT('',(-0.01085,0.006,-0.006409859));
#1353=CARTESIAN_POINT('',(-0.01085,0.006,-0.006409859));
#1354=CARTESIAN_POINT('',(-0.01085,0.006,-0.00558812));
#1355=CARTESIAN_POINT('',(-0.01085,0.006,-0.00558812));
#1356=CARTESIAN_POINT('',(-0.01085,0.0055,-0.005));
#1357=CARTESIAN_POINT('',(-0.01085,0.0055,-0.005));
#1358=CARTESIAN_POINT('',(-0.01085,-0.0055,-0.005));
#1359=CARTESIAN_POINT('',(-0.01085,-0.006,-0.00558812));
#1360=CARTESIAN_POINT('',(-0.01085,-0.006,-0.00558812));
#1361=CARTESIAN_POINT('',(-0.01085,-0.006,-0.006409859));
#1362=CARTESIAN_POINT('',(-0.01085,-0.00600000000473333,-0.006409859));
#1363=CARTESIAN_POINT('',(-0.01085,-0.00584,-0.006409859));
#1364=CARTESIAN_POINT('',(-0.01085,-0.00591818929520237,-0.00654945283460511));
#1365=CARTESIAN_POINT('',(-0.01085,-0.006475287,-0.007544059));
#1366=CARTESIAN_POINT('',(-0.01085,-0.00548069657757087,-0.00698693229556475));
#1367=CARTESIAN_POINT('',(-0.01085,-0.005341105,-0.006908739));
#1368=CARTESIAN_POINT('',(-0.01085,-0.005341105,-0.007068739));
#1369=CARTESIAN_POINT('',(-0.01085,-0.00491938,-0.007068739));
#1370=CARTESIAN_POINT('',(-0.01085,-0.00491938,-0.007068739));
#1371=CARTESIAN_POINT('',(-0.01085,-0.004764233,-0.007544059));
#1372=CARTESIAN_POINT('',(-0.01085,-0.00491938,-0.00801938));
#1373=CARTESIAN_POINT('',(-0.01085,-0.00491938,-0.00801938));
#1374=CARTESIAN_POINT('',(-0.01085,-0.005341105,-0.00801938));
#1375=CARTESIAN_POINT('',(-0.01085,-0.005341105,-0.00817938));
#1376=CARTESIAN_POINT('',(-0.01085,-0.00548069670636237,-0.0081011863937459));
#1377=CARTESIAN_POINT('',(-0.01085,-0.006475287,-0.007544059));
#1378=CARTESIAN_POINT('',(-0.01085,-0.00591818915350081,-0.00853866578148769));
#1379=CARTESIAN_POINT('',(-0.01085,-0.00584,-0.00867826));
#1380=CARTESIAN_POINT('',(-0.01085,-0.006,-0.00867826));
#1381=CARTESIAN_POINT('',(-0.01085,-0.006,-0.01));
#1382=CARTESIAN_POINT('',(-0.01085,-0.006,-0.01));
#1383=CARTESIAN_POINT('',(-0.01085,-0.012900004,-0.01));
#1384=CARTESIAN_POINT('',(-0.01085,-0.0131,-0.01));
#1385=CARTESIAN_POINT('',(-0.01085,-0.0131,-0.01));
#1386=CARTESIAN_POINT('',(-0.01085,-0.0135,-0.0096));
#1387=CARTESIAN_POINT('',(-0.01085,-0.0135,-0.0096));
#1388=CARTESIAN_POINT('',(-0.01085,-0.0135,-0.0004));
#1389=CARTESIAN_POINT('',(-0.01085,-0.0135,-0.0004));
#1390=CARTESIAN_POINT('',(-0.01085,-0.0131,0.));
#1391=CARTESIAN_POINT('',(-0.01085,-0.0065,0.));
#1392=CARTESIAN_POINT('',(-0.01085,-0.0065,0.));
#1393=CARTESIAN_POINT('',(-0.01085,-0.0065,-0.00025));
#1394=CARTESIAN_POINT('',(-0.01085,-0.0065,-0.00025));
#1395=CARTESIAN_POINT('',(-0.01085,0.0065,-0.00025));
#1396=CARTESIAN_POINT('',(-0.01085,0.0065,-0.00025));
#1397=CARTESIAN_POINT('',(-0.01085,0.0065,-0.00025));
#1398=CARTESIAN_POINT('',(-0.01085,0.0065,0.));
#1399=CARTESIAN_POINT('',(-0.01085,0.0131,0.));
#1400=CARTESIAN_POINT('',(-0.01085,0.0131,0.));
#1401=CARTESIAN_POINT('',(-0.01085,0.0135,-0.0004));
#1402=CARTESIAN_POINT('',(-0.01085,0.0135,-0.0004));
#1403=CARTESIAN_POINT('',(-0.01085,0.0135,-0.0096));
#1404=CARTESIAN_POINT('',(-0.01085,0.0135,-0.0096));
#1405=CARTESIAN_POINT('',(-0.01085,0.0131,-0.01));
#1406=CARTESIAN_POINT('',(7.34788079488412E-19,-0.006,-0.01));
#1407=CARTESIAN_POINT('',(-7.34788079488412E-19,0.006,-0.01));
#1408=CARTESIAN_POINT('',(0.01085,0.006,-0.01));
#1409=CARTESIAN_POINT('',(-1.60428730688304E-18,0.0131,-0.01));
#1410=CARTESIAN_POINT('',(0.01085,0.0131,-0.01));
#1411=CARTESIAN_POINT('',(0.01085,0.0131,-0.01));
#1412=CARTESIAN_POINT('',(-7.34788079488412E-19,0.006,-0.01));
#1413=CARTESIAN_POINT('',(-7.34788079488412E-19,0.006,-0.00867826));
#1414=CARTESIAN_POINT('',(0.01085,0.006,-0.00867826));
#1415=CARTESIAN_POINT('',(0.01085,0.006,-0.01));
#1416=CARTESIAN_POINT('',(-7.15193730702054E-19,0.00584,-0.00867826));
#1417=CARTESIAN_POINT('',(-7.24769178415775E-19,0.00591818946426339,-0.00853866550403675));
#1418=CARTESIAN_POINT('',(0.01085,0.00591818921566628,-0.0085386657054296));
#1419=CARTESIAN_POINT('',(0.01085,0.00584,-0.00867826));
#1420=CARTESIAN_POINT('',(-7.92993949811047E-19,0.006475287,-0.007544059));
#1421=CARTESIAN_POINT('',(-6.71191750594803E-19,0.00548069656542697,-0.00810118668275583));
#1422=CARTESIAN_POINT('',(0.01085,0.00548069680302654,-0.00810118632008784));
#1423=CARTESIAN_POINT('',(0.01085,0.006475287,-0.007544059));
#1424=CARTESIAN_POINT('',(-6.54096714215992E-19,0.005341105,-0.00817938));
#1425=CARTESIAN_POINT('',(-6.54096714215992E-19,0.005341105,-0.00801938));
#1426=CARTESIAN_POINT('',(0.01085,0.005341105,-0.00801938));
#1427=CARTESIAN_POINT('',(0.01085,0.005341105,-0.00817938));
#1428=CARTESIAN_POINT('',(6.02450297078951E-19,-0.00491938,-0.00801938));
#1429=CARTESIAN_POINT('',(-6.02449921879347E-19,0.00491937693626273,-0.00801938));
#1430=CARTESIAN_POINT('',(0.01085,0.00491937795750849,-0.00801938));
#1431=CARTESIAN_POINT('',(0.01085,0.005341105,-0.00801938));
#1432=CARTESIAN_POINT('',(-5.83450269384219E-19,0.004764233,-0.007544059));
#1433=CARTESIAN_POINT('',(-6.02450297078951E-19,0.00491938,-0.007068739));
#1434=CARTESIAN_POINT('',(0.01085,0.00491937999998087,-0.007068739));
#1435=CARTESIAN_POINT('',(0.01085,0.004764233,-0.007544059));
#1436=CARTESIAN_POINT('',(6.54096714215992E-19,-0.005341105,-0.007068739));
#1437=CARTESIAN_POINT('',(-6.54096714215992E-19,0.005341105,-0.00706873911205));
#1438=CARTESIAN_POINT('',(0.01085,0.005341105,-0.0070687390747));
#1439=CARTESIAN_POINT('',(0.01085,0.005341105,-0.007068739));
#1440=CARTESIAN_POINT('',(-6.54096714215992E-19,0.005341105,-0.006908739));
#1441=CARTESIAN_POINT('',(-6.71191776025739E-19,0.00548069677308632,-0.00698693240508423));
#1442=CARTESIAN_POINT('',(0.01085,0.00548069677308632,-0.00698693240508423));
#1443=CARTESIAN_POINT('',(0.01085,0.005341105,-0.006908739));
#1444=CARTESIAN_POINT('',(-7.92993949811047E-19,0.006475287,-0.007544059));
#1445=CARTESIAN_POINT('',(-7.24769136285372E-19,0.00591818912024254,-0.00654945291632767));
#1446=CARTESIAN_POINT('',(0.01085,0.00591818912024254,-0.00654945291632767));
#1447=CARTESIAN_POINT('',(0.01085,0.006475287,-0.007544059));
#1448=CARTESIAN_POINT('',(-7.15193730702054E-19,0.00584,-0.006409859));
#1449=CARTESIAN_POINT('',(-7.34788079488412E-19,0.006,-0.006409859));
#1450=CARTESIAN_POINT('',(0.01085,0.006,-0.006409859));
#1451=CARTESIAN_POINT('',(0.01085,0.00584,-0.006409859));
#1452=CARTESIAN_POINT('',(-7.34788079488412E-19,0.006,-0.01));
#1453=CARTESIAN_POINT('',(-7.34788079488412E-19,0.006,-0.00558812));
#1454=CARTESIAN_POINT('',(0.01085,0.006,-0.00558812));
#1455=CARTESIAN_POINT('',(0.01085,0.006,-0.006409859));
#1456=CARTESIAN_POINT('',(-7.34788079488412E-19,0.006,-0.00558812));
#1457=CARTESIAN_POINT('',(-6.73555739531044E-19,0.0055,-0.005));
#1458=CARTESIAN_POINT('',(0.01085,0.0055,-0.005));
#1459=CARTESIAN_POINT('',(0.01085,0.006,-0.00558812));
#1460=CARTESIAN_POINT('',(-6.73555739531044E-19,0.0055,-0.005));
#1461=CARTESIAN_POINT('',(6.73555739531044E-19,-0.0055,-0.005));
#1462=CARTESIAN_POINT('',(0.01085,-0.0055,-0.005));
#1463=CARTESIAN_POINT('',(0.01085,0.0055,-0.005));
#1464=CARTESIAN_POINT('',(6.73555739531044E-19,-0.0055,-0.005));
#1465=CARTESIAN_POINT('',(7.34788079488412E-19,-0.006,-0.00558812));
#1466=CARTESIAN_POINT('',(0.01085,-0.006,-0.00558812));
#1467=CARTESIAN_POINT('',(0.01085,-0.006,-0.00558812));
#1468=CARTESIAN_POINT('',(7.34788079488412E-19,-0.006,-0.00867826));
#1469=CARTESIAN_POINT('',(7.34788080357911E-19,-0.0060000000071,-0.006409859));
#1470=CARTESIAN_POINT('',(0.01085,-0.00600000000473333,-0.006409859));
#1471=CARTESIAN_POINT('',(0.01085,-0.006,-0.006409859));
#1472=CARTESIAN_POINT('',(7.15193730702054E-19,-0.00584,-0.006409859));
#1473=CARTESIAN_POINT('',(7.24769157711771E-19,-0.00591818929520237,-0.00654945283460511));
#1474=CARTESIAN_POINT('',(0.01085,-0.00591818929520237,-0.00654945283460511));
#1475=CARTESIAN_POINT('',(0.01085,-0.00584,-0.006409859));
#1476=CARTESIAN_POINT('',(7.92993949811047E-19,-0.006475287,-0.007544059));
#1477=CARTESIAN_POINT('',(6.71191752082002E-19,-0.00548069657757087,-0.00698693229556475));
#1478=CARTESIAN_POINT('',(0.01085,-0.00548069657757087,-0.00698693229556475));
#1479=CARTESIAN_POINT('',(0.01085,-0.006475287,-0.007544059));
#1480=CARTESIAN_POINT('',(6.54096714215992E-19,-0.005341105,-0.006908739));
#1481=CARTESIAN_POINT('',(6.54096714215992E-19,-0.005341105,-0.007068739));
#1482=CARTESIAN_POINT('',(0.01085,-0.005341105,-0.007068739));
#1483=CARTESIAN_POINT('',(0.01085,-0.005341105,-0.006908739));
#1484=CARTESIAN_POINT('',(6.54096714215992E-19,-0.005341105,-0.007068739));
#1485=CARTESIAN_POINT('',(6.02450297078951E-19,-0.00491938,-0.007068739));
#1486=CARTESIAN_POINT('',(0.01085,-0.00491938,-0.007068739));
#1487=CARTESIAN_POINT('',(0.01085,-0.00491938,-0.007068739));
#1488=CARTESIAN_POINT('',(5.83450269384219E-19,-0.004764233,-0.007544059));
#1489=CARTESIAN_POINT('',(6.02450297078951E-19,-0.00491938,-0.00801938));
#1490=CARTESIAN_POINT('',(0.01085,-0.00491938,-0.00801938));
#1491=CARTESIAN_POINT('',(0.01085,-0.004764233,-0.007544059));
#1492=CARTESIAN_POINT('',(6.02450297078951E-19,-0.00491938,-0.00801938));
#1493=CARTESIAN_POINT('',(6.54096714215992E-19,-0.005341105,-0.00801938));
#1494=CARTESIAN_POINT('',(0.01085,-0.005341105,-0.00801938));
#1495=CARTESIAN_POINT('',(0.01085,-0.00491938,-0.00801938));
#1496=CARTESIAN_POINT('',(6.54096714215992E-19,-0.005341105,-0.00817938));
#1497=CARTESIAN_POINT('',(6.71191849502929E-19,-0.00548069737307311,-0.00810118623034647));
#1498=CARTESIAN_POINT('',(0.01085,-0.00548069670636237,-0.0081011863937459));
#1499=CARTESIAN_POINT('',(0.01085,-0.005341105,-0.00817938));
#1500=CARTESIAN_POINT('',(7.92993949811047E-19,-0.006475287,-0.007544059));
#1501=CARTESIAN_POINT('',(7.24769138089737E-19,-0.0059181891349763,-0.00853866609192498));
#1502=CARTESIAN_POINT('',(0.01085,-0.00591818915350081,-0.00853866578148769));
#1503=CARTESIAN_POINT('',(0.01085,-0.006475287,-0.007544059));
#1504=CARTESIAN_POINT('',(7.15193730702054E-19,-0.00584,-0.00867826));
#1505=CARTESIAN_POINT('',(7.34788079488412E-19,-0.006,-0.00867826));
#1506=CARTESIAN_POINT('',(0.01085,-0.006,-0.00867826));
#1507=CARTESIAN_POINT('',(0.01085,-0.00584,-0.00867826));
#1508=CARTESIAN_POINT('',(7.34788079488412E-19,-0.006,-0.00867826));
#1509=CARTESIAN_POINT('',(7.34788079488412E-19,-0.006,-0.01));
#1510=CARTESIAN_POINT('',(0.01085,-0.006,-0.01));
#1511=CARTESIAN_POINT('',(0.01085,-0.006,-0.01));
#1512=CARTESIAN_POINT('',(7.34788079488412E-19,-0.006,-0.01));
#1513=CARTESIAN_POINT('',(0.01085,-0.012900004,-0.01));
#1514=CARTESIAN_POINT('',(0.01085,-0.0131,-0.01));
#1515=CARTESIAN_POINT('',(1.60428730688304E-18,-0.0131,-0.01));
#1516=CARTESIAN_POINT('',(1.60428730688304E-18,-0.0131,-0.01));
#1517=CARTESIAN_POINT('',(1.65327317884893E-18,-0.0135,-0.0096));
#1518=CARTESIAN_POINT('',(0.01085,-0.0135,-0.0096));
#1519=CARTESIAN_POINT('',(0.01085,-0.0131,-0.01));
#1520=CARTESIAN_POINT('',(1.65327317884893E-18,-0.0135,-0.0096));
#1521=CARTESIAN_POINT('',(1.65327317884893E-18,-0.0135,-0.0004));
#1522=CARTESIAN_POINT('',(0.01085,-0.0135,-0.0004));
#1523=CARTESIAN_POINT('',(0.01085,-0.0135,-0.0096));
#1524=CARTESIAN_POINT('',(1.65327317884893E-18,-0.0135,-0.0004));
#1525=CARTESIAN_POINT('',(1.60428730688304E-18,-0.0131,0.));
#1526=CARTESIAN_POINT('',(0.01085,-0.0131,0.));
#1527=CARTESIAN_POINT('',(0.01085,-0.0135,-0.0004));
#1528=CARTESIAN_POINT('',(7.9602041944578E-19,-0.0065,0.));
#1529=CARTESIAN_POINT('',(7.9602041944578E-19,-0.0065,-0.00025));
#1530=CARTESIAN_POINT('',(0.01085,-0.0065,-0.00025));
#1531=CARTESIAN_POINT('',(7.9602041944578E-19,-0.0065,0.));
#1532=CARTESIAN_POINT('',(0.01085,-0.0065,0.));
#1533=CARTESIAN_POINT('',(0.01085,-0.0065,-0.00025));
#1534=CARTESIAN_POINT('',(7.9602041944578E-19,-0.0065,-0.00025));
#1535=CARTESIAN_POINT('',(-7.9602041944578E-19,0.0065,-0.00025));
#1536=CARTESIAN_POINT('',(0.01085,0.0065,-0.00025));
#1537=CARTESIAN_POINT('',(0.01085,0.0065,-0.00025));
#1538=CARTESIAN_POINT('',(-7.9602041944578E-19,0.0065,-0.00025));
#1539=CARTESIAN_POINT('',(-7.9602041944578E-19,0.0065,0.));
#1540=CARTESIAN_POINT('',(0.01085,0.0065,0.));
#1541=CARTESIAN_POINT('',(0.01085,0.0065,-0.00025));
#1542=CARTESIAN_POINT('',(-1.60428730688304E-18,0.0131,0.));
#1543=CARTESIAN_POINT('',(-1.65327317884893E-18,0.0135,-0.0004));
#1544=CARTESIAN_POINT('',(0.01085,0.0135,-0.0004));
#1545=CARTESIAN_POINT('',(-1.60428730688304E-18,0.0131,0.));
#1546=CARTESIAN_POINT('',(0.01085,0.0131,0.));
#1547=CARTESIAN_POINT('',(0.01085,0.0135,-0.0004));
#1548=CARTESIAN_POINT('',(-1.65327317884893E-18,0.0135,-0.0004));
#1549=CARTESIAN_POINT('',(-1.65327317884893E-18,0.0135,-0.0096));
#1550=CARTESIAN_POINT('',(0.01085,0.0135,-0.0096));
#1551=CARTESIAN_POINT('',(0.01085,0.0135,-0.0096));
#1552=CARTESIAN_POINT('',(-1.65327317884893E-18,0.0135,-0.0096));
#1553=CARTESIAN_POINT('',(0.01085,0.0131,-0.01));
#1554=CARTESIAN_POINT('',(-0.0075,0.01,-0.00387982360463671));
#1555=CARTESIAN_POINT('',(-0.0075,0.01,-0.00425978825276034));
#1556=CARTESIAN_POINT('',(-0.0075,0.01,-0.0035));
#1557=CARTESIAN_POINT('',(-0.0075,0.0112645,-0.0035));
#1558=CARTESIAN_POINT('',(0.01085,0.00725,-0.003));
#1559=CARTESIAN_POINT('',(0.01085,0.0131,0.));
#1560=CARTESIAN_POINT('',(0.01085,-0.0065,0.));
#1561=CARTESIAN_POINT('',(0.0075,0.01,-0.00387982360463671));
#1562=CARTESIAN_POINT('',(0.0075,0.01,-0.00425978825276034));
#1563=CARTESIAN_POINT('',(0.0075,0.01,-0.0035));
#1564=CARTESIAN_POINT('',(0.0075,0.0112645,-0.0035));
#1565=CARTESIAN_POINT('',(0.0075,-0.01,-0.00387982360463672));
#1566=CARTESIAN_POINT('',(0.0075,-0.01,-0.00425978825276035));
#1567=CARTESIAN_POINT('',(0.0075,-0.01,-0.0035));
#1568=CARTESIAN_POINT('',(0.0075,-0.0087355,-0.0035));
#1569=CARTESIAN_POINT('',(0.0075,-0.01,-0.00175));
#1570=CARTESIAN_POINT('',(0.0075,-0.01,-0.00025));
#1571=CARTESIAN_POINT('',(0.0075,-0.0087355,-0.00025));
#1572=CARTESIAN_POINT('',(0.0075,-0.01,-0.000125));
#1573=CARTESIAN_POINT('',(0.0075,-0.01,0.));
#1574=CARTESIAN_POINT('',(0.0075,-0.0084855,5.0952508205903E-19));
#1575=CARTESIAN_POINT('',(0.0075,0.01,-0.00175));
#1576=CARTESIAN_POINT('',(0.0075,0.01,-0.00025));
#1577=CARTESIAN_POINT('',(0.0075,0.0112645,-0.00025));
#1578=CARTESIAN_POINT('',(0.0075,0.01,-0.000125));
#1579=CARTESIAN_POINT('',(0.0075,0.01,0.));
#1580=CARTESIAN_POINT('',(0.0075,0.0115145,5.0952508205903E-19));
#1581=CARTESIAN_POINT('',(-0.0075,0.01,-0.00175));
#1582=CARTESIAN_POINT('',(-0.0075,0.01,-0.00025));
#1583=CARTESIAN_POINT('',(-0.0075,0.0112645,-0.00025));
#1584=CARTESIAN_POINT('',(1.60428730688304E-18,-0.0131,0.));
#1585=CARTESIAN_POINT('',(-0.0075,0.01,0.));
#1586=CARTESIAN_POINT('',(-0.0075,0.0115145,5.0952508205903E-19));
#1587=CARTESIAN_POINT('',(-0.0075,0.01,-0.000125));
#1588=CARTESIAN_POINT('',(1.60428730688304E-18,-0.0131,0.));
#1589=CARTESIAN_POINT('',(-0.0075,-0.01,0.));
#1590=CARTESIAN_POINT('',(-0.0075,-0.0084855,5.0952508205903E-19));
#1591=CARTESIAN_POINT('',(-0.0075,-0.01,-0.000125));
#1592=CARTESIAN_POINT('',(-0.0075,-0.01,-0.00025));
#1593=CARTESIAN_POINT('',(-0.0075,-0.0087355,-0.00025));
#1594=CARTESIAN_POINT('',(-0.0075,-0.01,-0.00387982360463672));
#1595=CARTESIAN_POINT('',(-0.0075,-0.01,-0.00425978825276035));
#1596=CARTESIAN_POINT('',(-0.0075,-0.01,-0.00362875951872752));
#1597=CARTESIAN_POINT('',(-0.0075,-0.00894979182517553,-0.00362875951872752));
#1598=CARTESIAN_POINT('',(-0.0075,-0.01,-0.00175));
#1599=CARTESIAN_POINT('',(-0.0075,-0.01,-0.00325));
#1600=CARTESIAN_POINT('',(-0.0075,-0.0087355,-0.00325));
#1601=CARTESIAN_POINT('',(-0.0075,-0.01,-0.00343937975936376));
#1602=MECHANICAL_DESIGN_GEOMETRIC_PRESENTATION_REPRESENTATION('',(#946),
#1603);
#1603=(
GEOMETRIC_REPRESENTATION_CONTEXT(3)
GLOBAL_UNCERTAINTY_ASSIGNED_CONTEXT((#1604))
GLOBAL_UNIT_ASSIGNED_CONTEXT((#1607,#1606,#1605))
REPRESENTATION_CONTEXT('MGN12C Carriage v1','TOP_LEVEL_ASSEMBLY_PART')
);
#1604=UNCERTAINTY_MEASURE_WITH_UNIT(LENGTH_MEASURE(1.E-6),#1607,
'DISTANCE_ACCURACY_VALUE','Maximum Tolerance applied to model');
#1605=(
NAMED_UNIT(*)
SI_UNIT($,.STERADIAN.)
SOLID_ANGLE_UNIT()
);
#1606=(
NAMED_UNIT(*)
PLANE_ANGLE_UNIT()
SI_UNIT($,.RADIAN.)
);
#1607=(
LENGTH_UNIT()
NAMED_UNIT(*)
SI_UNIT($,.METRE.)
);
#1608=PRODUCT_DEFINITION_SHAPE('','',#1609);
#1609=PRODUCT_DEFINITION('','',#1611,#1610);
#1610=PRODUCT_DEFINITION_CONTEXT('',#1617,'design');
#1611=PRODUCT_DEFINITION_FORMATION_WITH_SPECIFIED_SOURCE('','',#1613,
 .NOT_KNOWN.);
#1612=PRODUCT_RELATED_PRODUCT_CATEGORY('','',(#1613));
#1613=PRODUCT('MGN12C Carriage v1','MGN12C Carriage v1',
'MGN12C Carriage v1',(#1615));
#1614=PRODUCT_CATEGORY('','');
#1615=PRODUCT_CONTEXT('',#1617,'mechanical');
#1616=APPLICATION_PROTOCOL_DEFINITION('international standard',
'ap242_managed_model_based_3d_engineering',2020,#1617);
#1617=APPLICATION_CONTEXT('managed model based 3d engineering');
ENDSEC;
END-ISO-10303-21;
