ISO-10303-21;
HEADER;
/* Generated by software containing ST-Developer
 * from STEP Tools, Inc. (www.steptools.com) 
 */
/* OPTION: using custom renumber hook */

FILE_DESCRIPTION(
/* description */ ('STEP AP242 Edition 2',
'CAx-IF Rec.Pracs.---Representation and Presentation of Product Manufa
cturing Information (PMI)---4.0---2014-10-13',
'CAx-IF Rec.Pracs.---3D Tessellated Geometry---0.4---2014-09-14','2;1',
'CAx-IF Rec.Pracs.---User Defined Attributes---1.5---2016-08-15'),
/* implementation_level */ '2;1');

FILE_NAME(
/* name */ 'toolhead v4 - Part 32',
/* time_stamp */ '2026-08-19T20:10:41Z',
/* author */ (''),
/* organization */ (''),
/* preprocessor_version */ 'ST-DEVELOPER v20',
/* originating_system */ 'ONSHAPE BY PTC INC, 1.219',
/* authorisation */ '  ');

FILE_SCHEMA (('AP242_MANAGED_MODEL_BASED_3D_ENGINEERING_MIM_LF { 1 0 10303 442 3 1 4 }'));
ENDSEC;

DATA;
#10=SHAPE_REPRESENTATION_RELATIONSHIP('','',#728,#11);
#11=ADVANCED_BREP_SHAPE_REPRESENTATION('',(#726),#1192);
#12=CYLINDRICAL_SURFACE('',#739,0.00165);
#13=CYLINDRICAL_SURFACE('',#742,0.003);
#14=CYLINDRICAL_SURFACE('',#749,0.00165);
#15=CYLINDRICAL_SURFACE('',#752,0.003);
#16=CYLINDRICAL_SURFACE('',#758,0.004);
#17=CYLINDRICAL_SURFACE('',#761,0.004);
#18=CYLINDRICAL_SURFACE('',#764,0.004);
#19=CYLINDRICAL_SURFACE('',#766,0.00972926892591907);
#20=CYLINDRICAL_SURFACE('',#768,0.004);
#21=CYLINDRICAL_SURFACE('',#789,0.00165);
#22=CYLINDRICAL_SURFACE('',#790,0.00165);
#23=CIRCLE('',#731,0.004);
#24=CIRCLE('',#732,0.004);
#25=CIRCLE('',#733,0.00972926892591907);
#26=CIRCLE('',#734,0.004);
#27=CIRCLE('',#735,0.004);
#28=CIRCLE('',#736,0.00165);
#29=CIRCLE('',#737,0.00165);
#30=CIRCLE('',#740,0.00165);
#31=CIRCLE('',#741,0.00165);
#32=CIRCLE('',#743,0.003);
#33=CIRCLE('',#744,0.003);
#34=CIRCLE('',#745,0.003);
#35=CIRCLE('',#750,0.00165);
#36=CIRCLE('',#751,0.00165);
#37=CIRCLE('',#753,0.003);
#38=CIRCLE('',#754,0.003);
#39=CIRCLE('',#755,0.003);
#40=CIRCLE('',#759,0.004);
#41=CIRCLE('',#762,0.004);
#42=CIRCLE('',#765,0.004);
#43=CIRCLE('',#767,0.00972926892591907);
#44=CIRCLE('',#769,0.004);
#45=CIRCLE('',#776,0.00165);
#46=CIRCLE('',#777,0.00165);
#47=ORIENTED_EDGE('',*,*,#241,.F.);
#48=ORIENTED_EDGE('',*,*,#242,.T.);
#49=ORIENTED_EDGE('',*,*,#243,.F.);
#50=ORIENTED_EDGE('',*,*,#244,.T.);
#51=ORIENTED_EDGE('',*,*,#245,.T.);
#52=ORIENTED_EDGE('',*,*,#246,.F.);
#53=ORIENTED_EDGE('',*,*,#247,.T.);
#54=ORIENTED_EDGE('',*,*,#248,.F.);
#55=ORIENTED_EDGE('',*,*,#249,.F.);
#56=ORIENTED_EDGE('',*,*,#250,.F.);
#57=ORIENTED_EDGE('',*,*,#251,.F.);
#58=ORIENTED_EDGE('',*,*,#252,.T.);
#59=ORIENTED_EDGE('',*,*,#253,.F.);
#60=ORIENTED_EDGE('',*,*,#254,.F.);
#61=ORIENTED_EDGE('',*,*,#255,.T.);
#62=ORIENTED_EDGE('',*,*,#256,.F.);
#63=ORIENTED_EDGE('',*,*,#257,.T.);
#64=ORIENTED_EDGE('',*,*,#258,.F.);
#65=ORIENTED_EDGE('',*,*,#259,.F.);
#66=ORIENTED_EDGE('',*,*,#260,.F.);
#67=ORIENTED_EDGE('',*,*,#261,.F.);
#68=ORIENTED_EDGE('',*,*,#262,.F.);
#69=ORIENTED_EDGE('',*,*,#263,.F.);
#70=ORIENTED_EDGE('',*,*,#264,.F.);
#71=ORIENTED_EDGE('',*,*,#265,.F.);
#72=ORIENTED_EDGE('',*,*,#266,.T.);
#73=ORIENTED_EDGE('',*,*,#267,.F.);
#74=ORIENTED_EDGE('',*,*,#268,.F.);
#75=ORIENTED_EDGE('',*,*,#269,.T.);
#76=ORIENTED_EDGE('',*,*,#270,.T.);
#77=ORIENTED_EDGE('',*,*,#271,.F.);
#78=ORIENTED_EDGE('',*,*,#272,.T.);
#79=ORIENTED_EDGE('',*,*,#244,.F.);
#80=ORIENTED_EDGE('',*,*,#273,.T.);
#81=ORIENTED_EDGE('',*,*,#274,.T.);
#82=ORIENTED_EDGE('',*,*,#275,.T.);
#83=ORIENTED_EDGE('',*,*,#262,.T.);
#84=ORIENTED_EDGE('',*,*,#276,.F.);
#85=ORIENTED_EDGE('',*,*,#268,.T.);
#86=ORIENTED_EDGE('',*,*,#277,.T.);
#87=ORIENTED_EDGE('',*,*,#266,.F.);
#88=ORIENTED_EDGE('',*,*,#267,.T.);
#89=ORIENTED_EDGE('',*,*,#272,.F.);
#90=ORIENTED_EDGE('',*,*,#270,.F.);
#91=ORIENTED_EDGE('',*,*,#278,.T.);
#92=ORIENTED_EDGE('',*,*,#264,.T.);
#93=ORIENTED_EDGE('',*,*,#279,.T.);
#94=ORIENTED_EDGE('',*,*,#280,.F.);
#95=ORIENTED_EDGE('',*,*,#281,.F.);
#96=ORIENTED_EDGE('',*,*,#282,.T.);
#97=ORIENTED_EDGE('',*,*,#283,.F.);
#98=ORIENTED_EDGE('',*,*,#284,.F.);
#99=ORIENTED_EDGE('',*,*,#285,.T.);
#100=ORIENTED_EDGE('',*,*,#286,.F.);
#101=ORIENTED_EDGE('',*,*,#287,.F.);
#102=ORIENTED_EDGE('',*,*,#288,.T.);
#103=ORIENTED_EDGE('',*,*,#255,.F.);
#104=ORIENTED_EDGE('',*,*,#289,.F.);
#105=ORIENTED_EDGE('',*,*,#284,.T.);
#106=ORIENTED_EDGE('',*,*,#290,.T.);
#107=ORIENTED_EDGE('',*,*,#291,.T.);
#108=ORIENTED_EDGE('',*,*,#292,.T.);
#109=ORIENTED_EDGE('',*,*,#293,.T.);
#110=ORIENTED_EDGE('',*,*,#294,.T.);
#111=ORIENTED_EDGE('',*,*,#282,.F.);
#112=ORIENTED_EDGE('',*,*,#283,.T.);
#113=ORIENTED_EDGE('',*,*,#288,.F.);
#114=ORIENTED_EDGE('',*,*,#295,.F.);
#115=ORIENTED_EDGE('',*,*,#253,.T.);
#116=ORIENTED_EDGE('',*,*,#296,.T.);
#117=ORIENTED_EDGE('',*,*,#297,.F.);
#118=ORIENTED_EDGE('',*,*,#298,.F.);
#119=ORIENTED_EDGE('',*,*,#299,.F.);
#120=ORIENTED_EDGE('',*,*,#292,.F.);
#121=ORIENTED_EDGE('',*,*,#300,.T.);
#122=ORIENTED_EDGE('',*,*,#301,.T.);
#123=ORIENTED_EDGE('',*,*,#302,.F.);
#124=ORIENTED_EDGE('',*,*,#303,.F.);
#125=ORIENTED_EDGE('',*,*,#258,.T.);
#126=ORIENTED_EDGE('',*,*,#246,.T.);
#127=ORIENTED_EDGE('',*,*,#304,.T.);
#128=ORIENTED_EDGE('',*,*,#305,.F.);
#129=ORIENTED_EDGE('',*,*,#306,.F.);
#130=ORIENTED_EDGE('',*,*,#291,.F.);
#131=ORIENTED_EDGE('',*,*,#307,.T.);
#132=ORIENTED_EDGE('',*,*,#300,.F.);
#133=ORIENTED_EDGE('',*,*,#308,.F.);
#134=ORIENTED_EDGE('',*,*,#309,.F.);
#135=ORIENTED_EDGE('',*,*,#249,.T.);
#136=ORIENTED_EDGE('',*,*,#310,.T.);
#137=ORIENTED_EDGE('',*,*,#311,.F.);
#138=ORIENTED_EDGE('',*,*,#312,.F.);
#139=ORIENTED_EDGE('',*,*,#250,.T.);
#140=ORIENTED_EDGE('',*,*,#309,.T.);
#141=ORIENTED_EDGE('',*,*,#313,.F.);
#142=ORIENTED_EDGE('',*,*,#314,.F.);
#143=ORIENTED_EDGE('',*,*,#251,.T.);
#144=ORIENTED_EDGE('',*,*,#312,.T.);
#145=ORIENTED_EDGE('',*,*,#315,.T.);
#146=ORIENTED_EDGE('',*,*,#296,.F.);
#147=ORIENTED_EDGE('',*,*,#252,.F.);
#148=ORIENTED_EDGE('',*,*,#314,.T.);
#149=ORIENTED_EDGE('',*,*,#316,.F.);
#150=ORIENTED_EDGE('',*,*,#317,.F.);
#151=ORIENTED_EDGE('',*,*,#259,.T.);
#152=ORIENTED_EDGE('',*,*,#303,.T.);
#153=ORIENTED_EDGE('',*,*,#318,.F.);
#154=ORIENTED_EDGE('',*,*,#319,.F.);
#155=ORIENTED_EDGE('',*,*,#241,.T.);
#156=ORIENTED_EDGE('',*,*,#317,.T.);
#157=ORIENTED_EDGE('',*,*,#320,.F.);
#158=ORIENTED_EDGE('',*,*,#279,.F.);
#159=ORIENTED_EDGE('',*,*,#263,.T.);
#160=ORIENTED_EDGE('',*,*,#275,.F.);
#161=ORIENTED_EDGE('',*,*,#321,.T.);
#162=ORIENTED_EDGE('',*,*,#322,.F.);
#163=ORIENTED_EDGE('',*,*,#247,.F.);
#164=ORIENTED_EDGE('',*,*,#306,.T.);
#165=ORIENTED_EDGE('',*,*,#323,.F.);
#166=ORIENTED_EDGE('',*,*,#310,.F.);
#167=ORIENTED_EDGE('',*,*,#248,.T.);
#168=ORIENTED_EDGE('',*,*,#322,.T.);
#169=ORIENTED_EDGE('',*,*,#302,.T.);
#170=ORIENTED_EDGE('',*,*,#324,.T.);
#171=ORIENTED_EDGE('',*,*,#325,.T.);
#172=ORIENTED_EDGE('',*,*,#326,.F.);
#173=ORIENTED_EDGE('',*,*,#297,.T.);
#174=ORIENTED_EDGE('',*,*,#315,.F.);
#175=ORIENTED_EDGE('',*,*,#313,.T.);
#176=ORIENTED_EDGE('',*,*,#311,.T.);
#177=ORIENTED_EDGE('',*,*,#308,.T.);
#178=ORIENTED_EDGE('',*,*,#323,.T.);
#179=ORIENTED_EDGE('',*,*,#321,.F.);
#180=ORIENTED_EDGE('',*,*,#305,.T.);
#181=ORIENTED_EDGE('',*,*,#327,.T.);
#182=ORIENTED_EDGE('',*,*,#280,.T.);
#183=ORIENTED_EDGE('',*,*,#320,.T.);
#184=ORIENTED_EDGE('',*,*,#316,.T.);
#185=ORIENTED_EDGE('',*,*,#328,.T.);
#186=ORIENTED_EDGE('',*,*,#329,.T.);
#187=ORIENTED_EDGE('',*,*,#276,.T.);
#188=ORIENTED_EDGE('',*,*,#265,.T.);
#189=ORIENTED_EDGE('',*,*,#278,.F.);
#190=ORIENTED_EDGE('',*,*,#269,.F.);
#191=ORIENTED_EDGE('',*,*,#304,.F.);
#192=ORIENTED_EDGE('',*,*,#245,.F.);
#193=ORIENTED_EDGE('',*,*,#277,.F.);
#194=ORIENTED_EDGE('',*,*,#271,.T.);
#195=ORIENTED_EDGE('',*,*,#281,.T.);
#196=ORIENTED_EDGE('',*,*,#327,.F.);
#197=ORIENTED_EDGE('',*,*,#330,.T.);
#198=ORIENTED_EDGE('',*,*,#325,.F.);
#199=ORIENTED_EDGE('',*,*,#331,.F.);
#200=ORIENTED_EDGE('',*,*,#286,.T.);
#201=ORIENTED_EDGE('',*,*,#307,.F.);
#202=ORIENTED_EDGE('',*,*,#290,.F.);
#203=ORIENTED_EDGE('',*,*,#287,.T.);
#204=ORIENTED_EDGE('',*,*,#331,.T.);
#205=ORIENTED_EDGE('',*,*,#324,.F.);
#206=ORIENTED_EDGE('',*,*,#301,.F.);
#207=ORIENTED_EDGE('',*,*,#289,.T.);
#208=ORIENTED_EDGE('',*,*,#254,.T.);
#209=ORIENTED_EDGE('',*,*,#295,.T.);
#210=ORIENTED_EDGE('',*,*,#326,.T.);
#211=ORIENTED_EDGE('',*,*,#330,.F.);
#212=ORIENTED_EDGE('',*,*,#285,.F.);
#213=ORIENTED_EDGE('',*,*,#318,.T.);
#214=ORIENTED_EDGE('',*,*,#274,.F.);
#215=ORIENTED_EDGE('',*,*,#332,.F.);
#216=ORIENTED_EDGE('',*,*,#333,.T.);
#217=ORIENTED_EDGE('',*,*,#243,.T.);
#218=ORIENTED_EDGE('',*,*,#334,.T.);
#219=ORIENTED_EDGE('',*,*,#332,.T.);
#220=ORIENTED_EDGE('',*,*,#273,.F.);
#221=ORIENTED_EDGE('',*,*,#299,.T.);
#222=ORIENTED_EDGE('',*,*,#335,.T.);
#223=ORIENTED_EDGE('',*,*,#336,.T.);
#224=ORIENTED_EDGE('',*,*,#293,.F.);
#225=ORIENTED_EDGE('',*,*,#256,.T.);
#226=ORIENTED_EDGE('',*,*,#294,.F.);
#227=ORIENTED_EDGE('',*,*,#336,.F.);
#228=ORIENTED_EDGE('',*,*,#337,.T.);
#229=ORIENTED_EDGE('',*,*,#242,.F.);
#230=ORIENTED_EDGE('',*,*,#319,.T.);
#231=ORIENTED_EDGE('',*,*,#333,.F.);
#232=ORIENTED_EDGE('',*,*,#334,.F.);
#233=ORIENTED_EDGE('',*,*,#257,.F.);
#234=ORIENTED_EDGE('',*,*,#337,.F.);
#235=ORIENTED_EDGE('',*,*,#335,.F.);
#236=ORIENTED_EDGE('',*,*,#298,.T.);
#237=ORIENTED_EDGE('',*,*,#261,.T.);
#238=ORIENTED_EDGE('',*,*,#328,.F.);
#239=ORIENTED_EDGE('',*,*,#260,.T.);
#240=ORIENTED_EDGE('',*,*,#329,.F.);
#241=EDGE_CURVE('',#338,#339,#406,.T.);
#242=EDGE_CURVE('',#338,#340,#407,.T.);
#243=EDGE_CURVE('',#341,#340,#408,.T.);
#244=EDGE_CURVE('',#341,#342,#409,.T.);
#245=EDGE_CURVE('',#342,#343,#410,.T.);
#246=EDGE_CURVE('',#344,#343,#23,.T.);
#247=EDGE_CURVE('',#344,#345,#411,.T.);
#248=EDGE_CURVE('',#346,#345,#412,.T.);
#249=EDGE_CURVE('',#347,#346,#24,.T.);
#250=EDGE_CURVE('',#348,#347,#25,.T.);
#251=EDGE_CURVE('',#349,#348,#26,.T.);
#252=EDGE_CURVE('',#349,#350,#413,.T.);
#253=EDGE_CURVE('',#351,#350,#27,.T.);
#254=EDGE_CURVE('',#352,#351,#414,.T.);
#255=EDGE_CURVE('',#352,#353,#415,.T.);
#256=EDGE_CURVE('',#354,#353,#416,.T.);
#257=EDGE_CURVE('',#354,#355,#417,.T.);
#258=EDGE_CURVE('',#356,#355,#418,.T.);
#259=EDGE_CURVE('',#339,#356,#419,.T.);
#260=EDGE_CURVE('',#357,#357,#28,.F.);
#261=EDGE_CURVE('',#358,#358,#29,.F.);
#262=EDGE_CURVE('',#359,#360,#420,.T.);
#263=EDGE_CURVE('',#361,#359,#421,.T.);
#264=EDGE_CURVE('',#362,#361,#422,.T.);
#265=EDGE_CURVE('',#360,#362,#423,.T.);
#266=EDGE_CURVE('',#363,#363,#30,.T.);
#267=EDGE_CURVE('',#364,#364,#31,.T.);
#268=EDGE_CURVE('',#365,#366,#32,.T.);
#269=EDGE_CURVE('',#365,#367,#424,.T.);
#270=EDGE_CURVE('',#367,#368,#33,.T.);
#271=EDGE_CURVE('',#366,#368,#425,.T.);
#272=EDGE_CURVE('',#369,#369,#34,.T.);
#273=EDGE_CURVE('',#341,#370,#426,.T.);
#274=EDGE_CURVE('',#370,#371,#427,.T.);
#275=EDGE_CURVE('',#371,#359,#428,.T.);
#276=EDGE_CURVE('',#365,#360,#429,.T.);
#277=EDGE_CURVE('',#366,#342,#430,.T.);
#278=EDGE_CURVE('',#367,#362,#431,.T.);
#279=EDGE_CURVE('',#361,#372,#432,.T.);
#280=EDGE_CURVE('',#373,#372,#433,.T.);
#281=EDGE_CURVE('',#368,#373,#434,.T.);
#282=EDGE_CURVE('',#374,#374,#35,.T.);
#283=EDGE_CURVE('',#375,#375,#36,.T.);
#284=EDGE_CURVE('',#376,#377,#37,.T.);
#285=EDGE_CURVE('',#376,#378,#435,.T.);
#286=EDGE_CURVE('',#379,#378,#38,.T.);
#287=EDGE_CURVE('',#377,#379,#436,.T.);
#288=EDGE_CURVE('',#380,#380,#39,.T.);
#289=EDGE_CURVE('',#376,#352,#437,.T.);
#290=EDGE_CURVE('',#377,#381,#438,.T.);
#291=EDGE_CURVE('',#381,#382,#439,.T.);
#292=EDGE_CURVE('',#382,#383,#440,.T.);
#293=EDGE_CURVE('',#383,#384,#441,.T.);
#294=EDGE_CURVE('',#384,#353,#442,.T.);
#295=EDGE_CURVE('',#351,#385,#443,.T.);
#296=EDGE_CURVE('',#350,#386,#444,.T.);
#297=EDGE_CURVE('',#385,#386,#40,.T.);
#298=EDGE_CURVE('',#387,#355,#445,.F.);
#299=EDGE_CURVE('',#383,#387,#446,.T.);
#300=EDGE_CURVE('',#382,#388,#447,.T.);
#301=EDGE_CURVE('',#388,#389,#448,.T.);
#302=EDGE_CURVE('',#390,#389,#449,.T.);
#303=EDGE_CURVE('',#356,#390,#450,.T.);
#304=EDGE_CURVE('',#343,#391,#451,.T.);
#305=EDGE_CURVE('',#392,#391,#41,.T.);
#306=EDGE_CURVE('',#344,#392,#452,.T.);
#307=EDGE_CURVE('',#381,#388,#453,.T.);
#308=EDGE_CURVE('',#393,#394,#42,.T.);
#309=EDGE_CURVE('',#347,#393,#454,.T.);
#310=EDGE_CURVE('',#346,#394,#455,.T.);
#311=EDGE_CURVE('',#395,#393,#43,.T.);
#312=EDGE_CURVE('',#348,#395,#456,.T.);
#313=EDGE_CURVE('',#396,#395,#44,.T.);
#314=EDGE_CURVE('',#349,#396,#457,.T.);
#315=EDGE_CURVE('',#396,#386,#458,.T.);
#316=EDGE_CURVE('',#397,#390,#459,.T.);
#317=EDGE_CURVE('',#339,#397,#460,.T.);
#318=EDGE_CURVE('',#398,#371,#461,.T.);
#319=EDGE_CURVE('',#338,#398,#462,.T.);
#320=EDGE_CURVE('',#372,#397,#463,.T.);
#321=EDGE_CURVE('',#392,#399,#464,.T.);
#322=EDGE_CURVE('',#345,#399,#465,.T.);
#323=EDGE_CURVE('',#394,#399,#466,.T.);
#324=EDGE_CURVE('',#389,#400,#467,.T.);
#325=EDGE_CURVE('',#400,#401,#468,.T.);
#326=EDGE_CURVE('',#385,#401,#469,.T.);
#327=EDGE_CURVE('',#391,#373,#470,.T.);
#328=EDGE_CURVE('',#402,#402,#45,.F.);
#329=EDGE_CURVE('',#403,#403,#46,.F.);
#330=EDGE_CURVE('',#378,#401,#471,.T.);
#331=EDGE_CURVE('',#379,#400,#472,.T.);
#332=EDGE_CURVE('',#404,#370,#473,.T.);
#333=EDGE_CURVE('',#404,#398,#474,.F.);
#334=EDGE_CURVE('',#340,#404,#475,.T.);
#335=EDGE_CURVE('',#387,#405,#476,.F.);
#336=EDGE_CURVE('',#405,#384,#477,.T.);
#337=EDGE_CURVE('',#405,#354,#478,.T.);
#338=VERTEX_POINT('',#991);
#339=VERTEX_POINT('',#992);
#340=VERTEX_POINT('',#994);
#341=VERTEX_POINT('',#996);
#342=VERTEX_POINT('',#998);
#343=VERTEX_POINT('',#1000);
#344=VERTEX_POINT('',#1002);
#345=VERTEX_POINT('',#1004);
#346=VERTEX_POINT('',#1006);
#347=VERTEX_POINT('',#1008);
#348=VERTEX_POINT('',#1010);
#349=VERTEX_POINT('',#1012);
#350=VERTEX_POINT('',#1014);
#351=VERTEX_POINT('',#1016);
#352=VERTEX_POINT('',#1018);
#353=VERTEX_POINT('',#1020);
#354=VERTEX_POINT('',#1022);
#355=VERTEX_POINT('',#1024);
#356=VERTEX_POINT('',#1026);
#357=VERTEX_POINT('',#1029);
#358=VERTEX_POINT('',#1031);
#359=VERTEX_POINT('',#1034);
#360=VERTEX_POINT('',#1035);
#361=VERTEX_POINT('',#1037);
#362=VERTEX_POINT('',#1039);
#363=VERTEX_POINT('',#1043);
#364=VERTEX_POINT('',#1045);
#365=VERTEX_POINT('',#1048);
#366=VERTEX_POINT('',#1049);
#367=VERTEX_POINT('',#1051);
#368=VERTEX_POINT('',#1053);
#369=VERTEX_POINT('',#1056);
#370=VERTEX_POINT('',#1059);
#371=VERTEX_POINT('',#1061);
#372=VERTEX_POINT('',#1069);
#373=VERTEX_POINT('',#1071);
#374=VERTEX_POINT('',#1075);
#375=VERTEX_POINT('',#1077);
#376=VERTEX_POINT('',#1080);
#377=VERTEX_POINT('',#1081);
#378=VERTEX_POINT('',#1083);
#379=VERTEX_POINT('',#1085);
#380=VERTEX_POINT('',#1088);
#381=VERTEX_POINT('',#1092);
#382=VERTEX_POINT('',#1094);
#383=VERTEX_POINT('',#1096);
#384=VERTEX_POINT('',#1098);
#385=VERTEX_POINT('',#1103);
#386=VERTEX_POINT('',#1105);
#387=VERTEX_POINT('',#1109);
#388=VERTEX_POINT('',#1112);
#389=VERTEX_POINT('',#1114);
#390=VERTEX_POINT('',#1116);
#391=VERTEX_POINT('',#1120);
#392=VERTEX_POINT('',#1122);
#393=VERTEX_POINT('',#1128);
#394=VERTEX_POINT('',#1129);
#395=VERTEX_POINT('',#1134);
#396=VERTEX_POINT('',#1138);
#397=VERTEX_POINT('',#1144);
#398=VERTEX_POINT('',#1148);
#399=VERTEX_POINT('',#1153);
#400=VERTEX_POINT('',#1159);
#401=VERTEX_POINT('',#1161);
#402=VERTEX_POINT('',#1165);
#403=VERTEX_POINT('',#1167);
#404=VERTEX_POINT('',#1177);
#405=VERTEX_POINT('',#1183);
#406=LINE('',#990,#479);
#407=LINE('',#993,#480);
#408=LINE('',#995,#481);
#409=LINE('',#997,#482);
#410=LINE('',#999,#483);
#411=LINE('',#1003,#484);
#412=LINE('',#1005,#485);
#413=LINE('',#1013,#486);
#414=LINE('',#1017,#487);
#415=LINE('',#1019,#488);
#416=LINE('',#1021,#489);
#417=LINE('',#1023,#490);
#418=LINE('',#1025,#491);
#419=LINE('',#1027,#492);
#420=LINE('',#1033,#493);
#421=LINE('',#1036,#494);
#422=LINE('',#1038,#495);
#423=LINE('',#1040,#496);
#424=LINE('',#1050,#497);
#425=LINE('',#1054,#498);
#426=LINE('',#1058,#499);
#427=LINE('',#1060,#500);
#428=LINE('',#1062,#501);
#429=LINE('',#1063,#502);
#430=LINE('',#1064,#503);
#431=LINE('',#1067,#504);
#432=LINE('',#1068,#505);
#433=LINE('',#1070,#506);
#434=LINE('',#1072,#507);
#435=LINE('',#1082,#508);
#436=LINE('',#1086,#509);
#437=LINE('',#1090,#510);
#438=LINE('',#1091,#511);
#439=LINE('',#1093,#512);
#440=LINE('',#1095,#513);
#441=LINE('',#1097,#514);
#442=LINE('',#1099,#515);
#443=LINE('',#1102,#516);
#444=LINE('',#1104,#517);
#445=LINE('',#1108,#518);
#446=LINE('',#1110,#519);
#447=LINE('',#1111,#520);
#448=LINE('',#1113,#521);
#449=LINE('',#1115,#522);
#450=LINE('',#1117,#523);
#451=LINE('',#1119,#524);
#452=LINE('',#1123,#525);
#453=LINE('',#1125,#526);
#454=LINE('',#1130,#527);
#455=LINE('',#1131,#528);
#456=LINE('',#1135,#529);
#457=LINE('',#1139,#530);
#458=LINE('',#1141,#531);
#459=LINE('',#1143,#532);
#460=LINE('',#1145,#533);
#461=LINE('',#1147,#534);
#462=LINE('',#1149,#535);
#463=LINE('',#1150,#536);
#464=LINE('',#1152,#537);
#465=LINE('',#1154,#538);
#466=LINE('',#1156,#539);
#467=LINE('',#1158,#540);
#468=LINE('',#1160,#541);
#469=LINE('',#1162,#542);
#470=LINE('',#1163,#543);
#471=LINE('',#1171,#544);
#472=LINE('',#1172,#545);
#473=LINE('',#1176,#546);
#474=LINE('',#1178,#547);
#475=LINE('',#1180,#548);
#476=LINE('',#1182,#549);
#477=LINE('',#1184,#550);
#478=LINE('',#1186,#551);
#479=VECTOR('',#795,1.);
#480=VECTOR('',#796,1.);
#481=VECTOR('',#797,1.);
#482=VECTOR('',#798,1.);
#483=VECTOR('',#799,1.);
#484=VECTOR('',#802,1.);
#485=VECTOR('',#803,1.);
#486=VECTOR('',#810,1.);
#487=VECTOR('',#813,1.);
#488=VECTOR('',#814,1.);
#489=VECTOR('',#815,1.);
#490=VECTOR('',#816,1.);
#491=VECTOR('',#817,1.);
#492=VECTOR('',#818,1.);
#493=VECTOR('',#825,1.);
#494=VECTOR('',#826,1.);
#495=VECTOR('',#827,1.);
#496=VECTOR('',#828,1.);
#497=VECTOR('',#839,1.);
#498=VECTOR('',#842,1.);
#499=VECTOR('',#847,1.);
#500=VECTOR('',#848,1.);
#501=VECTOR('',#849,1.);
#502=VECTOR('',#850,1.);
#503=VECTOR('',#851,1.);
#504=VECTOR('',#856,1.);
#505=VECTOR('',#857,1.);
#506=VECTOR('',#858,1.);
#507=VECTOR('',#859,1.);
#508=VECTOR('',#870,1.);
#509=VECTOR('',#873,1.);
#510=VECTOR('',#878,1.);
#511=VECTOR('',#879,1.);
#512=VECTOR('',#880,1.);
#513=VECTOR('',#881,1.);
#514=VECTOR('',#882,1.);
#515=VECTOR('',#883,1.);
#516=VECTOR('',#888,1.);
#517=VECTOR('',#889,1.);
#518=VECTOR('',#894,1.);
#519=VECTOR('',#895,1.);
#520=VECTOR('',#896,1.);
#521=VECTOR('',#897,1.);
#522=VECTOR('',#898,1.);
#523=VECTOR('',#899,1.);
#524=VECTOR('',#902,1.);
#525=VECTOR('',#905,1.);
#526=VECTOR('',#908,1.);
#527=VECTOR('',#913,1.);
#528=VECTOR('',#914,1.);
#529=VECTOR('',#919,1.);
#530=VECTOR('',#924,1.);
#531=VECTOR('',#927,1.);
#532=VECTOR('',#930,1.);
#533=VECTOR('',#931,1.);
#534=VECTOR('',#934,1.);
#535=VECTOR('',#935,1.);
#536=VECTOR('',#936,1.);
#537=VECTOR('',#939,1.);
#538=VECTOR('',#940,1.);
#539=VECTOR('',#943,1.);
#540=VECTOR('',#946,1.);
#541=VECTOR('',#947,1.);
#542=VECTOR('',#948,1.);
#543=VECTOR('',#949,1.);
#544=VECTOR('',#960,1.);
#545=VECTOR('',#961,1.);
#546=VECTOR('',#968,1.);
#547=VECTOR('',#969,1.);
#548=VECTOR('',#972,1.);
#549=VECTOR('',#975,1.);
#550=VECTOR('',#976,1.);
#551=VECTOR('',#979,1.);
#552=EDGE_LOOP('',(#47,#48,#49,#50,#51,#52,#53,#54,#55,#56,#57,#58,#59,
#60,#61,#62,#63,#64,#65));
#553=EDGE_LOOP('',(#66));
#554=EDGE_LOOP('',(#67));
#555=EDGE_LOOP('',(#68,#69,#70,#71));
#556=EDGE_LOOP('',(#72));
#557=EDGE_LOOP('',(#73));
#558=EDGE_LOOP('',(#74,#75,#76,#77));
#559=EDGE_LOOP('',(#78));
#560=EDGE_LOOP('',(#79,#80,#81,#82,#83,#84,#85,#86));
#561=EDGE_LOOP('',(#87));
#562=EDGE_LOOP('',(#88));
#563=EDGE_LOOP('',(#89));
#564=EDGE_LOOP('',(#90,#91,#92,#93,#94,#95));
#565=EDGE_LOOP('',(#96));
#566=EDGE_LOOP('',(#97));
#567=EDGE_LOOP('',(#98,#99,#100,#101));
#568=EDGE_LOOP('',(#102));
#569=EDGE_LOOP('',(#103,#104,#105,#106,#107,#108,#109,#110));
#570=EDGE_LOOP('',(#111));
#571=EDGE_LOOP('',(#112));
#572=EDGE_LOOP('',(#113));
#573=EDGE_LOOP('',(#114,#115,#116,#117));
#574=EDGE_LOOP('',(#118,#119,#120,#121,#122,#123,#124,#125));
#575=EDGE_LOOP('',(#126,#127,#128,#129));
#576=EDGE_LOOP('',(#130,#131,#132));
#577=EDGE_LOOP('',(#133,#134,#135,#136));
#578=EDGE_LOOP('',(#137,#138,#139,#140));
#579=EDGE_LOOP('',(#141,#142,#143,#144));
#580=EDGE_LOOP('',(#145,#146,#147,#148));
#581=EDGE_LOOP('',(#149,#150,#151,#152));
#582=EDGE_LOOP('',(#153,#154,#155,#156,#157,#158,#159,#160));
#583=EDGE_LOOP('',(#161,#162,#163,#164));
#584=EDGE_LOOP('',(#165,#166,#167,#168));
#585=EDGE_LOOP('',(#169,#170,#171,#172,#173,#174,#175,#176,#177,#178,#179,
#180,#181,#182,#183,#184));
#586=EDGE_LOOP('',(#185));
#587=EDGE_LOOP('',(#186));
#588=EDGE_LOOP('',(#187,#188,#189,#190));
#589=EDGE_LOOP('',(#191,#192,#193,#194,#195,#196));
#590=EDGE_LOOP('',(#197,#198,#199,#200));
#591=EDGE_LOOP('',(#201,#202,#203,#204,#205,#206));
#592=EDGE_LOOP('',(#207,#208,#209,#210,#211,#212));
#593=EDGE_LOOP('',(#213,#214,#215,#216));
#594=EDGE_LOOP('',(#217,#218,#219,#220));
#595=EDGE_LOOP('',(#221,#222,#223,#224));
#596=EDGE_LOOP('',(#225,#226,#227,#228));
#597=EDGE_LOOP('',(#229,#230,#231,#232));
#598=EDGE_LOOP('',(#233,#234,#235,#236));
#599=EDGE_LOOP('',(#237));
#600=EDGE_LOOP('',(#238));
#601=EDGE_LOOP('',(#239));
#602=EDGE_LOOP('',(#240));
#603=FACE_BOUND('',#552,.T.);
#604=FACE_BOUND('',#553,.T.);
#605=FACE_BOUND('',#554,.T.);
#606=FACE_BOUND('',#555,.T.);
#607=FACE_BOUND('',#556,.T.);
#608=FACE_BOUND('',#557,.T.);
#609=FACE_BOUND('',#558,.T.);
#610=FACE_BOUND('',#559,.T.);
#611=FACE_BOUND('',#560,.T.);
#612=FACE_BOUND('',#561,.T.);
#613=FACE_BOUND('',#562,.T.);
#614=FACE_BOUND('',#563,.T.);
#615=FACE_BOUND('',#564,.T.);
#616=FACE_BOUND('',#565,.T.);
#617=FACE_BOUND('',#566,.T.);
#618=FACE_BOUND('',#567,.T.);
#619=FACE_BOUND('',#568,.T.);
#620=FACE_BOUND('',#569,.T.);
#621=FACE_BOUND('',#570,.T.);
#622=FACE_BOUND('',#571,.T.);
#623=FACE_BOUND('',#572,.T.);
#624=FACE_BOUND('',#573,.T.);
#625=FACE_BOUND('',#574,.T.);
#626=FACE_BOUND('',#575,.T.);
#627=FACE_BOUND('',#576,.T.);
#628=FACE_BOUND('',#577,.T.);
#629=FACE_BOUND('',#578,.T.);
#630=FACE_BOUND('',#579,.T.);
#631=FACE_BOUND('',#580,.T.);
#632=FACE_BOUND('',#581,.T.);
#633=FACE_BOUND('',#582,.T.);
#634=FACE_BOUND('',#583,.T.);
#635=FACE_BOUND('',#584,.T.);
#636=FACE_BOUND('',#585,.T.);
#637=FACE_BOUND('',#586,.T.);
#638=FACE_BOUND('',#587,.T.);
#639=FACE_BOUND('',#588,.T.);
#640=FACE_BOUND('',#589,.T.);
#641=FACE_BOUND('',#590,.T.);
#642=FACE_BOUND('',#591,.T.);
#643=FACE_BOUND('',#592,.T.);
#644=FACE_BOUND('',#593,.T.);
#645=FACE_BOUND('',#594,.T.);
#646=FACE_BOUND('',#595,.T.);
#647=FACE_BOUND('',#596,.T.);
#648=FACE_BOUND('',#597,.T.);
#649=FACE_BOUND('',#598,.T.);
#650=FACE_BOUND('',#599,.T.);
#651=FACE_BOUND('',#600,.T.);
#652=FACE_BOUND('',#601,.T.);
#653=FACE_BOUND('',#602,.T.);
#654=PLANE('',#730);
#655=PLANE('',#738);
#656=PLANE('',#746);
#657=PLANE('',#747);
#658=PLANE('',#748);
#659=PLANE('',#756);
#660=PLANE('',#757);
#661=PLANE('',#760);
#662=PLANE('',#763);
#663=PLANE('',#770);
#664=PLANE('',#771);
#665=PLANE('',#772);
#666=PLANE('',#773);
#667=PLANE('',#774);
#668=PLANE('',#775);
#669=PLANE('',#778);
#670=PLANE('',#779);
#671=PLANE('',#780);
#672=PLANE('',#781);
#673=PLANE('',#782);
#674=PLANE('',#783);
#675=PLANE('',#784);
#676=PLANE('',#785);
#677=PLANE('',#786);
#678=PLANE('',#787);
#679=PLANE('',#788);
#680=ADVANCED_FACE('',(#603,#604,#605),#654,.T.);
#681=ADVANCED_FACE('',(#606),#655,.T.);
#682=ADVANCED_FACE('',(#607,#608),#12,.F.);
#683=ADVANCED_FACE('',(#609,#610),#13,.T.);
#684=ADVANCED_FACE('',(#611,#612),#656,.T.);
#685=ADVANCED_FACE('',(#613,#614),#657,.F.);
#686=ADVANCED_FACE('',(#615),#658,.T.);
#687=ADVANCED_FACE('',(#616,#617),#14,.F.);
#688=ADVANCED_FACE('',(#618,#619),#15,.T.);
#689=ADVANCED_FACE('',(#620,#621),#659,.T.);
#690=ADVANCED_FACE('',(#622,#623),#660,.F.);
#691=ADVANCED_FACE('',(#624),#16,.T.);
#692=ADVANCED_FACE('',(#625),#661,.T.);
#693=ADVANCED_FACE('',(#626),#17,.T.);
#694=ADVANCED_FACE('',(#627),#662,.T.);
#695=ADVANCED_FACE('',(#628),#18,.T.);
#696=ADVANCED_FACE('',(#629),#19,.F.);
#697=ADVANCED_FACE('',(#630),#20,.T.);
#698=ADVANCED_FACE('',(#631),#663,.F.);
#699=ADVANCED_FACE('',(#632),#664,.T.);
#700=ADVANCED_FACE('',(#633),#665,.T.);
#701=ADVANCED_FACE('',(#634),#666,.F.);
#702=ADVANCED_FACE('',(#635),#667,.T.);
#703=ADVANCED_FACE('',(#636,#637,#638),#668,.F.);
#704=ADVANCED_FACE('',(#639),#669,.T.);
#705=ADVANCED_FACE('',(#640),#670,.F.);
#706=ADVANCED_FACE('',(#641),#671,.F.);
#707=ADVANCED_FACE('',(#642),#672,.F.);
#708=ADVANCED_FACE('',(#643),#673,.T.);
#709=ADVANCED_FACE('',(#644),#674,.F.);
#710=ADVANCED_FACE('',(#645),#675,.F.);
#711=ADVANCED_FACE('',(#646),#676,.F.);
#712=ADVANCED_FACE('',(#647),#677,.F.);
#713=ADVANCED_FACE('',(#648),#678,.T.);
#714=ADVANCED_FACE('',(#649),#679,.T.);
#715=ADVANCED_FACE('',(#650,#651),#21,.F.);
#716=ADVANCED_FACE('',(#652,#653),#22,.F.);
#717=CLOSED_SHELL('',(#680,#681,#682,#683,#684,#685,#686,#687,#688,#689,
#690,#691,#692,#693,#694,#695,#696,#697,#698,#699,#700,#701,#702,#703,#704,
#705,#706,#707,#708,#709,#710,#711,#712,#713,#714,#715,#716));
#718=STYLED_ITEM('',(#719),#726);
#719=PRESENTATION_STYLE_ASSIGNMENT((#720));
#720=SURFACE_STYLE_USAGE(.BOTH.,#721);
#721=SURFACE_SIDE_STYLE('',(#722));
#722=SURFACE_STYLE_FILL_AREA(#723);
#723=FILL_AREA_STYLE('',(#724));
#724=FILL_AREA_STYLE_COLOUR('',#725);
#725=COLOUR_RGB('',0.972549019607843,0.529411764705882,0.00392156862745098);
#726=MANIFOLD_SOLID_BREP('Part 32',#717);
#727=SHAPE_DEFINITION_REPRESENTATION(#1197,#728);
#728=SHAPE_REPRESENTATION('Part 32',(#729),#1192);
#729=AXIS2_PLACEMENT_3D('',#988,#791,#792);
#730=AXIS2_PLACEMENT_3D('',#989,#793,#794);
#731=AXIS2_PLACEMENT_3D('',#1001,#800,#801);
#732=AXIS2_PLACEMENT_3D('',#1007,#804,#805);
#733=AXIS2_PLACEMENT_3D('',#1009,#806,#807);
#734=AXIS2_PLACEMENT_3D('',#1011,#808,#809);
#735=AXIS2_PLACEMENT_3D('',#1015,#811,#812);
#736=AXIS2_PLACEMENT_3D('',#1028,#819,#820);
#737=AXIS2_PLACEMENT_3D('',#1030,#821,#822);
#738=AXIS2_PLACEMENT_3D('',#1032,#823,#824);
#739=AXIS2_PLACEMENT_3D('',#1041,#829,#830);
#740=AXIS2_PLACEMENT_3D('',#1042,#831,#832);
#741=AXIS2_PLACEMENT_3D('',#1044,#833,#834);
#742=AXIS2_PLACEMENT_3D('',#1046,#835,#836);
#743=AXIS2_PLACEMENT_3D('',#1047,#837,#838);
#744=AXIS2_PLACEMENT_3D('',#1052,#840,#841);
#745=AXIS2_PLACEMENT_3D('',#1055,#843,#844);
#746=AXIS2_PLACEMENT_3D('',#1057,#845,#846);
#747=AXIS2_PLACEMENT_3D('',#1065,#852,#853);
#748=AXIS2_PLACEMENT_3D('',#1066,#854,#855);
#749=AXIS2_PLACEMENT_3D('',#1073,#860,#861);
#750=AXIS2_PLACEMENT_3D('',#1074,#862,#863);
#751=AXIS2_PLACEMENT_3D('',#1076,#864,#865);
#752=AXIS2_PLACEMENT_3D('',#1078,#866,#867);
#753=AXIS2_PLACEMENT_3D('',#1079,#868,#869);
#754=AXIS2_PLACEMENT_3D('',#1084,#871,#872);
#755=AXIS2_PLACEMENT_3D('',#1087,#874,#875);
#756=AXIS2_PLACEMENT_3D('',#1089,#876,#877);
#757=AXIS2_PLACEMENT_3D('',#1100,#884,#885);
#758=AXIS2_PLACEMENT_3D('',#1101,#886,#887);
#759=AXIS2_PLACEMENT_3D('',#1106,#890,#891);
#760=AXIS2_PLACEMENT_3D('',#1107,#892,#893);
#761=AXIS2_PLACEMENT_3D('',#1118,#900,#901);
#762=AXIS2_PLACEMENT_3D('',#1121,#903,#904);
#763=AXIS2_PLACEMENT_3D('',#1124,#906,#907);
#764=AXIS2_PLACEMENT_3D('',#1126,#909,#910);
#765=AXIS2_PLACEMENT_3D('',#1127,#911,#912);
#766=AXIS2_PLACEMENT_3D('',#1132,#915,#916);
#767=AXIS2_PLACEMENT_3D('',#1133,#917,#918);
#768=AXIS2_PLACEMENT_3D('',#1136,#920,#921);
#769=AXIS2_PLACEMENT_3D('',#1137,#922,#923);
#770=AXIS2_PLACEMENT_3D('',#1140,#925,#926);
#771=AXIS2_PLACEMENT_3D('',#1142,#928,#929);
#772=AXIS2_PLACEMENT_3D('',#1146,#932,#933);
#773=AXIS2_PLACEMENT_3D('',#1151,#937,#938);
#774=AXIS2_PLACEMENT_3D('',#1155,#941,#942);
#775=AXIS2_PLACEMENT_3D('',#1157,#944,#945);
#776=AXIS2_PLACEMENT_3D('',#1164,#950,#951);
#777=AXIS2_PLACEMENT_3D('',#1166,#952,#953);
#778=AXIS2_PLACEMENT_3D('',#1168,#954,#955);
#779=AXIS2_PLACEMENT_3D('',#1169,#956,#957);
#780=AXIS2_PLACEMENT_3D('',#1170,#958,#959);
#781=AXIS2_PLACEMENT_3D('',#1173,#962,#963);
#782=AXIS2_PLACEMENT_3D('',#1174,#964,#965);
#783=AXIS2_PLACEMENT_3D('',#1175,#966,#967);
#784=AXIS2_PLACEMENT_3D('',#1179,#970,#971);
#785=AXIS2_PLACEMENT_3D('',#1181,#973,#974);
#786=AXIS2_PLACEMENT_3D('',#1185,#977,#978);
#787=AXIS2_PLACEMENT_3D('',#1187,#980,#981);
#788=AXIS2_PLACEMENT_3D('',#1188,#982,#983);
#789=AXIS2_PLACEMENT_3D('',#1189,#984,#985);
#790=AXIS2_PLACEMENT_3D('',#1190,#986,#987);
#791=DIRECTION('',(0.,0.,1.));
#792=DIRECTION('',(1.,0.,0.));
#793=DIRECTION('',(0.,0.,1.));
#794=DIRECTION('',(1.,0.,0.));
#795=DIRECTION('',(-0.297736755798213,0.954648010654585,0.));
#796=DIRECTION('',(1.,0.,0.));
#797=DIRECTION('',(0.,1.,0.));
#798=DIRECTION('',(1.,0.,0.));
#799=DIRECTION('',(0.,-1.,0.));
#800=DIRECTION('',(0.,0.,-1.));
#801=DIRECTION('',(1.,0.,0.));
#802=DIRECTION('',(-1.,0.,0.));
#803=DIRECTION('',(-0.297736755798213,-0.954648010654584,0.));
#804=DIRECTION('',(0.,0.,-1.));
#805=DIRECTION('',(1.,0.,0.));
#806=DIRECTION('',(0.,0.,1.));
#807=DIRECTION('',(1.,0.,0.));
#808=DIRECTION('',(0.,0.,-1.));
#809=DIRECTION('',(1.,0.,0.));
#810=DIRECTION('',(-0.73860858831177,-0.674134521643933,0.));
#811=DIRECTION('',(0.,0.,-1.));
#812=DIRECTION('',(1.,0.,0.));
#813=DIRECTION('',(0.,-1.,0.));
#814=DIRECTION('',(1.,0.,0.));
#815=DIRECTION('',(0.,-1.,0.));
#816=DIRECTION('',(1.,0.,0.));
#817=DIRECTION('',(-0.738608588311769,-0.674134521643934,0.));
#818=DIRECTION('',(-1.,-2.07006289422133E-16,0.));
#819=DIRECTION('',(0.,0.,-1.));
#820=DIRECTION('',(-1.,0.,0.));
#821=DIRECTION('',(0.,0.,-1.));
#822=DIRECTION('',(-1.,0.,0.));
#823=DIRECTION('',(0.,0.,1.));
#824=DIRECTION('',(1.,0.,0.));
#825=DIRECTION('',(1.,0.,0.));
#826=DIRECTION('',(-0.297736755798213,0.954648010654585,0.));
#827=DIRECTION('',(-1.,-1.69626363707674E-16,0.));
#828=DIRECTION('',(0.,-1.,0.));
#829=DIRECTION('',(0.,-1.,0.));
#830=DIRECTION('',(0.,0.,-1.));
#831=DIRECTION('',(0.,1.,0.));
#832=DIRECTION('',(0.,0.,1.));
#833=DIRECTION('',(0.,1.,0.));
#834=DIRECTION('',(0.,0.,1.));
#835=DIRECTION('',(0.,-1.,0.));
#836=DIRECTION('',(0.,0.,-1.));
#837=DIRECTION('',(0.,1.,0.));
#838=DIRECTION('',(0.,0.,1.));
#839=DIRECTION('',(0.,-1.,0.));
#840=DIRECTION('',(1.69626363707674E-16,-1.,0.));
#841=DIRECTION('',(1.,1.69626363707674E-16,0.));
#842=DIRECTION('',(0.,-1.,0.));
#843=DIRECTION('',(0.,1.,0.));
#844=DIRECTION('',(0.,0.,1.));
#845=DIRECTION('',(0.,1.,0.));
#846=DIRECTION('',(-1.,0.,0.));
#847=DIRECTION('',(-0.707106841667045,0.,-0.707106720706045));
#848=DIRECTION('',(-1.,0.,0.));
#849=DIRECTION('',(0.,0.,1.));
#850=DIRECTION('',(0.,0.,-1.));
#851=DIRECTION('',(0.,0.,-1.));
#852=DIRECTION('',(0.,1.,0.));
#853=DIRECTION('',(-1.,0.,0.));
#854=DIRECTION('',(1.69626363707674E-16,-1.,0.));
#855=DIRECTION('',(1.,1.69626363707674E-16,0.));
#856=DIRECTION('',(0.,0.,-1.));
#857=DIRECTION('',(0.,0.,-1.));
#858=DIRECTION('',(-1.,-1.69626363707674E-16,0.));
#859=DIRECTION('',(0.,0.,-1.));
#860=DIRECTION('',(0.,-1.,0.));
#861=DIRECTION('',(0.,0.,-1.));
#862=DIRECTION('',(0.,1.,0.));
#863=DIRECTION('',(0.,0.,1.));
#864=DIRECTION('',(0.,1.,0.));
#865=DIRECTION('',(0.,0.,1.));
#866=DIRECTION('',(0.,-1.,0.));
#867=DIRECTION('',(0.,0.,-1.));
#868=DIRECTION('',(0.,1.,0.));
#869=DIRECTION('',(0.,0.,1.));
#870=DIRECTION('',(0.,-1.,0.));
#871=DIRECTION('',(0.,1.,0.));
#872=DIRECTION('',(0.,0.,1.));
#873=DIRECTION('',(0.,-1.,0.));
#874=DIRECTION('',(0.,1.,0.));
#875=DIRECTION('',(0.,0.,1.));
#876=DIRECTION('',(0.,1.,0.));
#877=DIRECTION('',(-1.,0.,0.));
#878=DIRECTION('',(0.,0.,-1.));
#879=DIRECTION('',(0.,0.,-1.));
#880=DIRECTION('',(1.,0.,0.));
#881=DIRECTION('',(0.,0.,-1.));
#882=DIRECTION('',(-1.,0.,0.));
#883=DIRECTION('',(-0.707106796992047,0.,0.707106765381047));
#884=DIRECTION('',(0.,1.,0.));
#885=DIRECTION('',(-1.,0.,0.));
#886=DIRECTION('',(0.,0.,-1.));
#887=DIRECTION('',(-1.,0.,0.));
#888=DIRECTION('',(0.,0.,-1.));
#889=DIRECTION('',(0.,0.,-1.));
#890=DIRECTION('',(0.,0.,-1.));
#891=DIRECTION('',(1.,0.,0.));
#892=DIRECTION('',(0.674134521643934,-0.738608588311769,0.));
#893=DIRECTION('',(0.738608588311769,0.674134521643934,0.));
#894=DIRECTION('',(0.,0.,-1.));
#895=DIRECTION('',(0.738608588311769,0.674134521643934,0.));
#896=DIRECTION('',(-0.738608588311769,-0.674134521643934,0.));
#897=DIRECTION('',(0.,0.,-1.));
#898=DIRECTION('',(-0.738608588311769,-0.674134521643934,0.));
#899=DIRECTION('',(0.,0.,-1.));
#900=DIRECTION('',(0.,0.,-1.));
#901=DIRECTION('',(-1.,0.,0.));
#902=DIRECTION('',(0.,0.,-1.));
#903=DIRECTION('',(0.,0.,-1.));
#904=DIRECTION('',(1.,0.,0.));
#905=DIRECTION('',(0.,0.,-1.));
#906=DIRECTION('',(0.,0.,1.));
#907=DIRECTION('',(1.,0.,0.));
#908=DIRECTION('',(0.,-1.,0.));
#909=DIRECTION('',(0.,0.,-1.));
#910=DIRECTION('',(-1.,0.,0.));
#911=DIRECTION('',(0.,0.,-1.));
#912=DIRECTION('',(1.,0.,0.));
#913=DIRECTION('',(0.,0.,-1.));
#914=DIRECTION('',(0.,0.,-1.));
#915=DIRECTION('',(0.,0.,-1.));
#916=DIRECTION('',(-1.,0.,0.));
#917=DIRECTION('',(0.,0.,1.));
#918=DIRECTION('',(1.,0.,0.));
#919=DIRECTION('',(0.,0.,-1.));
#920=DIRECTION('',(0.,0.,-1.));
#921=DIRECTION('',(-1.,0.,0.));
#922=DIRECTION('',(0.,0.,-1.));
#923=DIRECTION('',(1.,0.,0.));
#924=DIRECTION('',(0.,0.,-1.));
#925=DIRECTION('',(0.674134521643933,-0.73860858831177,0.));
#926=DIRECTION('',(0.73860858831177,0.674134521643933,0.));
#927=DIRECTION('',(-0.73860858831177,-0.674134521643933,0.));
#928=DIRECTION('',(2.07006289422133E-16,-1.,0.));
#929=DIRECTION('',(1.,2.07006289422133E-16,0.));
#930=DIRECTION('',(-1.,-2.07006289422133E-16,0.));
#931=DIRECTION('',(0.,0.,-1.));
#932=DIRECTION('',(-0.954648010654584,-0.297736755798212,0.));
#933=DIRECTION('',(0.297736755798213,-0.954648010654585,0.));
#934=DIRECTION('',(0.297736755798213,-0.954648010654585,0.));
#935=DIRECTION('',(0.,0.,-1.));
#936=DIRECTION('',(-0.297736755798213,0.954648010654585,0.));
#937=DIRECTION('',(0.,-1.,0.));
#938=DIRECTION('',(0.,0.,-1.));
#939=DIRECTION('',(-1.,0.,0.));
#940=DIRECTION('',(0.,0.,-1.));
#941=DIRECTION('',(0.954648010654585,-0.297736755798213,0.));
#942=DIRECTION('',(0.297736755798213,0.954648010654585,0.));
#943=DIRECTION('',(-0.297736755798213,-0.954648010654584,0.));
#944=DIRECTION('',(0.,0.,1.));
#945=DIRECTION('',(1.,0.,0.));
#946=DIRECTION('',(0.,-1.,0.));
#947=DIRECTION('',(-1.,0.,0.));
#948=DIRECTION('',(0.,-1.,0.));
#949=DIRECTION('',(0.,-1.,0.));
#950=DIRECTION('',(0.,0.,-1.));
#951=DIRECTION('',(-1.,0.,0.));
#952=DIRECTION('',(0.,0.,-1.));
#953=DIRECTION('',(-1.,0.,0.));
#954=DIRECTION('',(-1.,0.,0.));
#955=DIRECTION('',(0.,0.,1.));
#956=DIRECTION('',(-1.,0.,0.));
#957=DIRECTION('',(0.,0.,1.));
#958=DIRECTION('',(0.,1.,0.));
#959=DIRECTION('',(-1.,0.,0.));
#960=DIRECTION('',(0.,0.,-1.));
#961=DIRECTION('',(0.,0.,-1.));
#962=DIRECTION('',(-1.,0.,0.));
#963=DIRECTION('',(0.,0.,1.));
#964=DIRECTION('',(-1.,0.,0.));
#965=DIRECTION('',(0.,0.,1.));
#966=DIRECTION('',(0.,0.,-1.));
#967=DIRECTION('',(-1.,0.,0.));
#968=DIRECTION('',(0.,-1.,0.));
#969=DIRECTION('',(1.,0.,0.));
#970=DIRECTION('',(0.707106720706045,0.,-0.707106841667045));
#971=DIRECTION('',(-0.707106841667045,0.,-0.707106720706045));
#972=DIRECTION('',(-0.707106841667045,0.,-0.707106720706045));
#973=DIRECTION('',(0.,0.,-1.));
#974=DIRECTION('',(-1.,0.,0.));
#975=DIRECTION('',(1.,0.,0.));
#976=DIRECTION('',(0.,-1.,0.));
#977=DIRECTION('',(-0.707106765381047,0.,-0.707106796992047));
#978=DIRECTION('',(-0.707106796992047,0.,0.707106765381047));
#979=DIRECTION('',(-0.707106796992047,0.,0.707106765381047));
#980=DIRECTION('',(0.,-1.,0.));
#981=DIRECTION('',(1.,0.,0.));
#982=DIRECTION('',(0.,-1.,0.));
#983=DIRECTION('',(1.,0.,0.));
#984=DIRECTION('',(0.,0.,-1.));
#985=DIRECTION('',(-1.,0.,0.));
#986=DIRECTION('',(0.,0.,-1.));
#987=DIRECTION('',(-1.,0.,0.));
#988=CARTESIAN_POINT('',(0.,0.,0.));
#989=CARTESIAN_POINT('',(0.000433334397301962,0.00411447848780487,0.01395));
#990=CARTESIAN_POINT('',(0.000816671423440723,0.00926853377039727,0.01395));
#991=CARTESIAN_POINT('',(0.000211713165693327,0.0112082412,0.01395));
#992=CARTESIAN_POINT('',(-0.000861706658069051,0.01465,0.01395));
#993=CARTESIAN_POINT('',(-0.0209873301735021,0.0112082412,0.01395));
#994=CARTESIAN_POINT('',(0.01279967044906,0.0112082412,0.01395));
#995=CARTESIAN_POINT('',(0.0127996704490601,0.00411447848780487,0.01395));
#996=CARTESIAN_POINT('',(0.0127996704490601,0.00965,0.01395));
#997=CARTESIAN_POINT('',(-0.00498333120539609,0.00965,0.01395));
#998=CARTESIAN_POINT('',(0.0135166687946039,0.00965,0.01395));
#999=CARTESIAN_POINT('',(0.0135166687946039,0.00411447848780487,0.01395));
#1000=CARTESIAN_POINT('',(0.0135166687946039,0.00800424868893545,0.01395));
#1001=CARTESIAN_POINT('',(0.0105166687946039,0.01065,0.01395));
#1002=CARTESIAN_POINT('',(0.0105166687946039,0.01465,0.01395));
#1003=CARTESIAN_POINT('',(0.0101417999880585,0.01465,0.01395));
#1004=CARTESIAN_POINT('',(0.00924175868846563,0.01465,0.01395));
#1005=CARTESIAN_POINT('',(0.00960731816183622,0.0158221113273152,0.01395));
#1006=CARTESIAN_POINT('',(0.0113185920426178,0.0213090529768073,0.01395));
#1007=CARTESIAN_POINT('',(0.0075,0.0225,0.01395));
#1008=CARTESIAN_POINT('',(0.00531488729211512,0.025850415265879,0.01395));
#1009=CARTESIAN_POINT('',(5.32126426255886E-16,0.0339996880496907,0.01395));
#1010=CARTESIAN_POINT('',(-0.00531488729211458,0.0258504152658794,0.01395));
#1011=CARTESIAN_POINT('',(-0.0075,0.0225,0.01395));
#1012=CARTESIAN_POINT('',(-0.0101965380865757,0.025454434353247,0.01395));
#1013=CARTESIAN_POINT('',(-0.0166882036892738,0.0195294343532471,0.01395));
#1014=CARTESIAN_POINT('',(-0.0231798692919719,0.0136044343532471,0.01395));
#1015=CARTESIAN_POINT('',(-0.0204833312053961,0.01065,0.01395));
#1016=CARTESIAN_POINT('',(-0.0234833312053961,0.00800424868893546,0.01395));
#1017=CARTESIAN_POINT('',(-0.0234833312053961,0.00411447848780487,0.01395));
#1018=CARTESIAN_POINT('',(-0.0234833312053961,0.00965,0.01395));
#1019=CARTESIAN_POINT('',(-0.00498333120539609,0.00965,0.01395));
#1020=CARTESIAN_POINT('',(-0.0227743315680395,0.00965,0.01395));
#1021=CARTESIAN_POINT('',(-0.0227743315680395,0.00411447848780487,0.01395));
#1022=CARTESIAN_POINT('',(-0.0227743315680395,0.0112082412,0.01395));
#1023=CARTESIAN_POINT('',(-0.0209873301735021,0.0112082412,0.01395));
#1024=CARTESIAN_POINT('',(-0.0139381661040604,0.0112082412,0.01395));
#1025=CARTESIAN_POINT('',(-0.0171133507674756,0.00831022237368903,0.01395));
#1026=CARTESIAN_POINT('',(-0.0101672383041037,0.01465,0.01395));
#1027=CARTESIAN_POINT('',(-0.00505173267326734,0.01465,0.01395));
#1028=CARTESIAN_POINT('',(0.0075,0.0225,0.01395));
#1029=CARTESIAN_POINT('',(0.00585,0.0225,0.01395));
#1030=CARTESIAN_POINT('',(-0.0075,0.0225,0.01395));
#1031=CARTESIAN_POINT('',(-0.00915,0.0225,0.01395));
#1032=CARTESIAN_POINT('',(0.000433334397301962,0.00411447848780487,0.01395));
#1033=CARTESIAN_POINT('',(0.000433334397301962,0.00965,0.01395));
#1034=CARTESIAN_POINT('',(0.00069769928252501,0.00965,0.01395));
#1035=CARTESIAN_POINT('',(0.00751666879460392,0.00965,0.01395));
#1036=CARTESIAN_POINT('',(0.000816671423440723,0.00926853377039727,0.01395));
#1037=CARTESIAN_POINT('',(0.00163334284688145,0.00665,0.01395));
#1038=CARTESIAN_POINT('',(0.00419002601519829,0.00665,0.01395));
#1039=CARTESIAN_POINT('',(0.00751666879460392,0.00665,0.01395));
#1040=CARTESIAN_POINT('',(0.00751666879460392,0.00411447848780487,0.01395));
#1041=CARTESIAN_POINT('',(0.0105166687946039,0.00965,0.0166));
#1042=CARTESIAN_POINT('',(0.0105166687946039,0.00965,0.0166));
#1043=CARTESIAN_POINT('',(0.0105166687946039,0.00965,0.01825));
#1044=CARTESIAN_POINT('',(0.0105166687946039,0.00465,0.0166));
#1045=CARTESIAN_POINT('',(0.0105166687946039,0.00465,0.01825));
#1046=CARTESIAN_POINT('',(0.0105166687946039,0.00965,0.0166));
#1047=CARTESIAN_POINT('',(0.0105166687946039,0.00965,0.0166));
#1048=CARTESIAN_POINT('',(0.00751666879460392,0.00965,0.0166));
#1049=CARTESIAN_POINT('',(0.0135166687946039,0.00965,0.0166));
#1050=CARTESIAN_POINT('',(0.00751666879460392,0.00965,0.0166));
#1051=CARTESIAN_POINT('',(0.00751666879460392,0.00665,0.0166));
#1052=CARTESIAN_POINT('',(0.0105166687946039,0.00665,0.0166));
#1053=CARTESIAN_POINT('',(0.0135166687946039,0.00665,0.0166));
#1054=CARTESIAN_POINT('',(0.0135166687946039,0.00965,0.0166));
#1055=CARTESIAN_POINT('',(0.0105166687946039,0.00465,0.0166));
#1056=CARTESIAN_POINT('',(0.0105166687946039,0.00465,0.0196));
#1057=CARTESIAN_POINT('',(-0.00498333120539609,0.00965,0.0526));
#1058=CARTESIAN_POINT('',(0.0150126688650739,0.00965,0.016162998037448));
#1059=CARTESIAN_POINT('',(0.0110126701245212,0.00965,0.01216299868535));
#1060=CARTESIAN_POINT('',(0.0110126701245209,0.00965,0.01216299868535));
#1061=CARTESIAN_POINT('',(0.000697699282525011,0.00965,0.01216299868535));
#1062=CARTESIAN_POINT('',(0.00069769928252501,0.00965,0.01395));
#1063=CARTESIAN_POINT('',(0.00751666879460392,0.00965,0.013775));
#1064=CARTESIAN_POINT('',(0.0135166687946039,0.00965,0.013775));
#1065=CARTESIAN_POINT('',(-0.00498333120539609,0.00465,0.0526));
#1066=CARTESIAN_POINT('',(0.00419002601519829,0.00665,0.01395));
#1067=CARTESIAN_POINT('',(0.00751666879460392,0.00665,0.013775));
#1068=CARTESIAN_POINT('',(0.00163334284688145,0.00665,0.01395));
#1069=CARTESIAN_POINT('',(0.00163334284688145,0.00665,0.01095));
#1070=CARTESIAN_POINT('',(0.00419002601519829,0.00665,0.01095));
#1071=CARTESIAN_POINT('',(0.0135166687946039,0.00665,0.01095));
#1072=CARTESIAN_POINT('',(0.0135166687946039,0.00665,0.013775));
#1073=CARTESIAN_POINT('',(-0.0204833312053961,0.00965,0.0166));
#1074=CARTESIAN_POINT('',(-0.0204833312053961,0.00965,0.0166));
#1075=CARTESIAN_POINT('',(-0.0204833312053961,0.00965,0.01825));
#1076=CARTESIAN_POINT('',(-0.0204833312053961,0.00465,0.0166));
#1077=CARTESIAN_POINT('',(-0.0204833312053961,0.00465,0.01825));
#1078=CARTESIAN_POINT('',(-0.0204833312053961,0.00965,0.0166));
#1079=CARTESIAN_POINT('',(-0.0204833312053961,0.00965,0.0166));
#1080=CARTESIAN_POINT('',(-0.0234833312053961,0.00965,0.0166));
#1081=CARTESIAN_POINT('',(-0.0174833312053961,0.00965,0.0166));
#1082=CARTESIAN_POINT('',(-0.0234833312053961,0.00965,0.0166));
#1083=CARTESIAN_POINT('',(-0.0234833312053961,0.00665,0.0166));
#1084=CARTESIAN_POINT('',(-0.0204833312053961,0.00665,0.0166));
#1085=CARTESIAN_POINT('',(-0.0174833312053961,0.00665,0.0166));
#1086=CARTESIAN_POINT('',(-0.0174833312053961,0.00965,0.0166));
#1087=CARTESIAN_POINT('',(-0.0204833312053961,0.00465,0.0166));
#1088=CARTESIAN_POINT('',(-0.0204833312053961,0.00465,0.0196));
#1089=CARTESIAN_POINT('',(-0.00498333120539609,0.00965,0.0526));
#1090=CARTESIAN_POINT('',(-0.0234833312053961,0.00965,0.013775));
#1091=CARTESIAN_POINT('',(-0.0174833312053961,0.00965,0.013775));
#1092=CARTESIAN_POINT('',(-0.0174833312053961,0.00965,0.01395));
#1093=CARTESIAN_POINT('',(0.000433334397301962,0.00965,0.01395));
#1094=CARTESIAN_POINT('',(-0.015645437124946,0.00965,0.01395));
#1095=CARTESIAN_POINT('',(-0.015645437124946,0.00965,0.01395));
#1096=CARTESIAN_POINT('',(-0.015645437124946,0.00965,0.01216299868535));
#1097=CARTESIAN_POINT('',(0.0110126701245209,0.00965,0.01216299868535));
#1098=CARTESIAN_POINT('',(-0.0209873301735021,0.00965,0.01216299868535));
#1099=CARTESIAN_POINT('',(-0.0209873301735021,0.00965,0.01216299868535));
#1100=CARTESIAN_POINT('',(-0.00498333120539609,0.00465,0.0526));
#1101=CARTESIAN_POINT('',(-0.0204833312053961,0.01065,0.01395));
#1102=CARTESIAN_POINT('',(-0.0234833312053961,0.00800424868893546,0.01395));
#1103=CARTESIAN_POINT('',(-0.0234833312053961,0.00800424868893546,0.01095));
#1104=CARTESIAN_POINT('',(-0.0231798692919719,0.0136044343532471,0.01395));
#1105=CARTESIAN_POINT('',(-0.0231798692919719,0.0136044343532471,0.01095));
#1106=CARTESIAN_POINT('',(-0.0204833312053961,0.01065,0.01095));
#1107=CARTESIAN_POINT('',(-0.0171133507674756,0.00831022237368903,0.01395));
#1108=CARTESIAN_POINT('',(-0.0139381661040604,0.0112082412,0.01395));
#1109=CARTESIAN_POINT('',(-0.0139381661040604,0.0112082412,0.01216299868535));
#1110=CARTESIAN_POINT('',(-0.0171133507674756,0.00831022237368903,0.01216299868535));
#1111=CARTESIAN_POINT('',(-0.0171133507674756,0.00831022237368903,0.01395));
#1112=CARTESIAN_POINT('',(-0.0174833312053961,0.00797253799053656,0.01395));
#1113=CARTESIAN_POINT('',(-0.0174833312053961,0.00797253799053656,0.01395));
#1114=CARTESIAN_POINT('',(-0.0174833312053961,0.00797253799053656,0.01095));
#1115=CARTESIAN_POINT('',(-0.0171133507674756,0.00831022237368903,0.01095));
#1116=CARTESIAN_POINT('',(-0.0101672383041037,0.01465,0.01095));
#1117=CARTESIAN_POINT('',(-0.0101672383041037,0.01465,0.01395));
#1118=CARTESIAN_POINT('',(0.0105166687946039,0.01065,0.01395));
#1119=CARTESIAN_POINT('',(0.0135166687946039,0.00800424868893545,0.01395));
#1120=CARTESIAN_POINT('',(0.0135166687946039,0.00800424868893545,0.01095));
#1121=CARTESIAN_POINT('',(0.0105166687946039,0.01065,0.01095));
#1122=CARTESIAN_POINT('',(0.0105166687946039,0.01465,0.01095));
#1123=CARTESIAN_POINT('',(0.0105166687946039,0.01465,0.01395));
#1124=CARTESIAN_POINT('',(0.000433334397301962,0.00411447848780487,0.01395));
#1125=CARTESIAN_POINT('',(-0.0174833312053961,0.00411447848780487,0.01395));
#1126=CARTESIAN_POINT('',(0.0075,0.0225,0.01395));
#1127=CARTESIAN_POINT('',(0.0075,0.0225,0.01095));
#1128=CARTESIAN_POINT('',(0.00531488729211512,0.025850415265879,0.01095));
#1129=CARTESIAN_POINT('',(0.0113185920426178,0.0213090529768073,0.01095));
#1130=CARTESIAN_POINT('',(0.00531488729211512,0.025850415265879,0.01395));
#1131=CARTESIAN_POINT('',(0.0113185920426178,0.0213090529768073,0.01395));
#1132=CARTESIAN_POINT('',(5.32126426255886E-16,0.0339996880496907,0.01395));
#1133=CARTESIAN_POINT('',(5.32126426255886E-16,0.0339996880496907,0.01095));
#1134=CARTESIAN_POINT('',(-0.00531488729211458,0.0258504152658794,0.01095));
#1135=CARTESIAN_POINT('',(-0.00531488729211458,0.0258504152658794,0.01395));
#1136=CARTESIAN_POINT('',(-0.0075,0.0225,0.01395));
#1137=CARTESIAN_POINT('',(-0.0075,0.0225,0.01095));
#1138=CARTESIAN_POINT('',(-0.0101965380865757,0.025454434353247,0.01095));
#1139=CARTESIAN_POINT('',(-0.0101965380865757,0.025454434353247,0.01395));
#1140=CARTESIAN_POINT('',(-0.0166882036892738,0.0195294343532471,0.01395));
#1141=CARTESIAN_POINT('',(-0.0166882036892738,0.0195294343532471,0.01095));
#1142=CARTESIAN_POINT('',(-0.00505173267326734,0.01465,0.01395));
#1143=CARTESIAN_POINT('',(-0.00505173267326734,0.01465,0.01095));
#1144=CARTESIAN_POINT('',(-0.000861706658069051,0.01465,0.01095));
#1145=CARTESIAN_POINT('',(-0.000861706658069051,0.01465,0.01395));
#1146=CARTESIAN_POINT('',(0.000816671423440723,0.00926853377039727,0.01395));
#1147=CARTESIAN_POINT('',(0.000816671423440723,0.00926853377039727,0.01216299868535));
#1148=CARTESIAN_POINT('',(0.000211713165693327,0.0112082412,0.01216299868535));
#1149=CARTESIAN_POINT('',(0.000211713165693327,0.0112082412,0.01395));
#1150=CARTESIAN_POINT('',(0.000816671423440723,0.00926853377039727,0.01095));
#1151=CARTESIAN_POINT('',(0.0101417999880585,0.01465,0.01395));
#1152=CARTESIAN_POINT('',(0.0101417999880585,0.01465,0.01095));
#1153=CARTESIAN_POINT('',(0.00924175868846563,0.01465,0.01095));
#1154=CARTESIAN_POINT('',(0.00924175868846563,0.01465,0.01395));
#1155=CARTESIAN_POINT('',(0.00960731816183622,0.0158221113273152,0.01395));
#1156=CARTESIAN_POINT('',(0.00960731816183622,0.0158221113273152,0.01095));
#1157=CARTESIAN_POINT('',(0.000433334397301962,0.00411447848780487,0.01095));
#1158=CARTESIAN_POINT('',(-0.0174833312053961,0.00965,0.01095));
#1159=CARTESIAN_POINT('',(-0.0174833312053961,0.00665,0.01095));
#1160=CARTESIAN_POINT('',(-0.00498333120539609,0.00665,0.01095));
#1161=CARTESIAN_POINT('',(-0.0234833312053961,0.00665,0.01095));
#1162=CARTESIAN_POINT('',(-0.0234833312053961,0.00965,0.01095));
#1163=CARTESIAN_POINT('',(0.0135166687946039,0.00965,0.01095));
#1164=CARTESIAN_POINT('',(-0.0075,0.0225,0.01095));
#1165=CARTESIAN_POINT('',(-0.00915,0.0225,0.01095));
#1166=CARTESIAN_POINT('',(0.0075,0.0225,0.01095));
#1167=CARTESIAN_POINT('',(0.00585,0.0225,0.01095));
#1168=CARTESIAN_POINT('',(0.00751666879460392,0.00965,0.013775));
#1169=CARTESIAN_POINT('',(0.0135166687946039,0.00965,0.013775));
#1170=CARTESIAN_POINT('',(-0.00498333120539609,0.00665,0.0526));
#1171=CARTESIAN_POINT('',(-0.0234833312053961,0.00665,0.013775));
#1172=CARTESIAN_POINT('',(-0.0174833312053961,0.00665,0.013775));
#1173=CARTESIAN_POINT('',(-0.0174833312053961,0.00965,0.013775));
#1174=CARTESIAN_POINT('',(-0.0234833312053961,0.00965,0.013775));
#1175=CARTESIAN_POINT('',(0.0110126701245209,0.0102082412,0.01216299868535));
#1176=CARTESIAN_POINT('',(0.0110126688287172,0.0102082412,0.01216299868535));
#1177=CARTESIAN_POINT('',(0.0110126701245212,0.0112082412,0.01216299868535));
#1178=CARTESIAN_POINT('',(-0.0209873301735021,0.0112082412,0.01216299868535));
#1179=CARTESIAN_POINT('',(0.0150126688650739,0.0102082412,0.016162998037448));
#1180=CARTESIAN_POINT('',(-0.00498733340942734,0.0112082412,-0.00383700081575941));
#1181=CARTESIAN_POINT('',(0.0110126701245209,0.0102082412,0.01216299868535));
#1182=CARTESIAN_POINT('',(-0.0209873301735021,0.0112082412,0.01216299868535));
#1183=CARTESIAN_POINT('',(-0.0209873301735021,0.0112082412,0.01216299868535));
#1184=CARTESIAN_POINT('',(-0.0209873301735021,0.0102082412,0.01216299868535));
#1185=CARTESIAN_POINT('',(-0.0209873301735021,0.0102082412,0.01216299868535));
#1186=CARTESIAN_POINT('',(-0.0209873301735021,0.0112082412,0.01216299868535));
#1187=CARTESIAN_POINT('',(-0.0209873301735021,0.0112082412,0.01216299868535));
#1188=CARTESIAN_POINT('',(-0.0209873301735021,0.0112082412,0.01216299868535));
#1189=CARTESIAN_POINT('',(-0.0075,0.0225,0.01395));
#1190=CARTESIAN_POINT('',(0.0075,0.0225,0.01395));
#1191=MECHANICAL_DESIGN_GEOMETRIC_PRESENTATION_REPRESENTATION('',(#718),
#1192);
#1192=(
GEOMETRIC_REPRESENTATION_CONTEXT(3)
GLOBAL_UNCERTAINTY_ASSIGNED_CONTEXT((#1193))
GLOBAL_UNIT_ASSIGNED_CONTEXT((#1196,#1195,#1194))
REPRESENTATION_CONTEXT('Part 32','TOP_LEVEL_ASSEMBLY_PART')
);
#1193=UNCERTAINTY_MEASURE_WITH_UNIT(LENGTH_MEASURE(1.E-6),#1196,
'DISTANCE_ACCURACY_VALUE','Maximum Tolerance applied to model');
#1194=(
NAMED_UNIT(*)
SI_UNIT($,.STERADIAN.)
SOLID_ANGLE_UNIT()
);
#1195=(
NAMED_UNIT(*)
PLANE_ANGLE_UNIT()
SI_UNIT($,.RADIAN.)
);
#1196=(
LENGTH_UNIT()
NAMED_UNIT(*)
SI_UNIT($,.METRE.)
);
#1197=PRODUCT_DEFINITION_SHAPE('','',#1198);
#1198=PRODUCT_DEFINITION('','',#1200,#1199);
#1199=PRODUCT_DEFINITION_CONTEXT('',#1206,'design');
#1200=PRODUCT_DEFINITION_FORMATION_WITH_SPECIFIED_SOURCE('','',#1202,
 .NOT_KNOWN.);
#1201=PRODUCT_RELATED_PRODUCT_CATEGORY('','',(#1202));
#1202=PRODUCT('Part 32','Part 32','Part 32',(#1204));
#1203=PRODUCT_CATEGORY('','');
#1204=PRODUCT_CONTEXT('',#1206,'mechanical');
#1205=APPLICATION_PROTOCOL_DEFINITION('international standard',
'ap242_managed_model_based_3d_engineering',2020,#1206);
#1206=APPLICATION_CONTEXT('managed model based 3d engineering');
ENDSEC;
END-ISO-10303-21;
