ISO-10303-21;
HEADER;
/* Generated by software containing ST-Developer
 * from STEP Tools, Inc. (www.steptools.com) 
 */
/* OPTION: using custom renumber hook */

FILE_DESCRIPTION(
/* description */ ('STEP AP242 Edition 2',
'CAx-IF Rec.Pracs.---Representation and Presentation of Product Manufa
cturing Information (PMI)---4.0---2014-10-13',
'CAx-IF Rec.Pracs.---3D Tessellated Geometry---0.4---2014-09-14','2;1',
'CAx-IF Rec.Pracs.---User Defined Attributes---1.5---2016-08-15'),
/* implementation_level */ '2;1');

FILE_NAME(
/* name */ 'pied',
/* time_stamp */ '2026-08-22T15:33:33Z',
/* author */ (''),
/* organization */ (''),
/* preprocessor_version */ 'ST-DEVELOPER v20',
/* originating_system */ 'ONSHAPE BY PTC INC, 1.219',
/* authorisation */ '  ');

FILE_SCHEMA (('AP242_MANAGED_MODEL_BASED_3D_ENGINEERING_MIM_LF { 1 0 10303 442 3 1 4 }'));
ENDSEC;

DATA;
#10=SHAPE_REPRESENTATION_RELATIONSHIP('','',#485,#11);
#11=ADVANCED_BREP_SHAPE_REPRESENTATION('',(#483),#770);
#12=CYLINDRICAL_SURFACE('',#511,0.00265);
#13=CYLINDRICAL_SURFACE('',#512,0.00265);
#14=CIRCLE('',#490,0.00265);
#15=CIRCLE('',#492,0.00265);
#16=CIRCLE('',#493,0.00265);
#17=CIRCLE('',#505,0.00265);
#18=ORIENTED_EDGE('',*,*,#140,.F.);
#19=ORIENTED_EDGE('',*,*,#141,.T.);
#20=ORIENTED_EDGE('',*,*,#142,.F.);
#21=ORIENTED_EDGE('',*,*,#143,.F.);
#22=ORIENTED_EDGE('',*,*,#144,.F.);
#23=ORIENTED_EDGE('',*,*,#145,.T.);
#24=ORIENTED_EDGE('',*,*,#146,.T.);
#25=ORIENTED_EDGE('',*,*,#147,.F.);
#26=ORIENTED_EDGE('',*,*,#148,.T.);
#27=ORIENTED_EDGE('',*,*,#149,.F.);
#28=ORIENTED_EDGE('',*,*,#144,.T.);
#29=ORIENTED_EDGE('',*,*,#150,.T.);
#30=ORIENTED_EDGE('',*,*,#151,.F.);
#31=ORIENTED_EDGE('',*,*,#152,.T.);
#32=ORIENTED_EDGE('',*,*,#153,.T.);
#33=ORIENTED_EDGE('',*,*,#154,.F.);
#34=ORIENTED_EDGE('',*,*,#155,.T.);
#35=ORIENTED_EDGE('',*,*,#156,.T.);
#36=ORIENTED_EDGE('',*,*,#157,.T.);
#37=ORIENTED_EDGE('',*,*,#158,.T.);
#38=ORIENTED_EDGE('',*,*,#159,.F.);
#39=ORIENTED_EDGE('',*,*,#160,.T.);
#40=ORIENTED_EDGE('',*,*,#161,.T.);
#41=ORIENTED_EDGE('',*,*,#162,.T.);
#42=ORIENTED_EDGE('',*,*,#163,.T.);
#43=ORIENTED_EDGE('',*,*,#164,.T.);
#44=ORIENTED_EDGE('',*,*,#154,.T.);
#45=ORIENTED_EDGE('',*,*,#165,.T.);
#46=ORIENTED_EDGE('',*,*,#166,.F.);
#47=ORIENTED_EDGE('',*,*,#167,.T.);
#48=ORIENTED_EDGE('',*,*,#168,.T.);
#49=ORIENTED_EDGE('',*,*,#169,.T.);
#50=ORIENTED_EDGE('',*,*,#142,.T.);
#51=ORIENTED_EDGE('',*,*,#170,.F.);
#52=ORIENTED_EDGE('',*,*,#171,.F.);
#53=ORIENTED_EDGE('',*,*,#146,.F.);
#54=ORIENTED_EDGE('',*,*,#158,.F.);
#55=ORIENTED_EDGE('',*,*,#172,.T.);
#56=ORIENTED_EDGE('',*,*,#173,.T.);
#57=ORIENTED_EDGE('',*,*,#151,.T.);
#58=ORIENTED_EDGE('',*,*,#174,.T.);
#59=ORIENTED_EDGE('',*,*,#175,.F.);
#60=ORIENTED_EDGE('',*,*,#156,.F.);
#61=ORIENTED_EDGE('',*,*,#176,.T.);
#62=ORIENTED_EDGE('',*,*,#177,.T.);
#63=ORIENTED_EDGE('',*,*,#178,.T.);
#64=ORIENTED_EDGE('',*,*,#179,.F.);
#65=ORIENTED_EDGE('',*,*,#180,.T.);
#66=ORIENTED_EDGE('',*,*,#159,.T.);
#67=ORIENTED_EDGE('',*,*,#175,.T.);
#68=ORIENTED_EDGE('',*,*,#179,.T.);
#69=ORIENTED_EDGE('',*,*,#174,.F.);
#70=ORIENTED_EDGE('',*,*,#181,.F.);
#71=ORIENTED_EDGE('',*,*,#171,.T.);
#72=ORIENTED_EDGE('',*,*,#150,.F.);
#73=ORIENTED_EDGE('',*,*,#147,.T.);
#74=ORIENTED_EDGE('',*,*,#181,.T.);
#75=ORIENTED_EDGE('',*,*,#173,.F.);
#76=ORIENTED_EDGE('',*,*,#182,.T.);
#77=ORIENTED_EDGE('',*,*,#166,.T.);
#78=ORIENTED_EDGE('',*,*,#183,.T.);
#79=ORIENTED_EDGE('',*,*,#149,.T.);
#80=ORIENTED_EDGE('',*,*,#183,.F.);
#81=ORIENTED_EDGE('',*,*,#145,.F.);
#82=ORIENTED_EDGE('',*,*,#180,.F.);
#83=ORIENTED_EDGE('',*,*,#184,.T.);
#84=ORIENTED_EDGE('',*,*,#185,.F.);
#85=ORIENTED_EDGE('',*,*,#160,.F.);
#86=ORIENTED_EDGE('',*,*,#186,.T.);
#87=ORIENTED_EDGE('',*,*,#187,.F.);
#88=ORIENTED_EDGE('',*,*,#140,.T.);
#89=ORIENTED_EDGE('',*,*,#188,.T.);
#90=ORIENTED_EDGE('',*,*,#189,.F.);
#91=ORIENTED_EDGE('',*,*,#190,.T.);
#92=ORIENTED_EDGE('',*,*,#191,.T.);
#93=ORIENTED_EDGE('',*,*,#161,.F.);
#94=ORIENTED_EDGE('',*,*,#185,.T.);
#95=ORIENTED_EDGE('',*,*,#192,.T.);
#96=ORIENTED_EDGE('',*,*,#189,.T.);
#97=ORIENTED_EDGE('',*,*,#169,.F.);
#98=ORIENTED_EDGE('',*,*,#193,.T.);
#99=ORIENTED_EDGE('',*,*,#190,.F.);
#100=ORIENTED_EDGE('',*,*,#194,.F.);
#101=ORIENTED_EDGE('',*,*,#188,.F.);
#102=ORIENTED_EDGE('',*,*,#143,.T.);
#103=ORIENTED_EDGE('',*,*,#194,.T.);
#104=ORIENTED_EDGE('',*,*,#195,.T.);
#105=ORIENTED_EDGE('',*,*,#192,.F.);
#106=ORIENTED_EDGE('',*,*,#184,.F.);
#107=ORIENTED_EDGE('',*,*,#170,.T.);
#108=ORIENTED_EDGE('',*,*,#187,.T.);
#109=ORIENTED_EDGE('',*,*,#195,.F.);
#110=ORIENTED_EDGE('',*,*,#141,.F.);
#111=ORIENTED_EDGE('',*,*,#153,.F.);
#112=ORIENTED_EDGE('',*,*,#186,.F.);
#113=ORIENTED_EDGE('',*,*,#152,.F.);
#114=ORIENTED_EDGE('',*,*,#148,.F.);
#115=ORIENTED_EDGE('',*,*,#157,.F.);
#116=ORIENTED_EDGE('',*,*,#178,.F.);
#117=ORIENTED_EDGE('',*,*,#196,.F.);
#118=ORIENTED_EDGE('',*,*,#182,.F.);
#119=ORIENTED_EDGE('',*,*,#172,.F.);
#120=ORIENTED_EDGE('',*,*,#191,.F.);
#121=ORIENTED_EDGE('',*,*,#193,.F.);
#122=ORIENTED_EDGE('',*,*,#197,.F.);
#123=ORIENTED_EDGE('',*,*,#165,.F.);
#124=ORIENTED_EDGE('',*,*,#162,.F.);
#125=ORIENTED_EDGE('',*,*,#196,.T.);
#126=ORIENTED_EDGE('',*,*,#177,.F.);
#127=ORIENTED_EDGE('',*,*,#198,.F.);
#128=ORIENTED_EDGE('',*,*,#167,.F.);
#129=ORIENTED_EDGE('',*,*,#197,.T.);
#130=ORIENTED_EDGE('',*,*,#168,.F.);
#131=ORIENTED_EDGE('',*,*,#199,.F.);
#132=ORIENTED_EDGE('',*,*,#163,.F.);
#133=ORIENTED_EDGE('',*,*,#199,.T.);
#134=ORIENTED_EDGE('',*,*,#198,.T.);
#135=ORIENTED_EDGE('',*,*,#200,.F.);
#136=ORIENTED_EDGE('',*,*,#155,.F.);
#137=ORIENTED_EDGE('',*,*,#164,.F.);
#138=ORIENTED_EDGE('',*,*,#200,.T.);
#139=ORIENTED_EDGE('',*,*,#176,.F.);
#140=EDGE_CURVE('',#201,#202,#238,.T.);
#141=EDGE_CURVE('',#201,#203,#239,.T.);
#142=EDGE_CURVE('',#204,#203,#240,.T.);
#143=EDGE_CURVE('',#202,#204,#241,.T.);
#144=EDGE_CURVE('',#205,#206,#242,.T.);
#145=EDGE_CURVE('',#205,#207,#243,.T.);
#146=EDGE_CURVE('',#207,#208,#244,.T.);
#147=EDGE_CURVE('',#206,#208,#245,.T.);
#148=EDGE_CURVE('',#209,#209,#14,.T.);
#149=EDGE_CURVE('',#205,#210,#246,.T.);
#150=EDGE_CURVE('',#206,#211,#247,.T.);
#151=EDGE_CURVE('',#210,#211,#248,.T.);
#152=EDGE_CURVE('',#212,#212,#15,.F.);
#153=EDGE_CURVE('',#213,#213,#16,.F.);
#154=EDGE_CURVE('',#214,#215,#249,.T.);
#155=EDGE_CURVE('',#214,#216,#250,.T.);
#156=EDGE_CURVE('',#216,#217,#251,.T.);
#157=EDGE_CURVE('',#217,#218,#252,.T.);
#158=EDGE_CURVE('',#218,#219,#253,.T.);
#159=EDGE_CURVE('',#220,#219,#254,.T.);
#160=EDGE_CURVE('',#220,#221,#255,.T.);
#161=EDGE_CURVE('',#221,#222,#256,.T.);
#162=EDGE_CURVE('',#222,#215,#257,.F.);
#163=EDGE_CURVE('',#223,#224,#258,.T.);
#164=EDGE_CURVE('',#224,#214,#259,.T.);
#165=EDGE_CURVE('',#215,#223,#260,.T.);
#166=EDGE_CURVE('',#225,#207,#261,.T.);
#167=EDGE_CURVE('',#225,#226,#262,.T.);
#168=EDGE_CURVE('',#226,#227,#263,.T.);
#169=EDGE_CURVE('',#227,#204,#264,.T.);
#170=EDGE_CURVE('',#228,#203,#265,.T.);
#171=EDGE_CURVE('',#208,#228,#266,.T.);
#172=EDGE_CURVE('',#218,#229,#267,.T.);
#173=EDGE_CURVE('',#229,#210,#268,.T.);
#174=EDGE_CURVE('',#211,#230,#269,.T.);
#175=EDGE_CURVE('',#219,#230,#270,.T.);
#176=EDGE_CURVE('',#216,#231,#271,.T.);
#177=EDGE_CURVE('',#231,#232,#272,.T.);
#178=EDGE_CURVE('',#232,#217,#273,.T.);
#179=EDGE_CURVE('',#228,#230,#274,.T.);
#180=EDGE_CURVE('',#228,#220,#275,.T.);
#181=EDGE_CURVE('',#208,#211,#276,.T.);
#182=EDGE_CURVE('',#229,#225,#277,.T.);
#183=EDGE_CURVE('',#207,#210,#278,.T.);
#184=EDGE_CURVE('',#228,#233,#279,.T.);
#185=EDGE_CURVE('',#221,#233,#280,.T.);
#186=EDGE_CURVE('',#234,#234,#17,.T.);
#187=EDGE_CURVE('',#201,#235,#281,.T.);
#188=EDGE_CURVE('',#202,#236,#282,.T.);
#189=EDGE_CURVE('',#235,#236,#283,.T.);
#190=EDGE_CURVE('',#236,#237,#284,.T.);
#191=EDGE_CURVE('',#237,#222,#285,.F.);
#192=EDGE_CURVE('',#233,#235,#286,.T.);
#193=EDGE_CURVE('',#227,#237,#287,.T.);
#194=EDGE_CURVE('',#204,#236,#288,.T.);
#195=EDGE_CURVE('',#203,#235,#289,.T.);
#196=EDGE_CURVE('',#225,#232,#290,.T.);
#197=EDGE_CURVE('',#223,#227,#291,.T.);
#198=EDGE_CURVE('',#226,#231,#292,.T.);
#199=EDGE_CURVE('',#224,#226,#293,.F.);
#200=EDGE_CURVE('',#224,#231,#294,.F.);
#201=VERTEX_POINT('',#645);
#202=VERTEX_POINT('',#646);
#203=VERTEX_POINT('',#648);
#204=VERTEX_POINT('',#650);
#205=VERTEX_POINT('',#654);
#206=VERTEX_POINT('',#655);
#207=VERTEX_POINT('',#657);
#208=VERTEX_POINT('',#659);
#209=VERTEX_POINT('',#663);
#210=VERTEX_POINT('',#665);
#211=VERTEX_POINT('',#667);
#212=VERTEX_POINT('',#671);
#213=VERTEX_POINT('',#673);
#214=VERTEX_POINT('',#675);
#215=VERTEX_POINT('',#676);
#216=VERTEX_POINT('',#678);
#217=VERTEX_POINT('',#680);
#218=VERTEX_POINT('',#682);
#219=VERTEX_POINT('',#684);
#220=VERTEX_POINT('',#686);
#221=VERTEX_POINT('',#688);
#222=VERTEX_POINT('',#690);
#223=VERTEX_POINT('',#694);
#224=VERTEX_POINT('',#695);
#225=VERTEX_POINT('',#700);
#226=VERTEX_POINT('',#702);
#227=VERTEX_POINT('',#704);
#228=VERTEX_POINT('',#707);
#229=VERTEX_POINT('',#711);
#230=VERTEX_POINT('',#714);
#231=VERTEX_POINT('',#718);
#232=VERTEX_POINT('',#720);
#233=VERTEX_POINT('',#734);
#234=VERTEX_POINT('',#738);
#235=VERTEX_POINT('',#740);
#236=VERTEX_POINT('',#742);
#237=VERTEX_POINT('',#746);
#238=LINE('',#644,#295);
#239=LINE('',#647,#296);
#240=LINE('',#649,#297);
#241=LINE('',#651,#298);
#242=LINE('',#653,#299);
#243=LINE('',#656,#300);
#244=LINE('',#658,#301);
#245=LINE('',#660,#302);
#246=LINE('',#664,#303);
#247=LINE('',#666,#304);
#248=LINE('',#668,#305);
#249=LINE('',#674,#306);
#250=LINE('',#677,#307);
#251=LINE('',#679,#308);
#252=LINE('',#681,#309);
#253=LINE('',#683,#310);
#254=LINE('',#685,#311);
#255=LINE('',#687,#312);
#256=LINE('',#689,#313);
#257=LINE('',#691,#314);
#258=LINE('',#693,#315);
#259=LINE('',#696,#316);
#260=LINE('',#697,#317);
#261=LINE('',#699,#318);
#262=LINE('',#701,#319);
#263=LINE('',#703,#320);
#264=LINE('',#705,#321);
#265=LINE('',#706,#322);
#266=LINE('',#708,#323);
#267=LINE('',#710,#324);
#268=LINE('',#712,#325);
#269=LINE('',#713,#326);
#270=LINE('',#715,#327);
#271=LINE('',#717,#328);
#272=LINE('',#719,#329);
#273=LINE('',#721,#330);
#274=LINE('',#723,#331);
#275=LINE('',#724,#332);
#276=LINE('',#726,#333);
#277=LINE('',#729,#334);
#278=LINE('',#730,#335);
#279=LINE('',#733,#336);
#280=LINE('',#735,#337);
#281=LINE('',#739,#338);
#282=LINE('',#741,#339);
#283=LINE('',#743,#340);
#284=LINE('',#745,#341);
#285=LINE('',#747,#342);
#286=LINE('',#748,#343);
#287=LINE('',#750,#344);
#288=LINE('',#751,#345);
#289=LINE('',#754,#346);
#290=LINE('',#759,#347);
#291=LINE('',#761,#348);
#292=LINE('',#763,#349);
#293=LINE('',#765,#350);
#294=LINE('',#767,#351);
#295=VECTOR('',#523,1.);
#296=VECTOR('',#524,1.);
#297=VECTOR('',#525,1.);
#298=VECTOR('',#526,1.);
#299=VECTOR('',#529,1.);
#300=VECTOR('',#530,1.);
#301=VECTOR('',#531,1.);
#302=VECTOR('',#532,1.);
#303=VECTOR('',#537,1.);
#304=VECTOR('',#538,1.);
#305=VECTOR('',#539,1.);
#306=VECTOR('',#546,1.);
#307=VECTOR('',#547,1.);
#308=VECTOR('',#548,1.);
#309=VECTOR('',#549,1.);
#310=VECTOR('',#550,1.);
#311=VECTOR('',#551,1.);
#312=VECTOR('',#552,1.);
#313=VECTOR('',#553,1.);
#314=VECTOR('',#554,1.);
#315=VECTOR('',#557,1.);
#316=VECTOR('',#558,1.);
#317=VECTOR('',#559,1.);
#318=VECTOR('',#562,1.);
#319=VECTOR('',#563,1.);
#320=VECTOR('',#564,1.);
#321=VECTOR('',#565,1.);
#322=VECTOR('',#566,1.);
#323=VECTOR('',#567,1.);
#324=VECTOR('',#570,1.);
#325=VECTOR('',#571,1.);
#326=VECTOR('',#572,1.);
#327=VECTOR('',#573,1.);
#328=VECTOR('',#576,1.);
#329=VECTOR('',#577,1.);
#330=VECTOR('',#578,1.);
#331=VECTOR('',#581,1.);
#332=VECTOR('',#582,1.);
#333=VECTOR('',#585,1.);
#334=VECTOR('',#590,1.);
#335=VECTOR('',#591,1.);
#336=VECTOR('',#596,1.);
#337=VECTOR('',#597,1.);
#338=VECTOR('',#602,1.);
#339=VECTOR('',#603,1.);
#340=VECTOR('',#604,1.);
#341=VECTOR('',#607,1.);
#342=VECTOR('',#608,1.);
#343=VECTOR('',#609,1.);
#344=VECTOR('',#612,1.);
#345=VECTOR('',#613,1.);
#346=VECTOR('',#618,1.);
#347=VECTOR('',#627,1.);
#348=VECTOR('',#630,1.);
#349=VECTOR('',#633,1.);
#350=VECTOR('',#636,1.);
#351=VECTOR('',#639,1.);
#352=EDGE_LOOP('',(#18,#19,#20,#21));
#353=EDGE_LOOP('',(#22,#23,#24,#25));
#354=EDGE_LOOP('',(#26));
#355=EDGE_LOOP('',(#27,#28,#29,#30));
#356=EDGE_LOOP('',(#31));
#357=EDGE_LOOP('',(#32));
#358=EDGE_LOOP('',(#33,#34,#35,#36,#37,#38,#39,#40,#41));
#359=EDGE_LOOP('',(#42,#43,#44,#45));
#360=EDGE_LOOP('',(#46,#47,#48,#49,#50,#51,#52,#53));
#361=EDGE_LOOP('',(#54,#55,#56,#57,#58,#59));
#362=EDGE_LOOP('',(#60,#61,#62,#63));
#363=EDGE_LOOP('',(#64,#65,#66,#67));
#364=EDGE_LOOP('',(#68,#69,#70,#71));
#365=EDGE_LOOP('',(#72,#73,#74));
#366=EDGE_LOOP('',(#75,#76,#77,#78));
#367=EDGE_LOOP('',(#79,#80,#81));
#368=EDGE_LOOP('',(#82,#83,#84,#85));
#369=EDGE_LOOP('',(#86));
#370=EDGE_LOOP('',(#87,#88,#89,#90));
#371=EDGE_LOOP('',(#91,#92,#93,#94,#95,#96));
#372=EDGE_LOOP('',(#97,#98,#99,#100));
#373=EDGE_LOOP('',(#101,#102,#103));
#374=EDGE_LOOP('',(#104,#105,#106,#107));
#375=EDGE_LOOP('',(#108,#109,#110));
#376=EDGE_LOOP('',(#111));
#377=EDGE_LOOP('',(#112));
#378=EDGE_LOOP('',(#113));
#379=EDGE_LOOP('',(#114));
#380=EDGE_LOOP('',(#115,#116,#117,#118,#119));
#381=EDGE_LOOP('',(#120,#121,#122,#123,#124));
#382=EDGE_LOOP('',(#125,#126,#127,#128));
#383=EDGE_LOOP('',(#129,#130,#131,#132));
#384=EDGE_LOOP('',(#133,#134,#135));
#385=EDGE_LOOP('',(#136,#137,#138,#139));
#386=FACE_BOUND('',#352,.T.);
#387=FACE_BOUND('',#353,.T.);
#388=FACE_BOUND('',#354,.T.);
#389=FACE_BOUND('',#355,.T.);
#390=FACE_BOUND('',#356,.T.);
#391=FACE_BOUND('',#357,.T.);
#392=FACE_BOUND('',#358,.T.);
#393=FACE_BOUND('',#359,.T.);
#394=FACE_BOUND('',#360,.T.);
#395=FACE_BOUND('',#361,.T.);
#396=FACE_BOUND('',#362,.T.);
#397=FACE_BOUND('',#363,.T.);
#398=FACE_BOUND('',#364,.T.);
#399=FACE_BOUND('',#365,.T.);
#400=FACE_BOUND('',#366,.T.);
#401=FACE_BOUND('',#367,.T.);
#402=FACE_BOUND('',#368,.T.);
#403=FACE_BOUND('',#369,.T.);
#404=FACE_BOUND('',#370,.T.);
#405=FACE_BOUND('',#371,.T.);
#406=FACE_BOUND('',#372,.T.);
#407=FACE_BOUND('',#373,.T.);
#408=FACE_BOUND('',#374,.T.);
#409=FACE_BOUND('',#375,.T.);
#410=FACE_BOUND('',#376,.T.);
#411=FACE_BOUND('',#377,.T.);
#412=FACE_BOUND('',#378,.T.);
#413=FACE_BOUND('',#379,.T.);
#414=FACE_BOUND('',#380,.T.);
#415=FACE_BOUND('',#381,.T.);
#416=FACE_BOUND('',#382,.T.);
#417=FACE_BOUND('',#383,.T.);
#418=FACE_BOUND('',#384,.T.);
#419=FACE_BOUND('',#385,.T.);
#420=PLANE('',#487);
#421=PLANE('',#488);
#422=PLANE('',#489);
#423=PLANE('',#491);
#424=PLANE('',#494);
#425=PLANE('',#495);
#426=PLANE('',#496);
#427=PLANE('',#497);
#428=PLANE('',#498);
#429=PLANE('',#499);
#430=PLANE('',#500);
#431=PLANE('',#501);
#432=PLANE('',#502);
#433=PLANE('',#503);
#434=PLANE('',#504);
#435=PLANE('',#506);
#436=PLANE('',#507);
#437=PLANE('',#508);
#438=PLANE('',#509);
#439=PLANE('',#510);
#440=PLANE('',#513);
#441=PLANE('',#514);
#442=PLANE('',#515);
#443=PLANE('',#516);
#444=PLANE('',#517);
#445=PLANE('',#518);
#446=ADVANCED_FACE('',(#386),#420,.F.);
#447=ADVANCED_FACE('',(#387),#421,.T.);
#448=ADVANCED_FACE('',(#388,#389),#422,.F.);
#449=ADVANCED_FACE('',(#390,#391,#392),#423,.T.);
#450=ADVANCED_FACE('',(#393),#424,.F.);
#451=ADVANCED_FACE('',(#394),#425,.F.);
#452=ADVANCED_FACE('',(#395),#426,.T.);
#453=ADVANCED_FACE('',(#396),#427,.T.);
#454=ADVANCED_FACE('',(#397),#428,.F.);
#455=ADVANCED_FACE('',(#398),#429,.F.);
#456=ADVANCED_FACE('',(#399),#430,.T.);
#457=ADVANCED_FACE('',(#400),#431,.F.);
#458=ADVANCED_FACE('',(#401),#432,.F.);
#459=ADVANCED_FACE('',(#402),#433,.T.);
#460=ADVANCED_FACE('',(#403,#404),#434,.F.);
#461=ADVANCED_FACE('',(#405),#435,.T.);
#462=ADVANCED_FACE('',(#406),#436,.F.);
#463=ADVANCED_FACE('',(#407),#437,.T.);
#464=ADVANCED_FACE('',(#408),#438,.F.);
#465=ADVANCED_FACE('',(#409),#439,.F.);
#466=ADVANCED_FACE('',(#410,#411),#12,.F.);
#467=ADVANCED_FACE('',(#412,#413),#13,.F.);
#468=ADVANCED_FACE('',(#414),#440,.T.);
#469=ADVANCED_FACE('',(#415),#441,.F.);
#470=ADVANCED_FACE('',(#416),#442,.T.);
#471=ADVANCED_FACE('',(#417),#443,.F.);
#472=ADVANCED_FACE('',(#418),#444,.T.);
#473=ADVANCED_FACE('',(#419),#445,.T.);
#474=CLOSED_SHELL('',(#446,#447,#448,#449,#450,#451,#452,#453,#454,#455,
#456,#457,#458,#459,#460,#461,#462,#463,#464,#465,#466,#467,#468,#469,#470,
#471,#472,#473));
#475=STYLED_ITEM('',(#476),#483);
#476=PRESENTATION_STYLE_ASSIGNMENT((#477));
#477=SURFACE_STYLE_USAGE(.BOTH.,#478);
#478=SURFACE_SIDE_STYLE('',(#479));
#479=SURFACE_STYLE_FILL_AREA(#480);
#480=FILL_AREA_STYLE('',(#481));
#481=FILL_AREA_STYLE_COLOUR('',#482);
#482=COLOUR_RGB('',0.615686274509804,0.811764705882353,0.929411764705882);
#483=MANIFOLD_SOLID_BREP('Part 1',#474);
#484=SHAPE_DEFINITION_REPRESENTATION(#775,#485);
#485=SHAPE_REPRESENTATION('Part 1',(#486),#770);
#486=AXIS2_PLACEMENT_3D('',#642,#519,#520);
#487=AXIS2_PLACEMENT_3D('',#643,#521,#522);
#488=AXIS2_PLACEMENT_3D('',#652,#527,#528);
#489=AXIS2_PLACEMENT_3D('',#661,#533,#534);
#490=AXIS2_PLACEMENT_3D('',#662,#535,#536);
#491=AXIS2_PLACEMENT_3D('',#669,#540,#541);
#492=AXIS2_PLACEMENT_3D('',#670,#542,#543);
#493=AXIS2_PLACEMENT_3D('',#672,#544,#545);
#494=AXIS2_PLACEMENT_3D('',#692,#555,#556);
#495=AXIS2_PLACEMENT_3D('',#698,#560,#561);
#496=AXIS2_PLACEMENT_3D('',#709,#568,#569);
#497=AXIS2_PLACEMENT_3D('',#716,#574,#575);
#498=AXIS2_PLACEMENT_3D('',#722,#579,#580);
#499=AXIS2_PLACEMENT_3D('',#725,#583,#584);
#500=AXIS2_PLACEMENT_3D('',#727,#586,#587);
#501=AXIS2_PLACEMENT_3D('',#728,#588,#589);
#502=AXIS2_PLACEMENT_3D('',#731,#592,#593);
#503=AXIS2_PLACEMENT_3D('',#732,#594,#595);
#504=AXIS2_PLACEMENT_3D('',#736,#598,#599);
#505=AXIS2_PLACEMENT_3D('',#737,#600,#601);
#506=AXIS2_PLACEMENT_3D('',#744,#605,#606);
#507=AXIS2_PLACEMENT_3D('',#749,#610,#611);
#508=AXIS2_PLACEMENT_3D('',#752,#614,#615);
#509=AXIS2_PLACEMENT_3D('',#753,#616,#617);
#510=AXIS2_PLACEMENT_3D('',#755,#619,#620);
#511=AXIS2_PLACEMENT_3D('',#756,#621,#622);
#512=AXIS2_PLACEMENT_3D('',#757,#623,#624);
#513=AXIS2_PLACEMENT_3D('',#758,#625,#626);
#514=AXIS2_PLACEMENT_3D('',#760,#628,#629);
#515=AXIS2_PLACEMENT_3D('',#762,#631,#632);
#516=AXIS2_PLACEMENT_3D('',#764,#634,#635);
#517=AXIS2_PLACEMENT_3D('',#766,#637,#638);
#518=AXIS2_PLACEMENT_3D('',#768,#640,#641);
#519=DIRECTION('',(0.,0.,1.));
#520=DIRECTION('',(1.,0.,0.));
#521=DIRECTION('',(0.,-1.,0.));
#522=DIRECTION('',(1.,0.,0.));
#523=DIRECTION('',(-1.,6.12323399573677E-17,0.));
#524=DIRECTION('',(0.,0.,-1.));
#525=DIRECTION('',(1.,0.,3.46944695195362E-16));
#526=DIRECTION('',(0.,0.,-1.));
#527=DIRECTION('',(1.,0.,0.));
#528=DIRECTION('',(0.,0.,-1.));
#529=DIRECTION('',(0.,1.,0.));
#530=DIRECTION('',(0.,0.,-1.));
#531=DIRECTION('',(0.,1.,0.));
#532=DIRECTION('',(0.,0.,-1.));
#533=DIRECTION('',(0.,0.,1.));
#534=DIRECTION('',(1.,0.,0.));
#535=DIRECTION('',(0.,0.,1.));
#536=DIRECTION('',(1.,0.,0.));
#537=DIRECTION('',(1.,0.,0.));
#538=DIRECTION('',(1.,0.,0.));
#539=DIRECTION('',(0.,1.,0.));
#540=DIRECTION('',(0.,0.,1.));
#541=DIRECTION('',(1.,0.,0.));
#542=DIRECTION('',(0.,0.,1.));
#543=DIRECTION('',(1.,0.,0.));
#544=DIRECTION('',(0.,0.,1.));
#545=DIRECTION('',(1.,0.,0.));
#546=DIRECTION('',(0.,1.,0.));
#547=DIRECTION('',(0.707106781186548,-0.707106781186547,0.));
#548=DIRECTION('',(1.,0.,0.));
#549=DIRECTION('',(0.749644637868814,0.661840552485668,0.));
#550=DIRECTION('',(0.,1.,0.));
#551=DIRECTION('',(1.,0.,0.));
#552=DIRECTION('',(6.12323399573677E-17,1.,0.));
#553=DIRECTION('',(-1.,6.12323399573677E-17,0.));
#554=DIRECTION('',(0.661840552485669,0.749644637868814,0.));
#555=DIRECTION('',(1.,0.,0.));
#556=DIRECTION('',(0.,0.,-1.));
#557=DIRECTION('',(0.,-1.,0.));
#558=DIRECTION('',(0.,0.,1.));
#559=DIRECTION('',(0.,-0.46961297297834,-0.88287238919928));
#560=DIRECTION('',(-3.46944695195362E-16,0.,1.));
#561=DIRECTION('',(1.,0.,3.46944695195362E-16));
#562=DIRECTION('',(0.,1.,0.));
#563=DIRECTION('',(-1.,0.,-3.46944695195362E-16));
#564=DIRECTION('',(0.,1.,0.));
#565=DIRECTION('',(1.,0.,3.46944695195362E-16));
#566=DIRECTION('',(-1.,6.12323399573677E-17,0.));
#567=DIRECTION('',(0.,1.,0.));
#568=DIRECTION('',(1.,0.,0.));
#569=DIRECTION('',(0.,0.,-1.));
#570=DIRECTION('',(0.,0.425074181917681,-0.905158516430693));
#571=DIRECTION('',(0.,1.,0.));
#572=DIRECTION('',(0.,1.,0.));
#573=DIRECTION('',(0.,0.,-1.));
#574=DIRECTION('',(0.,-1.,0.));
#575=DIRECTION('',(1.,0.,0.));
#576=DIRECTION('',(0.,0.,-1.));
#577=DIRECTION('',(1.,0.,3.46944695195362E-16));
#578=DIRECTION('',(0.46961297297834,0.,0.88287238919928));
#579=DIRECTION('',(0.,-1.,0.));
#580=DIRECTION('',(1.,0.,0.));
#581=DIRECTION('',(0.46961297297834,0.,0.88287238919928));
#582=DIRECTION('',(0.,0.,1.));
#583=DIRECTION('',(-0.88287238919928,0.,0.46961297297834));
#584=DIRECTION('',(0.46961297297834,0.,0.88287238919928));
#585=DIRECTION('',(0.46961297297834,0.,0.88287238919928));
#586=DIRECTION('',(0.,-1.,0.));
#587=DIRECTION('',(1.,0.,0.));
#588=DIRECTION('',(-0.88287238919928,0.,0.46961297297834));
#589=DIRECTION('',(0.46961297297834,0.,0.88287238919928));
#590=DIRECTION('',(-0.46961297297834,0.,-0.88287238919928));
#591=DIRECTION('',(0.46961297297834,0.,0.88287238919928));
#592=DIRECTION('',(0.,-1.,0.));
#593=DIRECTION('',(1.,0.,0.));
#594=DIRECTION('',(1.,-6.12323399573677E-17,0.));
#595=DIRECTION('',(6.12323399573677E-17,1.,0.));
#596=DIRECTION('',(2.87555012097999E-17,0.46961297297834,0.88287238919928));
#597=DIRECTION('',(0.,0.,-1.));
#598=DIRECTION('',(0.,0.,1.));
#599=DIRECTION('',(6.12323399573677E-17,1.,0.));
#600=DIRECTION('',(0.,0.,1.));
#601=DIRECTION('',(1.,0.,0.));
#602=DIRECTION('',(6.12323399573677E-17,1.,0.));
#603=DIRECTION('',(6.12323399573677E-17,1.,0.));
#604=DIRECTION('',(-1.,6.12323399573677E-17,0.));
#605=DIRECTION('',(6.12323399573677E-17,1.,0.));
#606=DIRECTION('',(0.,0.,-1.));
#607=DIRECTION('',(-1.,6.12323399573677E-17,0.));
#608=DIRECTION('',(0.425074181917682,-2.60282868142834E-17,-0.905158516430693));
#609=DIRECTION('',(-1.,6.12323399573677E-17,0.));
#610=DIRECTION('',(-5.40603422744237E-17,-0.88287238919928,0.46961297297834));
#611=DIRECTION('',(2.87555012097999E-17,0.46961297297834,0.88287238919928));
#612=DIRECTION('',(0.,0.46961297297834,0.88287238919928));
#613=DIRECTION('',(2.87555012097999E-17,0.46961297297834,0.88287238919928));
#614=DIRECTION('',(1.,-6.12323399573677E-17,0.));
#615=DIRECTION('',(6.12323399573677E-17,1.,0.));
#616=DIRECTION('',(-5.40603422744237E-17,-0.88287238919928,0.46961297297834));
#617=DIRECTION('',(2.87555012097999E-17,0.46961297297834,0.88287238919928));
#618=DIRECTION('',(2.87555012097999E-17,0.46961297297834,0.88287238919928));
#619=DIRECTION('',(1.,-6.12323399573677E-17,0.));
#620=DIRECTION('',(6.12323399573677E-17,1.,0.));
#621=DIRECTION('',(0.,0.,1.));
#622=DIRECTION('',(1.,0.,0.));
#623=DIRECTION('',(0.,0.,1.));
#624=DIRECTION('',(1.,0.,0.));
#625=DIRECTION('',(0.624285053325179,-0.707106781186548,-0.332066517726159));
#626=DIRECTION('',(-0.46961297297834,0.,-0.88287238919928));
#627=DIRECTION('',(-0.390981249292394,-0.650820122115842,0.650820122115842));
#628=DIRECTION('',(0.707106781186547,-0.62428505332518,0.33206651772616));
#629=DIRECTION('',(0.,0.46961297297834,0.88287238919928));
#630=DIRECTION('',(0.650820122115842,0.390981249292394,-0.650820122115842));
#631=DIRECTION('',(2.4532694666934E-16,-0.707106781186548,-0.707106781186547));
#632=DIRECTION('',(-1.,0.,-3.46944695195362E-16));
#633=DIRECTION('',(0.,-0.707106781186547,0.707106781186548));
#634=DIRECTION('',(0.707106781186547,0.,0.707106781186548));
#635=DIRECTION('',(0.,1.,0.));
#636=DIRECTION('',(-0.707106781186548,1.64540693022727E-16,0.707106781186547));
#637=DIRECTION('',(-0.577350269189626,-0.577350269189626,-0.577350269189626));
#638=DIRECTION('',(0.,0.707106781186548,-0.707106781186548));
#639=DIRECTION('',(-0.707106781186548,0.707106781186547,-1.19609907444043E-16));
#640=DIRECTION('',(-0.707106781186547,-0.707106781186548,0.));
#641=DIRECTION('',(0.,0.,1.));
#642=CARTESIAN_POINT('',(0.,0.,0.));
#643=CARTESIAN_POINT('',(0.0325,0.,-0.005));
#644=CARTESIAN_POINT('',(0.04,-6.93889390390723E-18,-0.003));
#645=CARTESIAN_POINT('',(0.03,-6.93889390390723E-18,-0.003));
#646=CARTESIAN_POINT('',(0.01,-6.93889390390723E-18,-0.003));
#647=CARTESIAN_POINT('',(0.03,-6.93889390390723E-18,-0.0265));
#648=CARTESIAN_POINT('',(0.03,0.,-0.05));
#649=CARTESIAN_POINT('',(0.02,0.,-0.05));
#650=CARTESIAN_POINT('',(0.01,0.,-0.05));
#651=CARTESIAN_POINT('',(0.01,-6.93889390390723E-18,-0.0265));
#652=CARTESIAN_POINT('',(0.04,-0.04,-0.0265));
#653=CARTESIAN_POINT('',(0.04,-0.04,-0.003));
#654=CARTESIAN_POINT('',(0.04,-0.03,-0.003));
#655=CARTESIAN_POINT('',(0.04,-0.01,-0.003));
#656=CARTESIAN_POINT('',(0.04,-0.03,-0.0265));
#657=CARTESIAN_POINT('',(0.04,-0.03,-0.05));
#658=CARTESIAN_POINT('',(0.04,-0.04,-0.05));
#659=CARTESIAN_POINT('',(0.04,-0.01,-0.05));
#660=CARTESIAN_POINT('',(0.04,-0.01,-0.0265));
#661=CARTESIAN_POINT('',(0.0525,-0.04,-0.003));
#662=CARTESIAN_POINT('',(0.0525,-0.02,-0.003));
#663=CARTESIAN_POINT('',(0.05515,-0.02,-0.003));
#664=CARTESIAN_POINT('',(0.0525,-0.03,-0.003));
#665=CARTESIAN_POINT('',(0.065,-0.03,-0.003));
#666=CARTESIAN_POINT('',(0.0525,-0.01,-0.003));
#667=CARTESIAN_POINT('',(0.065,-0.01,-0.003));
#668=CARTESIAN_POINT('',(0.065,-0.04,-0.003));
#669=CARTESIAN_POINT('',(0.02,-0.04,0.));
#670=CARTESIAN_POINT('',(0.0525,-0.02,0.));
#671=CARTESIAN_POINT('',(0.05515,-0.02,0.));
#672=CARTESIAN_POINT('',(0.02,0.0125,0.));
#673=CARTESIAN_POINT('',(0.02265,0.0125,0.));
#674=CARTESIAN_POINT('',(0.,-0.04,0.));
#675=CARTESIAN_POINT('',(0.,-0.035,0.));
#676=CARTESIAN_POINT('',(0.,0.02093241206204,0.));
#677=CARTESIAN_POINT('',(0.0125,-0.0475,0.));
#678=CARTESIAN_POINT('',(0.005,-0.04,0.));
#679=CARTESIAN_POINT('',(0.02,-0.04,0.));
#680=CARTESIAN_POINT('',(0.06093241206204,-0.04,0.));
#681=CARTESIAN_POINT('',(0.0379297438518831,-0.0603084206406595,0.));
#682=CARTESIAN_POINT('',(0.065,-0.036408838918935,3.19839640883224E-18));
#683=CARTESIAN_POINT('',(0.065,-0.04,3.19839640883224E-18));
#684=CARTESIAN_POINT('',(0.065,0.,3.19839640883224E-18));
#685=CARTESIAN_POINT('',(0.02,0.,0.));
#686=CARTESIAN_POINT('',(0.04,0.,0.));
#687=CARTESIAN_POINT('',(0.04,-0.02,0.));
#688=CARTESIAN_POINT('',(0.04,0.025,3.19839640883224E-18));
#689=CARTESIAN_POINT('',(0.04,0.025,3.19839640883224E-18));
#690=CARTESIAN_POINT('',(0.00359116108106497,0.025,3.19839640883224E-18));
#691=CARTESIAN_POINT('',(-0.0214706667282691,-0.00338669338392593,0.));
#692=CARTESIAN_POINT('',(0.,-0.04,-0.025));
#693=CARTESIAN_POINT('',(0.,-0.04,-0.045));
#694=CARTESIAN_POINT('',(0.,-0.00300375815072603,-0.045));
#695=CARTESIAN_POINT('',(0.,-0.035,-0.045));
#696=CARTESIAN_POINT('',(0.,-0.035,0.));
#697=CARTESIAN_POINT('',(0.,-0.0028706075352695,-0.0447496768429417));
#698=CARTESIAN_POINT('',(0.02,-0.04,-0.05));
#699=CARTESIAN_POINT('',(0.04,-0.04,-0.05));
#700=CARTESIAN_POINT('',(0.04,-0.035,-0.05));
#701=CARTESIAN_POINT('',(-1.07578333631778E-33,-0.035,-0.05));
#702=CARTESIAN_POINT('',(0.005,-0.035,-0.05));
#703=CARTESIAN_POINT('',(0.005,-0.04,-0.05));
#704=CARTESIAN_POINT('',(0.005,0.,-0.05));
#705=CARTESIAN_POINT('',(0.02,0.,-0.05));
#706=CARTESIAN_POINT('',(0.04,0.,-0.05));
#707=CARTESIAN_POINT('',(0.04,0.,-0.05));
#708=CARTESIAN_POINT('',(0.04,-0.01,-0.05));
#709=CARTESIAN_POINT('',(0.065,-0.04,-0.0015));
#710=CARTESIAN_POINT('',(0.065,-0.0364805795744814,0.000152765489188516));
#711=CARTESIAN_POINT('',(0.065,-0.035,-0.003));
#712=CARTESIAN_POINT('',(0.065,-0.04,-0.003));
#713=CARTESIAN_POINT('',(0.065,-0.01,-0.003));
#714=CARTESIAN_POINT('',(0.065,0.,-0.003));
#715=CARTESIAN_POINT('',(0.065,0.,-0.0015));
#716=CARTESIAN_POINT('',(0.0325,-0.04,-0.005));
#717=CARTESIAN_POINT('',(0.005,-0.04,-0.05));
#718=CARTESIAN_POINT('',(0.005,-0.04,-0.045));
#719=CARTESIAN_POINT('',(0.04,-0.04,-0.045));
#720=CARTESIAN_POINT('',(0.036996241849274,-0.04,-0.045));
#721=CARTESIAN_POINT('',(0.0605856380540036,-0.04,-0.000651935135108309));
#722=CARTESIAN_POINT('',(0.0325,0.,-0.005));
#723=CARTESIAN_POINT('',(0.0525,0.,-0.0265));
#724=CARTESIAN_POINT('',(0.04,0.,-0.005));
#725=CARTESIAN_POINT('',(0.0525,-0.01,-0.0265));
#726=CARTESIAN_POINT('',(0.0525,-0.01,-0.0265));
#727=CARTESIAN_POINT('',(0.0325,-0.01,-0.005));
#728=CARTESIAN_POINT('',(0.0525,-0.04,-0.0265));
#729=CARTESIAN_POINT('',(0.04,-0.035,-0.05));
#730=CARTESIAN_POINT('',(0.0525,-0.03,-0.0265));
#731=CARTESIAN_POINT('',(0.0325,-0.03,-0.005));
#732=CARTESIAN_POINT('',(0.04,-0.0075,-0.005));
#733=CARTESIAN_POINT('',(0.04,0.0125,-0.0265));
#734=CARTESIAN_POINT('',(0.04,0.025,-0.003));
#735=CARTESIAN_POINT('',(0.04,0.025,-0.0015));
#736=CARTESIAN_POINT('',(0.04,0.0125,-0.003));
#737=CARTESIAN_POINT('',(0.02,0.0125,-0.003));
#738=CARTESIAN_POINT('',(0.02265,0.0125,-0.003));
#739=CARTESIAN_POINT('',(0.03,0.0125,-0.003));
#740=CARTESIAN_POINT('',(0.03,0.025,-0.003));
#741=CARTESIAN_POINT('',(0.01,0.0125,-0.003));
#742=CARTESIAN_POINT('',(0.01,0.025,-0.003));
#743=CARTESIAN_POINT('',(0.04,0.025,-0.003));
#744=CARTESIAN_POINT('',(0.04,0.025,-0.0015));
#745=CARTESIAN_POINT('',(0.01,0.025,-0.003));
#746=CARTESIAN_POINT('',(0.005,0.025,-0.003));
#747=CARTESIAN_POINT('',(0.0107469428308381,0.025,-0.0152376151459155));
#748=CARTESIAN_POINT('',(0.04,0.025,-0.003));
#749=CARTESIAN_POINT('',(0.01,0.0125,-0.0265));
#750=CARTESIAN_POINT('',(0.005,0.0125,-0.0265));
#751=CARTESIAN_POINT('',(0.01,0.0125,-0.0265));
#752=CARTESIAN_POINT('',(0.01,-0.0075,-0.005));
#753=CARTESIAN_POINT('',(0.04,0.0125,-0.0265));
#754=CARTESIAN_POINT('',(0.03,0.0125,-0.0265));
#755=CARTESIAN_POINT('',(0.03,-0.0075,-0.005));
#756=CARTESIAN_POINT('',(0.02,0.0125,-0.003));
#757=CARTESIAN_POINT('',(0.0525,-0.02,-0.003));
#758=CARTESIAN_POINT('',(0.0525889902064383,-0.04,-0.0156856330885311));
#759=CARTESIAN_POINT('',(0.0363089178261684,-0.0411441067965799,-0.0438558932034201));
#760=CARTESIAN_POINT('',(0.005,0.0125,-0.0265));
#761=CARTESIAN_POINT('',(-0.00517833857637921,-0.00611465349192964,-0.0398216614236208));
#762=CARTESIAN_POINT('',(0.0325,-0.04,-0.045));
#763=CARTESIAN_POINT('',(0.005,-0.04,-0.045));
#764=CARTESIAN_POINT('',(0.005,-0.04,-0.05));
#765=CARTESIAN_POINT('',(0.0025,-0.035,-0.0475));
#766=CARTESIAN_POINT('',(0.005,-0.04,-0.045));
#767=CARTESIAN_POINT('',(0.005,-0.04,-0.045));
#768=CARTESIAN_POINT('',(0.005,-0.04,-0.005));
#769=MECHANICAL_DESIGN_GEOMETRIC_PRESENTATION_REPRESENTATION('',(#475),
#770);
#770=(
GEOMETRIC_REPRESENTATION_CONTEXT(3)
GLOBAL_UNCERTAINTY_ASSIGNED_CONTEXT((#771))
GLOBAL_UNIT_ASSIGNED_CONTEXT((#774,#773,#772))
REPRESENTATION_CONTEXT('Part 1','TOP_LEVEL_ASSEMBLY_PART')
);
#771=UNCERTAINTY_MEASURE_WITH_UNIT(LENGTH_MEASURE(1.E-8),#774,
'DISTANCE_ACCURACY_VALUE','Maximum Tolerance applied to model');
#772=(
NAMED_UNIT(*)
SI_UNIT($,.STERADIAN.)
SOLID_ANGLE_UNIT()
);
#773=(
NAMED_UNIT(*)
PLANE_ANGLE_UNIT()
SI_UNIT($,.RADIAN.)
);
#774=(
LENGTH_UNIT()
NAMED_UNIT(*)
SI_UNIT($,.METRE.)
);
#775=PRODUCT_DEFINITION_SHAPE('','',#776);
#776=PRODUCT_DEFINITION('','',#778,#777);
#777=PRODUCT_DEFINITION_CONTEXT('',#784,'design');
#778=PRODUCT_DEFINITION_FORMATION_WITH_SPECIFIED_SOURCE('','',#780,
 .NOT_KNOWN.);
#779=PRODUCT_RELATED_PRODUCT_CATEGORY('','',(#780));
#780=PRODUCT('Part 1','Part 1','Part 1',(#782));
#781=PRODUCT_CATEGORY('','');
#782=PRODUCT_CONTEXT('',#784,'mechanical');
#783=APPLICATION_PROTOCOL_DEFINITION('international standard',
'ap242_managed_model_based_3d_engineering',2020,#784);
#784=APPLICATION_CONTEXT('managed model based 3d engineering');
ENDSEC;
END-ISO-10303-21;
